<?xml version="1.0" encoding="utf-8" standalone="no"?>
<!DOCTYPE svg PUBLIC "-//W3C//DTD SVG 1.1//EN"
  "http://www.w3.org/Graphics/SVG/1.1/DTD/svg11.dtd">
<svg xmlns:xlink="http://www.w3.org/1999/xlink" width="460.8pt" height="345.6pt" viewBox="0 0 460.8 345.6" xmlns="http://www.w3.org/2000/svg" version="1.1">
 <metadata>
  <rdf:RDF xmlns:dc="http://purl.org/dc/elements/1.1/" xmlns:cc="http://creativecommons.org/ns#" xmlns:rdf="http://www.w3.org/1999/02/22-rdf-syntax-ns#">
   <cc:Work>
    <dc:type rdf:resource="http://purl.org/dc/dcmitype/StillImage"/>
    <dc:date>2024-01-14T17:55:43.830333</dc:date>
    <dc:format>image/svg+xml</dc:format>
    <dc:creator>
     <cc:Agent>
      <dc:title>Matplotlib v3.8.2, https://matplotlib.org/</dc:title>
     </cc:Agent>
    </dc:creator>
   </cc:Work>
  </rdf:RDF>
 </metadata>
 <defs>
  <style type="text/css">*{stroke-linejoin: round; stroke-linecap: butt}</style>
 </defs>
 <g id="figure_1">
  <g id="patch_1">
   <path d="M 0 345.6 
L 460.8 345.6 
L 460.8 0 
L 0 0 
z
" style="fill: #ffffff"/>
  </g>
  <g id="axes_1">
   <g id="patch_2">
    <path d="M 57.6 307.584 
L 414.72 307.584 
L 414.72 41.472 
L 57.6 41.472 
z
" style="fill: #ffffff"/>
   </g>
   <g id="EdgeCollection_1">
    <path d="M 85.584529 205.099549 
C 63.044164 213.371508 82.771171 232.155324 89.929776 209.23704 
C 82.771171 232.155324 63.044164 213.371508 85.584529 205.099549 
" clip-path="url(#p14e9e3f06a)" style="fill: #add8e6; stroke: #add8e6; stroke-width: 2.5"/>
    <path d="M 90.828432 197.427077 
L 89.348296 180.141373 
" clip-path="url(#p14e9e3f06a)" style="fill: #add8e6; stroke: #add8e6; stroke-width: 2.5"/>
    <path d="M 95.00101 198.651319 
L 97.251097 195.729285 
" clip-path="url(#p14e9e3f06a)" style="fill: #add8e6; stroke: #add8e6; stroke-width: 2.5"/>
    <path d="M 97.33634 203.623828 
L 113.42261 204.210368 
" clip-path="url(#p14e9e3f06a)" style="fill: #add8e6; stroke: #add8e6; stroke-width: 2.5"/>
    <path d="M 84.386285 170.138767 
C 65.563182 155.232923 59.841792 181.864713 83.12604 176.004923 
C 59.841792 181.864713 65.563182 155.232923 84.386285 170.138767 
" clip-path="url(#p14e9e3f06a)" style="fill: #add8e6; stroke: #add8e6; stroke-width: 2.5"/>
    <path d="M 91.758408 168.92284 
L 99.57786 154.899209 
" clip-path="url(#p14e9e3f06a)" style="fill: #add8e6; stroke: #add8e6; stroke-width: 2.5"/>
    <path d="M 92.336621 179.036489 
L 97.411563 186.102164 
" clip-path="url(#p14e9e3f06a)" style="fill: #add8e6; stroke: #add8e6; stroke-width: 2.5"/>
    <path d="M 94.792352 174.888969 
L 109.594636 176.692596 
" clip-path="url(#p14e9e3f06a)" style="fill: #add8e6; stroke: #add8e6; stroke-width: 2.5"/>
    <path d="M 102.97017 143.677261 
C 103.282918 119.669022 78.697892 131.397749 97.554853 146.260735 
C 78.697892 131.397749 103.282918 119.669022 102.97017 143.677261 
" clip-path="url(#p14e9e3f06a)" style="fill: #add8e6; stroke: #add8e6; stroke-width: 2.5"/>
    <path d="M 108.41146 150.684982 
L 123.247173 153.260283 
" clip-path="url(#p14e9e3f06a)" style="fill: #add8e6; stroke: #add8e6; stroke-width: 2.5"/>
    <path d="M 316.726195 58.904322 
C 317.958632 34.925696 292.942253 45.703791 311.215864 61.278401 
C 292.942253 45.703791 317.958632 34.925696 316.726195 58.904322 
" clip-path="url(#p14e9e3f06a)" style="fill: #9acd32; stroke: #9acd32; stroke-width: 2.5"/>
    <path d="M 321.909195 66.046786 
L 339.903194 69.666717 
" clip-path="url(#p14e9e3f06a)" style="fill: #9acd32; stroke: #9acd32; stroke-width: 2.5"/>
    <path d="M 312.846762 69.951258 
L 305.851747 81.141876 
" clip-path="url(#p14e9e3f06a)" style="fill: #9acd32; stroke: #9acd32; stroke-width: 2.5"/>
    <path d="M 350.80665 67.565774 
C 369.998027 53.137177 345.687183 40.850216 345.451726 64.859338 
C 345.687183 40.850216 369.998027 53.137177 350.80665 67.565774 
" clip-path="url(#p14e9e3f06a)" style="fill: #9acd32; stroke: #9acd32; stroke-width: 2.5"/>
    <path d="M 350.226624 74.88429 
L 364.330827 87.695839 
" clip-path="url(#p14e9e3f06a)" style="fill: #9acd32; stroke: #9acd32; stroke-width: 2.5"/>
    <path d="M 347.679 76.543392 
L 350.274141 84.345773 
" clip-path="url(#p14e9e3f06a)" style="fill: #9acd32; stroke: #9acd32; stroke-width: 2.5"/>
    <path d="M 342.303666 75.736558 
L 334.745983 86.34369 
" clip-path="url(#p14e9e3f06a)" style="fill: #9acd32; stroke: #9acd32; stroke-width: 2.5"/>
    <path d="M 374.135569 94.419545 
C 396.256451 103.755493 394.655767 76.563134 373.782988 88.429913 
C 394.655767 76.563134 396.256451 103.755493 374.135569 94.419545 
" clip-path="url(#p14e9e3f06a)" style="fill: #9acd32; stroke: #9acd32; stroke-width: 2.5"/>
    <path d="M 362.802979 91.122184 
L 358.136921 90.646998 
" clip-path="url(#p14e9e3f06a)" style="fill: #9acd32; stroke: #9acd32; stroke-width: 2.5"/>
    <path d="M 364.834812 96.257514 
L 355.430641 107.071242 
" clip-path="url(#p14e9e3f06a)" style="fill: #9acd32; stroke: #9acd32; stroke-width: 2.5"/>
    <path d="M 95.766348 187.889223 
C 74.412282 176.9121 73.958314 204.147747 95.666353 193.888389 
C 73.958314 204.147747 74.412282 176.9121 95.766348 187.889223 
" clip-path="url(#p14e9e3f06a)" style="fill: #add8e6; stroke: #add8e6; stroke-width: 2.5"/>
    <path d="M 105.764938 194.503417 
L 114.56547 200.900983 
" clip-path="url(#p14e9e3f06a)" style="fill: #add8e6; stroke: #add8e6; stroke-width: 2.5"/>
    <path d="M 105.31395 186.898528 
L 111.148417 181.495191 
" clip-path="url(#p14e9e3f06a)" style="fill: #add8e6; stroke: #add8e6; stroke-width: 2.5"/>
    <path d="M 357.758271 87.860446 
C 379.511757 77.697808 358.25585 60.663344 353.076255 84.108283 
C 358.25585 60.663344 379.511757 77.697808 357.758271 87.860446 
" clip-path="url(#p14e9e3f06a)" style="fill: #9acd32; stroke: #9acd32; stroke-width: 2.5"/>
    <path d="M 346.177511 90.380436 
L 337.254586 90.888866 
" clip-path="url(#p14e9e3f06a)" style="fill: #9acd32; stroke: #9acd32; stroke-width: 2.5"/>
    <path d="M 351.980189 96.036176 
L 351.680953 105.601616 
" clip-path="url(#p14e9e3f06a)" style="fill: #9acd32; stroke: #9acd32; stroke-width: 2.5"/>
    <path d="M 115.248287 208.742727 
C 99.724324 227.059384 126.150974 233.663829 121.069257 210.197481 
C 126.150974 233.663829 99.724324 227.059384 115.248287 208.742727 
" clip-path="url(#p14e9e3f06a)" style="fill: #add8e6; stroke: #add8e6; stroke-width: 2.5"/>
    <path d="M 118.568078 198.489588 
L 116.401133 183.357724 
" clip-path="url(#p14e9e3f06a)" style="fill: #add8e6; stroke: #add8e6; stroke-width: 2.5"/>
    <path d="M 124.812526 207.056892 
L 138.489968 213.720509 
" clip-path="url(#p14e9e3f06a)" style="fill: #add8e6; stroke: #add8e6; stroke-width: 2.5"/>
    <path d="M 120.067895 181.367228 
C 139.139531 195.953731 144.411286 169.229302 121.229099 175.480667 
C 144.411286 169.229302 139.139531 195.953731 120.067895 181.367228 
" clip-path="url(#p14e9e3f06a)" style="fill: #add8e6; stroke: #add8e6; stroke-width: 2.5"/>
    <path d="M 118.592907 172.246829 
L 126.116445 159.457952 
" clip-path="url(#p14e9e3f06a)" style="fill: #add8e6; stroke: #add8e6; stroke-width: 2.5"/>
    <path d="M 132.476659 149.287306 
C 144.417314 128.4567 117.230797 126.759687 126.488315 148.913507 
C 117.230797 126.759687 144.417314 128.4567 132.476659 149.287306 
" clip-path="url(#p14e9e3f06a)" style="fill: #add8e6; stroke: #add8e6; stroke-width: 2.5"/>
    <path d="M 135.152087 154.003402 
L 151.057684 153.252183 
" clip-path="url(#p14e9e3f06a)" style="fill: #add8e6; stroke: #add8e6; stroke-width: 2.5"/>
    <path d="M 300.517236 80.629749 
C 290.449685 58.832094 273.322566 80.013414 296.744664 85.295336 
C 273.322566 80.013414 290.449685 58.832094 300.517236 80.629749 
" clip-path="url(#p14e9e3f06a)" style="fill: #9acd32; stroke: #9acd32; stroke-width: 2.5"/>
    <path d="M 308.581763 87.263318 
L 325.354006 90.196561 
" clip-path="url(#p14e9e3f06a)" style="fill: #9acd32; stroke: #9acd32; stroke-width: 2.5"/>
    <path d="M 298.362047 90.40448 
L 287.866131 100.572508 
" clip-path="url(#p14e9e3f06a)" style="fill: #9acd32; stroke: #9acd32; stroke-width: 2.5"/>
    <path d="M 326.200672 94.448833 
C 306.823101 108.62639 330.971944 121.228768 331.519912 97.224746 
C 330.971944 121.228768 306.823101 108.62639 326.200672 94.448833 
" clip-path="url(#p14e9e3f06a)" style="fill: #9acd32; stroke: #9acd32; stroke-width: 2.5"/>
    <path d="M 335.492346 95.487381 
L 347.265304 107.341494 
" clip-path="url(#p14e9e3f06a)" style="fill: #9acd32; stroke: #9acd32; stroke-width: 2.5"/>
    <path d="M 354.768502 116.625944 
C 369.162211 135.843501 381.493315 111.555018 357.484661 111.275946 
C 381.493315 111.555018 369.162211 135.843501 354.768502 116.625944 
" clip-path="url(#p14e9e3f06a)" style="fill: #9acd32; stroke: #9acd32; stroke-width: 2.5"/>
    <path d="M 350.161879 117.449083 
L 347.196005 130.48097 
" clip-path="url(#p14e9e3f06a)" style="fill: #9acd32; stroke: #9acd32; stroke-width: 2.5"/>
    <path d="M 158.102084 147.061901 
C 160.753408 123.198459 135.142252 132.475056 152.460743 149.105247 
C 135.142252 132.475056 160.753408 123.198459 158.102084 147.061901 
" clip-path="url(#p14e9e3f06a)" style="fill: #add8e6; stroke: #add8e6; stroke-width: 2.5"/>
    <path d="M 161.835392 149.348398 
L 174.797242 139.53915 
" clip-path="url(#p14e9e3f06a)" style="fill: #add8e6; stroke: #add8e6; stroke-width: 2.5"/>
    <path d="M 160.301615 158.012285 
L 168.568367 170.837743 
" clip-path="url(#p14e9e3f06a)" style="fill: #add8e6; stroke: #add8e6; stroke-width: 2.5"/>
    <path d="M 179.975066 129.931342 
C 179.979412 105.921066 155.547065 117.964609 174.593379 132.58416 
C 155.547065 117.964609 179.979412 105.921066 179.975066 129.931342 
" clip-path="url(#p14e9e3f06a)" style="fill: #add8e6; stroke: #add8e6; stroke-width: 2.5"/>
    <path d="M 185.367234 134.328838 
L 203.145216 129.444351 
" clip-path="url(#p14e9e3f06a)" style="fill: #add8e6; stroke: #add8e6; stroke-width: 2.5"/>
    <path d="M 185.352016 137.562403 
L 193.131707 139.778826 
" clip-path="url(#p14e9e3f06a)" style="fill: #add8e6; stroke: #add8e6; stroke-width: 2.5"/>
    <path d="M 182.479853 141.172028 
L 189.601846 154.082043 
" clip-path="url(#p14e9e3f06a)" style="fill: #add8e6; stroke: #add8e6; stroke-width: 2.5"/>
    <path d="M 211.649818 122.506205 
C 221.107572 100.437126 193.906803 101.887879 205.658334 122.825761 
C 193.906803 101.887879 221.107572 100.437126 211.649818 122.506205 
" clip-path="url(#p14e9e3f06a)" style="fill: #add8e6; stroke: #add8e6; stroke-width: 2.5"/>
    <path d="M 214.852681 128.819933 
L 230.278679 131.334134 
" clip-path="url(#p14e9e3f06a)" style="fill: #d3d3d3; stroke: #d3d3d3; stroke-width: 2.5"/>
    <path d="M 205.364432 132.679787 
L 202.468479 136.597773 
" clip-path="url(#p14e9e3f06a)" style="fill: #add8e6; stroke: #add8e6; stroke-width: 2.5"/>
    <path d="M 211.202342 133.408154 
L 217.101447 147.830222 
" clip-path="url(#p14e9e3f06a)" style="fill: #add8e6; stroke: #add8e6; stroke-width: 2.5"/>
    <path d="M 237.735429 126.498952 
C 242.346632 102.935629 216.057408 110.067478 231.94473 128.069877 
C 216.057408 110.067478 242.346632 102.935629 237.735429 126.498952 
" clip-path="url(#p14e9e3f06a)" style="fill: #9acd32; stroke: #9acd32; stroke-width: 2.5"/>
    <path d="M 240.822739 128.473698 
L 252.69559 118.647015 
" clip-path="url(#p14e9e3f06a)" style="fill: #9acd32; stroke: #9acd32; stroke-width: 2.5"/>
    <path d="M 242.021707 133.753275 
L 246.313628 134.82528 
" clip-path="url(#p14e9e3f06a)" style="fill: #9acd32; stroke: #9acd32; stroke-width: 2.5"/>
    <path d="M 238.678638 137.763649 
L 245.677741 153.19706 
" clip-path="url(#p14e9e3f06a)" style="fill: #9acd32; stroke: #9acd32; stroke-width: 2.5"/>
    <path d="M 257.28549 108.821494 
C 255.586461 84.871407 232.070081 98.617912 252.105562 111.849422 
C 232.070081 98.617912 255.586461 84.871407 257.28549 108.821494 
" clip-path="url(#p14e9e3f06a)" style="fill: #9acd32; stroke: #9acd32; stroke-width: 2.5"/>
    <path d="M 262.919133 112.670841 
L 277.955367 106.897868 
" clip-path="url(#p14e9e3f06a)" style="fill: #9acd32; stroke: #9acd32; stroke-width: 2.5"/>
    <path d="M 255.909043 120.653682 
L 253.54354 130.446973 
" clip-path="url(#p14e9e3f06a)" style="fill: #9acd32; stroke: #9acd32; stroke-width: 2.5"/>
    <path d="M 259.81681 120.276211 
L 266.171603 134.147301 
" clip-path="url(#p14e9e3f06a)" style="fill: #9acd32; stroke: #9acd32; stroke-width: 2.5"/>
    <path d="M 283.290048 98.753231 
C 280.656691 74.8878 257.695277 89.542494 278.232362 101.981205 
C 257.695277 89.542494 280.656691 74.8878 283.290048 98.753231 
" clip-path="url(#p14e9e3f06a)" style="fill: #9acd32; stroke: #9acd32; stroke-width: 2.5"/>
    <path d="M 285.829496 110.30018 
L 291.354115 123.797956 
" clip-path="url(#p14e9e3f06a)" style="fill: #9acd32; stroke: #9acd32; stroke-width: 2.5"/>
    <path d="M 200.066054 135.536783 
C 203.173676 111.728465 177.389644 120.513123 194.386633 137.471771 
C 177.389644 120.513123 203.173676 111.728465 200.066054 135.536783 
" clip-path="url(#p14e9e3f06a)" style="fill: #add8e6; stroke: #add8e6; stroke-width: 2.5"/>
    <path d="M 204.08262 144.449702 
L 214.192442 150.356714 
" clip-path="url(#p14e9e3f06a)" style="fill: #add8e6; stroke: #add8e6; stroke-width: 2.5"/>
    <path d="M 196.882793 147.072794 
L 194.519368 153.685649 
" clip-path="url(#p14e9e3f06a)" style="fill: #add8e6; stroke: #add8e6; stroke-width: 2.5"/>
    <path d="M 246.142734 136.587808 
C 222.296294 139.387931 237.111141 162.24634 249.405984 141.622805 
C 237.111141 162.24634 222.296294 139.387931 246.142734 136.587808 
" clip-path="url(#p14e9e3f06a)" style="fill: #9acd32; stroke: #9acd32; stroke-width: 2.5"/>
    <path d="M 251.084618 142.186628 
L 249.206014 152.754023 
" clip-path="url(#p14e9e3f06a)" style="fill: #9acd32; stroke: #9acd32; stroke-width: 2.5"/>
    <path d="M 258.017203 137.461312 
L 262.788216 138.420042 
" clip-path="url(#p14e9e3f06a)" style="fill: #9acd32; stroke: #9acd32; stroke-width: 2.5"/>
    <path d="M 216.468604 158.633821 
C 206.244917 180.358682 233.479782 179.85998 222.467599 158.523973 
C 233.479782 179.85998 206.244917 180.358682 216.468604 158.633821 
" clip-path="url(#p14e9e3f06a)" style="fill: #add8e6; stroke: #add8e6; stroke-width: 2.5"/>
    <path d="M 225.274575 154.465767 
L 242.254232 157.579251 
" clip-path="url(#p14e9e3f06a)" style="fill: #d3d3d3; stroke: #d3d3d3; stroke-width: 2.5"/>
    <path d="M 213.514938 154.6811 
L 198.358101 158.038158 
" clip-path="url(#p14e9e3f06a)" style="fill: #add8e6; stroke: #add8e6; stroke-width: 2.5"/>
    <path d="M 242.629504 160.997988 
C 221.173474 171.77445 242.904681 188.19825 247.416214 164.615641 
C 242.904681 188.19825 221.173474 171.77445 242.629504 160.997988 
" clip-path="url(#p14e9e3f06a)" style="fill: #9acd32; stroke: #9acd32; stroke-width: 2.5"/>
    <path d="M 252.551546 154.577562 
L 264.274916 143.685946 
" clip-path="url(#p14e9e3f06a)" style="fill: #9acd32; stroke: #9acd32; stroke-width: 2.5"/>
    <path d="M 250.807582 164.043618 
L 258.566391 179.791585 
" clip-path="url(#p14e9e3f06a)" style="fill: #9acd32; stroke: #9acd32; stroke-width: 2.5"/>
    <path d="M 268.944111 145.59587 
C 271.604632 169.458288 294.549349 154.777466 273.998119 142.362141 
C 294.549349 154.777466 271.604632 169.458288 268.944111 145.59587 
" clip-path="url(#p14e9e3f06a)" style="fill: #9acd32; stroke: #9acd32; stroke-width: 2.5"/>
    <path d="M 274.220636 137.322331 
L 288.076887 131.630608 
" clip-path="url(#p14e9e3f06a)" style="fill: #9acd32; stroke: #9acd32; stroke-width: 2.5"/>
    <path d="M 299.510974 128.1771 
C 322.699815 121.950461 304.728503 101.48052 295.552453 123.668208 
C 304.728503 101.48052 322.699815 121.950461 299.510974 128.1771 
" clip-path="url(#p14e9e3f06a)" style="fill: #9acd32; stroke: #9acd32; stroke-width: 2.5"/>
    <path d="M 298.838841 132.323317 
L 312.706076 140.232098 
" clip-path="url(#p14e9e3f06a)" style="fill: #9acd32; stroke: #9acd32; stroke-width: 2.5"/>
    <path d="M 138.063556 217.805789 
C 115.203559 225.148399 134.14535 244.723769 142.235844 222.117635 
C 134.14535 244.723769 115.203559 225.148399 138.063556 217.805789 
" clip-path="url(#p14e9e3f06a)" style="fill: #add8e6; stroke: #add8e6; stroke-width: 2.5"/>
    <path d="M 149.125671 213.428901 
L 163.759043 205.278615 
" clip-path="url(#p14e9e3f06a)" style="fill: #add8e6; stroke: #add8e6; stroke-width: 2.5"/>
    <path d="M 149.303582 218.922644 
L 155.936487 222.073121 
" clip-path="url(#p14e9e3f06a)" style="fill: #add8e6; stroke: #add8e6; stroke-width: 2.5"/>
    <path d="M 146.332939 221.825818 
L 152.920442 236.558949 
" clip-path="url(#p14e9e3f06a)" style="fill: #add8e6; stroke: #add8e6; stroke-width: 2.5"/>
    <path d="M 166.321735 196.990464 
C 154.218784 176.253735 139.192475 198.973695 163.011906 201.994965 
C 139.192475 198.973695 154.218784 176.253735 166.321735 196.990464 
" clip-path="url(#p14e9e3f06a)" style="fill: #add8e6; stroke: #add8e6; stroke-width: 2.5"/>
    <path d="M 167.054226 208.034555 
L 163.302821 218.971915 
" clip-path="url(#p14e9e3f06a)" style="fill: #add8e6; stroke: #add8e6; stroke-width: 2.5"/>
    <path d="M 174.121427 205.486354 
L 187.831046 213.859098 
" clip-path="url(#p14e9e3f06a)" style="fill: #add8e6; stroke: #add8e6; stroke-width: 2.5"/>
    <path d="M 169.635853 196.392808 
L 171.183972 181.847211 
" clip-path="url(#p14e9e3f06a)" style="fill: #add8e6; stroke: #add8e6; stroke-width: 2.5"/>
    <path d="M 321.607028 138.472646 
C 335.099537 118.611992 308.12124 114.849279 315.664548 137.643837 
C 308.12124 114.849279 335.099537 118.611992 321.607028 138.472646 
" clip-path="url(#p14e9e3f06a)" style="fill: #9acd32; stroke: #9acd32; stroke-width: 2.5"/>
    <path d="M 323.744395 141.771633 
L 340.03816 137.764319 
" clip-path="url(#p14e9e3f06a)" style="fill: #9acd32; stroke: #9acd32; stroke-width: 2.5"/>
    <path d="M 323.382356 145.682689 
L 335.48999 151.173569 
" clip-path="url(#p14e9e3f06a)" style="fill: #9acd32; stroke: #9acd32; stroke-width: 2.5"/>
    <path d="M 316.482491 149.030322 
L 313.236447 162.203601 
" clip-path="url(#p14e9e3f06a)" style="fill: #9acd32; stroke: #9acd32; stroke-width: 2.5"/>
    <path d="M 351.365934 138.72608 
C 373.960472 146.848901 370.887773 119.783331 350.689114 132.764376 
C 370.887773 119.783331 373.960472 146.848901 351.365934 138.72608 
" clip-path="url(#p14e9e3f06a)" style="fill: #9acd32; stroke: #9acd32; stroke-width: 2.5"/>
    <path d="M 344.22806 142.103887 
L 342.590803 147.87916 
" clip-path="url(#p14e9e3f06a)" style="fill: #9acd32; stroke: #9acd32; stroke-width: 2.5"/>
    <path d="M 348.473586 141.734413 
L 355.629144 156.552756 
" clip-path="url(#p14e9e3f06a)" style="fill: #9acd32; stroke: #9acd32; stroke-width: 2.5"/>
    <path d="M 167.231917 225.862252 
C 191.01243 229.175941 182.451394 203.316799 165.346186 220.166286 
C 182.451394 203.316799 191.01243 229.175941 167.231917 225.862252 
" clip-path="url(#p14e9e3f06a)" style="fill: #add8e6; stroke: #add8e6; stroke-width: 2.5"/>
    <path d="M 159.403033 230.320554 
L 157.322681 236.363168 
" clip-path="url(#p14e9e3f06a)" style="fill: #add8e6; stroke: #add8e6; stroke-width: 2.5"/>
    <path d="M 166.304939 228.039997 
L 177.629319 235.803497 
" clip-path="url(#p14e9e3f06a)" style="fill: #add8e6; stroke: #add8e6; stroke-width: 2.5"/>
    <path d="M 334.961386 153.360717 
C 310.954549 153.767103 323.414281 177.989852 337.705878 158.696236 
C 323.414281 177.989852 310.954549 153.767103 334.961386 153.360717 
" clip-path="url(#p14e9e3f06a)" style="fill: #9acd32; stroke: #9acd32; stroke-width: 2.5"/>
    <path d="M 339.792563 159.538127 
L 337.473681 171.287494 
" clip-path="url(#p14e9e3f06a)" style="fill: #9acd32; stroke: #9acd32; stroke-width: 2.5"/>
    <path d="M 346.362505 156.250063 
L 352.830015 159.357412 
" clip-path="url(#p14e9e3f06a)" style="fill: #9acd32; stroke: #9acd32; stroke-width: 2.5"/>
    <path d="M 197.421934 212.984298 
C 214.225276 195.833756 188.343164 187.34242 191.720909 211.11392 
C 188.343164 187.34242 214.225276 195.833756 197.421934 212.984298 
" clip-path="url(#p14e9e3f06a)" style="fill: #add8e6; stroke: #add8e6; stroke-width: 2.5"/>
    <path d="M 190.412506 222.422596 
L 185.117178 233.759881 
" clip-path="url(#p14e9e3f06a)" style="fill: #add8e6; stroke: #add8e6; stroke-width: 2.5"/>
    <path d="M 198.929576 217.500275 
L 214.317698 218.823215 
" clip-path="url(#p14e9e3f06a)" style="fill: #add8e6; stroke: #add8e6; stroke-width: 2.5"/>
    <path d="M 166.070109 174.16321 
C 142.664533 168.80855 148.960767 195.310323 167.456973 180.000727 
C 148.960767 195.310323 142.664533 168.80855 166.070109 174.16321 
" clip-path="url(#p14e9e3f06a)" style="fill: #add8e6; stroke: #add8e6; stroke-width: 2.5"/>
    <path d="M 176.504148 172.132684 
L 187.8149 163.083867 
" clip-path="url(#p14e9e3f06a)" style="fill: #add8e6; stroke: #add8e6; stroke-width: 2.5"/>
    <path d="M 192.037102 165.317754 
C 191.753806 189.326359 216.324426 177.567483 197.449246 162.727639 
C 216.324426 177.567483 191.753806 189.326359 192.037102 165.317754 
" clip-path="url(#p14e9e3f06a)" style="fill: #add8e6; stroke: #add8e6; stroke-width: 2.5"/>
    <path d="M 256.289478 181.752057 
C 235.71322 169.378255 233.447857 196.523322 255.790489 187.731271 
C 233.447857 196.523322 235.71322 169.378255 256.289478 181.752057 
" clip-path="url(#p14e9e3f06a)" style="fill: #9acd32; stroke: #9acd32; stroke-width: 2.5"/>
    <path d="M 267.196304 184.662425 
L 284.597783 183.173892 
" clip-path="url(#p14e9e3f06a)" style="fill: #9acd32; stroke: #9acd32; stroke-width: 2.5"/>
    <path d="M 263.990377 190.494955 
L 271.944976 205.763341 
" clip-path="url(#p14e9e3f06a)" style="fill: #9acd32; stroke: #9acd32; stroke-width: 2.5"/>
    <path d="M 266.451288 188.108782 
L 277.030366 194.041991 
" clip-path="url(#p14e9e3f06a)" style="fill: #9acd32; stroke: #9acd32; stroke-width: 2.5"/>
    <path d="M 257.710951 190.04203 
L 248.642266 202.630029 
" clip-path="url(#p14e9e3f06a)" style="fill: #d3d3d3; stroke: #d3d3d3; stroke-width: 2.5"/>
    <path d="M 291.645011 176.758525 
C 294.368973 152.903266 268.729694 162.101848 285.997475 178.784687 
C 268.729694 162.101848 294.368973 152.903266 291.645011 176.758525 
" clip-path="url(#p14e9e3f06a)" style="fill: #9acd32; stroke: #9acd32; stroke-width: 2.5"/>
    <path d="M 295.515742 179.256865 
L 306.861127 171.434993 
" clip-path="url(#p14e9e3f06a)" style="fill: #9acd32; stroke: #9acd32; stroke-width: 2.5"/>
    <path d="M 287.562917 187.851122 
L 285.276552 191.788366 
" clip-path="url(#p14e9e3f06a)" style="fill: #9acd32; stroke: #9acd32; stroke-width: 2.5"/>
    <path d="M 293.42025 187.945504 
L 300.693648 201.455076 
" clip-path="url(#p14e9e3f06a)" style="fill: #9acd32; stroke: #9acd32; stroke-width: 2.5"/>
    <path d="M 309.230095 162.608007 
C 297.545765 141.63255 282.066497 164.046359 305.820493 167.545073 
C 282.066497 164.046359 297.545765 141.63255 309.230095 162.608007 
" clip-path="url(#p14e9e3f06a)" style="fill: #9acd32; stroke: #9acd32; stroke-width: 2.5"/>
    <path d="M 317.422431 170.126625 
L 330.690405 175.076662 
" clip-path="url(#p14e9e3f06a)" style="fill: #9acd32; stroke: #9acd32; stroke-width: 2.5"/>
    <path d="M 149.389852 242.52998 
C 125.641353 246.065823 141.155641 268.455406 152.807167 247.461709 
C 141.155641 268.455406 125.641353 246.065823 149.389852 242.52998 
" clip-path="url(#p14e9e3f06a)" style="fill: #add8e6; stroke: #add8e6; stroke-width: 2.5"/>
    <path d="M 161.337087 241.413423 
L 176.610482 239.819075 
" clip-path="url(#p14e9e3f06a)" style="fill: #add8e6; stroke: #add8e6; stroke-width: 2.5"/>
    <path d="M 159.637815 246.253185 
L 170.977783 257.456385 
" clip-path="url(#p14e9e3f06a)" style="fill: #add8e6; stroke: #add8e6; stroke-width: 2.5"/>
    <path d="M 178.249301 243.350877 
C 162.051154 261.074121 188.212308 268.662306 184.011791 245.022318 
C 188.212308 268.662306 162.051154 261.074121 178.249301 243.350877 
" clip-path="url(#p14e9e3f06a)" style="fill: #add8e6; stroke: #add8e6; stroke-width: 2.5"/>
    <path d="M 187.286095 242.915594 
L 199.40176 252.487248 
" clip-path="url(#p14e9e3f06a)" style="fill: #add8e6; stroke: #add8e6; stroke-width: 2.5"/>
    <path d="M 339.158351 182.455784 
C 351.906731 202.80209 366.211923 179.621321 342.30934 177.349781 
C 366.211923 179.621321 351.906731 202.80209 339.158351 182.455784 
" clip-path="url(#p14e9e3f06a)" style="fill: #9acd32; stroke: #9acd32; stroke-width: 2.5"/>
    <path d="M 341.241025 173.75285 
L 353.309085 165.376894 
" clip-path="url(#p14e9e3f06a)" style="fill: #9acd32; stroke: #9acd32; stroke-width: 2.5"/>
    <path d="M 335.464266 183.113767 
L 333.590274 196.245551 
" clip-path="url(#p14e9e3f06a)" style="fill: #9acd32; stroke: #9acd32; stroke-width: 2.5"/>
    <path d="M 363.982527 163.688608 
C 387.373941 169.104797 381.147417 142.586559 362.611017 157.847464 
C 381.147417 142.586559 387.373941 169.104797 363.982527 163.688608 
" clip-path="url(#p14e9e3f06a)" style="fill: #9acd32; stroke: #9acd32; stroke-width: 2.5"/>
    <path d="M 358.306505 167.95541 
L 358.472813 182.561705 
" clip-path="url(#p14e9e3f06a)" style="fill: #9acd32; stroke: #9acd32; stroke-width: 2.5"/>
    <path d="M 159.889453 287.643443 
C 141.192939 302.707763 165.902309 314.172211 165.332159 290.168705 
C 165.902309 314.172211 141.192939 302.707763 159.889453 287.643443 
" clip-path="url(#p14e9e3f06a)" style="fill: #add8e6; stroke: #add8e6; stroke-width: 2.5"/>
    <path d="M 167.323008 278.749846 
L 172.720823 267.115915 
" clip-path="url(#p14e9e3f06a)" style="fill: #add8e6; stroke: #add8e6; stroke-width: 2.5"/>
    <path d="M 176.072529 267.616018 
C 180.927758 291.130272 202.416953 274.391065 180.805931 263.928891 
C 202.416953 274.391065 180.927758 291.130272 176.072529 267.616018 
" clip-path="url(#p14e9e3f06a)" style="fill: #add8e6; stroke: #add8e6; stroke-width: 2.5"/>
    <path d="M 181.14129 260.556715 
L 198.214593 257.3232 
" clip-path="url(#p14e9e3f06a)" style="fill: #add8e6; stroke: #add8e6; stroke-width: 2.5"/>
    <path d="M 207.689112 251.391261 
C 220.721733 231.225842 193.664104 228.083985 201.729157 250.699208 
C 193.664104 228.083985 220.721733 231.225842 207.689112 251.391261 
" clip-path="url(#p14e9e3f06a)" style="fill: #add8e6; stroke: #add8e6; stroke-width: 2.5"/>
    <path d="M 205.415898 262.062823 
L 208.35888 275.258178 
" clip-path="url(#p14e9e3f06a)" style="fill: #add8e6; stroke: #add8e6; stroke-width: 2.5"/>
    <path d="M 209.544862 253.665037 
L 224.696631 246.579417 
" clip-path="url(#p14e9e3f06a)" style="fill: #add8e6; stroke: #add8e6; stroke-width: 2.5"/>
    <path d="M 207.868037 286.838891 
C 202.19059 310.16827 228.776804 304.238702 213.724154 285.532791 
C 228.776804 304.238702 202.19059 310.16827 207.868037 286.838891 
" clip-path="url(#p14e9e3f06a)" style="fill: #add8e6; stroke: #add8e6; stroke-width: 2.5"/>
    <path d="M 229.490407 250.003377 
C 228.490739 273.992834 253.40134 262.972465 234.977438 247.575933 
C 253.40134 262.972465 228.490739 273.992834 229.490407 250.003377 
" clip-path="url(#p14e9e3f06a)" style="fill: #add8e6; stroke: #add8e6; stroke-width: 2.5"/>
    <path d="M 233.113933 238.83138 
L 236.530097 232.867472 
" clip-path="url(#p14e9e3f06a)" style="fill: #add8e6; stroke: #add8e6; stroke-width: 2.5"/>
    <path d="M 235.668293 241.725589 
L 252.710915 234.608362 
" clip-path="url(#p14e9e3f06a)" style="fill: #add8e6; stroke: #add8e6; stroke-width: 2.5"/>
    <path d="M 227.91195 238.463454 
L 222.515391 224.911441 
" clip-path="url(#p14e9e3f06a)" style="fill: #add8e6; stroke: #add8e6; stroke-width: 2.5"/>
    <path d="M 238.796695 233.618275 
C 237.497907 257.593398 262.544017 246.884573 244.313575 231.259453 
C 262.544017 246.884573 237.497907 257.593398 238.796695 233.618275 
" clip-path="url(#p14e9e3f06a)" style="fill: #add8e6; stroke: #add8e6; stroke-width: 2.5"/>
    <path d="M 245.336736 229.102067 
L 252.423114 230.855243 
" clip-path="url(#p14e9e3f06a)" style="fill: #add8e6; stroke: #add8e6; stroke-width: 2.5"/>
    <path d="M 234.00666 225.276251 
L 225.801323 221.722003 
" clip-path="url(#p14e9e3f06a)" style="fill: #add8e6; stroke: #add8e6; stroke-width: 2.5"/>
    <path d="M 241.12404 221.881624 
L 243.523376 213.277739 
" clip-path="url(#p14e9e3f06a)" style="fill: #add8e6; stroke: #add8e6; stroke-width: 2.5"/>
    <path d="M 263.19966 235.683865 
C 283.860792 247.915423 285.938834 220.755373 263.657388 229.701351 
C 285.938834 220.755373 283.860792 247.915423 263.19966 235.683865 
" clip-path="url(#p14e9e3f06a)" style="fill: #add8e6; stroke: #add8e6; stroke-width: 2.5"/>
    <path d="M 261.927218 227.557029 
L 271.037513 215.82367 
" clip-path="url(#p14e9e3f06a)" style="fill: #d3d3d3; stroke: #d3d3d3; stroke-width: 2.5"/>
    <path d="M 261.163409 237.540015 
L 268.029675 249.887988 
" clip-path="url(#p14e9e3f06a)" style="fill: #add8e6; stroke: #add8e6; stroke-width: 2.5"/>
    <path d="M 255.442843 226.992071 
L 247.939752 212.80239 
" clip-path="url(#p14e9e3f06a)" style="fill: #add8e6; stroke: #add8e6; stroke-width: 2.5"/>
    <path d="M 274.756422 217.084367 
C 276.483019 241.032483 299.98356 227.258916 279.932861 214.050479 
C 299.98356 227.258916 276.483019 241.032483 274.756422 217.084367 
" clip-path="url(#p14e9e3f06a)" style="fill: #9acd32; stroke: #9acd32; stroke-width: 2.5"/>
    <path d="M 277.547252 205.793853 
L 279.433484 202.267615 
" clip-path="url(#p14e9e3f06a)" style="fill: #9acd32; stroke: #9acd32; stroke-width: 2.5"/>
    <path d="M 280.650129 210.189758 
L 297.605036 207.632801 
" clip-path="url(#p14e9e3f06a)" style="fill: #9acd32; stroke: #9acd32; stroke-width: 2.5"/>
    <path d="M 281.078117 202.858708 
C 277.883766 226.655546 303.699635 217.964895 286.764551 200.944428 
C 303.699635 217.964895 277.883766 226.655546 281.078117 202.858708 
" clip-path="url(#p14e9e3f06a)" style="fill: #9acd32; stroke: #9acd32; stroke-width: 2.5"/>
    <path d="M 287.716906 199.479084 
L 298.084561 204.235951 
" clip-path="url(#p14e9e3f06a)" style="fill: #9acd32; stroke: #9acd32; stroke-width: 2.5"/>
    <path d="M 301.360225 212.328906 
C 294.127267 235.223833 321.05196 231.09498 307.290899 211.419448 
C 321.05196 231.09498 294.127267 235.223833 301.360225 212.328906 
" clip-path="url(#p14e9e3f06a)" style="fill: #9acd32; stroke: #9acd32; stroke-width: 2.5"/>
    <path d="M 309.466346 205.813891 
L 326.814224 203.109546 
" clip-path="url(#p14e9e3f06a)" style="fill: #9acd32; stroke: #9acd32; stroke-width: 2.5"/>
    <path d="M 327.968826 205.82005 
C 309.857477 221.583057 334.984128 232.101517 333.503447 208.13694 
C 334.984128 232.101517 309.857477 221.583057 327.968826 205.82005 
" clip-path="url(#p14e9e3f06a)" style="fill: #9acd32; stroke: #9acd32; stroke-width: 2.5"/>
    <path d="M 336.244671 207.057297 
L 344.4565 218.481295 
" clip-path="url(#p14e9e3f06a)" style="fill: #9acd32; stroke: #9acd32; stroke-width: 2.5"/>
    <path d="M 338.048236 199.383505 
L 353.235511 191.363183 
" clip-path="url(#p14e9e3f06a)" style="fill: #9acd32; stroke: #9acd32; stroke-width: 2.5"/>
    <path d="M 348.555451 229.323455 
C 352.501257 253.007288 374.619332 237.108316 353.427375 225.821405 
C 374.619332 237.108316 352.501257 253.007288 348.555451 229.323455 
" clip-path="url(#p14e9e3f06a)" style="fill: #9acd32; stroke: #9acd32; stroke-width: 2.5"/>
    <path d="M 355.872023 193.934946 
C 346.620077 216.091093 373.806166 214.387243 361.860274 193.559641 
C 373.806166 214.387243 346.620077 216.091093 355.872023 193.934946 
" clip-path="url(#p14e9e3f06a)" style="fill: #9acd32; stroke: #9acd32; stroke-width: 2.5"/>
    <path d="M 364.155053 190.678816 
L 377.869669 195.851791 
" clip-path="url(#p14e9e3f06a)" style="fill: #9acd32; stroke: #9acd32; stroke-width: 2.5"/>
    <path d="M 387.286652 202.610065 
C 403.687206 220.146176 413.300457 194.659474 389.404152 196.996136 
C 413.300457 194.659474 403.687206 220.146176 387.286652 202.610065 
" clip-path="url(#p14e9e3f06a)" style="fill: #9acd32; stroke: #9acd32; stroke-width: 2.5"/>
    <path d="M 270.848905 261.13102 
C 272.032779 285.112092 295.839183 271.874203 276.092716 258.215124 
C 295.839183 271.874203 272.032779 285.112092 270.848905 261.13102 
" clip-path="url(#p14e9e3f06a)" style="fill: #add8e6; stroke: #add8e6; stroke-width: 2.5"/>
    <path d="M 222.31972 213.688864 
C 228.924103 190.604767 202.122341 195.468111 216.416125 214.760107 
C 202.122341 195.468111 228.924103 190.604767 222.31972 213.688864 
" clip-path="url(#p14e9e3f06a)" style="fill: #add8e6; stroke: #add8e6; stroke-width: 2.5"/>
    <path d="M 225.711913 216.755665 
L 239.718814 210.079741 
" clip-path="url(#p14e9e3f06a)" style="fill: #add8e6; stroke: #add8e6; stroke-width: 2.5"/>
    <path d="M 244.107973 201.586824 
C 238.459678 178.250369 217.549339 195.707294 239.502075 205.432042 
C 217.549339 195.707294 238.459678 178.250369 244.107973 201.586824 
" clip-path="url(#p14e9e3f06a)" style="fill: #add8e6; stroke: #add8e6; stroke-width: 2.5"/>
   </g>
   <g id="VertexCollection_1">
    <path d="M 91.340325 209.4052 
C 92.931544 209.4052 94.457804 208.773003 95.582966 207.647841 
C 96.708127 206.52268 97.340325 204.996419 97.340325 203.4052 
C 97.340325 201.813982 96.708127 200.287721 95.582966 199.16256 
C 94.457804 198.037398 92.931544 197.4052 91.340325 197.4052 
C 89.749106 197.4052 88.222846 198.037398 87.097684 199.16256 
C 85.972523 200.287721 85.340325 201.813982 85.340325 203.4052 
C 85.340325 204.996419 85.972523 206.52268 87.097684 207.647841 
C 88.222846 208.773003 89.749106 209.4052 91.340325 209.4052 
z
" clip-path="url(#p14e9e3f06a)" style="fill: #add8e6; stroke: #000000"/>
    <path d="M 88.836403 180.163249 
C 90.427621 180.163249 91.953882 179.531051 93.079043 178.405889 
C 94.204205 177.280728 94.836403 175.754467 94.836403 174.163249 
C 94.836403 172.57203 94.204205 171.045769 93.079043 169.920608 
C 91.953882 168.795446 90.427621 168.163249 88.836403 168.163249 
C 87.245184 168.163249 85.718923 168.795446 84.593762 169.920608 
C 83.4686 171.045769 82.836403 172.57203 82.836403 174.163249 
C 82.836403 175.754467 83.4686 177.280728 84.593762 178.405889 
C 85.718923 179.531051 87.245184 180.163249 88.836403 180.163249 
z
" clip-path="url(#p14e9e3f06a)" style="fill: #add8e6; stroke: #000000"/>
    <path d="M 102.499866 155.658801 
C 104.091084 155.658801 105.617345 155.026603 106.742507 153.901441 
C 107.867668 152.77628 108.499866 151.250019 108.499866 149.658801 
C 108.499866 148.067582 107.867668 146.541322 106.742507 145.41616 
C 105.617345 144.290999 104.091084 143.658801 102.499866 143.658801 
C 100.908647 143.658801 99.382387 144.290999 98.257225 145.41616 
C 97.132064 146.541322 96.499866 148.067582 96.499866 149.658801 
C 96.499866 151.250019 97.132064 152.77628 98.257225 153.901441 
C 99.382387 155.026603 100.908647 155.658801 102.499866 155.658801 
z
" clip-path="url(#p14e9e3f06a)" style="fill: #add8e6; stroke: #000000"/>
    <path d="M 316.027043 70.863448 
C 317.618261 70.863448 319.144522 70.23125 320.269684 69.106089 
C 321.394845 67.980927 322.027043 66.454666 322.027043 64.863448 
C 322.027043 63.272229 321.394845 61.745969 320.269684 60.620807 
C 319.144522 59.495646 317.618261 58.863448 316.027043 58.863448 
C 314.435824 58.863448 312.909564 59.495646 311.784402 60.620807 
C 310.659241 61.745969 310.027043 63.272229 310.027043 64.863448 
C 310.027043 66.454666 310.659241 67.980927 311.784402 69.106089 
C 312.909564 70.23125 314.435824 70.863448 316.027043 70.863448 
z
" clip-path="url(#p14e9e3f06a)" style="fill: #9acd32; stroke: #000000"/>
    <path d="M 345.785346 76.850056 
C 347.376564 76.850056 348.902825 76.217858 350.027986 75.092696 
C 351.153148 73.967535 351.785346 72.441274 351.785346 70.850056 
C 351.785346 69.258837 351.153148 67.732576 350.027986 66.607415 
C 348.902825 65.482253 347.376564 64.850056 345.785346 64.850056 
C 344.194127 64.850056 342.667866 65.482253 341.542705 66.607415 
C 340.417544 67.732576 339.785346 69.258837 339.785346 70.850056 
C 339.785346 72.441274 340.417544 73.967535 341.542705 75.092696 
C 342.667866 76.217858 344.194127 76.850056 345.785346 76.850056 
z
" clip-path="url(#p14e9e3f06a)" style="fill: #9acd32; stroke: #000000"/>
    <path d="M 368.772105 97.730073 
C 370.363324 97.730073 371.889584 97.097875 373.014746 95.972714 
C 374.139907 94.847552 374.772105 93.321292 374.772105 91.730073 
C 374.772105 90.138854 374.139907 88.612594 373.014746 87.487432 
C 371.889584 86.362271 370.363324 85.730073 368.772105 85.730073 
C 367.180887 85.730073 365.654626 86.362271 364.529465 87.487432 
C 363.404303 88.612594 362.772105 90.138854 362.772105 91.730073 
C 362.772105 93.321292 363.404303 94.847552 364.529465 95.972714 
C 365.654626 97.097875 367.180887 97.730073 368.772105 97.730073 
z
" clip-path="url(#p14e9e3f06a)" style="fill: #9acd32; stroke: #000000"/>
    <path d="M 100.911781 196.975404 
C 102.503 196.975404 104.029261 196.343206 105.154422 195.218045 
C 106.279584 194.092883 106.911781 192.566623 106.911781 190.975404 
C 106.911781 189.384186 106.279584 187.857925 105.154422 186.732763 
C 104.029261 185.607602 102.503 184.975404 100.911781 184.975404 
C 99.320563 184.975404 97.794302 185.607602 96.669141 186.732763 
C 95.543979 187.857925 94.911781 189.384186 94.911781 190.975404 
C 94.911781 192.566623 95.543979 194.092883 96.669141 195.218045 
C 97.794302 196.343206 99.320563 196.975404 100.911781 196.975404 
z
" clip-path="url(#p14e9e3f06a)" style="fill: #add8e6; stroke: #000000"/>
    <path d="M 352.167795 96.039109 
C 353.759013 96.039109 355.285274 95.406911 356.410436 94.28175 
C 357.535597 93.156589 358.167795 91.630328 358.167795 90.039109 
C 358.167795 88.447891 357.535597 86.92163 356.410436 85.796469 
C 355.285274 84.671307 353.759013 84.039109 352.167795 84.039109 
C 350.576576 84.039109 349.050316 84.671307 347.925154 85.796469 
C 346.799993 86.92163 346.167795 88.447891 346.167795 90.039109 
C 346.167795 91.630328 346.799993 93.156589 347.925154 94.28175 
C 349.050316 95.406911 350.576576 96.039109 352.167795 96.039109 
z
" clip-path="url(#p14e9e3f06a)" style="fill: #9acd32; stroke: #000000"/>
    <path d="M 119.418626 210.428996 
C 121.009845 210.428996 122.536105 209.796798 123.661267 208.671637 
C 124.786428 207.546475 125.418626 206.020215 125.418626 204.428996 
C 125.418626 202.837777 124.786428 201.311517 123.661267 200.186355 
C 122.536105 199.061194 121.009845 198.428996 119.418626 198.428996 
C 117.827407 198.428996 116.301147 199.061194 115.175985 200.186355 
C 114.050824 201.311517 113.418626 202.837777 113.418626 204.428996 
C 113.418626 206.020215 114.050824 207.546475 115.175985 208.671637 
C 116.301147 209.796798 117.827407 210.428996 119.418626 210.428996 
z
" clip-path="url(#p14e9e3f06a)" style="fill: #add8e6; stroke: #000000"/>
    <path d="M 115.550585 183.418316 
C 117.141804 183.418316 118.668065 182.786118 119.793226 181.660956 
C 120.918387 180.535795 121.550585 179.009534 121.550585 177.418316 
C 121.550585 175.827097 120.918387 174.300836 119.793226 173.175675 
C 118.668065 172.050513 117.141804 171.418316 115.550585 171.418316 
C 113.959367 171.418316 112.433106 172.050513 111.307945 173.175675 
C 110.182783 174.300836 109.550585 175.827097 109.550585 177.418316 
C 109.550585 179.009534 110.182783 180.535795 111.307945 181.660956 
C 112.433106 182.786118 113.959367 183.418316 115.550585 183.418316 
z
" clip-path="url(#p14e9e3f06a)" style="fill: #add8e6; stroke: #000000"/>
    <path d="M 129.158767 160.286465 
C 130.749986 160.286465 132.276247 159.654267 133.401408 158.529106 
C 134.526569 157.403944 135.158767 155.877684 135.158767 154.286465 
C 135.158767 152.695247 134.526569 151.168986 133.401408 150.043824 
C 132.276247 148.918663 130.749986 148.286465 129.158767 148.286465 
C 127.567549 148.286465 126.041288 148.918663 124.916127 150.043824 
C 123.790965 151.168986 123.158767 152.695247 123.158767 154.286465 
C 123.158767 155.877684 123.790965 157.403944 124.916127 158.529106 
C 126.041288 159.654267 127.567549 160.286465 129.158767 160.286465 
z
" clip-path="url(#p14e9e3f06a)" style="fill: #add8e6; stroke: #000000"/>
    <path d="M 302.671466 92.229686 
C 304.262685 92.229686 305.788945 91.597488 306.914107 90.472327 
C 308.039268 89.347165 308.671466 87.820905 308.671466 86.229686 
C 308.671466 84.638467 308.039268 83.112207 306.914107 81.987045 
C 305.788945 80.861884 304.262685 80.229686 302.671466 80.229686 
C 301.080248 80.229686 299.553987 80.861884 298.428826 81.987045 
C 297.303664 83.112207 296.671466 84.638467 296.671466 86.229686 
C 296.671466 87.820905 297.303664 89.347165 298.428826 90.472327 
C 299.553987 91.597488 301.080248 92.229686 302.671466 92.229686 
z
" clip-path="url(#p14e9e3f06a)" style="fill: #9acd32; stroke: #000000"/>
    <path d="M 331.264303 97.230193 
C 332.855522 97.230193 334.381782 96.597995 335.506944 95.472834 
C 336.632105 94.347672 337.264303 92.821411 337.264303 91.230193 
C 337.264303 89.638974 336.632105 88.112714 335.506944 86.987552 
C 334.381782 85.862391 332.855522 85.230193 331.264303 85.230193 
C 329.673084 85.230193 328.146824 85.862391 327.021662 86.987552 
C 325.896501 88.112714 325.264303 89.638974 325.264303 91.230193 
C 325.264303 92.821411 325.896501 94.347672 327.021662 95.472834 
C 328.146824 96.597995 329.673084 97.230193 331.264303 97.230193 
z
" clip-path="url(#p14e9e3f06a)" style="fill: #9acd32; stroke: #000000"/>
    <path d="M 351.493347 117.598683 
C 353.084566 117.598683 354.610826 116.966485 355.735988 115.841323 
C 356.861149 114.716162 357.493347 113.189901 357.493347 111.598683 
C 357.493347 110.007464 356.861149 108.481203 355.735988 107.356042 
C 354.610826 106.23088 353.084566 105.598683 351.493347 105.598683 
C 349.902129 105.598683 348.375868 106.23088 347.250707 107.356042 
C 346.125545 108.481203 345.493347 110.007464 345.493347 111.598683 
C 345.493347 113.189901 346.125545 114.716162 347.250707 115.841323 
C 348.375868 116.966485 349.902129 117.598683 351.493347 117.598683 
z
" clip-path="url(#p14e9e3f06a)" style="fill: #9acd32; stroke: #000000"/>
    <path d="M 157.051003 158.969119 
C 158.642222 158.969119 160.168482 158.336922 161.293644 157.21176 
C 162.418805 156.086599 163.051003 154.560338 163.051003 152.969119 
C 163.051003 151.377901 162.418805 149.85164 161.293644 148.726479 
C 160.168482 147.601317 158.642222 146.969119 157.051003 146.969119 
C 155.459784 146.969119 153.933524 147.601317 152.808362 148.726479 
C 151.683201 149.85164 151.051003 151.377901 151.051003 152.969119 
C 151.051003 154.560338 151.683201 156.086599 152.808362 157.21176 
C 153.933524 158.336922 155.459784 158.969119 157.051003 158.969119 
z
" clip-path="url(#p14e9e3f06a)" style="fill: #add8e6; stroke: #000000"/>
    <path d="M 179.581631 141.918429 
C 181.172849 141.918429 182.69911 141.286231 183.824271 140.161069 
C 184.949433 139.035908 185.581631 137.509647 185.581631 135.918429 
C 185.581631 134.32721 184.949433 132.800949 183.824271 131.675788 
C 182.69911 130.550626 181.172849 129.918429 179.581631 129.918429 
C 177.990412 129.918429 176.464152 130.550626 175.33899 131.675788 
C 174.213829 132.800949 173.581631 134.32721 173.581631 135.918429 
C 173.581631 137.509647 174.213829 139.035908 175.33899 140.161069 
C 176.464152 141.286231 177.990412 141.918429 179.581631 141.918429 
z
" clip-path="url(#p14e9e3f06a)" style="fill: #add8e6; stroke: #000000"/>
    <path d="M 208.930819 133.854761 
C 210.522038 133.854761 212.048298 133.222563 213.17346 132.097401 
C 214.298621 130.97224 214.930819 129.445979 214.930819 127.854761 
C 214.930819 126.263542 214.298621 124.737281 213.17346 123.61212 
C 212.048298 122.486958 210.522038 121.854761 208.930819 121.854761 
C 207.339601 121.854761 205.81334 122.486958 204.688179 123.61212 
C 203.563017 124.737281 202.930819 126.263542 202.930819 127.854761 
C 202.930819 129.445979 203.563017 130.97224 204.688179 132.097401 
C 205.81334 133.222563 207.339601 133.854761 208.930819 133.854761 
z
" clip-path="url(#p14e9e3f06a)" style="fill: #add8e6; stroke: #000000"/>
    <path d="M 236.20054 138.299307 
C 237.791759 138.299307 239.31802 137.667109 240.443181 136.541948 
C 241.568343 135.416786 242.20054 133.890526 242.20054 132.299307 
C 242.20054 130.708088 241.568343 129.181828 240.443181 128.056666 
C 239.31802 126.931505 237.791759 126.299307 236.20054 126.299307 
C 234.609322 126.299307 233.083061 126.931505 231.9579 128.056666 
C 230.832738 129.181828 230.20054 130.708088 230.20054 132.299307 
C 230.20054 133.890526 230.832738 135.416786 231.9579 136.541948 
C 233.083061 137.667109 234.609322 138.299307 236.20054 138.299307 
z
" clip-path="url(#p14e9e3f06a)" style="fill: #9acd32; stroke: #000000"/>
    <path d="M 257.317788 120.821407 
C 258.909007 120.821407 260.435268 120.189209 261.560429 119.064048 
C 262.685591 117.938886 263.317788 116.412625 263.317788 114.821407 
C 263.317788 113.230188 262.685591 111.703928 261.560429 110.578766 
C 260.435268 109.453605 258.909007 108.821407 257.317788 108.821407 
C 255.72657 108.821407 254.200309 109.453605 253.075148 110.578766 
C 251.949986 111.703928 251.317788 113.230188 251.317788 114.821407 
C 251.317788 116.412625 251.949986 117.938886 253.075148 119.064048 
C 254.200309 120.189209 255.72657 120.821407 257.317788 120.821407 
z
" clip-path="url(#p14e9e3f06a)" style="fill: #9acd32; stroke: #000000"/>
    <path d="M 283.556712 110.747302 
C 285.147931 110.747302 286.674191 110.115105 287.799353 108.989943 
C 288.924514 107.864782 289.556712 106.338521 289.556712 104.747302 
C 289.556712 103.156084 288.924514 101.629823 287.799353 100.504662 
C 286.674191 99.3795 285.147931 98.747302 283.556712 98.747302 
C 281.965493 98.747302 280.439233 99.3795 279.314071 100.504662 
C 278.18891 101.629823 277.556712 103.156084 277.556712 104.747302 
C 277.556712 106.338521 278.18891 107.864782 279.314071 108.989943 
C 280.439233 110.115105 281.965493 110.747302 283.556712 110.747302 
z
" clip-path="url(#p14e9e3f06a)" style="fill: #9acd32; stroke: #000000"/>
    <path d="M 198.902092 147.4228 
C 200.493311 147.4228 202.019571 146.790602 203.144733 145.665441 
C 204.269894 144.540279 204.902092 143.014019 204.902092 141.4228 
C 204.902092 139.831581 204.269894 138.305321 203.144733 137.180159 
C 202.019571 136.054998 200.493311 135.4228 198.902092 135.4228 
C 197.310873 135.4228 195.784613 136.054998 194.659451 137.180159 
C 193.53429 138.305321 192.902092 139.831581 192.902092 141.4228 
C 192.902092 143.014019 193.53429 144.540279 194.659451 145.665441 
C 195.784613 146.790602 197.310873 147.4228 198.902092 147.4228 
z
" clip-path="url(#p14e9e3f06a)" style="fill: #add8e6; stroke: #000000"/>
    <path d="M 252.134794 142.279249 
C 253.726013 142.279249 255.252274 141.647051 256.377435 140.521889 
C 257.502597 139.396728 258.134794 137.870467 258.134794 136.279249 
C 258.134794 134.68803 257.502597 133.16177 256.377435 132.036608 
C 255.252274 130.911447 253.726013 130.279249 252.134794 130.279249 
C 250.543576 130.279249 249.017315 130.911447 247.892154 132.036608 
C 246.766992 133.16177 246.134794 134.68803 246.134794 136.279249 
C 246.134794 137.870467 246.766992 139.396728 247.892154 140.521889 
C 249.017315 141.647051 250.543576 142.279249 252.134794 142.279249 
z
" clip-path="url(#p14e9e3f06a)" style="fill: #9acd32; stroke: #000000"/>
    <path d="M 219.37297 159.383615 
C 220.964188 159.383615 222.490449 158.751418 223.61561 157.626256 
C 224.740772 156.501095 225.37297 154.974834 225.37297 153.383615 
C 225.37297 151.792397 224.740772 150.266136 223.61561 149.140975 
C 222.490449 148.015813 220.964188 147.383615 219.37297 147.383615 
C 217.781751 147.383615 216.255491 148.015813 215.130329 149.140975 
C 214.005168 150.266136 213.37297 151.792397 213.37297 153.383615 
C 213.37297 154.974834 214.005168 156.501095 215.130329 157.626256 
C 216.255491 158.751418 217.781751 159.383615 219.37297 159.383615 
z
" clip-path="url(#p14e9e3f06a)" style="fill: #add8e6; stroke: #000000"/>
    <path d="M 248.155838 164.661402 
C 249.747056 164.661402 251.273317 164.029204 252.398478 162.904043 
C 253.52364 161.778882 254.155838 160.252621 254.155838 158.661402 
C 254.155838 157.070184 253.52364 155.543923 252.398478 154.418762 
C 251.273317 153.2936 249.747056 152.661402 248.155838 152.661402 
C 246.564619 152.661402 245.038359 153.2936 243.913197 154.418762 
C 242.788036 155.543923 242.155838 157.070184 242.155838 158.661402 
C 242.155838 160.252621 242.788036 161.778882 243.913197 162.904043 
C 245.038359 164.029204 246.564619 164.661402 248.155838 164.661402 
z
" clip-path="url(#p14e9e3f06a)" style="fill: #9acd32; stroke: #000000"/>
    <path d="M 268.670624 145.602106 
C 270.261843 145.602106 271.788103 144.969908 272.913265 143.844746 
C 274.038426 142.719585 274.670624 141.193324 274.670624 139.602106 
C 274.670624 138.010887 274.038426 136.484627 272.913265 135.359465 
C 271.788103 134.234304 270.261843 133.602106 268.670624 133.602106 
C 267.079405 133.602106 265.553145 134.234304 264.427983 135.359465 
C 263.302822 136.484627 262.670624 138.010887 262.670624 139.602106 
C 262.670624 141.193324 263.302822 142.719585 264.427983 143.844746 
C 265.553145 144.969908 267.079405 145.602106 268.670624 145.602106 
z
" clip-path="url(#p14e9e3f06a)" style="fill: #9acd32; stroke: #000000"/>
    <path d="M 293.626899 135.350834 
C 295.218117 135.350834 296.744378 134.718636 297.869539 133.593475 
C 298.994701 132.468313 299.626899 130.942053 299.626899 129.350834 
C 299.626899 127.759615 298.994701 126.233355 297.869539 125.108193 
C 296.744378 123.983032 295.218117 123.350834 293.626899 123.350834 
C 292.03568 123.350834 290.509419 123.983032 289.384258 125.108193 
C 288.259097 126.233355 287.626899 127.759615 287.626899 129.350834 
C 287.626899 130.942053 288.259097 132.468313 289.384258 133.593475 
C 290.509419 134.718636 292.03568 135.350834 293.626899 135.350834 
z
" clip-path="url(#p14e9e3f06a)" style="fill: #9acd32; stroke: #000000"/>
    <path d="M 143.883868 222.348405 
C 145.475087 222.348405 147.001347 221.716207 148.126509 220.591046 
C 149.25167 219.465884 149.883868 217.939624 149.883868 216.348405 
C 149.883868 214.757186 149.25167 213.230926 148.126509 212.105764 
C 147.001347 210.980603 145.475087 210.348405 143.883868 210.348405 
C 142.292649 210.348405 140.766389 210.980603 139.641227 212.105764 
C 138.516066 213.230926 137.883868 214.757186 137.883868 216.348405 
C 137.883868 217.939624 138.516066 219.465884 139.641227 220.591046 
C 140.766389 221.716207 142.292649 222.348405 143.883868 222.348405 
z
" clip-path="url(#p14e9e3f06a)" style="fill: #add8e6; stroke: #000000"/>
    <path d="M 169.000846 208.359111 
C 170.592065 208.359111 172.118325 207.726913 173.243487 206.601751 
C 174.368648 205.47659 175.000846 203.950329 175.000846 202.359111 
C 175.000846 200.767892 174.368648 199.241631 173.243487 198.11647 
C 172.118325 196.991308 170.592065 196.359111 169.000846 196.359111 
C 167.409627 196.359111 165.883367 196.991308 164.758205 198.11647 
C 163.633044 199.241631 163.000846 200.767892 163.000846 202.359111 
C 163.000846 203.950329 163.633044 205.47659 164.758205 206.601751 
C 165.883367 207.726913 167.409627 208.359111 169.000846 208.359111 
z
" clip-path="url(#p14e9e3f06a)" style="fill: #add8e6; stroke: #000000"/>
    <path d="M 317.918019 149.204581 
C 319.509237 149.204581 321.035498 148.572383 322.160659 147.447221 
C 323.285821 146.32206 323.918019 144.795799 323.918019 143.204581 
C 323.918019 141.613362 323.285821 140.087102 322.160659 138.96194 
C 321.035498 137.836779 319.509237 137.204581 317.918019 137.204581 
C 316.3268 137.204581 314.800539 137.836779 313.675378 138.96194 
C 312.550216 140.087102 311.918019 141.613362 311.918019 143.204581 
C 311.918019 144.795799 312.550216 146.32206 313.675378 147.447221 
C 314.800539 148.572383 316.3268 149.204581 317.918019 149.204581 
z
" clip-path="url(#p14e9e3f06a)" style="fill: #9acd32; stroke: #000000"/>
    <path d="M 345.864536 142.331371 
C 347.455755 142.331371 348.982016 141.699173 350.107177 140.574012 
C 351.232339 139.44885 351.864536 137.92259 351.864536 136.331371 
C 351.864536 134.740152 351.232339 133.213892 350.107177 132.08873 
C 348.982016 130.963569 347.455755 130.331371 345.864536 130.331371 
C 344.273318 130.331371 342.747057 130.963569 341.621896 132.08873 
C 340.496734 133.213892 339.864536 134.740152 339.864536 136.331371 
C 339.864536 137.92259 340.496734 139.44885 341.621896 140.574012 
C 342.747057 141.699173 344.273318 142.331371 345.864536 142.331371 
z
" clip-path="url(#p14e9e3f06a)" style="fill: #9acd32; stroke: #000000"/>
    <path d="M 161.356201 230.647359 
C 162.947419 230.647359 164.47368 230.015161 165.598841 228.89 
C 166.724003 227.764838 167.356201 226.238578 167.356201 224.647359 
C 167.356201 223.056141 166.724003 221.52988 165.598841 220.404719 
C 164.47368 219.279557 162.947419 218.647359 161.356201 218.647359 
C 159.764982 218.647359 158.238721 219.279557 157.11356 220.404719 
C 155.988399 221.52988 155.356201 223.056141 155.356201 224.647359 
C 155.356201 226.238578 155.988399 227.764838 157.11356 228.89 
C 158.238721 230.015161 159.764982 230.647359 161.356201 230.647359 
z
" clip-path="url(#p14e9e3f06a)" style="fill: #add8e6; stroke: #000000"/>
    <path d="M 340.954327 159.651676 
C 342.545545 159.651676 344.071806 159.019479 345.196968 157.894317 
C 346.322129 156.769156 346.954327 155.242895 346.954327 153.651676 
C 346.954327 152.060458 346.322129 150.534197 345.196968 149.409036 
C 344.071806 148.283874 342.545545 147.651676 340.954327 147.651676 
C 339.363108 147.651676 337.836848 148.283874 336.711686 149.409036 
C 335.586525 150.534197 334.954327 152.060458 334.954327 153.651676 
C 334.954327 155.242895 335.586525 156.769156 336.711686 157.894317 
C 337.836848 159.019479 339.363108 159.651676 340.954327 159.651676 
z
" clip-path="url(#p14e9e3f06a)" style="fill: #9acd32; stroke: #000000"/>
    <path d="M 192.951627 222.986342 
C 194.542846 222.986342 196.069107 222.354144 197.194268 221.228982 
C 198.319429 220.103821 198.951627 218.57756 198.951627 216.986342 
C 198.951627 215.395123 198.319429 213.868862 197.194268 212.743701 
C 196.069107 211.618539 194.542846 210.986342 192.951627 210.986342 
C 191.360409 210.986342 189.834148 211.618539 188.708987 212.743701 
C 187.583825 213.868862 186.951627 215.395123 186.951627 216.986342 
C 186.951627 218.57756 187.583825 220.103821 188.708987 221.228982 
C 189.834148 222.354144 191.360409 222.986342 192.951627 222.986342 
z
" clip-path="url(#p14e9e3f06a)" style="fill: #add8e6; stroke: #000000"/>
    <path d="M 171.818979 181.880908 
C 173.410198 181.880908 174.936458 181.248711 176.06162 180.123549 
C 177.186781 178.998388 177.818979 177.472127 177.818979 175.880908 
C 177.818979 174.28969 177.186781 172.763429 176.06162 171.638268 
C 174.936458 170.513106 173.410198 169.880908 171.818979 169.880908 
C 170.22776 169.880908 168.7015 170.513106 167.576338 171.638268 
C 166.451177 172.763429 165.818979 174.28969 165.818979 175.880908 
C 165.818979 177.472127 166.451177 178.998388 167.576338 180.123549 
C 168.7015 181.248711 170.22776 181.880908 171.818979 181.880908 
z
" clip-path="url(#p14e9e3f06a)" style="fill: #add8e6; stroke: #000000"/>
    <path d="M 192.500069 165.335643 
C 194.091287 165.335643 195.617548 164.703445 196.74271 163.578283 
C 197.867871 162.453122 198.500069 160.926861 198.500069 159.335643 
C 198.500069 157.744424 197.867871 156.218163 196.74271 155.093002 
C 195.617548 153.96784 194.091287 153.335643 192.500069 153.335643 
C 190.90885 153.335643 189.38259 153.96784 188.257428 155.093002 
C 187.132267 156.218163 186.500069 157.744424 186.500069 159.335643 
C 186.500069 160.926861 187.132267 162.453122 188.257428 163.578283 
C 189.38259 164.703445 190.90885 165.335643 192.500069 165.335643 
z
" clip-path="url(#p14e9e3f06a)" style="fill: #add8e6; stroke: #000000"/>
    <path d="M 261.218136 191.173801 
C 262.809354 191.173801 264.335615 190.541604 265.460776 189.416442 
C 266.585938 188.291281 267.218136 186.76502 267.218136 185.173801 
C 267.218136 183.582583 266.585938 182.056322 265.460776 180.931161 
C 264.335615 179.805999 262.809354 179.173801 261.218136 179.173801 
C 259.626917 179.173801 258.100657 179.805999 256.975495 180.931161 
C 255.850334 182.056322 255.218136 183.582583 255.218136 185.173801 
C 255.218136 186.76502 255.850334 188.291281 256.975495 189.416442 
C 258.100657 190.541604 259.626917 191.173801 261.218136 191.173801 
z
" clip-path="url(#p14e9e3f06a)" style="fill: #9acd32; stroke: #000000"/>
    <path d="M 290.575951 188.662516 
C 292.167169 188.662516 293.69343 188.030319 294.818591 186.905157 
C 295.943753 185.779996 296.575951 184.253735 296.575951 182.662516 
C 296.575951 181.071298 295.943753 179.545037 294.818591 178.419876 
C 293.69343 177.294714 292.167169 176.662516 290.575951 176.662516 
C 288.984732 176.662516 287.458471 177.294714 286.33331 178.419876 
C 285.208149 179.545037 284.575951 181.071298 284.575951 182.662516 
C 284.575951 184.253735 285.208149 185.779996 286.33331 186.905157 
C 287.458471 188.030319 288.984732 188.662516 290.575951 188.662516 
z
" clip-path="url(#p14e9e3f06a)" style="fill: #9acd32; stroke: #000000"/>
    <path d="M 311.800918 174.029342 
C 313.392137 174.029342 314.918398 173.397144 316.043559 172.271982 
C 317.168721 171.146821 317.800918 169.62056 317.800918 168.029342 
C 317.800918 166.438123 317.168721 164.911863 316.043559 163.786701 
C 314.918398 162.66154 313.392137 162.029342 311.800918 162.029342 
C 310.2097 162.029342 308.683439 162.66154 307.558278 163.786701 
C 306.433116 164.911863 305.800918 166.438123 305.800918 168.029342 
C 305.800918 169.62056 306.433116 171.146821 307.558278 172.271982 
C 308.683439 173.397144 310.2097 174.029342 311.800918 174.029342 
z
" clip-path="url(#p14e9e3f06a)" style="fill: #9acd32; stroke: #000000"/>
    <path d="M 155.369513 248.036362 
C 156.960731 248.036362 158.486992 247.404164 159.612153 246.279003 
C 160.737315 245.153841 161.369513 243.627581 161.369513 242.036362 
C 161.369513 240.445144 160.737315 238.918883 159.612153 237.793722 
C 158.486992 236.66856 156.960731 236.036362 155.369513 236.036362 
C 153.778294 236.036362 152.252033 236.66856 151.126872 237.793722 
C 150.00171 238.918883 149.369513 240.445144 149.369513 242.036362 
C 149.369513 243.627581 150.00171 245.153841 151.126872 246.279003 
C 152.252033 247.404164 153.778294 248.036362 155.369513 248.036362 
z
" clip-path="url(#p14e9e3f06a)" style="fill: #add8e6; stroke: #000000"/>
    <path d="M 182.578057 245.196135 
C 184.169275 245.196135 185.695536 244.563938 186.820697 243.438776 
C 187.945859 242.313615 188.578057 240.787354 188.578057 239.196135 
C 188.578057 237.604917 187.945859 236.078656 186.820697 234.953495 
C 185.695536 233.828333 184.169275 233.196135 182.578057 233.196135 
C 180.986838 233.196135 179.460577 233.828333 178.335416 234.953495 
C 177.210254 236.078656 176.578057 237.604917 176.578057 239.196135 
C 176.578057 240.787354 177.210254 242.313615 178.335416 243.438776 
C 179.460577 244.563938 180.986838 245.196135 182.578057 245.196135 
z
" clip-path="url(#p14e9e3f06a)" style="fill: #add8e6; stroke: #000000"/>
    <path d="M 336.311917 183.173945 
C 337.903136 183.173945 339.429397 182.541748 340.554558 181.416586 
C 341.67972 180.291425 342.311917 178.765164 342.311917 177.173945 
C 342.311917 175.582727 341.67972 174.056466 340.554558 172.931305 
C 339.429397 171.806143 337.903136 171.173945 336.311917 171.173945 
C 334.720699 171.173945 333.194438 171.806143 332.069277 172.931305 
C 330.944115 174.056466 330.311917 175.582727 330.311917 177.173945 
C 330.311917 178.765164 330.944115 180.291425 332.069277 181.416586 
C 333.194438 182.541748 334.720699 183.173945 336.311917 183.173945 
z
" clip-path="url(#p14e9e3f06a)" style="fill: #9acd32; stroke: #000000"/>
    <path d="M 358.238193 167.955798 
C 359.829412 167.955798 361.355672 167.323601 362.480834 166.198439 
C 363.605995 165.073278 364.238193 163.547017 364.238193 161.955798 
C 364.238193 160.36458 363.605995 158.838319 362.480834 157.713158 
C 361.355672 156.587996 359.829412 155.955798 358.238193 155.955798 
C 356.646975 155.955798 355.120714 156.587996 353.995552 157.713158 
C 352.870391 158.838319 352.238193 160.36458 352.238193 161.955798 
C 352.238193 163.547017 352.870391 165.073278 353.995552 166.198439 
C 355.120714 167.323601 356.646975 167.955798 358.238193 167.955798 
z
" clip-path="url(#p14e9e3f06a)" style="fill: #9acd32; stroke: #000000"/>
    <path d="M 164.797747 290.192552 
C 166.388965 290.192552 167.915226 289.560354 169.040387 288.435193 
C 170.165549 287.310031 170.797747 285.783771 170.797747 284.192552 
C 170.797747 282.601334 170.165549 281.075073 169.040387 279.949911 
C 167.915226 278.82475 166.388965 278.192552 164.797747 278.192552 
C 163.206528 278.192552 161.680268 278.82475 160.555106 279.949911 
C 159.429945 281.075073 158.797747 282.601334 158.797747 284.192552 
C 158.797747 285.783771 159.429945 287.310031 160.555106 288.435193 
C 161.680268 289.560354 163.206528 290.192552 164.797747 290.192552 
z
" clip-path="url(#p14e9e3f06a)" style="fill: #add8e6; stroke: #000000"/>
    <path d="M 175.246085 267.673208 
C 176.837303 267.673208 178.363564 267.04101 179.488725 265.915849 
C 180.613887 264.790687 181.246085 263.264427 181.246085 261.673208 
C 181.246085 260.08199 180.613887 258.555729 179.488725 257.430567 
C 178.363564 256.305406 176.837303 255.673208 175.246085 255.673208 
C 173.654866 255.673208 172.128606 256.305406 171.003444 257.430567 
C 169.878283 258.555729 169.246085 260.08199 169.246085 261.673208 
C 169.246085 263.264427 169.878283 264.790687 171.003444 265.915849 
C 172.128606 267.04101 173.654866 267.673208 175.246085 267.673208 
z
" clip-path="url(#p14e9e3f06a)" style="fill: #add8e6; stroke: #000000"/>
    <path d="M 204.109798 262.206707 
C 205.701017 262.206707 207.227278 261.574509 208.352439 260.449347 
C 209.477601 259.324186 210.109798 257.797925 210.109798 256.206707 
C 210.109798 254.615488 209.477601 253.089227 208.352439 251.964066 
C 207.227278 250.838905 205.701017 250.206707 204.109798 250.206707 
C 202.51858 250.206707 200.992319 250.838905 199.867158 251.964066 
C 198.741996 253.089227 198.109798 254.615488 198.109798 256.206707 
C 198.109798 257.797925 198.741996 259.324186 199.867158 260.449347 
C 200.992319 261.574509 202.51858 262.206707 204.109798 262.206707 
z
" clip-path="url(#p14e9e3f06a)" style="fill: #add8e6; stroke: #000000"/>
    <path d="M 209.66498 287.114295 
C 211.256199 287.114295 212.782459 286.482097 213.907621 285.356936 
C 215.032782 284.231774 215.66498 282.705513 215.66498 281.114295 
C 215.66498 279.523076 215.032782 277.996816 213.907621 276.871654 
C 212.782459 275.746493 211.256199 275.114295 209.66498 275.114295 
C 208.073762 275.114295 206.547501 275.746493 205.422339 276.871654 
C 204.297178 277.996816 203.66498 279.523076 203.66498 281.114295 
C 203.66498 282.705513 204.297178 284.231774 205.422339 285.356936 
C 206.547501 286.482097 208.073762 287.114295 209.66498 287.114295 
z
" clip-path="url(#p14e9e3f06a)" style="fill: #add8e6; stroke: #000000"/>
    <path d="M 230.131694 250.037747 
C 231.722912 250.037747 233.249173 249.405549 234.374335 248.280387 
C 235.499496 247.155226 236.131694 245.628965 236.131694 244.037747 
C 236.131694 242.446528 235.499496 240.920267 234.374335 239.795106 
C 233.249173 238.669944 231.722912 238.037747 230.131694 238.037747 
C 228.540475 238.037747 227.014215 238.669944 225.889053 239.795106 
C 224.763892 240.920267 224.131694 242.446528 224.131694 244.037747 
C 224.131694 245.628965 224.763892 247.155226 225.889053 248.280387 
C 227.014215 249.405549 228.540475 250.037747 230.131694 250.037747 
z
" clip-path="url(#p14e9e3f06a)" style="fill: #add8e6; stroke: #000000"/>
    <path d="M 239.512336 233.661106 
C 241.103555 233.661106 242.629815 233.028908 243.754977 231.903747 
C 244.880138 230.778585 245.512336 229.252325 245.512336 227.661106 
C 245.512336 226.069888 244.880138 224.543627 243.754977 223.418465 
C 242.629815 222.293304 241.103555 221.661106 239.512336 221.661106 
C 237.921117 221.661106 236.394857 222.293304 235.269695 223.418465 
C 234.144534 224.543627 233.512336 226.069888 233.512336 227.661106 
C 233.512336 229.252325 234.144534 230.778585 235.269695 231.903747 
C 236.394857 233.028908 237.921117 233.661106 239.512336 233.661106 
z
" clip-path="url(#p14e9e3f06a)" style="fill: #add8e6; stroke: #000000"/>
    <path d="M 258.247514 238.296204 
C 259.838732 238.296204 261.364993 237.664006 262.490154 236.538844 
C 263.615316 235.413683 264.247514 233.887422 264.247514 232.296204 
C 264.247514 230.704985 263.615316 229.178725 262.490154 228.053563 
C 261.364993 226.928402 259.838732 226.296204 258.247514 226.296204 
C 256.656295 226.296204 255.130035 226.928402 254.004873 228.053563 
C 252.879712 229.178725 252.247514 230.704985 252.247514 232.296204 
C 252.247514 233.887422 252.879712 235.413683 254.004873 236.538844 
C 255.130035 237.664006 256.656295 238.296204 258.247514 238.296204 
z
" clip-path="url(#p14e9e3f06a)" style="fill: #add8e6; stroke: #000000"/>
    <path d="M 274.717217 217.084495 
C 276.308435 217.084495 277.834696 216.452297 278.959857 215.327136 
C 280.085019 214.201975 280.717217 212.675714 280.717217 211.084495 
C 280.717217 209.493277 280.085019 207.967016 278.959857 206.841855 
C 277.834696 205.716693 276.308435 205.084495 274.717217 205.084495 
C 273.125998 205.084495 271.599737 205.716693 270.474576 206.841855 
C 269.349414 207.967016 268.717217 209.493277 268.717217 211.084495 
C 268.717217 212.675714 269.349414 214.201975 270.474576 215.327136 
C 271.599737 216.452297 273.125998 217.084495 274.717217 217.084495 
z
" clip-path="url(#p14e9e3f06a)" style="fill: #9acd32; stroke: #000000"/>
    <path d="M 282.263519 202.976972 
C 283.854737 202.976972 285.380998 202.344774 286.506159 201.219613 
C 287.631321 200.094451 288.263519 198.568191 288.263519 196.976972 
C 288.263519 195.385753 287.631321 193.859493 286.506159 192.734331 
C 285.380998 191.60917 283.854737 190.976972 282.263519 190.976972 
C 280.6723 190.976972 279.14604 191.60917 278.020878 192.734331 
C 276.895717 193.859493 276.263519 195.385753 276.263519 196.976972 
C 276.263519 198.568191 276.895717 200.094451 278.020878 201.219613 
C 279.14604 202.344774 280.6723 202.976972 282.263519 202.976972 
z
" clip-path="url(#p14e9e3f06a)" style="fill: #9acd32; stroke: #000000"/>
    <path d="M 303.537948 212.738063 
C 305.129167 212.738063 306.655427 212.105866 307.780589 210.980704 
C 308.90575 209.855543 309.537948 208.329282 309.537948 206.738063 
C 309.537948 205.146845 308.90575 203.620584 307.780589 202.495423 
C 306.655427 201.370261 305.129167 200.738063 303.537948 200.738063 
C 301.94673 200.738063 300.420469 201.370261 299.295307 202.495423 
C 298.170146 203.620584 297.537948 205.146845 297.537948 206.738063 
C 297.537948 208.329282 298.170146 209.855543 299.295307 210.980704 
C 300.420469 212.105866 301.94673 212.738063 303.537948 212.738063 
z
" clip-path="url(#p14e9e3f06a)" style="fill: #9acd32; stroke: #000000"/>
    <path d="M 332.742622 208.185373 
C 334.33384 208.185373 335.860101 207.553175 336.985262 206.428014 
C 338.110424 205.302852 338.742622 203.776592 338.742622 202.185373 
C 338.742622 200.594154 338.110424 199.067894 336.985262 197.942732 
C 335.860101 196.817571 334.33384 196.185373 332.742622 196.185373 
C 331.151403 196.185373 329.625143 196.817571 328.499981 197.942732 
C 327.37482 199.067894 326.742622 200.594154 326.742622 202.185373 
C 326.742622 203.776592 327.37482 205.302852 328.499981 206.428014 
C 329.625143 207.553175 331.151403 208.185373 332.742622 208.185373 
z
" clip-path="url(#p14e9e3f06a)" style="fill: #9acd32; stroke: #000000"/>
    <path d="M 347.958549 229.35322 
C 349.549768 229.35322 351.076028 228.721022 352.20119 227.59586 
C 353.326351 226.470699 353.958549 224.944438 353.958549 223.35322 
C 353.958549 221.762001 353.326351 220.23574 352.20119 219.110579 
C 351.076028 217.985417 349.549768 217.35322 347.958549 217.35322 
C 346.367331 217.35322 344.84107 217.985417 343.715909 219.110579 
C 342.590747 220.23574 341.958549 221.762001 341.958549 223.35322 
C 341.958549 224.944438 342.590747 226.470699 343.715909 227.59586 
C 344.84107 228.721022 346.367331 229.35322 347.958549 229.35322 
z
" clip-path="url(#p14e9e3f06a)" style="fill: #9acd32; stroke: #000000"/>
    <path d="M 358.541125 194.561316 
C 360.132343 194.561316 361.658604 193.929118 362.783765 192.803957 
C 363.908927 191.678795 364.541125 190.152535 364.541125 188.561316 
C 364.541125 186.970097 363.908927 185.443837 362.783765 184.318675 
C 361.658604 183.193514 360.132343 182.561316 358.541125 182.561316 
C 356.949906 182.561316 355.423646 183.193514 354.298484 184.318675 
C 353.173323 185.443837 352.541125 186.970097 352.541125 188.561316 
C 352.541125 190.152535 353.173323 191.678795 354.298484 192.803957 
C 355.423646 193.929118 356.949906 194.561316 358.541125 194.561316 
z
" clip-path="url(#p14e9e3f06a)" style="fill: #9acd32; stroke: #000000"/>
    <path d="M 383.483597 203.969291 
C 385.074816 203.969291 386.601077 203.337093 387.726238 202.211932 
C 388.8514 201.08677 389.483597 199.56051 389.483597 197.969291 
C 389.483597 196.378073 388.8514 194.851812 387.726238 193.72665 
C 386.601077 192.601489 385.074816 191.969291 383.483597 191.969291 
C 381.892379 191.969291 380.366118 192.601489 379.240957 193.72665 
C 378.115795 194.851812 377.483597 196.378073 377.483597 197.969291 
C 377.483597 199.56051 378.115795 201.08677 379.240957 202.211932 
C 380.366118 203.337093 381.892379 203.969291 383.483597 203.969291 
z
" clip-path="url(#p14e9e3f06a)" style="fill: #9acd32; stroke: #000000"/>
    <path d="M 270.945571 261.131799 
C 272.536789 261.131799 274.06305 260.499601 275.188212 259.374439 
C 276.313373 258.249278 276.945571 256.723017 276.945571 255.131799 
C 276.945571 253.54058 276.313373 252.014319 275.188212 250.889158 
C 274.06305 249.763997 272.536789 249.131799 270.945571 249.131799 
C 269.354352 249.131799 267.828092 249.763997 266.70293 250.889158 
C 265.577769 252.014319 264.945571 253.54058 264.945571 255.131799 
C 264.945571 256.723017 265.577769 258.249278 266.70293 259.374439 
C 267.828092 260.499601 269.354352 261.131799 270.945571 261.131799 
z
" clip-path="url(#p14e9e3f06a)" style="fill: #add8e6; stroke: #000000"/>
    <path d="M 220.295647 225.337149 
C 221.886865 225.337149 223.413126 224.704951 224.538287 223.579789 
C 225.663449 222.454628 226.295647 220.928367 226.295647 219.337149 
C 226.295647 217.74593 225.663449 216.21967 224.538287 215.094508 
C 223.413126 213.969347 221.886865 213.337149 220.295647 213.337149 
C 218.704428 213.337149 217.178167 213.969347 216.053006 215.094508 
C 214.927845 216.21967 214.295647 217.74593 214.295647 219.337149 
C 214.295647 220.928367 214.927845 222.454628 216.053006 223.579789 
C 217.178167 224.704951 218.704428 225.337149 220.295647 225.337149 
z
" clip-path="url(#p14e9e3f06a)" style="fill: #add8e6; stroke: #000000"/>
    <path d="M 245.135081 213.498258 
C 246.726299 213.498258 248.25256 212.86606 249.377721 211.740898 
C 250.502883 210.615737 251.135081 209.089476 251.135081 207.498258 
C 251.135081 205.907039 250.502883 204.380778 249.377721 203.255617 
C 248.25256 202.130455 246.726299 201.498258 245.135081 201.498258 
C 243.543862 201.498258 242.017602 202.130455 240.89244 203.255617 
C 239.767279 204.380778 239.135081 205.907039 239.135081 207.498258 
C 239.135081 209.089476 239.767279 210.615737 240.89244 211.740898 
C 242.017602 212.86606 243.543862 213.498258 245.135081 213.498258 
z
" clip-path="url(#p14e9e3f06a)" style="fill: #add8e6; stroke: #000000"/>
   </g>
   <g id="PathCollection_1"/>
   <g id="PathCollection_2"/>
   <g id="matplotlib.axis_1"/>
   <g id="matplotlib.axis_2"/>
   <g id="text_1">
    <g id="patch_3">
     <path d="M 277.19385 83.020553 
L 407.5776 83.020553 
Q 414.5776 83.020553 414.5776 76.020553 
L 414.5776 46.79424 
Q 414.5776 39.79424 407.5776 39.79424 
L 277.19385 39.79424 
Q 270.19385 39.79424 270.19385 46.79424 
L 270.19385 76.020553 
Q 270.19385 83.020553 277.19385 83.020553 
z
" style="fill: #ffffff; opacity: 0.2; stroke: #000000; stroke-linejoin: miter"/>
    </g>
    <!-- Total Cuts: 4 -->
    <g transform="translate(320.930725 57.432052) scale(0.14 -0.14)">
     <defs>
      <path id="DejaVuSans-54" d="M -19 4666 
L 3928 4666 
L 3928 4134 
L 2272 4134 
L 2272 0 
L 1638 0 
L 1638 4134 
L -19 4134 
L -19 4666 
z
" transform="scale(0.015625)"/>
      <path id="DejaVuSans-6f" d="M 1959 3097 
Q 1497 3097 1228 2736 
Q 959 2375 959 1747 
Q 959 1119 1226 758 
Q 1494 397 1959 397 
Q 2419 397 2687 759 
Q 2956 1122 2956 1747 
Q 2956 2369 2687 2733 
Q 2419 3097 1959 3097 
z
M 1959 3584 
Q 2709 3584 3137 3096 
Q 3566 2609 3566 1747 
Q 3566 888 3137 398 
Q 2709 -91 1959 -91 
Q 1206 -91 779 398 
Q 353 888 353 1747 
Q 353 2609 779 3096 
Q 1206 3584 1959 3584 
z
" transform="scale(0.015625)"/>
      <path id="DejaVuSans-74" d="M 1172 4494 
L 1172 3500 
L 2356 3500 
L 2356 3053 
L 1172 3053 
L 1172 1153 
Q 1172 725 1289 603 
Q 1406 481 1766 481 
L 2356 481 
L 2356 0 
L 1766 0 
Q 1100 0 847 248 
Q 594 497 594 1153 
L 594 3053 
L 172 3053 
L 172 3500 
L 594 3500 
L 594 4494 
L 1172 4494 
z
" transform="scale(0.015625)"/>
      <path id="DejaVuSans-61" d="M 2194 1759 
Q 1497 1759 1228 1600 
Q 959 1441 959 1056 
Q 959 750 1161 570 
Q 1363 391 1709 391 
Q 2188 391 2477 730 
Q 2766 1069 2766 1631 
L 2766 1759 
L 2194 1759 
z
M 3341 1997 
L 3341 0 
L 2766 0 
L 2766 531 
Q 2569 213 2275 61 
Q 1981 -91 1556 -91 
Q 1019 -91 701 211 
Q 384 513 384 1019 
Q 384 1609 779 1909 
Q 1175 2209 1959 2209 
L 2766 2209 
L 2766 2266 
Q 2766 2663 2505 2880 
Q 2244 3097 1772 3097 
Q 1472 3097 1187 3025 
Q 903 2953 641 2809 
L 641 3341 
Q 956 3463 1253 3523 
Q 1550 3584 1831 3584 
Q 2591 3584 2966 3190 
Q 3341 2797 3341 1997 
z
" transform="scale(0.015625)"/>
      <path id="DejaVuSans-6c" d="M 603 4863 
L 1178 4863 
L 1178 0 
L 603 0 
L 603 4863 
z
" transform="scale(0.015625)"/>
      <path id="DejaVuSans-20" transform="scale(0.015625)"/>
      <path id="DejaVuSans-43" d="M 4122 4306 
L 4122 3641 
Q 3803 3938 3442 4084 
Q 3081 4231 2675 4231 
Q 1875 4231 1450 3742 
Q 1025 3253 1025 2328 
Q 1025 1406 1450 917 
Q 1875 428 2675 428 
Q 3081 428 3442 575 
Q 3803 722 4122 1019 
L 4122 359 
Q 3791 134 3420 21 
Q 3050 -91 2638 -91 
Q 1578 -91 968 557 
Q 359 1206 359 2328 
Q 359 3453 968 4101 
Q 1578 4750 2638 4750 
Q 3056 4750 3426 4639 
Q 3797 4528 4122 4306 
z
" transform="scale(0.015625)"/>
      <path id="DejaVuSans-75" d="M 544 1381 
L 544 3500 
L 1119 3500 
L 1119 1403 
Q 1119 906 1312 657 
Q 1506 409 1894 409 
Q 2359 409 2629 706 
Q 2900 1003 2900 1516 
L 2900 3500 
L 3475 3500 
L 3475 0 
L 2900 0 
L 2900 538 
Q 2691 219 2414 64 
Q 2138 -91 1772 -91 
Q 1169 -91 856 284 
Q 544 659 544 1381 
z
M 1991 3584 
L 1991 3584 
z
" transform="scale(0.015625)"/>
      <path id="DejaVuSans-73" d="M 2834 3397 
L 2834 2853 
Q 2591 2978 2328 3040 
Q 2066 3103 1784 3103 
Q 1356 3103 1142 2972 
Q 928 2841 928 2578 
Q 928 2378 1081 2264 
Q 1234 2150 1697 2047 
L 1894 2003 
Q 2506 1872 2764 1633 
Q 3022 1394 3022 966 
Q 3022 478 2636 193 
Q 2250 -91 1575 -91 
Q 1294 -91 989 -36 
Q 684 19 347 128 
L 347 722 
Q 666 556 975 473 
Q 1284 391 1588 391 
Q 1994 391 2212 530 
Q 2431 669 2431 922 
Q 2431 1156 2273 1281 
Q 2116 1406 1581 1522 
L 1381 1569 
Q 847 1681 609 1914 
Q 372 2147 372 2553 
Q 372 3047 722 3315 
Q 1072 3584 1716 3584 
Q 2034 3584 2315 3537 
Q 2597 3491 2834 3397 
z
" transform="scale(0.015625)"/>
      <path id="DejaVuSans-3a" d="M 750 794 
L 1409 794 
L 1409 0 
L 750 0 
L 750 794 
z
M 750 3309 
L 1409 3309 
L 1409 2516 
L 750 2516 
L 750 3309 
z
" transform="scale(0.015625)"/>
      <path id="DejaVuSans-34" d="M 2419 4116 
L 825 1625 
L 2419 1625 
L 2419 4116 
z
M 2253 4666 
L 3047 4666 
L 3047 1625 
L 3713 1625 
L 3713 1100 
L 3047 1100 
L 3047 0 
L 2419 0 
L 2419 1100 
L 313 1100 
L 313 1709 
L 2253 4666 
z
" transform="scale(0.015625)"/>
     </defs>
     <use xlink:href="#DejaVuSans-54"/>
     <use xlink:href="#DejaVuSans-6f" x="44.083984"/>
     <use xlink:href="#DejaVuSans-74" x="105.265625"/>
     <use xlink:href="#DejaVuSans-61" x="144.474609"/>
     <use xlink:href="#DejaVuSans-6c" x="205.753906"/>
     <use xlink:href="#DejaVuSans-20" x="233.537109"/>
     <use xlink:href="#DejaVuSans-43" x="265.324219"/>
     <use xlink:href="#DejaVuSans-75" x="335.148438"/>
     <use xlink:href="#DejaVuSans-74" x="398.527344"/>
     <use xlink:href="#DejaVuSans-73" x="437.736328"/>
     <use xlink:href="#DejaVuSans-3a" x="489.835938"/>
     <use xlink:href="#DejaVuSans-20" x="523.527344"/>
     <use xlink:href="#DejaVuSans-34" x="555.314453"/>
    </g>
    <!-- Runtime (s): 0.026 -->
    <g transform="translate(277.19385 73.10899) scale(0.14 -0.14)">
     <defs>
      <path id="DejaVuSans-52" d="M 2841 2188 
Q 3044 2119 3236 1894 
Q 3428 1669 3622 1275 
L 4263 0 
L 3584 0 
L 2988 1197 
Q 2756 1666 2539 1819 
Q 2322 1972 1947 1972 
L 1259 1972 
L 1259 0 
L 628 0 
L 628 4666 
L 2053 4666 
Q 2853 4666 3247 4331 
Q 3641 3997 3641 3322 
Q 3641 2881 3436 2590 
Q 3231 2300 2841 2188 
z
M 1259 4147 
L 1259 2491 
L 2053 2491 
Q 2509 2491 2742 2702 
Q 2975 2913 2975 3322 
Q 2975 3731 2742 3939 
Q 2509 4147 2053 4147 
L 1259 4147 
z
" transform="scale(0.015625)"/>
      <path id="DejaVuSans-6e" d="M 3513 2113 
L 3513 0 
L 2938 0 
L 2938 2094 
Q 2938 2591 2744 2837 
Q 2550 3084 2163 3084 
Q 1697 3084 1428 2787 
Q 1159 2491 1159 1978 
L 1159 0 
L 581 0 
L 581 3500 
L 1159 3500 
L 1159 2956 
Q 1366 3272 1645 3428 
Q 1925 3584 2291 3584 
Q 2894 3584 3203 3211 
Q 3513 2838 3513 2113 
z
" transform="scale(0.015625)"/>
      <path id="DejaVuSans-69" d="M 603 3500 
L 1178 3500 
L 1178 0 
L 603 0 
L 603 3500 
z
M 603 4863 
L 1178 4863 
L 1178 4134 
L 603 4134 
L 603 4863 
z
" transform="scale(0.015625)"/>
      <path id="DejaVuSans-6d" d="M 3328 2828 
Q 3544 3216 3844 3400 
Q 4144 3584 4550 3584 
Q 5097 3584 5394 3201 
Q 5691 2819 5691 2113 
L 5691 0 
L 5113 0 
L 5113 2094 
Q 5113 2597 4934 2840 
Q 4756 3084 4391 3084 
Q 3944 3084 3684 2787 
Q 3425 2491 3425 1978 
L 3425 0 
L 2847 0 
L 2847 2094 
Q 2847 2600 2669 2842 
Q 2491 3084 2119 3084 
Q 1678 3084 1418 2786 
Q 1159 2488 1159 1978 
L 1159 0 
L 581 0 
L 581 3500 
L 1159 3500 
L 1159 2956 
Q 1356 3278 1631 3431 
Q 1906 3584 2284 3584 
Q 2666 3584 2933 3390 
Q 3200 3197 3328 2828 
z
" transform="scale(0.015625)"/>
      <path id="DejaVuSans-65" d="M 3597 1894 
L 3597 1613 
L 953 1613 
Q 991 1019 1311 708 
Q 1631 397 2203 397 
Q 2534 397 2845 478 
Q 3156 559 3463 722 
L 3463 178 
Q 3153 47 2828 -22 
Q 2503 -91 2169 -91 
Q 1331 -91 842 396 
Q 353 884 353 1716 
Q 353 2575 817 3079 
Q 1281 3584 2069 3584 
Q 2775 3584 3186 3129 
Q 3597 2675 3597 1894 
z
M 3022 2063 
Q 3016 2534 2758 2815 
Q 2500 3097 2075 3097 
Q 1594 3097 1305 2825 
Q 1016 2553 972 2059 
L 3022 2063 
z
" transform="scale(0.015625)"/>
      <path id="DejaVuSans-28" d="M 1984 4856 
Q 1566 4138 1362 3434 
Q 1159 2731 1159 2009 
Q 1159 1288 1364 580 
Q 1569 -128 1984 -844 
L 1484 -844 
Q 1016 -109 783 600 
Q 550 1309 550 2009 
Q 550 2706 781 3412 
Q 1013 4119 1484 4856 
L 1984 4856 
z
" transform="scale(0.015625)"/>
      <path id="DejaVuSans-29" d="M 513 4856 
L 1013 4856 
Q 1481 4119 1714 3412 
Q 1947 2706 1947 2009 
Q 1947 1309 1714 600 
Q 1481 -109 1013 -844 
L 513 -844 
Q 928 -128 1133 580 
Q 1338 1288 1338 2009 
Q 1338 2731 1133 3434 
Q 928 4138 513 4856 
z
" transform="scale(0.015625)"/>
      <path id="DejaVuSans-30" d="M 2034 4250 
Q 1547 4250 1301 3770 
Q 1056 3291 1056 2328 
Q 1056 1369 1301 889 
Q 1547 409 2034 409 
Q 2525 409 2770 889 
Q 3016 1369 3016 2328 
Q 3016 3291 2770 3770 
Q 2525 4250 2034 4250 
z
M 2034 4750 
Q 2819 4750 3233 4129 
Q 3647 3509 3647 2328 
Q 3647 1150 3233 529 
Q 2819 -91 2034 -91 
Q 1250 -91 836 529 
Q 422 1150 422 2328 
Q 422 3509 836 4129 
Q 1250 4750 2034 4750 
z
" transform="scale(0.015625)"/>
      <path id="DejaVuSans-2e" d="M 684 794 
L 1344 794 
L 1344 0 
L 684 0 
L 684 794 
z
" transform="scale(0.015625)"/>
      <path id="DejaVuSans-32" d="M 1228 531 
L 3431 531 
L 3431 0 
L 469 0 
L 469 531 
Q 828 903 1448 1529 
Q 2069 2156 2228 2338 
Q 2531 2678 2651 2914 
Q 2772 3150 2772 3378 
Q 2772 3750 2511 3984 
Q 2250 4219 1831 4219 
Q 1534 4219 1204 4116 
Q 875 4013 500 3803 
L 500 4441 
Q 881 4594 1212 4672 
Q 1544 4750 1819 4750 
Q 2544 4750 2975 4387 
Q 3406 4025 3406 3419 
Q 3406 3131 3298 2873 
Q 3191 2616 2906 2266 
Q 2828 2175 2409 1742 
Q 1991 1309 1228 531 
z
" transform="scale(0.015625)"/>
      <path id="DejaVuSans-36" d="M 2113 2584 
Q 1688 2584 1439 2293 
Q 1191 2003 1191 1497 
Q 1191 994 1439 701 
Q 1688 409 2113 409 
Q 2538 409 2786 701 
Q 3034 994 3034 1497 
Q 3034 2003 2786 2293 
Q 2538 2584 2113 2584 
z
M 3366 4563 
L 3366 3988 
Q 3128 4100 2886 4159 
Q 2644 4219 2406 4219 
Q 1781 4219 1451 3797 
Q 1122 3375 1075 2522 
Q 1259 2794 1537 2939 
Q 1816 3084 2150 3084 
Q 2853 3084 3261 2657 
Q 3669 2231 3669 1497 
Q 3669 778 3244 343 
Q 2819 -91 2113 -91 
Q 1303 -91 875 529 
Q 447 1150 447 2328 
Q 447 3434 972 4092 
Q 1497 4750 2381 4750 
Q 2619 4750 2861 4703 
Q 3103 4656 3366 4563 
z
" transform="scale(0.015625)"/>
     </defs>
     <use xlink:href="#DejaVuSans-52"/>
     <use xlink:href="#DejaVuSans-75" x="64.982422"/>
     <use xlink:href="#DejaVuSans-6e" x="128.361328"/>
     <use xlink:href="#DejaVuSans-74" x="191.740234"/>
     <use xlink:href="#DejaVuSans-69" x="230.949219"/>
     <use xlink:href="#DejaVuSans-6d" x="258.732422"/>
     <use xlink:href="#DejaVuSans-65" x="356.144531"/>
     <use xlink:href="#DejaVuSans-20" x="417.667969"/>
     <use xlink:href="#DejaVuSans-28" x="449.455078"/>
     <use xlink:href="#DejaVuSans-73" x="488.46875"/>
     <use xlink:href="#DejaVuSans-29" x="540.568359"/>
     <use xlink:href="#DejaVuSans-3a" x="579.582031"/>
     <use xlink:href="#DejaVuSans-20" x="613.273438"/>
     <use xlink:href="#DejaVuSans-30" x="645.060547"/>
     <use xlink:href="#DejaVuSans-2e" x="708.683594"/>
     <use xlink:href="#DejaVuSans-30" x="740.470703"/>
     <use xlink:href="#DejaVuSans-32" x="804.09375"/>
     <use xlink:href="#DejaVuSans-36" x="867.716797"/>
    </g>
   </g>
   <g id="text_2">
    <!-- Weightless, 59 vertices, 9.527% density -->
    <g transform="translate(77.976406 35.472) scale(0.14 -0.14)">
     <defs>
      <path id="DejaVuSans-Bold-57" d="M 191 4666 
L 1344 4666 
L 2150 1275 
L 2950 4666 
L 4109 4666 
L 4909 1275 
L 5716 4666 
L 6859 4666 
L 5759 0 
L 4372 0 
L 3525 3547 
L 2688 0 
L 1300 0 
L 191 4666 
z
" transform="scale(0.015625)"/>
      <path id="DejaVuSans-Bold-65" d="M 4031 1759 
L 4031 1441 
L 1416 1441 
Q 1456 1047 1700 850 
Q 1944 653 2381 653 
Q 2734 653 3104 758 
Q 3475 863 3866 1075 
L 3866 213 
Q 3469 63 3072 -14 
Q 2675 -91 2278 -91 
Q 1328 -91 801 392 
Q 275 875 275 1747 
Q 275 2603 792 3093 
Q 1309 3584 2216 3584 
Q 3041 3584 3536 3087 
Q 4031 2591 4031 1759 
z
M 2881 2131 
Q 2881 2450 2695 2645 
Q 2509 2841 2209 2841 
Q 1884 2841 1681 2658 
Q 1478 2475 1428 2131 
L 2881 2131 
z
" transform="scale(0.015625)"/>
      <path id="DejaVuSans-Bold-69" d="M 538 3500 
L 1656 3500 
L 1656 0 
L 538 0 
L 538 3500 
z
M 538 4863 
L 1656 4863 
L 1656 3950 
L 538 3950 
L 538 4863 
z
" transform="scale(0.015625)"/>
      <path id="DejaVuSans-Bold-67" d="M 2919 594 
Q 2688 288 2409 144 
Q 2131 0 1766 0 
Q 1125 0 706 504 
Q 288 1009 288 1791 
Q 288 2575 706 3076 
Q 1125 3578 1766 3578 
Q 2131 3578 2409 3434 
Q 2688 3291 2919 2981 
L 2919 3500 
L 4044 3500 
L 4044 353 
Q 4044 -491 3511 -936 
Q 2978 -1381 1966 -1381 
Q 1638 -1381 1331 -1331 
Q 1025 -1281 716 -1178 
L 716 -306 
Q 1009 -475 1290 -558 
Q 1572 -641 1856 -641 
Q 2406 -641 2662 -400 
Q 2919 -159 2919 353 
L 2919 594 
z
M 2181 2772 
Q 1834 2772 1640 2515 
Q 1447 2259 1447 1791 
Q 1447 1309 1634 1061 
Q 1822 813 2181 813 
Q 2531 813 2725 1069 
Q 2919 1325 2919 1791 
Q 2919 2259 2725 2515 
Q 2531 2772 2181 2772 
z
" transform="scale(0.015625)"/>
      <path id="DejaVuSans-Bold-68" d="M 4056 2131 
L 4056 0 
L 2931 0 
L 2931 347 
L 2931 1625 
Q 2931 2084 2911 2256 
Q 2891 2428 2841 2509 
Q 2775 2619 2662 2680 
Q 2550 2741 2406 2741 
Q 2056 2741 1856 2470 
Q 1656 2200 1656 1722 
L 1656 0 
L 538 0 
L 538 4863 
L 1656 4863 
L 1656 2988 
Q 1909 3294 2193 3439 
Q 2478 3584 2822 3584 
Q 3428 3584 3742 3212 
Q 4056 2841 4056 2131 
z
" transform="scale(0.015625)"/>
      <path id="DejaVuSans-Bold-74" d="M 1759 4494 
L 1759 3500 
L 2913 3500 
L 2913 2700 
L 1759 2700 
L 1759 1216 
Q 1759 972 1856 886 
Q 1953 800 2241 800 
L 2816 800 
L 2816 0 
L 1856 0 
Q 1194 0 917 276 
Q 641 553 641 1216 
L 641 2700 
L 84 2700 
L 84 3500 
L 641 3500 
L 641 4494 
L 1759 4494 
z
" transform="scale(0.015625)"/>
      <path id="DejaVuSans-Bold-6c" d="M 538 4863 
L 1656 4863 
L 1656 0 
L 538 0 
L 538 4863 
z
" transform="scale(0.015625)"/>
      <path id="DejaVuSans-Bold-73" d="M 3272 3391 
L 3272 2541 
Q 2913 2691 2578 2766 
Q 2244 2841 1947 2841 
Q 1628 2841 1473 2761 
Q 1319 2681 1319 2516 
Q 1319 2381 1436 2309 
Q 1553 2238 1856 2203 
L 2053 2175 
Q 2913 2066 3209 1816 
Q 3506 1566 3506 1031 
Q 3506 472 3093 190 
Q 2681 -91 1863 -91 
Q 1516 -91 1145 -36 
Q 775 19 384 128 
L 384 978 
Q 719 816 1070 734 
Q 1422 653 1784 653 
Q 2113 653 2278 743 
Q 2444 834 2444 1013 
Q 2444 1163 2330 1236 
Q 2216 1309 1875 1350 
L 1678 1375 
Q 931 1469 631 1722 
Q 331 1975 331 2491 
Q 331 3047 712 3315 
Q 1094 3584 1881 3584 
Q 2191 3584 2531 3537 
Q 2872 3491 3272 3391 
z
" transform="scale(0.015625)"/>
      <path id="DejaVuSans-Bold-2c" d="M 653 1209 
L 1778 1209 
L 1778 256 
L 1006 -909 
L 341 -909 
L 653 256 
L 653 1209 
z
" transform="scale(0.015625)"/>
      <path id="DejaVuSans-Bold-20" transform="scale(0.015625)"/>
      <path id="DejaVuSans-Bold-35" d="M 678 4666 
L 3669 4666 
L 3669 3781 
L 1638 3781 
L 1638 3059 
Q 1775 3097 1914 3117 
Q 2053 3138 2203 3138 
Q 3056 3138 3531 2711 
Q 4006 2284 4006 1522 
Q 4006 766 3489 337 
Q 2972 -91 2053 -91 
Q 1656 -91 1267 -14 
Q 878 63 494 219 
L 494 1166 
Q 875 947 1217 837 
Q 1559 728 1863 728 
Q 2300 728 2551 942 
Q 2803 1156 2803 1522 
Q 2803 1891 2551 2103 
Q 2300 2316 1863 2316 
Q 1603 2316 1309 2248 
Q 1016 2181 678 2041 
L 678 4666 
z
" transform="scale(0.015625)"/>
      <path id="DejaVuSans-Bold-39" d="M 641 103 
L 641 966 
Q 928 831 1190 764 
Q 1453 697 1709 697 
Q 2247 697 2547 995 
Q 2847 1294 2900 1881 
Q 2688 1725 2447 1647 
Q 2206 1569 1925 1569 
Q 1209 1569 770 1986 
Q 331 2403 331 3084 
Q 331 3838 820 4291 
Q 1309 4744 2131 4744 
Q 3044 4744 3544 4128 
Q 4044 3513 4044 2388 
Q 4044 1231 3459 570 
Q 2875 -91 1856 -91 
Q 1528 -91 1228 -42 
Q 928 6 641 103 
z
M 2125 2350 
Q 2441 2350 2600 2554 
Q 2759 2759 2759 3169 
Q 2759 3575 2600 3781 
Q 2441 3988 2125 3988 
Q 1809 3988 1650 3781 
Q 1491 3575 1491 3169 
Q 1491 2759 1650 2554 
Q 1809 2350 2125 2350 
z
" transform="scale(0.015625)"/>
      <path id="DejaVuSans-Bold-76" d="M 97 3500 
L 1216 3500 
L 2088 1081 
L 2956 3500 
L 4078 3500 
L 2700 0 
L 1472 0 
L 97 3500 
z
" transform="scale(0.015625)"/>
      <path id="DejaVuSans-Bold-72" d="M 3138 2547 
Q 2991 2616 2845 2648 
Q 2700 2681 2553 2681 
Q 2122 2681 1889 2404 
Q 1656 2128 1656 1613 
L 1656 0 
L 538 0 
L 538 3500 
L 1656 3500 
L 1656 2925 
Q 1872 3269 2151 3426 
Q 2431 3584 2822 3584 
Q 2878 3584 2943 3579 
Q 3009 3575 3134 3559 
L 3138 2547 
z
" transform="scale(0.015625)"/>
      <path id="DejaVuSans-Bold-63" d="M 3366 3391 
L 3366 2478 
Q 3138 2634 2908 2709 
Q 2678 2784 2431 2784 
Q 1963 2784 1702 2511 
Q 1441 2238 1441 1747 
Q 1441 1256 1702 982 
Q 1963 709 2431 709 
Q 2694 709 2930 787 
Q 3166 866 3366 1019 
L 3366 103 
Q 3103 6 2833 -42 
Q 2563 -91 2291 -91 
Q 1344 -91 809 395 
Q 275 881 275 1747 
Q 275 2613 809 3098 
Q 1344 3584 2291 3584 
Q 2566 3584 2833 3536 
Q 3100 3488 3366 3391 
z
" transform="scale(0.015625)"/>
      <path id="DejaVuSans-Bold-2e" d="M 653 1209 
L 1778 1209 
L 1778 0 
L 653 0 
L 653 1209 
z
" transform="scale(0.015625)"/>
      <path id="DejaVuSans-Bold-32" d="M 1844 884 
L 3897 884 
L 3897 0 
L 506 0 
L 506 884 
L 2209 2388 
Q 2438 2594 2547 2791 
Q 2656 2988 2656 3200 
Q 2656 3528 2436 3728 
Q 2216 3928 1850 3928 
Q 1569 3928 1234 3808 
Q 900 3688 519 3450 
L 519 4475 
Q 925 4609 1322 4679 
Q 1719 4750 2100 4750 
Q 2938 4750 3402 4381 
Q 3866 4013 3866 3353 
Q 3866 2972 3669 2642 
Q 3472 2313 2841 1759 
L 1844 884 
z
" transform="scale(0.015625)"/>
      <path id="DejaVuSans-Bold-37" d="M 428 4666 
L 3944 4666 
L 3944 3988 
L 2125 0 
L 953 0 
L 2675 3781 
L 428 3781 
L 428 4666 
z
" transform="scale(0.015625)"/>
      <path id="DejaVuSans-Bold-25" d="M 4959 1925 
Q 4738 1925 4616 1733 
Q 4494 1541 4494 1184 
Q 4494 825 4614 633 
Q 4734 441 4959 441 
Q 5184 441 5303 633 
Q 5422 825 5422 1184 
Q 5422 1541 5301 1733 
Q 5181 1925 4959 1925 
z
M 4959 2450 
Q 5541 2450 5875 2112 
Q 6209 1775 6209 1184 
Q 6209 594 5875 251 
Q 5541 -91 4959 -91 
Q 4378 -91 4042 251 
Q 3706 594 3706 1184 
Q 3706 1772 4042 2111 
Q 4378 2450 4959 2450 
z
M 2094 -91 
L 1403 -91 
L 4319 4750 
L 5013 4750 
L 2094 -91 
z
M 1453 4750 
Q 2034 4750 2367 4411 
Q 2700 4072 2700 3481 
Q 2700 2891 2367 2550 
Q 2034 2209 1453 2209 
Q 872 2209 539 2550 
Q 206 2891 206 3481 
Q 206 4072 539 4411 
Q 872 4750 1453 4750 
z
M 1453 4225 
Q 1228 4225 1106 4031 
Q 984 3838 984 3481 
Q 984 3122 1106 2926 
Q 1228 2731 1453 2731 
Q 1678 2731 1798 2926 
Q 1919 3122 1919 3481 
Q 1919 3838 1797 4031 
Q 1675 4225 1453 4225 
z
" transform="scale(0.015625)"/>
      <path id="DejaVuSans-Bold-64" d="M 2919 2988 
L 2919 4863 
L 4044 4863 
L 4044 0 
L 2919 0 
L 2919 506 
Q 2688 197 2409 53 
Q 2131 -91 1766 -91 
Q 1119 -91 703 423 
Q 288 938 288 1747 
Q 288 2556 703 3070 
Q 1119 3584 1766 3584 
Q 2128 3584 2408 3439 
Q 2688 3294 2919 2988 
z
M 2181 722 
Q 2541 722 2730 984 
Q 2919 1247 2919 1747 
Q 2919 2247 2730 2509 
Q 2541 2772 2181 2772 
Q 1825 2772 1636 2509 
Q 1447 2247 1447 1747 
Q 1447 1247 1636 984 
Q 1825 722 2181 722 
z
" transform="scale(0.015625)"/>
      <path id="DejaVuSans-Bold-6e" d="M 4056 2131 
L 4056 0 
L 2931 0 
L 2931 347 
L 2931 1631 
Q 2931 2084 2911 2256 
Q 2891 2428 2841 2509 
Q 2775 2619 2662 2680 
Q 2550 2741 2406 2741 
Q 2056 2741 1856 2470 
Q 1656 2200 1656 1722 
L 1656 0 
L 538 0 
L 538 3500 
L 1656 3500 
L 1656 2988 
Q 1909 3294 2193 3439 
Q 2478 3584 2822 3584 
Q 3428 3584 3742 3212 
Q 4056 2841 4056 2131 
z
" transform="scale(0.015625)"/>
      <path id="DejaVuSans-Bold-79" d="M 78 3500 
L 1197 3500 
L 2138 1125 
L 2938 3500 
L 4056 3500 
L 2584 -331 
Q 2363 -916 2067 -1148 
Q 1772 -1381 1288 -1381 
L 641 -1381 
L 641 -647 
L 991 -647 
Q 1275 -647 1404 -556 
Q 1534 -466 1606 -231 
L 1638 -134 
L 78 3500 
z
" transform="scale(0.015625)"/>
     </defs>
     <use xlink:href="#DejaVuSans-Bold-57"/>
     <use xlink:href="#DejaVuSans-Bold-65" x="106.677734"/>
     <use xlink:href="#DejaVuSans-Bold-69" x="174.5"/>
     <use xlink:href="#DejaVuSans-Bold-67" x="208.777344"/>
     <use xlink:href="#DejaVuSans-Bold-68" x="280.359375"/>
     <use xlink:href="#DejaVuSans-Bold-74" x="351.550781"/>
     <use xlink:href="#DejaVuSans-Bold-6c" x="399.353516"/>
     <use xlink:href="#DejaVuSans-Bold-65" x="433.630859"/>
     <use xlink:href="#DejaVuSans-Bold-73" x="501.453125"/>
     <use xlink:href="#DejaVuSans-Bold-73" x="560.974609"/>
     <use xlink:href="#DejaVuSans-Bold-2c" x="620.496094"/>
     <use xlink:href="#DejaVuSans-Bold-20" x="658.484375"/>
     <use xlink:href="#DejaVuSans-Bold-35" x="693.298828"/>
     <use xlink:href="#DejaVuSans-Bold-39" x="762.878906"/>
     <use xlink:href="#DejaVuSans-Bold-20" x="832.458984"/>
     <use xlink:href="#DejaVuSans-Bold-76" x="867.273438"/>
     <use xlink:href="#DejaVuSans-Bold-65" x="932.458984"/>
     <use xlink:href="#DejaVuSans-Bold-72" x="1000.28125"/>
     <use xlink:href="#DejaVuSans-Bold-74" x="1049.597656"/>
     <use xlink:href="#DejaVuSans-Bold-69" x="1097.400391"/>
     <use xlink:href="#DejaVuSans-Bold-63" x="1131.677734"/>
     <use xlink:href="#DejaVuSans-Bold-65" x="1190.955078"/>
     <use xlink:href="#DejaVuSans-Bold-73" x="1258.777344"/>
     <use xlink:href="#DejaVuSans-Bold-2c" x="1318.298828"/>
     <use xlink:href="#DejaVuSans-Bold-20" x="1356.287109"/>
     <use xlink:href="#DejaVuSans-Bold-39" x="1391.101562"/>
     <use xlink:href="#DejaVuSans-Bold-2e" x="1460.681641"/>
     <use xlink:href="#DejaVuSans-Bold-35" x="1498.669922"/>
     <use xlink:href="#DejaVuSans-Bold-32" x="1568.25"/>
     <use xlink:href="#DejaVuSans-Bold-37" x="1637.830078"/>
     <use xlink:href="#DejaVuSans-Bold-25" x="1707.410156"/>
     <use xlink:href="#DejaVuSans-Bold-20" x="1807.605469"/>
     <use xlink:href="#DejaVuSans-Bold-64" x="1842.419922"/>
     <use xlink:href="#DejaVuSans-Bold-65" x="1914.001953"/>
     <use xlink:href="#DejaVuSans-Bold-6e" x="1981.824219"/>
     <use xlink:href="#DejaVuSans-Bold-73" x="2053.015625"/>
     <use xlink:href="#DejaVuSans-Bold-69" x="2112.537109"/>
     <use xlink:href="#DejaVuSans-Bold-74" x="2146.814453"/>
     <use xlink:href="#DejaVuSans-Bold-79" x="2194.617188"/>
    </g>
   </g>
   <g id="legend_1">
    <g id="patch_4">
     <path d="M 7.914062 93.506375 
L 50.6 93.506375 
Q 52.6 93.506375 52.6 91.506375 
L 52.6 48.472 
Q 52.6 46.472 50.6 46.472 
L 7.914062 46.472 
Q 5.914062 46.472 5.914062 48.472 
L 5.914062 91.506375 
Q 5.914062 93.506375 7.914062 93.506375 
z
" style="fill: #ffffff; opacity: 0.8; stroke: #cccccc; stroke-linejoin: miter"/>
    </g>
    <g id="text_3">
     <!-- Cluster: -->
     <g transform="translate(9.914062 58.070438) scale(0.1 -0.1)">
      <defs>
       <path id="DejaVuSans-72" d="M 2631 2963 
Q 2534 3019 2420 3045 
Q 2306 3072 2169 3072 
Q 1681 3072 1420 2755 
Q 1159 2438 1159 1844 
L 1159 0 
L 581 0 
L 581 3500 
L 1159 3500 
L 1159 2956 
Q 1341 3275 1631 3429 
Q 1922 3584 2338 3584 
Q 2397 3584 2469 3576 
Q 2541 3569 2628 3553 
L 2631 2963 
z
" transform="scale(0.015625)"/>
      </defs>
      <use xlink:href="#DejaVuSans-43"/>
      <use xlink:href="#DejaVuSans-6c" x="69.824219"/>
      <use xlink:href="#DejaVuSans-75" x="97.607422"/>
      <use xlink:href="#DejaVuSans-73" x="160.986328"/>
      <use xlink:href="#DejaVuSans-74" x="213.085938"/>
      <use xlink:href="#DejaVuSans-65" x="252.294922"/>
      <use xlink:href="#DejaVuSans-72" x="313.818359"/>
      <use xlink:href="#DejaVuSans-3a" x="353.181641"/>
     </g>
    </g>
    <g id="PathCollection_3">
     <defs>
      <path id="md3d3d12a76" d="M 0 5 
C 1.326016 5 2.597899 4.473168 3.535534 3.535534 
C 4.473168 2.597899 5 1.326016 5 0 
C 5 -1.326016 4.473168 -2.597899 3.535534 -3.535534 
C 2.597899 -4.473168 1.326016 -5 0 -5 
C -1.326016 -5 -2.597899 -4.473168 -3.535534 -3.535534 
C -4.473168 -2.597899 -5 -1.326016 -5 0 
C -5 1.326016 -4.473168 2.597899 -3.535534 3.535534 
C -2.597899 4.473168 -1.326016 5 0 5 
z
" style="stroke: #000000"/>
     </defs>
     <g>
      <use xlink:href="#md3d3d12a76" x="22.075781" y="70.123563" style="fill: #add8e6; stroke: #000000"/>
     </g>
    </g>
    <g id="text_4">
     <!-- 0 -->
     <g transform="translate(40.075781 72.748563) scale(0.1 -0.1)">
      <use xlink:href="#DejaVuSans-30"/>
     </g>
    </g>
    <g id="PathCollection_4">
     <defs>
      <path id="me4ec5df6ef" d="M 0 5 
C 1.326016 5 2.597899 4.473168 3.535534 3.535534 
C 4.473168 2.597899 5 1.326016 5 0 
C 5 -1.326016 4.473168 -2.597899 3.535534 -3.535534 
C 2.597899 -4.473168 1.326016 -5 0 -5 
C -1.326016 -5 -2.597899 -4.473168 -3.535534 -3.535534 
C -4.473168 -2.597899 -5 -1.326016 -5 0 
C -5 1.326016 -4.473168 2.597899 -3.535534 3.535534 
C -2.597899 4.473168 -1.326016 5 0 5 
z
" style="stroke: #000000"/>
     </defs>
     <g>
      <use xlink:href="#me4ec5df6ef" x="22.075781" y="84.801688" style="fill: #9acd32; stroke: #000000"/>
     </g>
    </g>
    <g id="text_5">
     <!-- 1 -->
     <g transform="translate(40.075781 87.426688) scale(0.1 -0.1)">
      <defs>
       <path id="DejaVuSans-31" d="M 794 531 
L 1825 531 
L 1825 4091 
L 703 3866 
L 703 4441 
L 1819 4666 
L 2450 4666 
L 2450 531 
L 3481 531 
L 3481 0 
L 794 0 
L 794 531 
z
" transform="scale(0.015625)"/>
      </defs>
      <use xlink:href="#DejaVuSans-31"/>
     </g>
    </g>
   </g>
  </g>
 </g>
 <defs>
  <clipPath id="p14e9e3f06a">
   <rect x="57.6" y="41.472" width="357.12" height="266.112"/>
  </clipPath>
 </defs>
</svg>
