<?xml version="1.0" encoding="utf-8" standalone="no"?>
<!DOCTYPE svg PUBLIC "-//W3C//DTD SVG 1.1//EN"
  "http://www.w3.org/Graphics/SVG/1.1/DTD/svg11.dtd">
<svg xmlns:xlink="http://www.w3.org/1999/xlink" width="460.8pt" height="345.6pt" viewBox="0 0 460.8 345.6" xmlns="http://www.w3.org/2000/svg" version="1.1">
 <metadata>
  <rdf:RDF xmlns:dc="http://purl.org/dc/elements/1.1/" xmlns:cc="http://creativecommons.org/ns#" xmlns:rdf="http://www.w3.org/1999/02/22-rdf-syntax-ns#">
   <cc:Work>
    <dc:type rdf:resource="http://purl.org/dc/dcmitype/StillImage"/>
    <dc:date>2024-01-14T18:08:25.621863</dc:date>
    <dc:format>image/svg+xml</dc:format>
    <dc:creator>
     <cc:Agent>
      <dc:title>Matplotlib v3.8.2, https://matplotlib.org/</dc:title>
     </cc:Agent>
    </dc:creator>
   </cc:Work>
  </rdf:RDF>
 </metadata>
 <defs>
  <style type="text/css">*{stroke-linejoin: round; stroke-linecap: butt}</style>
 </defs>
 <g id="figure_1">
  <g id="patch_1">
   <path d="M 0 345.6 
L 460.8 345.6 
L 460.8 0 
L 0 0 
z
" style="fill: #ffffff"/>
  </g>
  <g id="axes_1">
   <g id="patch_2">
    <path d="M 57.6 307.584 
L 414.72 307.584 
L 414.72 41.472 
L 57.6 41.472 
z
" style="fill: #ffffff"/>
   </g>
   <g id="EdgeCollection_1">
    <path d="M 213.084388 193.68138 
L 183.017146 210.371598 
" clip-path="url(#p5a4b0f4374)" style="fill: #add8e6; stroke: #add8e6; stroke-width: 3.439394"/>
    <path d="M 215.819539 195.979306 
L 202.658462 233.975901 
" clip-path="url(#p5a4b0f4374)" style="fill: #add8e6; stroke: #add8e6; stroke-width: 1.837823"/>
    <path d="M 181.91414 216.581934 
L 197.753344 234.916853 
" clip-path="url(#p5a4b0f4374)" style="fill: #add8e6; stroke: #add8e6; stroke-width: 2.41358"/>
    <path d="M 375.667524 65.833921 
L 311.766203 77.507585 
" clip-path="url(#p5a4b0f4374)" style="fill: #9acd32; stroke: #9acd32; stroke-width: 3.345118"/>
    <path d="M 304.486018 82.813272 
L 284.214216 120.644101 
" clip-path="url(#p5a4b0f4374)" style="fill: #9acd32; stroke: #9acd32; stroke-width: 3.224467"/>
    <path d="M 321.671792 137.245495 
L 378.68485 111.829523 
" clip-path="url(#p5a4b0f4374)" style="fill: #9acd32; stroke: #9acd32; stroke-width: 2.433782"/>
    <path d="M 380.882702 69.926575 
L 382.955042 104.802497 
" clip-path="url(#p5a4b0f4374)" style="fill: #9acd32; stroke: #9acd32; stroke-width: 2.391134"/>
    <path d="M 212.547467 190.302835 
L 126.450767 173.60703 
" clip-path="url(#p5a4b0f4374)" style="fill: #add8e6; stroke: #add8e6; stroke-width: 2.676207"/>
    <path d="M 173.702857 212.043161 
L 133.301783 205.870857 
" clip-path="url(#p5a4b0f4374)" style="fill: #d3d3d3; stroke: #d3d3d3; stroke-width: 1.649832"/>
    <path d="M 196.483322 236.602742 
L 132.897786 207.213505 
" clip-path="url(#p5a4b0f4374)" style="fill: #d3d3d3; stroke: #d3d3d3; stroke-width: 1.892256"/>
    <path d="M 176.968675 208.08784 
L 161.541266 164.75027 
" clip-path="url(#p5a4b0f4374)" style="fill: #d3d3d3; stroke: #d3d3d3; stroke-width: 2.204265"/>
    <path d="M 93.707887 133.458504 
L 155.224926 158.175704 
" clip-path="url(#p5a4b0f4374)" style="fill: #9acd32; stroke: #9acd32; stroke-width: 3.080247"/>
    <path d="M 131.223524 201.017538 
L 157.000041 164.138033 
" clip-path="url(#p5a4b0f4374)" style="fill: #9acd32; stroke: #9acd32; stroke-width: 3.0578"/>
    <path d="M 183.622563 213.276744 
L 262.222629 220.832902 
" clip-path="url(#p5a4b0f4374)" style="fill: #add8e6; stroke: #add8e6; stroke-width: 1.957912"/>
    <path d="M 205.857817 237.429822 
L 262.363842 222.582054 
" clip-path="url(#p5a4b0f4374)" style="fill: #add8e6; stroke: #add8e6; stroke-width: 3.632435"/>
    <path d="M 332.311945 244.95778 
L 271.899363 223.018121 
" clip-path="url(#p5a4b0f4374)" style="fill: #add8e6; stroke: #add8e6; stroke-width: 3.489338"/>
    <path d="M 312.155017 138.576017 
L 226.874067 126.424644 
" clip-path="url(#p5a4b0f4374)" style="fill: #9acd32; stroke: #9acd32; stroke-width: 3.488777"/>
    <path d="M 276.852942 125.106981 
L 226.923752 125.663599 
" clip-path="url(#p5a4b0f4374)" style="fill: #9acd32; stroke: #9acd32; stroke-width: 3.208754"/>
    <path d="M 164.239912 157.620084 
L 217.548583 128.139083 
" clip-path="url(#p5a4b0f4374)" style="fill: #9acd32; stroke: #9acd32; stroke-width: 3.052189"/>
    <path d="M 340.95269 249.741547 
L 379.147706 279.562564 
" clip-path="url(#p5a4b0f4374)" style="fill: #add8e6; stroke: #add8e6; stroke-width: 3.50954"/>
    <path d="M 174.106617 214.895531 
L 111.957451 243.612345 
" clip-path="url(#p5a4b0f4374)" style="fill: #add8e6; stroke: #add8e6; stroke-width: 3.301908"/>
    <path d="M 340.069899 242.70891 
L 366.621754 208.366286 
" clip-path="url(#p5a4b0f4374)" style="fill: #add8e6; stroke: #add8e6; stroke-width: 2.736251"/>
    <path d="M 314.849723 143.743794 
L 300.267078 172.597889 
" clip-path="url(#p5a4b0f4374)" style="fill: #d3d3d3; stroke: #d3d3d3; stroke-width: 3.420875"/>
    <path d="M 222.380167 190.38704 
L 293.087638 177.928017 
" clip-path="url(#p5a4b0f4374)" style="fill: #add8e6; stroke: #add8e6; stroke-width: 3.428732"/>
    <path d="M 283.336167 129.826087 
L 296.528244 172.285516 
" clip-path="url(#p5a4b0f4374)" style="fill: #d3d3d3; stroke: #d3d3d3; stroke-width: 1.632435"/>
    <path d="M 270.056804 217.208093 
L 295.154659 181.163632 
" clip-path="url(#p5a4b0f4374)" style="fill: #add8e6; stroke: #add8e6; stroke-width: 2.820426"/>
    <path d="M 365.008634 202.627947 
L 302.683174 178.843073 
" clip-path="url(#p5a4b0f4374)" style="fill: #add8e6; stroke: #add8e6; stroke-width: 2.648709"/>
    <path d="M 199.290753 243.39123 
L 185.989816 279.4299 
" clip-path="url(#p5a4b0f4374)" style="fill: #d3d3d3; stroke: #d3d3d3; stroke-width: 2.011223"/>
   </g>
   <g id="VertexCollection_1">
    <path d="M 317.105021 144.281325 
C 318.431037 144.281325 319.702921 143.754494 320.640555 142.816859 
C 321.57819 141.879225 322.105021 140.607341 322.105021 139.281325 
C 322.105021 137.95531 321.57819 136.683426 320.640555 135.745791 
C 319.702921 134.808157 318.431037 134.281325 317.105021 134.281325 
C 315.779006 134.281325 314.507122 134.808157 313.569488 135.745791 
C 312.631853 136.683426 312.105021 137.95531 312.105021 139.281325 
C 312.105021 140.607341 312.631853 141.879225 313.569488 142.816859 
C 314.507122 143.754494 315.779006 144.281325 317.105021 144.281325 
z
" clip-path="url(#p5a4b0f4374)" style="fill: #9acd32; stroke: #000000"/>
    <path d="M 217.456026 196.254699 
C 218.782041 196.254699 220.053925 195.727867 220.99156 194.790233 
C 221.929194 193.852598 222.456026 192.580715 222.456026 191.254699 
C 222.456026 189.928684 221.929194 188.6568 220.99156 187.719165 
C 220.053925 186.781531 218.782041 186.254699 217.456026 186.254699 
C 216.13001 186.254699 214.858127 186.781531 213.920492 187.719165 
C 212.982857 188.6568 212.456026 189.928684 212.456026 191.254699 
C 212.456026 192.580715 212.982857 193.852598 213.920492 194.790233 
C 214.858127 195.727867 216.13001 196.254699 217.456026 196.254699 
z
" clip-path="url(#p5a4b0f4374)" style="fill: #add8e6; stroke: #000000"/>
    <path d="M 178.645508 217.798279 
C 179.971524 217.798279 181.243407 217.271447 182.181042 216.333813 
C 183.118677 215.396178 183.645508 214.124294 183.645508 212.798279 
C 183.645508 211.472263 183.118677 210.200379 182.181042 209.262745 
C 181.243407 208.32511 179.971524 207.798279 178.645508 207.798279 
C 177.319493 207.798279 176.047609 208.32511 175.109974 209.262745 
C 174.17234 210.200379 173.645508 211.472263 173.645508 212.798279 
C 173.645508 214.124294 174.17234 215.396178 175.109974 216.333813 
C 176.047609 217.271447 177.319493 217.798279 178.645508 217.798279 
z
" clip-path="url(#p5a4b0f4374)" style="fill: #add8e6; stroke: #000000"/>
    <path d="M 89.06838 136.594376 
C 90.394395 136.594376 91.666279 136.067544 92.603914 135.12991 
C 93.541548 134.192275 94.06838 132.920391 94.06838 131.594376 
C 94.06838 130.26836 93.541548 128.996476 92.603914 128.058842 
C 91.666279 127.121207 90.394395 126.594376 89.06838 126.594376 
C 87.742364 126.594376 86.47048 127.121207 85.532846 128.058842 
C 84.595211 128.996476 84.06838 130.26836 84.06838 131.594376 
C 84.06838 132.920391 84.595211 134.192275 85.532846 135.12991 
C 86.47048 136.067544 87.742364 136.594376 89.06838 136.594376 
z
" clip-path="url(#p5a4b0f4374)" style="fill: #9acd32; stroke: #000000"/>
    <path d="M 380.586124 69.935378 
C 381.912139 69.935378 383.184023 69.408547 384.121657 68.470912 
C 385.059292 67.533278 385.586124 66.261394 385.586124 64.935378 
C 385.586124 63.609363 385.059292 62.337479 384.121657 61.399844 
C 383.184023 60.46221 381.912139 59.935378 380.586124 59.935378 
C 379.260108 59.935378 377.988224 60.46221 377.05059 61.399844 
C 376.112955 62.337479 375.586124 63.609363 375.586124 64.935378 
C 375.586124 66.261394 376.112955 67.533278 377.05059 68.470912 
C 377.988224 69.408547 379.260108 69.935378 380.586124 69.935378 
z
" clip-path="url(#p5a4b0f4374)" style="fill: #9acd32; stroke: #000000"/>
    <path d="M 201.021976 243.700508 
C 202.347991 243.700508 203.619875 243.173677 204.55751 242.236042 
C 205.495144 241.298408 206.021976 240.026524 206.021976 238.700508 
C 206.021976 237.374493 205.495144 236.102609 204.55751 235.164974 
C 203.619875 234.22734 202.347991 233.700508 201.021976 233.700508 
C 199.69596 233.700508 198.424076 234.22734 197.486442 235.164974 
C 196.548807 236.102609 196.021976 237.374493 196.021976 238.700508 
C 196.021976 240.026524 196.548807 241.298408 197.486442 242.236042 
C 198.424076 243.173677 199.69596 243.700508 201.021976 243.700508 
z
" clip-path="url(#p5a4b0f4374)" style="fill: #add8e6; stroke: #000000"/>
    <path d="M 306.847604 83.406128 
C 308.173619 83.406128 309.445503 82.879297 310.383138 81.941662 
C 311.320772 81.004028 311.847604 79.732144 311.847604 78.406128 
C 311.847604 77.080113 311.320772 75.808229 310.383138 74.870594 
C 309.445503 73.93296 308.173619 73.406128 306.847604 73.406128 
C 305.521588 73.406128 304.249704 73.93296 303.31207 74.870594 
C 302.374435 75.808229 301.847604 77.080113 301.847604 78.406128 
C 301.847604 79.732144 302.374435 81.004028 303.31207 81.941662 
C 304.249704 82.879297 305.521588 83.406128 306.847604 83.406128 
z
" clip-path="url(#p5a4b0f4374)" style="fill: #9acd32; stroke: #000000"/>
    <path d="M 281.852631 130.051244 
C 283.178646 130.051244 284.45053 129.524413 285.388165 128.586778 
C 286.325799 127.649143 286.852631 126.37726 286.852631 125.051244 
C 286.852631 123.725229 286.325799 122.453345 285.388165 121.51571 
C 284.45053 120.578076 283.178646 120.051244 281.852631 120.051244 
C 280.526615 120.051244 279.254732 120.578076 278.317097 121.51571 
C 277.379462 122.453345 276.852631 123.725229 276.852631 125.051244 
C 276.852631 126.37726 277.379462 127.649143 278.317097 128.586778 
C 279.254732 129.524413 280.526615 130.051244 281.852631 130.051244 
z
" clip-path="url(#p5a4b0f4374)" style="fill: #9acd32; stroke: #000000"/>
    <path d="M 337.011625 251.664534 
C 338.337641 251.664534 339.609525 251.137702 340.547159 250.200068 
C 341.484794 249.262433 342.011625 247.990549 342.011625 246.664534 
C 342.011625 245.338518 341.484794 244.066634 340.547159 243.129 
C 339.609525 242.191365 338.337641 241.664534 337.011625 241.664534 
C 335.68561 241.664534 334.413726 242.191365 333.476091 243.129 
C 332.538457 244.066634 332.011625 245.338518 332.011625 246.664534 
C 332.011625 247.990549 332.538457 249.262433 333.476091 250.200068 
C 334.413726 251.137702 335.68561 251.664534 337.011625 251.664534 
z
" clip-path="url(#p5a4b0f4374)" style="fill: #add8e6; stroke: #000000"/>
    <path d="M 383.25162 114.793693 
C 384.577636 114.793693 385.84952 114.266862 386.787154 113.329227 
C 387.724789 112.391592 388.25162 111.119709 388.25162 109.793693 
C 388.25162 108.467678 387.724789 107.195794 386.787154 106.258159 
C 385.84952 105.320525 384.577636 104.793693 383.25162 104.793693 
C 381.925605 104.793693 380.653721 105.320525 379.716086 106.258159 
C 378.778452 107.195794 378.25162 108.467678 378.25162 109.793693 
C 378.25162 111.119709 378.778452 112.391592 379.716086 113.329227 
C 380.653721 114.266862 381.925605 114.793693 383.25162 114.793693 
z
" clip-path="url(#p5a4b0f4374)" style="fill: #9acd32; stroke: #000000"/>
    <path d="M 121.542208 177.655166 
C 122.868223 177.655166 124.140107 177.128335 125.077742 176.1907 
C 126.015376 175.253066 126.542208 173.981182 126.542208 172.655166 
C 126.542208 171.329151 126.015376 170.057267 125.077742 169.119633 
C 124.140107 168.181998 122.868223 167.655166 121.542208 167.655166 
C 120.216192 167.655166 118.944308 168.181998 118.006674 169.119633 
C 117.069039 170.057267 116.542208 171.329151 116.542208 172.655166 
C 116.542208 173.981182 117.069039 175.253066 118.006674 176.1907 
C 118.944308 177.128335 120.216192 177.655166 121.542208 177.655166 
z
" clip-path="url(#p5a4b0f4374)" style="fill: #add8e6; stroke: #000000"/>
    <path d="M 128.359132 210.11574 
C 129.685147 210.11574 130.957031 209.588908 131.894666 208.651273 
C 132.8323 207.713639 133.359132 206.441755 133.359132 205.11574 
C 133.359132 203.789724 132.8323 202.51784 131.894666 201.580206 
C 130.957031 200.642571 129.685147 200.11574 128.359132 200.11574 
C 127.033116 200.11574 125.761233 200.642571 124.823598 201.580206 
C 123.885963 202.51784 123.359132 203.789724 123.359132 205.11574 
C 123.359132 206.441755 123.885963 207.713639 124.823598 208.651273 
C 125.761233 209.588908 127.033116 210.11574 128.359132 210.11574 
z
" clip-path="url(#p5a4b0f4374)" style="fill: #9acd32; stroke: #000000"/>
    <path d="M 159.864433 165.039832 
C 161.190448 165.039832 162.462332 164.513 163.399967 163.575366 
C 164.337601 162.637731 164.864433 161.365847 164.864433 160.039832 
C 164.864433 158.713816 164.337601 157.441932 163.399967 156.504298 
C 162.462332 155.566663 161.190448 155.039832 159.864433 155.039832 
C 158.538417 155.039832 157.266533 155.566663 156.328899 156.504298 
C 155.391264 157.441932 154.864433 158.713816 154.864433 160.039832 
C 154.864433 161.365847 155.391264 162.637731 156.328899 163.575366 
C 157.266533 164.513 158.538417 165.039832 159.864433 165.039832 
z
" clip-path="url(#p5a4b0f4374)" style="fill: #9acd32; stroke: #000000"/>
    <path d="M 267.199683 226.311367 
C 268.525698 226.311367 269.797582 225.784536 270.735217 224.846901 
C 271.672851 223.909267 272.199683 222.637383 272.199683 221.311367 
C 272.199683 219.985352 271.672851 218.713468 270.735217 217.775833 
C 269.797582 216.838199 268.525698 216.311367 267.199683 216.311367 
C 265.873667 216.311367 264.601784 216.838199 263.664149 217.775833 
C 262.726515 218.713468 262.199683 219.985352 262.199683 221.311367 
C 262.199683 222.637383 262.726515 223.909267 263.664149 224.846901 
C 264.601784 225.784536 265.873667 226.311367 267.199683 226.311367 
z
" clip-path="url(#p5a4b0f4374)" style="fill: #add8e6; stroke: #000000"/>
    <path d="M 221.924063 130.719336 
C 223.250078 130.719336 224.521962 130.192504 225.459597 129.25487 
C 226.397231 128.317235 226.924063 127.045351 226.924063 125.719336 
C 226.924063 124.39332 226.397231 123.121437 225.459597 122.183802 
C 224.521962 121.246167 223.250078 120.719336 221.924063 120.719336 
C 220.598047 120.719336 219.326163 121.246167 218.388529 122.183802 
C 217.450894 123.121437 216.924063 124.39332 216.924063 125.719336 
C 216.924063 127.045351 217.450894 128.317235 218.388529 129.25487 
C 219.326163 130.192504 220.598047 130.719336 221.924063 130.719336 
z
" clip-path="url(#p5a4b0f4374)" style="fill: #9acd32; stroke: #000000"/>
    <path d="M 383.08877 287.639577 
C 384.414786 287.639577 385.68667 287.112746 386.624304 286.175111 
C 387.561939 285.237477 388.08877 283.965593 388.08877 282.639577 
C 388.08877 281.313562 387.561939 280.041678 386.624304 279.104044 
C 385.68667 278.166409 384.414786 277.639577 383.08877 277.639577 
C 381.762755 277.639577 380.490871 278.166409 379.553236 279.104044 
C 378.615602 280.041678 378.08877 281.313562 378.08877 282.639577 
C 378.08877 283.965593 378.615602 285.237477 379.553236 286.175111 
C 380.490871 287.112746 381.762755 287.639577 383.08877 287.639577 
z
" clip-path="url(#p5a4b0f4374)" style="fill: #add8e6; stroke: #000000"/>
    <path d="M 107.41856 250.709597 
C 108.744575 250.709597 110.016459 250.182766 110.954094 249.245131 
C 111.891728 248.307497 112.41856 247.035613 112.41856 245.709597 
C 112.41856 244.383582 111.891728 243.111698 110.954094 242.174064 
C 110.016459 241.236429 108.744575 240.709597 107.41856 240.709597 
C 106.092544 240.709597 104.820661 241.236429 103.883026 242.174064 
C 102.945391 243.111698 102.41856 244.383582 102.41856 245.709597 
C 102.41856 247.035613 102.945391 248.307497 103.883026 249.245131 
C 104.820661 250.182766 106.092544 250.709597 107.41856 250.709597 
z
" clip-path="url(#p5a4b0f4374)" style="fill: #add8e6; stroke: #000000"/>
    <path d="M 369.680028 209.410662 
C 371.006044 209.410662 372.277928 208.88383 373.215562 207.946196 
C 374.153197 207.008561 374.680028 205.736677 374.680028 204.410662 
C 374.680028 203.084646 374.153197 201.812762 373.215562 200.875128 
C 372.277928 199.937493 371.006044 199.410662 369.680028 199.410662 
C 368.354013 199.410662 367.082129 199.937493 366.144494 200.875128 
C 365.20686 201.812762 364.680028 203.084646 364.680028 204.410662 
C 364.680028 205.736677 365.20686 207.008561 366.144494 207.946196 
C 367.082129 208.88383 368.354013 209.410662 369.680028 209.410662 
z
" clip-path="url(#p5a4b0f4374)" style="fill: #add8e6; stroke: #000000"/>
    <path d="M 298.01178 182.060358 
C 299.337795 182.060358 300.609679 181.533527 301.547313 180.595892 
C 302.484948 179.658257 303.01178 178.386374 303.01178 177.060358 
C 303.01178 175.734343 302.484948 174.462459 301.547313 173.524824 
C 300.609679 172.58719 299.337795 172.060358 298.01178 172.060358 
C 296.685764 172.060358 295.41388 172.58719 294.476246 173.524824 
C 293.538611 174.462459 293.01178 175.734343 293.01178 177.060358 
C 293.01178 178.386374 293.538611 179.658257 294.476246 180.595892 
C 295.41388 181.533527 296.685764 182.060358 298.01178 182.060358 
z
" clip-path="url(#p5a4b0f4374)" style="fill: #add8e6; stroke: #000000"/>
    <path d="M 184.258593 289.120622 
C 185.584608 289.120622 186.856492 288.59379 187.794127 287.656156 
C 188.731761 286.718521 189.258593 285.446637 189.258593 284.120622 
C 189.258593 282.794606 188.731761 281.522722 187.794127 280.585088 
C 186.856492 279.647453 185.584608 279.120622 184.258593 279.120622 
C 182.932577 279.120622 181.660694 279.647453 180.723059 280.585088 
C 179.785424 281.522722 179.258593 282.794606 179.258593 284.120622 
C 179.258593 285.446637 179.785424 286.718521 180.723059 287.656156 
C 181.660694 288.59379 182.932577 289.120622 184.258593 289.120622 
z
" clip-path="url(#p5a4b0f4374)" style="fill: #9acd32; stroke: #000000"/>
   </g>
   <g id="text_1">
    <g clip-path="url(#p5a4b0f4374)">
     <!-- 0 -->
     <g transform="translate(314.878146 141.212888) scale(0.07 -0.07)">
      <defs>
       <path id="DejaVuSans-30" d="M 2034 4250 
Q 1547 4250 1301 3770 
Q 1056 3291 1056 2328 
Q 1056 1369 1301 889 
Q 1547 409 2034 409 
Q 2525 409 2770 889 
Q 3016 1369 3016 2328 
Q 3016 3291 2770 3770 
Q 2525 4250 2034 4250 
z
M 2034 4750 
Q 2819 4750 3233 4129 
Q 3647 3509 3647 2328 
Q 3647 1150 3233 529 
Q 2819 -91 2034 -91 
Q 1250 -91 836 529 
Q 422 1150 422 2328 
Q 422 3509 836 4129 
Q 1250 4750 2034 4750 
z
" transform="scale(0.015625)"/>
      </defs>
      <use xlink:href="#DejaVuSans-30"/>
     </g>
    </g>
   </g>
   <g id="text_2">
    <g clip-path="url(#p5a4b0f4374)">
     <!-- 1 -->
     <g transform="translate(215.229151 193.186262) scale(0.07 -0.07)">
      <defs>
       <path id="DejaVuSans-31" d="M 794 531 
L 1825 531 
L 1825 4091 
L 703 3866 
L 703 4441 
L 1819 4666 
L 2450 4666 
L 2450 531 
L 3481 531 
L 3481 0 
L 794 0 
L 794 531 
z
" transform="scale(0.015625)"/>
      </defs>
      <use xlink:href="#DejaVuSans-31"/>
     </g>
    </g>
   </g>
   <g id="text_3">
    <g clip-path="url(#p5a4b0f4374)">
     <!-- 2 -->
     <g transform="translate(176.418633 214.729841) scale(0.07 -0.07)">
      <defs>
       <path id="DejaVuSans-32" d="M 1228 531 
L 3431 531 
L 3431 0 
L 469 0 
L 469 531 
Q 828 903 1448 1529 
Q 2069 2156 2228 2338 
Q 2531 2678 2651 2914 
Q 2772 3150 2772 3378 
Q 2772 3750 2511 3984 
Q 2250 4219 1831 4219 
Q 1534 4219 1204 4116 
Q 875 4013 500 3803 
L 500 4441 
Q 881 4594 1212 4672 
Q 1544 4750 1819 4750 
Q 2544 4750 2975 4387 
Q 3406 4025 3406 3419 
Q 3406 3131 3298 2873 
Q 3191 2616 2906 2266 
Q 2828 2175 2409 1742 
Q 1991 1309 1228 531 
z
" transform="scale(0.015625)"/>
      </defs>
      <use xlink:href="#DejaVuSans-32"/>
     </g>
    </g>
   </g>
   <g id="text_4">
    <g clip-path="url(#p5a4b0f4374)">
     <!-- 3 -->
     <g transform="translate(86.841505 133.525938) scale(0.07 -0.07)">
      <defs>
       <path id="DejaVuSans-33" d="M 2597 2516 
Q 3050 2419 3304 2112 
Q 3559 1806 3559 1356 
Q 3559 666 3084 287 
Q 2609 -91 1734 -91 
Q 1441 -91 1130 -33 
Q 819 25 488 141 
L 488 750 
Q 750 597 1062 519 
Q 1375 441 1716 441 
Q 2309 441 2620 675 
Q 2931 909 2931 1356 
Q 2931 1769 2642 2001 
Q 2353 2234 1838 2234 
L 1294 2234 
L 1294 2753 
L 1863 2753 
Q 2328 2753 2575 2939 
Q 2822 3125 2822 3475 
Q 2822 3834 2567 4026 
Q 2313 4219 1838 4219 
Q 1578 4219 1281 4162 
Q 984 4106 628 3988 
L 628 4550 
Q 988 4650 1302 4700 
Q 1616 4750 1894 4750 
Q 2613 4750 3031 4423 
Q 3450 4097 3450 3541 
Q 3450 3153 3228 2886 
Q 3006 2619 2597 2516 
z
" transform="scale(0.015625)"/>
      </defs>
      <use xlink:href="#DejaVuSans-33"/>
     </g>
    </g>
   </g>
   <g id="text_5">
    <g clip-path="url(#p5a4b0f4374)">
     <!-- 4 -->
     <g transform="translate(378.359249 66.866941) scale(0.07 -0.07)">
      <defs>
       <path id="DejaVuSans-34" d="M 2419 4116 
L 825 1625 
L 2419 1625 
L 2419 4116 
z
M 2253 4666 
L 3047 4666 
L 3047 1625 
L 3713 1625 
L 3713 1100 
L 3047 1100 
L 3047 0 
L 2419 0 
L 2419 1100 
L 313 1100 
L 313 1709 
L 2253 4666 
z
" transform="scale(0.015625)"/>
      </defs>
      <use xlink:href="#DejaVuSans-34"/>
     </g>
    </g>
   </g>
   <g id="text_6">
    <g clip-path="url(#p5a4b0f4374)">
     <!-- 5 -->
     <g transform="translate(198.795101 240.632071) scale(0.07 -0.07)">
      <defs>
       <path id="DejaVuSans-35" d="M 691 4666 
L 3169 4666 
L 3169 4134 
L 1269 4134 
L 1269 2991 
Q 1406 3038 1543 3061 
Q 1681 3084 1819 3084 
Q 2600 3084 3056 2656 
Q 3513 2228 3513 1497 
Q 3513 744 3044 326 
Q 2575 -91 1722 -91 
Q 1428 -91 1123 -41 
Q 819 9 494 109 
L 494 744 
Q 775 591 1075 516 
Q 1375 441 1709 441 
Q 2250 441 2565 725 
Q 2881 1009 2881 1497 
Q 2881 1984 2565 2268 
Q 2250 2553 1709 2553 
Q 1456 2553 1204 2497 
Q 953 2441 691 2322 
L 691 4666 
z
" transform="scale(0.015625)"/>
      </defs>
      <use xlink:href="#DejaVuSans-35"/>
     </g>
    </g>
   </g>
   <g id="text_7">
    <g clip-path="url(#p5a4b0f4374)">
     <!-- 6 -->
     <g transform="translate(304.620729 80.337691) scale(0.07 -0.07)">
      <defs>
       <path id="DejaVuSans-36" d="M 2113 2584 
Q 1688 2584 1439 2293 
Q 1191 2003 1191 1497 
Q 1191 994 1439 701 
Q 1688 409 2113 409 
Q 2538 409 2786 701 
Q 3034 994 3034 1497 
Q 3034 2003 2786 2293 
Q 2538 2584 2113 2584 
z
M 3366 4563 
L 3366 3988 
Q 3128 4100 2886 4159 
Q 2644 4219 2406 4219 
Q 1781 4219 1451 3797 
Q 1122 3375 1075 2522 
Q 1259 2794 1537 2939 
Q 1816 3084 2150 3084 
Q 2853 3084 3261 2657 
Q 3669 2231 3669 1497 
Q 3669 778 3244 343 
Q 2819 -91 2113 -91 
Q 1303 -91 875 529 
Q 447 1150 447 2328 
Q 447 3434 972 4092 
Q 1497 4750 2381 4750 
Q 2619 4750 2861 4703 
Q 3103 4656 3366 4563 
z
" transform="scale(0.015625)"/>
      </defs>
      <use xlink:href="#DejaVuSans-36"/>
     </g>
    </g>
   </g>
   <g id="text_8">
    <g clip-path="url(#p5a4b0f4374)">
     <!-- 7 -->
     <g transform="translate(279.625756 126.982807) scale(0.07 -0.07)">
      <defs>
       <path id="DejaVuSans-37" d="M 525 4666 
L 3525 4666 
L 3525 4397 
L 1831 0 
L 1172 0 
L 2766 4134 
L 525 4134 
L 525 4666 
z
" transform="scale(0.015625)"/>
      </defs>
      <use xlink:href="#DejaVuSans-37"/>
     </g>
    </g>
   </g>
   <g id="text_9">
    <g clip-path="url(#p5a4b0f4374)">
     <!-- 8 -->
     <g transform="translate(334.78475 248.596096) scale(0.07 -0.07)">
      <defs>
       <path id="DejaVuSans-38" d="M 2034 2216 
Q 1584 2216 1326 1975 
Q 1069 1734 1069 1313 
Q 1069 891 1326 650 
Q 1584 409 2034 409 
Q 2484 409 2743 651 
Q 3003 894 3003 1313 
Q 3003 1734 2745 1975 
Q 2488 2216 2034 2216 
z
M 1403 2484 
Q 997 2584 770 2862 
Q 544 3141 544 3541 
Q 544 4100 942 4425 
Q 1341 4750 2034 4750 
Q 2731 4750 3128 4425 
Q 3525 4100 3525 3541 
Q 3525 3141 3298 2862 
Q 3072 2584 2669 2484 
Q 3125 2378 3379 2068 
Q 3634 1759 3634 1313 
Q 3634 634 3220 271 
Q 2806 -91 2034 -91 
Q 1263 -91 848 271 
Q 434 634 434 1313 
Q 434 1759 690 2068 
Q 947 2378 1403 2484 
z
M 1172 3481 
Q 1172 3119 1398 2916 
Q 1625 2713 2034 2713 
Q 2441 2713 2670 2916 
Q 2900 3119 2900 3481 
Q 2900 3844 2670 4047 
Q 2441 4250 2034 4250 
Q 1625 4250 1398 4047 
Q 1172 3844 1172 3481 
z
" transform="scale(0.015625)"/>
      </defs>
      <use xlink:href="#DejaVuSans-38"/>
     </g>
    </g>
   </g>
   <g id="text_10">
    <g clip-path="url(#p5a4b0f4374)">
     <!-- 9 -->
     <g transform="translate(381.024745 111.725256) scale(0.07 -0.07)">
      <defs>
       <path id="DejaVuSans-39" d="M 703 97 
L 703 672 
Q 941 559 1184 500 
Q 1428 441 1663 441 
Q 2288 441 2617 861 
Q 2947 1281 2994 2138 
Q 2813 1869 2534 1725 
Q 2256 1581 1919 1581 
Q 1219 1581 811 2004 
Q 403 2428 403 3163 
Q 403 3881 828 4315 
Q 1253 4750 1959 4750 
Q 2769 4750 3195 4129 
Q 3622 3509 3622 2328 
Q 3622 1225 3098 567 
Q 2575 -91 1691 -91 
Q 1453 -91 1209 -44 
Q 966 3 703 97 
z
M 1959 2075 
Q 2384 2075 2632 2365 
Q 2881 2656 2881 3163 
Q 2881 3666 2632 3958 
Q 2384 4250 1959 4250 
Q 1534 4250 1286 3958 
Q 1038 3666 1038 3163 
Q 1038 2656 1286 2365 
Q 1534 2075 1959 2075 
z
" transform="scale(0.015625)"/>
      </defs>
      <use xlink:href="#DejaVuSans-39"/>
     </g>
    </g>
   </g>
   <g id="text_11">
    <g clip-path="url(#p5a4b0f4374)">
     <!-- 10 -->
     <g transform="translate(117.088458 174.586729) scale(0.07 -0.07)">
      <use xlink:href="#DejaVuSans-31"/>
      <use xlink:href="#DejaVuSans-30" x="63.623047"/>
     </g>
    </g>
   </g>
   <g id="text_12">
    <g clip-path="url(#p5a4b0f4374)">
     <!-- 11 -->
     <g transform="translate(123.905382 207.047302) scale(0.07 -0.07)">
      <use xlink:href="#DejaVuSans-31"/>
      <use xlink:href="#DejaVuSans-31" x="63.623047"/>
     </g>
    </g>
   </g>
   <g id="text_13">
    <g clip-path="url(#p5a4b0f4374)">
     <!-- 12 -->
     <g transform="translate(155.410683 161.971394) scale(0.07 -0.07)">
      <use xlink:href="#DejaVuSans-31"/>
      <use xlink:href="#DejaVuSans-32" x="63.623047"/>
     </g>
    </g>
   </g>
   <g id="text_14">
    <g clip-path="url(#p5a4b0f4374)">
     <!-- 13 -->
     <g transform="translate(262.745933 223.24293) scale(0.07 -0.07)">
      <use xlink:href="#DejaVuSans-31"/>
      <use xlink:href="#DejaVuSans-33" x="63.623047"/>
     </g>
    </g>
   </g>
   <g id="text_15">
    <g clip-path="url(#p5a4b0f4374)">
     <!-- 14 -->
     <g transform="translate(217.470313 127.650898) scale(0.07 -0.07)">
      <use xlink:href="#DejaVuSans-31"/>
      <use xlink:href="#DejaVuSans-34" x="63.623047"/>
     </g>
    </g>
   </g>
   <g id="text_16">
    <g clip-path="url(#p5a4b0f4374)">
     <!-- 15 -->
     <g transform="translate(378.63502 284.57114) scale(0.07 -0.07)">
      <use xlink:href="#DejaVuSans-31"/>
      <use xlink:href="#DejaVuSans-35" x="63.623047"/>
     </g>
    </g>
   </g>
   <g id="text_17">
    <g clip-path="url(#p5a4b0f4374)">
     <!-- 16 -->
     <g transform="translate(102.96481 247.64116) scale(0.07 -0.07)">
      <use xlink:href="#DejaVuSans-31"/>
      <use xlink:href="#DejaVuSans-36" x="63.623047"/>
     </g>
    </g>
   </g>
   <g id="text_18">
    <g clip-path="url(#p5a4b0f4374)">
     <!-- 17 -->
     <g transform="translate(365.226278 206.342224) scale(0.07 -0.07)">
      <use xlink:href="#DejaVuSans-31"/>
      <use xlink:href="#DejaVuSans-37" x="63.623047"/>
     </g>
    </g>
   </g>
   <g id="text_19">
    <g clip-path="url(#p5a4b0f4374)">
     <!-- 18 -->
     <g transform="translate(293.55803 178.991921) scale(0.07 -0.07)">
      <use xlink:href="#DejaVuSans-31"/>
      <use xlink:href="#DejaVuSans-38" x="63.623047"/>
     </g>
    </g>
   </g>
   <g id="text_20">
    <g clip-path="url(#p5a4b0f4374)">
     <!-- 19 -->
     <g transform="translate(179.804843 286.052184) scale(0.07 -0.07)">
      <use xlink:href="#DejaVuSans-31"/>
      <use xlink:href="#DejaVuSans-39" x="63.623047"/>
     </g>
    </g>
   </g>
   <g id="PathCollection_1"/>
   <g id="PathCollection_2"/>
   <g id="matplotlib.axis_1"/>
   <g id="matplotlib.axis_2"/>
   <g id="text_21">
    <g id="patch_3">
     <path d="M 277.19385 83.020553 
L 407.5776 83.020553 
Q 414.5776 83.020553 414.5776 76.020553 
L 414.5776 46.79424 
Q 414.5776 39.79424 407.5776 39.79424 
L 277.19385 39.79424 
Q 270.19385 39.79424 270.19385 46.79424 
L 270.19385 76.020553 
Q 270.19385 83.020553 277.19385 83.020553 
z
" style="fill: #ffffff; opacity: 0.2; stroke: #000000; stroke-linejoin: miter"/>
    </g>
    <!-- Total Cuts: 12.137 -->
    <g transform="translate(280.85135 57.432052) scale(0.14 -0.14)">
     <defs>
      <path id="DejaVuSans-54" d="M -19 4666 
L 3928 4666 
L 3928 4134 
L 2272 4134 
L 2272 0 
L 1638 0 
L 1638 4134 
L -19 4134 
L -19 4666 
z
" transform="scale(0.015625)"/>
      <path id="DejaVuSans-6f" d="M 1959 3097 
Q 1497 3097 1228 2736 
Q 959 2375 959 1747 
Q 959 1119 1226 758 
Q 1494 397 1959 397 
Q 2419 397 2687 759 
Q 2956 1122 2956 1747 
Q 2956 2369 2687 2733 
Q 2419 3097 1959 3097 
z
M 1959 3584 
Q 2709 3584 3137 3096 
Q 3566 2609 3566 1747 
Q 3566 888 3137 398 
Q 2709 -91 1959 -91 
Q 1206 -91 779 398 
Q 353 888 353 1747 
Q 353 2609 779 3096 
Q 1206 3584 1959 3584 
z
" transform="scale(0.015625)"/>
      <path id="DejaVuSans-74" d="M 1172 4494 
L 1172 3500 
L 2356 3500 
L 2356 3053 
L 1172 3053 
L 1172 1153 
Q 1172 725 1289 603 
Q 1406 481 1766 481 
L 2356 481 
L 2356 0 
L 1766 0 
Q 1100 0 847 248 
Q 594 497 594 1153 
L 594 3053 
L 172 3053 
L 172 3500 
L 594 3500 
L 594 4494 
L 1172 4494 
z
" transform="scale(0.015625)"/>
      <path id="DejaVuSans-61" d="M 2194 1759 
Q 1497 1759 1228 1600 
Q 959 1441 959 1056 
Q 959 750 1161 570 
Q 1363 391 1709 391 
Q 2188 391 2477 730 
Q 2766 1069 2766 1631 
L 2766 1759 
L 2194 1759 
z
M 3341 1997 
L 3341 0 
L 2766 0 
L 2766 531 
Q 2569 213 2275 61 
Q 1981 -91 1556 -91 
Q 1019 -91 701 211 
Q 384 513 384 1019 
Q 384 1609 779 1909 
Q 1175 2209 1959 2209 
L 2766 2209 
L 2766 2266 
Q 2766 2663 2505 2880 
Q 2244 3097 1772 3097 
Q 1472 3097 1187 3025 
Q 903 2953 641 2809 
L 641 3341 
Q 956 3463 1253 3523 
Q 1550 3584 1831 3584 
Q 2591 3584 2966 3190 
Q 3341 2797 3341 1997 
z
" transform="scale(0.015625)"/>
      <path id="DejaVuSans-6c" d="M 603 4863 
L 1178 4863 
L 1178 0 
L 603 0 
L 603 4863 
z
" transform="scale(0.015625)"/>
      <path id="DejaVuSans-20" transform="scale(0.015625)"/>
      <path id="DejaVuSans-43" d="M 4122 4306 
L 4122 3641 
Q 3803 3938 3442 4084 
Q 3081 4231 2675 4231 
Q 1875 4231 1450 3742 
Q 1025 3253 1025 2328 
Q 1025 1406 1450 917 
Q 1875 428 2675 428 
Q 3081 428 3442 575 
Q 3803 722 4122 1019 
L 4122 359 
Q 3791 134 3420 21 
Q 3050 -91 2638 -91 
Q 1578 -91 968 557 
Q 359 1206 359 2328 
Q 359 3453 968 4101 
Q 1578 4750 2638 4750 
Q 3056 4750 3426 4639 
Q 3797 4528 4122 4306 
z
" transform="scale(0.015625)"/>
      <path id="DejaVuSans-75" d="M 544 1381 
L 544 3500 
L 1119 3500 
L 1119 1403 
Q 1119 906 1312 657 
Q 1506 409 1894 409 
Q 2359 409 2629 706 
Q 2900 1003 2900 1516 
L 2900 3500 
L 3475 3500 
L 3475 0 
L 2900 0 
L 2900 538 
Q 2691 219 2414 64 
Q 2138 -91 1772 -91 
Q 1169 -91 856 284 
Q 544 659 544 1381 
z
M 1991 3584 
L 1991 3584 
z
" transform="scale(0.015625)"/>
      <path id="DejaVuSans-73" d="M 2834 3397 
L 2834 2853 
Q 2591 2978 2328 3040 
Q 2066 3103 1784 3103 
Q 1356 3103 1142 2972 
Q 928 2841 928 2578 
Q 928 2378 1081 2264 
Q 1234 2150 1697 2047 
L 1894 2003 
Q 2506 1872 2764 1633 
Q 3022 1394 3022 966 
Q 3022 478 2636 193 
Q 2250 -91 1575 -91 
Q 1294 -91 989 -36 
Q 684 19 347 128 
L 347 722 
Q 666 556 975 473 
Q 1284 391 1588 391 
Q 1994 391 2212 530 
Q 2431 669 2431 922 
Q 2431 1156 2273 1281 
Q 2116 1406 1581 1522 
L 1381 1569 
Q 847 1681 609 1914 
Q 372 2147 372 2553 
Q 372 3047 722 3315 
Q 1072 3584 1716 3584 
Q 2034 3584 2315 3537 
Q 2597 3491 2834 3397 
z
" transform="scale(0.015625)"/>
      <path id="DejaVuSans-3a" d="M 750 794 
L 1409 794 
L 1409 0 
L 750 0 
L 750 794 
z
M 750 3309 
L 1409 3309 
L 1409 2516 
L 750 2516 
L 750 3309 
z
" transform="scale(0.015625)"/>
      <path id="DejaVuSans-2e" d="M 684 794 
L 1344 794 
L 1344 0 
L 684 0 
L 684 794 
z
" transform="scale(0.015625)"/>
     </defs>
     <use xlink:href="#DejaVuSans-54"/>
     <use xlink:href="#DejaVuSans-6f" x="44.083984"/>
     <use xlink:href="#DejaVuSans-74" x="105.265625"/>
     <use xlink:href="#DejaVuSans-61" x="144.474609"/>
     <use xlink:href="#DejaVuSans-6c" x="205.753906"/>
     <use xlink:href="#DejaVuSans-20" x="233.537109"/>
     <use xlink:href="#DejaVuSans-43" x="265.324219"/>
     <use xlink:href="#DejaVuSans-75" x="335.148438"/>
     <use xlink:href="#DejaVuSans-74" x="398.527344"/>
     <use xlink:href="#DejaVuSans-73" x="437.736328"/>
     <use xlink:href="#DejaVuSans-3a" x="489.835938"/>
     <use xlink:href="#DejaVuSans-20" x="523.527344"/>
     <use xlink:href="#DejaVuSans-31" x="555.314453"/>
     <use xlink:href="#DejaVuSans-32" x="618.9375"/>
     <use xlink:href="#DejaVuSans-2e" x="682.560547"/>
     <use xlink:href="#DejaVuSans-31" x="714.347656"/>
     <use xlink:href="#DejaVuSans-33" x="777.970703"/>
     <use xlink:href="#DejaVuSans-37" x="841.59375"/>
    </g>
    <!-- Runtime (s): 0.009 -->
    <g transform="translate(277.19385 73.10899) scale(0.14 -0.14)">
     <defs>
      <path id="DejaVuSans-52" d="M 2841 2188 
Q 3044 2119 3236 1894 
Q 3428 1669 3622 1275 
L 4263 0 
L 3584 0 
L 2988 1197 
Q 2756 1666 2539 1819 
Q 2322 1972 1947 1972 
L 1259 1972 
L 1259 0 
L 628 0 
L 628 4666 
L 2053 4666 
Q 2853 4666 3247 4331 
Q 3641 3997 3641 3322 
Q 3641 2881 3436 2590 
Q 3231 2300 2841 2188 
z
M 1259 4147 
L 1259 2491 
L 2053 2491 
Q 2509 2491 2742 2702 
Q 2975 2913 2975 3322 
Q 2975 3731 2742 3939 
Q 2509 4147 2053 4147 
L 1259 4147 
z
" transform="scale(0.015625)"/>
      <path id="DejaVuSans-6e" d="M 3513 2113 
L 3513 0 
L 2938 0 
L 2938 2094 
Q 2938 2591 2744 2837 
Q 2550 3084 2163 3084 
Q 1697 3084 1428 2787 
Q 1159 2491 1159 1978 
L 1159 0 
L 581 0 
L 581 3500 
L 1159 3500 
L 1159 2956 
Q 1366 3272 1645 3428 
Q 1925 3584 2291 3584 
Q 2894 3584 3203 3211 
Q 3513 2838 3513 2113 
z
" transform="scale(0.015625)"/>
      <path id="DejaVuSans-69" d="M 603 3500 
L 1178 3500 
L 1178 0 
L 603 0 
L 603 3500 
z
M 603 4863 
L 1178 4863 
L 1178 4134 
L 603 4134 
L 603 4863 
z
" transform="scale(0.015625)"/>
      <path id="DejaVuSans-6d" d="M 3328 2828 
Q 3544 3216 3844 3400 
Q 4144 3584 4550 3584 
Q 5097 3584 5394 3201 
Q 5691 2819 5691 2113 
L 5691 0 
L 5113 0 
L 5113 2094 
Q 5113 2597 4934 2840 
Q 4756 3084 4391 3084 
Q 3944 3084 3684 2787 
Q 3425 2491 3425 1978 
L 3425 0 
L 2847 0 
L 2847 2094 
Q 2847 2600 2669 2842 
Q 2491 3084 2119 3084 
Q 1678 3084 1418 2786 
Q 1159 2488 1159 1978 
L 1159 0 
L 581 0 
L 581 3500 
L 1159 3500 
L 1159 2956 
Q 1356 3278 1631 3431 
Q 1906 3584 2284 3584 
Q 2666 3584 2933 3390 
Q 3200 3197 3328 2828 
z
" transform="scale(0.015625)"/>
      <path id="DejaVuSans-65" d="M 3597 1894 
L 3597 1613 
L 953 1613 
Q 991 1019 1311 708 
Q 1631 397 2203 397 
Q 2534 397 2845 478 
Q 3156 559 3463 722 
L 3463 178 
Q 3153 47 2828 -22 
Q 2503 -91 2169 -91 
Q 1331 -91 842 396 
Q 353 884 353 1716 
Q 353 2575 817 3079 
Q 1281 3584 2069 3584 
Q 2775 3584 3186 3129 
Q 3597 2675 3597 1894 
z
M 3022 2063 
Q 3016 2534 2758 2815 
Q 2500 3097 2075 3097 
Q 1594 3097 1305 2825 
Q 1016 2553 972 2059 
L 3022 2063 
z
" transform="scale(0.015625)"/>
      <path id="DejaVuSans-28" d="M 1984 4856 
Q 1566 4138 1362 3434 
Q 1159 2731 1159 2009 
Q 1159 1288 1364 580 
Q 1569 -128 1984 -844 
L 1484 -844 
Q 1016 -109 783 600 
Q 550 1309 550 2009 
Q 550 2706 781 3412 
Q 1013 4119 1484 4856 
L 1984 4856 
z
" transform="scale(0.015625)"/>
      <path id="DejaVuSans-29" d="M 513 4856 
L 1013 4856 
Q 1481 4119 1714 3412 
Q 1947 2706 1947 2009 
Q 1947 1309 1714 600 
Q 1481 -109 1013 -844 
L 513 -844 
Q 928 -128 1133 580 
Q 1338 1288 1338 2009 
Q 1338 2731 1133 3434 
Q 928 4138 513 4856 
z
" transform="scale(0.015625)"/>
     </defs>
     <use xlink:href="#DejaVuSans-52"/>
     <use xlink:href="#DejaVuSans-75" x="64.982422"/>
     <use xlink:href="#DejaVuSans-6e" x="128.361328"/>
     <use xlink:href="#DejaVuSans-74" x="191.740234"/>
     <use xlink:href="#DejaVuSans-69" x="230.949219"/>
     <use xlink:href="#DejaVuSans-6d" x="258.732422"/>
     <use xlink:href="#DejaVuSans-65" x="356.144531"/>
     <use xlink:href="#DejaVuSans-20" x="417.667969"/>
     <use xlink:href="#DejaVuSans-28" x="449.455078"/>
     <use xlink:href="#DejaVuSans-73" x="488.46875"/>
     <use xlink:href="#DejaVuSans-29" x="540.568359"/>
     <use xlink:href="#DejaVuSans-3a" x="579.582031"/>
     <use xlink:href="#DejaVuSans-20" x="613.273438"/>
     <use xlink:href="#DejaVuSans-30" x="645.060547"/>
     <use xlink:href="#DejaVuSans-2e" x="708.683594"/>
     <use xlink:href="#DejaVuSans-30" x="740.470703"/>
     <use xlink:href="#DejaVuSans-30" x="804.09375"/>
     <use xlink:href="#DejaVuSans-39" x="867.716797"/>
    </g>
   </g>
   <g id="text_22">
    <!-- Weighted, 20 vertices, 14.737% density -->
    <g transform="translate(78.827344 35.472) scale(0.14 -0.14)">
     <defs>
      <path id="DejaVuSans-Bold-57" d="M 191 4666 
L 1344 4666 
L 2150 1275 
L 2950 4666 
L 4109 4666 
L 4909 1275 
L 5716 4666 
L 6859 4666 
L 5759 0 
L 4372 0 
L 3525 3547 
L 2688 0 
L 1300 0 
L 191 4666 
z
" transform="scale(0.015625)"/>
      <path id="DejaVuSans-Bold-65" d="M 4031 1759 
L 4031 1441 
L 1416 1441 
Q 1456 1047 1700 850 
Q 1944 653 2381 653 
Q 2734 653 3104 758 
Q 3475 863 3866 1075 
L 3866 213 
Q 3469 63 3072 -14 
Q 2675 -91 2278 -91 
Q 1328 -91 801 392 
Q 275 875 275 1747 
Q 275 2603 792 3093 
Q 1309 3584 2216 3584 
Q 3041 3584 3536 3087 
Q 4031 2591 4031 1759 
z
M 2881 2131 
Q 2881 2450 2695 2645 
Q 2509 2841 2209 2841 
Q 1884 2841 1681 2658 
Q 1478 2475 1428 2131 
L 2881 2131 
z
" transform="scale(0.015625)"/>
      <path id="DejaVuSans-Bold-69" d="M 538 3500 
L 1656 3500 
L 1656 0 
L 538 0 
L 538 3500 
z
M 538 4863 
L 1656 4863 
L 1656 3950 
L 538 3950 
L 538 4863 
z
" transform="scale(0.015625)"/>
      <path id="DejaVuSans-Bold-67" d="M 2919 594 
Q 2688 288 2409 144 
Q 2131 0 1766 0 
Q 1125 0 706 504 
Q 288 1009 288 1791 
Q 288 2575 706 3076 
Q 1125 3578 1766 3578 
Q 2131 3578 2409 3434 
Q 2688 3291 2919 2981 
L 2919 3500 
L 4044 3500 
L 4044 353 
Q 4044 -491 3511 -936 
Q 2978 -1381 1966 -1381 
Q 1638 -1381 1331 -1331 
Q 1025 -1281 716 -1178 
L 716 -306 
Q 1009 -475 1290 -558 
Q 1572 -641 1856 -641 
Q 2406 -641 2662 -400 
Q 2919 -159 2919 353 
L 2919 594 
z
M 2181 2772 
Q 1834 2772 1640 2515 
Q 1447 2259 1447 1791 
Q 1447 1309 1634 1061 
Q 1822 813 2181 813 
Q 2531 813 2725 1069 
Q 2919 1325 2919 1791 
Q 2919 2259 2725 2515 
Q 2531 2772 2181 2772 
z
" transform="scale(0.015625)"/>
      <path id="DejaVuSans-Bold-68" d="M 4056 2131 
L 4056 0 
L 2931 0 
L 2931 347 
L 2931 1625 
Q 2931 2084 2911 2256 
Q 2891 2428 2841 2509 
Q 2775 2619 2662 2680 
Q 2550 2741 2406 2741 
Q 2056 2741 1856 2470 
Q 1656 2200 1656 1722 
L 1656 0 
L 538 0 
L 538 4863 
L 1656 4863 
L 1656 2988 
Q 1909 3294 2193 3439 
Q 2478 3584 2822 3584 
Q 3428 3584 3742 3212 
Q 4056 2841 4056 2131 
z
" transform="scale(0.015625)"/>
      <path id="DejaVuSans-Bold-74" d="M 1759 4494 
L 1759 3500 
L 2913 3500 
L 2913 2700 
L 1759 2700 
L 1759 1216 
Q 1759 972 1856 886 
Q 1953 800 2241 800 
L 2816 800 
L 2816 0 
L 1856 0 
Q 1194 0 917 276 
Q 641 553 641 1216 
L 641 2700 
L 84 2700 
L 84 3500 
L 641 3500 
L 641 4494 
L 1759 4494 
z
" transform="scale(0.015625)"/>
      <path id="DejaVuSans-Bold-64" d="M 2919 2988 
L 2919 4863 
L 4044 4863 
L 4044 0 
L 2919 0 
L 2919 506 
Q 2688 197 2409 53 
Q 2131 -91 1766 -91 
Q 1119 -91 703 423 
Q 288 938 288 1747 
Q 288 2556 703 3070 
Q 1119 3584 1766 3584 
Q 2128 3584 2408 3439 
Q 2688 3294 2919 2988 
z
M 2181 722 
Q 2541 722 2730 984 
Q 2919 1247 2919 1747 
Q 2919 2247 2730 2509 
Q 2541 2772 2181 2772 
Q 1825 2772 1636 2509 
Q 1447 2247 1447 1747 
Q 1447 1247 1636 984 
Q 1825 722 2181 722 
z
" transform="scale(0.015625)"/>
      <path id="DejaVuSans-Bold-2c" d="M 653 1209 
L 1778 1209 
L 1778 256 
L 1006 -909 
L 341 -909 
L 653 256 
L 653 1209 
z
" transform="scale(0.015625)"/>
      <path id="DejaVuSans-Bold-20" transform="scale(0.015625)"/>
      <path id="DejaVuSans-Bold-32" d="M 1844 884 
L 3897 884 
L 3897 0 
L 506 0 
L 506 884 
L 2209 2388 
Q 2438 2594 2547 2791 
Q 2656 2988 2656 3200 
Q 2656 3528 2436 3728 
Q 2216 3928 1850 3928 
Q 1569 3928 1234 3808 
Q 900 3688 519 3450 
L 519 4475 
Q 925 4609 1322 4679 
Q 1719 4750 2100 4750 
Q 2938 4750 3402 4381 
Q 3866 4013 3866 3353 
Q 3866 2972 3669 2642 
Q 3472 2313 2841 1759 
L 1844 884 
z
" transform="scale(0.015625)"/>
      <path id="DejaVuSans-Bold-30" d="M 2944 2338 
Q 2944 3213 2780 3570 
Q 2616 3928 2228 3928 
Q 1841 3928 1675 3570 
Q 1509 3213 1509 2338 
Q 1509 1453 1675 1090 
Q 1841 728 2228 728 
Q 2613 728 2778 1090 
Q 2944 1453 2944 2338 
z
M 4147 2328 
Q 4147 1169 3647 539 
Q 3147 -91 2228 -91 
Q 1306 -91 806 539 
Q 306 1169 306 2328 
Q 306 3491 806 4120 
Q 1306 4750 2228 4750 
Q 3147 4750 3647 4120 
Q 4147 3491 4147 2328 
z
" transform="scale(0.015625)"/>
      <path id="DejaVuSans-Bold-76" d="M 97 3500 
L 1216 3500 
L 2088 1081 
L 2956 3500 
L 4078 3500 
L 2700 0 
L 1472 0 
L 97 3500 
z
" transform="scale(0.015625)"/>
      <path id="DejaVuSans-Bold-72" d="M 3138 2547 
Q 2991 2616 2845 2648 
Q 2700 2681 2553 2681 
Q 2122 2681 1889 2404 
Q 1656 2128 1656 1613 
L 1656 0 
L 538 0 
L 538 3500 
L 1656 3500 
L 1656 2925 
Q 1872 3269 2151 3426 
Q 2431 3584 2822 3584 
Q 2878 3584 2943 3579 
Q 3009 3575 3134 3559 
L 3138 2547 
z
" transform="scale(0.015625)"/>
      <path id="DejaVuSans-Bold-63" d="M 3366 3391 
L 3366 2478 
Q 3138 2634 2908 2709 
Q 2678 2784 2431 2784 
Q 1963 2784 1702 2511 
Q 1441 2238 1441 1747 
Q 1441 1256 1702 982 
Q 1963 709 2431 709 
Q 2694 709 2930 787 
Q 3166 866 3366 1019 
L 3366 103 
Q 3103 6 2833 -42 
Q 2563 -91 2291 -91 
Q 1344 -91 809 395 
Q 275 881 275 1747 
Q 275 2613 809 3098 
Q 1344 3584 2291 3584 
Q 2566 3584 2833 3536 
Q 3100 3488 3366 3391 
z
" transform="scale(0.015625)"/>
      <path id="DejaVuSans-Bold-73" d="M 3272 3391 
L 3272 2541 
Q 2913 2691 2578 2766 
Q 2244 2841 1947 2841 
Q 1628 2841 1473 2761 
Q 1319 2681 1319 2516 
Q 1319 2381 1436 2309 
Q 1553 2238 1856 2203 
L 2053 2175 
Q 2913 2066 3209 1816 
Q 3506 1566 3506 1031 
Q 3506 472 3093 190 
Q 2681 -91 1863 -91 
Q 1516 -91 1145 -36 
Q 775 19 384 128 
L 384 978 
Q 719 816 1070 734 
Q 1422 653 1784 653 
Q 2113 653 2278 743 
Q 2444 834 2444 1013 
Q 2444 1163 2330 1236 
Q 2216 1309 1875 1350 
L 1678 1375 
Q 931 1469 631 1722 
Q 331 1975 331 2491 
Q 331 3047 712 3315 
Q 1094 3584 1881 3584 
Q 2191 3584 2531 3537 
Q 2872 3491 3272 3391 
z
" transform="scale(0.015625)"/>
      <path id="DejaVuSans-Bold-31" d="M 750 831 
L 1813 831 
L 1813 3847 
L 722 3622 
L 722 4441 
L 1806 4666 
L 2950 4666 
L 2950 831 
L 4013 831 
L 4013 0 
L 750 0 
L 750 831 
z
" transform="scale(0.015625)"/>
      <path id="DejaVuSans-Bold-34" d="M 2356 3675 
L 1038 1722 
L 2356 1722 
L 2356 3675 
z
M 2156 4666 
L 3494 4666 
L 3494 1722 
L 4159 1722 
L 4159 850 
L 3494 850 
L 3494 0 
L 2356 0 
L 2356 850 
L 288 850 
L 288 1881 
L 2156 4666 
z
" transform="scale(0.015625)"/>
      <path id="DejaVuSans-Bold-2e" d="M 653 1209 
L 1778 1209 
L 1778 0 
L 653 0 
L 653 1209 
z
" transform="scale(0.015625)"/>
      <path id="DejaVuSans-Bold-37" d="M 428 4666 
L 3944 4666 
L 3944 3988 
L 2125 0 
L 953 0 
L 2675 3781 
L 428 3781 
L 428 4666 
z
" transform="scale(0.015625)"/>
      <path id="DejaVuSans-Bold-33" d="M 2981 2516 
Q 3453 2394 3698 2092 
Q 3944 1791 3944 1325 
Q 3944 631 3412 270 
Q 2881 -91 1863 -91 
Q 1503 -91 1142 -33 
Q 781 25 428 141 
L 428 1069 
Q 766 900 1098 814 
Q 1431 728 1753 728 
Q 2231 728 2486 893 
Q 2741 1059 2741 1369 
Q 2741 1688 2480 1852 
Q 2219 2016 1709 2016 
L 1228 2016 
L 1228 2791 
L 1734 2791 
Q 2188 2791 2409 2933 
Q 2631 3075 2631 3366 
Q 2631 3634 2415 3781 
Q 2200 3928 1806 3928 
Q 1516 3928 1219 3862 
Q 922 3797 628 3669 
L 628 4550 
Q 984 4650 1334 4700 
Q 1684 4750 2022 4750 
Q 2931 4750 3382 4451 
Q 3834 4153 3834 3553 
Q 3834 3144 3618 2883 
Q 3403 2622 2981 2516 
z
" transform="scale(0.015625)"/>
      <path id="DejaVuSans-Bold-25" d="M 4959 1925 
Q 4738 1925 4616 1733 
Q 4494 1541 4494 1184 
Q 4494 825 4614 633 
Q 4734 441 4959 441 
Q 5184 441 5303 633 
Q 5422 825 5422 1184 
Q 5422 1541 5301 1733 
Q 5181 1925 4959 1925 
z
M 4959 2450 
Q 5541 2450 5875 2112 
Q 6209 1775 6209 1184 
Q 6209 594 5875 251 
Q 5541 -91 4959 -91 
Q 4378 -91 4042 251 
Q 3706 594 3706 1184 
Q 3706 1772 4042 2111 
Q 4378 2450 4959 2450 
z
M 2094 -91 
L 1403 -91 
L 4319 4750 
L 5013 4750 
L 2094 -91 
z
M 1453 4750 
Q 2034 4750 2367 4411 
Q 2700 4072 2700 3481 
Q 2700 2891 2367 2550 
Q 2034 2209 1453 2209 
Q 872 2209 539 2550 
Q 206 2891 206 3481 
Q 206 4072 539 4411 
Q 872 4750 1453 4750 
z
M 1453 4225 
Q 1228 4225 1106 4031 
Q 984 3838 984 3481 
Q 984 3122 1106 2926 
Q 1228 2731 1453 2731 
Q 1678 2731 1798 2926 
Q 1919 3122 1919 3481 
Q 1919 3838 1797 4031 
Q 1675 4225 1453 4225 
z
" transform="scale(0.015625)"/>
      <path id="DejaVuSans-Bold-6e" d="M 4056 2131 
L 4056 0 
L 2931 0 
L 2931 347 
L 2931 1631 
Q 2931 2084 2911 2256 
Q 2891 2428 2841 2509 
Q 2775 2619 2662 2680 
Q 2550 2741 2406 2741 
Q 2056 2741 1856 2470 
Q 1656 2200 1656 1722 
L 1656 0 
L 538 0 
L 538 3500 
L 1656 3500 
L 1656 2988 
Q 1909 3294 2193 3439 
Q 2478 3584 2822 3584 
Q 3428 3584 3742 3212 
Q 4056 2841 4056 2131 
z
" transform="scale(0.015625)"/>
      <path id="DejaVuSans-Bold-79" d="M 78 3500 
L 1197 3500 
L 2138 1125 
L 2938 3500 
L 4056 3500 
L 2584 -331 
Q 2363 -916 2067 -1148 
Q 1772 -1381 1288 -1381 
L 641 -1381 
L 641 -647 
L 991 -647 
Q 1275 -647 1404 -556 
Q 1534 -466 1606 -231 
L 1638 -134 
L 78 3500 
z
" transform="scale(0.015625)"/>
     </defs>
     <use xlink:href="#DejaVuSans-Bold-57"/>
     <use xlink:href="#DejaVuSans-Bold-65" x="106.677734"/>
     <use xlink:href="#DejaVuSans-Bold-69" x="174.5"/>
     <use xlink:href="#DejaVuSans-Bold-67" x="208.777344"/>
     <use xlink:href="#DejaVuSans-Bold-68" x="280.359375"/>
     <use xlink:href="#DejaVuSans-Bold-74" x="351.550781"/>
     <use xlink:href="#DejaVuSans-Bold-65" x="399.353516"/>
     <use xlink:href="#DejaVuSans-Bold-64" x="467.175781"/>
     <use xlink:href="#DejaVuSans-Bold-2c" x="538.757812"/>
     <use xlink:href="#DejaVuSans-Bold-20" x="576.746094"/>
     <use xlink:href="#DejaVuSans-Bold-32" x="611.560547"/>
     <use xlink:href="#DejaVuSans-Bold-30" x="681.140625"/>
     <use xlink:href="#DejaVuSans-Bold-20" x="750.720703"/>
     <use xlink:href="#DejaVuSans-Bold-76" x="785.535156"/>
     <use xlink:href="#DejaVuSans-Bold-65" x="850.720703"/>
     <use xlink:href="#DejaVuSans-Bold-72" x="918.542969"/>
     <use xlink:href="#DejaVuSans-Bold-74" x="967.859375"/>
     <use xlink:href="#DejaVuSans-Bold-69" x="1015.662109"/>
     <use xlink:href="#DejaVuSans-Bold-63" x="1049.939453"/>
     <use xlink:href="#DejaVuSans-Bold-65" x="1109.216797"/>
     <use xlink:href="#DejaVuSans-Bold-73" x="1177.039062"/>
     <use xlink:href="#DejaVuSans-Bold-2c" x="1236.560547"/>
     <use xlink:href="#DejaVuSans-Bold-20" x="1274.548828"/>
     <use xlink:href="#DejaVuSans-Bold-31" x="1309.363281"/>
     <use xlink:href="#DejaVuSans-Bold-34" x="1378.943359"/>
     <use xlink:href="#DejaVuSans-Bold-2e" x="1448.523438"/>
     <use xlink:href="#DejaVuSans-Bold-37" x="1486.511719"/>
     <use xlink:href="#DejaVuSans-Bold-33" x="1556.091797"/>
     <use xlink:href="#DejaVuSans-Bold-37" x="1625.671875"/>
     <use xlink:href="#DejaVuSans-Bold-25" x="1695.251953"/>
     <use xlink:href="#DejaVuSans-Bold-20" x="1795.447266"/>
     <use xlink:href="#DejaVuSans-Bold-64" x="1830.261719"/>
     <use xlink:href="#DejaVuSans-Bold-65" x="1901.84375"/>
     <use xlink:href="#DejaVuSans-Bold-6e" x="1969.666016"/>
     <use xlink:href="#DejaVuSans-Bold-73" x="2040.857422"/>
     <use xlink:href="#DejaVuSans-Bold-69" x="2100.378906"/>
     <use xlink:href="#DejaVuSans-Bold-74" x="2134.65625"/>
     <use xlink:href="#DejaVuSans-Bold-79" x="2182.458984"/>
    </g>
   </g>
   <g id="legend_1">
    <g id="patch_4">
     <path d="M 7.914062 93.506375 
L 50.6 93.506375 
Q 52.6 93.506375 52.6 91.506375 
L 52.6 48.472 
Q 52.6 46.472 50.6 46.472 
L 7.914062 46.472 
Q 5.914062 46.472 5.914062 48.472 
L 5.914062 91.506375 
Q 5.914062 93.506375 7.914062 93.506375 
z
" style="fill: #ffffff; opacity: 0.8; stroke: #cccccc; stroke-linejoin: miter"/>
    </g>
    <g id="text_23">
     <!-- Cluster: -->
     <g transform="translate(9.914062 58.070438) scale(0.1 -0.1)">
      <defs>
       <path id="DejaVuSans-72" d="M 2631 2963 
Q 2534 3019 2420 3045 
Q 2306 3072 2169 3072 
Q 1681 3072 1420 2755 
Q 1159 2438 1159 1844 
L 1159 0 
L 581 0 
L 581 3500 
L 1159 3500 
L 1159 2956 
Q 1341 3275 1631 3429 
Q 1922 3584 2338 3584 
Q 2397 3584 2469 3576 
Q 2541 3569 2628 3553 
L 2631 2963 
z
" transform="scale(0.015625)"/>
      </defs>
      <use xlink:href="#DejaVuSans-43"/>
      <use xlink:href="#DejaVuSans-6c" x="69.824219"/>
      <use xlink:href="#DejaVuSans-75" x="97.607422"/>
      <use xlink:href="#DejaVuSans-73" x="160.986328"/>
      <use xlink:href="#DejaVuSans-74" x="213.085938"/>
      <use xlink:href="#DejaVuSans-65" x="252.294922"/>
      <use xlink:href="#DejaVuSans-72" x="313.818359"/>
      <use xlink:href="#DejaVuSans-3a" x="353.181641"/>
     </g>
    </g>
    <g id="PathCollection_3">
     <defs>
      <path id="mfbd042af08" d="M 0 5 
C 1.326016 5 2.597899 4.473168 3.535534 3.535534 
C 4.473168 2.597899 5 1.326016 5 0 
C 5 -1.326016 4.473168 -2.597899 3.535534 -3.535534 
C 2.597899 -4.473168 1.326016 -5 0 -5 
C -1.326016 -5 -2.597899 -4.473168 -3.535534 -3.535534 
C -4.473168 -2.597899 -5 -1.326016 -5 0 
C -5 1.326016 -4.473168 2.597899 -3.535534 3.535534 
C -2.597899 4.473168 -1.326016 5 0 5 
z
" style="stroke: #000000"/>
     </defs>
     <g>
      <use xlink:href="#mfbd042af08" x="22.075781" y="70.123563" style="fill: #add8e6; stroke: #000000"/>
     </g>
    </g>
    <g id="text_24">
     <!-- 0 -->
     <g transform="translate(40.075781 72.748563) scale(0.1 -0.1)">
      <use xlink:href="#DejaVuSans-30"/>
     </g>
    </g>
    <g id="PathCollection_4">
     <defs>
      <path id="mae0ba2c353" d="M 0 5 
C 1.326016 5 2.597899 4.473168 3.535534 3.535534 
C 4.473168 2.597899 5 1.326016 5 0 
C 5 -1.326016 4.473168 -2.597899 3.535534 -3.535534 
C 2.597899 -4.473168 1.326016 -5 0 -5 
C -1.326016 -5 -2.597899 -4.473168 -3.535534 -3.535534 
C -4.473168 -2.597899 -5 -1.326016 -5 0 
C -5 1.326016 -4.473168 2.597899 -3.535534 3.535534 
C -2.597899 4.473168 -1.326016 5 0 5 
z
" style="stroke: #000000"/>
     </defs>
     <g>
      <use xlink:href="#mae0ba2c353" x="22.075781" y="84.801688" style="fill: #9acd32; stroke: #000000"/>
     </g>
    </g>
    <g id="text_25">
     <!-- 1 -->
     <g transform="translate(40.075781 87.426688) scale(0.1 -0.1)">
      <use xlink:href="#DejaVuSans-31"/>
     </g>
    </g>
   </g>
  </g>
 </g>
 <defs>
  <clipPath id="p5a4b0f4374">
   <rect x="57.6" y="41.472" width="357.12" height="266.112"/>
  </clipPath>
 </defs>
</svg>
