<?xml version="1.0" encoding="utf-8" standalone="no"?>
<!DOCTYPE svg PUBLIC "-//W3C//DTD SVG 1.1//EN"
  "http://www.w3.org/Graphics/SVG/1.1/DTD/svg11.dtd">
<svg xmlns:xlink="http://www.w3.org/1999/xlink" width="460.8pt" height="345.6pt" viewBox="0 0 460.8 345.6" xmlns="http://www.w3.org/2000/svg" version="1.1">
 <metadata>
  <rdf:RDF xmlns:dc="http://purl.org/dc/elements/1.1/" xmlns:cc="http://creativecommons.org/ns#" xmlns:rdf="http://www.w3.org/1999/02/22-rdf-syntax-ns#">
   <cc:Work>
    <dc:type rdf:resource="http://purl.org/dc/dcmitype/StillImage"/>
    <dc:date>2024-01-14T18:09:55.529419</dc:date>
    <dc:format>image/svg+xml</dc:format>
    <dc:creator>
     <cc:Agent>
      <dc:title>Matplotlib v3.8.2, https://matplotlib.org/</dc:title>
     </cc:Agent>
    </dc:creator>
   </cc:Work>
  </rdf:RDF>
 </metadata>
 <defs>
  <style type="text/css">*{stroke-linejoin: round; stroke-linecap: butt}</style>
 </defs>
 <g id="figure_1">
  <g id="patch_1">
   <path d="M 0 345.6 
L 460.8 345.6 
L 460.8 0 
L 0 0 
z
" style="fill: #ffffff"/>
  </g>
  <g id="axes_1">
   <g id="patch_2">
    <path d="M 57.6 307.584 
L 414.72 307.584 
L 414.72 41.472 
L 57.6 41.472 
z
" style="fill: #ffffff"/>
   </g>
   <g id="EdgeCollection_1">
    <path d="M 210.320784 198.787828 
L 139.229517 198.147033 
" clip-path="url(#p910ebed5ac)" style="fill: #add8e6; stroke: #add8e6; stroke-width: 1.561038"/>
    <path d="M 236.798789 203.861032 
L 192.034118 204.426904 
" clip-path="url(#p910ebed5ac)" style="fill: #add8e6; stroke: #add8e6; stroke-width: 2.098678"/>
    <path d="M 210.417678 199.813475 
L 191.937421 203.509524 
" clip-path="url(#p910ebed5ac)" style="fill: #add8e6; stroke: #add8e6; stroke-width: 2.120041"/>
    <path d="M 227.499585 219.049847 
L 191.739239 206.18291 
" clip-path="url(#p910ebed5ac)" style="fill: #add8e6; stroke: #add8e6; stroke-width: 1.814344"/>
    <path d="M 130.952144 194.326057 
L 111.096979 171.452045 
" clip-path="url(#p910ebed5ac)" style="fill: #add8e6; stroke: #add8e6; stroke-width: 2.967447"/>
    <path d="M 141.123118 145.500405 
L 111.981197 164.904948 
" clip-path="url(#p910ebed5ac)" style="fill: #d3d3d3; stroke: #d3d3d3; stroke-width: 2.272126"/>
    <path d="M 344.289765 202.905591 
L 358.728226 178.794836 
" clip-path="url(#p910ebed5ac)" style="fill: #9acd32; stroke: #9acd32; stroke-width: 3.501017"/>
    <path d="M 150.1507 143.879913 
L 219.750117 160.339267 
" clip-path="url(#p910ebed5ac)" style="fill: #9acd32; stroke: #9acd32; stroke-width: 2.860631"/>
    <path d="M 300.913551 144.667772 
L 279.362517 181.805535 
" clip-path="url(#p910ebed5ac)" style="fill: #d3d3d3; stroke: #d3d3d3; stroke-width: 2.754323"/>
    <path d="M 245.326914 154.902832 
L 273.300631 182.611466 
" clip-path="url(#p910ebed5ac)" style="fill: #add8e6; stroke: #add8e6; stroke-width: 2.182096"/>
    <path d="M 220.217326 197.822009 
L 271.956211 187.141014 
" clip-path="url(#p910ebed5ac)" style="fill: #add8e6; stroke: #add8e6; stroke-width: 2.68413"/>
    <path d="M 236.155961 217.679252 
L 272.901302 189.19353 
" clip-path="url(#p910ebed5ac)" style="fill: #add8e6; stroke: #add8e6; stroke-width: 1.979145"/>
    <path d="M 129.731983 200.286082 
L 93.302428 217.976387 
" clip-path="url(#p910ebed5ac)" style="fill: #add8e6; stroke: #add8e6; stroke-width: 1.631231"/>
    <path d="M 237.120142 202.033178 
L 196.038466 186.53701 
" clip-path="url(#p910ebed5ac)" style="fill: #add8e6; stroke: #add8e6; stroke-width: 1.855544"/>
    <path d="M 281.819493 186.707631 
L 350.233432 194.662723 
" clip-path="url(#p910ebed5ac)" style="fill: #add8e6; stroke: #add8e6; stroke-width: 2.996948"/>
    <path d="M 310.669769 157.980143 
L 303.766021 185.586668 
" clip-path="url(#p910ebed5ac)" style="fill: #d3d3d3; stroke: #d3d3d3; stroke-width: 2.040183"/>
    <path d="M 356.471372 175.813957 
L 307.378663 189.128511 
" clip-path="url(#p910ebed5ac)" style="fill: #d3d3d3; stroke: #d3d3d3; stroke-width: 2.594608"/>
    <path d="M 229.303047 163.230856 
L 297.865852 188.696399 
" clip-path="url(#p910ebed5ac)" style="fill: #d3d3d3; stroke: #d3d3d3; stroke-width: 2.194812"/>
    <path d="M 281.784182 186.956571 
L 297.621766 189.610851 
" clip-path="url(#p910ebed5ac)" style="fill: #add8e6; stroke: #add8e6; stroke-width: 3.415565"/>
    <path d="M 225.22236 124.228791 
L 214.22691 132.592856 
" clip-path="url(#p910ebed5ac)" style="fill: #9acd32; stroke: #9acd32; stroke-width: 1.840793"/>
    <path d="M 222.18817 157.11891 
L 212.675147 139.99105 
" clip-path="url(#p910ebed5ac)" style="fill: #9acd32; stroke: #9acd32; stroke-width: 2.351475"/>
    <path d="M 193.153661 180.10507 
L 208.453969 140.287284 
" clip-path="url(#p910ebed5ac)" style="fill: #d3d3d3; stroke: #d3d3d3; stroke-width: 1.866226"/>
    <path d="M 335.253224 106.533138 
L 347.320374 130.776741 
" clip-path="url(#p910ebed5ac)" style="fill: #9acd32; stroke: #9acd32; stroke-width: 3.280773"/>
    <path d="M 317.821154 161.599092 
L 345.70171 138.447158 
" clip-path="url(#p910ebed5ac)" style="fill: #9acd32; stroke: #9acd32; stroke-width: 2.215158"/>
    <path d="M 379.884156 106.536994 
L 353.179519 131.81565 
" clip-path="url(#p910ebed5ac)" style="fill: #9acd32; stroke: #9acd32; stroke-width: 3.381994"/>
    <path d="M 359.863326 169.715138 
L 350.982081 140.042943 
" clip-path="url(#p910ebed5ac)" style="fill: #9acd32; stroke: #9acd32; stroke-width: 3.356053"/>
    <path d="M 224.913258 123.772233 
L 181.088545 150.04074 
" clip-path="url(#p910ebed5ac)" style="fill: #9acd32; stroke: #9acd32; stroke-width: 2.120549"/>
    <path d="M 186.066777 199.58465 
L 177.767685 157.516778 
" clip-path="url(#p910ebed5ac)" style="fill: #d3d3d3; stroke: #d3d3d3; stroke-width: 2.30468"/>
    <path d="M 238.621524 199.936805 
L 214.769658 170.948255 
" clip-path="url(#p910ebed5ac)" style="fill: #add8e6; stroke: #add8e6; stroke-width: 2.00763"/>
    <path d="M 227.410441 125.869713 
L 213.384211 162.419163 
" clip-path="url(#p910ebed5ac)" style="fill: #d3d3d3; stroke: #d3d3d3; stroke-width: 2.37233"/>
    <path d="M 189.778787 200.310512 
L 208.848524 171.266819 
" clip-path="url(#p910ebed5ac)" style="fill: #add8e6; stroke: #add8e6; stroke-width: 2.326043"/>
    <path d="M 193.880484 219.69745 
L 263.561061 203.581142 
" clip-path="url(#p910ebed5ac)" style="fill: #add8e6; stroke: #add8e6; stroke-width: 1.531536"/>
    <path d="M 220.308998 199.173041 
L 263.444045 202.114297 
" clip-path="url(#p910ebed5ac)" style="fill: #add8e6; stroke: #add8e6; stroke-width: 1.871821"/>
    <path d="M 310.121328 167.979733 
L 272.285633 199.268054 
" clip-path="url(#p910ebed5ac)" style="fill: #d3d3d3; stroke: #d3d3d3; stroke-width: 1.598169"/>
    <path d="M 336.731377 206.872491 
L 273.422034 202.777203 
" clip-path="url(#p910ebed5ac)" style="fill: #d3d3d3; stroke: #d3d3d3; stroke-width: 1.546796"/>
    <path d="M 328.441063 104.053318 
L 298.057519 117.28495 
" clip-path="url(#p910ebed5ac)" style="fill: #9acd32; stroke: #9acd32; stroke-width: 3.15412"/>
    <path d="M 234.199628 121.052322 
L 288.47558 119.430622 
" clip-path="url(#p910ebed5ac)" style="fill: #9acd32; stroke: #9acd32; stroke-width: 2.954222"/>
    <path d="M 309.493861 148.73714 
L 295.862286 123.673672 
" clip-path="url(#p910ebed5ac)" style="fill: #9acd32; stroke: #9acd32; stroke-width: 2.326043"/>
    <path d="M 344.739619 133.883251 
L 298.282097 120.65095 
" clip-path="url(#p910ebed5ac)" style="fill: #9acd32; stroke: #9acd32; stroke-width: 2.510682"/>
    <path d="M 286.315791 283.226575 
L 248.000707 274.738988 
" clip-path="url(#p910ebed5ac)" style="fill: #add8e6; stroke: #add8e6; stroke-width: 3.133266"/>
    <path d="M 275.706377 190.996889 
L 268.259908 222.604116 
" clip-path="url(#p910ebed5ac)" style="fill: #add8e6; stroke: #add8e6; stroke-width: 2.250254"/>
    <path d="M 268.169174 207.447506 
L 267.376617 222.477813 
" clip-path="url(#p910ebed5ac)" style="fill: #add8e6; stroke: #add8e6; stroke-width: 2.040692"/>
    <path d="M 226.124312 117.261001 
L 205.000621 90.213154 
" clip-path="url(#p910ebed5ac)" style="fill: #9acd32; stroke: #9acd32; stroke-width: 2.392167"/>
    <path d="M 187.177208 209.488067 
L 188.283162 248.225953 
" clip-path="url(#p910ebed5ac)" style="fill: #add8e6; stroke: #add8e6; stroke-width: 2.30468"/>
    <path d="M 238.435258 271.907709 
L 193.109642 254.973806 
" clip-path="url(#p910ebed5ac)" style="fill: #add8e6; stroke: #add8e6; stroke-width: 3.178535"/>
    <path d="M 378.944537 101.072908 
L 333.727738 81.022292 
" clip-path="url(#p910ebed5ac)" style="fill: #9acd32; stroke: #9acd32; stroke-width: 2.532553"/>
    <path d="M 206.235465 132.635993 
L 167.838533 104.077134 
" clip-path="url(#p910ebed5ac)" style="fill: #9acd32; stroke: #9acd32; stroke-width: 3.447609"/>
    <path d="M 237.222142 149.316507 
L 188.534042 127.203006 
" clip-path="url(#p910ebed5ac)" style="fill: #d3d3d3; stroke: #d3d3d3; stroke-width: 2.677518"/>
    <path d="M 224.22067 121.634961 
L 188.962784 124.702032 
" clip-path="url(#p910ebed5ac)" style="fill: #9acd32; stroke: #9acd32; stroke-width: 3.164802"/>
    <path d="M 149.836546 140.659767 
L 179.429961 127.204795 
" clip-path="url(#p910ebed5ac)" style="fill: #9acd32; stroke: #9acd32; stroke-width: 2.34588"/>
    <path d="M 178.064362 147.773841 
L 182.717177 129.972827 
" clip-path="url(#p910ebed5ac)" style="fill: #9acd32; stroke: #9acd32; stroke-width: 2.949135"/>
    <path d="M 345.510313 210.457263 
L 364.940866 227.183732 
" clip-path="url(#p910ebed5ac)" style="fill: #9acd32; stroke: #9acd32; stroke-width: 2.368769"/>
    <path d="M 291.69136 279.332419 
L 294.360271 252.446356 
" clip-path="url(#p910ebed5ac)" style="fill: #add8e6; stroke: #add8e6; stroke-width: 3.081892"/>
    <path d="M 301.884122 195.392352 
L 295.523052 242.515751 
" clip-path="url(#p910ebed5ac)" style="fill: #add8e6; stroke: #add8e6; stroke-width: 2.775687"/>
    <path d="M 247.580119 271.399537 
L 290.39311 249.728872 
" clip-path="url(#p910ebed5ac)" style="fill: #add8e6; stroke: #add8e6; stroke-width: 1.764496"/>
    <path d="M 246.727957 204.634111 
L 297.722994 213.285196 
" clip-path="url(#p910ebed5ac)" style="fill: #d3d3d3; stroke: #d3d3d3; stroke-width: 1.583418"/>
    <path d="M 336.797718 208.068065 
L 307.575792 213.248663 
" clip-path="url(#p910ebed5ac)" style="fill: #9acd32; stroke: #9acd32; stroke-width: 3.377416"/>
    <path d="M 280.241621 189.806669 
L 299.263896 210.444935 
" clip-path="url(#p910ebed5ac)" style="fill: #d3d3d3; stroke: #d3d3d3; stroke-width: 1.68413"/>
    <path d="M 182.186442 205.713279 
L 135.884844 217.395223 
" clip-path="url(#p910ebed5ac)" style="fill: #add8e6; stroke: #add8e6; stroke-width: 3.283825"/>
    <path d="M 93.801361 219.978049 
L 126.040097 218.800851 
" clip-path="url(#p910ebed5ac)" style="fill: #add8e6; stroke: #add8e6; stroke-width: 2.059003"/>
    <path d="M 306.308878 217.531952 
L 339.830181 248.799371 
" clip-path="url(#p910ebed5ac)" style="fill: #9acd32; stroke: #9acd32; stroke-width: 2.535097"/>
    <path d="M 246.579688 205.260427 
L 301.0169 221.912726 
" clip-path="url(#p910ebed5ac)" style="fill: #add8e6; stroke: #add8e6; stroke-width: 3.395219"/>
    <path d="M 303.043242 195.413201 
L 305.307949 218.399414 
" clip-path="url(#p910ebed5ac)" style="fill: #add8e6; stroke: #add8e6; stroke-width: 2.444049"/>
    <path d="M 363.761491 229.887505 
L 310.766938 223.93356 
" clip-path="url(#p910ebed5ac)" style="fill: #d3d3d3; stroke: #d3d3d3; stroke-width: 1.690234"/>
    <path d="M 216.487972 168.10567 
L 243.665894 173.760039 
" clip-path="url(#p910ebed5ac)" style="fill: #add8e6; stroke: #add8e6; stroke-width: 3.460834"/>
    <path d="M 265.516286 198.392927 
L 251.477249 178.839998 
" clip-path="url(#p910ebed5ac)" style="fill: #add8e6; stroke: #add8e6; stroke-width: 1.598169"/>
    <path d="M 308.409161 139.969937 
L 371.785102 135.225793 
" clip-path="url(#p910ebed5ac)" style="fill: #9acd32; stroke: #9acd32; stroke-width: 2.427263"/>
    <path d="M 227.805161 223.119104 
L 208.448077 233.575944 
" clip-path="url(#p910ebed5ac)" style="fill: #add8e6; stroke: #add8e6; stroke-width: 1.865209"/>
    <path d="M 192.563408 189.625432 
L 202.845742 231.09932 
" clip-path="url(#p910ebed5ac)" style="fill: #add8e6; stroke: #add8e6; stroke-width: 2.102238"/>
    <path d="M 262.157944 228.137325 
L 209.004317 235.285946 
" clip-path="url(#p910ebed5ac)" style="fill: #add8e6; stroke: #add8e6; stroke-width: 1.879451"/>
    <path d="M 298.449993 140.860953 
L 267.324604 144.101561 
" clip-path="url(#p910ebed5ac)" style="fill: #9acd32; stroke: #9acd32; stroke-width: 2.457274"/>
    <path d="M 309.31748 162.973405 
L 267.008504 146.439274 
" clip-path="url(#p910ebed5ac)" style="fill: #9acd32; stroke: #9acd32; stroke-width: 3.531536"/>
    <path d="M 306.955003 152.282853 
L 267.27928 145.466 
" clip-path="url(#p910ebed5ac)" style="fill: #9acd32; stroke: #9acd32; stroke-width: 3.222787"/>
    <path d="M 215.17446 136.47099 
L 257.424436 143.768343 
" clip-path="url(#p910ebed5ac)" style="fill: #9acd32; stroke: #9acd32; stroke-width: 1.998474"/>
    <path d="M 216.164905 165.063422 
L 257.779373 146.643141 
" clip-path="url(#p910ebed5ac)" style="fill: #d3d3d3; stroke: #d3d3d3; stroke-width: 1.666328"/>
    <path d="M 300.721583 136.135835 
L 281.374146 106.004258 
" clip-path="url(#p910ebed5ac)" style="fill: #9acd32; stroke: #9acd32; stroke-width: 2.282808"/>
    <path d="M 328.02529 102.03305 
L 283.67256 101.820837 
" clip-path="url(#p910ebed5ac)" style="fill: #9acd32; stroke: #9acd32; stroke-width: 2.038149"/>
    <path d="M 233.856583 119.375849 
L 274.017894 103.622713 
" clip-path="url(#p910ebed5ac)" style="fill: #9acd32; stroke: #9acd32; stroke-width: 2.828077"/>
    <path d="M 270.662736 69.600139 
L 277.465516 96.94481 
" clip-path="url(#p910ebed5ac)" style="fill: #9acd32; stroke: #9acd32; stroke-width: 1.843845"/>
    <path d="M 324.600183 81.053551 
L 283.229401 99.738825 
" clip-path="url(#p910ebed5ac)" style="fill: #9acd32; stroke: #9acd32; stroke-width: 3.503561"/>
    <path d="M 185.545389 217.218206 
L 155.423128 185.858874 
" clip-path="url(#p910ebed5ac)" style="fill: #add8e6; stroke: #add8e6; stroke-width: 2.539166"/>
    <path d="M 137.95743 194.769673 
L 148.231723 185.585225 
" clip-path="url(#p910ebed5ac)" style="fill: #add8e6; stroke: #add8e6; stroke-width: 2.598169"/>
    <path d="M 112.567208 169.244049 
L 147.211629 180.685017 
" clip-path="url(#p910ebed5ac)" style="fill: #add8e6; stroke: #add8e6; stroke-width: 3.256867"/>
    <path d="M 206.747041 168.319579 
L 156.805185 181.02058 
" clip-path="url(#p910ebed5ac)" style="fill: #add8e6; stroke: #add8e6; stroke-width: 2.510173"/>
    <path d="M 133.530244 214.284511 
L 149.465956 186.586818 
" clip-path="url(#p910ebed5ac)" style="fill: #add8e6; stroke: #add8e6; stroke-width: 2.231943"/>
   </g>
   <g id="VertexCollection_1">
    <path d="M 189.009083 225.824148 
C 190.335099 225.824148 191.606982 225.297317 192.544617 224.359682 
C 193.482252 223.422048 194.009083 222.150164 194.009083 220.824148 
C 194.009083 219.498133 193.482252 218.226249 192.544617 217.288614 
C 191.606982 216.35098 190.335099 215.824148 189.009083 215.824148 
C 187.683068 215.824148 186.411184 216.35098 185.473549 217.288614 
C 184.535915 218.226249 184.009083 219.498133 184.009083 220.824148 
C 184.009083 222.150164 184.535915 223.422048 185.473549 224.359682 
C 186.411184 225.297317 187.683068 225.824148 189.009083 225.824148 
z
" clip-path="url(#p910ebed5ac)" style="fill: #add8e6; stroke: #000000"/>
    <path d="M 303.423112 145.343179 
C 304.749127 145.343179 306.021011 144.816348 306.958645 143.878713 
C 307.89628 142.941078 308.423112 141.669195 308.423112 140.343179 
C 308.423112 139.017164 307.89628 137.74528 306.958645 136.807645 
C 306.021011 135.870011 304.749127 135.343179 303.423112 135.343179 
C 302.097096 135.343179 300.825212 135.870011 299.887578 136.807645 
C 298.949943 137.74528 298.423112 139.017164 298.423112 140.343179 
C 298.423112 141.669195 298.949943 142.941078 299.887578 143.878713 
C 300.825212 144.816348 302.097096 145.343179 303.423112 145.343179 
z
" clip-path="url(#p910ebed5ac)" style="fill: #9acd32; stroke: #000000"/>
    <path d="M 241.798389 208.797832 
C 243.124405 208.797832 244.396288 208.271 245.333923 207.333366 
C 246.271558 206.395731 246.798389 205.123847 246.798389 203.797832 
C 246.798389 202.471816 246.271558 201.199932 245.333923 200.262298 
C 244.396288 199.324663 243.124405 198.797832 241.798389 198.797832 
C 240.472374 198.797832 239.20049 199.324663 238.262855 200.262298 
C 237.325221 201.199932 236.798389 202.471816 236.798389 203.797832 
C 236.798389 205.123847 237.325221 206.395731 238.262855 207.333366 
C 239.20049 208.271 240.472374 208.797832 241.798389 208.797832 
z
" clip-path="url(#p910ebed5ac)" style="fill: #add8e6; stroke: #000000"/>
    <path d="M 333.025232 107.056974 
C 334.351248 107.056974 335.623132 106.530142 336.560766 105.592507 
C 337.498401 104.654873 338.025232 103.382989 338.025232 102.056974 
C 338.025232 100.730958 337.498401 99.459074 336.560766 98.52144 
C 335.623132 97.583805 334.351248 97.056974 333.025232 97.056974 
C 331.699217 97.056974 330.427333 97.583805 329.489699 98.52144 
C 328.552064 99.459074 328.025232 100.730958 328.025232 102.056974 
C 328.025232 103.382989 328.552064 104.654873 329.489699 105.592507 
C 330.427333 106.530142 331.699217 107.056974 333.025232 107.056974 
z
" clip-path="url(#p910ebed5ac)" style="fill: #9acd32; stroke: #000000"/>
    <path d="M 241.774589 156.384169 
C 243.100604 156.384169 244.372488 155.857338 245.310123 154.919703 
C 246.247757 153.982068 246.774589 152.710185 246.774589 151.384169 
C 246.774589 150.058154 246.247757 148.78627 245.310123 147.848635 
C 244.372488 146.911001 243.100604 146.384169 241.774589 146.384169 
C 240.448573 146.384169 239.17669 146.911001 238.239055 147.848635 
C 237.30142 148.78627 236.774589 150.058154 236.774589 151.384169 
C 236.774589 152.710185 237.30142 153.982068 238.239055 154.919703 
C 239.17669 155.857338 240.448573 156.384169 241.774589 156.384169 
z
" clip-path="url(#p910ebed5ac)" style="fill: #add8e6; stroke: #000000"/>
    <path d="M 229.201859 126.201649 
C 230.527874 126.201649 231.799758 125.674817 232.737392 124.737183 
C 233.675027 123.799548 234.201859 122.527664 234.201859 121.201649 
C 234.201859 119.875633 233.675027 118.60375 232.737392 117.666115 
C 231.799758 116.72848 230.527874 116.201649 229.201859 116.201649 
C 227.875843 116.201649 226.603959 116.72848 225.666325 117.666115 
C 224.72869 118.60375 224.201859 119.875633 224.201859 121.201649 
C 224.201859 122.527664 224.72869 123.799548 225.666325 124.737183 
C 226.603959 125.674817 227.875843 126.201649 229.201859 126.201649 
z
" clip-path="url(#p910ebed5ac)" style="fill: #9acd32; stroke: #000000"/>
    <path d="M 215.320581 203.832895 
C 216.646597 203.832895 217.918481 203.306063 218.856115 202.368429 
C 219.79375 201.430794 220.320581 200.15891 220.320581 198.832895 
C 220.320581 197.506879 219.79375 196.234995 218.856115 195.297361 
C 217.918481 194.359726 216.646597 193.832895 215.320581 193.832895 
C 213.994566 193.832895 212.722682 194.359726 211.785047 195.297361 
C 210.847413 196.234995 210.320581 197.506879 210.320581 198.832895 
C 210.320581 200.15891 210.847413 201.430794 211.785047 202.368429 
C 212.722682 203.306063 213.994566 203.832895 215.320581 203.832895 
z
" clip-path="url(#p910ebed5ac)" style="fill: #add8e6; stroke: #000000"/>
    <path d="M 313.974499 169.793344 
C 315.300515 169.793344 316.572398 169.266512 317.510033 168.328878 
C 318.447668 167.391243 318.974499 166.119359 318.974499 164.793344 
C 318.974499 163.467328 318.447668 162.195444 317.510033 161.25781 
C 316.572398 160.320175 315.300515 159.793344 313.974499 159.793344 
C 312.648484 159.793344 311.3766 160.320175 310.438965 161.25781 
C 309.501331 162.195444 308.974499 163.467328 308.974499 164.793344 
C 308.974499 166.119359 309.501331 167.391243 310.438965 168.328878 
C 311.3766 169.266512 312.648484 169.793344 313.974499 169.793344 
z
" clip-path="url(#p910ebed5ac)" style="fill: #9acd32; stroke: #000000"/>
    <path d="M 269.455634 69.748036 
C 270.78165 69.748036 272.053534 69.221204 272.991168 68.28357 
C 273.928803 67.345935 274.455634 66.074051 274.455634 64.748036 
C 274.455634 63.42202 273.928803 62.150136 272.991168 61.212502 
C 272.053534 60.274867 270.78165 59.748036 269.455634 59.748036 
C 268.129619 59.748036 266.857735 60.274867 265.920101 61.212502 
C 264.982466 62.150136 264.455634 63.42202 264.455634 64.748036 
C 264.455634 66.074051 264.982466 67.345935 265.920101 68.28357 
C 266.857735 69.221204 268.129619 69.748036 269.455634 69.748036 
z
" clip-path="url(#p910ebed5ac)" style="fill: #9acd32; stroke: #000000"/>
    <path d="M 341.720949 212.195252 
C 343.046964 212.195252 344.318848 211.66842 345.256482 210.730786 
C 346.194117 209.793151 346.720949 208.521267 346.720949 207.195252 
C 346.720949 205.869236 346.194117 204.597352 345.256482 203.659718 
C 344.318848 202.722083 343.046964 202.195252 341.720949 202.195252 
C 340.394933 202.195252 339.123049 202.722083 338.185415 203.659718 
C 337.24778 204.597352 336.720949 205.869236 336.720949 207.195252 
C 336.720949 208.521267 337.24778 209.793151 338.185415 210.730786 
C 339.123049 211.66842 340.394933 212.195252 341.720949 212.195252 
z
" clip-path="url(#p910ebed5ac)" style="fill: #9acd32; stroke: #000000"/>
    <path d="M 134.22972 203.101967 
C 135.555735 203.101967 136.827619 202.575135 137.765254 201.637501 
C 138.702888 200.699866 139.22972 199.427982 139.22972 198.101967 
C 139.22972 196.775951 138.702888 195.504067 137.765254 194.566433 
C 136.827619 193.628798 135.555735 193.101967 134.22972 193.101967 
C 132.903704 193.101967 131.631821 193.628798 130.694186 194.566433 
C 129.756551 195.504067 129.22972 196.775951 129.22972 198.101967 
C 129.22972 199.427982 129.756551 200.699866 130.694186 201.637501 
C 131.631821 202.575135 132.903704 203.101967 134.22972 203.101967 
z
" clip-path="url(#p910ebed5ac)" style="fill: #add8e6; stroke: #000000"/>
    <path d="M 145.284912 147.729218 
C 146.610927 147.729218 147.882811 147.202386 148.820446 146.264752 
C 149.75808 145.327117 150.284912 144.055233 150.284912 142.729218 
C 150.284912 141.403202 149.75808 140.131319 148.820446 139.193684 
C 147.882811 138.256049 146.610927 137.729218 145.284912 137.729218 
C 143.958896 137.729218 142.687012 138.256049 141.749378 139.193684 
C 140.811743 140.131319 140.284912 141.403202 140.284912 142.729218 
C 140.284912 144.055233 140.811743 145.327117 141.749378 146.264752 
C 142.687012 147.202386 143.958896 147.729218 145.284912 147.729218 
z
" clip-path="url(#p910ebed5ac)" style="fill: #9acd32; stroke: #000000"/>
    <path d="M 232.204307 225.742654 
C 233.530322 225.742654 234.802206 225.215822 235.739841 224.278187 
C 236.677475 223.340553 237.204307 222.068669 237.204307 220.742654 
C 237.204307 219.416638 236.677475 218.144754 235.739841 217.20712 
C 234.802206 216.269485 233.530322 215.742654 232.204307 215.742654 
C 230.878291 215.742654 229.606408 216.269485 228.668773 217.20712 
C 227.731138 218.144754 227.204307 219.416638 227.204307 220.742654 
C 227.204307 222.068669 227.731138 223.340553 228.668773 224.278187 
C 229.606408 225.215822 230.878291 225.742654 232.204307 225.742654 
z
" clip-path="url(#p910ebed5ac)" style="fill: #add8e6; stroke: #000000"/>
    <path d="M 187.034518 209.490104 
C 188.360533 209.490104 189.632417 208.963272 190.570052 208.025638 
C 191.507686 207.088003 192.034518 205.816119 192.034518 204.490104 
C 192.034518 203.164088 191.507686 201.892204 190.570052 200.95457 
C 189.632417 200.016935 188.360533 199.490104 187.034518 199.490104 
C 185.708502 199.490104 184.436619 200.016935 183.498984 200.95457 
C 182.561349 201.892204 182.034518 203.164088 182.034518 204.490104 
C 182.034518 205.816119 182.561349 207.088003 183.498984 208.025638 
C 184.436619 208.963272 185.708502 209.490104 187.034518 209.490104 
z
" clip-path="url(#p910ebed5ac)" style="fill: #add8e6; stroke: #000000"/>
    <path d="M 383.515309 108.099739 
C 384.841325 108.099739 386.113208 107.572907 387.050843 106.635273 
C 387.988477 105.697638 388.515309 104.425754 388.515309 103.099739 
C 388.515309 101.773723 387.988477 100.501839 387.050843 99.564205 
C 386.113208 98.62657 384.841325 98.099739 383.515309 98.099739 
C 382.189294 98.099739 380.91741 98.62657 379.979775 99.564205 
C 379.042141 100.501839 378.515309 101.773723 378.515309 103.099739 
C 378.515309 104.425754 379.042141 105.697638 379.979775 106.635273 
C 380.91741 107.572907 382.189294 108.099739 383.515309 108.099739 
z
" clip-path="url(#p910ebed5ac)" style="fill: #9acd32; stroke: #000000"/>
    <path d="M 107.819403 172.676135 
C 109.145419 172.676135 110.417303 172.149303 111.354937 171.211669 
C 112.292572 170.274034 112.819403 169.00215 112.819403 167.676135 
C 112.819403 166.350119 112.292572 165.078235 111.354937 164.140601 
C 110.417303 163.202966 109.145419 162.676135 107.819403 162.676135 
C 106.493388 162.676135 105.221504 163.202966 104.28387 164.140601 
C 103.346235 165.078235 102.819403 166.350119 102.819403 167.676135 
C 102.819403 169.00215 103.346235 170.274034 104.28387 171.211669 
C 105.221504 172.149303 106.493388 172.676135 107.819403 172.676135 
z
" clip-path="url(#p910ebed5ac)" style="fill: #add8e6; stroke: #000000"/>
    <path d="M 311.882797 158.129518 
C 313.208813 158.129518 314.480697 157.602686 315.418331 156.665051 
C 316.355966 155.727417 316.882797 154.455533 316.882797 153.129518 
C 316.882797 151.803502 316.355966 150.531618 315.418331 149.593984 
C 314.480697 148.656349 313.208813 148.129518 311.882797 148.129518 
C 310.556782 148.129518 309.284898 148.656349 308.347263 149.593984 
C 307.409629 150.531618 306.882797 151.803502 306.882797 153.129518 
C 306.882797 154.455533 307.409629 155.727417 308.347263 156.665051 
C 309.284898 157.602686 310.556782 158.129518 311.882797 158.129518 
z
" clip-path="url(#p910ebed5ac)" style="fill: #9acd32; stroke: #000000"/>
    <path d="M 361.297042 179.505176 
C 362.623058 179.505176 363.894941 178.978344 364.832576 178.040709 
C 365.770211 177.103075 366.297042 175.831191 366.297042 174.505176 
C 366.297042 173.17916 365.770211 171.907276 364.832576 170.969642 
C 363.894941 170.032007 362.623058 169.505176 361.297042 169.505176 
C 359.971027 169.505176 358.699143 170.032007 357.761508 170.969642 
C 356.823874 171.907276 356.297042 173.17916 356.297042 174.505176 
C 356.297042 175.831191 356.823874 177.103075 357.761508 178.040709 
C 358.699143 178.978344 359.971027 179.505176 361.297042 179.505176 
z
" clip-path="url(#p910ebed5ac)" style="fill: #9acd32; stroke: #000000"/>
    <path d="M 224.615906 166.489962 
C 225.941922 166.489962 227.213806 165.963131 228.15144 165.025496 
C 229.089075 164.087861 229.615906 162.815978 229.615906 161.489962 
C 229.615906 160.163947 229.089075 158.892063 228.15144 157.954428 
C 227.213806 157.016794 225.941922 156.489962 224.615906 156.489962 
C 223.289891 156.489962 222.018007 157.016794 221.080372 157.954428 
C 220.142738 158.892063 219.615906 160.163947 219.615906 161.489962 
C 219.615906 162.815978 220.142738 164.087861 221.080372 165.025496 
C 222.018007 165.963131 223.289891 166.489962 224.615906 166.489962 
z
" clip-path="url(#p910ebed5ac)" style="fill: #9acd32; stroke: #000000"/>
    <path d="M 276.852956 191.130128 
C 278.178972 191.130128 279.450856 190.603297 280.38849 189.665662 
C 281.326125 188.728028 281.852956 187.456144 281.852956 186.130128 
C 281.852956 184.804113 281.326125 183.532229 280.38849 182.594594 
C 279.450856 181.65696 278.178972 181.130128 276.852956 181.130128 
C 275.526941 181.130128 274.255057 181.65696 273.317422 182.594594 
C 272.379788 183.532229 271.852956 184.804113 271.852956 186.130128 
C 271.852956 187.456144 272.379788 188.728028 273.317422 189.665662 
C 274.255057 190.603297 275.526941 191.130128 276.852956 191.130128 
z
" clip-path="url(#p910ebed5ac)" style="fill: #add8e6; stroke: #000000"/>
    <path d="M 88.804691 225.160502 
C 90.130706 225.160502 91.40259 224.633671 92.340225 223.696036 
C 93.277859 222.758402 93.804691 221.486518 93.804691 220.160502 
C 93.804691 218.834487 93.277859 217.562603 92.340225 216.624968 
C 91.40259 215.687334 90.130706 215.160502 88.804691 215.160502 
C 87.478675 215.160502 86.206792 215.687334 85.269157 216.624968 
C 84.331523 217.562603 83.804691 218.834487 83.804691 220.160502 
C 83.804691 221.486518 84.331523 222.758402 85.269157 223.696036 
C 86.206792 224.633671 87.478675 225.160502 88.804691 225.160502 
z
" clip-path="url(#p910ebed5ac)" style="fill: #add8e6; stroke: #000000"/>
    <path d="M 291.19745 289.307964 
C 292.523466 289.307964 293.79535 288.781133 294.732984 287.843498 
C 295.670619 286.905864 296.19745 285.63398 296.19745 284.307964 
C 296.19745 282.981949 295.670619 281.710065 294.732984 280.77243 
C 293.79535 279.834796 292.523466 279.307964 291.19745 279.307964 
C 289.871435 279.307964 288.599551 279.834796 287.661916 280.77243 
C 286.724282 281.710065 286.19745 282.981949 286.19745 284.307964 
C 286.19745 285.63398 286.724282 286.905864 287.661916 287.843498 
C 288.599551 288.781133 289.871435 289.307964 291.19745 289.307964 
z
" clip-path="url(#p910ebed5ac)" style="fill: #add8e6; stroke: #000000"/>
    <path d="M 191.360218 189.772357 
C 192.686234 189.772357 193.958118 189.245525 194.895752 188.307891 
C 195.833387 187.370256 196.360218 186.098372 196.360218 184.772357 
C 196.360218 183.446341 195.833387 182.174457 194.895752 181.236823 
C 193.958118 180.299188 192.686234 179.772357 191.360218 179.772357 
C 190.034203 179.772357 188.762319 180.299188 187.824685 181.236823 
C 186.88705 182.174457 186.360218 183.446341 186.360218 184.772357 
C 186.360218 186.098372 186.88705 187.370256 187.824685 188.307891 
C 188.762319 189.245525 190.034203 189.772357 191.360218 189.772357 
z
" clip-path="url(#p910ebed5ac)" style="fill: #add8e6; stroke: #000000"/>
    <path d="M 355.199969 200.240226 
C 356.525985 200.240226 357.797869 199.713395 358.735503 198.77576 
C 359.673138 197.838126 360.199969 196.566242 360.199969 195.240226 
C 360.199969 193.914211 359.673138 192.642327 358.735503 191.704693 
C 357.797869 190.767058 356.525985 190.240226 355.199969 190.240226 
C 353.873954 190.240226 352.60207 190.767058 351.664435 191.704693 
C 350.726801 192.642327 350.199969 193.914211 350.199969 195.240226 
C 350.199969 196.566242 350.726801 197.838126 351.664435 198.77576 
C 352.60207 199.713395 353.873954 200.240226 355.199969 200.240226 
z
" clip-path="url(#p910ebed5ac)" style="fill: #add8e6; stroke: #000000"/>
    <path d="M 302.552993 195.437293 
C 303.879008 195.437293 305.150892 194.910462 306.088526 193.972827 
C 307.026161 193.035193 307.552993 191.763309 307.552993 190.437293 
C 307.552993 189.111278 307.026161 187.839394 306.088526 186.901759 
C 305.150892 185.964125 303.879008 185.437293 302.552993 185.437293 
C 301.226977 185.437293 299.955093 185.964125 299.017459 186.901759 
C 298.079824 187.839394 297.552993 189.111278 297.552993 190.437293 
C 297.552993 191.763309 298.079824 193.035193 299.017459 193.972827 
C 299.955093 194.910462 301.226977 195.437293 302.552993 195.437293 
z
" clip-path="url(#p910ebed5ac)" style="fill: #add8e6; stroke: #000000"/>
    <path d="M 210.247411 140.619998 
C 211.573427 140.619998 212.845311 140.093166 213.782945 139.155532 
C 214.72058 138.217897 215.247411 136.946013 215.247411 135.619998 
C 215.247411 134.293982 214.72058 133.022098 213.782945 132.084464 
C 212.845311 131.146829 211.573427 130.619998 210.247411 130.619998 
C 208.921396 130.619998 207.649512 131.146829 206.711877 132.084464 
C 205.774243 133.022098 205.247411 134.293982 205.247411 135.619998 
C 205.247411 136.946013 205.774243 138.217897 206.711877 139.155532 
C 207.649512 140.093166 208.921396 140.619998 210.247411 140.619998 
z
" clip-path="url(#p910ebed5ac)" style="fill: #9acd32; stroke: #000000"/>
    <path d="M 349.548366 140.252906 
C 350.874381 140.252906 352.146265 139.726074 353.083899 138.78844 
C 354.021534 137.850805 354.548366 136.578921 354.548366 135.252906 
C 354.548366 133.92689 354.021534 132.655007 353.083899 131.717372 
C 352.146265 130.779738 350.874381 130.252906 349.548366 130.252906 
C 348.22235 130.252906 346.950466 130.779738 346.012832 131.717372 
C 345.075197 132.655007 344.548366 133.92689 344.548366 135.252906 
C 344.548366 136.578921 345.075197 137.850805 346.012832 138.78844 
C 346.950466 139.726074 348.22235 140.252906 349.548366 140.252906 
z
" clip-path="url(#p910ebed5ac)" style="fill: #9acd32; stroke: #000000"/>
    <path d="M 176.799944 157.611324 
C 178.12596 157.611324 179.397844 157.084493 180.335478 156.146858 
C 181.273113 155.209224 181.799944 153.93734 181.799944 152.611324 
C 181.799944 151.285309 181.273113 150.013425 180.335478 149.075791 
C 179.397844 148.138156 178.12596 147.611324 176.799944 147.611324 
C 175.473929 147.611324 174.202045 148.138156 173.26441 149.075791 
C 172.326776 150.013425 171.799944 151.285309 171.799944 152.611324 
C 171.799944 153.93734 172.326776 155.209224 173.26441 156.146858 
C 174.202045 157.084493 175.473929 157.611324 176.799944 157.611324 
z
" clip-path="url(#p910ebed5ac)" style="fill: #9acd32; stroke: #000000"/>
    <path d="M 211.592793 172.087227 
C 212.918808 172.087227 214.190692 171.560396 215.128327 170.622761 
C 216.065961 169.685127 216.592793 168.413243 216.592793 167.087227 
C 216.592793 165.761212 216.065961 164.489328 215.128327 163.551694 
C 214.190692 162.614059 212.918808 162.087227 211.592793 162.087227 
C 210.266777 162.087227 208.994893 162.614059 208.057259 163.551694 
C 207.119624 164.489328 206.592793 165.761212 206.592793 167.087227 
C 206.592793 168.413243 207.119624 169.685127 208.057259 170.622761 
C 208.994893 171.560396 210.266777 172.087227 211.592793 172.087227 
z
" clip-path="url(#p910ebed5ac)" style="fill: #add8e6; stroke: #000000"/>
    <path d="M 268.432462 207.454443 
C 269.758477 207.454443 271.030361 206.927612 271.967996 205.989977 
C 272.90563 205.052343 273.432462 203.780459 273.432462 202.454443 
C 273.432462 201.128428 272.90563 199.856544 271.967996 198.918909 
C 271.030361 197.981275 269.758477 197.454443 268.432462 197.454443 
C 267.106446 197.454443 265.834563 197.981275 264.896928 198.918909 
C 263.959293 199.856544 263.432462 201.128428 263.432462 202.454443 
C 263.432462 203.780459 263.959293 205.052343 264.896928 205.989977 
C 265.834563 206.927612 267.106446 207.454443 268.432462 207.454443 
z
" clip-path="url(#p910ebed5ac)" style="fill: #add8e6; stroke: #000000"/>
    <path d="M 293.47335 124.281295 
C 294.799365 124.281295 296.071249 123.754463 297.008884 122.816828 
C 297.946518 121.879194 298.47335 120.60731 298.47335 119.281295 
C 298.47335 117.955279 297.946518 116.683395 297.008884 115.745761 
C 296.071249 114.808126 294.799365 114.281295 293.47335 114.281295 
C 292.147334 114.281295 290.875451 114.808126 289.937816 115.745761 
C 289.000182 116.683395 288.47335 117.955279 288.47335 119.281295 
C 288.47335 120.60731 289.000182 121.879194 289.937816 122.816828 
C 290.875451 123.754463 292.147334 124.281295 293.47335 124.281295 
z
" clip-path="url(#p910ebed5ac)" style="fill: #9acd32; stroke: #000000"/>
    <path d="M 243.119048 278.657599 
C 244.445063 278.657599 245.716947 278.130767 246.654582 277.193132 
C 247.592216 276.255498 248.119048 274.983614 248.119048 273.657599 
C 248.119048 272.331583 247.592216 271.059699 246.654582 270.122065 
C 245.716947 269.18443 244.445063 268.657599 243.119048 268.657599 
C 241.793032 268.657599 240.521148 269.18443 239.583514 270.122065 
C 238.645879 271.059699 238.119048 272.331583 238.119048 273.657599 
C 238.119048 274.983614 238.645879 276.255498 239.583514 277.193132 
C 240.521148 278.130767 241.793032 278.657599 243.119048 278.657599 
z
" clip-path="url(#p910ebed5ac)" style="fill: #add8e6; stroke: #000000"/>
    <path d="M 267.113329 232.470876 
C 268.439345 232.470876 269.711229 231.944044 270.648863 231.00641 
C 271.586498 230.068775 272.113329 228.796891 272.113329 227.470876 
C 272.113329 226.14486 271.586498 224.872977 270.648863 223.935342 
C 269.711229 222.997707 268.439345 222.470876 267.113329 222.470876 
C 265.787314 222.470876 264.51543 222.997707 263.577795 223.935342 
C 262.640161 224.872977 262.113329 226.14486 262.113329 227.470876 
C 262.113329 228.796891 262.640161 230.068775 263.577795 231.00641 
C 264.51543 231.944044 265.787314 232.470876 267.113329 232.470876 
z
" clip-path="url(#p910ebed5ac)" style="fill: #add8e6; stroke: #000000"/>
    <path d="M 201.923074 91.272506 
C 203.24909 91.272506 204.520973 90.745674 205.458608 89.80804 
C 206.396243 88.870405 206.923074 87.598521 206.923074 86.272506 
C 206.923074 84.94649 206.396243 83.674606 205.458608 82.736972 
C 204.520973 81.799337 203.24909 81.272506 201.923074 81.272506 
C 200.597059 81.272506 199.325175 81.799337 198.38754 82.736972 
C 197.449906 83.674606 196.923074 84.94649 196.923074 86.272506 
C 196.923074 87.598521 197.449906 88.870405 198.38754 89.80804 
C 199.325175 90.745674 200.597059 91.272506 201.923074 91.272506 
z
" clip-path="url(#p910ebed5ac)" style="fill: #9acd32; stroke: #000000"/>
    <path d="M 188.425853 258.223916 
C 189.751868 258.223916 191.023752 257.697085 191.961386 256.75945 
C 192.899021 255.821815 193.425853 254.549932 193.425853 253.223916 
C 193.425853 251.897901 192.899021 250.626017 191.961386 249.688382 
C 191.023752 248.750748 189.751868 248.223916 188.425853 248.223916 
C 187.099837 248.223916 185.827953 248.750748 184.890319 249.688382 
C 183.952684 250.626017 183.425853 251.897901 183.425853 253.223916 
C 183.425853 254.549932 183.952684 255.821815 184.890319 256.75945 
C 185.827953 257.697085 187.099837 258.223916 188.425853 258.223916 
z
" clip-path="url(#p910ebed5ac)" style="fill: #add8e6; stroke: #000000"/>
    <path d="M 329.156966 83.995462 
C 330.482982 83.995462 331.754866 83.46863 332.6925 82.530996 
C 333.630135 81.593361 334.156966 80.321477 334.156966 78.995462 
C 334.156966 77.669446 333.630135 76.397562 332.6925 75.459928 
C 331.754866 74.522293 330.482982 73.995462 329.156966 73.995462 
C 327.830951 73.995462 326.559067 74.522293 325.621432 75.459928 
C 324.683798 76.397562 324.156966 77.669446 324.156966 78.995462 
C 324.156966 80.321477 324.683798 81.593361 325.621432 82.530996 
C 326.559067 83.46863 327.830951 83.995462 329.156966 83.995462 
z
" clip-path="url(#p910ebed5ac)" style="fill: #9acd32; stroke: #000000"/>
    <path d="M 163.826587 106.093129 
C 165.152602 106.093129 166.424486 105.566298 167.362121 104.628663 
C 168.299755 103.691029 168.826587 102.419145 168.826587 101.093129 
C 168.826587 99.767114 168.299755 98.49523 167.362121 97.557596 
C 166.424486 96.619961 165.152602 96.093129 163.826587 96.093129 
C 162.500571 96.093129 161.228687 96.619961 160.291053 97.557596 
C 159.353418 98.49523 158.826587 99.767114 158.826587 101.093129 
C 158.826587 102.419145 159.353418 103.691029 160.291053 104.628663 
C 161.228687 105.566298 162.500571 106.093129 163.826587 106.093129 
z
" clip-path="url(#p910ebed5ac)" style="fill: #9acd32; stroke: #000000"/>
    <path d="M 183.981595 130.135344 
C 185.307611 130.135344 186.579494 129.608512 187.517129 128.670878 
C 188.454763 127.733243 188.981595 126.461359 188.981595 125.135344 
C 188.981595 123.809328 188.454763 122.537444 187.517129 121.59981 
C 186.579494 120.662175 185.307611 120.135344 183.981595 120.135344 
C 182.65558 120.135344 181.383696 120.662175 180.446061 121.59981 
C 179.508427 122.537444 178.981595 123.809328 178.981595 125.135344 
C 178.981595 126.461359 179.508427 127.733243 180.446061 128.670878 
C 181.383696 129.608512 182.65558 130.135344 183.981595 130.135344 
z
" clip-path="url(#p910ebed5ac)" style="fill: #9acd32; stroke: #000000"/>
    <path d="M 368.730231 235.445743 
C 370.056246 235.445743 371.32813 234.918912 372.265764 233.981277 
C 373.203399 233.043643 373.730231 231.771759 373.730231 230.445743 
C 373.730231 229.119728 373.203399 227.847844 372.265764 226.910209 
C 371.32813 225.972575 370.056246 225.445743 368.730231 225.445743 
C 367.404215 225.445743 366.132331 225.972575 365.194697 226.910209 
C 364.257062 227.847844 363.730231 229.119728 363.730231 230.445743 
C 363.730231 231.771759 364.257062 233.043643 365.194697 233.981277 
C 366.132331 234.918912 367.404215 235.445743 368.730231 235.445743 
z
" clip-path="url(#p910ebed5ac)" style="fill: #9acd32; stroke: #000000"/>
    <path d="M 294.854181 252.47081 
C 296.180196 252.47081 297.45208 251.943979 298.389715 251.006344 
C 299.327349 250.06871 299.854181 248.796826 299.854181 247.47081 
C 299.854181 246.144795 299.327349 244.872911 298.389715 243.935276 
C 297.45208 242.997642 296.180196 242.47081 294.854181 242.47081 
C 293.528165 242.47081 292.256282 242.997642 291.318647 243.935276 
C 290.381013 244.872911 289.854181 246.144795 289.854181 247.47081 
C 289.854181 248.796826 290.381013 250.06871 291.318647 251.006344 
C 292.256282 251.943979 293.528165 252.47081 294.854181 252.47081 
z
" clip-path="url(#p910ebed5ac)" style="fill: #add8e6; stroke: #000000"/>
    <path d="M 302.652561 219.121476 
C 303.978577 219.121476 305.250461 218.594644 306.188095 217.65701 
C 307.12573 216.719375 307.652561 215.447491 307.652561 214.121476 
C 307.652561 212.79546 307.12573 211.523576 306.188095 210.585942 
C 305.250461 209.648307 303.978577 209.121476 302.652561 209.121476 
C 301.326546 209.121476 300.054662 209.648307 299.117027 210.585942 
C 298.179393 211.523576 297.652561 212.79546 297.652561 214.121476 
C 297.652561 215.447491 298.179393 216.719375 299.117027 217.65701 
C 300.054662 218.594644 301.326546 219.121476 302.652561 219.121476 
z
" clip-path="url(#p910ebed5ac)" style="fill: #9acd32; stroke: #000000"/>
    <path d="M 131.036767 223.618398 
C 132.362783 223.618398 133.634667 223.091566 134.572301 222.153932 
C 135.509936 221.216297 136.036767 219.944413 136.036767 218.618398 
C 136.036767 217.292382 135.509936 216.020498 134.572301 215.082864 
C 133.634667 214.145229 132.362783 213.618398 131.036767 213.618398 
C 129.710752 213.618398 128.438868 214.145229 127.501233 215.082864 
C 126.563599 216.020498 126.036767 217.292382 126.036767 218.618398 
C 126.036767 219.944413 126.563599 221.216297 127.501233 222.153932 
C 128.438868 223.091566 129.710752 223.618398 131.036767 223.618398 
z
" clip-path="url(#p910ebed5ac)" style="fill: #add8e6; stroke: #000000"/>
    <path d="M 343.486498 257.209847 
C 344.812513 257.209847 346.084397 256.683016 347.022032 255.745381 
C 347.959666 254.807747 348.486498 253.535863 348.486498 252.209847 
C 348.486498 250.883832 347.959666 249.611948 347.022032 248.674314 
C 346.084397 247.736679 344.812513 247.209847 343.486498 247.209847 
C 342.160482 247.209847 340.888599 247.736679 339.950964 248.674314 
C 339.013329 249.611948 338.486498 250.883832 338.486498 252.209847 
C 338.486498 253.535863 339.013329 254.807747 339.950964 255.745381 
C 340.888599 256.683016 342.160482 257.209847 343.486498 257.209847 
z
" clip-path="url(#p910ebed5ac)" style="fill: #9acd32; stroke: #000000"/>
    <path d="M 305.798198 228.375321 
C 307.124214 228.375321 308.396098 227.84849 309.333732 226.910855 
C 310.271367 225.973221 310.798198 224.701337 310.798198 223.375321 
C 310.798198 222.049306 310.271367 220.777422 309.333732 219.839787 
C 308.396098 218.902153 307.124214 218.375321 305.798198 218.375321 
C 304.472183 218.375321 303.200299 218.902153 302.262664 219.839787 
C 301.32503 220.777422 300.798198 222.049306 300.798198 223.375321 
C 300.798198 224.701337 301.32503 225.973221 302.262664 226.910855 
C 303.200299 227.84849 304.472183 228.375321 305.798198 228.375321 
z
" clip-path="url(#p910ebed5ac)" style="fill: #add8e6; stroke: #000000"/>
    <path d="M 248.561073 179.778482 
C 249.887088 179.778482 251.158972 179.25165 252.096607 178.314016 
C 253.034241 177.376381 253.561073 176.104497 253.561073 174.778482 
C 253.561073 173.452466 253.034241 172.180582 252.096607 171.242948 
C 251.158972 170.305313 249.887088 169.778482 248.561073 169.778482 
C 247.235057 169.778482 245.963174 170.305313 245.025539 171.242948 
C 244.087905 172.180582 243.561073 173.452466 243.561073 174.778482 
C 243.561073 176.104497 244.087905 177.376381 245.025539 178.314016 
C 245.963174 179.25165 247.235057 179.778482 248.561073 179.778482 
z
" clip-path="url(#p910ebed5ac)" style="fill: #add8e6; stroke: #000000"/>
    <path d="M 376.771151 139.852551 
C 378.097167 139.852551 379.369051 139.32572 380.306685 138.388085 
C 381.24432 137.450451 381.771151 136.178567 381.771151 134.852551 
C 381.771151 133.526536 381.24432 132.254652 380.306685 131.317017 
C 379.369051 130.379383 378.097167 129.852551 376.771151 129.852551 
C 375.445136 129.852551 374.173252 130.379383 373.235618 131.317017 
C 372.297983 132.254652 371.771151 133.526536 371.771151 134.852551 
C 371.771151 136.178567 372.297983 137.450451 373.235618 138.388085 
C 374.173252 139.32572 375.445136 139.852551 376.771151 139.852551 
z
" clip-path="url(#p910ebed5ac)" style="fill: #9acd32; stroke: #000000"/>
    <path d="M 204.048932 240.952395 
C 205.374947 240.952395 206.646831 240.425563 207.584466 239.487929 
C 208.5221 238.550294 209.048932 237.27841 209.048932 235.952395 
C 209.048932 234.626379 208.5221 233.354496 207.584466 232.416861 
C 206.646831 231.479226 205.374947 230.952395 204.048932 230.952395 
C 202.722916 230.952395 201.451032 231.479226 200.513398 232.416861 
C 199.575763 233.354496 199.048932 234.626379 199.048932 235.952395 
C 199.048932 237.27841 199.575763 238.550294 200.513398 239.487929 
C 201.451032 240.425563 202.722916 240.952395 204.048932 240.952395 
z
" clip-path="url(#p910ebed5ac)" style="fill: #add8e6; stroke: #000000"/>
    <path d="M 262.351485 149.619335 
C 263.677501 149.619335 264.949384 149.092504 265.887019 148.154869 
C 266.824654 147.217234 267.351485 145.945351 267.351485 144.619335 
C 267.351485 143.29332 266.824654 142.021436 265.887019 141.083801 
C 264.949384 140.146167 263.677501 139.619335 262.351485 139.619335 
C 261.02547 139.619335 259.753586 140.146167 258.815951 141.083801 
C 257.878317 142.021436 257.351485 143.29332 257.351485 144.619335 
C 257.351485 145.945351 257.878317 147.217234 258.815951 148.154869 
C 259.753586 149.092504 261.02547 149.619335 262.351485 149.619335 
z
" clip-path="url(#p910ebed5ac)" style="fill: #9acd32; stroke: #000000"/>
    <path d="M 278.672618 106.796914 
C 279.998633 106.796914 281.270517 106.270082 282.208152 105.332448 
C 283.145786 104.394813 283.672618 103.122929 283.672618 101.796914 
C 283.672618 100.470898 283.145786 99.199014 282.208152 98.26138 
C 281.270517 97.323745 279.998633 96.796914 278.672618 96.796914 
C 277.346602 96.796914 276.074718 97.323745 275.137084 98.26138 
C 274.199449 99.199014 273.672618 100.470898 273.672618 101.796914 
C 273.672618 103.122929 274.199449 104.394813 275.137084 105.332448 
C 276.074718 106.270082 277.346602 106.796914 278.672618 106.796914 
z
" clip-path="url(#p910ebed5ac)" style="fill: #9acd32; stroke: #000000"/>
    <path d="M 151.959433 187.252931 
C 153.285449 187.252931 154.557333 186.7261 155.494967 185.788465 
C 156.432602 184.85083 156.959433 183.578947 156.959433 182.252931 
C 156.959433 180.926916 156.432602 179.655032 155.494967 178.717397 
C 154.557333 177.779763 153.285449 177.252931 151.959433 177.252931 
C 150.633418 177.252931 149.361534 177.779763 148.423899 178.717397 
C 147.486265 179.655032 146.959433 180.926916 146.959433 182.252931 
C 146.959433 183.578947 147.486265 184.85083 148.423899 185.788465 
C 149.361534 186.7261 150.633418 187.252931 151.959433 187.252931 
z
" clip-path="url(#p910ebed5ac)" style="fill: #add8e6; stroke: #000000"/>
   </g>
   <g id="PathCollection_1"/>
   <g id="PathCollection_2"/>
   <g id="matplotlib.axis_1"/>
   <g id="matplotlib.axis_2"/>
   <g id="text_1">
    <g id="patch_3">
     <path d="M 277.19385 83.020553 
L 407.5776 83.020553 
Q 414.5776 83.020553 414.5776 76.020553 
L 414.5776 46.79424 
Q 414.5776 39.79424 407.5776 39.79424 
L 277.19385 39.79424 
Q 270.19385 39.79424 270.19385 46.79424 
L 270.19385 76.020553 
Q 270.19385 83.020553 277.19385 83.020553 
z
" style="fill: #ffffff; opacity: 0.2; stroke: #000000; stroke-linejoin: miter"/>
    </g>
    <!-- Total Cuts: 31.153 -->
    <g transform="translate(280.85135 57.432052) scale(0.14 -0.14)">
     <defs>
      <path id="DejaVuSans-54" d="M -19 4666 
L 3928 4666 
L 3928 4134 
L 2272 4134 
L 2272 0 
L 1638 0 
L 1638 4134 
L -19 4134 
L -19 4666 
z
" transform="scale(0.015625)"/>
      <path id="DejaVuSans-6f" d="M 1959 3097 
Q 1497 3097 1228 2736 
Q 959 2375 959 1747 
Q 959 1119 1226 758 
Q 1494 397 1959 397 
Q 2419 397 2687 759 
Q 2956 1122 2956 1747 
Q 2956 2369 2687 2733 
Q 2419 3097 1959 3097 
z
M 1959 3584 
Q 2709 3584 3137 3096 
Q 3566 2609 3566 1747 
Q 3566 888 3137 398 
Q 2709 -91 1959 -91 
Q 1206 -91 779 398 
Q 353 888 353 1747 
Q 353 2609 779 3096 
Q 1206 3584 1959 3584 
z
" transform="scale(0.015625)"/>
      <path id="DejaVuSans-74" d="M 1172 4494 
L 1172 3500 
L 2356 3500 
L 2356 3053 
L 1172 3053 
L 1172 1153 
Q 1172 725 1289 603 
Q 1406 481 1766 481 
L 2356 481 
L 2356 0 
L 1766 0 
Q 1100 0 847 248 
Q 594 497 594 1153 
L 594 3053 
L 172 3053 
L 172 3500 
L 594 3500 
L 594 4494 
L 1172 4494 
z
" transform="scale(0.015625)"/>
      <path id="DejaVuSans-61" d="M 2194 1759 
Q 1497 1759 1228 1600 
Q 959 1441 959 1056 
Q 959 750 1161 570 
Q 1363 391 1709 391 
Q 2188 391 2477 730 
Q 2766 1069 2766 1631 
L 2766 1759 
L 2194 1759 
z
M 3341 1997 
L 3341 0 
L 2766 0 
L 2766 531 
Q 2569 213 2275 61 
Q 1981 -91 1556 -91 
Q 1019 -91 701 211 
Q 384 513 384 1019 
Q 384 1609 779 1909 
Q 1175 2209 1959 2209 
L 2766 2209 
L 2766 2266 
Q 2766 2663 2505 2880 
Q 2244 3097 1772 3097 
Q 1472 3097 1187 3025 
Q 903 2953 641 2809 
L 641 3341 
Q 956 3463 1253 3523 
Q 1550 3584 1831 3584 
Q 2591 3584 2966 3190 
Q 3341 2797 3341 1997 
z
" transform="scale(0.015625)"/>
      <path id="DejaVuSans-6c" d="M 603 4863 
L 1178 4863 
L 1178 0 
L 603 0 
L 603 4863 
z
" transform="scale(0.015625)"/>
      <path id="DejaVuSans-20" transform="scale(0.015625)"/>
      <path id="DejaVuSans-43" d="M 4122 4306 
L 4122 3641 
Q 3803 3938 3442 4084 
Q 3081 4231 2675 4231 
Q 1875 4231 1450 3742 
Q 1025 3253 1025 2328 
Q 1025 1406 1450 917 
Q 1875 428 2675 428 
Q 3081 428 3442 575 
Q 3803 722 4122 1019 
L 4122 359 
Q 3791 134 3420 21 
Q 3050 -91 2638 -91 
Q 1578 -91 968 557 
Q 359 1206 359 2328 
Q 359 3453 968 4101 
Q 1578 4750 2638 4750 
Q 3056 4750 3426 4639 
Q 3797 4528 4122 4306 
z
" transform="scale(0.015625)"/>
      <path id="DejaVuSans-75" d="M 544 1381 
L 544 3500 
L 1119 3500 
L 1119 1403 
Q 1119 906 1312 657 
Q 1506 409 1894 409 
Q 2359 409 2629 706 
Q 2900 1003 2900 1516 
L 2900 3500 
L 3475 3500 
L 3475 0 
L 2900 0 
L 2900 538 
Q 2691 219 2414 64 
Q 2138 -91 1772 -91 
Q 1169 -91 856 284 
Q 544 659 544 1381 
z
M 1991 3584 
L 1991 3584 
z
" transform="scale(0.015625)"/>
      <path id="DejaVuSans-73" d="M 2834 3397 
L 2834 2853 
Q 2591 2978 2328 3040 
Q 2066 3103 1784 3103 
Q 1356 3103 1142 2972 
Q 928 2841 928 2578 
Q 928 2378 1081 2264 
Q 1234 2150 1697 2047 
L 1894 2003 
Q 2506 1872 2764 1633 
Q 3022 1394 3022 966 
Q 3022 478 2636 193 
Q 2250 -91 1575 -91 
Q 1294 -91 989 -36 
Q 684 19 347 128 
L 347 722 
Q 666 556 975 473 
Q 1284 391 1588 391 
Q 1994 391 2212 530 
Q 2431 669 2431 922 
Q 2431 1156 2273 1281 
Q 2116 1406 1581 1522 
L 1381 1569 
Q 847 1681 609 1914 
Q 372 2147 372 2553 
Q 372 3047 722 3315 
Q 1072 3584 1716 3584 
Q 2034 3584 2315 3537 
Q 2597 3491 2834 3397 
z
" transform="scale(0.015625)"/>
      <path id="DejaVuSans-3a" d="M 750 794 
L 1409 794 
L 1409 0 
L 750 0 
L 750 794 
z
M 750 3309 
L 1409 3309 
L 1409 2516 
L 750 2516 
L 750 3309 
z
" transform="scale(0.015625)"/>
      <path id="DejaVuSans-33" d="M 2597 2516 
Q 3050 2419 3304 2112 
Q 3559 1806 3559 1356 
Q 3559 666 3084 287 
Q 2609 -91 1734 -91 
Q 1441 -91 1130 -33 
Q 819 25 488 141 
L 488 750 
Q 750 597 1062 519 
Q 1375 441 1716 441 
Q 2309 441 2620 675 
Q 2931 909 2931 1356 
Q 2931 1769 2642 2001 
Q 2353 2234 1838 2234 
L 1294 2234 
L 1294 2753 
L 1863 2753 
Q 2328 2753 2575 2939 
Q 2822 3125 2822 3475 
Q 2822 3834 2567 4026 
Q 2313 4219 1838 4219 
Q 1578 4219 1281 4162 
Q 984 4106 628 3988 
L 628 4550 
Q 988 4650 1302 4700 
Q 1616 4750 1894 4750 
Q 2613 4750 3031 4423 
Q 3450 4097 3450 3541 
Q 3450 3153 3228 2886 
Q 3006 2619 2597 2516 
z
" transform="scale(0.015625)"/>
      <path id="DejaVuSans-31" d="M 794 531 
L 1825 531 
L 1825 4091 
L 703 3866 
L 703 4441 
L 1819 4666 
L 2450 4666 
L 2450 531 
L 3481 531 
L 3481 0 
L 794 0 
L 794 531 
z
" transform="scale(0.015625)"/>
      <path id="DejaVuSans-2e" d="M 684 794 
L 1344 794 
L 1344 0 
L 684 0 
L 684 794 
z
" transform="scale(0.015625)"/>
      <path id="DejaVuSans-35" d="M 691 4666 
L 3169 4666 
L 3169 4134 
L 1269 4134 
L 1269 2991 
Q 1406 3038 1543 3061 
Q 1681 3084 1819 3084 
Q 2600 3084 3056 2656 
Q 3513 2228 3513 1497 
Q 3513 744 3044 326 
Q 2575 -91 1722 -91 
Q 1428 -91 1123 -41 
Q 819 9 494 109 
L 494 744 
Q 775 591 1075 516 
Q 1375 441 1709 441 
Q 2250 441 2565 725 
Q 2881 1009 2881 1497 
Q 2881 1984 2565 2268 
Q 2250 2553 1709 2553 
Q 1456 2553 1204 2497 
Q 953 2441 691 2322 
L 691 4666 
z
" transform="scale(0.015625)"/>
     </defs>
     <use xlink:href="#DejaVuSans-54"/>
     <use xlink:href="#DejaVuSans-6f" x="44.083984"/>
     <use xlink:href="#DejaVuSans-74" x="105.265625"/>
     <use xlink:href="#DejaVuSans-61" x="144.474609"/>
     <use xlink:href="#DejaVuSans-6c" x="205.753906"/>
     <use xlink:href="#DejaVuSans-20" x="233.537109"/>
     <use xlink:href="#DejaVuSans-43" x="265.324219"/>
     <use xlink:href="#DejaVuSans-75" x="335.148438"/>
     <use xlink:href="#DejaVuSans-74" x="398.527344"/>
     <use xlink:href="#DejaVuSans-73" x="437.736328"/>
     <use xlink:href="#DejaVuSans-3a" x="489.835938"/>
     <use xlink:href="#DejaVuSans-20" x="523.527344"/>
     <use xlink:href="#DejaVuSans-33" x="555.314453"/>
     <use xlink:href="#DejaVuSans-31" x="618.9375"/>
     <use xlink:href="#DejaVuSans-2e" x="682.560547"/>
     <use xlink:href="#DejaVuSans-31" x="714.347656"/>
     <use xlink:href="#DejaVuSans-35" x="777.970703"/>
     <use xlink:href="#DejaVuSans-33" x="841.59375"/>
    </g>
    <!-- Runtime (s): 0.103 -->
    <g transform="translate(277.19385 73.10899) scale(0.14 -0.14)">
     <defs>
      <path id="DejaVuSans-52" d="M 2841 2188 
Q 3044 2119 3236 1894 
Q 3428 1669 3622 1275 
L 4263 0 
L 3584 0 
L 2988 1197 
Q 2756 1666 2539 1819 
Q 2322 1972 1947 1972 
L 1259 1972 
L 1259 0 
L 628 0 
L 628 4666 
L 2053 4666 
Q 2853 4666 3247 4331 
Q 3641 3997 3641 3322 
Q 3641 2881 3436 2590 
Q 3231 2300 2841 2188 
z
M 1259 4147 
L 1259 2491 
L 2053 2491 
Q 2509 2491 2742 2702 
Q 2975 2913 2975 3322 
Q 2975 3731 2742 3939 
Q 2509 4147 2053 4147 
L 1259 4147 
z
" transform="scale(0.015625)"/>
      <path id="DejaVuSans-6e" d="M 3513 2113 
L 3513 0 
L 2938 0 
L 2938 2094 
Q 2938 2591 2744 2837 
Q 2550 3084 2163 3084 
Q 1697 3084 1428 2787 
Q 1159 2491 1159 1978 
L 1159 0 
L 581 0 
L 581 3500 
L 1159 3500 
L 1159 2956 
Q 1366 3272 1645 3428 
Q 1925 3584 2291 3584 
Q 2894 3584 3203 3211 
Q 3513 2838 3513 2113 
z
" transform="scale(0.015625)"/>
      <path id="DejaVuSans-69" d="M 603 3500 
L 1178 3500 
L 1178 0 
L 603 0 
L 603 3500 
z
M 603 4863 
L 1178 4863 
L 1178 4134 
L 603 4134 
L 603 4863 
z
" transform="scale(0.015625)"/>
      <path id="DejaVuSans-6d" d="M 3328 2828 
Q 3544 3216 3844 3400 
Q 4144 3584 4550 3584 
Q 5097 3584 5394 3201 
Q 5691 2819 5691 2113 
L 5691 0 
L 5113 0 
L 5113 2094 
Q 5113 2597 4934 2840 
Q 4756 3084 4391 3084 
Q 3944 3084 3684 2787 
Q 3425 2491 3425 1978 
L 3425 0 
L 2847 0 
L 2847 2094 
Q 2847 2600 2669 2842 
Q 2491 3084 2119 3084 
Q 1678 3084 1418 2786 
Q 1159 2488 1159 1978 
L 1159 0 
L 581 0 
L 581 3500 
L 1159 3500 
L 1159 2956 
Q 1356 3278 1631 3431 
Q 1906 3584 2284 3584 
Q 2666 3584 2933 3390 
Q 3200 3197 3328 2828 
z
" transform="scale(0.015625)"/>
      <path id="DejaVuSans-65" d="M 3597 1894 
L 3597 1613 
L 953 1613 
Q 991 1019 1311 708 
Q 1631 397 2203 397 
Q 2534 397 2845 478 
Q 3156 559 3463 722 
L 3463 178 
Q 3153 47 2828 -22 
Q 2503 -91 2169 -91 
Q 1331 -91 842 396 
Q 353 884 353 1716 
Q 353 2575 817 3079 
Q 1281 3584 2069 3584 
Q 2775 3584 3186 3129 
Q 3597 2675 3597 1894 
z
M 3022 2063 
Q 3016 2534 2758 2815 
Q 2500 3097 2075 3097 
Q 1594 3097 1305 2825 
Q 1016 2553 972 2059 
L 3022 2063 
z
" transform="scale(0.015625)"/>
      <path id="DejaVuSans-28" d="M 1984 4856 
Q 1566 4138 1362 3434 
Q 1159 2731 1159 2009 
Q 1159 1288 1364 580 
Q 1569 -128 1984 -844 
L 1484 -844 
Q 1016 -109 783 600 
Q 550 1309 550 2009 
Q 550 2706 781 3412 
Q 1013 4119 1484 4856 
L 1984 4856 
z
" transform="scale(0.015625)"/>
      <path id="DejaVuSans-29" d="M 513 4856 
L 1013 4856 
Q 1481 4119 1714 3412 
Q 1947 2706 1947 2009 
Q 1947 1309 1714 600 
Q 1481 -109 1013 -844 
L 513 -844 
Q 928 -128 1133 580 
Q 1338 1288 1338 2009 
Q 1338 2731 1133 3434 
Q 928 4138 513 4856 
z
" transform="scale(0.015625)"/>
      <path id="DejaVuSans-30" d="M 2034 4250 
Q 1547 4250 1301 3770 
Q 1056 3291 1056 2328 
Q 1056 1369 1301 889 
Q 1547 409 2034 409 
Q 2525 409 2770 889 
Q 3016 1369 3016 2328 
Q 3016 3291 2770 3770 
Q 2525 4250 2034 4250 
z
M 2034 4750 
Q 2819 4750 3233 4129 
Q 3647 3509 3647 2328 
Q 3647 1150 3233 529 
Q 2819 -91 2034 -91 
Q 1250 -91 836 529 
Q 422 1150 422 2328 
Q 422 3509 836 4129 
Q 1250 4750 2034 4750 
z
" transform="scale(0.015625)"/>
     </defs>
     <use xlink:href="#DejaVuSans-52"/>
     <use xlink:href="#DejaVuSans-75" x="64.982422"/>
     <use xlink:href="#DejaVuSans-6e" x="128.361328"/>
     <use xlink:href="#DejaVuSans-74" x="191.740234"/>
     <use xlink:href="#DejaVuSans-69" x="230.949219"/>
     <use xlink:href="#DejaVuSans-6d" x="258.732422"/>
     <use xlink:href="#DejaVuSans-65" x="356.144531"/>
     <use xlink:href="#DejaVuSans-20" x="417.667969"/>
     <use xlink:href="#DejaVuSans-28" x="449.455078"/>
     <use xlink:href="#DejaVuSans-73" x="488.46875"/>
     <use xlink:href="#DejaVuSans-29" x="540.568359"/>
     <use xlink:href="#DejaVuSans-3a" x="579.582031"/>
     <use xlink:href="#DejaVuSans-20" x="613.273438"/>
     <use xlink:href="#DejaVuSans-30" x="645.060547"/>
     <use xlink:href="#DejaVuSans-2e" x="708.683594"/>
     <use xlink:href="#DejaVuSans-31" x="740.470703"/>
     <use xlink:href="#DejaVuSans-30" x="804.09375"/>
     <use xlink:href="#DejaVuSans-33" x="867.716797"/>
    </g>
   </g>
   <g id="text_2">
    <!-- Weighted, 50 vertices, 6.939% density -->
    <g transform="translate(83.697812 35.472) scale(0.14 -0.14)">
     <defs>
      <path id="DejaVuSans-Bold-57" d="M 191 4666 
L 1344 4666 
L 2150 1275 
L 2950 4666 
L 4109 4666 
L 4909 1275 
L 5716 4666 
L 6859 4666 
L 5759 0 
L 4372 0 
L 3525 3547 
L 2688 0 
L 1300 0 
L 191 4666 
z
" transform="scale(0.015625)"/>
      <path id="DejaVuSans-Bold-65" d="M 4031 1759 
L 4031 1441 
L 1416 1441 
Q 1456 1047 1700 850 
Q 1944 653 2381 653 
Q 2734 653 3104 758 
Q 3475 863 3866 1075 
L 3866 213 
Q 3469 63 3072 -14 
Q 2675 -91 2278 -91 
Q 1328 -91 801 392 
Q 275 875 275 1747 
Q 275 2603 792 3093 
Q 1309 3584 2216 3584 
Q 3041 3584 3536 3087 
Q 4031 2591 4031 1759 
z
M 2881 2131 
Q 2881 2450 2695 2645 
Q 2509 2841 2209 2841 
Q 1884 2841 1681 2658 
Q 1478 2475 1428 2131 
L 2881 2131 
z
" transform="scale(0.015625)"/>
      <path id="DejaVuSans-Bold-69" d="M 538 3500 
L 1656 3500 
L 1656 0 
L 538 0 
L 538 3500 
z
M 538 4863 
L 1656 4863 
L 1656 3950 
L 538 3950 
L 538 4863 
z
" transform="scale(0.015625)"/>
      <path id="DejaVuSans-Bold-67" d="M 2919 594 
Q 2688 288 2409 144 
Q 2131 0 1766 0 
Q 1125 0 706 504 
Q 288 1009 288 1791 
Q 288 2575 706 3076 
Q 1125 3578 1766 3578 
Q 2131 3578 2409 3434 
Q 2688 3291 2919 2981 
L 2919 3500 
L 4044 3500 
L 4044 353 
Q 4044 -491 3511 -936 
Q 2978 -1381 1966 -1381 
Q 1638 -1381 1331 -1331 
Q 1025 -1281 716 -1178 
L 716 -306 
Q 1009 -475 1290 -558 
Q 1572 -641 1856 -641 
Q 2406 -641 2662 -400 
Q 2919 -159 2919 353 
L 2919 594 
z
M 2181 2772 
Q 1834 2772 1640 2515 
Q 1447 2259 1447 1791 
Q 1447 1309 1634 1061 
Q 1822 813 2181 813 
Q 2531 813 2725 1069 
Q 2919 1325 2919 1791 
Q 2919 2259 2725 2515 
Q 2531 2772 2181 2772 
z
" transform="scale(0.015625)"/>
      <path id="DejaVuSans-Bold-68" d="M 4056 2131 
L 4056 0 
L 2931 0 
L 2931 347 
L 2931 1625 
Q 2931 2084 2911 2256 
Q 2891 2428 2841 2509 
Q 2775 2619 2662 2680 
Q 2550 2741 2406 2741 
Q 2056 2741 1856 2470 
Q 1656 2200 1656 1722 
L 1656 0 
L 538 0 
L 538 4863 
L 1656 4863 
L 1656 2988 
Q 1909 3294 2193 3439 
Q 2478 3584 2822 3584 
Q 3428 3584 3742 3212 
Q 4056 2841 4056 2131 
z
" transform="scale(0.015625)"/>
      <path id="DejaVuSans-Bold-74" d="M 1759 4494 
L 1759 3500 
L 2913 3500 
L 2913 2700 
L 1759 2700 
L 1759 1216 
Q 1759 972 1856 886 
Q 1953 800 2241 800 
L 2816 800 
L 2816 0 
L 1856 0 
Q 1194 0 917 276 
Q 641 553 641 1216 
L 641 2700 
L 84 2700 
L 84 3500 
L 641 3500 
L 641 4494 
L 1759 4494 
z
" transform="scale(0.015625)"/>
      <path id="DejaVuSans-Bold-64" d="M 2919 2988 
L 2919 4863 
L 4044 4863 
L 4044 0 
L 2919 0 
L 2919 506 
Q 2688 197 2409 53 
Q 2131 -91 1766 -91 
Q 1119 -91 703 423 
Q 288 938 288 1747 
Q 288 2556 703 3070 
Q 1119 3584 1766 3584 
Q 2128 3584 2408 3439 
Q 2688 3294 2919 2988 
z
M 2181 722 
Q 2541 722 2730 984 
Q 2919 1247 2919 1747 
Q 2919 2247 2730 2509 
Q 2541 2772 2181 2772 
Q 1825 2772 1636 2509 
Q 1447 2247 1447 1747 
Q 1447 1247 1636 984 
Q 1825 722 2181 722 
z
" transform="scale(0.015625)"/>
      <path id="DejaVuSans-Bold-2c" d="M 653 1209 
L 1778 1209 
L 1778 256 
L 1006 -909 
L 341 -909 
L 653 256 
L 653 1209 
z
" transform="scale(0.015625)"/>
      <path id="DejaVuSans-Bold-20" transform="scale(0.015625)"/>
      <path id="DejaVuSans-Bold-35" d="M 678 4666 
L 3669 4666 
L 3669 3781 
L 1638 3781 
L 1638 3059 
Q 1775 3097 1914 3117 
Q 2053 3138 2203 3138 
Q 3056 3138 3531 2711 
Q 4006 2284 4006 1522 
Q 4006 766 3489 337 
Q 2972 -91 2053 -91 
Q 1656 -91 1267 -14 
Q 878 63 494 219 
L 494 1166 
Q 875 947 1217 837 
Q 1559 728 1863 728 
Q 2300 728 2551 942 
Q 2803 1156 2803 1522 
Q 2803 1891 2551 2103 
Q 2300 2316 1863 2316 
Q 1603 2316 1309 2248 
Q 1016 2181 678 2041 
L 678 4666 
z
" transform="scale(0.015625)"/>
      <path id="DejaVuSans-Bold-30" d="M 2944 2338 
Q 2944 3213 2780 3570 
Q 2616 3928 2228 3928 
Q 1841 3928 1675 3570 
Q 1509 3213 1509 2338 
Q 1509 1453 1675 1090 
Q 1841 728 2228 728 
Q 2613 728 2778 1090 
Q 2944 1453 2944 2338 
z
M 4147 2328 
Q 4147 1169 3647 539 
Q 3147 -91 2228 -91 
Q 1306 -91 806 539 
Q 306 1169 306 2328 
Q 306 3491 806 4120 
Q 1306 4750 2228 4750 
Q 3147 4750 3647 4120 
Q 4147 3491 4147 2328 
z
" transform="scale(0.015625)"/>
      <path id="DejaVuSans-Bold-76" d="M 97 3500 
L 1216 3500 
L 2088 1081 
L 2956 3500 
L 4078 3500 
L 2700 0 
L 1472 0 
L 97 3500 
z
" transform="scale(0.015625)"/>
      <path id="DejaVuSans-Bold-72" d="M 3138 2547 
Q 2991 2616 2845 2648 
Q 2700 2681 2553 2681 
Q 2122 2681 1889 2404 
Q 1656 2128 1656 1613 
L 1656 0 
L 538 0 
L 538 3500 
L 1656 3500 
L 1656 2925 
Q 1872 3269 2151 3426 
Q 2431 3584 2822 3584 
Q 2878 3584 2943 3579 
Q 3009 3575 3134 3559 
L 3138 2547 
z
" transform="scale(0.015625)"/>
      <path id="DejaVuSans-Bold-63" d="M 3366 3391 
L 3366 2478 
Q 3138 2634 2908 2709 
Q 2678 2784 2431 2784 
Q 1963 2784 1702 2511 
Q 1441 2238 1441 1747 
Q 1441 1256 1702 982 
Q 1963 709 2431 709 
Q 2694 709 2930 787 
Q 3166 866 3366 1019 
L 3366 103 
Q 3103 6 2833 -42 
Q 2563 -91 2291 -91 
Q 1344 -91 809 395 
Q 275 881 275 1747 
Q 275 2613 809 3098 
Q 1344 3584 2291 3584 
Q 2566 3584 2833 3536 
Q 3100 3488 3366 3391 
z
" transform="scale(0.015625)"/>
      <path id="DejaVuSans-Bold-73" d="M 3272 3391 
L 3272 2541 
Q 2913 2691 2578 2766 
Q 2244 2841 1947 2841 
Q 1628 2841 1473 2761 
Q 1319 2681 1319 2516 
Q 1319 2381 1436 2309 
Q 1553 2238 1856 2203 
L 2053 2175 
Q 2913 2066 3209 1816 
Q 3506 1566 3506 1031 
Q 3506 472 3093 190 
Q 2681 -91 1863 -91 
Q 1516 -91 1145 -36 
Q 775 19 384 128 
L 384 978 
Q 719 816 1070 734 
Q 1422 653 1784 653 
Q 2113 653 2278 743 
Q 2444 834 2444 1013 
Q 2444 1163 2330 1236 
Q 2216 1309 1875 1350 
L 1678 1375 
Q 931 1469 631 1722 
Q 331 1975 331 2491 
Q 331 3047 712 3315 
Q 1094 3584 1881 3584 
Q 2191 3584 2531 3537 
Q 2872 3491 3272 3391 
z
" transform="scale(0.015625)"/>
      <path id="DejaVuSans-Bold-36" d="M 2316 2303 
Q 2000 2303 1842 2098 
Q 1684 1894 1684 1484 
Q 1684 1075 1842 870 
Q 2000 666 2316 666 
Q 2634 666 2792 870 
Q 2950 1075 2950 1484 
Q 2950 1894 2792 2098 
Q 2634 2303 2316 2303 
z
M 3803 4544 
L 3803 3681 
Q 3506 3822 3243 3889 
Q 2981 3956 2731 3956 
Q 2194 3956 1894 3657 
Q 1594 3359 1544 2772 
Q 1750 2925 1990 3001 
Q 2231 3078 2516 3078 
Q 3231 3078 3670 2659 
Q 4109 2241 4109 1563 
Q 4109 813 3618 361 
Q 3128 -91 2303 -91 
Q 1394 -91 895 523 
Q 397 1138 397 2266 
Q 397 3422 980 4083 
Q 1563 4744 2578 4744 
Q 2900 4744 3203 4694 
Q 3506 4644 3803 4544 
z
" transform="scale(0.015625)"/>
      <path id="DejaVuSans-Bold-2e" d="M 653 1209 
L 1778 1209 
L 1778 0 
L 653 0 
L 653 1209 
z
" transform="scale(0.015625)"/>
      <path id="DejaVuSans-Bold-39" d="M 641 103 
L 641 966 
Q 928 831 1190 764 
Q 1453 697 1709 697 
Q 2247 697 2547 995 
Q 2847 1294 2900 1881 
Q 2688 1725 2447 1647 
Q 2206 1569 1925 1569 
Q 1209 1569 770 1986 
Q 331 2403 331 3084 
Q 331 3838 820 4291 
Q 1309 4744 2131 4744 
Q 3044 4744 3544 4128 
Q 4044 3513 4044 2388 
Q 4044 1231 3459 570 
Q 2875 -91 1856 -91 
Q 1528 -91 1228 -42 
Q 928 6 641 103 
z
M 2125 2350 
Q 2441 2350 2600 2554 
Q 2759 2759 2759 3169 
Q 2759 3575 2600 3781 
Q 2441 3988 2125 3988 
Q 1809 3988 1650 3781 
Q 1491 3575 1491 3169 
Q 1491 2759 1650 2554 
Q 1809 2350 2125 2350 
z
" transform="scale(0.015625)"/>
      <path id="DejaVuSans-Bold-33" d="M 2981 2516 
Q 3453 2394 3698 2092 
Q 3944 1791 3944 1325 
Q 3944 631 3412 270 
Q 2881 -91 1863 -91 
Q 1503 -91 1142 -33 
Q 781 25 428 141 
L 428 1069 
Q 766 900 1098 814 
Q 1431 728 1753 728 
Q 2231 728 2486 893 
Q 2741 1059 2741 1369 
Q 2741 1688 2480 1852 
Q 2219 2016 1709 2016 
L 1228 2016 
L 1228 2791 
L 1734 2791 
Q 2188 2791 2409 2933 
Q 2631 3075 2631 3366 
Q 2631 3634 2415 3781 
Q 2200 3928 1806 3928 
Q 1516 3928 1219 3862 
Q 922 3797 628 3669 
L 628 4550 
Q 984 4650 1334 4700 
Q 1684 4750 2022 4750 
Q 2931 4750 3382 4451 
Q 3834 4153 3834 3553 
Q 3834 3144 3618 2883 
Q 3403 2622 2981 2516 
z
" transform="scale(0.015625)"/>
      <path id="DejaVuSans-Bold-25" d="M 4959 1925 
Q 4738 1925 4616 1733 
Q 4494 1541 4494 1184 
Q 4494 825 4614 633 
Q 4734 441 4959 441 
Q 5184 441 5303 633 
Q 5422 825 5422 1184 
Q 5422 1541 5301 1733 
Q 5181 1925 4959 1925 
z
M 4959 2450 
Q 5541 2450 5875 2112 
Q 6209 1775 6209 1184 
Q 6209 594 5875 251 
Q 5541 -91 4959 -91 
Q 4378 -91 4042 251 
Q 3706 594 3706 1184 
Q 3706 1772 4042 2111 
Q 4378 2450 4959 2450 
z
M 2094 -91 
L 1403 -91 
L 4319 4750 
L 5013 4750 
L 2094 -91 
z
M 1453 4750 
Q 2034 4750 2367 4411 
Q 2700 4072 2700 3481 
Q 2700 2891 2367 2550 
Q 2034 2209 1453 2209 
Q 872 2209 539 2550 
Q 206 2891 206 3481 
Q 206 4072 539 4411 
Q 872 4750 1453 4750 
z
M 1453 4225 
Q 1228 4225 1106 4031 
Q 984 3838 984 3481 
Q 984 3122 1106 2926 
Q 1228 2731 1453 2731 
Q 1678 2731 1798 2926 
Q 1919 3122 1919 3481 
Q 1919 3838 1797 4031 
Q 1675 4225 1453 4225 
z
" transform="scale(0.015625)"/>
      <path id="DejaVuSans-Bold-6e" d="M 4056 2131 
L 4056 0 
L 2931 0 
L 2931 347 
L 2931 1631 
Q 2931 2084 2911 2256 
Q 2891 2428 2841 2509 
Q 2775 2619 2662 2680 
Q 2550 2741 2406 2741 
Q 2056 2741 1856 2470 
Q 1656 2200 1656 1722 
L 1656 0 
L 538 0 
L 538 3500 
L 1656 3500 
L 1656 2988 
Q 1909 3294 2193 3439 
Q 2478 3584 2822 3584 
Q 3428 3584 3742 3212 
Q 4056 2841 4056 2131 
z
" transform="scale(0.015625)"/>
      <path id="DejaVuSans-Bold-79" d="M 78 3500 
L 1197 3500 
L 2138 1125 
L 2938 3500 
L 4056 3500 
L 2584 -331 
Q 2363 -916 2067 -1148 
Q 1772 -1381 1288 -1381 
L 641 -1381 
L 641 -647 
L 991 -647 
Q 1275 -647 1404 -556 
Q 1534 -466 1606 -231 
L 1638 -134 
L 78 3500 
z
" transform="scale(0.015625)"/>
     </defs>
     <use xlink:href="#DejaVuSans-Bold-57"/>
     <use xlink:href="#DejaVuSans-Bold-65" x="106.677734"/>
     <use xlink:href="#DejaVuSans-Bold-69" x="174.5"/>
     <use xlink:href="#DejaVuSans-Bold-67" x="208.777344"/>
     <use xlink:href="#DejaVuSans-Bold-68" x="280.359375"/>
     <use xlink:href="#DejaVuSans-Bold-74" x="351.550781"/>
     <use xlink:href="#DejaVuSans-Bold-65" x="399.353516"/>
     <use xlink:href="#DejaVuSans-Bold-64" x="467.175781"/>
     <use xlink:href="#DejaVuSans-Bold-2c" x="538.757812"/>
     <use xlink:href="#DejaVuSans-Bold-20" x="576.746094"/>
     <use xlink:href="#DejaVuSans-Bold-35" x="611.560547"/>
     <use xlink:href="#DejaVuSans-Bold-30" x="681.140625"/>
     <use xlink:href="#DejaVuSans-Bold-20" x="750.720703"/>
     <use xlink:href="#DejaVuSans-Bold-76" x="785.535156"/>
     <use xlink:href="#DejaVuSans-Bold-65" x="850.720703"/>
     <use xlink:href="#DejaVuSans-Bold-72" x="918.542969"/>
     <use xlink:href="#DejaVuSans-Bold-74" x="967.859375"/>
     <use xlink:href="#DejaVuSans-Bold-69" x="1015.662109"/>
     <use xlink:href="#DejaVuSans-Bold-63" x="1049.939453"/>
     <use xlink:href="#DejaVuSans-Bold-65" x="1109.216797"/>
     <use xlink:href="#DejaVuSans-Bold-73" x="1177.039062"/>
     <use xlink:href="#DejaVuSans-Bold-2c" x="1236.560547"/>
     <use xlink:href="#DejaVuSans-Bold-20" x="1274.548828"/>
     <use xlink:href="#DejaVuSans-Bold-36" x="1309.363281"/>
     <use xlink:href="#DejaVuSans-Bold-2e" x="1378.943359"/>
     <use xlink:href="#DejaVuSans-Bold-39" x="1416.931641"/>
     <use xlink:href="#DejaVuSans-Bold-33" x="1486.511719"/>
     <use xlink:href="#DejaVuSans-Bold-39" x="1556.091797"/>
     <use xlink:href="#DejaVuSans-Bold-25" x="1625.671875"/>
     <use xlink:href="#DejaVuSans-Bold-20" x="1725.867188"/>
     <use xlink:href="#DejaVuSans-Bold-64" x="1760.681641"/>
     <use xlink:href="#DejaVuSans-Bold-65" x="1832.263672"/>
     <use xlink:href="#DejaVuSans-Bold-6e" x="1900.085938"/>
     <use xlink:href="#DejaVuSans-Bold-73" x="1971.277344"/>
     <use xlink:href="#DejaVuSans-Bold-69" x="2030.798828"/>
     <use xlink:href="#DejaVuSans-Bold-74" x="2065.076172"/>
     <use xlink:href="#DejaVuSans-Bold-79" x="2112.878906"/>
    </g>
   </g>
   <g id="legend_1">
    <g id="patch_4">
     <path d="M 7.914062 93.506375 
L 50.6 93.506375 
Q 52.6 93.506375 52.6 91.506375 
L 52.6 48.472 
Q 52.6 46.472 50.6 46.472 
L 7.914062 46.472 
Q 5.914062 46.472 5.914062 48.472 
L 5.914062 91.506375 
Q 5.914062 93.506375 7.914062 93.506375 
z
" style="fill: #ffffff; opacity: 0.8; stroke: #cccccc; stroke-linejoin: miter"/>
    </g>
    <g id="text_3">
     <!-- Cluster: -->
     <g transform="translate(9.914062 58.070438) scale(0.1 -0.1)">
      <defs>
       <path id="DejaVuSans-72" d="M 2631 2963 
Q 2534 3019 2420 3045 
Q 2306 3072 2169 3072 
Q 1681 3072 1420 2755 
Q 1159 2438 1159 1844 
L 1159 0 
L 581 0 
L 581 3500 
L 1159 3500 
L 1159 2956 
Q 1341 3275 1631 3429 
Q 1922 3584 2338 3584 
Q 2397 3584 2469 3576 
Q 2541 3569 2628 3553 
L 2631 2963 
z
" transform="scale(0.015625)"/>
      </defs>
      <use xlink:href="#DejaVuSans-43"/>
      <use xlink:href="#DejaVuSans-6c" x="69.824219"/>
      <use xlink:href="#DejaVuSans-75" x="97.607422"/>
      <use xlink:href="#DejaVuSans-73" x="160.986328"/>
      <use xlink:href="#DejaVuSans-74" x="213.085938"/>
      <use xlink:href="#DejaVuSans-65" x="252.294922"/>
      <use xlink:href="#DejaVuSans-72" x="313.818359"/>
      <use xlink:href="#DejaVuSans-3a" x="353.181641"/>
     </g>
    </g>
    <g id="PathCollection_3">
     <defs>
      <path id="mf3a8931e77" d="M 0 5 
C 1.326016 5 2.597899 4.473168 3.535534 3.535534 
C 4.473168 2.597899 5 1.326016 5 0 
C 5 -1.326016 4.473168 -2.597899 3.535534 -3.535534 
C 2.597899 -4.473168 1.326016 -5 0 -5 
C -1.326016 -5 -2.597899 -4.473168 -3.535534 -3.535534 
C -4.473168 -2.597899 -5 -1.326016 -5 0 
C -5 1.326016 -4.473168 2.597899 -3.535534 3.535534 
C -2.597899 4.473168 -1.326016 5 0 5 
z
" style="stroke: #000000"/>
     </defs>
     <g>
      <use xlink:href="#mf3a8931e77" x="22.075781" y="70.123563" style="fill: #add8e6; stroke: #000000"/>
     </g>
    </g>
    <g id="text_4">
     <!-- 0 -->
     <g transform="translate(40.075781 72.748563) scale(0.1 -0.1)">
      <use xlink:href="#DejaVuSans-30"/>
     </g>
    </g>
    <g id="PathCollection_4">
     <defs>
      <path id="m9821705794" d="M 0 5 
C 1.326016 5 2.597899 4.473168 3.535534 3.535534 
C 4.473168 2.597899 5 1.326016 5 0 
C 5 -1.326016 4.473168 -2.597899 3.535534 -3.535534 
C 2.597899 -4.473168 1.326016 -5 0 -5 
C -1.326016 -5 -2.597899 -4.473168 -3.535534 -3.535534 
C -4.473168 -2.597899 -5 -1.326016 -5 0 
C -5 1.326016 -4.473168 2.597899 -3.535534 3.535534 
C -2.597899 4.473168 -1.326016 5 0 5 
z
" style="stroke: #000000"/>
     </defs>
     <g>
      <use xlink:href="#m9821705794" x="22.075781" y="84.801688" style="fill: #9acd32; stroke: #000000"/>
     </g>
    </g>
    <g id="text_5">
     <!-- 1 -->
     <g transform="translate(40.075781 87.426688) scale(0.1 -0.1)">
      <use xlink:href="#DejaVuSans-31"/>
     </g>
    </g>
   </g>
  </g>
 </g>
 <defs>
  <clipPath id="p910ebed5ac">
   <rect x="57.6" y="41.472" width="357.12" height="266.112"/>
  </clipPath>
 </defs>
</svg>
