<?xml version="1.0" encoding="utf-8" standalone="no"?>
<!DOCTYPE svg PUBLIC "-//W3C//DTD SVG 1.1//EN"
  "http://www.w3.org/Graphics/SVG/1.1/DTD/svg11.dtd">
<svg xmlns:xlink="http://www.w3.org/1999/xlink" width="460.8pt" height="345.6pt" viewBox="0 0 460.8 345.6" xmlns="http://www.w3.org/2000/svg" version="1.1">
 <metadata>
  <rdf:RDF xmlns:dc="http://purl.org/dc/elements/1.1/" xmlns:cc="http://creativecommons.org/ns#" xmlns:rdf="http://www.w3.org/1999/02/22-rdf-syntax-ns#">
   <cc:Work>
    <dc:type rdf:resource="http://purl.org/dc/dcmitype/StillImage"/>
    <dc:date>2024-01-14T18:02:57.370170</dc:date>
    <dc:format>image/svg+xml</dc:format>
    <dc:creator>
     <cc:Agent>
      <dc:title>Matplotlib v3.8.2, https://matplotlib.org/</dc:title>
     </cc:Agent>
    </dc:creator>
   </cc:Work>
  </rdf:RDF>
 </metadata>
 <defs>
  <style type="text/css">*{stroke-linejoin: round; stroke-linecap: butt}</style>
 </defs>
 <g id="figure_1">
  <g id="patch_1">
   <path d="M 0 345.6 
L 460.8 345.6 
L 460.8 0 
L 0 0 
z
" style="fill: #ffffff"/>
  </g>
  <g id="axes_1">
   <g id="patch_2">
    <path d="M 57.6 307.584 
L 414.72 307.584 
L 414.72 41.472 
L 57.6 41.472 
z
" style="fill: #ffffff"/>
   </g>
   <g id="EdgeCollection_1">
    <path d="M 186.860536 140.99735 
L 193.547784 124.581072 
" clip-path="url(#p2b3536aac5)" style="fill: #add8e6; stroke: #add8e6; stroke-width: 2.5"/>
    <path d="M 201.775109 118.366275 
L 254.030899 112.599537 
" clip-path="url(#p2b3536aac5)" style="fill: #d3d3d3; stroke: #d3d3d3; stroke-width: 2.5"/>
    <path d="M 261.651503 117.70811 
L 270.009022 146.797416 
" clip-path="url(#p2b3536aac5)" style="fill: #9acd32; stroke: #9acd32; stroke-width: 2.5"/>
    <path d="M 179.025946 148.781853 
L 157.1846 157.516129 
" clip-path="url(#p2b3536aac5)" style="fill: #add8e6; stroke: #add8e6; stroke-width: 2.5"/>
    <path d="M 286.314737 279.05509 
L 263.940136 242.971564 
" clip-path="url(#p2b3536aac5)" style="fill: #9acd32; stroke: #9acd32; stroke-width: 2.5"/>
    <path d="M 112.530342 219.920534 
L 93.947408 208.133261 
" clip-path="url(#p2b3536aac5)" style="fill: #add8e6; stroke: #add8e6; stroke-width: 2.5"/>
    <path d="M 158.676076 260.184996 
L 213.7229 265.923986 
" clip-path="url(#p2b3536aac5)" style="fill: #9acd32; stroke: #9acd32; stroke-width: 2.5"/>
    <path d="M 178.666287 145.644842 
L 126.372427 137.628325 
" clip-path="url(#p2b3536aac5)" style="fill: #add8e6; stroke: #add8e6; stroke-width: 2.5"/>
    <path d="M 100.41028 97.278752 
L 117.72471 131.369589 
" clip-path="url(#p2b3536aac5)" style="fill: #add8e6; stroke: #add8e6; stroke-width: 2.5"/>
    <path d="M 190.592497 146.786553 
L 216.804069 147.80322 
" clip-path="url(#p2b3536aac5)" style="fill: #add8e6; stroke: #add8e6; stroke-width: 2.5"/>
    <path d="M 199.898014 123.417465 
L 218.71286 143.642718 
" clip-path="url(#p2b3536aac5)" style="fill: #add8e6; stroke: #add8e6; stroke-width: 2.5"/>
    <path d="M 181.100734 141.677934 
L 156.033634 106.71812 
" clip-path="url(#p2b3536aac5)" style="fill: #add8e6; stroke: #add8e6; stroke-width: 2.5"/>
    <path d="M 190.234819 116.810211 
L 158.113858 104.056252 
" clip-path="url(#p2b3536aac5)" style="fill: #add8e6; stroke: #add8e6; stroke-width: 2.5"/>
    <path d="M 103.597611 92.996367 
L 146.633033 100.774861 
" clip-path="url(#p2b3536aac5)" style="fill: #add8e6; stroke: #add8e6; stroke-width: 2.5"/>
    <path d="M 124.504645 132.304124 
L 148.474427 106.257084 
" clip-path="url(#p2b3536aac5)" style="fill: #add8e6; stroke: #add8e6; stroke-width: 2.5"/>
    <path d="M 179.866578 150.244949 
L 136.529676 184.058806 
" clip-path="url(#p2b3536aac5)" style="fill: #add8e6; stroke: #add8e6; stroke-width: 2.5"/>
    <path d="M 119.831932 217.566134 
L 129.564344 193.31798 
" clip-path="url(#p2b3536aac5)" style="fill: #add8e6; stroke: #add8e6; stroke-width: 2.5"/>
    <path d="M 151.031105 253.802047 
L 133.476564 193.510531 
" clip-path="url(#p2b3536aac5)" style="fill: #d3d3d3; stroke: #d3d3d3; stroke-width: 2.5"/>
    <path d="M 121.745196 142.57586 
L 130.495762 181.89305 
" clip-path="url(#p2b3536aac5)" style="fill: #add8e6; stroke: #add8e6; stroke-width: 2.5"/>
    <path d="M 254.835456 238.699163 
L 201.499444 246.120001 
" clip-path="url(#p2b3536aac5)" style="fill: #9acd32; stroke: #9acd32; stroke-width: 2.5"/>
    <path d="M 158.46412 257.868155 
L 189.800989 248.641513 
" clip-path="url(#p2b3536aac5)" style="fill: #9acd32; stroke: #9acd32; stroke-width: 2.5"/>
    <path d="M 268.364196 157.57404 
L 239.658053 201.132825 
" clip-path="url(#p2b3536aac5)" style="fill: #9acd32; stroke: #9acd32; stroke-width: 2.5"/>
    <path d="M 257.118589 233.117626 
L 240.01604 210.897435 
" clip-path="url(#p2b3536aac5)" style="fill: #9acd32; stroke: #9acd32; stroke-width: 2.5"/>
    <path d="M 221.286383 260.762267 
L 234.76059 211.926621 
" clip-path="url(#p2b3536aac5)" style="fill: #9acd32; stroke: #9acd32; stroke-width: 2.5"/>
    <path d="M 224.162801 153.878846 
L 234.993177 200.299656 
" clip-path="url(#p2b3536aac5)" style="fill: #d3d3d3; stroke: #d3d3d3; stroke-width: 2.5"/>
    <path d="M 155.444665 164.361603 
L 188.429266 204.117713 
" clip-path="url(#p2b3536aac5)" style="fill: #add8e6; stroke: #add8e6; stroke-width: 2.5"/>
    <path d="M 230.366762 206.494895 
L 198.250046 208.383182 
" clip-path="url(#p2b3536aac5)" style="fill: #d3d3d3; stroke: #d3d3d3; stroke-width: 2.5"/>
    <path d="M 123.596598 223.062673 
L 152.783619 222.713903 
" clip-path="url(#p2b3536aac5)" style="fill: #add8e6; stroke: #add8e6; stroke-width: 2.5"/>
    <path d="M 230.487698 207.390986 
L 164.65191 221.393961 
" clip-path="url(#p2b3536aac5)" style="fill: #d3d3d3; stroke: #d3d3d3; stroke-width: 2.5"/>
    <path d="M 89.080185 198.922746 
L 89.728048 179.445213 
" clip-path="url(#p2b3536aac5)" style="fill: #add8e6; stroke: #add8e6; stroke-width: 2.5"/>
    <path d="M 116.607548 141.334268 
L 93.76167 168.833422 
" clip-path="url(#p2b3536aac5)" style="fill: #add8e6; stroke: #add8e6; stroke-width: 2.5"/>
    <path d="M 153.90116 219.154263 
L 94.80954 176.936477 
" clip-path="url(#p2b3536aac5)" style="fill: #add8e6; stroke: #add8e6; stroke-width: 2.5"/>
    <path d="M 193.398051 124.517699 
L 168.01726 182.291688 
" clip-path="url(#p2b3536aac5)" style="fill: #add8e6; stroke: #add8e6; stroke-width: 2.5"/>
    <path d="M 122.428523 219.576747 
L 160.7725 191.342589 
" clip-path="url(#p2b3536aac5)" style="fill: #add8e6; stroke: #add8e6; stroke-width: 2.5"/>
    <path d="M 154.29222 165.112837 
L 162.925317 182.416109 
" clip-path="url(#p2b3536aac5)" style="fill: #add8e6; stroke: #add8e6; stroke-width: 2.5"/>
    <path d="M 217.767899 189.328122 
L 171.601372 187.96239 
" clip-path="url(#p2b3536aac5)" style="fill: #d3d3d3; stroke: #d3d3d3; stroke-width: 2.5"/>
    <path d="M 94.736471 203.611677 
L 159.748248 189.092724 
" clip-path="url(#p2b3536aac5)" style="fill: #add8e6; stroke: #add8e6; stroke-width: 2.5"/>
    <path d="M 192.846531 241.593798 
L 168.314154 193.138012 
" clip-path="url(#p2b3536aac5)" style="fill: #d3d3d3; stroke: #d3d3d3; stroke-width: 2.5"/>
    <path d="M 187.543001 205.027749 
L 170.321385 191.492564 
" clip-path="url(#p2b3536aac5)" style="fill: #add8e6; stroke: #add8e6; stroke-width: 2.5"/>
    <path d="M 262.719242 117.287128 
L 288.505649 167.88165 
" clip-path="url(#p2b3536aac5)" style="fill: #9acd32; stroke: #9acd32; stroke-width: 2.5"/>
    <path d="M 241.501744 203.056376 
L 286.08487 176.313741 
" clip-path="url(#p2b3536aac5)" style="fill: #9acd32; stroke: #9acd32; stroke-width: 2.5"/>
    <path d="M 190.145464 148.837557 
L 255.180025 175.6035 
" clip-path="url(#p2b3536aac5)" style="fill: #d3d3d3; stroke: #d3d3d3; stroke-width: 2.5"/>
    <path d="M 229.489172 187.706372 
L 255.004587 179.68622 
" clip-path="url(#p2b3536aac5)" style="fill: #9acd32; stroke: #9acd32; stroke-width: 2.5"/>
    <path d="M 260.773237 231.872328 
L 260.733458 183.887049 
" clip-path="url(#p2b3536aac5)" style="fill: #9acd32; stroke: #9acd32; stroke-width: 2.5"/>
    <path d="M 357.003518 123.285719 
L 332.200651 162.097417 
" clip-path="url(#p2b3536aac5)" style="fill: #9acd32; stroke: #9acd32; stroke-width: 2.5"/>
    <path d="M 369.965284 200.971846 
L 333.598104 170.971326 
" clip-path="url(#p2b3536aac5)" style="fill: #9acd32; stroke: #9acd32; stroke-width: 2.5"/>
    <path d="M 297.15396 172.273952 
L 323.04595 168.106639 
" clip-path="url(#p2b3536aac5)" style="fill: #9acd32; stroke: #9acd32; stroke-width: 2.5"/>
    <path d="M 266.655611 176.954758 
L 323.042587 168.085504 
" clip-path="url(#p2b3536aac5)" style="fill: #9acd32; stroke: #9acd32; stroke-width: 2.5"/>
    <path d="M 334.904458 166.270707 
L 377.504533 159.936029 
" clip-path="url(#p2b3536aac5)" style="fill: #9acd32; stroke: #9acd32; stroke-width: 2.5"/>
    <path d="M 195.960784 113.026278 
L 197.010551 70.89981 
" clip-path="url(#p2b3536aac5)" style="fill: #add8e6; stroke: #add8e6; stroke-width: 2.5"/>
   </g>
   <g id="VertexCollection_1">
    <path d="M 289.476662 290.154328 
C 291.067881 290.154328 292.594141 289.52213 293.719303 288.396968 
C 294.844464 287.271807 295.476662 285.745546 295.476662 284.154328 
C 295.476662 282.563109 294.844464 281.036848 293.719303 279.911687 
C 292.594141 278.786526 291.067881 278.154328 289.476662 278.154328 
C 287.885444 278.154328 286.359183 278.786526 285.234022 279.911687 
C 284.10886 281.036848 283.476662 282.563109 283.476662 284.154328 
C 283.476662 285.745546 284.10886 287.271807 285.234022 288.396968 
C 286.359183 289.52213 287.885444 290.154328 289.476662 290.154328 
z
" clip-path="url(#p2b3536aac5)" style="fill: #9acd32; stroke: #000000"/>
    <path d="M 184.597006 152.554006 
C 186.188224 152.554006 187.714485 151.921809 188.839646 150.796647 
C 189.964808 149.671486 190.597006 148.145225 190.597006 146.554006 
C 190.597006 144.962788 189.964808 143.436527 188.839646 142.311366 
C 187.714485 141.186204 186.188224 140.554006 184.597006 140.554006 
C 183.005787 140.554006 181.479526 141.186204 180.354365 142.311366 
C 179.229203 143.436527 178.597006 144.962788 178.597006 146.554006 
C 178.597006 148.145225 179.229203 149.671486 180.354365 150.796647 
C 181.479526 151.921809 183.005787 152.554006 184.597006 152.554006 
z
" clip-path="url(#p2b3536aac5)" style="fill: #add8e6; stroke: #000000"/>
    <path d="M 195.811314 125.024416 
C 197.402533 125.024416 198.928793 124.392218 200.053955 123.267056 
C 201.179116 122.141895 201.811314 120.615634 201.811314 119.024416 
C 201.811314 117.433197 201.179116 115.906937 200.053955 114.781775 
C 198.928793 113.656614 197.402533 113.024416 195.811314 113.024416 
C 194.220096 113.024416 192.693835 113.656614 191.568674 114.781775 
C 190.443512 115.906937 189.811314 117.433197 189.811314 119.024416 
C 189.811314 120.615634 190.443512 122.141895 191.568674 123.267056 
C 192.693835 124.392218 194.220096 125.024416 195.811314 125.024416 
z
" clip-path="url(#p2b3536aac5)" style="fill: #add8e6; stroke: #000000"/>
    <path d="M 117.597027 229.134365 
C 119.188245 229.134365 120.714506 228.502167 121.839667 227.377006 
C 122.964829 226.251844 123.597027 224.725583 123.597027 223.134365 
C 123.597027 221.543146 122.964829 220.016886 121.839667 218.891724 
C 120.714506 217.766563 119.188245 217.134365 117.597027 217.134365 
C 116.005808 217.134365 114.479547 217.766563 113.354386 218.891724 
C 112.229225 220.016886 111.597027 221.543146 111.597027 223.134365 
C 111.597027 224.725583 112.229225 226.251844 113.354386 227.377006 
C 114.479547 228.502167 116.005808 229.134365 117.597027 229.134365 
z
" clip-path="url(#p2b3536aac5)" style="fill: #add8e6; stroke: #000000"/>
    <path d="M 97.693281 97.929181 
C 99.2845 97.929181 100.81076 97.296983 101.935922 96.171822 
C 103.061083 95.04666 103.693281 93.520399 103.693281 91.929181 
C 103.693281 90.337962 103.061083 88.811702 101.935922 87.68654 
C 100.81076 86.561379 99.2845 85.929181 97.693281 85.929181 
C 96.102062 85.929181 94.575802 86.561379 93.45064 87.68654 
C 92.325479 88.811702 91.693281 90.337962 91.693281 91.929181 
C 91.693281 93.520399 92.325479 95.04666 93.45064 96.171822 
C 94.575802 97.296983 96.102062 97.929181 97.693281 97.929181 
z
" clip-path="url(#p2b3536aac5)" style="fill: #add8e6; stroke: #000000"/>
    <path d="M 360.234456 124.229926 
C 361.825674 124.229926 363.351935 123.597728 364.477096 122.472567 
C 365.602258 121.347405 366.234456 119.821145 366.234456 118.229926 
C 366.234456 116.638708 365.602258 115.112447 364.477096 113.987285 
C 363.351935 112.862124 361.825674 112.229926 360.234456 112.229926 
C 358.643237 112.229926 357.116977 112.862124 355.991815 113.987285 
C 354.866654 115.112447 354.234456 116.638708 354.234456 118.229926 
C 354.234456 119.821145 354.866654 121.347405 355.991815 122.472567 
C 357.116977 123.597728 358.643237 124.229926 360.234456 124.229926 
z
" clip-path="url(#p2b3536aac5)" style="fill: #9acd32; stroke: #000000"/>
    <path d="M 259.994694 117.941397 
C 261.585912 117.941397 263.112173 117.309199 264.237334 116.184038 
C 265.362496 115.058876 265.994694 113.532615 265.994694 111.941397 
C 265.994694 110.350178 265.362496 108.823918 264.237334 107.698756 
C 263.112173 106.573595 261.585912 105.941397 259.994694 105.941397 
C 258.403475 105.941397 256.877215 106.573595 255.752053 107.698756 
C 254.626892 108.823918 253.994694 110.350178 253.994694 111.941397 
C 253.994694 113.532615 254.626892 115.058876 255.752053 116.184038 
C 256.877215 117.309199 258.403475 117.941397 259.994694 117.941397 
z
" clip-path="url(#p2b3536aac5)" style="fill: #9acd32; stroke: #000000"/>
    <path d="M 271.665831 158.564129 
C 273.257049 158.564129 274.78331 157.931931 275.908471 156.80677 
C 277.033633 155.681608 277.665831 154.155348 277.665831 152.564129 
C 277.665831 150.97291 277.033633 149.44665 275.908471 148.321488 
C 274.78331 147.196327 273.257049 146.564129 271.665831 146.564129 
C 270.074612 146.564129 268.548351 147.196327 267.42319 148.321488 
C 266.298028 149.44665 265.665831 150.97291 265.665831 152.564129 
C 265.665831 154.155348 266.298028 155.681608 267.42319 156.80677 
C 268.548351 157.931931 270.074612 158.564129 271.665831 158.564129 
z
" clip-path="url(#p2b3536aac5)" style="fill: #9acd32; stroke: #000000"/>
    <path d="M 151.613541 165.743975 
C 153.20476 165.743975 154.73102 165.111778 155.856182 163.986616 
C 156.981343 162.861455 157.613541 161.335194 157.613541 159.743975 
C 157.613541 158.152757 156.981343 156.626496 155.856182 155.501335 
C 154.73102 154.376173 153.20476 153.743975 151.613541 153.743975 
C 150.022322 153.743975 148.496062 154.376173 147.3709 155.501335 
C 146.245739 156.626496 145.613541 158.152757 145.613541 159.743975 
C 145.613541 161.335194 146.245739 162.861455 147.3709 163.986616 
C 148.496062 165.111778 150.022322 165.743975 151.613541 165.743975 
z
" clip-path="url(#p2b3536aac5)" style="fill: #add8e6; stroke: #000000"/>
    <path d="M 223.765276 195.50554 
C 225.356494 195.50554 226.882755 194.873343 228.007916 193.748181 
C 229.133078 192.62302 229.765276 191.096759 229.765276 189.50554 
C 229.765276 187.914322 229.133078 186.388061 228.007916 185.2629 
C 226.882755 184.137738 225.356494 183.50554 223.765276 183.50554 
C 222.174057 183.50554 220.647796 184.137738 219.522635 185.2629 
C 218.397473 186.388061 217.765276 187.914322 217.765276 189.50554 
C 217.765276 191.096759 218.397473 192.62302 219.522635 193.748181 
C 220.647796 194.873343 222.174057 195.50554 223.765276 195.50554 
z
" clip-path="url(#p2b3536aac5)" style="fill: #9acd32; stroke: #000000"/>
    <path d="M 260.778211 243.872326 
C 262.36943 243.872326 263.89569 243.240128 265.020852 242.114967 
C 266.146013 240.989805 266.778211 239.463544 266.778211 237.872326 
C 266.778211 236.281107 266.146013 234.754847 265.020852 233.629685 
C 263.89569 232.504524 262.36943 231.872326 260.778211 231.872326 
C 259.186992 231.872326 257.660732 232.504524 256.53557 233.629685 
C 255.410409 234.754847 254.778211 236.281107 254.778211 237.872326 
C 254.778211 239.463544 255.410409 240.989805 256.53557 242.114967 
C 257.660732 243.240128 259.186992 243.872326 260.778211 243.872326 
z
" clip-path="url(#p2b3536aac5)" style="fill: #9acd32; stroke: #000000"/>
    <path d="M 88.880723 210.91943 
C 90.471942 210.91943 91.998202 210.287232 93.123364 209.162071 
C 94.248525 208.036909 94.880723 206.510649 94.880723 204.91943 
C 94.880723 203.328211 94.248525 201.801951 93.123364 200.676789 
C 91.998202 199.551628 90.471942 198.91943 88.880723 198.91943 
C 87.289504 198.91943 85.763244 199.551628 84.638082 200.676789 
C 83.512921 201.801951 82.880723 203.328211 82.880723 204.91943 
C 82.880723 206.510649 83.512921 208.036909 84.638082 209.162071 
C 85.763244 210.287232 87.289504 210.91943 88.880723 210.91943 
z
" clip-path="url(#p2b3536aac5)" style="fill: #add8e6; stroke: #000000"/>
    <path d="M 152.70842 265.562829 
C 154.299639 265.562829 155.8259 264.930631 156.951061 263.80547 
C 158.076223 262.680308 158.70842 261.154048 158.70842 259.562829 
C 158.70842 257.97161 158.076223 256.44535 156.951061 255.320188 
C 155.8259 254.195027 154.299639 253.562829 152.70842 253.562829 
C 151.117202 253.562829 149.590941 254.195027 148.46578 255.320188 
C 147.340618 256.44535 146.70842 257.97161 146.70842 259.562829 
C 146.70842 261.154048 147.340618 262.680308 148.46578 263.80547 
C 149.590941 264.930631 151.117202 265.562829 152.70842 265.562829 
z
" clip-path="url(#p2b3536aac5)" style="fill: #9acd32; stroke: #000000"/>
    <path d="M 219.690555 272.546153 
C 221.281774 272.546153 222.808034 271.913955 223.933196 270.788793 
C 225.058357 269.663632 225.690555 268.137371 225.690555 266.546153 
C 225.690555 264.954934 225.058357 263.428673 223.933196 262.303512 
C 222.808034 261.178351 221.281774 260.546153 219.690555 260.546153 
C 218.099336 260.546153 216.573076 261.178351 215.447914 262.303512 
C 214.322753 263.428673 213.690555 264.954934 213.690555 266.546153 
C 213.690555 268.137371 214.322753 269.663632 215.447914 270.788793 
C 216.573076 271.913955 218.099336 272.546153 219.690555 272.546153 
z
" clip-path="url(#p2b3536aac5)" style="fill: #9acd32; stroke: #000000"/>
    <path d="M 120.441709 142.719161 
C 122.032927 142.719161 123.559188 142.086963 124.68435 140.961802 
C 125.809511 139.83664 126.441709 138.31038 126.441709 136.719161 
C 126.441709 135.127942 125.809511 133.601682 124.68435 132.47652 
C 123.559188 131.351359 122.032927 130.719161 120.441709 130.719161 
C 118.85049 130.719161 117.32423 131.351359 116.199068 132.47652 
C 115.073907 133.601682 114.441709 135.127942 114.441709 136.719161 
C 114.441709 138.31038 115.073907 139.83664 116.199068 140.961802 
C 117.32423 142.086963 118.85049 142.719161 120.441709 142.719161 
z
" clip-path="url(#p2b3536aac5)" style="fill: #add8e6; stroke: #000000"/>
    <path d="M 222.79956 154.035767 
C 224.390779 154.035767 225.91704 153.403569 227.042201 152.278408 
C 228.167362 151.153247 228.79956 149.626986 228.79956 148.035767 
C 228.79956 146.444549 228.167362 144.918288 227.042201 143.793127 
C 225.91704 142.667965 224.390779 142.035767 222.79956 142.035767 
C 221.208342 142.035767 219.682081 142.667965 218.55692 143.793127 
C 217.431758 144.918288 216.79956 146.444549 216.79956 148.035767 
C 216.79956 149.626986 217.431758 151.153247 218.55692 152.278408 
C 219.682081 153.403569 221.208342 154.035767 222.79956 154.035767 
z
" clip-path="url(#p2b3536aac5)" style="fill: #add8e6; stroke: #000000"/>
    <path d="M 152.537363 107.842047 
C 154.128581 107.842047 155.654842 107.209849 156.780004 106.084688 
C 157.905165 104.959527 158.537363 103.433266 158.537363 101.842047 
C 158.537363 100.250829 157.905165 98.724568 156.780004 97.599407 
C 155.654842 96.474245 154.128581 95.842047 152.537363 95.842047 
C 150.946144 95.842047 149.419884 96.474245 148.294722 97.599407 
C 147.169561 98.724568 146.537363 100.250829 146.537363 101.842047 
C 146.537363 103.433266 147.169561 104.959527 148.294722 106.084688 
C 149.419884 107.209849 150.946144 107.842047 152.537363 107.842047 
z
" clip-path="url(#p2b3536aac5)" style="fill: #add8e6; stroke: #000000"/>
    <path d="M 131.799249 193.749749 
C 133.390467 193.749749 134.916728 193.117551 136.04189 191.992389 
C 137.167051 190.867228 137.799249 189.340967 137.799249 187.749749 
C 137.799249 186.15853 137.167051 184.632269 136.04189 183.507108 
C 134.916728 182.381946 133.390467 181.749749 131.799249 181.749749 
C 130.20803 181.749749 128.68177 182.381946 127.556608 183.507108 
C 126.431447 184.632269 125.799249 186.15853 125.799249 187.749749 
C 125.799249 189.340967 126.431447 190.867228 127.556608 191.992389 
C 128.68177 193.117551 130.20803 193.749749 131.799249 193.749749 
z
" clip-path="url(#p2b3536aac5)" style="fill: #add8e6; stroke: #000000"/>
    <path d="M 195.556689 252.946838 
C 197.147907 252.946838 198.674168 252.31464 199.799329 251.189479 
C 200.924491 250.064318 201.556689 248.538057 201.556689 246.946838 
C 201.556689 245.35562 200.924491 243.829359 199.799329 242.704198 
C 198.674168 241.579036 197.147907 240.946838 195.556689 240.946838 
C 193.96547 240.946838 192.439209 241.579036 191.314048 242.704198 
C 190.188887 243.829359 189.556689 245.35562 189.556689 246.946838 
C 189.556689 248.538057 190.188887 250.064318 191.314048 251.189479 
C 192.439209 252.31464 193.96547 252.946838 195.556689 252.946838 
z
" clip-path="url(#p2b3536aac5)" style="fill: #9acd32; stroke: #000000"/>
    <path d="M 374.593674 210.789961 
C 376.184893 210.789961 377.711153 210.157764 378.836315 209.032602 
C 379.961476 207.907441 380.593674 206.38118 380.593674 204.789961 
C 380.593674 203.198743 379.961476 201.672482 378.836315 200.547321 
C 377.711153 199.422159 376.184893 198.789961 374.593674 198.789961 
C 373.002456 198.789961 371.476195 199.422159 370.351034 200.547321 
C 369.225872 201.672482 368.593674 203.198743 368.593674 204.789961 
C 368.593674 206.38118 369.225872 207.907441 370.351034 209.032602 
C 371.476195 210.157764 373.002456 210.789961 374.593674 210.789961 
z
" clip-path="url(#p2b3536aac5)" style="fill: #9acd32; stroke: #000000"/>
    <path d="M 236.356418 212.142736 
C 237.947637 212.142736 239.473897 211.510538 240.599059 210.385376 
C 241.72422 209.260215 242.356418 207.733954 242.356418 206.142736 
C 242.356418 204.551517 241.72422 203.025256 240.599059 201.900095 
C 239.473897 200.774933 237.947637 200.142736 236.356418 200.142736 
C 234.7652 200.142736 233.238939 200.774933 232.113777 201.900095 
C 230.988616 203.025256 230.356418 204.551517 230.356418 206.142736 
C 230.356418 207.733954 230.988616 209.260215 232.113777 210.385376 
C 233.238939 211.510538 234.7652 212.142736 236.356418 212.142736 
z
" clip-path="url(#p2b3536aac5)" style="fill: #9acd32; stroke: #000000"/>
    <path d="M 192.26039 214.735341 
C 193.851609 214.735341 195.377869 214.103143 196.503031 212.977982 
C 197.628192 211.85282 198.26039 210.32656 198.26039 208.735341 
C 198.26039 207.144123 197.628192 205.617862 196.503031 204.492701 
C 195.377869 203.367539 193.851609 202.735341 192.26039 202.735341 
C 190.669171 202.735341 189.142911 203.367539 188.017749 204.492701 
C 186.892588 205.617862 186.26039 207.144123 186.26039 208.735341 
C 186.26039 210.32656 186.892588 211.85282 188.017749 212.977982 
C 189.142911 214.103143 190.669171 214.735341 192.26039 214.735341 
z
" clip-path="url(#p2b3536aac5)" style="fill: #add8e6; stroke: #000000"/>
    <path d="M 158.783191 228.642211 
C 160.374409 228.642211 161.90067 228.010013 163.025831 226.884852 
C 164.150993 225.75969 164.783191 224.23343 164.783191 222.642211 
C 164.783191 221.050992 164.150993 219.524732 163.025831 218.39957 
C 161.90067 217.274409 160.374409 216.642211 158.783191 216.642211 
C 157.191972 216.642211 155.665711 217.274409 154.54055 218.39957 
C 153.415388 219.524732 152.783191 221.050992 152.783191 222.642211 
C 152.783191 224.23343 153.415388 225.75969 154.54055 226.884852 
C 155.665711 228.010013 157.191972 228.642211 158.783191 228.642211 
z
" clip-path="url(#p2b3536aac5)" style="fill: #add8e6; stroke: #000000"/>
    <path d="M 89.92751 179.448529 
C 91.518728 179.448529 93.044989 178.816331 94.17015 177.69117 
C 95.295312 176.566008 95.92751 175.039748 95.92751 173.448529 
C 95.92751 171.857311 95.295312 170.33105 94.17015 169.205888 
C 93.044989 168.080727 91.518728 167.448529 89.92751 167.448529 
C 88.336291 167.448529 86.810031 168.080727 85.684869 169.205888 
C 84.559708 170.33105 83.92751 171.857311 83.92751 173.448529 
C 83.92751 175.039748 84.559708 176.566008 85.684869 177.69117 
C 86.810031 178.816331 88.336291 179.448529 89.92751 179.448529 
z
" clip-path="url(#p2b3536aac5)" style="fill: #add8e6; stroke: #000000"/>
    <path d="M 165.603996 193.784971 
C 167.195215 193.784971 168.721475 193.152773 169.846637 192.027612 
C 170.971798 190.90245 171.603996 189.37619 171.603996 187.784971 
C 171.603996 186.193753 170.971798 184.667492 169.846637 183.54233 
C 168.721475 182.417169 167.195215 181.784971 165.603996 181.784971 
C 164.012777 181.784971 162.486517 182.417169 161.361355 183.54233 
C 160.236194 184.667492 159.603996 186.193753 159.603996 187.784971 
C 159.603996 189.37619 160.236194 190.90245 161.361355 192.027612 
C 162.486517 193.152773 164.012777 193.784971 165.603996 193.784971 
z
" clip-path="url(#p2b3536aac5)" style="fill: #add8e6; stroke: #000000"/>
    <path d="M 291.230196 179.227381 
C 292.821415 179.227381 294.347676 178.595183 295.472837 177.470022 
C 296.597998 176.34486 297.230196 174.8186 297.230196 173.227381 
C 297.230196 171.636162 296.597998 170.109902 295.472837 168.98474 
C 294.347676 167.859579 292.821415 167.227381 291.230196 167.227381 
C 289.638978 167.227381 288.112717 167.859579 286.987556 168.98474 
C 285.862394 170.109902 285.230196 171.636162 285.230196 173.227381 
C 285.230196 174.8186 285.862394 176.34486 286.987556 177.470022 
C 288.112717 178.595183 289.638978 179.227381 291.230196 179.227381 
z
" clip-path="url(#p2b3536aac5)" style="fill: #9acd32; stroke: #000000"/>
    <path d="M 260.728484 183.887051 
C 262.319703 183.887051 263.845963 183.254853 264.971125 182.129692 
C 266.096286 181.00453 266.728484 179.47827 266.728484 177.887051 
C 266.728484 176.295833 266.096286 174.769572 264.971125 173.644411 
C 263.845963 172.519249 262.319703 171.887051 260.728484 171.887051 
C 259.137266 171.887051 257.611005 172.519249 256.485843 173.644411 
C 255.360682 174.769572 254.728484 176.295833 254.728484 177.887051 
C 254.728484 179.47827 255.360682 181.00453 256.485843 182.129692 
C 257.611005 183.254853 259.137266 183.887051 260.728484 183.887051 
z
" clip-path="url(#p2b3536aac5)" style="fill: #9acd32; stroke: #000000"/>
    <path d="M 328.969714 173.15321 
C 330.560932 173.15321 332.087193 172.521013 333.212354 171.395851 
C 334.337516 170.27069 334.969714 168.744429 334.969714 167.15321 
C 334.969714 165.561992 334.337516 164.035731 333.212354 162.91057 
C 332.087193 161.785408 330.560932 161.15321 328.969714 161.15321 
C 327.378495 161.15321 325.852235 161.785408 324.727073 162.91057 
C 323.601912 164.035731 322.969714 165.561992 322.969714 167.15321 
C 322.969714 168.744429 323.601912 170.27069 324.727073 171.395851 
C 325.852235 172.521013 327.378495 173.15321 328.969714 173.15321 
z
" clip-path="url(#p2b3536aac5)" style="fill: #9acd32; stroke: #000000"/>
    <path d="M 383.439277 165.053526 
C 385.030496 165.053526 386.556756 164.421328 387.681918 163.296166 
C 388.807079 162.171005 389.439277 160.644744 389.439277 159.053526 
C 389.439277 157.462307 388.807079 155.936046 387.681918 154.810885 
C 386.556756 153.685723 385.030496 153.053526 383.439277 153.053526 
C 381.848058 153.053526 380.321798 153.685723 379.196636 154.810885 
C 378.071475 155.936046 377.439277 157.462307 377.439277 159.053526 
C 377.439277 160.644744 378.071475 162.171005 379.196636 163.296166 
C 380.321798 164.421328 381.848058 165.053526 383.439277 165.053526 
z
" clip-path="url(#p2b3536aac5)" style="fill: #9acd32; stroke: #000000"/>
    <path d="M 197.160021 70.901672 
C 198.75124 70.901672 200.2775 70.269474 201.402662 69.144313 
C 202.527823 68.019152 203.160021 66.492891 203.160021 64.901672 
C 203.160021 63.310454 202.527823 61.784193 201.402662 60.659032 
C 200.2775 59.53387 198.75124 58.901672 197.160021 58.901672 
C 195.568802 58.901672 194.042542 59.53387 192.91738 60.659032 
C 191.792219 61.784193 191.160021 63.310454 191.160021 64.901672 
C 191.160021 66.492891 191.792219 68.019152 192.91738 69.144313 
C 194.042542 70.269474 195.568802 70.901672 197.160021 70.901672 
z
" clip-path="url(#p2b3536aac5)" style="fill: #add8e6; stroke: #000000"/>
   </g>
   <g id="text_1">
    <g clip-path="url(#p2b3536aac5)">
     <!-- 0 -->
     <g transform="translate(287.249787 286.08589) scale(0.07 -0.07)">
      <defs>
       <path id="DejaVuSans-30" d="M 2034 4250 
Q 1547 4250 1301 3770 
Q 1056 3291 1056 2328 
Q 1056 1369 1301 889 
Q 1547 409 2034 409 
Q 2525 409 2770 889 
Q 3016 1369 3016 2328 
Q 3016 3291 2770 3770 
Q 2525 4250 2034 4250 
z
M 2034 4750 
Q 2819 4750 3233 4129 
Q 3647 3509 3647 2328 
Q 3647 1150 3233 529 
Q 2819 -91 2034 -91 
Q 1250 -91 836 529 
Q 422 1150 422 2328 
Q 422 3509 836 4129 
Q 1250 4750 2034 4750 
z
" transform="scale(0.015625)"/>
      </defs>
      <use xlink:href="#DejaVuSans-30"/>
     </g>
    </g>
   </g>
   <g id="text_2">
    <g clip-path="url(#p2b3536aac5)">
     <!-- 1 -->
     <g transform="translate(182.370131 148.485569) scale(0.07 -0.07)">
      <defs>
       <path id="DejaVuSans-31" d="M 794 531 
L 1825 531 
L 1825 4091 
L 703 3866 
L 703 4441 
L 1819 4666 
L 2450 4666 
L 2450 531 
L 3481 531 
L 3481 0 
L 794 0 
L 794 531 
z
" transform="scale(0.015625)"/>
      </defs>
      <use xlink:href="#DejaVuSans-31"/>
     </g>
    </g>
   </g>
   <g id="text_3">
    <g clip-path="url(#p2b3536aac5)">
     <!-- 2 -->
     <g transform="translate(193.584439 120.955978) scale(0.07 -0.07)">
      <defs>
       <path id="DejaVuSans-32" d="M 1228 531 
L 3431 531 
L 3431 0 
L 469 0 
L 469 531 
Q 828 903 1448 1529 
Q 2069 2156 2228 2338 
Q 2531 2678 2651 2914 
Q 2772 3150 2772 3378 
Q 2772 3750 2511 3984 
Q 2250 4219 1831 4219 
Q 1534 4219 1204 4116 
Q 875 4013 500 3803 
L 500 4441 
Q 881 4594 1212 4672 
Q 1544 4750 1819 4750 
Q 2544 4750 2975 4387 
Q 3406 4025 3406 3419 
Q 3406 3131 3298 2873 
Q 3191 2616 2906 2266 
Q 2828 2175 2409 1742 
Q 1991 1309 1228 531 
z
" transform="scale(0.015625)"/>
      </defs>
      <use xlink:href="#DejaVuSans-32"/>
     </g>
    </g>
   </g>
   <g id="text_4">
    <g clip-path="url(#p2b3536aac5)">
     <!-- 3 -->
     <g transform="translate(115.370152 225.065927) scale(0.07 -0.07)">
      <defs>
       <path id="DejaVuSans-33" d="M 2597 2516 
Q 3050 2419 3304 2112 
Q 3559 1806 3559 1356 
Q 3559 666 3084 287 
Q 2609 -91 1734 -91 
Q 1441 -91 1130 -33 
Q 819 25 488 141 
L 488 750 
Q 750 597 1062 519 
Q 1375 441 1716 441 
Q 2309 441 2620 675 
Q 2931 909 2931 1356 
Q 2931 1769 2642 2001 
Q 2353 2234 1838 2234 
L 1294 2234 
L 1294 2753 
L 1863 2753 
Q 2328 2753 2575 2939 
Q 2822 3125 2822 3475 
Q 2822 3834 2567 4026 
Q 2313 4219 1838 4219 
Q 1578 4219 1281 4162 
Q 984 4106 628 3988 
L 628 4550 
Q 988 4650 1302 4700 
Q 1616 4750 1894 4750 
Q 2613 4750 3031 4423 
Q 3450 4097 3450 3541 
Q 3450 3153 3228 2886 
Q 3006 2619 2597 2516 
z
" transform="scale(0.015625)"/>
      </defs>
      <use xlink:href="#DejaVuSans-33"/>
     </g>
    </g>
   </g>
   <g id="text_5">
    <g clip-path="url(#p2b3536aac5)">
     <!-- 4 -->
     <g transform="translate(95.466406 93.860743) scale(0.07 -0.07)">
      <defs>
       <path id="DejaVuSans-34" d="M 2419 4116 
L 825 1625 
L 2419 1625 
L 2419 4116 
z
M 2253 4666 
L 3047 4666 
L 3047 1625 
L 3713 1625 
L 3713 1100 
L 3047 1100 
L 3047 0 
L 2419 0 
L 2419 1100 
L 313 1100 
L 313 1709 
L 2253 4666 
z
" transform="scale(0.015625)"/>
      </defs>
      <use xlink:href="#DejaVuSans-34"/>
     </g>
    </g>
   </g>
   <g id="text_6">
    <g clip-path="url(#p2b3536aac5)">
     <!-- 5 -->
     <g transform="translate(358.007581 120.161489) scale(0.07 -0.07)">
      <defs>
       <path id="DejaVuSans-35" d="M 691 4666 
L 3169 4666 
L 3169 4134 
L 1269 4134 
L 1269 2991 
Q 1406 3038 1543 3061 
Q 1681 3084 1819 3084 
Q 2600 3084 3056 2656 
Q 3513 2228 3513 1497 
Q 3513 744 3044 326 
Q 2575 -91 1722 -91 
Q 1428 -91 1123 -41 
Q 819 9 494 109 
L 494 744 
Q 775 591 1075 516 
Q 1375 441 1709 441 
Q 2250 441 2565 725 
Q 2881 1009 2881 1497 
Q 2881 1984 2565 2268 
Q 2250 2553 1709 2553 
Q 1456 2553 1204 2497 
Q 953 2441 691 2322 
L 691 4666 
z
" transform="scale(0.015625)"/>
      </defs>
      <use xlink:href="#DejaVuSans-35"/>
     </g>
    </g>
   </g>
   <g id="text_7">
    <g clip-path="url(#p2b3536aac5)">
     <!-- 6 -->
     <g transform="translate(257.767819 113.872959) scale(0.07 -0.07)">
      <defs>
       <path id="DejaVuSans-36" d="M 2113 2584 
Q 1688 2584 1439 2293 
Q 1191 2003 1191 1497 
Q 1191 994 1439 701 
Q 1688 409 2113 409 
Q 2538 409 2786 701 
Q 3034 994 3034 1497 
Q 3034 2003 2786 2293 
Q 2538 2584 2113 2584 
z
M 3366 4563 
L 3366 3988 
Q 3128 4100 2886 4159 
Q 2644 4219 2406 4219 
Q 1781 4219 1451 3797 
Q 1122 3375 1075 2522 
Q 1259 2794 1537 2939 
Q 1816 3084 2150 3084 
Q 2853 3084 3261 2657 
Q 3669 2231 3669 1497 
Q 3669 778 3244 343 
Q 2819 -91 2113 -91 
Q 1303 -91 875 529 
Q 447 1150 447 2328 
Q 447 3434 972 4092 
Q 1497 4750 2381 4750 
Q 2619 4750 2861 4703 
Q 3103 4656 3366 4563 
z
" transform="scale(0.015625)"/>
      </defs>
      <use xlink:href="#DejaVuSans-36"/>
     </g>
    </g>
   </g>
   <g id="text_8">
    <g clip-path="url(#p2b3536aac5)">
     <!-- 7 -->
     <g transform="translate(269.438956 154.495692) scale(0.07 -0.07)">
      <defs>
       <path id="DejaVuSans-37" d="M 525 4666 
L 3525 4666 
L 3525 4397 
L 1831 0 
L 1172 0 
L 2766 4134 
L 525 4134 
L 525 4666 
z
" transform="scale(0.015625)"/>
      </defs>
      <use xlink:href="#DejaVuSans-37"/>
     </g>
    </g>
   </g>
   <g id="text_9">
    <g clip-path="url(#p2b3536aac5)">
     <!-- 8 -->
     <g transform="translate(149.386666 161.675538) scale(0.07 -0.07)">
      <defs>
       <path id="DejaVuSans-38" d="M 2034 2216 
Q 1584 2216 1326 1975 
Q 1069 1734 1069 1313 
Q 1069 891 1326 650 
Q 1584 409 2034 409 
Q 2484 409 2743 651 
Q 3003 894 3003 1313 
Q 3003 1734 2745 1975 
Q 2488 2216 2034 2216 
z
M 1403 2484 
Q 997 2584 770 2862 
Q 544 3141 544 3541 
Q 544 4100 942 4425 
Q 1341 4750 2034 4750 
Q 2731 4750 3128 4425 
Q 3525 4100 3525 3541 
Q 3525 3141 3298 2862 
Q 3072 2584 2669 2484 
Q 3125 2378 3379 2068 
Q 3634 1759 3634 1313 
Q 3634 634 3220 271 
Q 2806 -91 2034 -91 
Q 1263 -91 848 271 
Q 434 634 434 1313 
Q 434 1759 690 2068 
Q 947 2378 1403 2484 
z
M 1172 3481 
Q 1172 3119 1398 2916 
Q 1625 2713 2034 2713 
Q 2441 2713 2670 2916 
Q 2900 3119 2900 3481 
Q 2900 3844 2670 4047 
Q 2441 4250 2034 4250 
Q 1625 4250 1398 4047 
Q 1172 3844 1172 3481 
z
" transform="scale(0.015625)"/>
      </defs>
      <use xlink:href="#DejaVuSans-38"/>
     </g>
    </g>
   </g>
   <g id="text_10">
    <g clip-path="url(#p2b3536aac5)">
     <!-- 9 -->
     <g transform="translate(221.538401 191.437103) scale(0.07 -0.07)">
      <defs>
       <path id="DejaVuSans-39" d="M 703 97 
L 703 672 
Q 941 559 1184 500 
Q 1428 441 1663 441 
Q 2288 441 2617 861 
Q 2947 1281 2994 2138 
Q 2813 1869 2534 1725 
Q 2256 1581 1919 1581 
Q 1219 1581 811 2004 
Q 403 2428 403 3163 
Q 403 3881 828 4315 
Q 1253 4750 1959 4750 
Q 2769 4750 3195 4129 
Q 3622 3509 3622 2328 
Q 3622 1225 3098 567 
Q 2575 -91 1691 -91 
Q 1453 -91 1209 -44 
Q 966 3 703 97 
z
M 1959 2075 
Q 2384 2075 2632 2365 
Q 2881 2656 2881 3163 
Q 2881 3666 2632 3958 
Q 2384 4250 1959 4250 
Q 1534 4250 1286 3958 
Q 1038 3666 1038 3163 
Q 1038 2656 1286 2365 
Q 1534 2075 1959 2075 
z
" transform="scale(0.015625)"/>
      </defs>
      <use xlink:href="#DejaVuSans-39"/>
     </g>
    </g>
   </g>
   <g id="text_11">
    <g clip-path="url(#p2b3536aac5)">
     <!-- 10 -->
     <g transform="translate(256.324461 239.803888) scale(0.07 -0.07)">
      <use xlink:href="#DejaVuSans-31"/>
      <use xlink:href="#DejaVuSans-30" x="63.623047"/>
     </g>
    </g>
   </g>
   <g id="text_12">
    <g clip-path="url(#p2b3536aac5)">
     <!-- 11 -->
     <g transform="translate(84.426973 206.850993) scale(0.07 -0.07)">
      <use xlink:href="#DejaVuSans-31"/>
      <use xlink:href="#DejaVuSans-31" x="63.623047"/>
     </g>
    </g>
   </g>
   <g id="text_13">
    <g clip-path="url(#p2b3536aac5)">
     <!-- 12 -->
     <g transform="translate(148.25467 261.494391) scale(0.07 -0.07)">
      <use xlink:href="#DejaVuSans-31"/>
      <use xlink:href="#DejaVuSans-32" x="63.623047"/>
     </g>
    </g>
   </g>
   <g id="text_14">
    <g clip-path="url(#p2b3536aac5)">
     <!-- 13 -->
     <g transform="translate(215.236805 268.477715) scale(0.07 -0.07)">
      <use xlink:href="#DejaVuSans-31"/>
      <use xlink:href="#DejaVuSans-33" x="63.623047"/>
     </g>
    </g>
   </g>
   <g id="text_15">
    <g clip-path="url(#p2b3536aac5)">
     <!-- 14 -->
     <g transform="translate(115.987959 138.650723) scale(0.07 -0.07)">
      <use xlink:href="#DejaVuSans-31"/>
      <use xlink:href="#DejaVuSans-34" x="63.623047"/>
     </g>
    </g>
   </g>
   <g id="text_16">
    <g clip-path="url(#p2b3536aac5)">
     <!-- 15 -->
     <g transform="translate(218.34581 149.96733) scale(0.07 -0.07)">
      <use xlink:href="#DejaVuSans-31"/>
      <use xlink:href="#DejaVuSans-35" x="63.623047"/>
     </g>
    </g>
   </g>
   <g id="text_17">
    <g clip-path="url(#p2b3536aac5)">
     <!-- 16 -->
     <g transform="translate(148.083613 103.77361) scale(0.07 -0.07)">
      <use xlink:href="#DejaVuSans-31"/>
      <use xlink:href="#DejaVuSans-36" x="63.623047"/>
     </g>
    </g>
   </g>
   <g id="text_18">
    <g clip-path="url(#p2b3536aac5)">
     <!-- 17 -->
     <g transform="translate(127.345499 189.681311) scale(0.07 -0.07)">
      <use xlink:href="#DejaVuSans-31"/>
      <use xlink:href="#DejaVuSans-37" x="63.623047"/>
     </g>
    </g>
   </g>
   <g id="text_19">
    <g clip-path="url(#p2b3536aac5)">
     <!-- 18 -->
     <g transform="translate(191.102939 248.878401) scale(0.07 -0.07)">
      <use xlink:href="#DejaVuSans-31"/>
      <use xlink:href="#DejaVuSans-38" x="63.623047"/>
     </g>
    </g>
   </g>
   <g id="text_20">
    <g clip-path="url(#p2b3536aac5)">
     <!-- 19 -->
     <g transform="translate(370.139924 206.721524) scale(0.07 -0.07)">
      <use xlink:href="#DejaVuSans-31"/>
      <use xlink:href="#DejaVuSans-39" x="63.623047"/>
     </g>
    </g>
   </g>
   <g id="text_21">
    <g clip-path="url(#p2b3536aac5)">
     <!-- 20 -->
     <g transform="translate(231.902668 208.074298) scale(0.07 -0.07)">
      <use xlink:href="#DejaVuSans-32"/>
      <use xlink:href="#DejaVuSans-30" x="63.623047"/>
     </g>
    </g>
   </g>
   <g id="text_22">
    <g clip-path="url(#p2b3536aac5)">
     <!-- 21 -->
     <g transform="translate(187.80664 210.666904) scale(0.07 -0.07)">
      <use xlink:href="#DejaVuSans-32"/>
      <use xlink:href="#DejaVuSans-31" x="63.623047"/>
     </g>
    </g>
   </g>
   <g id="text_23">
    <g clip-path="url(#p2b3536aac5)">
     <!-- 22 -->
     <g transform="translate(154.329441 224.573773) scale(0.07 -0.07)">
      <use xlink:href="#DejaVuSans-32"/>
      <use xlink:href="#DejaVuSans-32" x="63.623047"/>
     </g>
    </g>
   </g>
   <g id="text_24">
    <g clip-path="url(#p2b3536aac5)">
     <!-- 23 -->
     <g transform="translate(85.47376 175.380092) scale(0.07 -0.07)">
      <use xlink:href="#DejaVuSans-32"/>
      <use xlink:href="#DejaVuSans-33" x="63.623047"/>
     </g>
    </g>
   </g>
   <g id="text_25">
    <g clip-path="url(#p2b3536aac5)">
     <!-- 24 -->
     <g transform="translate(161.150246 189.716534) scale(0.07 -0.07)">
      <use xlink:href="#DejaVuSans-32"/>
      <use xlink:href="#DejaVuSans-34" x="63.623047"/>
     </g>
    </g>
   </g>
   <g id="text_26">
    <g clip-path="url(#p2b3536aac5)">
     <!-- 25 -->
     <g transform="translate(286.776446 175.158944) scale(0.07 -0.07)">
      <use xlink:href="#DejaVuSans-32"/>
      <use xlink:href="#DejaVuSans-35" x="63.623047"/>
     </g>
    </g>
   </g>
   <g id="text_27">
    <g clip-path="url(#p2b3536aac5)">
     <!-- 26 -->
     <g transform="translate(256.274734 179.818614) scale(0.07 -0.07)">
      <use xlink:href="#DejaVuSans-32"/>
      <use xlink:href="#DejaVuSans-36" x="63.623047"/>
     </g>
    </g>
   </g>
   <g id="text_28">
    <g clip-path="url(#p2b3536aac5)">
     <!-- 27 -->
     <g transform="translate(324.515964 169.084773) scale(0.07 -0.07)">
      <use xlink:href="#DejaVuSans-32"/>
      <use xlink:href="#DejaVuSans-37" x="63.623047"/>
     </g>
    </g>
   </g>
   <g id="text_29">
    <g clip-path="url(#p2b3536aac5)">
     <!-- 28 -->
     <g transform="translate(378.985527 160.985088) scale(0.07 -0.07)">
      <use xlink:href="#DejaVuSans-32"/>
      <use xlink:href="#DejaVuSans-38" x="63.623047"/>
     </g>
    </g>
   </g>
   <g id="text_30">
    <g clip-path="url(#p2b3536aac5)">
     <!-- 29 -->
     <g transform="translate(192.706271 66.833235) scale(0.07 -0.07)">
      <use xlink:href="#DejaVuSans-32"/>
      <use xlink:href="#DejaVuSans-39" x="63.623047"/>
     </g>
    </g>
   </g>
   <g id="PathCollection_1"/>
   <g id="PathCollection_2"/>
   <g id="matplotlib.axis_1"/>
   <g id="matplotlib.axis_2"/>
   <g id="text_31">
    <g id="patch_3">
     <path d="M 277.19385 83.020553 
L 407.5776 83.020553 
Q 414.5776 83.020553 414.5776 76.020553 
L 414.5776 46.79424 
Q 414.5776 39.79424 407.5776 39.79424 
L 277.19385 39.79424 
Q 270.19385 39.79424 270.19385 46.79424 
L 270.19385 76.020553 
Q 270.19385 83.020553 277.19385 83.020553 
z
" style="fill: #ffffff; opacity: 0.2; stroke: #000000; stroke-linejoin: miter"/>
    </g>
    <!-- Total Cuts: 8 -->
    <g transform="translate(320.930725 57.432052) scale(0.14 -0.14)">
     <defs>
      <path id="DejaVuSans-54" d="M -19 4666 
L 3928 4666 
L 3928 4134 
L 2272 4134 
L 2272 0 
L 1638 0 
L 1638 4134 
L -19 4134 
L -19 4666 
z
" transform="scale(0.015625)"/>
      <path id="DejaVuSans-6f" d="M 1959 3097 
Q 1497 3097 1228 2736 
Q 959 2375 959 1747 
Q 959 1119 1226 758 
Q 1494 397 1959 397 
Q 2419 397 2687 759 
Q 2956 1122 2956 1747 
Q 2956 2369 2687 2733 
Q 2419 3097 1959 3097 
z
M 1959 3584 
Q 2709 3584 3137 3096 
Q 3566 2609 3566 1747 
Q 3566 888 3137 398 
Q 2709 -91 1959 -91 
Q 1206 -91 779 398 
Q 353 888 353 1747 
Q 353 2609 779 3096 
Q 1206 3584 1959 3584 
z
" transform="scale(0.015625)"/>
      <path id="DejaVuSans-74" d="M 1172 4494 
L 1172 3500 
L 2356 3500 
L 2356 3053 
L 1172 3053 
L 1172 1153 
Q 1172 725 1289 603 
Q 1406 481 1766 481 
L 2356 481 
L 2356 0 
L 1766 0 
Q 1100 0 847 248 
Q 594 497 594 1153 
L 594 3053 
L 172 3053 
L 172 3500 
L 594 3500 
L 594 4494 
L 1172 4494 
z
" transform="scale(0.015625)"/>
      <path id="DejaVuSans-61" d="M 2194 1759 
Q 1497 1759 1228 1600 
Q 959 1441 959 1056 
Q 959 750 1161 570 
Q 1363 391 1709 391 
Q 2188 391 2477 730 
Q 2766 1069 2766 1631 
L 2766 1759 
L 2194 1759 
z
M 3341 1997 
L 3341 0 
L 2766 0 
L 2766 531 
Q 2569 213 2275 61 
Q 1981 -91 1556 -91 
Q 1019 -91 701 211 
Q 384 513 384 1019 
Q 384 1609 779 1909 
Q 1175 2209 1959 2209 
L 2766 2209 
L 2766 2266 
Q 2766 2663 2505 2880 
Q 2244 3097 1772 3097 
Q 1472 3097 1187 3025 
Q 903 2953 641 2809 
L 641 3341 
Q 956 3463 1253 3523 
Q 1550 3584 1831 3584 
Q 2591 3584 2966 3190 
Q 3341 2797 3341 1997 
z
" transform="scale(0.015625)"/>
      <path id="DejaVuSans-6c" d="M 603 4863 
L 1178 4863 
L 1178 0 
L 603 0 
L 603 4863 
z
" transform="scale(0.015625)"/>
      <path id="DejaVuSans-20" transform="scale(0.015625)"/>
      <path id="DejaVuSans-43" d="M 4122 4306 
L 4122 3641 
Q 3803 3938 3442 4084 
Q 3081 4231 2675 4231 
Q 1875 4231 1450 3742 
Q 1025 3253 1025 2328 
Q 1025 1406 1450 917 
Q 1875 428 2675 428 
Q 3081 428 3442 575 
Q 3803 722 4122 1019 
L 4122 359 
Q 3791 134 3420 21 
Q 3050 -91 2638 -91 
Q 1578 -91 968 557 
Q 359 1206 359 2328 
Q 359 3453 968 4101 
Q 1578 4750 2638 4750 
Q 3056 4750 3426 4639 
Q 3797 4528 4122 4306 
z
" transform="scale(0.015625)"/>
      <path id="DejaVuSans-75" d="M 544 1381 
L 544 3500 
L 1119 3500 
L 1119 1403 
Q 1119 906 1312 657 
Q 1506 409 1894 409 
Q 2359 409 2629 706 
Q 2900 1003 2900 1516 
L 2900 3500 
L 3475 3500 
L 3475 0 
L 2900 0 
L 2900 538 
Q 2691 219 2414 64 
Q 2138 -91 1772 -91 
Q 1169 -91 856 284 
Q 544 659 544 1381 
z
M 1991 3584 
L 1991 3584 
z
" transform="scale(0.015625)"/>
      <path id="DejaVuSans-73" d="M 2834 3397 
L 2834 2853 
Q 2591 2978 2328 3040 
Q 2066 3103 1784 3103 
Q 1356 3103 1142 2972 
Q 928 2841 928 2578 
Q 928 2378 1081 2264 
Q 1234 2150 1697 2047 
L 1894 2003 
Q 2506 1872 2764 1633 
Q 3022 1394 3022 966 
Q 3022 478 2636 193 
Q 2250 -91 1575 -91 
Q 1294 -91 989 -36 
Q 684 19 347 128 
L 347 722 
Q 666 556 975 473 
Q 1284 391 1588 391 
Q 1994 391 2212 530 
Q 2431 669 2431 922 
Q 2431 1156 2273 1281 
Q 2116 1406 1581 1522 
L 1381 1569 
Q 847 1681 609 1914 
Q 372 2147 372 2553 
Q 372 3047 722 3315 
Q 1072 3584 1716 3584 
Q 2034 3584 2315 3537 
Q 2597 3491 2834 3397 
z
" transform="scale(0.015625)"/>
      <path id="DejaVuSans-3a" d="M 750 794 
L 1409 794 
L 1409 0 
L 750 0 
L 750 794 
z
M 750 3309 
L 1409 3309 
L 1409 2516 
L 750 2516 
L 750 3309 
z
" transform="scale(0.015625)"/>
     </defs>
     <use xlink:href="#DejaVuSans-54"/>
     <use xlink:href="#DejaVuSans-6f" x="44.083984"/>
     <use xlink:href="#DejaVuSans-74" x="105.265625"/>
     <use xlink:href="#DejaVuSans-61" x="144.474609"/>
     <use xlink:href="#DejaVuSans-6c" x="205.753906"/>
     <use xlink:href="#DejaVuSans-20" x="233.537109"/>
     <use xlink:href="#DejaVuSans-43" x="265.324219"/>
     <use xlink:href="#DejaVuSans-75" x="335.148438"/>
     <use xlink:href="#DejaVuSans-74" x="398.527344"/>
     <use xlink:href="#DejaVuSans-73" x="437.736328"/>
     <use xlink:href="#DejaVuSans-3a" x="489.835938"/>
     <use xlink:href="#DejaVuSans-20" x="523.527344"/>
     <use xlink:href="#DejaVuSans-38" x="555.314453"/>
    </g>
    <!-- Runtime (s): 0.036 -->
    <g transform="translate(277.19385 73.10899) scale(0.14 -0.14)">
     <defs>
      <path id="DejaVuSans-52" d="M 2841 2188 
Q 3044 2119 3236 1894 
Q 3428 1669 3622 1275 
L 4263 0 
L 3584 0 
L 2988 1197 
Q 2756 1666 2539 1819 
Q 2322 1972 1947 1972 
L 1259 1972 
L 1259 0 
L 628 0 
L 628 4666 
L 2053 4666 
Q 2853 4666 3247 4331 
Q 3641 3997 3641 3322 
Q 3641 2881 3436 2590 
Q 3231 2300 2841 2188 
z
M 1259 4147 
L 1259 2491 
L 2053 2491 
Q 2509 2491 2742 2702 
Q 2975 2913 2975 3322 
Q 2975 3731 2742 3939 
Q 2509 4147 2053 4147 
L 1259 4147 
z
" transform="scale(0.015625)"/>
      <path id="DejaVuSans-6e" d="M 3513 2113 
L 3513 0 
L 2938 0 
L 2938 2094 
Q 2938 2591 2744 2837 
Q 2550 3084 2163 3084 
Q 1697 3084 1428 2787 
Q 1159 2491 1159 1978 
L 1159 0 
L 581 0 
L 581 3500 
L 1159 3500 
L 1159 2956 
Q 1366 3272 1645 3428 
Q 1925 3584 2291 3584 
Q 2894 3584 3203 3211 
Q 3513 2838 3513 2113 
z
" transform="scale(0.015625)"/>
      <path id="DejaVuSans-69" d="M 603 3500 
L 1178 3500 
L 1178 0 
L 603 0 
L 603 3500 
z
M 603 4863 
L 1178 4863 
L 1178 4134 
L 603 4134 
L 603 4863 
z
" transform="scale(0.015625)"/>
      <path id="DejaVuSans-6d" d="M 3328 2828 
Q 3544 3216 3844 3400 
Q 4144 3584 4550 3584 
Q 5097 3584 5394 3201 
Q 5691 2819 5691 2113 
L 5691 0 
L 5113 0 
L 5113 2094 
Q 5113 2597 4934 2840 
Q 4756 3084 4391 3084 
Q 3944 3084 3684 2787 
Q 3425 2491 3425 1978 
L 3425 0 
L 2847 0 
L 2847 2094 
Q 2847 2600 2669 2842 
Q 2491 3084 2119 3084 
Q 1678 3084 1418 2786 
Q 1159 2488 1159 1978 
L 1159 0 
L 581 0 
L 581 3500 
L 1159 3500 
L 1159 2956 
Q 1356 3278 1631 3431 
Q 1906 3584 2284 3584 
Q 2666 3584 2933 3390 
Q 3200 3197 3328 2828 
z
" transform="scale(0.015625)"/>
      <path id="DejaVuSans-65" d="M 3597 1894 
L 3597 1613 
L 953 1613 
Q 991 1019 1311 708 
Q 1631 397 2203 397 
Q 2534 397 2845 478 
Q 3156 559 3463 722 
L 3463 178 
Q 3153 47 2828 -22 
Q 2503 -91 2169 -91 
Q 1331 -91 842 396 
Q 353 884 353 1716 
Q 353 2575 817 3079 
Q 1281 3584 2069 3584 
Q 2775 3584 3186 3129 
Q 3597 2675 3597 1894 
z
M 3022 2063 
Q 3016 2534 2758 2815 
Q 2500 3097 2075 3097 
Q 1594 3097 1305 2825 
Q 1016 2553 972 2059 
L 3022 2063 
z
" transform="scale(0.015625)"/>
      <path id="DejaVuSans-28" d="M 1984 4856 
Q 1566 4138 1362 3434 
Q 1159 2731 1159 2009 
Q 1159 1288 1364 580 
Q 1569 -128 1984 -844 
L 1484 -844 
Q 1016 -109 783 600 
Q 550 1309 550 2009 
Q 550 2706 781 3412 
Q 1013 4119 1484 4856 
L 1984 4856 
z
" transform="scale(0.015625)"/>
      <path id="DejaVuSans-29" d="M 513 4856 
L 1013 4856 
Q 1481 4119 1714 3412 
Q 1947 2706 1947 2009 
Q 1947 1309 1714 600 
Q 1481 -109 1013 -844 
L 513 -844 
Q 928 -128 1133 580 
Q 1338 1288 1338 2009 
Q 1338 2731 1133 3434 
Q 928 4138 513 4856 
z
" transform="scale(0.015625)"/>
      <path id="DejaVuSans-2e" d="M 684 794 
L 1344 794 
L 1344 0 
L 684 0 
L 684 794 
z
" transform="scale(0.015625)"/>
     </defs>
     <use xlink:href="#DejaVuSans-52"/>
     <use xlink:href="#DejaVuSans-75" x="64.982422"/>
     <use xlink:href="#DejaVuSans-6e" x="128.361328"/>
     <use xlink:href="#DejaVuSans-74" x="191.740234"/>
     <use xlink:href="#DejaVuSans-69" x="230.949219"/>
     <use xlink:href="#DejaVuSans-6d" x="258.732422"/>
     <use xlink:href="#DejaVuSans-65" x="356.144531"/>
     <use xlink:href="#DejaVuSans-20" x="417.667969"/>
     <use xlink:href="#DejaVuSans-28" x="449.455078"/>
     <use xlink:href="#DejaVuSans-73" x="488.46875"/>
     <use xlink:href="#DejaVuSans-29" x="540.568359"/>
     <use xlink:href="#DejaVuSans-3a" x="579.582031"/>
     <use xlink:href="#DejaVuSans-20" x="613.273438"/>
     <use xlink:href="#DejaVuSans-30" x="645.060547"/>
     <use xlink:href="#DejaVuSans-2e" x="708.683594"/>
     <use xlink:href="#DejaVuSans-30" x="740.470703"/>
     <use xlink:href="#DejaVuSans-33" x="804.09375"/>
     <use xlink:href="#DejaVuSans-36" x="867.716797"/>
    </g>
   </g>
   <g id="text_32">
    <!-- Weightless, 30 vertices, 11.494% density -->
    <g transform="translate(73.105937 35.472) scale(0.14 -0.14)">
     <defs>
      <path id="DejaVuSans-Bold-57" d="M 191 4666 
L 1344 4666 
L 2150 1275 
L 2950 4666 
L 4109 4666 
L 4909 1275 
L 5716 4666 
L 6859 4666 
L 5759 0 
L 4372 0 
L 3525 3547 
L 2688 0 
L 1300 0 
L 191 4666 
z
" transform="scale(0.015625)"/>
      <path id="DejaVuSans-Bold-65" d="M 4031 1759 
L 4031 1441 
L 1416 1441 
Q 1456 1047 1700 850 
Q 1944 653 2381 653 
Q 2734 653 3104 758 
Q 3475 863 3866 1075 
L 3866 213 
Q 3469 63 3072 -14 
Q 2675 -91 2278 -91 
Q 1328 -91 801 392 
Q 275 875 275 1747 
Q 275 2603 792 3093 
Q 1309 3584 2216 3584 
Q 3041 3584 3536 3087 
Q 4031 2591 4031 1759 
z
M 2881 2131 
Q 2881 2450 2695 2645 
Q 2509 2841 2209 2841 
Q 1884 2841 1681 2658 
Q 1478 2475 1428 2131 
L 2881 2131 
z
" transform="scale(0.015625)"/>
      <path id="DejaVuSans-Bold-69" d="M 538 3500 
L 1656 3500 
L 1656 0 
L 538 0 
L 538 3500 
z
M 538 4863 
L 1656 4863 
L 1656 3950 
L 538 3950 
L 538 4863 
z
" transform="scale(0.015625)"/>
      <path id="DejaVuSans-Bold-67" d="M 2919 594 
Q 2688 288 2409 144 
Q 2131 0 1766 0 
Q 1125 0 706 504 
Q 288 1009 288 1791 
Q 288 2575 706 3076 
Q 1125 3578 1766 3578 
Q 2131 3578 2409 3434 
Q 2688 3291 2919 2981 
L 2919 3500 
L 4044 3500 
L 4044 353 
Q 4044 -491 3511 -936 
Q 2978 -1381 1966 -1381 
Q 1638 -1381 1331 -1331 
Q 1025 -1281 716 -1178 
L 716 -306 
Q 1009 -475 1290 -558 
Q 1572 -641 1856 -641 
Q 2406 -641 2662 -400 
Q 2919 -159 2919 353 
L 2919 594 
z
M 2181 2772 
Q 1834 2772 1640 2515 
Q 1447 2259 1447 1791 
Q 1447 1309 1634 1061 
Q 1822 813 2181 813 
Q 2531 813 2725 1069 
Q 2919 1325 2919 1791 
Q 2919 2259 2725 2515 
Q 2531 2772 2181 2772 
z
" transform="scale(0.015625)"/>
      <path id="DejaVuSans-Bold-68" d="M 4056 2131 
L 4056 0 
L 2931 0 
L 2931 347 
L 2931 1625 
Q 2931 2084 2911 2256 
Q 2891 2428 2841 2509 
Q 2775 2619 2662 2680 
Q 2550 2741 2406 2741 
Q 2056 2741 1856 2470 
Q 1656 2200 1656 1722 
L 1656 0 
L 538 0 
L 538 4863 
L 1656 4863 
L 1656 2988 
Q 1909 3294 2193 3439 
Q 2478 3584 2822 3584 
Q 3428 3584 3742 3212 
Q 4056 2841 4056 2131 
z
" transform="scale(0.015625)"/>
      <path id="DejaVuSans-Bold-74" d="M 1759 4494 
L 1759 3500 
L 2913 3500 
L 2913 2700 
L 1759 2700 
L 1759 1216 
Q 1759 972 1856 886 
Q 1953 800 2241 800 
L 2816 800 
L 2816 0 
L 1856 0 
Q 1194 0 917 276 
Q 641 553 641 1216 
L 641 2700 
L 84 2700 
L 84 3500 
L 641 3500 
L 641 4494 
L 1759 4494 
z
" transform="scale(0.015625)"/>
      <path id="DejaVuSans-Bold-6c" d="M 538 4863 
L 1656 4863 
L 1656 0 
L 538 0 
L 538 4863 
z
" transform="scale(0.015625)"/>
      <path id="DejaVuSans-Bold-73" d="M 3272 3391 
L 3272 2541 
Q 2913 2691 2578 2766 
Q 2244 2841 1947 2841 
Q 1628 2841 1473 2761 
Q 1319 2681 1319 2516 
Q 1319 2381 1436 2309 
Q 1553 2238 1856 2203 
L 2053 2175 
Q 2913 2066 3209 1816 
Q 3506 1566 3506 1031 
Q 3506 472 3093 190 
Q 2681 -91 1863 -91 
Q 1516 -91 1145 -36 
Q 775 19 384 128 
L 384 978 
Q 719 816 1070 734 
Q 1422 653 1784 653 
Q 2113 653 2278 743 
Q 2444 834 2444 1013 
Q 2444 1163 2330 1236 
Q 2216 1309 1875 1350 
L 1678 1375 
Q 931 1469 631 1722 
Q 331 1975 331 2491 
Q 331 3047 712 3315 
Q 1094 3584 1881 3584 
Q 2191 3584 2531 3537 
Q 2872 3491 3272 3391 
z
" transform="scale(0.015625)"/>
      <path id="DejaVuSans-Bold-2c" d="M 653 1209 
L 1778 1209 
L 1778 256 
L 1006 -909 
L 341 -909 
L 653 256 
L 653 1209 
z
" transform="scale(0.015625)"/>
      <path id="DejaVuSans-Bold-20" transform="scale(0.015625)"/>
      <path id="DejaVuSans-Bold-33" d="M 2981 2516 
Q 3453 2394 3698 2092 
Q 3944 1791 3944 1325 
Q 3944 631 3412 270 
Q 2881 -91 1863 -91 
Q 1503 -91 1142 -33 
Q 781 25 428 141 
L 428 1069 
Q 766 900 1098 814 
Q 1431 728 1753 728 
Q 2231 728 2486 893 
Q 2741 1059 2741 1369 
Q 2741 1688 2480 1852 
Q 2219 2016 1709 2016 
L 1228 2016 
L 1228 2791 
L 1734 2791 
Q 2188 2791 2409 2933 
Q 2631 3075 2631 3366 
Q 2631 3634 2415 3781 
Q 2200 3928 1806 3928 
Q 1516 3928 1219 3862 
Q 922 3797 628 3669 
L 628 4550 
Q 984 4650 1334 4700 
Q 1684 4750 2022 4750 
Q 2931 4750 3382 4451 
Q 3834 4153 3834 3553 
Q 3834 3144 3618 2883 
Q 3403 2622 2981 2516 
z
" transform="scale(0.015625)"/>
      <path id="DejaVuSans-Bold-30" d="M 2944 2338 
Q 2944 3213 2780 3570 
Q 2616 3928 2228 3928 
Q 1841 3928 1675 3570 
Q 1509 3213 1509 2338 
Q 1509 1453 1675 1090 
Q 1841 728 2228 728 
Q 2613 728 2778 1090 
Q 2944 1453 2944 2338 
z
M 4147 2328 
Q 4147 1169 3647 539 
Q 3147 -91 2228 -91 
Q 1306 -91 806 539 
Q 306 1169 306 2328 
Q 306 3491 806 4120 
Q 1306 4750 2228 4750 
Q 3147 4750 3647 4120 
Q 4147 3491 4147 2328 
z
" transform="scale(0.015625)"/>
      <path id="DejaVuSans-Bold-76" d="M 97 3500 
L 1216 3500 
L 2088 1081 
L 2956 3500 
L 4078 3500 
L 2700 0 
L 1472 0 
L 97 3500 
z
" transform="scale(0.015625)"/>
      <path id="DejaVuSans-Bold-72" d="M 3138 2547 
Q 2991 2616 2845 2648 
Q 2700 2681 2553 2681 
Q 2122 2681 1889 2404 
Q 1656 2128 1656 1613 
L 1656 0 
L 538 0 
L 538 3500 
L 1656 3500 
L 1656 2925 
Q 1872 3269 2151 3426 
Q 2431 3584 2822 3584 
Q 2878 3584 2943 3579 
Q 3009 3575 3134 3559 
L 3138 2547 
z
" transform="scale(0.015625)"/>
      <path id="DejaVuSans-Bold-63" d="M 3366 3391 
L 3366 2478 
Q 3138 2634 2908 2709 
Q 2678 2784 2431 2784 
Q 1963 2784 1702 2511 
Q 1441 2238 1441 1747 
Q 1441 1256 1702 982 
Q 1963 709 2431 709 
Q 2694 709 2930 787 
Q 3166 866 3366 1019 
L 3366 103 
Q 3103 6 2833 -42 
Q 2563 -91 2291 -91 
Q 1344 -91 809 395 
Q 275 881 275 1747 
Q 275 2613 809 3098 
Q 1344 3584 2291 3584 
Q 2566 3584 2833 3536 
Q 3100 3488 3366 3391 
z
" transform="scale(0.015625)"/>
      <path id="DejaVuSans-Bold-31" d="M 750 831 
L 1813 831 
L 1813 3847 
L 722 3622 
L 722 4441 
L 1806 4666 
L 2950 4666 
L 2950 831 
L 4013 831 
L 4013 0 
L 750 0 
L 750 831 
z
" transform="scale(0.015625)"/>
      <path id="DejaVuSans-Bold-2e" d="M 653 1209 
L 1778 1209 
L 1778 0 
L 653 0 
L 653 1209 
z
" transform="scale(0.015625)"/>
      <path id="DejaVuSans-Bold-34" d="M 2356 3675 
L 1038 1722 
L 2356 1722 
L 2356 3675 
z
M 2156 4666 
L 3494 4666 
L 3494 1722 
L 4159 1722 
L 4159 850 
L 3494 850 
L 3494 0 
L 2356 0 
L 2356 850 
L 288 850 
L 288 1881 
L 2156 4666 
z
" transform="scale(0.015625)"/>
      <path id="DejaVuSans-Bold-39" d="M 641 103 
L 641 966 
Q 928 831 1190 764 
Q 1453 697 1709 697 
Q 2247 697 2547 995 
Q 2847 1294 2900 1881 
Q 2688 1725 2447 1647 
Q 2206 1569 1925 1569 
Q 1209 1569 770 1986 
Q 331 2403 331 3084 
Q 331 3838 820 4291 
Q 1309 4744 2131 4744 
Q 3044 4744 3544 4128 
Q 4044 3513 4044 2388 
Q 4044 1231 3459 570 
Q 2875 -91 1856 -91 
Q 1528 -91 1228 -42 
Q 928 6 641 103 
z
M 2125 2350 
Q 2441 2350 2600 2554 
Q 2759 2759 2759 3169 
Q 2759 3575 2600 3781 
Q 2441 3988 2125 3988 
Q 1809 3988 1650 3781 
Q 1491 3575 1491 3169 
Q 1491 2759 1650 2554 
Q 1809 2350 2125 2350 
z
" transform="scale(0.015625)"/>
      <path id="DejaVuSans-Bold-25" d="M 4959 1925 
Q 4738 1925 4616 1733 
Q 4494 1541 4494 1184 
Q 4494 825 4614 633 
Q 4734 441 4959 441 
Q 5184 441 5303 633 
Q 5422 825 5422 1184 
Q 5422 1541 5301 1733 
Q 5181 1925 4959 1925 
z
M 4959 2450 
Q 5541 2450 5875 2112 
Q 6209 1775 6209 1184 
Q 6209 594 5875 251 
Q 5541 -91 4959 -91 
Q 4378 -91 4042 251 
Q 3706 594 3706 1184 
Q 3706 1772 4042 2111 
Q 4378 2450 4959 2450 
z
M 2094 -91 
L 1403 -91 
L 4319 4750 
L 5013 4750 
L 2094 -91 
z
M 1453 4750 
Q 2034 4750 2367 4411 
Q 2700 4072 2700 3481 
Q 2700 2891 2367 2550 
Q 2034 2209 1453 2209 
Q 872 2209 539 2550 
Q 206 2891 206 3481 
Q 206 4072 539 4411 
Q 872 4750 1453 4750 
z
M 1453 4225 
Q 1228 4225 1106 4031 
Q 984 3838 984 3481 
Q 984 3122 1106 2926 
Q 1228 2731 1453 2731 
Q 1678 2731 1798 2926 
Q 1919 3122 1919 3481 
Q 1919 3838 1797 4031 
Q 1675 4225 1453 4225 
z
" transform="scale(0.015625)"/>
      <path id="DejaVuSans-Bold-64" d="M 2919 2988 
L 2919 4863 
L 4044 4863 
L 4044 0 
L 2919 0 
L 2919 506 
Q 2688 197 2409 53 
Q 2131 -91 1766 -91 
Q 1119 -91 703 423 
Q 288 938 288 1747 
Q 288 2556 703 3070 
Q 1119 3584 1766 3584 
Q 2128 3584 2408 3439 
Q 2688 3294 2919 2988 
z
M 2181 722 
Q 2541 722 2730 984 
Q 2919 1247 2919 1747 
Q 2919 2247 2730 2509 
Q 2541 2772 2181 2772 
Q 1825 2772 1636 2509 
Q 1447 2247 1447 1747 
Q 1447 1247 1636 984 
Q 1825 722 2181 722 
z
" transform="scale(0.015625)"/>
      <path id="DejaVuSans-Bold-6e" d="M 4056 2131 
L 4056 0 
L 2931 0 
L 2931 347 
L 2931 1631 
Q 2931 2084 2911 2256 
Q 2891 2428 2841 2509 
Q 2775 2619 2662 2680 
Q 2550 2741 2406 2741 
Q 2056 2741 1856 2470 
Q 1656 2200 1656 1722 
L 1656 0 
L 538 0 
L 538 3500 
L 1656 3500 
L 1656 2988 
Q 1909 3294 2193 3439 
Q 2478 3584 2822 3584 
Q 3428 3584 3742 3212 
Q 4056 2841 4056 2131 
z
" transform="scale(0.015625)"/>
      <path id="DejaVuSans-Bold-79" d="M 78 3500 
L 1197 3500 
L 2138 1125 
L 2938 3500 
L 4056 3500 
L 2584 -331 
Q 2363 -916 2067 -1148 
Q 1772 -1381 1288 -1381 
L 641 -1381 
L 641 -647 
L 991 -647 
Q 1275 -647 1404 -556 
Q 1534 -466 1606 -231 
L 1638 -134 
L 78 3500 
z
" transform="scale(0.015625)"/>
     </defs>
     <use xlink:href="#DejaVuSans-Bold-57"/>
     <use xlink:href="#DejaVuSans-Bold-65" x="106.677734"/>
     <use xlink:href="#DejaVuSans-Bold-69" x="174.5"/>
     <use xlink:href="#DejaVuSans-Bold-67" x="208.777344"/>
     <use xlink:href="#DejaVuSans-Bold-68" x="280.359375"/>
     <use xlink:href="#DejaVuSans-Bold-74" x="351.550781"/>
     <use xlink:href="#DejaVuSans-Bold-6c" x="399.353516"/>
     <use xlink:href="#DejaVuSans-Bold-65" x="433.630859"/>
     <use xlink:href="#DejaVuSans-Bold-73" x="501.453125"/>
     <use xlink:href="#DejaVuSans-Bold-73" x="560.974609"/>
     <use xlink:href="#DejaVuSans-Bold-2c" x="620.496094"/>
     <use xlink:href="#DejaVuSans-Bold-20" x="658.484375"/>
     <use xlink:href="#DejaVuSans-Bold-33" x="693.298828"/>
     <use xlink:href="#DejaVuSans-Bold-30" x="762.878906"/>
     <use xlink:href="#DejaVuSans-Bold-20" x="832.458984"/>
     <use xlink:href="#DejaVuSans-Bold-76" x="867.273438"/>
     <use xlink:href="#DejaVuSans-Bold-65" x="932.458984"/>
     <use xlink:href="#DejaVuSans-Bold-72" x="1000.28125"/>
     <use xlink:href="#DejaVuSans-Bold-74" x="1049.597656"/>
     <use xlink:href="#DejaVuSans-Bold-69" x="1097.400391"/>
     <use xlink:href="#DejaVuSans-Bold-63" x="1131.677734"/>
     <use xlink:href="#DejaVuSans-Bold-65" x="1190.955078"/>
     <use xlink:href="#DejaVuSans-Bold-73" x="1258.777344"/>
     <use xlink:href="#DejaVuSans-Bold-2c" x="1318.298828"/>
     <use xlink:href="#DejaVuSans-Bold-20" x="1356.287109"/>
     <use xlink:href="#DejaVuSans-Bold-31" x="1391.101562"/>
     <use xlink:href="#DejaVuSans-Bold-31" x="1460.681641"/>
     <use xlink:href="#DejaVuSans-Bold-2e" x="1530.261719"/>
     <use xlink:href="#DejaVuSans-Bold-34" x="1568.25"/>
     <use xlink:href="#DejaVuSans-Bold-39" x="1637.830078"/>
     <use xlink:href="#DejaVuSans-Bold-34" x="1707.410156"/>
     <use xlink:href="#DejaVuSans-Bold-25" x="1776.990234"/>
     <use xlink:href="#DejaVuSans-Bold-20" x="1877.185547"/>
     <use xlink:href="#DejaVuSans-Bold-64" x="1912"/>
     <use xlink:href="#DejaVuSans-Bold-65" x="1983.582031"/>
     <use xlink:href="#DejaVuSans-Bold-6e" x="2051.404297"/>
     <use xlink:href="#DejaVuSans-Bold-73" x="2122.595703"/>
     <use xlink:href="#DejaVuSans-Bold-69" x="2182.117188"/>
     <use xlink:href="#DejaVuSans-Bold-74" x="2216.394531"/>
     <use xlink:href="#DejaVuSans-Bold-79" x="2264.197266"/>
    </g>
   </g>
   <g id="legend_1">
    <g id="patch_4">
     <path d="M 7.914062 93.506375 
L 50.6 93.506375 
Q 52.6 93.506375 52.6 91.506375 
L 52.6 48.472 
Q 52.6 46.472 50.6 46.472 
L 7.914062 46.472 
Q 5.914062 46.472 5.914062 48.472 
L 5.914062 91.506375 
Q 5.914062 93.506375 7.914062 93.506375 
z
" style="fill: #ffffff; opacity: 0.8; stroke: #cccccc; stroke-linejoin: miter"/>
    </g>
    <g id="text_33">
     <!-- Cluster: -->
     <g transform="translate(9.914062 58.070438) scale(0.1 -0.1)">
      <defs>
       <path id="DejaVuSans-72" d="M 2631 2963 
Q 2534 3019 2420 3045 
Q 2306 3072 2169 3072 
Q 1681 3072 1420 2755 
Q 1159 2438 1159 1844 
L 1159 0 
L 581 0 
L 581 3500 
L 1159 3500 
L 1159 2956 
Q 1341 3275 1631 3429 
Q 1922 3584 2338 3584 
Q 2397 3584 2469 3576 
Q 2541 3569 2628 3553 
L 2631 2963 
z
" transform="scale(0.015625)"/>
      </defs>
      <use xlink:href="#DejaVuSans-43"/>
      <use xlink:href="#DejaVuSans-6c" x="69.824219"/>
      <use xlink:href="#DejaVuSans-75" x="97.607422"/>
      <use xlink:href="#DejaVuSans-73" x="160.986328"/>
      <use xlink:href="#DejaVuSans-74" x="213.085938"/>
      <use xlink:href="#DejaVuSans-65" x="252.294922"/>
      <use xlink:href="#DejaVuSans-72" x="313.818359"/>
      <use xlink:href="#DejaVuSans-3a" x="353.181641"/>
     </g>
    </g>
    <g id="PathCollection_3">
     <defs>
      <path id="m3d7cf60720" d="M 0 5 
C 1.326016 5 2.597899 4.473168 3.535534 3.535534 
C 4.473168 2.597899 5 1.326016 5 0 
C 5 -1.326016 4.473168 -2.597899 3.535534 -3.535534 
C 2.597899 -4.473168 1.326016 -5 0 -5 
C -1.326016 -5 -2.597899 -4.473168 -3.535534 -3.535534 
C -4.473168 -2.597899 -5 -1.326016 -5 0 
C -5 1.326016 -4.473168 2.597899 -3.535534 3.535534 
C -2.597899 4.473168 -1.326016 5 0 5 
z
" style="stroke: #000000"/>
     </defs>
     <g>
      <use xlink:href="#m3d7cf60720" x="22.075781" y="70.123563" style="fill: #add8e6; stroke: #000000"/>
     </g>
    </g>
    <g id="text_34">
     <!-- 0 -->
     <g transform="translate(40.075781 72.748563) scale(0.1 -0.1)">
      <use xlink:href="#DejaVuSans-30"/>
     </g>
    </g>
    <g id="PathCollection_4">
     <defs>
      <path id="m83c821d26e" d="M 0 5 
C 1.326016 5 2.597899 4.473168 3.535534 3.535534 
C 4.473168 2.597899 5 1.326016 5 0 
C 5 -1.326016 4.473168 -2.597899 3.535534 -3.535534 
C 2.597899 -4.473168 1.326016 -5 0 -5 
C -1.326016 -5 -2.597899 -4.473168 -3.535534 -3.535534 
C -4.473168 -2.597899 -5 -1.326016 -5 0 
C -5 1.326016 -4.473168 2.597899 -3.535534 3.535534 
C -2.597899 4.473168 -1.326016 5 0 5 
z
" style="stroke: #000000"/>
     </defs>
     <g>
      <use xlink:href="#m83c821d26e" x="22.075781" y="84.801688" style="fill: #9acd32; stroke: #000000"/>
     </g>
    </g>
    <g id="text_35">
     <!-- 1 -->
     <g transform="translate(40.075781 87.426688) scale(0.1 -0.1)">
      <use xlink:href="#DejaVuSans-31"/>
     </g>
    </g>
   </g>
  </g>
 </g>
 <defs>
  <clipPath id="p2b3536aac5">
   <rect x="57.6" y="41.472" width="357.12" height="266.112"/>
  </clipPath>
 </defs>
</svg>
