<?xml version="1.0" encoding="utf-8" standalone="no"?>
<!DOCTYPE svg PUBLIC "-//W3C//DTD SVG 1.1//EN"
  "http://www.w3.org/Graphics/SVG/1.1/DTD/svg11.dtd">
<svg xmlns:xlink="http://www.w3.org/1999/xlink" width="460.8pt" height="345.6pt" viewBox="0 0 460.8 345.6" xmlns="http://www.w3.org/2000/svg" version="1.1">
 <metadata>
  <rdf:RDF xmlns:dc="http://purl.org/dc/elements/1.1/" xmlns:cc="http://creativecommons.org/ns#" xmlns:rdf="http://www.w3.org/1999/02/22-rdf-syntax-ns#">
   <cc:Work>
    <dc:type rdf:resource="http://purl.org/dc/dcmitype/StillImage"/>
    <dc:date>2024-01-14T17:51:47.852867</dc:date>
    <dc:format>image/svg+xml</dc:format>
    <dc:creator>
     <cc:Agent>
      <dc:title>Matplotlib v3.8.2, https://matplotlib.org/</dc:title>
     </cc:Agent>
    </dc:creator>
   </cc:Work>
  </rdf:RDF>
 </metadata>
 <defs>
  <style type="text/css">*{stroke-linejoin: round; stroke-linecap: butt}</style>
 </defs>
 <g id="figure_1">
  <g id="patch_1">
   <path d="M 0 345.6 
L 460.8 345.6 
L 460.8 0 
L 0 0 
z
" style="fill: #ffffff"/>
  </g>
  <g id="axes_1">
   <g id="patch_2">
    <path d="M 57.6 307.584 
L 414.72 307.584 
L 414.72 41.472 
L 57.6 41.472 
z
" style="fill: #ffffff"/>
   </g>
   <g id="EdgeCollection_1">
    <path d="M 207.628845 244.53361 
L 204.185615 235.332131 
" clip-path="url(#p2b50514bf2)" style="fill: #9acd32; stroke: #9acd32; stroke-width: 2.5"/>
    <path d="M 215.520701 251.730091 
L 240.85234 258.630878 
" clip-path="url(#p2b50514bf2)" style="fill: #9acd32; stroke: #9acd32; stroke-width: 2.5"/>
    <path d="M 213.915386 254.453806 
L 230.184095 271.177582 
" clip-path="url(#p2b50514bf2)" style="fill: #9acd32; stroke: #9acd32; stroke-width: 2.5"/>
    <path d="M 212.550768 244.85658 
L 221.662102 227.738395 
" clip-path="url(#p2b50514bf2)" style="fill: #9acd32; stroke: #9acd32; stroke-width: 2.5"/>
    <path d="M 340.607907 264.691999 
L 323.963171 279.676666 
" clip-path="url(#p2b50514bf2)" style="fill: #9acd32; stroke: #9acd32; stroke-width: 2.5"/>
    <path d="M 350.623368 258.413112 
L 377.887589 247.301659 
" clip-path="url(#p2b50514bf2)" style="fill: #9acd32; stroke: #9acd32; stroke-width: 2.5"/>
    <path d="M 346.01959 254.753646 
L 348.822017 237.324515 
" clip-path="url(#p2b50514bf2)" style="fill: #9acd32; stroke: #9acd32; stroke-width: 2.5"/>
    <path d="M 339.088556 261.184695 
L 301.949223 264.335089 
" clip-path="url(#p2b50514bf2)" style="fill: #9acd32; stroke: #9acd32; stroke-width: 2.5"/>
    <path d="M 257.602329 74.006277 
L 293.925909 86.762732 
" clip-path="url(#p2b50514bf2)" style="fill: #add8e6; stroke: #add8e6; stroke-width: 2.5"/>
    <path d="M 246.015247 71.078965 
L 212.250255 65.727581 
" clip-path="url(#p2b50514bf2)" style="fill: #add8e6; stroke: #add8e6; stroke-width: 2.5"/>
    <path d="M 255.981546 76.45397 
L 266.352364 87.840058 
" clip-path="url(#p2b50514bf2)" style="fill: #add8e6; stroke: #add8e6; stroke-width: 2.5"/>
    <path d="M 246.088918 73.340996 
L 206.957824 82.185863 
" clip-path="url(#p2b50514bf2)" style="fill: #add8e6; stroke: #add8e6; stroke-width: 2.5"/>
    <path d="M 324.910032 202.740545 
L 299.91711 198.365279 
" clip-path="url(#p2b50514bf2)" style="fill: #9acd32; stroke: #9acd32; stroke-width: 2.5"/>
    <path d="M 336.786936 203.144687 
L 350.10066 201.73788 
" clip-path="url(#p2b50514bf2)" style="fill: #9acd32; stroke: #9acd32; stroke-width: 2.5"/>
    <path d="M 334.214691 208.722609 
L 346.379985 226.453167 
" clip-path="url(#p2b50514bf2)" style="fill: #9acd32; stroke: #9acd32; stroke-width: 2.5"/>
    <path d="M 325.642794 200.742856 
L 314.184301 194.031757 
" clip-path="url(#p2b50514bf2)" style="fill: #9acd32; stroke: #9acd32; stroke-width: 2.5"/>
    <path d="M 326.378077 207.808527 
L 311.083122 221.696165 
" clip-path="url(#p2b50514bf2)" style="fill: #9acd32; stroke: #9acd32; stroke-width: 2.5"/>
    <path d="M 331.19418 107.391434 
L 304.75512 91.798796 
" clip-path="url(#p2b50514bf2)" style="fill: #add8e6; stroke: #add8e6; stroke-width: 2.5"/>
    <path d="M 335.076927 116.300089 
L 332.046875 130.115221 
" clip-path="url(#p2b50514bf2)" style="fill: #add8e6; stroke: #add8e6; stroke-width: 2.5"/>
    <path d="M 141.922679 117.744191 
L 170.574716 101.79822 
" clip-path="url(#p2b50514bf2)" style="fill: #add8e6; stroke: #add8e6; stroke-width: 2.5"/>
    <path d="M 132.972963 125.379871 
L 118.373137 143.961192 
" clip-path="url(#p2b50514bf2)" style="fill: #add8e6; stroke: #add8e6; stroke-width: 2.5"/>
    <path d="M 138.396214 126.411279 
L 140.590995 133.763447 
" clip-path="url(#p2b50514bf2)" style="fill: #add8e6; stroke: #add8e6; stroke-width: 2.5"/>
    <path d="M 138.949517 115.107804 
L 144.572915 101.346127 
" clip-path="url(#p2b50514bf2)" style="fill: #add8e6; stroke: #add8e6; stroke-width: 2.5"/>
    <path d="M 179.818481 94.409193 
L 202.323209 69.259599 
" clip-path="url(#p2b50514bf2)" style="fill: #add8e6; stroke: #add8e6; stroke-width: 2.5"/>
    <path d="M 180.944546 95.763842 
L 195.978384 86.625265 
" clip-path="url(#p2b50514bf2)" style="fill: #add8e6; stroke: #add8e6; stroke-width: 2.5"/>
    <path d="M 172.79628 104.064284 
L 167.623467 112.939974 
" clip-path="url(#p2b50514bf2)" style="fill: #add8e6; stroke: #add8e6; stroke-width: 2.5"/>
    <path d="M 302.246053 119.168741 
L 304.995837 134.603084 
" clip-path="url(#p2b50514bf2)" style="fill: #add8e6; stroke: #add8e6; stroke-width: 2.5"/>
    <path d="M 295.363257 111.845301 
L 266.605726 104.858874 
" clip-path="url(#p2b50514bf2)" style="fill: #add8e6; stroke: #add8e6; stroke-width: 2.5"/>
    <path d="M 300.801203 107.274604 
L 299.979418 94.737983 
" clip-path="url(#p2b50514bf2)" style="fill: #add8e6; stroke: #add8e6; stroke-width: 2.5"/>
    <path d="M 305.951764 116.916956 
L 326.003359 132.320712 
" clip-path="url(#p2b50514bf2)" style="fill: #add8e6; stroke: #add8e6; stroke-width: 2.5"/>
    <path d="M 296.235192 109.883361 
L 275.351102 95.654245 
" clip-path="url(#p2b50514bf2)" style="fill: #add8e6; stroke: #add8e6; stroke-width: 2.5"/>
    <path d="M 300.651728 137.88751 
L 282.379552 129.007698 
" clip-path="url(#p2b50514bf2)" style="fill: #add8e6; stroke: #add8e6; stroke-width: 2.5"/>
    <path d="M 309.435013 145.462813 
L 318.369132 158.527816 
" clip-path="url(#p2b50514bf2)" style="fill: #add8e6; stroke: #add8e6; stroke-width: 2.5"/>
    <path d="M 324.536815 280.424502 
L 331.294923 276.038084 
" clip-path="url(#p2b50514bf2)" style="fill: #9acd32; stroke: #9acd32; stroke-width: 2.5"/>
    <path d="M 314.82094 279.940238 
L 300.653747 268.593094 
" clip-path="url(#p2b50514bf2)" style="fill: #9acd32; stroke: #9acd32; stroke-width: 2.5"/>
    <path d="M 313.504777 283.78806 
L 289.829229 284.170678 
" clip-path="url(#p2b50514bf2)" style="fill: #9acd32; stroke: #9acd32; stroke-width: 2.5"/>
    <path d="M 378.411917 222.493916 
L 360.40198 205.256102 
" clip-path="url(#p2b50514bf2)" style="fill: #9acd32; stroke: #9acd32; stroke-width: 2.5"/>
    <path d="M 382.973777 232.638317 
L 383.21655 239.04152 
" clip-path="url(#p2b50514bf2)" style="fill: #9acd32; stroke: #9acd32; stroke-width: 2.5"/>
    <path d="M 377.117613 224.565094 
L 358.882997 217.834941 
" clip-path="url(#p2b50514bf2)" style="fill: #9acd32; stroke: #9acd32; stroke-width: 2.5"/>
    <path d="M 380.44389 232.183219 
L 372.889469 250.361195 
" clip-path="url(#p2b50514bf2)" style="fill: #9acd32; stroke: #9acd32; stroke-width: 2.5"/>
    <path d="M 299.995908 197.695113 
L 350.078521 200.742933 
" clip-path="url(#p2b50514bf2)" style="fill: #9acd32; stroke: #9acd32; stroke-width: 2.5"/>
    <path d="M 288.022023 197.755149 
L 243.934422 200.88216 
" clip-path="url(#p2b50514bf2)" style="fill: #9acd32; stroke: #9acd32; stroke-width: 2.5"/>
    <path d="M 288.129655 198.537697 
L 268.084315 202.654468 
" clip-path="url(#p2b50514bf2)" style="fill: #9acd32; stroke: #9acd32; stroke-width: 2.5"/>
    <path d="M 259.222407 97.646864 
L 256.336404 86.876126 
" clip-path="url(#p2b50514bf2)" style="fill: #add8e6; stroke: #add8e6; stroke-width: 2.5"/>
    <path d="M 264.237252 108.342931 
L 273.52112 121.484627 
" clip-path="url(#p2b50514bf2)" style="fill: #add8e6; stroke: #add8e6; stroke-width: 2.5"/>
    <path d="M 255.423133 100.730572 
L 236.476081 91.130466 
" clip-path="url(#p2b50514bf2)" style="fill: #add8e6; stroke: #add8e6; stroke-width: 2.5"/>
    <path d="M 254.924883 102.1111 
L 222.397336 94.709161 
" clip-path="url(#p2b50514bf2)" style="fill: #add8e6; stroke: #add8e6; stroke-width: 2.5"/>
    <path d="M 323.851221 225.807592 
L 329.098784 241.043849 
" clip-path="url(#p2b50514bf2)" style="fill: #9acd32; stroke: #9acd32; stroke-width: 2.5"/>
    <path d="M 319.469758 214.647677 
L 311.434563 196.486393 
" clip-path="url(#p2b50514bf2)" style="fill: #9acd32; stroke: #9acd32; stroke-width: 2.5"/>
    <path d="M 327.839761 219.305109 
L 347.311774 216.586932 
" clip-path="url(#p2b50514bf2)" style="fill: #9acd32; stroke: #9acd32; stroke-width: 2.5"/>
    <path d="M 317.0578 223.681244 
L 293.668538 240.821717 
" clip-path="url(#p2b50514bf2)" style="fill: #9acd32; stroke: #9acd32; stroke-width: 2.5"/>
    <path d="M 315.940021 219.420574 
L 300.705278 217.594522 
" clip-path="url(#p2b50514bf2)" style="fill: #9acd32; stroke: #9acd32; stroke-width: 2.5"/>
    <path d="M 119.980598 151.464195 
L 140.813932 162.382279 
" clip-path="url(#p2b50514bf2)" style="fill: #add8e6; stroke: #add8e6; stroke-width: 2.5"/>
    <path d="M 293.672996 87.738374 
L 260.697454 82.093028 
" clip-path="url(#p2b50514bf2)" style="fill: #add8e6; stroke: #add8e6; stroke-width: 2.5"/>
    <path d="M 129.736461 117.292358 
L 139.352895 134.290518 
" clip-path="url(#p2b50514bf2)" style="fill: #add8e6; stroke: #add8e6; stroke-width: 2.5"/>
    <path d="M 122.994988 116.723951 
L 109.438457 133.383091 
" clip-path="url(#p2b50514bf2)" style="fill: #add8e6; stroke: #add8e6; stroke-width: 2.5"/>
    <path d="M 132.036866 109.174079 
L 160.005724 93.759687 
" clip-path="url(#p2b50514bf2)" style="fill: #add8e6; stroke: #add8e6; stroke-width: 2.5"/>
    <path d="M 131.441133 108.289507 
L 142.183447 99.572574 
" clip-path="url(#p2b50514bf2)" style="fill: #add8e6; stroke: #add8e6; stroke-width: 2.5"/>
    <path d="M 125.365852 106.239672 
L 122.739813 95.428487 
" clip-path="url(#p2b50514bf2)" style="fill: #add8e6; stroke: #add8e6; stroke-width: 2.5"/>
    <path d="M 143.191188 145.447275 
L 145.24445 159.232863 
" clip-path="url(#p2b50514bf2)" style="fill: #add8e6; stroke: #add8e6; stroke-width: 2.5"/>
    <path d="M 139.217139 144.655794 
L 130.208628 159.649033 
" clip-path="url(#p2b50514bf2)" style="fill: #add8e6; stroke: #add8e6; stroke-width: 2.5"/>
    <path d="M 146.636993 135.358993 
L 160.272567 122.277582 
" clip-path="url(#p2b50514bf2)" style="fill: #add8e6; stroke: #add8e6; stroke-width: 2.5"/>
    <path d="M 332.243248 252.597493 
L 335.137121 266.890798 
" clip-path="url(#p2b50514bf2)" style="fill: #9acd32; stroke: #9acd32; stroke-width: 2.5"/>
    <path d="M 325.061884 246.383607 
L 294.819699 244.701536 
" clip-path="url(#p2b50514bf2)" style="fill: #9acd32; stroke: #9acd32; stroke-width: 2.5"/>
    <path d="M 336.896968 248.074625 
L 364.742561 254.543977 
" clip-path="url(#p2b50514bf2)" style="fill: #9acd32; stroke: #9acd32; stroke-width: 2.5"/>
    <path d="M 250.818795 117.879132 
L 271.277019 124.530104 
" clip-path="url(#p2b50514bf2)" style="fill: #add8e6; stroke: #add8e6; stroke-width: 2.5"/>
    <path d="M 242.400649 110.672047 
L 233.836007 93.770669 
" clip-path="url(#p2b50514bf2)" style="fill: #add8e6; stroke: #add8e6; stroke-width: 2.5"/>
    <path d="M 248.975408 79.575199 
L 219.812974 72.016722 
" clip-path="url(#p2b50514bf2)" style="fill: #add8e6; stroke: #add8e6; stroke-width: 2.5"/>
    <path d="M 248.789623 81.351701 
L 207.099332 83.237552 
" clip-path="url(#p2b50514bf2)" style="fill: #add8e6; stroke: #add8e6; stroke-width: 2.5"/>
    <path d="M 354.935918 206.999732 
L 354.385678 209.865072 
" clip-path="url(#p2b50514bf2)" style="fill: #9acd32; stroke: #9acd32; stroke-width: 2.5"/>
    <path d="M 109.406254 142.716741 
L 123.363602 160.112252 
" clip-path="url(#p2b50514bf2)" style="fill: #add8e6; stroke: #add8e6; stroke-width: 2.5"/>
    <path d="M 102.18841 133.137121 
L 92.339091 119.201209 
" clip-path="url(#p2b50514bf2)" style="fill: #add8e6; stroke: #add8e6; stroke-width: 2.5"/>
    <path d="M 377.882681 242.784843 
L 355.335712 233.652971 
" clip-path="url(#p2b50514bf2)" style="fill: #9acd32; stroke: #9acd32; stroke-width: 2.5"/>
    <path d="M 378.861025 248.909874 
L 375.16975 252.029128 
" clip-path="url(#p2b50514bf2)" style="fill: #9acd32; stroke: #9acd32; stroke-width: 2.5"/>
    <path d="M 238.892151 226.166016 
L 208.055138 229.137237 
" clip-path="url(#p2b50514bf2)" style="fill: #9acd32; stroke: #9acd32; stroke-width: 2.5"/>
    <path d="M 242.700845 231.186872 
L 239.525911 239.398889 
" clip-path="url(#p2b50514bf2)" style="fill: #9acd32; stroke: #9acd32; stroke-width: 2.5"/>
    <path d="M 250.775067 224.558526 
L 288.837345 217.912506 
" clip-path="url(#p2b50514bf2)" style="fill: #9acd32; stroke: #9acd32; stroke-width: 2.5"/>
    <path d="M 248.607297 220.901066 
L 258.464177 208.551013 
" clip-path="url(#p2b50514bf2)" style="fill: #9acd32; stroke: #9acd32; stroke-width: 2.5"/>
    <path d="M 328.894472 141.678049 
L 323.622906 157.778423 
" clip-path="url(#p2b50514bf2)" style="fill: #add8e6; stroke: #add8e6; stroke-width: 2.5"/>
    <path d="M 231.963956 201.723515 
L 197.520667 204.12231 
" clip-path="url(#p2b50514bf2)" style="fill: #9acd32; stroke: #9acd32; stroke-width: 2.5"/>
    <path d="M 243.582883 203.371726 
L 262.862001 210.438957 
" clip-path="url(#p2b50514bf2)" style="fill: #9acd32; stroke: #9acd32; stroke-width: 2.5"/>
    <path d="M 243.916453 201.935114 
L 256.239986 203.233056 
" clip-path="url(#p2b50514bf2)" style="fill: #9acd32; stroke: #9acd32; stroke-width: 2.5"/>
    <path d="M 234.725046 206.366614 
L 227.705618 217.381962 
" clip-path="url(#p2b50514bf2)" style="fill: #9acd32; stroke: #9acd32; stroke-width: 2.5"/>
    <path d="M 174.433352 81.984791 
L 169.571683 86.69064 
" clip-path="url(#p2b50514bf2)" style="fill: #add8e6; stroke: #add8e6; stroke-width: 2.5"/>
    <path d="M 184.625159 79.00263 
L 225.243256 87.227788 
" clip-path="url(#p2b50514bf2)" style="fill: #add8e6; stroke: #add8e6; stroke-width: 2.5"/>
    <path d="M 172.867055 79.01821 
L 127.201056 88.391614 
" clip-path="url(#p2b50514bf2)" style="fill: #add8e6; stroke: #add8e6; stroke-width: 2.5"/>
    <path d="M 184.292569 80.096345 
L 210.998851 91.093298 
" clip-path="url(#p2b50514bf2)" style="fill: #add8e6; stroke: #add8e6; stroke-width: 2.5"/>
    <path d="M 343.825718 230.618469 
L 312.589848 226.511653 
" clip-path="url(#p2b50514bf2)" style="fill: #9acd32; stroke: #9acd32; stroke-width: 2.5"/>
    <path d="M 170.797278 88.551861 
L 208.468127 72.82312 
" clip-path="url(#p2b50514bf2)" style="fill: #add8e6; stroke: #add8e6; stroke-width: 2.5"/>
    <path d="M 171.138064 89.657628 
L 195.227914 84.714684 
" clip-path="url(#p2b50514bf2)" style="fill: #add8e6; stroke: #add8e6; stroke-width: 2.5"/>
    <path d="M 165.11568 96.861881 
L 164.747115 112.125584 
" clip-path="url(#p2b50514bf2)" style="fill: #add8e6; stroke: #add8e6; stroke-width: 2.5"/>
    <path d="M 193.853842 210.073041 
L 199.764121 224.178814 
" clip-path="url(#p2b50514bf2)" style="fill: #9acd32; stroke: #9acd32; stroke-width: 2.5"/>
    <path d="M 186.099487 201.998814 
L 160.824437 190.186566 
" clip-path="url(#p2b50514bf2)" style="fill: #d3d3d3; stroke: #d3d3d3; stroke-width: 2.5"/>
    <path d="M 303.707318 193.812621 
L 273.795051 209.690846 
" clip-path="url(#p2b50514bf2)" style="fill: #9acd32; stroke: #9acd32; stroke-width: 2.5"/>
    <path d="M 311.529109 185.555299 
L 319.233752 168.924701 
" clip-path="url(#p2b50514bf2)" style="fill: #d3d3d3; stroke: #d3d3d3; stroke-width: 2.5"/>
    <path d="M 148.413788 170.715083 
L 153.103327 182.098527 
" clip-path="url(#p2b50514bf2)" style="fill: #add8e6; stroke: #add8e6; stroke-width: 2.5"/>
    <path d="M 207.58843 232.097639 
L 231.856631 242.610241 
" clip-path="url(#p2b50514bf2)" style="fill: #9acd32; stroke: #9acd32; stroke-width: 2.5"/>
    <path d="M 207.789654 227.860179 
L 218.77435 224.294427 
" clip-path="url(#p2b50514bf2)" style="fill: #9acd32; stroke: #9acd32; stroke-width: 2.5"/>
    <path d="M 131.784482 168.564152 
L 150.722761 183.874147 
" clip-path="url(#p2b50514bf2)" style="fill: #add8e6; stroke: #add8e6; stroke-width: 2.5"/>
    <path d="M 256.839854 262.182066 
L 241.861204 248.965023 
" clip-path="url(#p2b50514bf2)" style="fill: #9acd32; stroke: #9acd32; stroke-width: 2.5"/>
    <path d="M 255.668249 268.112743 
L 240.038363 273.517485 
" clip-path="url(#p2b50514bf2)" style="fill: #9acd32; stroke: #9acd32; stroke-width: 2.5"/>
    <path d="M 266.04136 262.42552 
L 284.126392 248.094706 
" clip-path="url(#p2b50514bf2)" style="fill: #9acd32; stroke: #9acd32; stroke-width: 2.5"/>
    <path d="M 266.011539 269.915596 
L 279.157267 280.50393 
" clip-path="url(#p2b50514bf2)" style="fill: #9acd32; stroke: #9acd32; stroke-width: 2.5"/>
    <path d="M 242.882531 264.884566 
L 238.126665 270.801681 
" clip-path="url(#p2b50514bf2)" style="fill: #9acd32; stroke: #9acd32; stroke-width: 2.5"/>
    <path d="M 251.540766 256.74439 
L 269.935399 243.740676 
" clip-path="url(#p2b50514bf2)" style="fill: #9acd32; stroke: #9acd32; stroke-width: 2.5"/>
    <path d="M 252.615074 260.769121 
L 289.996998 264.281019 
" clip-path="url(#p2b50514bf2)" style="fill: #9acd32; stroke: #9acd32; stroke-width: 2.5"/>
    <path d="M 93.650029 110.666885 
L 116.549692 93.232562 
" clip-path="url(#p2b50514bf2)" style="fill: #add8e6; stroke: #add8e6; stroke-width: 2.5"/>
    <path d="M 149.714691 90.524064 
L 154.229643 82.243181 
" clip-path="url(#p2b50514bf2)" style="fill: #add8e6; stroke: #add8e6; stroke-width: 2.5"/>
    <path d="M 152.694449 94.467266 
L 195.253519 84.833361 
" clip-path="url(#p2b50514bf2)" style="fill: #add8e6; stroke: #add8e6; stroke-width: 2.5"/>
    <path d="M 347.25526 215.872562 
L 300.746814 216.765314 
" clip-path="url(#p2b50514bf2)" style="fill: #9acd32; stroke: #9acd32; stroke-width: 2.5"/>
    <path d="M 243.36182 244.92212 
L 282.829403 244.441406 
" clip-path="url(#p2b50514bf2)" style="fill: #9acd32; stroke: #9acd32; stroke-width: 2.5"/>
    <path d="M 269.830618 218.35358 
L 273.499597 234.4276 
" clip-path="url(#p2b50514bf2)" style="fill: #9acd32; stroke: #9acd32; stroke-width: 2.5"/>
    <path d="M 274.164367 214.469509 
L 300.972104 223.764037 
" clip-path="url(#p2b50514bf2)" style="fill: #9acd32; stroke: #9acd32; stroke-width: 2.5"/>
    <path d="M 262.642758 213.825491 
L 230.333876 221.120456 
" clip-path="url(#p2b50514bf2)" style="fill: #9acd32; stroke: #9acd32; stroke-width: 2.5"/>
    <path d="M 226.977785 84.081595 
L 218.151 74.848373 
" clip-path="url(#p2b50514bf2)" style="fill: #add8e6; stroke: #add8e6; stroke-width: 2.5"/>
    <path d="M 341.710542 270.120915 
L 365.204106 258.552355 
" clip-path="url(#p2b50514bf2)" style="fill: #9acd32; stroke: #9acd32; stroke-width: 2.5"/>
    <path d="M 330.466631 274.054968 
L 289.691126 282.984142 
" clip-path="url(#p2b50514bf2)" style="fill: #9acd32; stroke: #9acd32; stroke-width: 2.5"/>
    <path d="M 240.275275 276.528072 
L 277.922556 283.217892 
" clip-path="url(#p2b50514bf2)" style="fill: #9acd32; stroke: #9acd32; stroke-width: 2.5"/>
    <path d="M 278.748082 244.825354 
L 292.0574 260.294025 
" clip-path="url(#p2b50514bf2)" style="fill: #9acd32; stroke: #9acd32; stroke-width: 2.5"/>
    <path d="M 280.29114 237.781512 
L 301.184693 228.22516 
" clip-path="url(#p2b50514bf2)" style="fill: #9acd32; stroke: #9acd32; stroke-width: 2.5"/>
    <path d="M 126.981777 87.60179 
L 151.443643 78.971535 
" clip-path="url(#p2b50514bf2)" style="fill: #add8e6; stroke: #add8e6; stroke-width: 2.5"/>
    <path d="M 162.885686 78.571228 
L 210.763042 91.781915 
" clip-path="url(#p2b50514bf2)" style="fill: #add8e6; stroke: #add8e6; stroke-width: 2.5"/>
    <path d="M 222.545645 93.255073 
L 264.393885 92.39862 
" clip-path="url(#p2b50514bf2)" style="fill: #add8e6; stroke: #add8e6; stroke-width: 2.5"/>
    <path d="M 211.491287 90.146623 
L 206.161075 86.7399 
" clip-path="url(#p2b50514bf2)" style="fill: #add8e6; stroke: #add8e6; stroke-width: 2.5"/>
    <path d="M 289.177211 214.651742 
L 267.77769 206.090237 
" clip-path="url(#p2b50514bf2)" style="fill: #9acd32; stroke: #9acd32; stroke-width: 2.5"/>
   </g>
   <g id="VertexCollection_1">
    <path d="M 209.731663 256.153055 
C 211.322881 256.153055 212.849142 255.520857 213.974304 254.395695 
C 215.099465 253.270534 215.731663 251.744273 215.731663 250.153055 
C 215.731663 248.561836 215.099465 247.035576 213.974304 245.910414 
C 212.849142 244.785253 211.322881 244.153055 209.731663 244.153055 
C 208.140444 244.153055 206.614184 244.785253 205.489022 245.910414 
C 204.363861 247.035576 203.731663 248.561836 203.731663 250.153055 
C 203.731663 251.744273 204.363861 253.270534 205.489022 254.395695 
C 206.614184 255.520857 208.140444 256.153055 209.731663 256.153055 
z
" clip-path="url(#p2b50514bf2)" style="fill: #9acd32; stroke: #000000"/>
    <path d="M 345.067085 266.677558 
C 346.658304 266.677558 348.184564 266.045361 349.309726 264.920199 
C 350.434887 263.795038 351.067085 262.268777 351.067085 260.677558 
C 351.067085 259.08634 350.434887 257.560079 349.309726 256.434918 
C 348.184564 255.309756 346.658304 254.677558 345.067085 254.677558 
C 343.475866 254.677558 341.949606 255.309756 340.824444 256.434918 
C 339.699283 257.560079 339.067085 259.08634 339.067085 260.677558 
C 339.067085 262.268777 339.699283 263.795038 340.824444 264.920199 
C 341.949606 266.045361 343.475866 266.677558 345.067085 266.677558 
z
" clip-path="url(#p2b50514bf2)" style="fill: #9acd32; stroke: #000000"/>
    <path d="M 251.941281 78.018177 
C 253.5325 78.018177 255.05876 77.385979 256.183922 76.260817 
C 257.309083 75.135656 257.941281 73.609395 257.941281 72.018177 
C 257.941281 70.426958 257.309083 68.900697 256.183922 67.775536 
C 255.05876 66.650375 253.5325 66.018177 251.941281 66.018177 
C 250.350062 66.018177 248.823802 66.650375 247.69864 67.775536 
C 246.573479 68.900697 245.941281 70.426958 245.941281 72.018177 
C 245.941281 73.609395 246.573479 75.135656 247.69864 76.260817 
C 248.823802 77.385979 250.350062 78.018177 251.941281 78.018177 
z
" clip-path="url(#p2b50514bf2)" style="fill: #add8e6; stroke: #000000"/>
    <path d="M 330.820154 209.775173 
C 332.411373 209.775173 333.937634 209.142975 335.062795 208.017813 
C 336.187957 206.892652 336.820154 205.366391 336.820154 203.775173 
C 336.820154 202.183954 336.187957 200.657693 335.062795 199.532532 
C 333.937634 198.40737 332.411373 197.775173 330.820154 197.775173 
C 329.228936 197.775173 327.702675 198.40737 326.577514 199.532532 
C 325.452352 200.657693 324.820154 202.183954 324.820154 203.775173 
C 324.820154 205.366391 325.452352 206.892652 326.577514 208.017813 
C 327.702675 209.142975 329.228936 209.775173 330.820154 209.775173 
z
" clip-path="url(#p2b50514bf2)" style="fill: #9acd32; stroke: #000000"/>
    <path d="M 336.362343 116.439398 
C 337.953562 116.439398 339.479822 115.8072 340.604984 114.682038 
C 341.730145 113.556877 342.362343 112.030616 342.362343 110.439398 
C 342.362343 108.848179 341.730145 107.321918 340.604984 106.196757 
C 339.479822 105.071595 337.953562 104.439398 336.362343 104.439398 
C 334.771125 104.439398 333.244864 105.071595 332.119703 106.196757 
C 330.994541 107.321918 330.362343 108.848179 330.362343 110.439398 
C 330.362343 112.030616 330.994541 113.556877 332.119703 114.682038 
C 333.244864 115.8072 334.771125 116.439398 336.362343 116.439398 
z
" clip-path="url(#p2b50514bf2)" style="fill: #add8e6; stroke: #000000"/>
    <path d="M 136.679926 126.661987 
C 138.271144 126.661987 139.797405 126.029789 140.922566 124.904628 
C 142.047728 123.779467 142.679926 122.253206 142.679926 120.661987 
C 142.679926 119.070769 142.047728 117.544508 140.922566 116.419347 
C 139.797405 115.294185 138.271144 114.661987 136.679926 114.661987 
C 135.088707 114.661987 133.562447 115.294185 132.437285 116.419347 
C 131.312124 117.544508 130.679926 119.070769 130.679926 120.661987 
C 130.679926 122.253206 131.312124 123.779467 132.437285 124.904628 
C 133.562447 126.029789 135.088707 126.661987 136.679926 126.661987 
z
" clip-path="url(#p2b50514bf2)" style="fill: #add8e6; stroke: #000000"/>
    <path d="M 175.817469 104.880424 
C 177.408688 104.880424 178.934949 104.248226 180.06011 103.123064 
C 181.185272 101.997903 181.817469 100.471642 181.817469 98.880424 
C 181.817469 97.289205 181.185272 95.762944 180.06011 94.637783 
C 178.934949 93.512621 177.408688 92.880424 175.817469 92.880424 
C 174.226251 92.880424 172.69999 93.512621 171.574829 94.637783 
C 170.449667 95.762944 169.817469 97.289205 169.817469 98.880424 
C 169.817469 100.471642 170.449667 101.997903 171.574829 103.123064 
C 172.69999 104.248226 174.226251 104.880424 175.817469 104.880424 
z
" clip-path="url(#p2b50514bf2)" style="fill: #add8e6; stroke: #000000"/>
    <path d="M 301.193665 119.261755 
C 302.784883 119.261755 304.311144 118.629557 305.436305 117.504396 
C 306.561467 116.379234 307.193665 114.852974 307.193665 113.261755 
C 307.193665 111.670537 306.561467 110.144276 305.436305 109.019114 
C 304.311144 107.893953 302.784883 107.261755 301.193665 107.261755 
C 299.602446 107.261755 298.076186 107.893953 296.951024 109.019114 
C 295.825863 110.144276 295.193665 111.670537 295.193665 113.261755 
C 295.193665 114.852974 295.825863 116.379234 296.951024 117.504396 
C 298.076186 118.629557 299.602446 119.261755 301.193665 119.261755 
z
" clip-path="url(#p2b50514bf2)" style="fill: #add8e6; stroke: #000000"/>
    <path d="M 306.048225 146.51007 
C 307.639444 146.51007 309.165704 145.877872 310.290866 144.752711 
C 311.416027 143.627549 312.048225 142.101289 312.048225 140.51007 
C 312.048225 138.918851 311.416027 137.392591 310.290866 136.267429 
C 309.165704 135.142268 307.639444 134.51007 306.048225 134.51007 
C 304.457007 134.51007 302.930746 135.142268 301.805585 136.267429 
C 300.680423 137.392591 300.048225 138.918851 300.048225 140.51007 
C 300.048225 142.101289 300.680423 143.627549 301.805585 144.752711 
C 302.930746 145.877872 304.457007 146.51007 306.048225 146.51007 
z
" clip-path="url(#p2b50514bf2)" style="fill: #add8e6; stroke: #000000"/>
    <path d="M 319.503993 289.691107 
C 321.095212 289.691107 322.621472 289.058909 323.746634 287.933748 
C 324.871795 286.808586 325.503993 285.282325 325.503993 283.691107 
C 325.503993 282.099888 324.871795 280.573628 323.746634 279.448466 
C 322.621472 278.323305 321.095212 277.691107 319.503993 277.691107 
C 317.912775 277.691107 316.386514 278.323305 315.261353 279.448466 
C 314.136191 280.573628 313.503993 282.099888 313.503993 283.691107 
C 313.503993 285.282325 314.136191 286.808586 315.261353 287.933748 
C 316.386514 289.058909 317.912775 289.691107 319.503993 289.691107 
z
" clip-path="url(#p2b50514bf2)" style="fill: #9acd32; stroke: #000000"/>
    <path d="M 382.746455 232.642624 
C 384.337674 232.642624 385.863935 232.010427 386.989096 230.885265 
C 388.114258 229.760104 388.746455 228.233843 388.746455 226.642624 
C 388.746455 225.051406 388.114258 223.525145 386.989096 222.399984 
C 385.863935 221.274822 384.337674 220.642624 382.746455 220.642624 
C 381.155237 220.642624 379.628976 221.274822 378.503815 222.399984 
C 377.378653 223.525145 376.746455 225.051406 376.746455 226.642624 
C 376.746455 228.233843 377.378653 229.760104 378.503815 230.885265 
C 379.628976 232.010427 381.155237 232.642624 382.746455 232.642624 
z
" clip-path="url(#p2b50514bf2)" style="fill: #9acd32; stroke: #000000"/>
    <path d="M 294.006988 203.330652 
C 295.598207 203.330652 297.124467 202.698454 298.249629 201.573293 
C 299.37479 200.448131 300.006988 198.921871 300.006988 197.330652 
C 300.006988 195.739433 299.37479 194.213173 298.249629 193.088011 
C 297.124467 191.96285 295.598207 191.330652 294.006988 191.330652 
C 292.415769 191.330652 290.889509 191.96285 289.764347 193.088011 
C 288.639186 194.213173 288.006988 195.739433 288.006988 197.330652 
C 288.006988 198.921871 288.639186 200.448131 289.764347 201.573293 
C 290.889509 202.698454 292.415769 203.330652 294.006988 203.330652 
z
" clip-path="url(#p2b50514bf2)" style="fill: #9acd32; stroke: #000000"/>
    <path d="M 260.775318 109.44242 
C 262.366536 109.44242 263.892797 108.810222 265.017958 107.685061 
C 266.14312 106.559899 266.775318 105.033639 266.775318 103.44242 
C 266.775318 101.851201 266.14312 100.324941 265.017958 99.199779 
C 263.892797 98.074618 262.366536 97.44242 260.775318 97.44242 
C 259.184099 97.44242 257.657838 98.074618 256.532677 99.199779 
C 255.407515 100.324941 254.775318 101.851201 254.775318 103.44242 
C 254.775318 105.033639 255.407515 106.559899 256.532677 107.685061 
C 257.657838 108.810222 259.184099 109.44242 260.775318 109.44242 
z
" clip-path="url(#p2b50514bf2)" style="fill: #add8e6; stroke: #000000"/>
    <path d="M 321.89738 226.13463 
C 323.488598 226.13463 325.014859 225.502432 326.140021 224.37727 
C 327.265182 223.252109 327.89738 221.725848 327.89738 220.13463 
C 327.89738 218.543411 327.265182 217.01715 326.140021 215.891989 
C 325.014859 214.766828 323.488598 214.13463 321.89738 214.13463 
C 320.306161 214.13463 318.779901 214.766828 317.654739 215.891989 
C 316.529578 217.01715 315.89738 218.543411 315.89738 220.13463 
C 315.89738 221.725848 316.529578 223.252109 317.654739 224.37727 
C 318.779901 225.502432 320.306161 226.13463 321.89738 226.13463 
z
" clip-path="url(#p2b50514bf2)" style="fill: #9acd32; stroke: #000000"/>
    <path d="M 114.666174 154.679075 
C 116.257392 154.679075 117.783653 154.046877 118.908814 152.921716 
C 120.033976 151.796554 120.666174 150.270294 120.666174 148.679075 
C 120.666174 147.087856 120.033976 145.561596 118.908814 144.436434 
C 117.783653 143.311273 116.257392 142.679075 114.666174 142.679075 
C 113.074955 142.679075 111.548694 143.311273 110.423533 144.436434 
C 109.298372 145.561596 108.666174 147.087856 108.666174 148.679075 
C 108.666174 150.270294 109.298372 151.796554 110.423533 152.921716 
C 111.548694 154.046877 113.074955 154.679075 114.666174 154.679075 
z
" clip-path="url(#p2b50514bf2)" style="fill: #add8e6; stroke: #000000"/>
    <path d="M 299.586957 94.750832 
C 301.178175 94.750832 302.704436 94.118634 303.829597 92.993473 
C 304.954759 91.868312 305.586957 90.342051 305.586957 88.750832 
C 305.586957 87.159614 304.954759 85.633353 303.829597 84.508192 
C 302.704436 83.38303 301.178175 82.750832 299.586957 82.750832 
C 297.995738 82.750832 296.469477 83.38303 295.344316 84.508192 
C 294.219154 85.633353 293.586957 87.159614 293.586957 88.750832 
C 293.586957 90.342051 294.219154 91.868312 295.344316 92.993473 
C 296.469477 94.118634 297.995738 94.750832 299.586957 94.750832 
z
" clip-path="url(#p2b50514bf2)" style="fill: #add8e6; stroke: #000000"/>
    <path d="M 126.782073 118.070137 
C 128.373292 118.070137 129.899552 117.437939 131.024714 116.312777 
C 132.149875 115.187616 132.782073 113.661355 132.782073 112.070137 
C 132.782073 110.478918 132.149875 108.952657 131.024714 107.827496 
C 129.899552 106.702335 128.373292 106.070137 126.782073 106.070137 
C 125.190855 106.070137 123.664594 106.702335 122.539433 107.827496 
C 121.414271 108.952657 120.782073 110.478918 120.782073 112.070137 
C 120.782073 113.661355 121.414271 115.187616 122.539433 116.312777 
C 123.664594 117.437939 125.190855 118.070137 126.782073 118.070137 
z
" clip-path="url(#p2b50514bf2)" style="fill: #add8e6; stroke: #000000"/>
    <path d="M 142.307283 145.512739 
C 143.898501 145.512739 145.424762 144.880541 146.549923 143.75538 
C 147.675085 142.630218 148.307283 141.103958 148.307283 139.512739 
C 148.307283 137.921521 147.675085 136.39526 146.549923 135.270099 
C 145.424762 134.144937 143.898501 133.512739 142.307283 133.512739 
C 140.716064 133.512739 139.189803 134.144937 138.064642 135.270099 
C 136.93948 136.39526 136.307283 137.921521 136.307283 139.512739 
C 136.307283 141.103958 136.93948 142.630218 138.064642 143.75538 
C 139.189803 144.880541 140.716064 145.512739 142.307283 145.512739 
z
" clip-path="url(#p2b50514bf2)" style="fill: #add8e6; stroke: #000000"/>
    <path d="M 331.052625 252.716812 
C 332.643844 252.716812 334.170104 252.084614 335.295266 250.959452 
C 336.420427 249.834291 337.052625 248.30803 337.052625 246.716812 
C 337.052625 245.125593 336.420427 243.599332 335.295266 242.474171 
C 334.170104 241.349009 332.643844 240.716812 331.052625 240.716812 
C 329.461406 240.716812 327.935146 241.349009 326.809984 242.474171 
C 325.684823 243.599332 325.052625 245.125593 325.052625 246.716812 
C 325.052625 248.30803 325.684823 249.834291 326.809984 250.959452 
C 327.935146 252.084614 329.461406 252.716812 331.052625 252.716812 
z
" clip-path="url(#p2b50514bf2)" style="fill: #9acd32; stroke: #000000"/>
    <path d="M 245.112759 122.024098 
C 246.703978 122.024098 248.230238 121.391901 249.3554 120.266739 
C 250.480561 119.141578 251.112759 117.615317 251.112759 116.024098 
C 251.112759 114.43288 250.480561 112.906619 249.3554 111.781458 
C 248.230238 110.656296 246.703978 110.024098 245.112759 110.024098 
C 243.52154 110.024098 241.99528 110.656296 240.870118 111.781458 
C 239.744957 112.906619 239.112759 114.43288 239.112759 116.024098 
C 239.112759 117.615317 239.744957 119.141578 240.870118 120.266739 
C 241.99528 121.391901 243.52154 122.024098 245.112759 122.024098 
z
" clip-path="url(#p2b50514bf2)" style="fill: #add8e6; stroke: #000000"/>
    <path d="M 254.783493 87.08057 
C 256.374712 87.08057 257.900973 86.448372 259.026134 85.323211 
C 260.151296 84.198049 260.783493 82.671789 260.783493 81.08057 
C 260.783493 79.489352 260.151296 77.963091 259.026134 76.837929 
C 257.900973 75.712768 256.374712 75.08057 254.783493 75.08057 
C 253.192275 75.08057 251.666014 75.712768 250.540853 76.837929 
C 249.415691 77.963091 248.783493 79.489352 248.783493 81.08057 
C 248.783493 82.671789 249.415691 84.198049 250.540853 85.323211 
C 251.666014 86.448372 253.192275 87.08057 254.783493 87.08057 
z
" clip-path="url(#p2b50514bf2)" style="fill: #add8e6; stroke: #000000"/>
    <path d="M 356.067442 207.107394 
C 357.658661 207.107394 359.184921 206.475196 360.310083 205.350034 
C 361.435244 204.224873 362.067442 202.698612 362.067442 201.107394 
C 362.067442 199.516175 361.435244 197.989915 360.310083 196.864753 
C 359.184921 195.739592 357.658661 195.107394 356.067442 195.107394 
C 354.476223 195.107394 352.949963 195.739592 351.824801 196.864753 
C 350.69964 197.989915 350.067442 199.516175 350.067442 201.107394 
C 350.067442 202.698612 350.69964 204.224873 351.824801 205.350034 
C 352.949963 206.475196 354.476223 207.107394 356.067442 207.107394 
z
" clip-path="url(#p2b50514bf2)" style="fill: #9acd32; stroke: #000000"/>
    <path d="M 105.651372 144.036905 
C 107.242591 144.036905 108.768851 143.404708 109.894013 142.279546 
C 111.019174 141.154385 111.651372 139.628124 111.651372 138.036905 
C 111.651372 136.445687 111.019174 134.919426 109.894013 133.794265 
C 108.768851 132.669103 107.242591 132.036905 105.651372 132.036905 
C 104.060153 132.036905 102.533893 132.669103 101.408731 133.794265 
C 100.28357 134.919426 99.651372 136.445687 99.651372 138.036905 
C 99.651372 139.628124 100.28357 141.154385 101.408731 142.279546 
C 102.533893 143.404708 104.060153 144.036905 105.651372 144.036905 
z
" clip-path="url(#p2b50514bf2)" style="fill: #add8e6; stroke: #000000"/>
    <path d="M 206.324221 70.788369 
C 207.915439 70.788369 209.4417 70.156171 210.566861 69.031009 
C 211.692023 67.905848 212.324221 66.379587 212.324221 64.788369 
C 212.324221 63.19715 211.692023 61.67089 210.566861 60.545728 
C 209.4417 59.420567 207.915439 58.788369 206.324221 58.788369 
C 204.733002 58.788369 203.206742 59.420567 202.08158 60.545728 
C 200.956419 61.67089 200.324221 63.19715 200.324221 64.788369 
C 200.324221 66.379587 200.956419 67.905848 202.08158 69.031009 
C 203.206742 70.156171 204.733002 70.788369 206.324221 70.788369 
z
" clip-path="url(#p2b50514bf2)" style="fill: #add8e6; stroke: #000000"/>
    <path d="M 383.443872 251.037212 
C 385.03509 251.037212 386.561351 250.405014 387.686512 249.279852 
C 388.811674 248.154691 389.443872 246.62843 389.443872 245.037212 
C 389.443872 243.445993 388.811674 241.919733 387.686512 240.794571 
C 386.561351 239.66941 385.03509 239.037212 383.443872 239.037212 
C 381.852653 239.037212 380.326392 239.66941 379.201231 240.794571 
C 378.076069 241.919733 377.443872 243.445993 377.443872 245.037212 
C 377.443872 246.62843 378.076069 248.154691 379.201231 249.279852 
C 380.326392 250.405014 381.852653 251.037212 383.443872 251.037212 
z
" clip-path="url(#p2b50514bf2)" style="fill: #9acd32; stroke: #000000"/>
    <path d="M 244.864492 231.590567 
C 246.45571 231.590567 247.981971 230.958369 249.107133 229.833207 
C 250.232294 228.708046 250.864492 227.181785 250.864492 225.590567 
C 250.864492 223.999348 250.232294 222.473087 249.107133 221.347926 
C 247.981971 220.222764 246.45571 219.590567 244.864492 219.590567 
C 243.273273 219.590567 241.747013 220.222764 240.621851 221.347926 
C 239.49669 222.473087 238.864492 223.999348 238.864492 225.590567 
C 238.864492 227.181785 239.49669 228.708046 240.621851 229.833207 
C 241.747013 230.958369 243.273273 231.590567 244.864492 231.590567 
z
" clip-path="url(#p2b50514bf2)" style="fill: #9acd32; stroke: #000000"/>
    <path d="M 330.761458 141.975912 
C 332.352677 141.975912 333.878938 141.343714 335.004099 140.218553 
C 336.129261 139.093391 336.761458 137.567131 336.761458 135.975912 
C 336.761458 134.384694 336.129261 132.858433 335.004099 131.733271 
C 333.878938 130.60811 332.352677 129.975912 330.761458 129.975912 
C 329.17024 129.975912 327.643979 130.60811 326.518818 131.733271 
C 325.393656 132.858433 324.761458 134.384694 324.761458 135.975912 
C 324.761458 137.567131 325.393656 139.093391 326.518818 140.218553 
C 327.643979 141.343714 329.17024 141.975912 330.761458 141.975912 
z
" clip-path="url(#p2b50514bf2)" style="fill: #add8e6; stroke: #000000"/>
    <path d="M 237.949457 207.306657 
C 239.540676 207.306657 241.066936 206.674459 242.192098 205.549297 
C 243.317259 204.424136 243.949457 202.897875 243.949457 201.306657 
C 243.949457 199.715438 243.317259 198.189177 242.192098 197.064016 
C 241.066936 195.938854 239.540676 195.306657 237.949457 195.306657 
C 236.358238 195.306657 234.831978 195.938854 233.706816 197.064016 
C 232.581655 198.189177 231.949457 199.715438 231.949457 201.306657 
C 231.949457 202.897875 232.581655 204.424136 233.706816 205.549297 
C 234.831978 206.674459 236.358238 207.306657 237.949457 207.306657 
z
" clip-path="url(#p2b50514bf2)" style="fill: #9acd32; stroke: #000000"/>
    <path d="M 178.744519 83.811801 
C 180.335738 83.811801 181.861998 83.179604 182.98716 82.054442 
C 184.112321 80.929281 184.744519 79.40302 184.744519 77.811801 
C 184.744519 76.220583 184.112321 74.694322 182.98716 73.569161 
C 181.861998 72.443999 180.335738 71.811801 178.744519 71.811801 
C 177.1533 71.811801 175.62704 72.443999 174.501878 73.569161 
C 173.376717 74.694322 172.744519 76.220583 172.744519 77.811801 
C 172.744519 79.40302 173.376717 80.929281 174.501878 82.054442 
C 175.62704 83.179604 177.1533 83.811801 178.744519 83.811801 
z
" clip-path="url(#p2b50514bf2)" style="fill: #add8e6; stroke: #000000"/>
    <path d="M 349.774521 237.400603 
C 351.36574 237.400603 352.892001 236.768405 354.017162 235.643243 
C 355.142324 234.518082 355.774521 232.991821 355.774521 231.400603 
C 355.774521 229.809384 355.142324 228.283123 354.017162 227.157962 
C 352.892001 226.032801 351.36574 225.400603 349.774521 225.400603 
C 348.183303 225.400603 346.657042 226.032801 345.531881 227.157962 
C 344.406719 228.283123 343.774521 229.809384 343.774521 231.400603 
C 343.774521 232.991821 344.406719 234.518082 345.531881 235.643243 
C 346.657042 236.768405 348.183303 237.400603 349.774521 237.400603 
z
" clip-path="url(#p2b50514bf2)" style="fill: #9acd32; stroke: #000000"/>
    <path d="M 165.260517 96.863629 
C 166.851735 96.863629 168.377996 96.231432 169.503158 95.10627 
C 170.628319 93.981109 171.260517 92.454848 171.260517 90.863629 
C 171.260517 89.272411 170.628319 87.74615 169.503158 86.620989 
C 168.377996 85.495827 166.851735 84.863629 165.260517 84.863629 
C 163.669298 84.863629 162.143038 85.495827 161.017876 86.620989 
C 159.892715 87.74615 159.260517 89.272411 159.260517 90.863629 
C 159.260517 92.454848 159.892715 93.981109 161.017876 95.10627 
C 162.143038 96.231432 163.669298 96.863629 165.260517 96.863629 
z
" clip-path="url(#p2b50514bf2)" style="fill: #add8e6; stroke: #000000"/>
    <path d="M 191.535165 210.539169 
C 193.126384 210.539169 194.652644 209.906971 195.777806 208.78181 
C 196.902967 207.656648 197.535165 206.130387 197.535165 204.539169 
C 197.535165 202.94795 196.902967 201.42169 195.777806 200.296528 
C 194.652644 199.171367 193.126384 198.539169 191.535165 198.539169 
C 189.943946 198.539169 188.417686 199.171367 187.292524 200.296528 
C 186.167363 201.42169 185.535165 202.94795 185.535165 204.539169 
C 185.535165 206.130387 186.167363 207.656648 187.292524 208.78181 
C 188.417686 209.906971 189.943946 210.539169 191.535165 210.539169 
z
" clip-path="url(#p2b50514bf2)" style="fill: #9acd32; stroke: #000000"/>
    <path d="M 309.006941 196.99944 
C 310.59816 196.99944 312.124421 196.367242 313.249582 195.242081 
C 314.374743 194.116919 315.006941 192.590659 315.006941 190.99944 
C 315.006941 189.408222 314.374743 187.881961 313.249582 186.7568 
C 312.124421 185.631638 310.59816 184.99944 309.006941 184.99944 
C 307.415723 184.99944 305.889462 185.631638 304.764301 186.7568 
C 303.639139 187.881961 303.006941 189.408222 303.006941 190.99944 
C 303.006941 192.590659 303.639139 194.116919 304.764301 195.242081 
C 305.889462 196.367242 307.415723 196.99944 309.006941 196.99944 
z
" clip-path="url(#p2b50514bf2)" style="fill: #9acd32; stroke: #000000"/>
    <path d="M 276.983055 132.385138 
C 278.574273 132.385138 280.100534 131.75294 281.225696 130.627778 
C 282.350857 129.502617 282.983055 127.976356 282.983055 126.385138 
C 282.983055 124.793919 282.350857 123.267658 281.225696 122.142497 
C 280.100534 121.017335 278.574273 120.385138 276.983055 120.385138 
C 275.391836 120.385138 273.865576 121.017335 272.740414 122.142497 
C 271.615253 123.267658 270.983055 124.793919 270.983055 126.385138 
C 270.983055 127.976356 271.615253 129.502617 272.740414 130.627778 
C 273.865576 131.75294 275.391836 132.385138 276.983055 132.385138 
z
" clip-path="url(#p2b50514bf2)" style="fill: #add8e6; stroke: #000000"/>
    <path d="M 146.128356 171.167399 
C 147.719575 171.167399 149.245835 170.535201 150.370997 169.410039 
C 151.496158 168.284878 152.128356 166.758617 152.128356 165.167399 
C 152.128356 163.57618 151.496158 162.049919 150.370997 160.924758 
C 149.245835 159.799597 147.719575 159.167399 146.128356 159.167399 
C 144.537137 159.167399 143.010877 159.799597 141.885715 160.924758 
C 140.760554 162.049919 140.128356 163.57618 140.128356 165.167399 
C 140.128356 166.758617 140.760554 168.284878 141.885715 169.410039 
C 143.010877 170.535201 144.537137 171.167399 146.128356 171.167399 
z
" clip-path="url(#p2b50514bf2)" style="fill: #add8e6; stroke: #000000"/>
    <path d="M 202.082797 235.712686 
C 203.674016 235.712686 205.200276 235.080488 206.325438 233.955327 
C 207.450599 232.830165 208.082797 231.303905 208.082797 229.712686 
C 208.082797 228.121467 207.450599 226.595207 206.325438 225.470045 
C 205.200276 224.344884 203.674016 223.712686 202.082797 223.712686 
C 200.491579 223.712686 198.965318 224.344884 197.840157 225.470045 
C 196.714995 226.595207 196.082797 228.121467 196.082797 229.712686 
C 196.082797 231.303905 196.714995 232.830165 197.840157 233.955327 
C 198.965318 235.080488 200.491579 235.712686 202.082797 235.712686 
z
" clip-path="url(#p2b50514bf2)" style="fill: #9acd32; stroke: #000000"/>
    <path d="M 127.118485 170.792088 
C 128.709703 170.792088 130.235964 170.15989 131.361125 169.034728 
C 132.486287 167.909567 133.118485 166.383306 133.118485 164.792088 
C 133.118485 163.200869 132.486287 161.674609 131.361125 160.549447 
C 130.235964 159.424286 128.709703 158.792088 127.118485 158.792088 
C 125.527266 158.792088 124.001005 159.424286 122.875844 160.549447 
C 121.750682 161.674609 121.118485 163.200869 121.118485 164.792088 
C 121.118485 166.383306 121.750682 167.909567 122.875844 169.034728 
C 124.001005 170.15989 125.527266 170.792088 127.118485 170.792088 
z
" clip-path="url(#p2b50514bf2)" style="fill: #add8e6; stroke: #000000"/>
    <path d="M 261.338794 272.151895 
C 262.930012 272.151895 264.456273 271.519697 265.581434 270.394536 
C 266.706596 269.269374 267.338794 267.743114 267.338794 266.151895 
C 267.338794 264.560676 266.706596 263.034416 265.581434 261.909254 
C 264.456273 260.784093 262.930012 260.151895 261.338794 260.151895 
C 259.747575 260.151895 258.221314 260.784093 257.096153 261.909254 
C 255.970991 263.034416 255.338794 264.560676 255.338794 266.151895 
C 255.338794 267.743114 255.970991 269.269374 257.096153 270.394536 
C 258.221314 271.519697 259.747575 272.151895 261.338794 272.151895 
z
" clip-path="url(#p2b50514bf2)" style="fill: #9acd32; stroke: #000000"/>
    <path d="M 246.641378 266.207914 
C 248.232596 266.207914 249.758857 265.575716 250.884018 264.450555 
C 252.00918 263.325393 252.641378 261.799133 252.641378 260.207914 
C 252.641378 258.616695 252.00918 257.090435 250.884018 255.965273 
C 249.758857 254.840112 248.232596 254.207914 246.641378 254.207914 
C 245.050159 254.207914 243.523899 254.840112 242.398737 255.965273 
C 241.273576 257.090435 240.641378 258.616695 240.641378 260.207914 
C 240.641378 261.799133 241.273576 263.325393 242.398737 264.450555 
C 243.523899 265.575716 245.050159 266.207914 246.641378 266.207914 
z
" clip-path="url(#p2b50514bf2)" style="fill: #9acd32; stroke: #000000"/>
    <path d="M 88.876128 120.301424 
C 90.467347 120.301424 91.993608 119.669226 93.118769 118.544065 
C 94.243931 117.418903 94.876128 115.892643 94.876128 114.301424 
C 94.876128 112.710205 94.243931 111.183945 93.118769 110.058783 
C 91.993608 108.933622 90.467347 108.301424 88.876128 108.301424 
C 87.28491 108.301424 85.758649 108.933622 84.633488 110.058783 
C 83.508326 111.183945 82.876128 112.710205 82.876128 114.301424 
C 82.876128 115.892643 83.508326 117.418903 84.633488 118.544065 
C 85.758649 119.669226 87.28491 120.301424 88.876128 120.301424 
z
" clip-path="url(#p2b50514bf2)" style="fill: #add8e6; stroke: #000000"/>
    <path d="M 146.842506 101.791944 
C 148.433725 101.791944 149.959986 101.159746 151.085147 100.034585 
C 152.210309 98.909423 152.842506 97.383162 152.842506 95.791944 
C 152.842506 94.200725 152.210309 92.674465 151.085147 91.549303 
C 149.959986 90.424142 148.433725 89.791944 146.842506 89.791944 
C 145.251288 89.791944 143.725027 90.424142 142.599866 91.549303 
C 141.474704 92.674465 140.842506 94.200725 140.842506 95.791944 
C 140.842506 97.383162 141.474704 98.909423 142.599866 100.034585 
C 143.725027 101.159746 145.251288 101.791944 146.842506 101.791944 
z
" clip-path="url(#p2b50514bf2)" style="fill: #add8e6; stroke: #000000"/>
    <path d="M 353.254155 221.757411 
C 354.845374 221.757411 356.371634 221.125213 357.496796 220.000051 
C 358.621957 218.87489 359.254155 217.348629 359.254155 215.757411 
C 359.254155 214.166192 358.621957 212.639932 357.496796 211.51477 
C 356.371634 210.389609 354.845374 209.757411 353.254155 209.757411 
C 351.662936 209.757411 350.136676 210.389609 349.011514 211.51477 
C 347.886353 212.639932 347.254155 214.166192 347.254155 215.757411 
C 347.254155 217.348629 347.886353 218.87489 349.011514 220.000051 
C 350.136676 221.125213 351.662936 221.757411 353.254155 221.757411 
z
" clip-path="url(#p2b50514bf2)" style="fill: #9acd32; stroke: #000000"/>
    <path d="M 237.362265 250.995194 
C 238.953483 250.995194 240.479744 250.362997 241.604905 249.237835 
C 242.730067 248.112674 243.362265 246.586413 243.362265 244.995194 
C 243.362265 243.403976 242.730067 241.877715 241.604905 240.752554 
C 240.479744 239.627392 238.953483 238.995194 237.362265 238.995194 
C 235.771046 238.995194 234.244785 239.627392 233.119624 240.752554 
C 231.994462 241.877715 231.362265 243.403976 231.362265 244.995194 
C 231.362265 246.586413 231.994462 248.112674 233.119624 249.237835 
C 234.244785 250.362997 235.771046 250.995194 237.362265 250.995194 
z
" clip-path="url(#p2b50514bf2)" style="fill: #9acd32; stroke: #000000"/>
    <path d="M 268.495427 218.504027 
C 270.086646 218.504027 271.612906 217.871829 272.738068 216.746668 
C 273.863229 215.621506 274.495427 214.095246 274.495427 212.504027 
C 274.495427 210.912808 273.863229 209.386548 272.738068 208.261386 
C 271.612906 207.136225 270.086646 206.504027 268.495427 206.504027 
C 266.904209 206.504027 265.377948 207.136225 264.252786 208.261386 
C 263.127625 209.386548 262.495427 210.912808 262.495427 212.504027 
C 262.495427 214.095246 263.127625 215.621506 264.252786 216.746668 
C 265.377948 217.871829 266.904209 218.504027 268.495427 218.504027 
z
" clip-path="url(#p2b50514bf2)" style="fill: #9acd32; stroke: #000000"/>
    <path d="M 231.123896 94.418617 
C 232.715115 94.418617 234.241375 93.786419 235.366537 92.661258 
C 236.491698 91.536096 237.123896 90.009836 237.123896 88.418617 
C 237.123896 86.827398 236.491698 85.301138 235.366537 84.175976 
C 234.241375 83.050815 232.715115 82.418617 231.123896 82.418617 
C 229.532678 82.418617 228.006417 83.050815 226.881256 84.175976 
C 225.756094 85.301138 225.123896 86.827398 225.123896 88.418617 
C 225.123896 90.009836 225.756094 91.536096 226.881256 92.661258 
C 228.006417 93.786419 229.532678 94.418617 231.123896 94.418617 
z
" clip-path="url(#p2b50514bf2)" style="fill: #add8e6; stroke: #000000"/>
    <path d="M 336.327745 278.771479 
C 337.918963 278.771479 339.445224 278.139281 340.570385 277.01412 
C 341.695547 275.888958 342.327745 274.362698 342.327745 272.771479 
C 342.327745 271.180261 341.695547 269.654 340.570385 268.528839 
C 339.445224 267.403677 337.918963 266.771479 336.327745 266.771479 
C 334.736526 266.771479 333.210265 267.403677 332.085104 268.528839 
C 330.959942 269.654 330.327745 271.180261 330.327745 272.771479 
C 330.327745 274.362698 330.959942 275.888958 332.085104 277.01412 
C 333.210265 278.139281 334.736526 278.771479 336.327745 278.771479 
z
" clip-path="url(#p2b50514bf2)" style="fill: #9acd32; stroke: #000000"/>
    <path d="M 214.004889 76.511351 
C 215.596107 76.511351 217.122368 75.879153 218.247529 74.753992 
C 219.372691 73.62883 220.004889 72.10257 220.004889 70.511351 
C 220.004889 68.920132 219.372691 67.393872 218.247529 66.26871 
C 217.122368 65.143549 215.596107 64.511351 214.004889 64.511351 
C 212.41367 64.511351 210.887409 65.143549 209.762248 66.26871 
C 208.637087 67.393872 208.004889 68.920132 208.004889 70.511351 
C 208.004889 72.10257 208.637087 73.62883 209.762248 74.753992 
C 210.887409 75.879153 212.41367 76.511351 214.004889 76.511351 
z
" clip-path="url(#p2b50514bf2)" style="fill: #add8e6; stroke: #000000"/>
    <path d="M 155.388759 193.646212 
C 156.979977 193.646212 158.506238 193.014014 159.631399 191.888852 
C 160.756561 190.763691 161.388759 189.23743 161.388759 187.646212 
C 161.388759 186.054993 160.756561 184.528732 159.631399 183.403571 
C 158.506238 182.278409 156.979977 181.646212 155.388759 181.646212 
C 153.79754 181.646212 152.271279 182.278409 151.146118 183.403571 
C 150.020956 184.528732 149.388759 186.054993 149.388759 187.646212 
C 149.388759 189.23743 150.020956 190.763691 151.146118 191.888852 
C 152.271279 193.014014 153.79754 193.646212 155.388759 193.646212 
z
" clip-path="url(#p2b50514bf2)" style="fill: #add8e6; stroke: #000000"/>
    <path d="M 234.367818 281.478333 
C 235.959037 281.478333 237.485297 280.846135 238.610459 279.720974 
C 239.73562 278.595812 240.367818 277.069552 240.367818 275.478333 
C 240.367818 273.887115 239.73562 272.360854 238.610459 271.235693 
C 237.485297 270.110531 235.959037 269.478333 234.367818 269.478333 
C 232.7766 269.478333 231.250339 270.110531 230.125177 271.235693 
C 229.000016 272.360854 228.367818 273.887115 228.367818 275.478333 
C 228.367818 277.069552 229.000016 278.595812 230.125177 279.720974 
C 231.250339 280.846135 232.7766 281.478333 234.367818 281.478333 
z
" clip-path="url(#p2b50514bf2)" style="fill: #9acd32; stroke: #000000"/>
    <path d="M 274.834788 246.277153 
C 276.426006 246.277153 277.952267 245.644955 279.077428 244.519794 
C 280.20259 243.394632 280.834788 241.868371 280.834788 240.277153 
C 280.834788 238.685934 280.20259 237.159674 279.077428 236.034512 
C 277.952267 234.909351 276.426006 234.277153 274.834788 234.277153 
C 273.243569 234.277153 271.717309 234.909351 270.592147 236.034512 
C 269.466986 237.159674 268.834788 238.685934 268.834788 240.277153 
C 268.834788 241.868371 269.466986 243.394632 270.592147 244.519794 
C 271.717309 245.644955 273.243569 246.277153 274.834788 246.277153 
z
" clip-path="url(#p2b50514bf2)" style="fill: #9acd32; stroke: #000000"/>
    <path d="M 121.323592 95.598023 
C 122.914811 95.598023 124.441071 94.965825 125.566233 93.840663 
C 126.691394 92.715502 127.323592 91.189241 127.323592 89.598023 
C 127.323592 88.006804 126.691394 86.480544 125.566233 85.355382 
C 124.441071 84.230221 122.914811 83.598023 121.323592 83.598023 
C 119.732374 83.598023 118.206113 84.230221 117.080951 85.355382 
C 115.95579 86.480544 115.323592 88.006804 115.323592 89.598023 
C 115.323592 91.189241 115.95579 92.715502 117.080951 93.840663 
C 118.206113 94.965825 119.732374 95.598023 121.323592 95.598023 
z
" clip-path="url(#p2b50514bf2)" style="fill: #add8e6; stroke: #000000"/>
    <path d="M 288.828958 250.368331 
C 290.420177 250.368331 291.946437 249.736133 293.071599 248.610972 
C 294.19676 247.48581 294.828958 245.95955 294.828958 244.368331 
C 294.828958 242.777112 294.19676 241.250852 293.071599 240.12569 
C 291.946437 239.000529 290.420177 238.368331 288.828958 238.368331 
C 287.23774 238.368331 285.711479 239.000529 284.586317 240.12569 
C 283.461156 241.250852 282.828958 242.777112 282.828958 244.368331 
C 282.828958 245.95955 283.461156 247.48581 284.586317 248.610972 
C 285.711479 249.736133 287.23774 250.368331 288.828958 250.368331 
z
" clip-path="url(#p2b50514bf2)" style="fill: #9acd32; stroke: #000000"/>
    <path d="M 321.75592 169.48056 
C 323.347138 169.48056 324.873399 168.848362 325.99856 167.7232 
C 327.123722 166.598039 327.75592 165.071778 327.75592 163.48056 
C 327.75592 161.889341 327.123722 160.363081 325.99856 159.237919 
C 324.873399 158.112758 323.347138 157.48056 321.75592 157.48056 
C 320.164701 157.48056 318.638441 158.112758 317.513279 159.237919 
C 316.388118 160.363081 315.75592 161.889341 315.75592 163.48056 
C 315.75592 165.071778 316.388118 166.598039 317.513279 167.7232 
C 318.638441 168.848362 320.164701 169.48056 321.75592 169.48056 
z
" clip-path="url(#p2b50514bf2)" style="fill: #add8e6; stroke: #000000"/>
    <path d="M 157.101828 82.975302 
C 158.693046 82.975302 160.219307 82.343104 161.344468 81.217942 
C 162.46963 80.092781 163.101828 78.56652 163.101828 76.975302 
C 163.101828 75.384083 162.46963 73.857823 161.344468 72.732661 
C 160.219307 71.6075 158.693046 70.975302 157.101828 70.975302 
C 155.510609 70.975302 153.984348 71.6075 152.859187 72.732661 
C 151.734025 73.857823 151.101828 75.384083 151.101828 76.975302 
C 151.101828 78.56652 151.734025 80.092781 152.859187 81.217942 
C 153.984348 82.343104 155.510609 82.975302 157.101828 82.975302 
z
" clip-path="url(#p2b50514bf2)" style="fill: #add8e6; stroke: #000000"/>
    <path d="M 370.586904 261.90179 
C 372.178122 261.90179 373.704383 261.269592 374.829544 260.144431 
C 375.954706 259.01927 376.586904 257.493009 376.586904 255.90179 
C 376.586904 254.310572 375.954706 252.784311 374.829544 251.65915 
C 373.704383 250.533988 372.178122 249.90179 370.586904 249.90179 
C 368.995685 249.90179 367.469424 250.533988 366.344263 251.65915 
C 365.219102 252.784311 364.586904 254.310572 364.586904 255.90179 
C 364.586904 257.493009 365.219102 259.01927 366.344263 260.144431 
C 367.469424 261.269592 368.995685 261.90179 370.586904 261.90179 
z
" clip-path="url(#p2b50514bf2)" style="fill: #9acd32; stroke: #000000"/>
    <path d="M 295.970694 270.842226 
C 297.561912 270.842226 299.088173 270.210028 300.213335 269.084867 
C 301.338496 267.959705 301.970694 266.433445 301.970694 264.842226 
C 301.970694 263.251007 301.338496 261.724747 300.213335 260.599585 
C 299.088173 259.474424 297.561912 258.842226 295.970694 258.842226 
C 294.379475 258.842226 292.853215 259.474424 291.728053 260.599585 
C 290.602892 261.724747 289.970694 263.251007 289.970694 264.842226 
C 289.970694 266.433445 290.602892 267.959705 291.728053 269.084867 
C 292.853215 270.210028 294.379475 270.842226 295.970694 270.842226 
z
" clip-path="url(#p2b50514bf2)" style="fill: #9acd32; stroke: #000000"/>
    <path d="M 306.641044 231.729519 
C 308.232263 231.729519 309.758524 231.097321 310.883685 229.97216 
C 312.008847 228.846998 312.641044 227.320738 312.641044 225.729519 
C 312.641044 224.1383 312.008847 222.61204 310.883685 221.486878 
C 309.758524 220.361717 308.232263 219.729519 306.641044 219.729519 
C 305.049826 219.729519 303.523565 220.361717 302.398404 221.486878 
C 301.273242 222.61204 300.641044 224.1383 300.641044 225.729519 
C 300.641044 227.320738 301.273242 228.846998 302.398404 229.97216 
C 303.523565 231.097321 305.049826 231.729519 306.641044 231.729519 
z
" clip-path="url(#p2b50514bf2)" style="fill: #9acd32; stroke: #000000"/>
    <path d="M 216.546901 99.377841 
C 218.138119 99.377841 219.66438 98.745643 220.789542 97.620482 
C 221.914703 96.49532 222.546901 94.96906 222.546901 93.377841 
C 222.546901 91.786623 221.914703 90.260362 220.789542 89.1352 
C 219.66438 88.010039 218.138119 87.377841 216.546901 87.377841 
C 214.955682 87.377841 213.429422 88.010039 212.30426 89.1352 
C 211.179099 90.260362 210.546901 91.786623 210.546901 93.377841 
C 210.546901 94.96906 211.179099 96.49532 212.30426 97.620482 
C 213.429422 98.745643 214.955682 99.377841 216.546901 99.377841 
z
" clip-path="url(#p2b50514bf2)" style="fill: #add8e6; stroke: #000000"/>
    <path d="M 270.392629 98.275851 
C 271.983847 98.275851 273.510108 97.643654 274.63527 96.518492 
C 275.760431 95.393331 276.392629 93.86707 276.392629 92.275851 
C 276.392629 90.684633 275.760431 89.158372 274.63527 88.033211 
C 273.510108 86.908049 271.983847 86.275851 270.392629 86.275851 
C 268.80141 86.275851 267.27515 86.908049 266.149988 88.033211 
C 265.024827 89.158372 264.392629 90.684633 264.392629 92.275851 
C 264.392629 93.86707 265.024827 95.393331 266.149988 96.518492 
C 267.27515 97.643654 268.80141 98.275851 270.392629 98.275851 
z
" clip-path="url(#p2b50514bf2)" style="fill: #add8e6; stroke: #000000"/>
    <path d="M 294.747919 222.880466 
C 296.339138 222.880466 297.865399 222.248268 298.99056 221.123107 
C 300.115722 219.997945 300.747919 218.471685 300.747919 216.880466 
C 300.747919 215.289248 300.115722 213.762987 298.99056 212.637825 
C 297.865399 211.512664 296.339138 210.880466 294.747919 210.880466 
C 293.156701 210.880466 291.63044 211.512664 290.505279 212.637825 
C 289.380117 213.762987 288.747919 215.289248 288.747919 216.880466 
C 288.747919 218.471685 289.380117 219.997945 290.505279 221.123107 
C 291.63044 222.248268 293.156701 222.880466 294.747919 222.880466 
z
" clip-path="url(#p2b50514bf2)" style="fill: #9acd32; stroke: #000000"/>
    <path d="M 201.105461 89.508683 
C 202.69668 89.508683 204.22294 88.876485 205.348102 87.751323 
C 206.473263 86.626162 207.105461 85.099901 207.105461 83.508683 
C 207.105461 81.917464 206.473263 80.391204 205.348102 79.266042 
C 204.22294 78.140881 202.69668 77.508683 201.105461 77.508683 
C 199.514242 77.508683 197.987982 78.140881 196.86282 79.266042 
C 195.737659 80.391204 195.105461 81.917464 195.105461 83.508683 
C 195.105461 85.099901 195.737659 86.626162 196.86282 87.751323 
C 197.987982 88.876485 199.514242 89.508683 201.105461 89.508683 
z
" clip-path="url(#p2b50514bf2)" style="fill: #add8e6; stroke: #000000"/>
    <path d="M 262.206982 209.861513 
C 263.798201 209.861513 265.324462 209.229315 266.449623 208.104154 
C 267.574785 206.978992 268.206982 205.452731 268.206982 203.861513 
C 268.206982 202.270294 267.574785 200.744034 266.449623 199.618872 
C 265.324462 198.493711 263.798201 197.861513 262.206982 197.861513 
C 260.615764 197.861513 259.089503 198.493711 257.964342 199.618872 
C 256.83918 200.744034 256.206982 202.270294 256.206982 203.861513 
C 256.206982 205.452731 256.83918 206.978992 257.964342 208.104154 
C 259.089503 209.229315 260.615764 209.861513 262.206982 209.861513 
z
" clip-path="url(#p2b50514bf2)" style="fill: #9acd32; stroke: #000000"/>
    <path d="M 283.830012 290.267631 
C 285.421231 290.267631 286.947492 289.635433 288.072653 288.510272 
C 289.197815 287.38511 289.830012 285.85885 289.830012 284.267631 
C 289.830012 282.676413 289.197815 281.150152 288.072653 280.024991 
C 286.947492 278.899829 285.421231 278.267631 283.830012 278.267631 
C 282.238794 278.267631 280.712533 278.899829 279.587372 280.024991 
C 278.46221 281.150152 277.830012 282.676413 277.830012 284.267631 
C 277.830012 285.85885 278.46221 287.38511 279.587372 288.510272 
C 280.712533 289.635433 282.238794 290.267631 283.830012 290.267631 
z
" clip-path="url(#p2b50514bf2)" style="fill: #9acd32; stroke: #000000"/>
    <path d="M 224.481207 228.44192 
C 226.072426 228.44192 227.598686 227.809722 228.723848 226.684561 
C 229.849009 225.559399 230.481207 224.033139 230.481207 222.44192 
C 230.481207 220.850701 229.849009 219.324441 228.723848 218.199279 
C 227.598686 217.074118 226.072426 216.44192 224.481207 216.44192 
C 222.889989 216.44192 221.363728 217.074118 220.238567 218.199279 
C 219.113405 219.324441 218.481207 220.850701 218.481207 222.44192 
C 218.481207 224.033139 219.113405 225.559399 220.238567 226.684561 
C 221.363728 227.809722 222.889989 228.44192 224.481207 228.44192 
z
" clip-path="url(#p2b50514bf2)" style="fill: #9acd32; stroke: #000000"/>
    <path d="M 164.602278 124.123835 
C 166.193496 124.123835 167.719757 123.491637 168.844918 122.366476 
C 169.97008 121.241315 170.602278 119.715054 170.602278 118.123835 
C 170.602278 116.532617 169.97008 115.006356 168.844918 113.881195 
C 167.719757 112.756033 166.193496 112.123835 164.602278 112.123835 
C 163.011059 112.123835 161.484798 112.756033 160.359637 113.881195 
C 159.234475 115.006356 158.602278 116.532617 158.602278 118.123835 
C 158.602278 119.715054 159.234475 121.241315 160.359637 122.366476 
C 161.484798 123.491637 163.011059 124.123835 164.602278 124.123835 
z
" clip-path="url(#p2b50514bf2)" style="fill: #add8e6; stroke: #000000"/>
   </g>
   <g id="PathCollection_1"/>
   <g id="PathCollection_2"/>
   <g id="matplotlib.axis_1"/>
   <g id="matplotlib.axis_2"/>
   <g id="text_1">
    <g id="patch_3">
     <path d="M 277.19385 83.020553 
L 407.5776 83.020553 
Q 414.5776 83.020553 414.5776 76.020553 
L 414.5776 46.79424 
Q 414.5776 39.79424 407.5776 39.79424 
L 277.19385 39.79424 
Q 270.19385 39.79424 270.19385 46.79424 
L 270.19385 76.020553 
Q 270.19385 83.020553 277.19385 83.020553 
z
" style="fill: #ffffff; opacity: 0.2; stroke: #000000; stroke-linejoin: miter"/>
    </g>
    <!-- Total Cuts: 2 -->
    <g transform="translate(320.930725 57.432052) scale(0.14 -0.14)">
     <defs>
      <path id="DejaVuSans-54" d="M -19 4666 
L 3928 4666 
L 3928 4134 
L 2272 4134 
L 2272 0 
L 1638 0 
L 1638 4134 
L -19 4134 
L -19 4666 
z
" transform="scale(0.015625)"/>
      <path id="DejaVuSans-6f" d="M 1959 3097 
Q 1497 3097 1228 2736 
Q 959 2375 959 1747 
Q 959 1119 1226 758 
Q 1494 397 1959 397 
Q 2419 397 2687 759 
Q 2956 1122 2956 1747 
Q 2956 2369 2687 2733 
Q 2419 3097 1959 3097 
z
M 1959 3584 
Q 2709 3584 3137 3096 
Q 3566 2609 3566 1747 
Q 3566 888 3137 398 
Q 2709 -91 1959 -91 
Q 1206 -91 779 398 
Q 353 888 353 1747 
Q 353 2609 779 3096 
Q 1206 3584 1959 3584 
z
" transform="scale(0.015625)"/>
      <path id="DejaVuSans-74" d="M 1172 4494 
L 1172 3500 
L 2356 3500 
L 2356 3053 
L 1172 3053 
L 1172 1153 
Q 1172 725 1289 603 
Q 1406 481 1766 481 
L 2356 481 
L 2356 0 
L 1766 0 
Q 1100 0 847 248 
Q 594 497 594 1153 
L 594 3053 
L 172 3053 
L 172 3500 
L 594 3500 
L 594 4494 
L 1172 4494 
z
" transform="scale(0.015625)"/>
      <path id="DejaVuSans-61" d="M 2194 1759 
Q 1497 1759 1228 1600 
Q 959 1441 959 1056 
Q 959 750 1161 570 
Q 1363 391 1709 391 
Q 2188 391 2477 730 
Q 2766 1069 2766 1631 
L 2766 1759 
L 2194 1759 
z
M 3341 1997 
L 3341 0 
L 2766 0 
L 2766 531 
Q 2569 213 2275 61 
Q 1981 -91 1556 -91 
Q 1019 -91 701 211 
Q 384 513 384 1019 
Q 384 1609 779 1909 
Q 1175 2209 1959 2209 
L 2766 2209 
L 2766 2266 
Q 2766 2663 2505 2880 
Q 2244 3097 1772 3097 
Q 1472 3097 1187 3025 
Q 903 2953 641 2809 
L 641 3341 
Q 956 3463 1253 3523 
Q 1550 3584 1831 3584 
Q 2591 3584 2966 3190 
Q 3341 2797 3341 1997 
z
" transform="scale(0.015625)"/>
      <path id="DejaVuSans-6c" d="M 603 4863 
L 1178 4863 
L 1178 0 
L 603 0 
L 603 4863 
z
" transform="scale(0.015625)"/>
      <path id="DejaVuSans-20" transform="scale(0.015625)"/>
      <path id="DejaVuSans-43" d="M 4122 4306 
L 4122 3641 
Q 3803 3938 3442 4084 
Q 3081 4231 2675 4231 
Q 1875 4231 1450 3742 
Q 1025 3253 1025 2328 
Q 1025 1406 1450 917 
Q 1875 428 2675 428 
Q 3081 428 3442 575 
Q 3803 722 4122 1019 
L 4122 359 
Q 3791 134 3420 21 
Q 3050 -91 2638 -91 
Q 1578 -91 968 557 
Q 359 1206 359 2328 
Q 359 3453 968 4101 
Q 1578 4750 2638 4750 
Q 3056 4750 3426 4639 
Q 3797 4528 4122 4306 
z
" transform="scale(0.015625)"/>
      <path id="DejaVuSans-75" d="M 544 1381 
L 544 3500 
L 1119 3500 
L 1119 1403 
Q 1119 906 1312 657 
Q 1506 409 1894 409 
Q 2359 409 2629 706 
Q 2900 1003 2900 1516 
L 2900 3500 
L 3475 3500 
L 3475 0 
L 2900 0 
L 2900 538 
Q 2691 219 2414 64 
Q 2138 -91 1772 -91 
Q 1169 -91 856 284 
Q 544 659 544 1381 
z
M 1991 3584 
L 1991 3584 
z
" transform="scale(0.015625)"/>
      <path id="DejaVuSans-73" d="M 2834 3397 
L 2834 2853 
Q 2591 2978 2328 3040 
Q 2066 3103 1784 3103 
Q 1356 3103 1142 2972 
Q 928 2841 928 2578 
Q 928 2378 1081 2264 
Q 1234 2150 1697 2047 
L 1894 2003 
Q 2506 1872 2764 1633 
Q 3022 1394 3022 966 
Q 3022 478 2636 193 
Q 2250 -91 1575 -91 
Q 1294 -91 989 -36 
Q 684 19 347 128 
L 347 722 
Q 666 556 975 473 
Q 1284 391 1588 391 
Q 1994 391 2212 530 
Q 2431 669 2431 922 
Q 2431 1156 2273 1281 
Q 2116 1406 1581 1522 
L 1381 1569 
Q 847 1681 609 1914 
Q 372 2147 372 2553 
Q 372 3047 722 3315 
Q 1072 3584 1716 3584 
Q 2034 3584 2315 3537 
Q 2597 3491 2834 3397 
z
" transform="scale(0.015625)"/>
      <path id="DejaVuSans-3a" d="M 750 794 
L 1409 794 
L 1409 0 
L 750 0 
L 750 794 
z
M 750 3309 
L 1409 3309 
L 1409 2516 
L 750 2516 
L 750 3309 
z
" transform="scale(0.015625)"/>
      <path id="DejaVuSans-32" d="M 1228 531 
L 3431 531 
L 3431 0 
L 469 0 
L 469 531 
Q 828 903 1448 1529 
Q 2069 2156 2228 2338 
Q 2531 2678 2651 2914 
Q 2772 3150 2772 3378 
Q 2772 3750 2511 3984 
Q 2250 4219 1831 4219 
Q 1534 4219 1204 4116 
Q 875 4013 500 3803 
L 500 4441 
Q 881 4594 1212 4672 
Q 1544 4750 1819 4750 
Q 2544 4750 2975 4387 
Q 3406 4025 3406 3419 
Q 3406 3131 3298 2873 
Q 3191 2616 2906 2266 
Q 2828 2175 2409 1742 
Q 1991 1309 1228 531 
z
" transform="scale(0.015625)"/>
     </defs>
     <use xlink:href="#DejaVuSans-54"/>
     <use xlink:href="#DejaVuSans-6f" x="44.083984"/>
     <use xlink:href="#DejaVuSans-74" x="105.265625"/>
     <use xlink:href="#DejaVuSans-61" x="144.474609"/>
     <use xlink:href="#DejaVuSans-6c" x="205.753906"/>
     <use xlink:href="#DejaVuSans-20" x="233.537109"/>
     <use xlink:href="#DejaVuSans-43" x="265.324219"/>
     <use xlink:href="#DejaVuSans-75" x="335.148438"/>
     <use xlink:href="#DejaVuSans-74" x="398.527344"/>
     <use xlink:href="#DejaVuSans-73" x="437.736328"/>
     <use xlink:href="#DejaVuSans-3a" x="489.835938"/>
     <use xlink:href="#DejaVuSans-20" x="523.527344"/>
     <use xlink:href="#DejaVuSans-32" x="555.314453"/>
    </g>
    <!-- Runtime (s): 0.016 -->
    <g transform="translate(277.19385 73.10899) scale(0.14 -0.14)">
     <defs>
      <path id="DejaVuSans-52" d="M 2841 2188 
Q 3044 2119 3236 1894 
Q 3428 1669 3622 1275 
L 4263 0 
L 3584 0 
L 2988 1197 
Q 2756 1666 2539 1819 
Q 2322 1972 1947 1972 
L 1259 1972 
L 1259 0 
L 628 0 
L 628 4666 
L 2053 4666 
Q 2853 4666 3247 4331 
Q 3641 3997 3641 3322 
Q 3641 2881 3436 2590 
Q 3231 2300 2841 2188 
z
M 1259 4147 
L 1259 2491 
L 2053 2491 
Q 2509 2491 2742 2702 
Q 2975 2913 2975 3322 
Q 2975 3731 2742 3939 
Q 2509 4147 2053 4147 
L 1259 4147 
z
" transform="scale(0.015625)"/>
      <path id="DejaVuSans-6e" d="M 3513 2113 
L 3513 0 
L 2938 0 
L 2938 2094 
Q 2938 2591 2744 2837 
Q 2550 3084 2163 3084 
Q 1697 3084 1428 2787 
Q 1159 2491 1159 1978 
L 1159 0 
L 581 0 
L 581 3500 
L 1159 3500 
L 1159 2956 
Q 1366 3272 1645 3428 
Q 1925 3584 2291 3584 
Q 2894 3584 3203 3211 
Q 3513 2838 3513 2113 
z
" transform="scale(0.015625)"/>
      <path id="DejaVuSans-69" d="M 603 3500 
L 1178 3500 
L 1178 0 
L 603 0 
L 603 3500 
z
M 603 4863 
L 1178 4863 
L 1178 4134 
L 603 4134 
L 603 4863 
z
" transform="scale(0.015625)"/>
      <path id="DejaVuSans-6d" d="M 3328 2828 
Q 3544 3216 3844 3400 
Q 4144 3584 4550 3584 
Q 5097 3584 5394 3201 
Q 5691 2819 5691 2113 
L 5691 0 
L 5113 0 
L 5113 2094 
Q 5113 2597 4934 2840 
Q 4756 3084 4391 3084 
Q 3944 3084 3684 2787 
Q 3425 2491 3425 1978 
L 3425 0 
L 2847 0 
L 2847 2094 
Q 2847 2600 2669 2842 
Q 2491 3084 2119 3084 
Q 1678 3084 1418 2786 
Q 1159 2488 1159 1978 
L 1159 0 
L 581 0 
L 581 3500 
L 1159 3500 
L 1159 2956 
Q 1356 3278 1631 3431 
Q 1906 3584 2284 3584 
Q 2666 3584 2933 3390 
Q 3200 3197 3328 2828 
z
" transform="scale(0.015625)"/>
      <path id="DejaVuSans-65" d="M 3597 1894 
L 3597 1613 
L 953 1613 
Q 991 1019 1311 708 
Q 1631 397 2203 397 
Q 2534 397 2845 478 
Q 3156 559 3463 722 
L 3463 178 
Q 3153 47 2828 -22 
Q 2503 -91 2169 -91 
Q 1331 -91 842 396 
Q 353 884 353 1716 
Q 353 2575 817 3079 
Q 1281 3584 2069 3584 
Q 2775 3584 3186 3129 
Q 3597 2675 3597 1894 
z
M 3022 2063 
Q 3016 2534 2758 2815 
Q 2500 3097 2075 3097 
Q 1594 3097 1305 2825 
Q 1016 2553 972 2059 
L 3022 2063 
z
" transform="scale(0.015625)"/>
      <path id="DejaVuSans-28" d="M 1984 4856 
Q 1566 4138 1362 3434 
Q 1159 2731 1159 2009 
Q 1159 1288 1364 580 
Q 1569 -128 1984 -844 
L 1484 -844 
Q 1016 -109 783 600 
Q 550 1309 550 2009 
Q 550 2706 781 3412 
Q 1013 4119 1484 4856 
L 1984 4856 
z
" transform="scale(0.015625)"/>
      <path id="DejaVuSans-29" d="M 513 4856 
L 1013 4856 
Q 1481 4119 1714 3412 
Q 1947 2706 1947 2009 
Q 1947 1309 1714 600 
Q 1481 -109 1013 -844 
L 513 -844 
Q 928 -128 1133 580 
Q 1338 1288 1338 2009 
Q 1338 2731 1133 3434 
Q 928 4138 513 4856 
z
" transform="scale(0.015625)"/>
      <path id="DejaVuSans-30" d="M 2034 4250 
Q 1547 4250 1301 3770 
Q 1056 3291 1056 2328 
Q 1056 1369 1301 889 
Q 1547 409 2034 409 
Q 2525 409 2770 889 
Q 3016 1369 3016 2328 
Q 3016 3291 2770 3770 
Q 2525 4250 2034 4250 
z
M 2034 4750 
Q 2819 4750 3233 4129 
Q 3647 3509 3647 2328 
Q 3647 1150 3233 529 
Q 2819 -91 2034 -91 
Q 1250 -91 836 529 
Q 422 1150 422 2328 
Q 422 3509 836 4129 
Q 1250 4750 2034 4750 
z
" transform="scale(0.015625)"/>
      <path id="DejaVuSans-2e" d="M 684 794 
L 1344 794 
L 1344 0 
L 684 0 
L 684 794 
z
" transform="scale(0.015625)"/>
      <path id="DejaVuSans-31" d="M 794 531 
L 1825 531 
L 1825 4091 
L 703 3866 
L 703 4441 
L 1819 4666 
L 2450 4666 
L 2450 531 
L 3481 531 
L 3481 0 
L 794 0 
L 794 531 
z
" transform="scale(0.015625)"/>
      <path id="DejaVuSans-36" d="M 2113 2584 
Q 1688 2584 1439 2293 
Q 1191 2003 1191 1497 
Q 1191 994 1439 701 
Q 1688 409 2113 409 
Q 2538 409 2786 701 
Q 3034 994 3034 1497 
Q 3034 2003 2786 2293 
Q 2538 2584 2113 2584 
z
M 3366 4563 
L 3366 3988 
Q 3128 4100 2886 4159 
Q 2644 4219 2406 4219 
Q 1781 4219 1451 3797 
Q 1122 3375 1075 2522 
Q 1259 2794 1537 2939 
Q 1816 3084 2150 3084 
Q 2853 3084 3261 2657 
Q 3669 2231 3669 1497 
Q 3669 778 3244 343 
Q 2819 -91 2113 -91 
Q 1303 -91 875 529 
Q 447 1150 447 2328 
Q 447 3434 972 4092 
Q 1497 4750 2381 4750 
Q 2619 4750 2861 4703 
Q 3103 4656 3366 4563 
z
" transform="scale(0.015625)"/>
     </defs>
     <use xlink:href="#DejaVuSans-52"/>
     <use xlink:href="#DejaVuSans-75" x="64.982422"/>
     <use xlink:href="#DejaVuSans-6e" x="128.361328"/>
     <use xlink:href="#DejaVuSans-74" x="191.740234"/>
     <use xlink:href="#DejaVuSans-69" x="230.949219"/>
     <use xlink:href="#DejaVuSans-6d" x="258.732422"/>
     <use xlink:href="#DejaVuSans-65" x="356.144531"/>
     <use xlink:href="#DejaVuSans-20" x="417.667969"/>
     <use xlink:href="#DejaVuSans-28" x="449.455078"/>
     <use xlink:href="#DejaVuSans-73" x="488.46875"/>
     <use xlink:href="#DejaVuSans-29" x="540.568359"/>
     <use xlink:href="#DejaVuSans-3a" x="579.582031"/>
     <use xlink:href="#DejaVuSans-20" x="613.273438"/>
     <use xlink:href="#DejaVuSans-30" x="645.060547"/>
     <use xlink:href="#DejaVuSans-2e" x="708.683594"/>
     <use xlink:href="#DejaVuSans-30" x="740.470703"/>
     <use xlink:href="#DejaVuSans-31" x="804.09375"/>
     <use xlink:href="#DejaVuSans-36" x="867.716797"/>
    </g>
   </g>
   <g id="text_2">
    <!-- Weightless, 65 vertices, 6.010% density -->
    <g transform="translate(77.976406 35.472) scale(0.14 -0.14)">
     <defs>
      <path id="DejaVuSans-Bold-57" d="M 191 4666 
L 1344 4666 
L 2150 1275 
L 2950 4666 
L 4109 4666 
L 4909 1275 
L 5716 4666 
L 6859 4666 
L 5759 0 
L 4372 0 
L 3525 3547 
L 2688 0 
L 1300 0 
L 191 4666 
z
" transform="scale(0.015625)"/>
      <path id="DejaVuSans-Bold-65" d="M 4031 1759 
L 4031 1441 
L 1416 1441 
Q 1456 1047 1700 850 
Q 1944 653 2381 653 
Q 2734 653 3104 758 
Q 3475 863 3866 1075 
L 3866 213 
Q 3469 63 3072 -14 
Q 2675 -91 2278 -91 
Q 1328 -91 801 392 
Q 275 875 275 1747 
Q 275 2603 792 3093 
Q 1309 3584 2216 3584 
Q 3041 3584 3536 3087 
Q 4031 2591 4031 1759 
z
M 2881 2131 
Q 2881 2450 2695 2645 
Q 2509 2841 2209 2841 
Q 1884 2841 1681 2658 
Q 1478 2475 1428 2131 
L 2881 2131 
z
" transform="scale(0.015625)"/>
      <path id="DejaVuSans-Bold-69" d="M 538 3500 
L 1656 3500 
L 1656 0 
L 538 0 
L 538 3500 
z
M 538 4863 
L 1656 4863 
L 1656 3950 
L 538 3950 
L 538 4863 
z
" transform="scale(0.015625)"/>
      <path id="DejaVuSans-Bold-67" d="M 2919 594 
Q 2688 288 2409 144 
Q 2131 0 1766 0 
Q 1125 0 706 504 
Q 288 1009 288 1791 
Q 288 2575 706 3076 
Q 1125 3578 1766 3578 
Q 2131 3578 2409 3434 
Q 2688 3291 2919 2981 
L 2919 3500 
L 4044 3500 
L 4044 353 
Q 4044 -491 3511 -936 
Q 2978 -1381 1966 -1381 
Q 1638 -1381 1331 -1331 
Q 1025 -1281 716 -1178 
L 716 -306 
Q 1009 -475 1290 -558 
Q 1572 -641 1856 -641 
Q 2406 -641 2662 -400 
Q 2919 -159 2919 353 
L 2919 594 
z
M 2181 2772 
Q 1834 2772 1640 2515 
Q 1447 2259 1447 1791 
Q 1447 1309 1634 1061 
Q 1822 813 2181 813 
Q 2531 813 2725 1069 
Q 2919 1325 2919 1791 
Q 2919 2259 2725 2515 
Q 2531 2772 2181 2772 
z
" transform="scale(0.015625)"/>
      <path id="DejaVuSans-Bold-68" d="M 4056 2131 
L 4056 0 
L 2931 0 
L 2931 347 
L 2931 1625 
Q 2931 2084 2911 2256 
Q 2891 2428 2841 2509 
Q 2775 2619 2662 2680 
Q 2550 2741 2406 2741 
Q 2056 2741 1856 2470 
Q 1656 2200 1656 1722 
L 1656 0 
L 538 0 
L 538 4863 
L 1656 4863 
L 1656 2988 
Q 1909 3294 2193 3439 
Q 2478 3584 2822 3584 
Q 3428 3584 3742 3212 
Q 4056 2841 4056 2131 
z
" transform="scale(0.015625)"/>
      <path id="DejaVuSans-Bold-74" d="M 1759 4494 
L 1759 3500 
L 2913 3500 
L 2913 2700 
L 1759 2700 
L 1759 1216 
Q 1759 972 1856 886 
Q 1953 800 2241 800 
L 2816 800 
L 2816 0 
L 1856 0 
Q 1194 0 917 276 
Q 641 553 641 1216 
L 641 2700 
L 84 2700 
L 84 3500 
L 641 3500 
L 641 4494 
L 1759 4494 
z
" transform="scale(0.015625)"/>
      <path id="DejaVuSans-Bold-6c" d="M 538 4863 
L 1656 4863 
L 1656 0 
L 538 0 
L 538 4863 
z
" transform="scale(0.015625)"/>
      <path id="DejaVuSans-Bold-73" d="M 3272 3391 
L 3272 2541 
Q 2913 2691 2578 2766 
Q 2244 2841 1947 2841 
Q 1628 2841 1473 2761 
Q 1319 2681 1319 2516 
Q 1319 2381 1436 2309 
Q 1553 2238 1856 2203 
L 2053 2175 
Q 2913 2066 3209 1816 
Q 3506 1566 3506 1031 
Q 3506 472 3093 190 
Q 2681 -91 1863 -91 
Q 1516 -91 1145 -36 
Q 775 19 384 128 
L 384 978 
Q 719 816 1070 734 
Q 1422 653 1784 653 
Q 2113 653 2278 743 
Q 2444 834 2444 1013 
Q 2444 1163 2330 1236 
Q 2216 1309 1875 1350 
L 1678 1375 
Q 931 1469 631 1722 
Q 331 1975 331 2491 
Q 331 3047 712 3315 
Q 1094 3584 1881 3584 
Q 2191 3584 2531 3537 
Q 2872 3491 3272 3391 
z
" transform="scale(0.015625)"/>
      <path id="DejaVuSans-Bold-2c" d="M 653 1209 
L 1778 1209 
L 1778 256 
L 1006 -909 
L 341 -909 
L 653 256 
L 653 1209 
z
" transform="scale(0.015625)"/>
      <path id="DejaVuSans-Bold-20" transform="scale(0.015625)"/>
      <path id="DejaVuSans-Bold-36" d="M 2316 2303 
Q 2000 2303 1842 2098 
Q 1684 1894 1684 1484 
Q 1684 1075 1842 870 
Q 2000 666 2316 666 
Q 2634 666 2792 870 
Q 2950 1075 2950 1484 
Q 2950 1894 2792 2098 
Q 2634 2303 2316 2303 
z
M 3803 4544 
L 3803 3681 
Q 3506 3822 3243 3889 
Q 2981 3956 2731 3956 
Q 2194 3956 1894 3657 
Q 1594 3359 1544 2772 
Q 1750 2925 1990 3001 
Q 2231 3078 2516 3078 
Q 3231 3078 3670 2659 
Q 4109 2241 4109 1563 
Q 4109 813 3618 361 
Q 3128 -91 2303 -91 
Q 1394 -91 895 523 
Q 397 1138 397 2266 
Q 397 3422 980 4083 
Q 1563 4744 2578 4744 
Q 2900 4744 3203 4694 
Q 3506 4644 3803 4544 
z
" transform="scale(0.015625)"/>
      <path id="DejaVuSans-Bold-35" d="M 678 4666 
L 3669 4666 
L 3669 3781 
L 1638 3781 
L 1638 3059 
Q 1775 3097 1914 3117 
Q 2053 3138 2203 3138 
Q 3056 3138 3531 2711 
Q 4006 2284 4006 1522 
Q 4006 766 3489 337 
Q 2972 -91 2053 -91 
Q 1656 -91 1267 -14 
Q 878 63 494 219 
L 494 1166 
Q 875 947 1217 837 
Q 1559 728 1863 728 
Q 2300 728 2551 942 
Q 2803 1156 2803 1522 
Q 2803 1891 2551 2103 
Q 2300 2316 1863 2316 
Q 1603 2316 1309 2248 
Q 1016 2181 678 2041 
L 678 4666 
z
" transform="scale(0.015625)"/>
      <path id="DejaVuSans-Bold-76" d="M 97 3500 
L 1216 3500 
L 2088 1081 
L 2956 3500 
L 4078 3500 
L 2700 0 
L 1472 0 
L 97 3500 
z
" transform="scale(0.015625)"/>
      <path id="DejaVuSans-Bold-72" d="M 3138 2547 
Q 2991 2616 2845 2648 
Q 2700 2681 2553 2681 
Q 2122 2681 1889 2404 
Q 1656 2128 1656 1613 
L 1656 0 
L 538 0 
L 538 3500 
L 1656 3500 
L 1656 2925 
Q 1872 3269 2151 3426 
Q 2431 3584 2822 3584 
Q 2878 3584 2943 3579 
Q 3009 3575 3134 3559 
L 3138 2547 
z
" transform="scale(0.015625)"/>
      <path id="DejaVuSans-Bold-63" d="M 3366 3391 
L 3366 2478 
Q 3138 2634 2908 2709 
Q 2678 2784 2431 2784 
Q 1963 2784 1702 2511 
Q 1441 2238 1441 1747 
Q 1441 1256 1702 982 
Q 1963 709 2431 709 
Q 2694 709 2930 787 
Q 3166 866 3366 1019 
L 3366 103 
Q 3103 6 2833 -42 
Q 2563 -91 2291 -91 
Q 1344 -91 809 395 
Q 275 881 275 1747 
Q 275 2613 809 3098 
Q 1344 3584 2291 3584 
Q 2566 3584 2833 3536 
Q 3100 3488 3366 3391 
z
" transform="scale(0.015625)"/>
      <path id="DejaVuSans-Bold-2e" d="M 653 1209 
L 1778 1209 
L 1778 0 
L 653 0 
L 653 1209 
z
" transform="scale(0.015625)"/>
      <path id="DejaVuSans-Bold-30" d="M 2944 2338 
Q 2944 3213 2780 3570 
Q 2616 3928 2228 3928 
Q 1841 3928 1675 3570 
Q 1509 3213 1509 2338 
Q 1509 1453 1675 1090 
Q 1841 728 2228 728 
Q 2613 728 2778 1090 
Q 2944 1453 2944 2338 
z
M 4147 2328 
Q 4147 1169 3647 539 
Q 3147 -91 2228 -91 
Q 1306 -91 806 539 
Q 306 1169 306 2328 
Q 306 3491 806 4120 
Q 1306 4750 2228 4750 
Q 3147 4750 3647 4120 
Q 4147 3491 4147 2328 
z
" transform="scale(0.015625)"/>
      <path id="DejaVuSans-Bold-31" d="M 750 831 
L 1813 831 
L 1813 3847 
L 722 3622 
L 722 4441 
L 1806 4666 
L 2950 4666 
L 2950 831 
L 4013 831 
L 4013 0 
L 750 0 
L 750 831 
z
" transform="scale(0.015625)"/>
      <path id="DejaVuSans-Bold-25" d="M 4959 1925 
Q 4738 1925 4616 1733 
Q 4494 1541 4494 1184 
Q 4494 825 4614 633 
Q 4734 441 4959 441 
Q 5184 441 5303 633 
Q 5422 825 5422 1184 
Q 5422 1541 5301 1733 
Q 5181 1925 4959 1925 
z
M 4959 2450 
Q 5541 2450 5875 2112 
Q 6209 1775 6209 1184 
Q 6209 594 5875 251 
Q 5541 -91 4959 -91 
Q 4378 -91 4042 251 
Q 3706 594 3706 1184 
Q 3706 1772 4042 2111 
Q 4378 2450 4959 2450 
z
M 2094 -91 
L 1403 -91 
L 4319 4750 
L 5013 4750 
L 2094 -91 
z
M 1453 4750 
Q 2034 4750 2367 4411 
Q 2700 4072 2700 3481 
Q 2700 2891 2367 2550 
Q 2034 2209 1453 2209 
Q 872 2209 539 2550 
Q 206 2891 206 3481 
Q 206 4072 539 4411 
Q 872 4750 1453 4750 
z
M 1453 4225 
Q 1228 4225 1106 4031 
Q 984 3838 984 3481 
Q 984 3122 1106 2926 
Q 1228 2731 1453 2731 
Q 1678 2731 1798 2926 
Q 1919 3122 1919 3481 
Q 1919 3838 1797 4031 
Q 1675 4225 1453 4225 
z
" transform="scale(0.015625)"/>
      <path id="DejaVuSans-Bold-64" d="M 2919 2988 
L 2919 4863 
L 4044 4863 
L 4044 0 
L 2919 0 
L 2919 506 
Q 2688 197 2409 53 
Q 2131 -91 1766 -91 
Q 1119 -91 703 423 
Q 288 938 288 1747 
Q 288 2556 703 3070 
Q 1119 3584 1766 3584 
Q 2128 3584 2408 3439 
Q 2688 3294 2919 2988 
z
M 2181 722 
Q 2541 722 2730 984 
Q 2919 1247 2919 1747 
Q 2919 2247 2730 2509 
Q 2541 2772 2181 2772 
Q 1825 2772 1636 2509 
Q 1447 2247 1447 1747 
Q 1447 1247 1636 984 
Q 1825 722 2181 722 
z
" transform="scale(0.015625)"/>
      <path id="DejaVuSans-Bold-6e" d="M 4056 2131 
L 4056 0 
L 2931 0 
L 2931 347 
L 2931 1631 
Q 2931 2084 2911 2256 
Q 2891 2428 2841 2509 
Q 2775 2619 2662 2680 
Q 2550 2741 2406 2741 
Q 2056 2741 1856 2470 
Q 1656 2200 1656 1722 
L 1656 0 
L 538 0 
L 538 3500 
L 1656 3500 
L 1656 2988 
Q 1909 3294 2193 3439 
Q 2478 3584 2822 3584 
Q 3428 3584 3742 3212 
Q 4056 2841 4056 2131 
z
" transform="scale(0.015625)"/>
      <path id="DejaVuSans-Bold-79" d="M 78 3500 
L 1197 3500 
L 2138 1125 
L 2938 3500 
L 4056 3500 
L 2584 -331 
Q 2363 -916 2067 -1148 
Q 1772 -1381 1288 -1381 
L 641 -1381 
L 641 -647 
L 991 -647 
Q 1275 -647 1404 -556 
Q 1534 -466 1606 -231 
L 1638 -134 
L 78 3500 
z
" transform="scale(0.015625)"/>
     </defs>
     <use xlink:href="#DejaVuSans-Bold-57"/>
     <use xlink:href="#DejaVuSans-Bold-65" x="106.677734"/>
     <use xlink:href="#DejaVuSans-Bold-69" x="174.5"/>
     <use xlink:href="#DejaVuSans-Bold-67" x="208.777344"/>
     <use xlink:href="#DejaVuSans-Bold-68" x="280.359375"/>
     <use xlink:href="#DejaVuSans-Bold-74" x="351.550781"/>
     <use xlink:href="#DejaVuSans-Bold-6c" x="399.353516"/>
     <use xlink:href="#DejaVuSans-Bold-65" x="433.630859"/>
     <use xlink:href="#DejaVuSans-Bold-73" x="501.453125"/>
     <use xlink:href="#DejaVuSans-Bold-73" x="560.974609"/>
     <use xlink:href="#DejaVuSans-Bold-2c" x="620.496094"/>
     <use xlink:href="#DejaVuSans-Bold-20" x="658.484375"/>
     <use xlink:href="#DejaVuSans-Bold-36" x="693.298828"/>
     <use xlink:href="#DejaVuSans-Bold-35" x="762.878906"/>
     <use xlink:href="#DejaVuSans-Bold-20" x="832.458984"/>
     <use xlink:href="#DejaVuSans-Bold-76" x="867.273438"/>
     <use xlink:href="#DejaVuSans-Bold-65" x="932.458984"/>
     <use xlink:href="#DejaVuSans-Bold-72" x="1000.28125"/>
     <use xlink:href="#DejaVuSans-Bold-74" x="1049.597656"/>
     <use xlink:href="#DejaVuSans-Bold-69" x="1097.400391"/>
     <use xlink:href="#DejaVuSans-Bold-63" x="1131.677734"/>
     <use xlink:href="#DejaVuSans-Bold-65" x="1190.955078"/>
     <use xlink:href="#DejaVuSans-Bold-73" x="1258.777344"/>
     <use xlink:href="#DejaVuSans-Bold-2c" x="1318.298828"/>
     <use xlink:href="#DejaVuSans-Bold-20" x="1356.287109"/>
     <use xlink:href="#DejaVuSans-Bold-36" x="1391.101562"/>
     <use xlink:href="#DejaVuSans-Bold-2e" x="1460.681641"/>
     <use xlink:href="#DejaVuSans-Bold-30" x="1498.669922"/>
     <use xlink:href="#DejaVuSans-Bold-31" x="1568.25"/>
     <use xlink:href="#DejaVuSans-Bold-30" x="1637.830078"/>
     <use xlink:href="#DejaVuSans-Bold-25" x="1707.410156"/>
     <use xlink:href="#DejaVuSans-Bold-20" x="1807.605469"/>
     <use xlink:href="#DejaVuSans-Bold-64" x="1842.419922"/>
     <use xlink:href="#DejaVuSans-Bold-65" x="1914.001953"/>
     <use xlink:href="#DejaVuSans-Bold-6e" x="1981.824219"/>
     <use xlink:href="#DejaVuSans-Bold-73" x="2053.015625"/>
     <use xlink:href="#DejaVuSans-Bold-69" x="2112.537109"/>
     <use xlink:href="#DejaVuSans-Bold-74" x="2146.814453"/>
     <use xlink:href="#DejaVuSans-Bold-79" x="2194.617188"/>
    </g>
   </g>
   <g id="legend_1">
    <g id="patch_4">
     <path d="M 7.914062 93.506375 
L 50.6 93.506375 
Q 52.6 93.506375 52.6 91.506375 
L 52.6 48.472 
Q 52.6 46.472 50.6 46.472 
L 7.914062 46.472 
Q 5.914062 46.472 5.914062 48.472 
L 5.914062 91.506375 
Q 5.914062 93.506375 7.914062 93.506375 
z
" style="fill: #ffffff; opacity: 0.8; stroke: #cccccc; stroke-linejoin: miter"/>
    </g>
    <g id="text_3">
     <!-- Cluster: -->
     <g transform="translate(9.914062 58.070438) scale(0.1 -0.1)">
      <defs>
       <path id="DejaVuSans-72" d="M 2631 2963 
Q 2534 3019 2420 3045 
Q 2306 3072 2169 3072 
Q 1681 3072 1420 2755 
Q 1159 2438 1159 1844 
L 1159 0 
L 581 0 
L 581 3500 
L 1159 3500 
L 1159 2956 
Q 1341 3275 1631 3429 
Q 1922 3584 2338 3584 
Q 2397 3584 2469 3576 
Q 2541 3569 2628 3553 
L 2631 2963 
z
" transform="scale(0.015625)"/>
      </defs>
      <use xlink:href="#DejaVuSans-43"/>
      <use xlink:href="#DejaVuSans-6c" x="69.824219"/>
      <use xlink:href="#DejaVuSans-75" x="97.607422"/>
      <use xlink:href="#DejaVuSans-73" x="160.986328"/>
      <use xlink:href="#DejaVuSans-74" x="213.085938"/>
      <use xlink:href="#DejaVuSans-65" x="252.294922"/>
      <use xlink:href="#DejaVuSans-72" x="313.818359"/>
      <use xlink:href="#DejaVuSans-3a" x="353.181641"/>
     </g>
    </g>
    <g id="PathCollection_3">
     <defs>
      <path id="m35a71df40d" d="M 0 5 
C 1.326016 5 2.597899 4.473168 3.535534 3.535534 
C 4.473168 2.597899 5 1.326016 5 0 
C 5 -1.326016 4.473168 -2.597899 3.535534 -3.535534 
C 2.597899 -4.473168 1.326016 -5 0 -5 
C -1.326016 -5 -2.597899 -4.473168 -3.535534 -3.535534 
C -4.473168 -2.597899 -5 -1.326016 -5 0 
C -5 1.326016 -4.473168 2.597899 -3.535534 3.535534 
C -2.597899 4.473168 -1.326016 5 0 5 
z
" style="stroke: #000000"/>
     </defs>
     <g>
      <use xlink:href="#m35a71df40d" x="22.075781" y="70.123563" style="fill: #add8e6; stroke: #000000"/>
     </g>
    </g>
    <g id="text_4">
     <!-- 0 -->
     <g transform="translate(40.075781 72.748563) scale(0.1 -0.1)">
      <use xlink:href="#DejaVuSans-30"/>
     </g>
    </g>
    <g id="PathCollection_4">
     <defs>
      <path id="m1bd5d945b7" d="M 0 5 
C 1.326016 5 2.597899 4.473168 3.535534 3.535534 
C 4.473168 2.597899 5 1.326016 5 0 
C 5 -1.326016 4.473168 -2.597899 3.535534 -3.535534 
C 2.597899 -4.473168 1.326016 -5 0 -5 
C -1.326016 -5 -2.597899 -4.473168 -3.535534 -3.535534 
C -4.473168 -2.597899 -5 -1.326016 -5 0 
C -5 1.326016 -4.473168 2.597899 -3.535534 3.535534 
C -2.597899 4.473168 -1.326016 5 0 5 
z
" style="stroke: #000000"/>
     </defs>
     <g>
      <use xlink:href="#m1bd5d945b7" x="22.075781" y="84.801688" style="fill: #9acd32; stroke: #000000"/>
     </g>
    </g>
    <g id="text_5">
     <!-- 1 -->
     <g transform="translate(40.075781 87.426688) scale(0.1 -0.1)">
      <use xlink:href="#DejaVuSans-31"/>
     </g>
    </g>
   </g>
  </g>
 </g>
 <defs>
  <clipPath id="p2b50514bf2">
   <rect x="57.6" y="41.472" width="357.12" height="266.112"/>
  </clipPath>
 </defs>
</svg>
