<?xml version="1.0" encoding="utf-8" standalone="no"?>
<!DOCTYPE svg PUBLIC "-//W3C//DTD SVG 1.1//EN"
  "http://www.w3.org/Graphics/SVG/1.1/DTD/svg11.dtd">
<svg xmlns:xlink="http://www.w3.org/1999/xlink" width="460.8pt" height="345.6pt" viewBox="0 0 460.8 345.6" xmlns="http://www.w3.org/2000/svg" version="1.1">
 <metadata>
  <rdf:RDF xmlns:dc="http://purl.org/dc/elements/1.1/" xmlns:cc="http://creativecommons.org/ns#" xmlns:rdf="http://www.w3.org/1999/02/22-rdf-syntax-ns#">
   <cc:Work>
    <dc:type rdf:resource="http://purl.org/dc/dcmitype/StillImage"/>
    <dc:date>2024-01-12T17:21:11.384975</dc:date>
    <dc:format>image/svg+xml</dc:format>
    <dc:creator>
     <cc:Agent>
      <dc:title>Matplotlib v3.8.2, https://matplotlib.org/</dc:title>
     </cc:Agent>
    </dc:creator>
   </cc:Work>
  </rdf:RDF>
 </metadata>
 <defs>
  <style type="text/css">*{stroke-linejoin: round; stroke-linecap: butt}</style>
 </defs>
 <g id="figure_1">
  <g id="patch_1">
   <path d="M 0 345.6 
L 460.8 345.6 
L 460.8 0 
L 0 0 
z
" style="fill: #ffffff"/>
  </g>
  <g id="axes_1">
   <g id="patch_2">
    <path d="M 57.6 307.584 
L 414.72 307.584 
L 414.72 41.472 
L 57.6 41.472 
z
" style="fill: #ffffff"/>
   </g>
   <g id="EdgeCollection_1">
    <path d="M 144.795451 122.575923 
L 154.78702 96.654149 
" clip-path="url(#p079432cace)" style="fill: #d3d3d3; stroke: #d3d3d3; stroke-width: 2.5"/>
    <path d="M 209.931752 65.683923 
L 181.928542 67.031657 
" clip-path="url(#p079432cace)" style="fill: #9acd32; stroke: #9acd32; stroke-width: 2.5"/>
    <path d="M 158.320049 90.727923 
L 176.158362 69.860341 
" clip-path="url(#p079432cace)" style="fill: #9acd32; stroke: #9acd32; stroke-width: 2.5"/>
    <path d="M 181.589336 177.973187 
L 162.876954 160.85416 
" clip-path="url(#p079432cace)" style="fill: #add8e6; stroke: #add8e6; stroke-width: 2.5"/>
    <path d="M 145.13484 128.955523 
L 158.696386 155.377869 
" clip-path="url(#p079432cace)" style="fill: #add8e6; stroke: #add8e6; stroke-width: 2.5"/>
    <path d="M 135.353994 163.514634 
L 156.863472 159.182689 
" clip-path="url(#p079432cace)" style="fill: #add8e6; stroke: #add8e6; stroke-width: 2.5"/>
    <path d="M 226.251892 149.5696 
L 213.313746 164.256386 
" clip-path="url(#p079432cace)" style="fill: #9acd32; stroke: #9acd32; stroke-width: 2.5"/>
    <path d="M 187.300394 178.766808 
L 207.871477 168.451527 
" clip-path="url(#p079432cace)" style="fill: #d3d3d3; stroke: #d3d3d3; stroke-width: 2.5"/>
    <path d="M 192.698084 158.778277 
L 207.799885 165.46554 
" clip-path="url(#p079432cace)" style="fill: #d3d3d3; stroke: #d3d3d3; stroke-width: 2.5"/>
    <path d="M 174.769972 95.280822 
L 161.887798 78.506637 
" clip-path="url(#p079432cace)" style="fill: #9acd32; stroke: #9acd32; stroke-width: 2.5"/>
    <path d="M 156.76552 89.963148 
L 159.036302 79.155977 
" clip-path="url(#p079432cace)" style="fill: #9acd32; stroke: #9acd32; stroke-width: 2.5"/>
    <path d="M 159.400615 94.386038 
L 186.132467 102.335839 
" clip-path="url(#p079432cace)" style="fill: #9acd32; stroke: #9acd32; stroke-width: 2.5"/>
    <path d="M 227.125552 143.753243 
L 215.313577 117.584413 
" clip-path="url(#p079432cace)" style="fill: #9acd32; stroke: #9acd32; stroke-width: 2.5"/>
    <path d="M 180.103135 99.471351 
L 210.672288 112.97967 
" clip-path="url(#p079432cace)" style="fill: #9acd32; stroke: #9acd32; stroke-width: 2.5"/>
    <path d="M 227.464763 150.265737 
L 218.298841 177.932301 
" clip-path="url(#p079432cace)" style="fill: #9acd32; stroke: #9acd32; stroke-width: 2.5"/>
    <path d="M 231.478807 126.62706 
L 217.138789 141.93766 
" clip-path="url(#p079432cace)" style="fill: #9acd32; stroke: #9acd32; stroke-width: 2.5"/>
    <path d="M 129.082926 162.160014 
L 118.496046 154.534242 
" clip-path="url(#p079432cace)" style="fill: #add8e6; stroke: #add8e6; stroke-width: 2.5"/>
    <path d="M 166.28077 215.632087 
L 180.143385 195.839704 
" clip-path="url(#p079432cace)" style="fill: #add8e6; stroke: #add8e6; stroke-width: 2.5"/>
    <path d="M 213.878758 182.364574 
L 185.470645 191.863073 
" clip-path="url(#p079432cace)" style="fill: #d3d3d3; stroke: #d3d3d3; stroke-width: 2.5"/>
    <path d="M 190.005853 99.872156 
L 191.121835 92.423521 
" clip-path="url(#p079432cace)" style="fill: #9acd32; stroke: #9acd32; stroke-width: 2.5"/>
    <path d="M 181.612423 117.701747 
L 190.487364 92.266763 
" clip-path="url(#p079432cace)" style="fill: #9acd32; stroke: #9acd32; stroke-width: 2.5"/>
    <path d="M 147.137445 137.317026 
L 169.052441 134.339068 
" clip-path="url(#p079432cace)" style="fill: #add8e6; stroke: #add8e6; stroke-width: 2.5"/>
    <path d="M 187.447812 154.524341 
L 174.570563 136.704611 
" clip-path="url(#p079432cace)" style="fill: #add8e6; stroke: #add8e6; stroke-width: 2.5"/>
    <path d="M 211.352 143.638162 
L 175.914777 134.721812 
" clip-path="url(#p079432cace)" style="fill: #d3d3d3; stroke: #d3d3d3; stroke-width: 2.5"/>
    <path d="M 147.164389 137.602612 
L 157.777005 137.038781 
" clip-path="url(#p079432cace)" style="fill: #add8e6; stroke: #add8e6; stroke-width: 2.5"/>
    <path d="M 153.577945 90.906505 
L 136.313619 73.544441 
" clip-path="url(#p079432cace)" style="fill: #9acd32; stroke: #9acd32; stroke-width: 2.5"/>
    <path d="M 170.171287 131.273401 
L 145.141778 103.632408 
" clip-path="url(#p079432cace)" style="fill: #add8e6; stroke: #add8e6; stroke-width: 2.5"/>
    <path d="M 115.569994 83.898466 
L 139.830656 99.17321 
" clip-path="url(#p079432cace)" style="fill: #add8e6; stroke: #add8e6; stroke-width: 2.5"/>
    <path d="M 214.176533 165.412743 
L 228.817116 158.637571 
" clip-path="url(#p079432cace)" style="fill: #9acd32; stroke: #9acd32; stroke-width: 2.5"/>
    <path d="M 163.0486 156.331727 
L 185.526324 138.702705 
" clip-path="url(#p079432cace)" style="fill: #d3d3d3; stroke: #d3d3d3; stroke-width: 2.5"/>
    <path d="M 189.360143 106.831213 
L 188.40746 133.045068 
" clip-path="url(#p079432cace)" style="fill: #9acd32; stroke: #9acd32; stroke-width: 2.5"/>
    <path d="M 377.529908 197.770609 
L 382.497506 183.257897 
" clip-path="url(#p079432cace)" style="fill: #9acd32; stroke: #9acd32; stroke-width: 2.5"/>
    <path d="M 184.982466 253.422003 
L 183.718353 236.601828 
" clip-path="url(#p079432cace)" style="fill: #add8e6; stroke: #add8e6; stroke-width: 2.5"/>
    <path d="M 167.057096 220.619739 
L 180.671835 230.990789 
" clip-path="url(#p079432cace)" style="fill: #add8e6; stroke: #add8e6; stroke-width: 2.5"/>
    <path d="M 230.56199 125.211792 
L 205.45837 133.853639 
" clip-path="url(#p079432cace)" style="fill: #9acd32; stroke: #9acd32; stroke-width: 2.5"/>
    <path d="M 183.400813 122.903152 
L 199.207516 133.096093 
" clip-path="url(#p079432cace)" style="fill: #9acd32; stroke: #9acd32; stroke-width: 2.5"/>
    <path d="M 164.768457 136.693983 
L 198.652591 135.152001 
" clip-path="url(#p079432cace)" style="fill: #d3d3d3; stroke: #d3d3d3; stroke-width: 2.5"/>
    <path d="M 229.18409 155.080242 
L 204.958371 137.080299 
" clip-path="url(#p079432cace)" style="fill: #9acd32; stroke: #9acd32; stroke-width: 2.5"/>
    <path d="M 191.758692 136.154041 
L 198.670626 135.381607 
" clip-path="url(#p079432cace)" style="fill: #9acd32; stroke: #9acd32; stroke-width: 2.5"/>
    <path d="M 135.350478 164.913899 
L 157.711783 169.534456 
" clip-path="url(#p079432cace)" style="fill: #add8e6; stroke: #add8e6; stroke-width: 2.5"/>
    <path d="M 160.54555 161.982664 
L 160.888403 166.751715 
" clip-path="url(#p079432cace)" style="fill: #add8e6; stroke: #add8e6; stroke-width: 2.5"/>
    <path d="M 179.775455 190.402821 
L 163.515195 172.812818 
" clip-path="url(#p079432cace)" style="fill: #add8e6; stroke: #add8e6; stroke-width: 2.5"/>
    <path d="M 161.258166 140.353067 
L 161.153284 166.742733 
" clip-path="url(#p079432cace)" style="fill: #add8e6; stroke: #add8e6; stroke-width: 2.5"/>
    <path d="M 220.491198 180.069099 
L 235.172287 174.783421 
" clip-path="url(#p079432cace)" style="fill: #9acd32; stroke: #9acd32; stroke-width: 2.5"/>
    <path d="M 216.957258 147.205343 
L 236.254309 170.884642 
" clip-path="url(#p079432cace)" style="fill: #9acd32; stroke: #9acd32; stroke-width: 2.5"/>
    <path d="M 260.68188 188.770624 
L 241.355628 175.571722 
" clip-path="url(#p079432cace)" style="fill: #9acd32; stroke: #9acd32; stroke-width: 2.5"/>
    <path d="M 145.540689 140.745996 
L 148.576472 145.544044 
" clip-path="url(#p079432cace)" style="fill: #add8e6; stroke: #add8e6; stroke-width: 2.5"/>
    <path d="M 157.837635 155.998999 
L 152.904787 150.994415 
" clip-path="url(#p079432cace)" style="fill: #add8e6; stroke: #add8e6; stroke-width: 2.5"/>
    <path d="M 177.878668 123.370683 
L 153.028532 146.137413 
" clip-path="url(#p079432cace)" style="fill: #d3d3d3; stroke: #d3d3d3; stroke-width: 2.5"/>
    <path d="M 119.133329 152.090142 
L 146.970599 148.900206 
" clip-path="url(#p079432cace)" style="fill: #add8e6; stroke: #add8e6; stroke-width: 2.5"/>
    <path d="M 169.603448 135.80181 
L 153.364962 146.567726 
" clip-path="url(#p079432cace)" style="fill: #add8e6; stroke: #add8e6; stroke-width: 2.5"/>
    <path d="M 153.2768 95.529034 
L 139.548268 106.142302 
" clip-path="url(#p079432cace)" style="fill: #d3d3d3; stroke: #d3d3d3; stroke-width: 2.5"/>
    <path d="M 158.994083 134.195888 
L 139.057238 110.940188 
" clip-path="url(#p079432cace)" style="fill: #add8e6; stroke: #add8e6; stroke-width: 2.5"/>
    <path d="M 147.257706 149.941543 
L 116.508367 163.819622 
" clip-path="url(#p079432cace)" style="fill: #add8e6; stroke: #add8e6; stroke-width: 2.5"/>
    <path d="M 140.036829 125.806093 
L 125.152313 125.654585 
" clip-path="url(#p079432cace)" style="fill: #add8e6; stroke: #add8e6; stroke-width: 2.5"/>
    <path d="M 117.891745 138.051801 
L 120.639141 128.969052 
" clip-path="url(#p079432cace)" style="fill: #add8e6; stroke: #add8e6; stroke-width: 2.5"/>
    <path d="M 157.904824 135.89831 
L 125.019747 126.573745 
" clip-path="url(#p079432cace)" style="fill: #add8e6; stroke: #add8e6; stroke-width: 2.5"/>
    <path d="M 92.183878 127.219781 
L 118.157647 125.808811 
" clip-path="url(#p079432cace)" style="fill: #add8e6; stroke: #add8e6; stroke-width: 2.5"/>
    <path d="M 134.478119 110.920181 
L 123.95362 122.981761 
" clip-path="url(#p079432cace)" style="fill: #add8e6; stroke: #add8e6; stroke-width: 2.5"/>
    <path d="M 185.26714 183.659832 
L 192.736889 206.327335 
" clip-path="url(#p079432cace)" style="fill: #add8e6; stroke: #add8e6; stroke-width: 2.5"/>
    <path d="M 184.871782 229.910779 
L 192.416587 212.852386 
" clip-path="url(#p079432cace)" style="fill: #add8e6; stroke: #add8e6; stroke-width: 2.5"/>
    <path d="M 214.386128 68.881888 
L 220.012808 88.644187 
" clip-path="url(#p079432cace)" style="fill: #9acd32; stroke: #9acd32; stroke-width: 2.5"/>
    <path d="M 192.780735 102.149034 
L 217.677754 93.194895 
" clip-path="url(#p079432cace)" style="fill: #9acd32; stroke: #9acd32; stroke-width: 2.5"/>
    <path d="M 161.031059 217.17954 
L 148.192682 211.954729 
" clip-path="url(#p079432cace)" style="fill: #add8e6; stroke: #add8e6; stroke-width: 2.5"/>
    <path d="M 237.370431 123.990736 
L 264.817511 123.349034 
" clip-path="url(#p079432cace)" style="fill: #9acd32; stroke: #9acd32; stroke-width: 2.5"/>
    <path d="M 235.431764 157.822065 
L 261.997673 162.8784 
" clip-path="url(#p079432cace)" style="fill: #9acd32; stroke: #9acd32; stroke-width: 2.5"/>
    <path d="M 174.127196 100.190168 
L 152.458294 116.852233 
" clip-path="url(#p079432cace)" style="fill: #d3d3d3; stroke: #d3d3d3; stroke-width: 2.5"/>
    <path d="M 119.76818 139.427274 
L 146.79393 120.960332 
" clip-path="url(#p079432cace)" style="fill: #add8e6; stroke: #add8e6; stroke-width: 2.5"/>
    <path d="M 169.588254 131.956896 
L 152.616032 120.896613 
" clip-path="url(#p079432cace)" style="fill: #add8e6; stroke: #add8e6; stroke-width: 2.5"/>
    <path d="M 157.065316 159.841436 
L 132.393027 170.15392 
" clip-path="url(#p079432cace)" style="fill: #add8e6; stroke: #add8e6; stroke-width: 2.5"/>
    <path d="M 115.87866 193.895162 
L 127.377856 174.513755 
" clip-path="url(#p079432cace)" style="fill: #add8e6; stroke: #add8e6; stroke-width: 2.5"/>
    <path d="M 118.200932 144.6424 
L 127.841224 168.263175 
" clip-path="url(#p079432cace)" style="fill: #add8e6; stroke: #add8e6; stroke-width: 2.5"/>
    <path d="M 116.574514 166.54263 
L 125.90748 170.220477 
" clip-path="url(#p079432cace)" style="fill: #add8e6; stroke: #add8e6; stroke-width: 2.5"/>
    <path d="M 159.025089 161.753329 
L 150.926813 182.559937 
" clip-path="url(#p079432cace)" style="fill: #add8e6; stroke: #add8e6; stroke-width: 2.5"/>
    <path d="M 145.603082 207.196719 
L 149.005103 189.260285 
" clip-path="url(#p079432cace)" style="fill: #add8e6; stroke: #add8e6; stroke-width: 2.5"/>
    <path d="M 160.792676 218.870591 
L 132.696028 221.8717 
" clip-path="url(#p079432cace)" style="fill: #add8e6; stroke: #add8e6; stroke-width: 2.5"/>
    <path d="M 115.886518 199.910629 
L 127.422058 219.238038 
" clip-path="url(#p079432cace)" style="fill: #add8e6; stroke: #add8e6; stroke-width: 2.5"/>
    <path d="M 253.94802 113.913784 
L 227.4121 122.909021 
" clip-path="url(#p079432cace)" style="fill: #9acd32; stroke: #9acd32; stroke-width: 2.5"/>
    <path d="M 227.895518 143.508043 
L 224.767329 127.467941 
" clip-path="url(#p079432cace)" style="fill: #9acd32; stroke: #9acd32; stroke-width: 2.5"/>
    <path d="M 191.584592 135.388658 
L 220.793123 125.186761 
" clip-path="url(#p079432cace)" style="fill: #9acd32; stroke: #9acd32; stroke-width: 2.5"/>
    <path d="M 221.311298 95.493846 
L 223.757303 120.54922 
" clip-path="url(#p079432cace)" style="fill: #9acd32; stroke: #9acd32; stroke-width: 2.5"/>
    <path d="M 255.182012 109.975802 
L 247.225869 99.214562 
" clip-path="url(#p079432cace)" style="fill: #9acd32; stroke: #9acd32; stroke-width: 2.5"/>
    <path d="M 235.19191 120.831212 
L 243.824608 99.641548 
" clip-path="url(#p079432cace)" style="fill: #9acd32; stroke: #9acd32; stroke-width: 2.5"/>
    <path d="M 224.414912 92.635754 
L 241.70145 95.77487 
" clip-path="url(#p079432cace)" style="fill: #9acd32; stroke: #9acd32; stroke-width: 2.5"/>
    <path d="M 128.57966 163.169874 
L 98.431763 153.82966 
" clip-path="url(#p079432cace)" style="fill: #add8e6; stroke: #add8e6; stroke-width: 2.5"/>
    <path d="M 113.77671 143.023488 
L 98.190218 151.172289 
" clip-path="url(#p079432cace)" style="fill: #add8e6; stroke: #add8e6; stroke-width: 2.5"/>
    <path d="M 89.544628 130.803442 
L 94.232938 149.400073 
" clip-path="url(#p079432cace)" style="fill: #add8e6; stroke: #add8e6; stroke-width: 2.5"/>
   </g>
   <g id="VertexCollection_1">
    <path d="M 213.427706 69.01567 
C 214.355917 69.01567 215.246235 68.646888 215.902579 67.990544 
C 216.558924 67.334199 216.927706 66.443881 216.927706 65.51567 
C 216.927706 64.587459 216.558924 63.69714 215.902579 63.040796 
C 215.246235 62.384452 214.355917 62.01567 213.427706 62.01567 
C 212.499495 62.01567 211.609176 62.384452 210.952832 63.040796 
C 210.296488 63.69714 209.927706 64.587459 209.927706 65.51567 
C 209.927706 66.443881 210.296488 67.334199 210.952832 67.990544 
C 211.609176 68.646888 212.499495 69.01567 213.427706 69.01567 
z
" clip-path="url(#p079432cace)" style="fill: #9acd32; stroke: #000000"/>
    <path d="M 143.669318 141.288299 
C 144.597529 141.288299 145.487848 140.919517 146.144192 140.263173 
C 146.800536 139.606828 147.169318 138.71651 147.169318 137.788299 
C 147.169318 136.860088 146.800536 135.969769 146.144192 135.313425 
C 145.487848 134.657081 144.597529 134.288299 143.669318 134.288299 
C 142.741108 134.288299 141.850789 134.657081 141.194445 135.313425 
C 140.5381 135.969769 140.169318 136.860088 140.169318 137.788299 
C 140.169318 138.71651 140.5381 139.606828 141.194445 140.263173 
C 141.850789 140.919517 142.741108 141.288299 143.669318 141.288299 
z
" clip-path="url(#p079432cace)" style="fill: #add8e6; stroke: #000000"/>
    <path d="M 257.26275 116.290145 
C 258.190961 116.290145 259.08128 115.921363 259.737624 115.265019 
C 260.393968 114.608675 260.76275 113.718356 260.76275 112.790145 
C 260.76275 111.861934 260.393968 110.971616 259.737624 110.315272 
C 259.08128 109.658927 258.190961 109.290145 257.26275 109.290145 
C 256.334539 109.290145 255.44422 109.658927 254.787876 110.315272 
C 254.131532 110.971616 253.76275 111.861934 253.76275 112.790145 
C 253.76275 113.718356 254.131532 114.608675 254.787876 115.265019 
C 255.44422 115.921363 256.334539 116.290145 257.26275 116.290145 
z
" clip-path="url(#p079432cace)" style="fill: #9acd32; stroke: #000000"/>
    <path d="M 228.565477 150.443324 
C 229.493688 150.443324 230.384007 150.074542 231.040351 149.418198 
C 231.696695 148.761854 232.065477 147.871535 232.065477 146.943324 
C 232.065477 146.015113 231.696695 145.124795 231.040351 144.46845 
C 230.384007 143.812106 229.493688 143.443324 228.565477 143.443324 
C 227.637266 143.443324 226.746947 143.812106 226.090603 144.46845 
C 225.434259 145.124795 225.065477 146.015113 225.065477 146.943324 
C 225.065477 147.871535 225.434259 148.761854 226.090603 149.418198 
C 226.746947 150.074542 227.637266 150.443324 228.565477 150.443324 
z
" clip-path="url(#p079432cace)" style="fill: #9acd32; stroke: #000000"/>
    <path d="M 184.171711 183.835673 
C 185.099921 183.835673 185.99024 183.466891 186.646584 182.810547 
C 187.302929 182.154203 187.671711 181.263884 187.671711 180.335673 
C 187.671711 179.407462 187.302929 178.517144 186.646584 177.860799 
C 185.99024 177.204455 185.099921 176.835673 184.171711 176.835673 
C 183.2435 176.835673 182.353181 177.204455 181.696837 177.860799 
C 181.040493 178.517144 180.671711 179.407462 180.671711 180.335673 
C 180.671711 181.263884 181.040493 182.154203 181.696837 182.810547 
C 182.353181 183.466891 183.2435 183.835673 184.171711 183.835673 
z
" clip-path="url(#p079432cace)" style="fill: #add8e6; stroke: #000000"/>
    <path d="M 143.536648 129.341718 
C 144.464858 129.341718 145.355177 128.972936 146.011521 128.316592 
C 146.667866 127.660247 147.036648 126.769929 147.036648 125.841718 
C 147.036648 124.913507 146.667866 124.023188 146.011521 123.366844 
C 145.355177 122.7105 144.464858 122.341718 143.536648 122.341718 
C 142.608437 122.341718 141.718118 122.7105 141.061774 123.366844 
C 140.40543 124.023188 140.036648 124.913507 140.036648 125.841718 
C 140.036648 126.769929 140.40543 127.660247 141.061774 128.316592 
C 141.718118 128.972936 142.608437 129.341718 143.536648 129.341718 
z
" clip-path="url(#p079432cace)" style="fill: #add8e6; stroke: #000000"/>
    <path d="M 176.901771 101.556688 
C 177.829982 101.556688 178.720301 101.187906 179.376645 100.531562 
C 180.032989 99.875218 180.401771 98.984899 180.401771 98.056688 
C 180.401771 97.128478 180.032989 96.238159 179.376645 95.581815 
C 178.720301 94.925471 177.829982 94.556688 176.901771 94.556688 
C 175.97356 94.556688 175.083242 94.925471 174.426897 95.581815 
C 173.770553 96.238159 173.401771 97.128478 173.401771 98.056688 
C 173.401771 98.984899 173.770553 99.875218 174.426897 100.531562 
C 175.083242 101.187906 175.97356 101.556688 176.901771 101.556688 
z
" clip-path="url(#p079432cace)" style="fill: #9acd32; stroke: #000000"/>
    <path d="M 189.497808 160.861155 
C 190.426019 160.861155 191.316337 160.492373 191.972682 159.836029 
C 192.629026 159.179685 192.997808 158.289366 192.997808 157.361155 
C 192.997808 156.432944 192.629026 155.542626 191.972682 154.886282 
C 191.316337 154.229937 190.426019 153.861155 189.497808 153.861155 
C 188.569597 153.861155 187.679278 154.229937 187.022934 154.886282 
C 186.36659 155.542626 185.997808 156.432944 185.997808 157.361155 
C 185.997808 158.289366 186.36659 159.179685 187.022934 159.836029 
C 187.679278 160.492373 188.569597 160.861155 189.497808 160.861155 
z
" clip-path="url(#p079432cace)" style="fill: #add8e6; stroke: #000000"/>
    <path d="M 185.244767 260.412161 
C 186.172978 260.412161 187.063296 260.043378 187.719641 259.387034 
C 188.375985 258.73069 188.744767 257.840371 188.744767 256.912161 
C 188.744767 255.98395 188.375985 255.093631 187.719641 254.437287 
C 187.063296 253.780943 186.172978 253.412161 185.244767 253.412161 
C 184.316556 253.412161 183.426237 253.780943 182.769893 254.437287 
C 182.113549 255.093631 181.744767 255.98395 181.744767 256.912161 
C 181.744767 257.840371 182.113549 258.73069 182.769893 259.387034 
C 183.426237 260.043378 184.316556 260.412161 185.244767 260.412161 
z
" clip-path="url(#p079432cace)" style="fill: #add8e6; stroke: #000000"/>
    <path d="M 156.045823 96.888354 
C 156.974034 96.888354 157.864353 96.519572 158.520697 95.863228 
C 159.177041 95.206884 159.545823 94.316565 159.545823 93.388354 
C 159.545823 92.460144 159.177041 91.569825 158.520697 90.913481 
C 157.864353 90.257136 156.974034 89.888354 156.045823 89.888354 
C 155.117612 89.888354 154.227293 90.257136 153.570949 90.913481 
C 152.914605 91.569825 152.545823 92.460144 152.545823 93.388354 
C 152.545823 94.316565 152.914605 95.206884 153.570949 95.863228 
C 154.227293 96.519572 155.117612 96.888354 156.045823 96.888354 
z
" clip-path="url(#p079432cace)" style="fill: #9acd32; stroke: #000000"/>
    <path d="M 131.922887 167.705649 
C 132.851098 167.705649 133.741417 167.336867 134.397761 166.680523 
C 135.054105 166.024179 135.422887 165.13386 135.422887 164.205649 
C 135.422887 163.277439 135.054105 162.38712 134.397761 161.730776 
C 133.741417 161.074432 132.851098 160.705649 131.922887 160.705649 
C 130.994676 160.705649 130.104357 161.074432 129.448013 161.730776 
C 128.791669 162.38712 128.422887 163.277439 128.422887 164.205649 
C 128.422887 165.13386 128.791669 166.024179 129.448013 166.680523 
C 130.104357 167.336867 130.994676 167.705649 131.922887 167.705649 
z
" clip-path="url(#p079432cace)" style="fill: #add8e6; stroke: #000000"/>
    <path d="M 178.432588 70.69991 
C 179.360799 70.69991 180.251118 70.331128 180.907462 69.674784 
C 181.563806 69.01844 181.932588 68.128121 181.932588 67.19991 
C 181.932588 66.271699 181.563806 65.381381 180.907462 64.725036 
C 180.251118 64.068692 179.360799 63.69991 178.432588 63.69991 
C 177.504378 63.69991 176.614059 64.068692 175.957715 64.725036 
C 175.301371 65.381381 174.932588 66.271699 174.932588 67.19991 
C 174.932588 68.128121 175.301371 69.01844 175.957715 69.674784 
C 176.614059 70.331128 177.504378 70.69991 178.432588 70.69991 
z
" clip-path="url(#p079432cace)" style="fill: #9acd32; stroke: #000000"/>
    <path d="M 164.272879 221.998857 
C 165.20109 221.998857 166.091409 221.630075 166.747753 220.973731 
C 167.404097 220.317387 167.772879 219.427068 167.772879 218.498857 
C 167.772879 217.570647 167.404097 216.680328 166.747753 216.023984 
C 166.091409 215.36764 165.20109 214.998857 164.272879 214.998857 
C 163.344668 214.998857 162.45435 215.36764 161.798005 216.023984 
C 161.141661 216.680328 160.772879 217.570647 160.772879 218.498857 
C 160.772879 219.427068 161.141661 220.317387 161.798005 220.973731 
C 162.45435 221.630075 163.344668 221.998857 164.272879 221.998857 
z
" clip-path="url(#p079432cace)" style="fill: #add8e6; stroke: #000000"/>
    <path d="M 160.294579 161.991674 
C 161.22279 161.991674 162.113109 161.622892 162.769453 160.966548 
C 163.425797 160.310203 163.794579 159.419885 163.794579 158.491674 
C 163.794579 157.563463 163.425797 156.673144 162.769453 156.0168 
C 162.113109 155.360456 161.22279 154.991674 160.294579 154.991674 
C 159.366368 154.991674 158.476049 155.360456 157.819705 156.0168 
C 157.163361 156.673144 156.794579 157.563463 156.794579 158.491674 
C 156.794579 159.419885 157.163361 160.310203 157.819705 160.966548 
C 158.476049 161.622892 159.366368 161.991674 160.294579 161.991674 
z
" clip-path="url(#p079432cace)" style="fill: #add8e6; stroke: #000000"/>
    <path d="M 233.871387 127.572542 
C 234.799598 127.572542 235.689917 127.20376 236.346261 126.547416 
C 237.002605 125.891072 237.371387 125.000753 237.371387 124.072542 
C 237.371387 123.144331 237.002605 122.254013 236.346261 121.597668 
C 235.689917 120.941324 234.799598 120.572542 233.871387 120.572542 
C 232.943176 120.572542 232.052858 120.941324 231.396513 121.597668 
C 230.740169 122.254013 230.371387 123.144331 230.371387 124.072542 
C 230.371387 125.000753 230.740169 125.891072 231.396513 126.547416 
C 232.052858 127.20376 232.943176 127.572542 233.871387 127.572542 
z
" clip-path="url(#p079432cace)" style="fill: #9acd32; stroke: #000000"/>
    <path d="M 211.000161 170.382662 
C 211.928372 170.382662 212.81869 170.01388 213.475035 169.357535 
C 214.131379 168.701191 214.500161 167.810873 214.500161 166.882662 
C 214.500161 165.954451 214.131379 165.064132 213.475035 164.407788 
C 212.81869 163.751444 211.928372 163.382662 211.000161 163.382662 
C 210.07195 163.382662 209.181631 163.751444 208.525287 164.407788 
C 207.868943 165.064132 207.500161 165.954451 207.500161 166.882662 
C 207.500161 167.810873 207.868943 168.701191 208.525287 169.357535 
C 209.181631 170.01388 210.07195 170.382662 211.000161 170.382662 
z
" clip-path="url(#p079432cace)" style="fill: #9acd32; stroke: #000000"/>
    <path d="M 159.755999 79.230771 
C 160.68421 79.230771 161.574529 78.861989 162.230873 78.205645 
C 162.887217 77.549301 163.255999 76.658982 163.255999 75.730771 
C 163.255999 74.80256 162.887217 73.912242 162.230873 73.255897 
C 161.574529 72.599553 160.68421 72.230771 159.755999 72.230771 
C 158.827788 72.230771 157.93747 72.599553 157.281125 73.255897 
C 156.624781 73.912242 156.255999 74.80256 156.255999 75.730771 
C 156.255999 76.658982 156.624781 77.549301 157.281125 78.205645 
C 157.93747 78.861989 158.827788 79.230771 159.755999 79.230771 
z
" clip-path="url(#p079432cace)" style="fill: #9acd32; stroke: #000000"/>
    <path d="M 189.487259 106.833523 
C 190.415469 106.833523 191.305788 106.46474 191.962132 105.808396 
C 192.618477 105.152052 192.987259 104.261733 192.987259 103.333523 
C 192.987259 102.405312 192.618477 101.514993 191.962132 100.858649 
C 191.305788 100.202305 190.415469 99.833523 189.487259 99.833523 
C 188.559048 99.833523 187.668729 100.202305 187.012385 100.858649 
C 186.356041 101.514993 185.987259 102.405312 185.987259 103.333523 
C 185.987259 104.261733 186.356041 105.152052 187.012385 105.808396 
C 187.668729 106.46474 188.559048 106.833523 189.487259 106.833523 
z
" clip-path="url(#p079432cace)" style="fill: #9acd32; stroke: #000000"/>
    <path d="M 180.459357 124.506356 
C 181.387568 124.506356 182.277886 124.137574 182.934231 123.48123 
C 183.590575 122.824886 183.959357 121.934567 183.959357 121.006356 
C 183.959357 120.078145 183.590575 119.187827 182.934231 118.531482 
C 182.277886 117.875138 181.387568 117.506356 180.459357 117.506356 
C 179.531146 117.506356 178.640827 117.875138 177.984483 118.531482 
C 177.328139 119.187827 176.959357 120.078145 176.959357 121.006356 
C 176.959357 121.934567 177.328139 122.824886 177.984483 123.48123 
C 178.640827 124.137574 179.531146 124.506356 180.459357 124.506356 
z
" clip-path="url(#p079432cace)" style="fill: #9acd32; stroke: #000000"/>
    <path d="M 213.873651 117.894332 
C 214.801862 117.894332 215.692181 117.52555 216.348525 116.869206 
C 217.004869 116.212862 217.373651 115.322543 217.373651 114.394332 
C 217.373651 113.466122 217.004869 112.575803 216.348525 111.919459 
C 215.692181 111.263114 214.801862 110.894332 213.873651 110.894332 
C 212.945441 110.894332 212.055122 111.263114 211.398778 111.919459 
C 210.742434 112.575803 210.373651 113.466122 210.373651 114.394332 
C 210.373651 115.322543 210.742434 116.212862 211.398778 116.869206 
C 212.055122 117.52555 212.945441 117.894332 213.873651 117.894332 
z
" clip-path="url(#p079432cace)" style="fill: #9acd32; stroke: #000000"/>
    <path d="M 217.198127 184.754714 
C 218.126338 184.754714 219.016657 184.385932 219.673001 183.729588 
C 220.329345 183.073243 220.698127 182.182925 220.698127 181.254714 
C 220.698127 180.326503 220.329345 179.436184 219.673001 178.77984 
C 219.016657 178.123496 218.126338 177.754714 217.198127 177.754714 
C 216.269916 177.754714 215.379598 178.123496 214.723253 178.77984 
C 214.066909 179.436184 213.698127 180.326503 213.698127 181.254714 
C 213.698127 182.182925 214.066909 183.073243 214.723253 183.729588 
C 215.379598 184.385932 216.269916 184.754714 217.198127 184.754714 
z
" clip-path="url(#p079432cace)" style="fill: #9acd32; stroke: #000000"/>
    <path d="M 365.296225 68.174082 
C 366.224436 68.174082 367.114754 67.8053 367.771099 67.148955 
C 368.427443 66.492611 368.796225 65.602292 368.796225 64.674082 
C 368.796225 63.745871 368.427443 62.855552 367.771099 62.199208 
C 367.114754 61.542864 366.224436 61.174082 365.296225 61.174082 
C 364.368014 61.174082 363.477695 61.542864 362.821351 62.199208 
C 362.165007 62.855552 361.796225 63.745871 361.796225 64.674082 
C 361.796225 65.602292 362.165007 66.492611 362.821351 67.148955 
C 363.477695 67.8053 364.368014 68.174082 365.296225 68.174082 
z
" clip-path="url(#p079432cace)" style="fill: #9acd32; stroke: #000000"/>
    <path d="M 214.746209 147.992178 
C 215.67442 147.992178 216.564739 147.623396 217.221083 146.967051 
C 217.877427 146.310707 218.246209 145.420388 218.246209 144.492178 
C 218.246209 143.563967 217.877427 142.673648 217.221083 142.017304 
C 216.564739 141.36096 215.67442 140.992178 214.746209 140.992178 
C 213.817999 140.992178 212.92768 141.36096 212.271336 142.017304 
C 211.614991 142.673648 211.246209 143.563967 211.246209 144.492178 
C 211.246209 145.420388 211.614991 146.310707 212.271336 146.967051 
C 212.92768 147.623396 213.817999 147.992178 214.746209 147.992178 
z
" clip-path="url(#p079432cace)" style="fill: #9acd32; stroke: #000000"/>
    <path d="M 114.092752 200.405234 
C 115.020963 200.405234 115.911281 200.036452 116.567626 199.380107 
C 117.22397 198.723763 117.592752 197.833445 117.592752 196.905234 
C 117.592752 195.977023 117.22397 195.086704 116.567626 194.43036 
C 115.911281 193.774016 115.020963 193.405234 114.092752 193.405234 
C 113.164541 193.405234 112.274222 193.774016 111.617878 194.43036 
C 110.961534 195.086704 110.592752 195.977023 110.592752 196.905234 
C 110.592752 197.833445 110.961534 198.723763 111.617878 199.380107 
C 112.274222 200.036452 113.164541 200.405234 114.092752 200.405234 
z
" clip-path="url(#p079432cace)" style="fill: #add8e6; stroke: #000000"/>
    <path d="M 115.656085 155.988607 
C 116.584296 155.988607 117.474614 155.619825 118.130959 154.963481 
C 118.787303 154.307136 119.156085 153.416818 119.156085 152.488607 
C 119.156085 151.560396 118.787303 150.670077 118.130959 150.013733 
C 117.474614 149.357389 116.584296 148.988607 115.656085 148.988607 
C 114.727874 148.988607 113.837555 149.357389 113.181211 150.013733 
C 112.524867 150.670077 112.156085 151.560396 112.156085 152.488607 
C 112.156085 153.416818 112.524867 154.307136 113.181211 154.963481 
C 113.837555 155.619825 114.727874 155.988607 115.656085 155.988607 
z
" clip-path="url(#p079432cace)" style="fill: #add8e6; stroke: #000000"/>
    <path d="M 182.151276 196.472933 
C 183.079487 196.472933 183.969806 196.104151 184.62615 195.447807 
C 185.282494 194.791463 185.651276 193.901144 185.651276 192.972933 
C 185.651276 192.044722 185.282494 191.154403 184.62615 190.498059 
C 183.969806 189.841715 183.079487 189.472933 182.151276 189.472933 
C 181.223065 189.472933 180.332747 189.841715 179.676402 190.498059 
C 179.020058 191.154403 178.651276 192.044722 178.651276 192.972933 
C 178.651276 193.901144 179.020058 194.791463 179.676402 195.447807 
C 180.332747 196.104151 181.223065 196.472933 182.151276 196.472933 
z
" clip-path="url(#p079432cace)" style="fill: #add8e6; stroke: #000000"/>
    <path d="M 116.878392 144.901893 
C 117.806602 144.901893 118.696921 144.533111 119.353265 143.876767 
C 120.009609 143.220423 120.378392 142.330104 120.378392 141.401893 
C 120.378392 140.473682 120.009609 139.583364 119.353265 138.927019 
C 118.696921 138.270675 117.806602 137.901893 116.878392 137.901893 
C 115.950181 137.901893 115.059862 138.270675 114.403518 138.927019 
C 113.747174 139.583364 113.378392 140.473682 113.378392 141.401893 
C 113.378392 142.330104 113.747174 143.220423 114.403518 143.876767 
C 115.059862 144.533111 115.950181 144.901893 116.878392 144.901893 
z
" clip-path="url(#p079432cace)" style="fill: #add8e6; stroke: #000000"/>
    <path d="M 191.64043 92.462154 
C 192.56864 92.462154 193.458959 92.093372 194.115303 91.437028 
C 194.771647 90.780684 195.14043 89.890365 195.14043 88.962154 
C 195.14043 88.033943 194.771647 87.143625 194.115303 86.487281 
C 193.458959 85.830936 192.56864 85.462154 191.64043 85.462154 
C 190.712219 85.462154 189.8219 85.830936 189.165556 86.487281 
C 188.509212 87.143625 188.14043 88.033943 188.14043 88.962154 
C 188.14043 89.890365 188.509212 90.780684 189.165556 91.437028 
C 189.8219 92.093372 190.712219 92.462154 191.64043 92.462154 
z
" clip-path="url(#p079432cace)" style="fill: #9acd32; stroke: #000000"/>
    <path d="M 172.520567 137.367796 
C 173.448778 137.367796 174.339097 136.999014 174.995441 136.34267 
C 175.651785 135.686326 176.020567 134.796007 176.020567 133.867796 
C 176.020567 132.939585 175.651785 132.049266 174.995441 131.392922 
C 174.339097 130.736578 173.448778 130.367796 172.520567 130.367796 
C 171.592356 130.367796 170.702038 130.736578 170.045694 131.392922 
C 169.389349 132.049266 169.020567 132.939585 169.020567 133.867796 
C 169.020567 134.796007 169.389349 135.686326 170.045694 136.34267 
C 170.702038 136.999014 171.592356 137.367796 172.520567 137.367796 
z
" clip-path="url(#p079432cace)" style="fill: #add8e6; stroke: #000000"/>
    <path d="M 112.608152 85.533662 
C 113.536363 85.533662 114.426682 85.16488 115.083026 84.508536 
C 115.73937 83.852192 116.108152 82.961873 116.108152 82.033662 
C 116.108152 81.105451 115.73937 80.215133 115.083026 79.558788 
C 114.426682 78.902444 113.536363 78.533662 112.608152 78.533662 
C 111.679941 78.533662 110.789623 78.902444 110.133279 79.558788 
C 109.476934 80.215133 109.108152 81.105451 109.108152 82.033662 
C 109.108152 82.961873 109.476934 83.852192 110.133279 84.508536 
C 110.789623 85.16488 111.679941 85.533662 112.608152 85.533662 
z
" clip-path="url(#p079432cace)" style="fill: #add8e6; stroke: #000000"/>
    <path d="M 161.272076 140.353094 
C 162.200287 140.353094 163.090605 139.984312 163.746949 139.327968 
C 164.403294 138.671624 164.772076 137.781305 164.772076 136.853094 
C 164.772076 135.924883 164.403294 135.034565 163.746949 134.378221 
C 163.090605 133.721876 162.200287 133.353094 161.272076 133.353094 
C 160.343865 133.353094 159.453546 133.721876 158.797202 134.378221 
C 158.140858 135.034565 157.772076 135.924883 157.772076 136.853094 
C 157.772076 137.781305 158.140858 138.671624 158.797202 139.327968 
C 159.453546 139.984312 160.343865 140.353094 161.272076 140.353094 
z
" clip-path="url(#p079432cace)" style="fill: #add8e6; stroke: #000000"/>
    <path d="M 376.396444 204.581993 
C 377.324655 204.581993 378.214974 204.213211 378.871318 203.556866 
C 379.527662 202.900522 379.896444 202.010204 379.896444 201.081993 
C 379.896444 200.153782 379.527662 199.263463 378.871318 198.607119 
C 378.214974 197.950775 377.324655 197.581993 376.396444 197.581993 
C 375.468234 197.581993 374.577915 197.950775 373.921571 198.607119 
C 373.265226 199.263463 372.896444 200.153782 372.896444 201.081993 
C 372.896444 202.010204 373.265226 202.900522 373.921571 203.556866 
C 374.577915 204.213211 375.468234 204.581993 376.396444 204.581993 
z
" clip-path="url(#p079432cace)" style="fill: #9acd32; stroke: #000000"/>
    <path d="M 133.845741 74.562591 
C 134.773952 74.562591 135.664271 74.193809 136.320615 73.537465 
C 136.976959 72.881121 137.345741 71.990802 137.345741 71.062591 
C 137.345741 70.13438 136.976959 69.244061 136.320615 68.587717 
C 135.664271 67.931373 134.773952 67.562591 133.845741 67.562591 
C 132.91753 67.562591 132.027212 67.931373 131.370867 68.587717 
C 130.714523 69.244061 130.345741 70.13438 130.345741 71.062591 
C 130.345741 71.990802 130.714523 72.881121 131.370867 73.537465 
C 132.027212 74.193809 132.91753 74.562591 133.845741 74.562591 
z
" clip-path="url(#p079432cace)" style="fill: #9acd32; stroke: #000000"/>
    <path d="M 142.792498 104.538013 
C 143.720709 104.538013 144.611028 104.169231 145.267372 103.512887 
C 145.923716 102.856543 146.292498 101.966224 146.292498 101.038013 
C 146.292498 100.109803 145.923716 99.219484 145.267372 98.56314 
C 144.611028 97.906795 143.720709 97.538013 142.792498 97.538013 
C 141.864287 97.538013 140.973968 97.906795 140.317624 98.56314 
C 139.66128 99.219484 139.292498 100.109803 139.292498 101.038013 
C 139.292498 101.966224 139.66128 102.856543 140.317624 103.512887 
C 140.973968 104.169231 141.864287 104.538013 142.792498 104.538013 
z
" clip-path="url(#p079432cace)" style="fill: #add8e6; stroke: #000000"/>
    <path d="M 231.993488 160.667652 
C 232.921699 160.667652 233.812017 160.29887 234.468362 159.642526 
C 235.124706 158.986182 235.493488 158.095863 235.493488 157.167652 
C 235.493488 156.239441 235.124706 155.349123 234.468362 154.692778 
C 233.812017 154.036434 232.921699 153.667652 231.993488 153.667652 
C 231.065277 153.667652 230.174958 154.036434 229.518614 154.692778 
C 228.86227 155.349123 228.493488 156.239441 228.493488 157.167652 
C 228.493488 158.095863 228.86227 158.986182 229.518614 159.642526 
C 230.174958 160.29887 231.065277 160.667652 231.993488 160.667652 
z
" clip-path="url(#p079432cace)" style="fill: #9acd32; stroke: #000000"/>
    <path d="M 188.280345 140.042759 
C 189.208556 140.042759 190.098874 139.673977 190.755218 139.017632 
C 191.411563 138.361288 191.780345 137.47097 191.780345 136.542759 
C 191.780345 135.614548 191.411563 134.724229 190.755218 134.067885 
C 190.098874 133.411541 189.208556 133.042759 188.280345 133.042759 
C 187.352134 133.042759 186.461815 133.411541 185.805471 134.067885 
C 185.149127 134.724229 184.780345 135.614548 184.780345 136.542759 
C 184.780345 137.47097 185.149127 138.361288 185.805471 139.017632 
C 186.461815 139.673977 187.352134 140.042759 188.280345 140.042759 
z
" clip-path="url(#p079432cace)" style="fill: #9acd32; stroke: #000000"/>
    <path d="M 383.63097 183.446513 
C 384.55918 183.446513 385.449499 183.077731 386.105843 182.421387 
C 386.762187 181.765043 387.13097 180.874724 387.13097 179.946513 
C 387.13097 179.018302 386.762187 178.127984 386.105843 177.471639 
C 385.449499 176.815295 384.55918 176.446513 383.63097 176.446513 
C 382.702759 176.446513 381.81244 176.815295 381.156096 177.471639 
C 380.499752 178.127984 380.13097 179.018302 380.13097 179.946513 
C 380.13097 180.874724 380.499752 181.765043 381.156096 182.421387 
C 381.81244 183.077731 382.702759 183.446513 383.63097 183.446513 
z
" clip-path="url(#p079432cace)" style="fill: #9acd32; stroke: #000000"/>
    <path d="M 183.456051 236.611671 
C 184.384262 236.611671 185.274581 236.242889 185.930925 235.586544 
C 186.587269 234.9302 186.956051 234.039882 186.956051 233.111671 
C 186.956051 232.18346 186.587269 231.293141 185.930925 230.636797 
C 185.274581 229.980453 184.384262 229.611671 183.456051 229.611671 
C 182.52784 229.611671 181.637522 229.980453 180.981178 230.636797 
C 180.324833 231.293141 179.956051 232.18346 179.956051 233.111671 
C 179.956051 234.039882 180.324833 234.9302 180.981178 235.586544 
C 181.637522 236.242889 182.52784 236.611671 183.456051 236.611671 
z
" clip-path="url(#p079432cace)" style="fill: #add8e6; stroke: #000000"/>
    <path d="M 88.68903 130.909631 
C 89.617241 130.909631 90.50756 130.540849 91.163904 129.884505 
C 91.820248 129.228161 92.18903 128.337842 92.18903 127.409631 
C 92.18903 126.481421 91.820248 125.591102 91.163904 124.934758 
C 90.50756 124.278413 89.617241 123.909631 88.68903 123.909631 
C 87.76082 123.909631 86.870501 124.278413 86.214157 124.934758 
C 85.557813 125.591102 85.18903 126.481421 85.18903 127.409631 
C 85.18903 128.337842 85.557813 129.228161 86.214157 129.884505 
C 86.870501 130.540849 87.76082 130.909631 88.68903 130.909631 
z
" clip-path="url(#p079432cace)" style="fill: #add8e6; stroke: #000000"/>
    <path d="M 263.57215 194.244539 
C 264.500361 194.244539 265.390679 193.875757 266.047024 193.219413 
C 266.703368 192.563069 267.07215 191.67275 267.07215 190.744539 
C 267.07215 189.816328 266.703368 188.926009 266.047024 188.269665 
C 265.390679 187.613321 264.500361 187.244539 263.57215 187.244539 
C 262.643939 187.244539 261.75362 187.613321 261.097276 188.269665 
C 260.440932 188.926009 260.07215 189.816328 260.07215 190.744539 
C 260.07215 191.67275 260.440932 192.563069 261.097276 193.219413 
C 261.75362 193.875757 262.643939 194.244539 263.57215 194.244539 
z
" clip-path="url(#p079432cace)" style="fill: #9acd32; stroke: #000000"/>
    <path d="M 202.148973 138.492889 
C 203.077184 138.492889 203.967502 138.124107 204.623846 137.467763 
C 205.280191 136.811418 205.648973 135.9211 205.648973 134.992889 
C 205.648973 134.064678 205.280191 133.174359 204.623846 132.518015 
C 203.967502 131.861671 203.077184 131.492889 202.148973 131.492889 
C 201.220762 131.492889 200.330443 131.861671 199.674099 132.518015 
C 199.017755 133.174359 198.648973 134.064678 198.648973 134.992889 
C 198.648973 135.9211 199.017755 136.811418 199.674099 137.467763 
C 200.330443 138.124107 201.220762 138.492889 202.148973 138.492889 
z
" clip-path="url(#p079432cace)" style="fill: #9acd32; stroke: #000000"/>
    <path d="M 161.139374 173.742705 
C 162.067585 173.742705 162.957904 173.373923 163.614248 172.717579 
C 164.270592 172.061235 164.639374 171.170916 164.639374 170.242705 
C 164.639374 169.314495 164.270592 168.424176 163.614248 167.767832 
C 162.957904 167.111488 162.067585 166.742705 161.139374 166.742705 
C 160.211163 166.742705 159.320844 167.111488 158.6645 167.767832 
C 158.008156 168.424176 157.639374 169.314495 157.639374 170.242705 
C 157.639374 171.170916 158.008156 172.061235 158.6645 172.717579 
C 159.320844 173.373923 160.211163 173.742705 161.139374 173.742705 
z
" clip-path="url(#p079432cace)" style="fill: #add8e6; stroke: #000000"/>
    <path d="M 238.465358 177.097806 
C 239.393569 177.097806 240.283887 176.729024 240.940232 176.07268 
C 241.596576 175.416336 241.965358 174.526017 241.965358 173.597806 
C 241.965358 172.669596 241.596576 171.779277 240.940232 171.122933 
C 240.283887 170.466589 239.393569 170.097806 238.465358 170.097806 
C 237.537147 170.097806 236.646828 170.466589 235.990484 171.122933 
C 235.33414 171.779277 234.965358 172.669596 234.965358 173.597806 
C 234.965358 174.526017 235.33414 175.416336 235.990484 176.07268 
C 236.646828 176.729024 237.537147 177.097806 238.465358 177.097806 
z
" clip-path="url(#p079432cace)" style="fill: #9acd32; stroke: #000000"/>
    <path d="M 150.447843 152.001741 
C 151.376054 152.001741 152.266372 151.632959 152.922716 150.976614 
C 153.579061 150.32027 153.947843 149.429951 153.947843 148.501741 
C 153.947843 147.57353 153.579061 146.683211 152.922716 146.026867 
C 152.266372 145.370523 151.376054 145.001741 150.447843 145.001741 
C 149.519632 145.001741 148.629313 145.370523 147.972969 146.026867 
C 147.316625 146.683211 146.947843 147.57353 146.947843 148.501741 
C 146.947843 149.429951 147.316625 150.32027 147.972969 150.976614 
C 148.629313 151.632959 149.519632 152.001741 150.447843 152.001741 
z
" clip-path="url(#p079432cace)" style="fill: #add8e6; stroke: #000000"/>
    <path d="M 136.779245 111.782981 
C 137.707456 111.782981 138.597774 111.414199 139.254118 110.757855 
C 139.910463 110.101511 140.279245 109.211192 140.279245 108.282981 
C 140.279245 107.354771 139.910463 106.464452 139.254118 105.808108 
C 138.597774 105.151763 137.707456 104.782981 136.779245 104.782981 
C 135.851034 104.782981 134.960715 105.151763 134.304371 105.808108 
C 133.648027 106.464452 133.279245 107.354771 133.279245 108.282981 
C 133.279245 109.211192 133.648027 110.101511 134.304371 110.757855 
C 134.960715 111.414199 135.851034 111.782981 136.779245 111.782981 
z
" clip-path="url(#p079432cace)" style="fill: #add8e6; stroke: #000000"/>
    <path d="M 113.31823 168.759425 
C 114.246441 168.759425 115.13676 168.390643 115.793104 167.734298 
C 116.449448 167.077954 116.81823 166.187635 116.81823 165.259425 
C 116.81823 164.331214 116.449448 163.440895 115.793104 162.784551 
C 115.13676 162.128207 114.246441 161.759425 113.31823 161.759425 
C 112.390019 161.759425 111.499701 162.128207 110.843356 162.784551 
C 110.187012 163.440895 109.81823 164.331214 109.81823 165.259425 
C 109.81823 166.187635 110.187012 167.077954 110.843356 167.734298 
C 111.499701 168.390643 112.390019 168.759425 113.31823 168.759425 
z
" clip-path="url(#p079432cace)" style="fill: #add8e6; stroke: #000000"/>
    <path d="M 300.862256 287.881918 
C 301.790466 287.881918 302.680785 287.513136 303.337129 286.856792 
C 303.993474 286.200448 304.362256 285.310129 304.362256 284.381918 
C 304.362256 283.453708 303.993474 282.563389 303.337129 281.907045 
C 302.680785 281.2507 301.790466 280.881918 300.862256 280.881918 
C 299.934045 280.881918 299.043726 281.2507 298.387382 281.907045 
C 297.731038 282.563389 297.362256 283.453708 297.362256 284.381918 
C 297.362256 285.310129 297.731038 286.200448 298.387382 286.856792 
C 299.043726 287.513136 299.934045 287.881918 300.862256 287.881918 
z
" clip-path="url(#p079432cace)" style="fill: #9acd32; stroke: #000000"/>
    <path d="M 121.652495 129.11896 
C 122.580705 129.11896 123.471024 128.750178 124.127368 128.093834 
C 124.783712 127.43749 125.152495 126.547171 125.152495 125.61896 
C 125.152495 124.690749 124.783712 123.800431 124.127368 123.144087 
C 123.471024 122.487742 122.580705 122.11896 121.652495 122.11896 
C 120.724284 122.11896 119.833965 122.487742 119.177621 123.144087 
C 118.521277 123.800431 118.152495 124.690749 118.152495 125.61896 
C 118.152495 126.547171 118.521277 127.43749 119.177621 128.093834 
C 119.833965 128.750178 120.724284 129.11896 121.652495 129.11896 
z
" clip-path="url(#p079432cace)" style="fill: #add8e6; stroke: #000000"/>
    <path d="M 193.832318 213.151494 
C 194.760529 213.151494 195.650848 212.782712 196.307192 212.126368 
C 196.963536 211.470024 197.332318 210.579705 197.332318 209.651494 
C 197.332318 208.723283 196.963536 207.832965 196.307192 207.176621 
C 195.650848 206.520276 194.760529 206.151494 193.832318 206.151494 
C 192.904108 206.151494 192.013789 206.520276 191.357445 207.176621 
C 190.701101 207.832965 190.332318 208.723283 190.332318 209.651494 
C 190.332318 210.579705 190.701101 211.470024 191.357445 212.126368 
C 192.013789 212.782712 192.904108 213.151494 193.832318 213.151494 
z
" clip-path="url(#p079432cace)" style="fill: #add8e6; stroke: #000000"/>
    <path d="M 220.971231 95.510406 
C 221.899441 95.510406 222.78976 95.141624 223.446104 94.485279 
C 224.102449 93.828935 224.471231 92.938617 224.471231 92.010406 
C 224.471231 91.082195 224.102449 90.191876 223.446104 89.535532 
C 222.78976 88.879188 221.899441 88.510406 220.971231 88.510406 
C 220.04302 88.510406 219.152701 88.879188 218.496357 89.535532 
C 217.840013 90.191876 217.471231 91.082195 217.471231 92.010406 
C 217.471231 92.938617 217.840013 93.828935 218.496357 94.485279 
C 219.152701 95.141624 220.04302 95.510406 220.971231 95.510406 
z
" clip-path="url(#p079432cace)" style="fill: #9acd32; stroke: #000000"/>
    <path d="M 144.950862 214.135411 
C 145.879073 214.135411 146.769391 213.766629 147.425735 213.110285 
C 148.08208 212.453941 148.450862 211.563622 148.450862 210.635411 
C 148.450862 209.707201 148.08208 208.816882 147.425735 208.160538 
C 146.769391 207.504194 145.879073 207.135411 144.950862 207.135411 
C 144.022651 207.135411 143.132332 207.504194 142.475988 208.160538 
C 141.819644 208.816882 141.450862 209.707201 141.450862 210.635411 
C 141.450862 211.563622 141.819644 212.453941 142.475988 213.110285 
C 143.132332 213.766629 144.022651 214.135411 144.950862 214.135411 
z
" clip-path="url(#p079432cace)" style="fill: #add8e6; stroke: #000000"/>
    <path d="M 268.316554 126.767227 
C 269.244765 126.767227 270.135084 126.398445 270.791428 125.742101 
C 271.447772 125.085757 271.816554 124.195438 271.816554 123.267227 
C 271.816554 122.339016 271.447772 121.448698 270.791428 120.792353 
C 270.135084 120.136009 269.244765 119.767227 268.316554 119.767227 
C 267.388344 119.767227 266.498025 120.136009 265.841681 120.792353 
C 265.185337 121.448698 264.816554 122.339016 264.816554 123.267227 
C 264.816554 124.195438 265.185337 125.085757 265.841681 125.742101 
C 266.498025 126.398445 267.388344 126.767227 268.316554 126.767227 
z
" clip-path="url(#p079432cace)" style="fill: #9acd32; stroke: #000000"/>
    <path d="M 265.435949 167.032813 
C 266.36416 167.032813 267.254479 166.664031 267.910823 166.007687 
C 268.567167 165.351343 268.935949 164.461024 268.935949 163.532813 
C 268.935949 162.604602 268.567167 161.714284 267.910823 161.057939 
C 267.254479 160.401595 266.36416 160.032813 265.435949 160.032813 
C 264.507738 160.032813 263.61742 160.401595 262.961075 161.057939 
C 262.304731 161.714284 261.935949 162.604602 261.935949 163.532813 
C 261.935949 164.461024 262.304731 165.351343 262.961075 166.007687 
C 263.61742 166.664031 264.507738 167.032813 265.435949 167.032813 
z
" clip-path="url(#p079432cace)" style="fill: #9acd32; stroke: #000000"/>
    <path d="M 149.683719 122.485713 
C 150.61193 122.485713 151.502248 122.116931 152.158592 121.460586 
C 152.814937 120.804242 153.183719 119.913923 153.183719 118.985713 
C 153.183719 118.057502 152.814937 117.167183 152.158592 116.510839 
C 151.502248 115.854495 150.61193 115.485713 149.683719 115.485713 
C 148.755508 115.485713 147.865189 115.854495 147.208845 116.510839 
C 146.552501 117.167183 146.183719 118.057502 146.183719 118.985713 
C 146.183719 119.913923 146.552501 120.804242 147.208845 121.460586 
C 147.865189 122.116931 148.755508 122.485713 149.683719 122.485713 
z
" clip-path="url(#p079432cace)" style="fill: #add8e6; stroke: #000000"/>
    <path d="M 129.163764 175.003683 
C 130.091975 175.003683 130.982294 174.634901 131.638638 173.978556 
C 132.294982 173.322212 132.663764 172.431893 132.663764 171.503683 
C 132.663764 170.575472 132.294982 169.685153 131.638638 169.028809 
C 130.982294 168.372465 130.091975 168.003683 129.163764 168.003683 
C 128.235553 168.003683 127.345235 168.372465 126.68889 169.028809 
C 126.032546 169.685153 125.663764 170.575472 125.663764 171.503683 
C 125.663764 172.431893 126.032546 173.322212 126.68889 173.978556 
C 127.345235 174.634901 128.235553 175.003683 129.163764 175.003683 
z
" clip-path="url(#p079432cace)" style="fill: #add8e6; stroke: #000000"/>
    <path d="M 149.657323 189.321593 
C 150.585534 189.321593 151.475852 188.95281 152.132197 188.296466 
C 152.788541 187.640122 153.157323 186.749803 153.157323 185.821593 
C 153.157323 184.893382 152.788541 184.003063 152.132197 183.346719 
C 151.475852 182.690375 150.585534 182.321593 149.657323 182.321593 
C 148.729112 182.321593 147.838793 182.690375 147.182449 183.346719 
C 146.526105 184.003063 146.157323 184.893382 146.157323 185.821593 
C 146.157323 186.749803 146.526105 187.640122 147.182449 188.296466 
C 147.838793 188.95281 148.729112 189.321593 149.657323 189.321593 
z
" clip-path="url(#p079432cace)" style="fill: #add8e6; stroke: #000000"/>
    <path d="M 129.215825 225.743433 
C 130.144036 225.743433 131.034354 225.374651 131.690699 224.718307 
C 132.347043 224.061963 132.715825 223.171644 132.715825 222.243433 
C 132.715825 221.315222 132.347043 220.424904 131.690699 219.768559 
C 131.034354 219.112215 130.144036 218.743433 129.215825 218.743433 
C 128.287614 218.743433 127.397295 219.112215 126.740951 219.768559 
C 126.084607 220.424904 125.715825 221.315222 125.715825 222.243433 
C 125.715825 223.171644 126.084607 224.061963 126.740951 224.718307 
C 127.397295 225.374651 128.287614 225.743433 129.215825 225.743433 
z
" clip-path="url(#p079432cace)" style="fill: #add8e6; stroke: #000000"/>
    <path d="M 224.09737 127.53266 
C 225.025581 127.53266 225.915899 127.163878 226.572244 126.507533 
C 227.228588 125.851189 227.59737 124.960871 227.59737 124.03266 
C 227.59737 123.104449 227.228588 122.21413 226.572244 121.557786 
C 225.915899 120.901442 225.025581 120.53266 224.09737 120.53266 
C 223.169159 120.53266 222.27884 120.901442 221.622496 121.557786 
C 220.966152 122.21413 220.59737 123.104449 220.59737 124.03266 
C 220.59737 124.960871 220.966152 125.851189 221.622496 126.507533 
C 222.27884 127.163878 223.169159 127.53266 224.09737 127.53266 
z
" clip-path="url(#p079432cace)" style="fill: #9acd32; stroke: #000000"/>
    <path d="M 245.145131 99.900218 
C 246.073341 99.900218 246.96366 99.531436 247.620004 98.875092 
C 248.276349 98.218748 248.645131 97.328429 248.645131 96.400218 
C 248.645131 95.472007 248.276349 94.581689 247.620004 93.925344 
C 246.96366 93.269 246.073341 92.900218 245.145131 92.900218 
C 244.21692 92.900218 243.326601 93.269 242.670257 93.925344 
C 242.013913 94.581689 241.645131 95.472007 241.645131 96.400218 
C 241.645131 97.328429 242.013913 98.218748 242.670257 98.875092 
C 243.326601 99.531436 244.21692 99.900218 245.145131 99.900218 
z
" clip-path="url(#p079432cace)" style="fill: #9acd32; stroke: #000000"/>
    <path d="M 95.088536 156.293884 
C 96.016747 156.293884 96.907066 155.925102 97.56341 155.268758 
C 98.219754 154.612414 98.588536 153.722095 98.588536 152.793884 
C 98.588536 151.865673 98.219754 150.975355 97.56341 150.319011 
C 96.907066 149.662666 96.016747 149.293884 95.088536 149.293884 
C 94.160325 149.293884 93.270006 149.662666 92.613662 150.319011 
C 91.957318 150.975355 91.588536 151.865673 91.588536 152.793884 
C 91.588536 153.722095 91.957318 154.612414 92.613662 155.268758 
C 93.270006 155.925102 94.160325 156.293884 95.088536 156.293884 
z
" clip-path="url(#p079432cace)" style="fill: #add8e6; stroke: #000000"/>
   </g>
   <g id="PathCollection_1"/>
   <g id="PathCollection_2"/>
   <g id="matplotlib.axis_1"/>
   <g id="matplotlib.axis_2"/>
   <g id="text_1">
    <g id="patch_3">
     <path d="M 277.19385 83.020553 
L 407.5776 83.020553 
Q 414.5776 83.020553 414.5776 76.020553 
L 414.5776 46.79424 
Q 414.5776 39.79424 407.5776 39.79424 
L 277.19385 39.79424 
Q 270.19385 39.79424 270.19385 46.79424 
L 270.19385 76.020553 
Q 270.19385 83.020553 277.19385 83.020553 
z
" style="fill: #ffffff; opacity: 0.2; stroke: #000000; stroke-linejoin: miter"/>
    </g>
    <!-- Total Cuts: 10 -->
    <g transform="translate(312.023225 57.432052) scale(0.14 -0.14)">
     <defs>
      <path id="DejaVuSans-54" d="M -19 4666 
L 3928 4666 
L 3928 4134 
L 2272 4134 
L 2272 0 
L 1638 0 
L 1638 4134 
L -19 4134 
L -19 4666 
z
" transform="scale(0.015625)"/>
      <path id="DejaVuSans-6f" d="M 1959 3097 
Q 1497 3097 1228 2736 
Q 959 2375 959 1747 
Q 959 1119 1226 758 
Q 1494 397 1959 397 
Q 2419 397 2687 759 
Q 2956 1122 2956 1747 
Q 2956 2369 2687 2733 
Q 2419 3097 1959 3097 
z
M 1959 3584 
Q 2709 3584 3137 3096 
Q 3566 2609 3566 1747 
Q 3566 888 3137 398 
Q 2709 -91 1959 -91 
Q 1206 -91 779 398 
Q 353 888 353 1747 
Q 353 2609 779 3096 
Q 1206 3584 1959 3584 
z
" transform="scale(0.015625)"/>
      <path id="DejaVuSans-74" d="M 1172 4494 
L 1172 3500 
L 2356 3500 
L 2356 3053 
L 1172 3053 
L 1172 1153 
Q 1172 725 1289 603 
Q 1406 481 1766 481 
L 2356 481 
L 2356 0 
L 1766 0 
Q 1100 0 847 248 
Q 594 497 594 1153 
L 594 3053 
L 172 3053 
L 172 3500 
L 594 3500 
L 594 4494 
L 1172 4494 
z
" transform="scale(0.015625)"/>
      <path id="DejaVuSans-61" d="M 2194 1759 
Q 1497 1759 1228 1600 
Q 959 1441 959 1056 
Q 959 750 1161 570 
Q 1363 391 1709 391 
Q 2188 391 2477 730 
Q 2766 1069 2766 1631 
L 2766 1759 
L 2194 1759 
z
M 3341 1997 
L 3341 0 
L 2766 0 
L 2766 531 
Q 2569 213 2275 61 
Q 1981 -91 1556 -91 
Q 1019 -91 701 211 
Q 384 513 384 1019 
Q 384 1609 779 1909 
Q 1175 2209 1959 2209 
L 2766 2209 
L 2766 2266 
Q 2766 2663 2505 2880 
Q 2244 3097 1772 3097 
Q 1472 3097 1187 3025 
Q 903 2953 641 2809 
L 641 3341 
Q 956 3463 1253 3523 
Q 1550 3584 1831 3584 
Q 2591 3584 2966 3190 
Q 3341 2797 3341 1997 
z
" transform="scale(0.015625)"/>
      <path id="DejaVuSans-6c" d="M 603 4863 
L 1178 4863 
L 1178 0 
L 603 0 
L 603 4863 
z
" transform="scale(0.015625)"/>
      <path id="DejaVuSans-20" transform="scale(0.015625)"/>
      <path id="DejaVuSans-43" d="M 4122 4306 
L 4122 3641 
Q 3803 3938 3442 4084 
Q 3081 4231 2675 4231 
Q 1875 4231 1450 3742 
Q 1025 3253 1025 2328 
Q 1025 1406 1450 917 
Q 1875 428 2675 428 
Q 3081 428 3442 575 
Q 3803 722 4122 1019 
L 4122 359 
Q 3791 134 3420 21 
Q 3050 -91 2638 -91 
Q 1578 -91 968 557 
Q 359 1206 359 2328 
Q 359 3453 968 4101 
Q 1578 4750 2638 4750 
Q 3056 4750 3426 4639 
Q 3797 4528 4122 4306 
z
" transform="scale(0.015625)"/>
      <path id="DejaVuSans-75" d="M 544 1381 
L 544 3500 
L 1119 3500 
L 1119 1403 
Q 1119 906 1312 657 
Q 1506 409 1894 409 
Q 2359 409 2629 706 
Q 2900 1003 2900 1516 
L 2900 3500 
L 3475 3500 
L 3475 0 
L 2900 0 
L 2900 538 
Q 2691 219 2414 64 
Q 2138 -91 1772 -91 
Q 1169 -91 856 284 
Q 544 659 544 1381 
z
M 1991 3584 
L 1991 3584 
z
" transform="scale(0.015625)"/>
      <path id="DejaVuSans-73" d="M 2834 3397 
L 2834 2853 
Q 2591 2978 2328 3040 
Q 2066 3103 1784 3103 
Q 1356 3103 1142 2972 
Q 928 2841 928 2578 
Q 928 2378 1081 2264 
Q 1234 2150 1697 2047 
L 1894 2003 
Q 2506 1872 2764 1633 
Q 3022 1394 3022 966 
Q 3022 478 2636 193 
Q 2250 -91 1575 -91 
Q 1294 -91 989 -36 
Q 684 19 347 128 
L 347 722 
Q 666 556 975 473 
Q 1284 391 1588 391 
Q 1994 391 2212 530 
Q 2431 669 2431 922 
Q 2431 1156 2273 1281 
Q 2116 1406 1581 1522 
L 1381 1569 
Q 847 1681 609 1914 
Q 372 2147 372 2553 
Q 372 3047 722 3315 
Q 1072 3584 1716 3584 
Q 2034 3584 2315 3537 
Q 2597 3491 2834 3397 
z
" transform="scale(0.015625)"/>
      <path id="DejaVuSans-3a" d="M 750 794 
L 1409 794 
L 1409 0 
L 750 0 
L 750 794 
z
M 750 3309 
L 1409 3309 
L 1409 2516 
L 750 2516 
L 750 3309 
z
" transform="scale(0.015625)"/>
      <path id="DejaVuSans-31" d="M 794 531 
L 1825 531 
L 1825 4091 
L 703 3866 
L 703 4441 
L 1819 4666 
L 2450 4666 
L 2450 531 
L 3481 531 
L 3481 0 
L 794 0 
L 794 531 
z
" transform="scale(0.015625)"/>
      <path id="DejaVuSans-30" d="M 2034 4250 
Q 1547 4250 1301 3770 
Q 1056 3291 1056 2328 
Q 1056 1369 1301 889 
Q 1547 409 2034 409 
Q 2525 409 2770 889 
Q 3016 1369 3016 2328 
Q 3016 3291 2770 3770 
Q 2525 4250 2034 4250 
z
M 2034 4750 
Q 2819 4750 3233 4129 
Q 3647 3509 3647 2328 
Q 3647 1150 3233 529 
Q 2819 -91 2034 -91 
Q 1250 -91 836 529 
Q 422 1150 422 2328 
Q 422 3509 836 4129 
Q 1250 4750 2034 4750 
z
" transform="scale(0.015625)"/>
     </defs>
     <use xlink:href="#DejaVuSans-54"/>
     <use xlink:href="#DejaVuSans-6f" x="44.083984"/>
     <use xlink:href="#DejaVuSans-74" x="105.265625"/>
     <use xlink:href="#DejaVuSans-61" x="144.474609"/>
     <use xlink:href="#DejaVuSans-6c" x="205.753906"/>
     <use xlink:href="#DejaVuSans-20" x="233.537109"/>
     <use xlink:href="#DejaVuSans-43" x="265.324219"/>
     <use xlink:href="#DejaVuSans-75" x="335.148438"/>
     <use xlink:href="#DejaVuSans-74" x="398.527344"/>
     <use xlink:href="#DejaVuSans-73" x="437.736328"/>
     <use xlink:href="#DejaVuSans-3a" x="489.835938"/>
     <use xlink:href="#DejaVuSans-20" x="523.527344"/>
     <use xlink:href="#DejaVuSans-31" x="555.314453"/>
     <use xlink:href="#DejaVuSans-30" x="618.9375"/>
    </g>
    <!-- Runtime (s): 0.104 -->
    <g transform="translate(277.19385 73.10899) scale(0.14 -0.14)">
     <defs>
      <path id="DejaVuSans-52" d="M 2841 2188 
Q 3044 2119 3236 1894 
Q 3428 1669 3622 1275 
L 4263 0 
L 3584 0 
L 2988 1197 
Q 2756 1666 2539 1819 
Q 2322 1972 1947 1972 
L 1259 1972 
L 1259 0 
L 628 0 
L 628 4666 
L 2053 4666 
Q 2853 4666 3247 4331 
Q 3641 3997 3641 3322 
Q 3641 2881 3436 2590 
Q 3231 2300 2841 2188 
z
M 1259 4147 
L 1259 2491 
L 2053 2491 
Q 2509 2491 2742 2702 
Q 2975 2913 2975 3322 
Q 2975 3731 2742 3939 
Q 2509 4147 2053 4147 
L 1259 4147 
z
" transform="scale(0.015625)"/>
      <path id="DejaVuSans-6e" d="M 3513 2113 
L 3513 0 
L 2938 0 
L 2938 2094 
Q 2938 2591 2744 2837 
Q 2550 3084 2163 3084 
Q 1697 3084 1428 2787 
Q 1159 2491 1159 1978 
L 1159 0 
L 581 0 
L 581 3500 
L 1159 3500 
L 1159 2956 
Q 1366 3272 1645 3428 
Q 1925 3584 2291 3584 
Q 2894 3584 3203 3211 
Q 3513 2838 3513 2113 
z
" transform="scale(0.015625)"/>
      <path id="DejaVuSans-69" d="M 603 3500 
L 1178 3500 
L 1178 0 
L 603 0 
L 603 3500 
z
M 603 4863 
L 1178 4863 
L 1178 4134 
L 603 4134 
L 603 4863 
z
" transform="scale(0.015625)"/>
      <path id="DejaVuSans-6d" d="M 3328 2828 
Q 3544 3216 3844 3400 
Q 4144 3584 4550 3584 
Q 5097 3584 5394 3201 
Q 5691 2819 5691 2113 
L 5691 0 
L 5113 0 
L 5113 2094 
Q 5113 2597 4934 2840 
Q 4756 3084 4391 3084 
Q 3944 3084 3684 2787 
Q 3425 2491 3425 1978 
L 3425 0 
L 2847 0 
L 2847 2094 
Q 2847 2600 2669 2842 
Q 2491 3084 2119 3084 
Q 1678 3084 1418 2786 
Q 1159 2488 1159 1978 
L 1159 0 
L 581 0 
L 581 3500 
L 1159 3500 
L 1159 2956 
Q 1356 3278 1631 3431 
Q 1906 3584 2284 3584 
Q 2666 3584 2933 3390 
Q 3200 3197 3328 2828 
z
" transform="scale(0.015625)"/>
      <path id="DejaVuSans-65" d="M 3597 1894 
L 3597 1613 
L 953 1613 
Q 991 1019 1311 708 
Q 1631 397 2203 397 
Q 2534 397 2845 478 
Q 3156 559 3463 722 
L 3463 178 
Q 3153 47 2828 -22 
Q 2503 -91 2169 -91 
Q 1331 -91 842 396 
Q 353 884 353 1716 
Q 353 2575 817 3079 
Q 1281 3584 2069 3584 
Q 2775 3584 3186 3129 
Q 3597 2675 3597 1894 
z
M 3022 2063 
Q 3016 2534 2758 2815 
Q 2500 3097 2075 3097 
Q 1594 3097 1305 2825 
Q 1016 2553 972 2059 
L 3022 2063 
z
" transform="scale(0.015625)"/>
      <path id="DejaVuSans-28" d="M 1984 4856 
Q 1566 4138 1362 3434 
Q 1159 2731 1159 2009 
Q 1159 1288 1364 580 
Q 1569 -128 1984 -844 
L 1484 -844 
Q 1016 -109 783 600 
Q 550 1309 550 2009 
Q 550 2706 781 3412 
Q 1013 4119 1484 4856 
L 1984 4856 
z
" transform="scale(0.015625)"/>
      <path id="DejaVuSans-29" d="M 513 4856 
L 1013 4856 
Q 1481 4119 1714 3412 
Q 1947 2706 1947 2009 
Q 1947 1309 1714 600 
Q 1481 -109 1013 -844 
L 513 -844 
Q 928 -128 1133 580 
Q 1338 1288 1338 2009 
Q 1338 2731 1133 3434 
Q 928 4138 513 4856 
z
" transform="scale(0.015625)"/>
      <path id="DejaVuSans-2e" d="M 684 794 
L 1344 794 
L 1344 0 
L 684 0 
L 684 794 
z
" transform="scale(0.015625)"/>
      <path id="DejaVuSans-34" d="M 2419 4116 
L 825 1625 
L 2419 1625 
L 2419 4116 
z
M 2253 4666 
L 3047 4666 
L 3047 1625 
L 3713 1625 
L 3713 1100 
L 3047 1100 
L 3047 0 
L 2419 0 
L 2419 1100 
L 313 1100 
L 313 1709 
L 2253 4666 
z
" transform="scale(0.015625)"/>
     </defs>
     <use xlink:href="#DejaVuSans-52"/>
     <use xlink:href="#DejaVuSans-75" x="64.982422"/>
     <use xlink:href="#DejaVuSans-6e" x="128.361328"/>
     <use xlink:href="#DejaVuSans-74" x="191.740234"/>
     <use xlink:href="#DejaVuSans-69" x="230.949219"/>
     <use xlink:href="#DejaVuSans-6d" x="258.732422"/>
     <use xlink:href="#DejaVuSans-65" x="356.144531"/>
     <use xlink:href="#DejaVuSans-20" x="417.667969"/>
     <use xlink:href="#DejaVuSans-28" x="449.455078"/>
     <use xlink:href="#DejaVuSans-73" x="488.46875"/>
     <use xlink:href="#DejaVuSans-29" x="540.568359"/>
     <use xlink:href="#DejaVuSans-3a" x="579.582031"/>
     <use xlink:href="#DejaVuSans-20" x="613.273438"/>
     <use xlink:href="#DejaVuSans-30" x="645.060547"/>
     <use xlink:href="#DejaVuSans-2e" x="708.683594"/>
     <use xlink:href="#DejaVuSans-31" x="740.470703"/>
     <use xlink:href="#DejaVuSans-30" x="804.09375"/>
     <use xlink:href="#DejaVuSans-34" x="867.716797"/>
    </g>
   </g>
   <g id="text_2">
    <!-- Weightless, 60 vertices, 4.915% density -->
    <g transform="translate(77.976406 35.472) scale(0.14 -0.14)">
     <defs>
      <path id="DejaVuSans-Bold-57" d="M 191 4666 
L 1344 4666 
L 2150 1275 
L 2950 4666 
L 4109 4666 
L 4909 1275 
L 5716 4666 
L 6859 4666 
L 5759 0 
L 4372 0 
L 3525 3547 
L 2688 0 
L 1300 0 
L 191 4666 
z
" transform="scale(0.015625)"/>
      <path id="DejaVuSans-Bold-65" d="M 4031 1759 
L 4031 1441 
L 1416 1441 
Q 1456 1047 1700 850 
Q 1944 653 2381 653 
Q 2734 653 3104 758 
Q 3475 863 3866 1075 
L 3866 213 
Q 3469 63 3072 -14 
Q 2675 -91 2278 -91 
Q 1328 -91 801 392 
Q 275 875 275 1747 
Q 275 2603 792 3093 
Q 1309 3584 2216 3584 
Q 3041 3584 3536 3087 
Q 4031 2591 4031 1759 
z
M 2881 2131 
Q 2881 2450 2695 2645 
Q 2509 2841 2209 2841 
Q 1884 2841 1681 2658 
Q 1478 2475 1428 2131 
L 2881 2131 
z
" transform="scale(0.015625)"/>
      <path id="DejaVuSans-Bold-69" d="M 538 3500 
L 1656 3500 
L 1656 0 
L 538 0 
L 538 3500 
z
M 538 4863 
L 1656 4863 
L 1656 3950 
L 538 3950 
L 538 4863 
z
" transform="scale(0.015625)"/>
      <path id="DejaVuSans-Bold-67" d="M 2919 594 
Q 2688 288 2409 144 
Q 2131 0 1766 0 
Q 1125 0 706 504 
Q 288 1009 288 1791 
Q 288 2575 706 3076 
Q 1125 3578 1766 3578 
Q 2131 3578 2409 3434 
Q 2688 3291 2919 2981 
L 2919 3500 
L 4044 3500 
L 4044 353 
Q 4044 -491 3511 -936 
Q 2978 -1381 1966 -1381 
Q 1638 -1381 1331 -1331 
Q 1025 -1281 716 -1178 
L 716 -306 
Q 1009 -475 1290 -558 
Q 1572 -641 1856 -641 
Q 2406 -641 2662 -400 
Q 2919 -159 2919 353 
L 2919 594 
z
M 2181 2772 
Q 1834 2772 1640 2515 
Q 1447 2259 1447 1791 
Q 1447 1309 1634 1061 
Q 1822 813 2181 813 
Q 2531 813 2725 1069 
Q 2919 1325 2919 1791 
Q 2919 2259 2725 2515 
Q 2531 2772 2181 2772 
z
" transform="scale(0.015625)"/>
      <path id="DejaVuSans-Bold-68" d="M 4056 2131 
L 4056 0 
L 2931 0 
L 2931 347 
L 2931 1625 
Q 2931 2084 2911 2256 
Q 2891 2428 2841 2509 
Q 2775 2619 2662 2680 
Q 2550 2741 2406 2741 
Q 2056 2741 1856 2470 
Q 1656 2200 1656 1722 
L 1656 0 
L 538 0 
L 538 4863 
L 1656 4863 
L 1656 2988 
Q 1909 3294 2193 3439 
Q 2478 3584 2822 3584 
Q 3428 3584 3742 3212 
Q 4056 2841 4056 2131 
z
" transform="scale(0.015625)"/>
      <path id="DejaVuSans-Bold-74" d="M 1759 4494 
L 1759 3500 
L 2913 3500 
L 2913 2700 
L 1759 2700 
L 1759 1216 
Q 1759 972 1856 886 
Q 1953 800 2241 800 
L 2816 800 
L 2816 0 
L 1856 0 
Q 1194 0 917 276 
Q 641 553 641 1216 
L 641 2700 
L 84 2700 
L 84 3500 
L 641 3500 
L 641 4494 
L 1759 4494 
z
" transform="scale(0.015625)"/>
      <path id="DejaVuSans-Bold-6c" d="M 538 4863 
L 1656 4863 
L 1656 0 
L 538 0 
L 538 4863 
z
" transform="scale(0.015625)"/>
      <path id="DejaVuSans-Bold-73" d="M 3272 3391 
L 3272 2541 
Q 2913 2691 2578 2766 
Q 2244 2841 1947 2841 
Q 1628 2841 1473 2761 
Q 1319 2681 1319 2516 
Q 1319 2381 1436 2309 
Q 1553 2238 1856 2203 
L 2053 2175 
Q 2913 2066 3209 1816 
Q 3506 1566 3506 1031 
Q 3506 472 3093 190 
Q 2681 -91 1863 -91 
Q 1516 -91 1145 -36 
Q 775 19 384 128 
L 384 978 
Q 719 816 1070 734 
Q 1422 653 1784 653 
Q 2113 653 2278 743 
Q 2444 834 2444 1013 
Q 2444 1163 2330 1236 
Q 2216 1309 1875 1350 
L 1678 1375 
Q 931 1469 631 1722 
Q 331 1975 331 2491 
Q 331 3047 712 3315 
Q 1094 3584 1881 3584 
Q 2191 3584 2531 3537 
Q 2872 3491 3272 3391 
z
" transform="scale(0.015625)"/>
      <path id="DejaVuSans-Bold-2c" d="M 653 1209 
L 1778 1209 
L 1778 256 
L 1006 -909 
L 341 -909 
L 653 256 
L 653 1209 
z
" transform="scale(0.015625)"/>
      <path id="DejaVuSans-Bold-20" transform="scale(0.015625)"/>
      <path id="DejaVuSans-Bold-36" d="M 2316 2303 
Q 2000 2303 1842 2098 
Q 1684 1894 1684 1484 
Q 1684 1075 1842 870 
Q 2000 666 2316 666 
Q 2634 666 2792 870 
Q 2950 1075 2950 1484 
Q 2950 1894 2792 2098 
Q 2634 2303 2316 2303 
z
M 3803 4544 
L 3803 3681 
Q 3506 3822 3243 3889 
Q 2981 3956 2731 3956 
Q 2194 3956 1894 3657 
Q 1594 3359 1544 2772 
Q 1750 2925 1990 3001 
Q 2231 3078 2516 3078 
Q 3231 3078 3670 2659 
Q 4109 2241 4109 1563 
Q 4109 813 3618 361 
Q 3128 -91 2303 -91 
Q 1394 -91 895 523 
Q 397 1138 397 2266 
Q 397 3422 980 4083 
Q 1563 4744 2578 4744 
Q 2900 4744 3203 4694 
Q 3506 4644 3803 4544 
z
" transform="scale(0.015625)"/>
      <path id="DejaVuSans-Bold-30" d="M 2944 2338 
Q 2944 3213 2780 3570 
Q 2616 3928 2228 3928 
Q 1841 3928 1675 3570 
Q 1509 3213 1509 2338 
Q 1509 1453 1675 1090 
Q 1841 728 2228 728 
Q 2613 728 2778 1090 
Q 2944 1453 2944 2338 
z
M 4147 2328 
Q 4147 1169 3647 539 
Q 3147 -91 2228 -91 
Q 1306 -91 806 539 
Q 306 1169 306 2328 
Q 306 3491 806 4120 
Q 1306 4750 2228 4750 
Q 3147 4750 3647 4120 
Q 4147 3491 4147 2328 
z
" transform="scale(0.015625)"/>
      <path id="DejaVuSans-Bold-76" d="M 97 3500 
L 1216 3500 
L 2088 1081 
L 2956 3500 
L 4078 3500 
L 2700 0 
L 1472 0 
L 97 3500 
z
" transform="scale(0.015625)"/>
      <path id="DejaVuSans-Bold-72" d="M 3138 2547 
Q 2991 2616 2845 2648 
Q 2700 2681 2553 2681 
Q 2122 2681 1889 2404 
Q 1656 2128 1656 1613 
L 1656 0 
L 538 0 
L 538 3500 
L 1656 3500 
L 1656 2925 
Q 1872 3269 2151 3426 
Q 2431 3584 2822 3584 
Q 2878 3584 2943 3579 
Q 3009 3575 3134 3559 
L 3138 2547 
z
" transform="scale(0.015625)"/>
      <path id="DejaVuSans-Bold-63" d="M 3366 3391 
L 3366 2478 
Q 3138 2634 2908 2709 
Q 2678 2784 2431 2784 
Q 1963 2784 1702 2511 
Q 1441 2238 1441 1747 
Q 1441 1256 1702 982 
Q 1963 709 2431 709 
Q 2694 709 2930 787 
Q 3166 866 3366 1019 
L 3366 103 
Q 3103 6 2833 -42 
Q 2563 -91 2291 -91 
Q 1344 -91 809 395 
Q 275 881 275 1747 
Q 275 2613 809 3098 
Q 1344 3584 2291 3584 
Q 2566 3584 2833 3536 
Q 3100 3488 3366 3391 
z
" transform="scale(0.015625)"/>
      <path id="DejaVuSans-Bold-34" d="M 2356 3675 
L 1038 1722 
L 2356 1722 
L 2356 3675 
z
M 2156 4666 
L 3494 4666 
L 3494 1722 
L 4159 1722 
L 4159 850 
L 3494 850 
L 3494 0 
L 2356 0 
L 2356 850 
L 288 850 
L 288 1881 
L 2156 4666 
z
" transform="scale(0.015625)"/>
      <path id="DejaVuSans-Bold-2e" d="M 653 1209 
L 1778 1209 
L 1778 0 
L 653 0 
L 653 1209 
z
" transform="scale(0.015625)"/>
      <path id="DejaVuSans-Bold-39" d="M 641 103 
L 641 966 
Q 928 831 1190 764 
Q 1453 697 1709 697 
Q 2247 697 2547 995 
Q 2847 1294 2900 1881 
Q 2688 1725 2447 1647 
Q 2206 1569 1925 1569 
Q 1209 1569 770 1986 
Q 331 2403 331 3084 
Q 331 3838 820 4291 
Q 1309 4744 2131 4744 
Q 3044 4744 3544 4128 
Q 4044 3513 4044 2388 
Q 4044 1231 3459 570 
Q 2875 -91 1856 -91 
Q 1528 -91 1228 -42 
Q 928 6 641 103 
z
M 2125 2350 
Q 2441 2350 2600 2554 
Q 2759 2759 2759 3169 
Q 2759 3575 2600 3781 
Q 2441 3988 2125 3988 
Q 1809 3988 1650 3781 
Q 1491 3575 1491 3169 
Q 1491 2759 1650 2554 
Q 1809 2350 2125 2350 
z
" transform="scale(0.015625)"/>
      <path id="DejaVuSans-Bold-31" d="M 750 831 
L 1813 831 
L 1813 3847 
L 722 3622 
L 722 4441 
L 1806 4666 
L 2950 4666 
L 2950 831 
L 4013 831 
L 4013 0 
L 750 0 
L 750 831 
z
" transform="scale(0.015625)"/>
      <path id="DejaVuSans-Bold-35" d="M 678 4666 
L 3669 4666 
L 3669 3781 
L 1638 3781 
L 1638 3059 
Q 1775 3097 1914 3117 
Q 2053 3138 2203 3138 
Q 3056 3138 3531 2711 
Q 4006 2284 4006 1522 
Q 4006 766 3489 337 
Q 2972 -91 2053 -91 
Q 1656 -91 1267 -14 
Q 878 63 494 219 
L 494 1166 
Q 875 947 1217 837 
Q 1559 728 1863 728 
Q 2300 728 2551 942 
Q 2803 1156 2803 1522 
Q 2803 1891 2551 2103 
Q 2300 2316 1863 2316 
Q 1603 2316 1309 2248 
Q 1016 2181 678 2041 
L 678 4666 
z
" transform="scale(0.015625)"/>
      <path id="DejaVuSans-Bold-25" d="M 4959 1925 
Q 4738 1925 4616 1733 
Q 4494 1541 4494 1184 
Q 4494 825 4614 633 
Q 4734 441 4959 441 
Q 5184 441 5303 633 
Q 5422 825 5422 1184 
Q 5422 1541 5301 1733 
Q 5181 1925 4959 1925 
z
M 4959 2450 
Q 5541 2450 5875 2112 
Q 6209 1775 6209 1184 
Q 6209 594 5875 251 
Q 5541 -91 4959 -91 
Q 4378 -91 4042 251 
Q 3706 594 3706 1184 
Q 3706 1772 4042 2111 
Q 4378 2450 4959 2450 
z
M 2094 -91 
L 1403 -91 
L 4319 4750 
L 5013 4750 
L 2094 -91 
z
M 1453 4750 
Q 2034 4750 2367 4411 
Q 2700 4072 2700 3481 
Q 2700 2891 2367 2550 
Q 2034 2209 1453 2209 
Q 872 2209 539 2550 
Q 206 2891 206 3481 
Q 206 4072 539 4411 
Q 872 4750 1453 4750 
z
M 1453 4225 
Q 1228 4225 1106 4031 
Q 984 3838 984 3481 
Q 984 3122 1106 2926 
Q 1228 2731 1453 2731 
Q 1678 2731 1798 2926 
Q 1919 3122 1919 3481 
Q 1919 3838 1797 4031 
Q 1675 4225 1453 4225 
z
" transform="scale(0.015625)"/>
      <path id="DejaVuSans-Bold-64" d="M 2919 2988 
L 2919 4863 
L 4044 4863 
L 4044 0 
L 2919 0 
L 2919 506 
Q 2688 197 2409 53 
Q 2131 -91 1766 -91 
Q 1119 -91 703 423 
Q 288 938 288 1747 
Q 288 2556 703 3070 
Q 1119 3584 1766 3584 
Q 2128 3584 2408 3439 
Q 2688 3294 2919 2988 
z
M 2181 722 
Q 2541 722 2730 984 
Q 2919 1247 2919 1747 
Q 2919 2247 2730 2509 
Q 2541 2772 2181 2772 
Q 1825 2772 1636 2509 
Q 1447 2247 1447 1747 
Q 1447 1247 1636 984 
Q 1825 722 2181 722 
z
" transform="scale(0.015625)"/>
      <path id="DejaVuSans-Bold-6e" d="M 4056 2131 
L 4056 0 
L 2931 0 
L 2931 347 
L 2931 1631 
Q 2931 2084 2911 2256 
Q 2891 2428 2841 2509 
Q 2775 2619 2662 2680 
Q 2550 2741 2406 2741 
Q 2056 2741 1856 2470 
Q 1656 2200 1656 1722 
L 1656 0 
L 538 0 
L 538 3500 
L 1656 3500 
L 1656 2988 
Q 1909 3294 2193 3439 
Q 2478 3584 2822 3584 
Q 3428 3584 3742 3212 
Q 4056 2841 4056 2131 
z
" transform="scale(0.015625)"/>
      <path id="DejaVuSans-Bold-79" d="M 78 3500 
L 1197 3500 
L 2138 1125 
L 2938 3500 
L 4056 3500 
L 2584 -331 
Q 2363 -916 2067 -1148 
Q 1772 -1381 1288 -1381 
L 641 -1381 
L 641 -647 
L 991 -647 
Q 1275 -647 1404 -556 
Q 1534 -466 1606 -231 
L 1638 -134 
L 78 3500 
z
" transform="scale(0.015625)"/>
     </defs>
     <use xlink:href="#DejaVuSans-Bold-57"/>
     <use xlink:href="#DejaVuSans-Bold-65" x="106.677734"/>
     <use xlink:href="#DejaVuSans-Bold-69" x="174.5"/>
     <use xlink:href="#DejaVuSans-Bold-67" x="208.777344"/>
     <use xlink:href="#DejaVuSans-Bold-68" x="280.359375"/>
     <use xlink:href="#DejaVuSans-Bold-74" x="351.550781"/>
     <use xlink:href="#DejaVuSans-Bold-6c" x="399.353516"/>
     <use xlink:href="#DejaVuSans-Bold-65" x="433.630859"/>
     <use xlink:href="#DejaVuSans-Bold-73" x="501.453125"/>
     <use xlink:href="#DejaVuSans-Bold-73" x="560.974609"/>
     <use xlink:href="#DejaVuSans-Bold-2c" x="620.496094"/>
     <use xlink:href="#DejaVuSans-Bold-20" x="658.484375"/>
     <use xlink:href="#DejaVuSans-Bold-36" x="693.298828"/>
     <use xlink:href="#DejaVuSans-Bold-30" x="762.878906"/>
     <use xlink:href="#DejaVuSans-Bold-20" x="832.458984"/>
     <use xlink:href="#DejaVuSans-Bold-76" x="867.273438"/>
     <use xlink:href="#DejaVuSans-Bold-65" x="932.458984"/>
     <use xlink:href="#DejaVuSans-Bold-72" x="1000.28125"/>
     <use xlink:href="#DejaVuSans-Bold-74" x="1049.597656"/>
     <use xlink:href="#DejaVuSans-Bold-69" x="1097.400391"/>
     <use xlink:href="#DejaVuSans-Bold-63" x="1131.677734"/>
     <use xlink:href="#DejaVuSans-Bold-65" x="1190.955078"/>
     <use xlink:href="#DejaVuSans-Bold-73" x="1258.777344"/>
     <use xlink:href="#DejaVuSans-Bold-2c" x="1318.298828"/>
     <use xlink:href="#DejaVuSans-Bold-20" x="1356.287109"/>
     <use xlink:href="#DejaVuSans-Bold-34" x="1391.101562"/>
     <use xlink:href="#DejaVuSans-Bold-2e" x="1460.681641"/>
     <use xlink:href="#DejaVuSans-Bold-39" x="1498.669922"/>
     <use xlink:href="#DejaVuSans-Bold-31" x="1568.25"/>
     <use xlink:href="#DejaVuSans-Bold-35" x="1637.830078"/>
     <use xlink:href="#DejaVuSans-Bold-25" x="1707.410156"/>
     <use xlink:href="#DejaVuSans-Bold-20" x="1807.605469"/>
     <use xlink:href="#DejaVuSans-Bold-64" x="1842.419922"/>
     <use xlink:href="#DejaVuSans-Bold-65" x="1914.001953"/>
     <use xlink:href="#DejaVuSans-Bold-6e" x="1981.824219"/>
     <use xlink:href="#DejaVuSans-Bold-73" x="2053.015625"/>
     <use xlink:href="#DejaVuSans-Bold-69" x="2112.537109"/>
     <use xlink:href="#DejaVuSans-Bold-74" x="2146.814453"/>
     <use xlink:href="#DejaVuSans-Bold-79" x="2194.617188"/>
    </g>
   </g>
   <g id="legend_1">
    <g id="patch_4">
     <path d="M 7.914062 93.506375 
L 50.6 93.506375 
Q 52.6 93.506375 52.6 91.506375 
L 52.6 48.472 
Q 52.6 46.472 50.6 46.472 
L 7.914062 46.472 
Q 5.914062 46.472 5.914062 48.472 
L 5.914062 91.506375 
Q 5.914062 93.506375 7.914062 93.506375 
z
" style="fill: #ffffff; opacity: 0.8; stroke: #cccccc; stroke-linejoin: miter"/>
    </g>
    <g id="text_3">
     <!-- Cluster: -->
     <g transform="translate(9.914062 58.070438) scale(0.1 -0.1)">
      <defs>
       <path id="DejaVuSans-72" d="M 2631 2963 
Q 2534 3019 2420 3045 
Q 2306 3072 2169 3072 
Q 1681 3072 1420 2755 
Q 1159 2438 1159 1844 
L 1159 0 
L 581 0 
L 581 3500 
L 1159 3500 
L 1159 2956 
Q 1341 3275 1631 3429 
Q 1922 3584 2338 3584 
Q 2397 3584 2469 3576 
Q 2541 3569 2628 3553 
L 2631 2963 
z
" transform="scale(0.015625)"/>
      </defs>
      <use xlink:href="#DejaVuSans-43"/>
      <use xlink:href="#DejaVuSans-6c" x="69.824219"/>
      <use xlink:href="#DejaVuSans-75" x="97.607422"/>
      <use xlink:href="#DejaVuSans-73" x="160.986328"/>
      <use xlink:href="#DejaVuSans-74" x="213.085938"/>
      <use xlink:href="#DejaVuSans-65" x="252.294922"/>
      <use xlink:href="#DejaVuSans-72" x="313.818359"/>
      <use xlink:href="#DejaVuSans-3a" x="353.181641"/>
     </g>
    </g>
    <g id="PathCollection_3">
     <defs>
      <path id="mf1657f2505" d="M 0 5 
C 1.326016 5 2.597899 4.473168 3.535534 3.535534 
C 4.473168 2.597899 5 1.326016 5 0 
C 5 -1.326016 4.473168 -2.597899 3.535534 -3.535534 
C 2.597899 -4.473168 1.326016 -5 0 -5 
C -1.326016 -5 -2.597899 -4.473168 -3.535534 -3.535534 
C -4.473168 -2.597899 -5 -1.326016 -5 0 
C -5 1.326016 -4.473168 2.597899 -3.535534 3.535534 
C -2.597899 4.473168 -1.326016 5 0 5 
z
" style="stroke: #000000"/>
     </defs>
     <g>
      <use xlink:href="#mf1657f2505" x="22.075781" y="70.123563" style="fill: #add8e6; stroke: #000000"/>
     </g>
    </g>
    <g id="text_4">
     <!-- 0 -->
     <g transform="translate(40.075781 72.748563) scale(0.1 -0.1)">
      <use xlink:href="#DejaVuSans-30"/>
     </g>
    </g>
    <g id="PathCollection_4">
     <defs>
      <path id="m7a55fbbb70" d="M 0 5 
C 1.326016 5 2.597899 4.473168 3.535534 3.535534 
C 4.473168 2.597899 5 1.326016 5 0 
C 5 -1.326016 4.473168 -2.597899 3.535534 -3.535534 
C 2.597899 -4.473168 1.326016 -5 0 -5 
C -1.326016 -5 -2.597899 -4.473168 -3.535534 -3.535534 
C -4.473168 -2.597899 -5 -1.326016 -5 0 
C -5 1.326016 -4.473168 2.597899 -3.535534 3.535534 
C -2.597899 4.473168 -1.326016 5 0 5 
z
" style="stroke: #000000"/>
     </defs>
     <g>
      <use xlink:href="#m7a55fbbb70" x="22.075781" y="84.801688" style="fill: #9acd32; stroke: #000000"/>
     </g>
    </g>
    <g id="text_5">
     <!-- 1 -->
     <g transform="translate(40.075781 87.426688) scale(0.1 -0.1)">
      <use xlink:href="#DejaVuSans-31"/>
     </g>
    </g>
   </g>
  </g>
 </g>
 <defs>
  <clipPath id="p079432cace">
   <rect x="57.6" y="41.472" width="357.12" height="266.112"/>
  </clipPath>
 </defs>
</svg>
