<?xml version="1.0" encoding="utf-8" standalone="no"?>
<!DOCTYPE svg PUBLIC "-//W3C//DTD SVG 1.1//EN"
  "http://www.w3.org/Graphics/SVG/1.1/DTD/svg11.dtd">
<svg xmlns:xlink="http://www.w3.org/1999/xlink" width="460.8pt" height="345.6pt" viewBox="0 0 460.8 345.6" xmlns="http://www.w3.org/2000/svg" version="1.1">
 <metadata>
  <rdf:RDF xmlns:dc="http://purl.org/dc/elements/1.1/" xmlns:cc="http://creativecommons.org/ns#" xmlns:rdf="http://www.w3.org/1999/02/22-rdf-syntax-ns#">
   <cc:Work>
    <dc:type rdf:resource="http://purl.org/dc/dcmitype/StillImage"/>
    <dc:date>2024-01-12T17:13:24.402228</dc:date>
    <dc:format>image/svg+xml</dc:format>
    <dc:creator>
     <cc:Agent>
      <dc:title>Matplotlib v3.8.2, https://matplotlib.org/</dc:title>
     </cc:Agent>
    </dc:creator>
   </cc:Work>
  </rdf:RDF>
 </metadata>
 <defs>
  <style type="text/css">*{stroke-linejoin: round; stroke-linecap: butt}</style>
 </defs>
 <g id="figure_1">
  <g id="patch_1">
   <path d="M 0 345.6 
L 460.8 345.6 
L 460.8 0 
L 0 0 
z
" style="fill: #ffffff"/>
  </g>
  <g id="axes_1">
   <g id="patch_2">
    <path d="M 57.6 307.584 
L 414.72 307.584 
L 414.72 41.472 
L 57.6 41.472 
z
" style="fill: #ffffff"/>
   </g>
   <g id="EdgeCollection_1">
    <path d="M 294.44014 208.082528 
L 295.971361 173.469683 
" clip-path="url(#pe964482cd9)" style="fill: #add8e6; stroke: #add8e6; stroke-width: 2.5"/>
    <path d="M 112.16692 69.221622 
L 92.520381 92.730043 
" clip-path="url(#pe964482cd9)" style="fill: #9acd32; stroke: #9acd32; stroke-width: 2.5"/>
    <path d="M 290.842327 166.795882 
L 242.177711 156.114019 
" clip-path="url(#pe964482cd9)" style="fill: #add8e6; stroke: #add8e6; stroke-width: 2.5"/>
    <path d="M 203.700074 126.513012 
L 232.632537 151.352174 
" clip-path="url(#pe964482cd9)" style="fill: #d3d3d3; stroke: #d3d3d3; stroke-width: 2.5"/>
    <path d="M 235.039534 160.143586 
L 227.154318 183.399793 
" clip-path="url(#pe964482cd9)" style="fill: #add8e6; stroke: #add8e6; stroke-width: 2.5"/>
    <path d="M 229.805531 185.331705 
L 262.486334 161.088406 
" clip-path="url(#pe964482cd9)" style="fill: #add8e6; stroke: #add8e6; stroke-width: 2.5"/>
    <path d="M 124.215172 169.860408 
L 144.046852 201.333552 
" clip-path="url(#pe964482cd9)" style="fill: #9acd32; stroke: #9acd32; stroke-width: 2.5"/>
    <path d="M 247.481653 91.228843 
L 199.376339 87.804273 
" clip-path="url(#pe964482cd9)" style="fill: #9acd32; stroke: #9acd32; stroke-width: 2.5"/>
    <path d="M 222.070138 192.994894 
L 203.004144 218.199079 
" clip-path="url(#pe964482cd9)" style="fill: #add8e6; stroke: #add8e6; stroke-width: 2.5"/>
    <path d="M 152.22495 207.638899 
L 194.440023 220.933353 
" clip-path="url(#pe964482cd9)" style="fill: #d3d3d3; stroke: #d3d3d3; stroke-width: 2.5"/>
    <path d="M 93.903822 99.427779 
L 130.076005 117.678005 
" clip-path="url(#pe964482cd9)" style="fill: #9acd32; stroke: #9acd32; stroke-width: 2.5"/>
    <path d="M 122.883612 159.945176 
L 133.385881 125.417456 
" clip-path="url(#pe964482cd9)" style="fill: #9acd32; stroke: #9acd32; stroke-width: 2.5"/>
    <path d="M 189.082962 90.085845 
L 139.79367 117.483366 
" clip-path="url(#pe964482cd9)" style="fill: #9acd32; stroke: #9acd32; stroke-width: 2.5"/>
    <path d="M 257.047534 95.307959 
L 286.987809 122.37733 
" clip-path="url(#pe964482cd9)" style="fill: #d3d3d3; stroke: #d3d3d3; stroke-width: 2.5"/>
    <path d="M 295.544018 162.51607 
L 291.737992 131.524882 
" clip-path="url(#pe964482cd9)" style="fill: #add8e6; stroke: #add8e6; stroke-width: 2.5"/>
    <path d="M 270.234827 153.435157 
L 287.736363 130.442313 
" clip-path="url(#pe964482cd9)" style="fill: #add8e6; stroke: #add8e6; stroke-width: 2.5"/>
    <path d="M 120.126087 68.25799 
L 150.471514 90.554692 
" clip-path="url(#pe964482cd9)" style="fill: #9acd32; stroke: #9acd32; stroke-width: 2.5"/>
    <path d="M 194.920948 119.924647 
L 159.509778 96.817007 
" clip-path="url(#pe964482cd9)" style="fill: #9acd32; stroke: #9acd32; stroke-width: 2.5"/>
    <path d="M 138.30335 115.768245 
L 151.586776 98.198555 
" clip-path="url(#pe964482cd9)" style="fill: #9acd32; stroke: #9acd32; stroke-width: 2.5"/>
    <path d="M 299.044921 210.979406 
L 329.118844 194.86414 
" clip-path="url(#pe964482cd9)" style="fill: #add8e6; stroke: #add8e6; stroke-width: 2.5"/>
    <path d="M 300.83969 170.951133 
L 329.341446 189.290316 
" clip-path="url(#pe964482cd9)" style="fill: #add8e6; stroke: #add8e6; stroke-width: 2.5"/>
    <path d="M 377.839652 195.296299 
L 339.453631 192.645324 
" clip-path="url(#pe964482cd9)" style="fill: #d3d3d3; stroke: #d3d3d3; stroke-width: 2.5"/>
    <path d="M 253.347666 278.57298 
L 250.875148 248.380967 
" clip-path="url(#pe964482cd9)" style="fill: #add8e6; stroke: #add8e6; stroke-width: 2.5"/>
    <path d="M 289.627624 216.638232 
L 254.995681 239.83824 
" clip-path="url(#pe964482cd9)" style="fill: #add8e6; stroke: #add8e6; stroke-width: 2.5"/>
    <path d="M 204.792037 224.62963 
L 245.320235 240.855125 
" clip-path="url(#pe964482cd9)" style="fill: #add8e6; stroke: #add8e6; stroke-width: 2.5"/>
   </g>
   <g id="VertexCollection_1">
    <path d="M 253.796575 289.55463 
C 255.255192 289.55463 256.654264 288.975115 257.685662 287.943717 
C 258.71706 286.912319 259.296575 285.513247 259.296575 284.05463 
C 259.296575 282.596012 258.71706 281.19694 257.685662 280.165542 
C 256.654264 279.134144 255.255192 278.55463 253.796575 278.55463 
C 252.337958 278.55463 250.938886 279.134144 249.907488 280.165542 
C 248.87609 281.19694 248.296575 282.596012 248.296575 284.05463 
C 248.296575 285.513247 248.87609 286.912319 249.907488 287.943717 
C 250.938886 288.975115 252.337958 289.55463 253.796575 289.55463 
z
" clip-path="url(#pe964482cd9)" style="fill: #add8e6; stroke: #000000"/>
    <path d="M 252.967769 97.119394 
C 254.426386 97.119394 255.825458 96.539879 256.856856 95.508481 
C 257.888254 94.477083 258.467769 93.078011 258.467769 91.619394 
C 258.467769 90.160777 257.888254 88.761704 256.856856 87.730306 
C 255.825458 86.698908 254.426386 86.119394 252.967769 86.119394 
C 251.509152 86.119394 250.11008 86.698908 249.078682 87.730306 
C 248.047284 88.761704 247.467769 90.160777 247.467769 91.619394 
C 247.467769 93.078011 248.047284 94.477083 249.078682 95.508481 
C 250.11008 96.539879 251.509152 97.119394 252.967769 97.119394 
z
" clip-path="url(#pe964482cd9)" style="fill: #9acd32; stroke: #000000"/>
    <path d="M 115.693884 70.50137 
C 117.152501 70.50137 118.551573 69.921856 119.582971 68.890458 
C 120.614369 67.85906 121.193884 66.459988 121.193884 65.00137 
C 121.193884 63.542753 120.614369 62.143681 119.582971 61.112283 
C 118.551573 60.080885 117.152501 59.50137 115.693884 59.50137 
C 114.235267 59.50137 112.836194 60.080885 111.804796 61.112283 
C 110.773398 62.143681 110.193884 63.542753 110.193884 65.00137 
C 110.193884 66.459988 110.773398 67.85906 111.804796 68.890458 
C 112.836194 69.921856 114.235267 70.50137 115.693884 70.50137 
z
" clip-path="url(#pe964482cd9)" style="fill: #9acd32; stroke: #000000"/>
    <path d="M 294.197066 219.077154 
C 295.655683 219.077154 297.054755 218.497639 298.086153 217.466241 
C 299.117551 216.434843 299.697066 215.035771 299.697066 213.577154 
C 299.697066 212.118537 299.117551 210.719464 298.086153 209.688066 
C 297.054755 208.656668 295.655683 208.077154 294.197066 208.077154 
C 292.738449 208.077154 291.339376 208.656668 290.307978 209.688066 
C 289.27658 210.719464 288.697066 212.118537 288.697066 213.577154 
C 288.697066 215.035771 289.27658 216.434843 290.307978 217.466241 
C 291.339376 218.497639 292.738449 219.077154 294.197066 219.077154 
z
" clip-path="url(#pe964482cd9)" style="fill: #add8e6; stroke: #000000"/>
    <path d="M 296.214436 173.475057 
C 297.673053 173.475057 299.072125 172.895543 300.103523 171.864145 
C 301.134921 170.832747 301.714436 169.433674 301.714436 167.975057 
C 301.714436 166.51644 301.134921 165.117368 300.103523 164.08597 
C 299.072125 163.054572 297.673053 162.475057 296.214436 162.475057 
C 294.755818 162.475057 293.356746 163.054572 292.325348 164.08597 
C 291.29395 165.117368 290.714436 166.51644 290.714436 167.975057 
C 290.714436 169.433674 291.29395 170.832747 292.325348 171.864145 
C 293.356746 172.895543 294.755818 173.475057 296.214436 173.475057 
z
" clip-path="url(#pe964482cd9)" style="fill: #add8e6; stroke: #000000"/>
    <path d="M 199.527009 128.430342 
C 200.985626 128.430342 202.384698 127.850827 203.416096 126.819429 
C 204.447494 125.788031 205.027009 124.388959 205.027009 122.930342 
C 205.027009 121.471725 204.447494 120.072653 203.416096 119.041255 
C 202.384698 118.009857 200.985626 117.430342 199.527009 117.430342 
C 198.068391 117.430342 196.669319 118.009857 195.637921 119.041255 
C 194.606523 120.072653 194.027009 121.471725 194.027009 122.930342 
C 194.027009 124.388959 194.606523 125.788031 195.637921 126.819429 
C 196.669319 127.850827 198.068391 128.430342 199.527009 128.430342 
z
" clip-path="url(#pe964482cd9)" style="fill: #9acd32; stroke: #000000"/>
    <path d="M 88.993417 102.450295 
C 90.452034 102.450295 91.851106 101.870781 92.882504 100.839383 
C 93.913902 99.807985 94.493417 98.408912 94.493417 96.950295 
C 94.493417 95.491678 93.913902 94.092606 92.882504 93.061208 
C 91.851106 92.02981 90.452034 91.450295 88.993417 91.450295 
C 87.5348 91.450295 86.135728 92.02981 85.104329 93.061208 
C 84.072931 94.092606 83.493417 95.491678 83.493417 96.950295 
C 83.493417 98.408912 84.072931 99.807985 85.104329 100.839383 
C 86.135728 101.870781 87.5348 102.450295 88.993417 102.450295 
z
" clip-path="url(#pe964482cd9)" style="fill: #9acd32; stroke: #000000"/>
    <path d="M 236.805603 160.434844 
C 238.26422 160.434844 239.663292 159.855329 240.69469 158.823931 
C 241.726088 157.792533 242.305603 156.393461 242.305603 154.934844 
C 242.305603 153.476227 241.726088 152.077154 240.69469 151.045756 
C 239.663292 150.014358 238.26422 149.434844 236.805603 149.434844 
C 235.346986 149.434844 233.947913 150.014358 232.916515 151.045756 
C 231.885117 152.077154 231.305603 153.476227 231.305603 154.934844 
C 231.305603 156.393461 231.885117 157.792533 232.916515 158.823931 
C 233.947913 159.855329 235.346986 160.434844 236.805603 160.434844 
z
" clip-path="url(#pe964482cd9)" style="fill: #add8e6; stroke: #000000"/>
    <path d="M 225.388249 194.108536 
C 226.846866 194.108536 228.245938 193.529021 229.277336 192.497623 
C 230.308734 191.466225 230.888249 190.067153 230.888249 188.608536 
C 230.888249 187.149919 230.308734 185.750846 229.277336 184.719448 
C 228.245938 183.68805 226.846866 183.108536 225.388249 183.108536 
C 223.929632 183.108536 222.53056 183.68805 221.499162 184.719448 
C 220.467764 185.750846 219.888249 187.149919 219.888249 188.608536 
C 219.888249 190.067153 220.467764 191.466225 221.499162 192.497623 
C 222.53056 193.529021 223.929632 194.108536 225.388249 194.108536 
z
" clip-path="url(#pe964482cd9)" style="fill: #add8e6; stroke: #000000"/>
    <path d="M 121.283084 170.707145 
C 122.741701 170.707145 124.140773 170.12763 125.172171 169.096232 
C 126.203569 168.064834 126.783084 166.665762 126.783084 165.207145 
C 126.783084 163.748528 126.203569 162.349455 125.172171 161.318057 
C 124.140773 160.286659 122.741701 159.707145 121.283084 159.707145 
C 119.824467 159.707145 118.425394 160.286659 117.393996 161.318057 
C 116.362598 162.349455 115.783084 163.748528 115.783084 165.207145 
C 115.783084 166.665762 116.362598 168.064834 117.393996 169.096232 
C 118.425394 170.12763 119.824467 170.707145 121.283084 170.707145 
z
" clip-path="url(#pe964482cd9)" style="fill: #9acd32; stroke: #000000"/>
    <path d="M 266.903616 163.311575 
C 268.362233 163.311575 269.761305 162.73206 270.792703 161.700662 
C 271.824101 160.669264 272.403616 159.270192 272.403616 157.811575 
C 272.403616 156.352958 271.824101 154.953885 270.792703 153.922487 
C 269.761305 152.891089 268.362233 152.311575 266.903616 152.311575 
C 265.444999 152.311575 264.045926 152.891089 263.014528 153.922487 
C 261.98313 154.953885 261.403616 156.352958 261.403616 157.811575 
C 261.403616 159.270192 261.98313 160.669264 263.014528 161.700662 
C 264.045926 162.73206 265.444999 163.311575 266.903616 163.311575 
z
" clip-path="url(#pe964482cd9)" style="fill: #add8e6; stroke: #000000"/>
    <path d="M 146.97894 211.486815 
C 148.437558 211.486815 149.83663 210.907301 150.868028 209.875903 
C 151.899426 208.844505 152.47894 207.445432 152.47894 205.986815 
C 152.47894 204.528198 151.899426 203.129126 150.868028 202.097728 
C 149.83663 201.06633 148.437558 200.486815 146.97894 200.486815 
C 145.520323 200.486815 144.121251 201.06633 143.089853 202.097728 
C 142.058455 203.129126 141.47894 204.528198 141.47894 205.986815 
C 141.47894 207.445432 142.058455 208.844505 143.089853 209.875903 
C 144.121251 210.907301 145.520323 211.486815 146.97894 211.486815 
z
" clip-path="url(#pe964482cd9)" style="fill: #9acd32; stroke: #000000"/>
    <path d="M 193.890223 92.913722 
C 195.34884 92.913722 196.747913 92.334208 197.779311 91.30281 
C 198.810709 90.271412 199.390223 88.872339 199.390223 87.413722 
C 199.390223 85.955105 198.810709 84.556033 197.779311 83.524635 
C 196.747913 82.493237 195.34884 81.913722 193.890223 81.913722 
C 192.431606 81.913722 191.032534 82.493237 190.001136 83.524635 
C 188.969738 84.556033 188.390223 85.955105 188.390223 87.413722 
C 188.390223 88.872339 188.969738 90.271412 190.001136 91.30281 
C 191.032534 92.334208 192.431606 92.913722 193.890223 92.913722 
z
" clip-path="url(#pe964482cd9)" style="fill: #9acd32; stroke: #000000"/>
    <path d="M 199.686033 228.085437 
C 201.14465 228.085437 202.543723 227.505922 203.575121 226.474524 
C 204.606519 225.443126 205.186033 224.044054 205.186033 222.585437 
C 205.186033 221.12682 204.606519 219.727748 203.575121 218.69635 
C 202.543723 217.664952 201.14465 217.085437 199.686033 217.085437 
C 198.227416 217.085437 196.828344 217.664952 195.796946 218.69635 
C 194.765548 219.727748 194.186033 221.12682 194.186033 222.585437 
C 194.186033 224.044054 194.765548 225.443126 195.796946 226.474524 
C 196.828344 227.505922 198.227416 228.085437 199.686033 228.085437 
z
" clip-path="url(#pe964482cd9)" style="fill: #add8e6; stroke: #000000"/>
    <path d="M 134.986409 125.655488 
C 136.445026 125.655488 137.844099 125.075974 138.875497 124.044576 
C 139.906895 123.013178 140.486409 121.614105 140.486409 120.155488 
C 140.486409 118.696871 139.906895 117.297799 138.875497 116.266401 
C 137.844099 115.235003 136.445026 114.655488 134.986409 114.655488 
C 133.527792 114.655488 132.12872 115.235003 131.097322 116.266401 
C 130.065924 117.297799 129.486409 118.696871 129.486409 120.155488 
C 129.486409 121.614105 130.065924 123.013178 131.097322 124.044576 
C 132.12872 125.075974 133.527792 125.655488 134.986409 125.655488 
z
" clip-path="url(#pe964482cd9)" style="fill: #9acd32; stroke: #000000"/>
    <path d="M 383.326583 201.175232 
C 384.7852 201.175232 386.184272 200.595717 387.215671 199.564319 
C 388.247069 198.532921 388.826583 197.133849 388.826583 195.675232 
C 388.826583 194.216615 388.247069 192.817542 387.215671 191.786144 
C 386.184272 190.754746 384.7852 190.175232 383.326583 190.175232 
C 381.867966 190.175232 380.468894 190.754746 379.437496 191.786144 
C 378.406098 192.817542 377.826583 194.216615 377.826583 195.675232 
C 377.826583 197.133849 378.406098 198.532921 379.437496 199.564319 
C 380.468894 200.595717 381.867966 201.175232 383.326583 201.175232 
z
" clip-path="url(#pe964482cd9)" style="fill: #9acd32; stroke: #000000"/>
    <path d="M 291.067574 131.565895 
C 292.526191 131.565895 293.925264 130.986381 294.956662 129.954983 
C 295.98806 128.923585 296.567574 127.524512 296.567574 126.065895 
C 296.567574 124.607278 295.98806 123.208206 294.956662 122.176808 
C 293.925264 121.14541 292.526191 120.565895 291.067574 120.565895 
C 289.608957 120.565895 288.209885 121.14541 287.178487 122.176808 
C 286.147089 123.208206 285.567574 124.607278 285.567574 126.065895 
C 285.567574 127.524512 286.147089 128.923585 287.178487 129.954983 
C 288.209885 130.986381 289.608957 131.565895 291.067574 131.565895 
z
" clip-path="url(#pe964482cd9)" style="fill: #add8e6; stroke: #000000"/>
    <path d="M 154.903717 99.311312 
C 156.362334 99.311312 157.761406 98.731797 158.792804 97.700399 
C 159.824202 96.669001 160.403717 95.269929 160.403717 93.811312 
C 160.403717 92.352695 159.824202 90.953623 158.792804 89.922225 
C 157.761406 88.890827 156.362334 88.311312 154.903717 88.311312 
C 153.4451 88.311312 152.046028 88.890827 151.01463 89.922225 
C 149.983232 90.953623 149.403717 92.352695 149.403717 93.811312 
C 149.403717 95.269929 149.983232 96.669001 151.01463 97.700399 
C 152.046028 98.731797 153.4451 99.311312 154.903717 99.311312 
z
" clip-path="url(#pe964482cd9)" style="fill: #9acd32; stroke: #000000"/>
    <path d="M 333.9667 197.766392 
C 335.425317 197.766392 336.824389 197.186877 337.855787 196.155479 
C 338.887185 195.124081 339.4667 193.725009 339.4667 192.266392 
C 339.4667 190.807775 338.887185 189.408702 337.855787 188.377304 
C 336.824389 187.345906 335.425317 186.766392 333.9667 186.766392 
C 332.508083 186.766392 331.109011 187.345906 330.077613 188.377304 
C 329.046215 189.408702 328.4667 190.807775 328.4667 192.266392 
C 328.4667 193.725009 329.046215 195.124081 330.077613 196.155479 
C 331.109011 197.186877 332.508083 197.766392 333.9667 197.766392 
z
" clip-path="url(#pe964482cd9)" style="fill: #add8e6; stroke: #000000"/>
    <path d="M 250.426239 248.399318 
C 251.884856 248.399318 253.283928 247.819803 254.315326 246.788405 
C 255.346724 245.757007 255.926239 244.357935 255.926239 242.899318 
C 255.926239 241.440701 255.346724 240.041629 254.315326 239.010231 
C 253.283928 237.978833 251.884856 237.399318 250.426239 237.399318 
C 248.967622 237.399318 247.568549 237.978833 246.537151 239.010231 
C 245.505753 240.041629 244.926239 241.440701 244.926239 242.899318 
C 244.926239 244.357935 245.505753 245.757007 246.537151 246.788405 
C 247.568549 247.819803 248.967622 248.399318 250.426239 248.399318 
z
" clip-path="url(#pe964482cd9)" style="fill: #add8e6; stroke: #000000"/>
   </g>
   <g id="text_1">
    <g clip-path="url(#pe964482cd9)">
     <!-- 0 -->
     <g transform="translate(251.5697 285.986192) scale(0.07 -0.07)">
      <defs>
       <path id="DejaVuSans-30" d="M 2034 4250 
Q 1547 4250 1301 3770 
Q 1056 3291 1056 2328 
Q 1056 1369 1301 889 
Q 1547 409 2034 409 
Q 2525 409 2770 889 
Q 3016 1369 3016 2328 
Q 3016 3291 2770 3770 
Q 2525 4250 2034 4250 
z
M 2034 4750 
Q 2819 4750 3233 4129 
Q 3647 3509 3647 2328 
Q 3647 1150 3233 529 
Q 2819 -91 2034 -91 
Q 1250 -91 836 529 
Q 422 1150 422 2328 
Q 422 3509 836 4129 
Q 1250 4750 2034 4750 
z
" transform="scale(0.015625)"/>
      </defs>
      <use xlink:href="#DejaVuSans-30"/>
     </g>
    </g>
   </g>
   <g id="text_2">
    <g clip-path="url(#pe964482cd9)">
     <!-- 1 -->
     <g transform="translate(250.740894 93.550956) scale(0.07 -0.07)">
      <defs>
       <path id="DejaVuSans-31" d="M 794 531 
L 1825 531 
L 1825 4091 
L 703 3866 
L 703 4441 
L 1819 4666 
L 2450 4666 
L 2450 531 
L 3481 531 
L 3481 0 
L 794 0 
L 794 531 
z
" transform="scale(0.015625)"/>
      </defs>
      <use xlink:href="#DejaVuSans-31"/>
     </g>
    </g>
   </g>
   <g id="text_3">
    <g clip-path="url(#pe964482cd9)">
     <!-- 2 -->
     <g transform="translate(113.467009 66.932933) scale(0.07 -0.07)">
      <defs>
       <path id="DejaVuSans-32" d="M 1228 531 
L 3431 531 
L 3431 0 
L 469 0 
L 469 531 
Q 828 903 1448 1529 
Q 2069 2156 2228 2338 
Q 2531 2678 2651 2914 
Q 2772 3150 2772 3378 
Q 2772 3750 2511 3984 
Q 2250 4219 1831 4219 
Q 1534 4219 1204 4116 
Q 875 4013 500 3803 
L 500 4441 
Q 881 4594 1212 4672 
Q 1544 4750 1819 4750 
Q 2544 4750 2975 4387 
Q 3406 4025 3406 3419 
Q 3406 3131 3298 2873 
Q 3191 2616 2906 2266 
Q 2828 2175 2409 1742 
Q 1991 1309 1228 531 
z
" transform="scale(0.015625)"/>
      </defs>
      <use xlink:href="#DejaVuSans-32"/>
     </g>
    </g>
   </g>
   <g id="text_4">
    <g clip-path="url(#pe964482cd9)">
     <!-- 3 -->
     <g transform="translate(291.970191 215.508716) scale(0.07 -0.07)">
      <defs>
       <path id="DejaVuSans-33" d="M 2597 2516 
Q 3050 2419 3304 2112 
Q 3559 1806 3559 1356 
Q 3559 666 3084 287 
Q 2609 -91 1734 -91 
Q 1441 -91 1130 -33 
Q 819 25 488 141 
L 488 750 
Q 750 597 1062 519 
Q 1375 441 1716 441 
Q 2309 441 2620 675 
Q 2931 909 2931 1356 
Q 2931 1769 2642 2001 
Q 2353 2234 1838 2234 
L 1294 2234 
L 1294 2753 
L 1863 2753 
Q 2328 2753 2575 2939 
Q 2822 3125 2822 3475 
Q 2822 3834 2567 4026 
Q 2313 4219 1838 4219 
Q 1578 4219 1281 4162 
Q 984 4106 628 3988 
L 628 4550 
Q 988 4650 1302 4700 
Q 1616 4750 1894 4750 
Q 2613 4750 3031 4423 
Q 3450 4097 3450 3541 
Q 3450 3153 3228 2886 
Q 3006 2619 2597 2516 
z
" transform="scale(0.015625)"/>
      </defs>
      <use xlink:href="#DejaVuSans-33"/>
     </g>
    </g>
   </g>
   <g id="text_5">
    <g clip-path="url(#pe964482cd9)">
     <!-- 4 -->
     <g transform="translate(293.987561 169.90662) scale(0.07 -0.07)">
      <defs>
       <path id="DejaVuSans-34" d="M 2419 4116 
L 825 1625 
L 2419 1625 
L 2419 4116 
z
M 2253 4666 
L 3047 4666 
L 3047 1625 
L 3713 1625 
L 3713 1100 
L 3047 1100 
L 3047 0 
L 2419 0 
L 2419 1100 
L 313 1100 
L 313 1709 
L 2253 4666 
z
" transform="scale(0.015625)"/>
      </defs>
      <use xlink:href="#DejaVuSans-34"/>
     </g>
    </g>
   </g>
   <g id="text_6">
    <g clip-path="url(#pe964482cd9)">
     <!-- 5 -->
     <g transform="translate(197.300134 124.861904) scale(0.07 -0.07)">
      <defs>
       <path id="DejaVuSans-35" d="M 691 4666 
L 3169 4666 
L 3169 4134 
L 1269 4134 
L 1269 2991 
Q 1406 3038 1543 3061 
Q 1681 3084 1819 3084 
Q 2600 3084 3056 2656 
Q 3513 2228 3513 1497 
Q 3513 744 3044 326 
Q 2575 -91 1722 -91 
Q 1428 -91 1123 -41 
Q 819 9 494 109 
L 494 744 
Q 775 591 1075 516 
Q 1375 441 1709 441 
Q 2250 441 2565 725 
Q 2881 1009 2881 1497 
Q 2881 1984 2565 2268 
Q 2250 2553 1709 2553 
Q 1456 2553 1204 2497 
Q 953 2441 691 2322 
L 691 4666 
z
" transform="scale(0.015625)"/>
      </defs>
      <use xlink:href="#DejaVuSans-35"/>
     </g>
    </g>
   </g>
   <g id="text_7">
    <g clip-path="url(#pe964482cd9)">
     <!-- 6 -->
     <g transform="translate(86.766542 98.881858) scale(0.07 -0.07)">
      <defs>
       <path id="DejaVuSans-36" d="M 2113 2584 
Q 1688 2584 1439 2293 
Q 1191 2003 1191 1497 
Q 1191 994 1439 701 
Q 1688 409 2113 409 
Q 2538 409 2786 701 
Q 3034 994 3034 1497 
Q 3034 2003 2786 2293 
Q 2538 2584 2113 2584 
z
M 3366 4563 
L 3366 3988 
Q 3128 4100 2886 4159 
Q 2644 4219 2406 4219 
Q 1781 4219 1451 3797 
Q 1122 3375 1075 2522 
Q 1259 2794 1537 2939 
Q 1816 3084 2150 3084 
Q 2853 3084 3261 2657 
Q 3669 2231 3669 1497 
Q 3669 778 3244 343 
Q 2819 -91 2113 -91 
Q 1303 -91 875 529 
Q 447 1150 447 2328 
Q 447 3434 972 4092 
Q 1497 4750 2381 4750 
Q 2619 4750 2861 4703 
Q 3103 4656 3366 4563 
z
" transform="scale(0.015625)"/>
      </defs>
      <use xlink:href="#DejaVuSans-36"/>
     </g>
    </g>
   </g>
   <g id="text_8">
    <g clip-path="url(#pe964482cd9)">
     <!-- 7 -->
     <g transform="translate(234.578728 156.866406) scale(0.07 -0.07)">
      <defs>
       <path id="DejaVuSans-37" d="M 525 4666 
L 3525 4666 
L 3525 4397 
L 1831 0 
L 1172 0 
L 2766 4134 
L 525 4134 
L 525 4666 
z
" transform="scale(0.015625)"/>
      </defs>
      <use xlink:href="#DejaVuSans-37"/>
     </g>
    </g>
   </g>
   <g id="text_9">
    <g clip-path="url(#pe964482cd9)">
     <!-- 8 -->
     <g transform="translate(223.161374 190.540098) scale(0.07 -0.07)">
      <defs>
       <path id="DejaVuSans-38" d="M 2034 2216 
Q 1584 2216 1326 1975 
Q 1069 1734 1069 1313 
Q 1069 891 1326 650 
Q 1584 409 2034 409 
Q 2484 409 2743 651 
Q 3003 894 3003 1313 
Q 3003 1734 2745 1975 
Q 2488 2216 2034 2216 
z
M 1403 2484 
Q 997 2584 770 2862 
Q 544 3141 544 3541 
Q 544 4100 942 4425 
Q 1341 4750 2034 4750 
Q 2731 4750 3128 4425 
Q 3525 4100 3525 3541 
Q 3525 3141 3298 2862 
Q 3072 2584 2669 2484 
Q 3125 2378 3379 2068 
Q 3634 1759 3634 1313 
Q 3634 634 3220 271 
Q 2806 -91 2034 -91 
Q 1263 -91 848 271 
Q 434 634 434 1313 
Q 434 1759 690 2068 
Q 947 2378 1403 2484 
z
M 1172 3481 
Q 1172 3119 1398 2916 
Q 1625 2713 2034 2713 
Q 2441 2713 2670 2916 
Q 2900 3119 2900 3481 
Q 2900 3844 2670 4047 
Q 2441 4250 2034 4250 
Q 1625 4250 1398 4047 
Q 1172 3844 1172 3481 
z
" transform="scale(0.015625)"/>
      </defs>
      <use xlink:href="#DejaVuSans-38"/>
     </g>
    </g>
   </g>
   <g id="text_10">
    <g clip-path="url(#pe964482cd9)">
     <!-- 9 -->
     <g transform="translate(119.056209 167.138707) scale(0.07 -0.07)">
      <defs>
       <path id="DejaVuSans-39" d="M 703 97 
L 703 672 
Q 941 559 1184 500 
Q 1428 441 1663 441 
Q 2288 441 2617 861 
Q 2947 1281 2994 2138 
Q 2813 1869 2534 1725 
Q 2256 1581 1919 1581 
Q 1219 1581 811 2004 
Q 403 2428 403 3163 
Q 403 3881 828 4315 
Q 1253 4750 1959 4750 
Q 2769 4750 3195 4129 
Q 3622 3509 3622 2328 
Q 3622 1225 3098 567 
Q 2575 -91 1691 -91 
Q 1453 -91 1209 -44 
Q 966 3 703 97 
z
M 1959 2075 
Q 2384 2075 2632 2365 
Q 2881 2656 2881 3163 
Q 2881 3666 2632 3958 
Q 2384 4250 1959 4250 
Q 1534 4250 1286 3958 
Q 1038 3666 1038 3163 
Q 1038 2656 1286 2365 
Q 1534 2075 1959 2075 
z
" transform="scale(0.015625)"/>
      </defs>
      <use xlink:href="#DejaVuSans-39"/>
     </g>
    </g>
   </g>
   <g id="text_11">
    <g clip-path="url(#pe964482cd9)">
     <!-- 10 -->
     <g transform="translate(262.449866 159.743137) scale(0.07 -0.07)">
      <use xlink:href="#DejaVuSans-31"/>
      <use xlink:href="#DejaVuSans-30" x="63.623047"/>
     </g>
    </g>
   </g>
   <g id="text_12">
    <g clip-path="url(#pe964482cd9)">
     <!-- 11 -->
     <g transform="translate(142.52519 207.918378) scale(0.07 -0.07)">
      <use xlink:href="#DejaVuSans-31"/>
      <use xlink:href="#DejaVuSans-31" x="63.623047"/>
     </g>
    </g>
   </g>
   <g id="text_13">
    <g clip-path="url(#pe964482cd9)">
     <!-- 12 -->
     <g transform="translate(189.436473 89.345285) scale(0.07 -0.07)">
      <use xlink:href="#DejaVuSans-31"/>
      <use xlink:href="#DejaVuSans-32" x="63.623047"/>
     </g>
    </g>
   </g>
   <g id="text_14">
    <g clip-path="url(#pe964482cd9)">
     <!-- 13 -->
     <g transform="translate(195.232283 224.517) scale(0.07 -0.07)">
      <use xlink:href="#DejaVuSans-31"/>
      <use xlink:href="#DejaVuSans-33" x="63.623047"/>
     </g>
    </g>
   </g>
   <g id="text_15">
    <g clip-path="url(#pe964482cd9)">
     <!-- 14 -->
     <g transform="translate(130.532659 122.087051) scale(0.07 -0.07)">
      <use xlink:href="#DejaVuSans-31"/>
      <use xlink:href="#DejaVuSans-34" x="63.623047"/>
     </g>
    </g>
   </g>
   <g id="text_16">
    <g clip-path="url(#pe964482cd9)">
     <!-- 15 -->
     <g transform="translate(378.872833 197.606794) scale(0.07 -0.07)">
      <use xlink:href="#DejaVuSans-31"/>
      <use xlink:href="#DejaVuSans-35" x="63.623047"/>
     </g>
    </g>
   </g>
   <g id="text_17">
    <g clip-path="url(#pe964482cd9)">
     <!-- 16 -->
     <g transform="translate(286.613824 127.997458) scale(0.07 -0.07)">
      <use xlink:href="#DejaVuSans-31"/>
      <use xlink:href="#DejaVuSans-36" x="63.623047"/>
     </g>
    </g>
   </g>
   <g id="text_18">
    <g clip-path="url(#pe964482cd9)">
     <!-- 17 -->
     <g transform="translate(150.449967 95.742874) scale(0.07 -0.07)">
      <use xlink:href="#DejaVuSans-31"/>
      <use xlink:href="#DejaVuSans-37" x="63.623047"/>
     </g>
    </g>
   </g>
   <g id="text_19">
    <g clip-path="url(#pe964482cd9)">
     <!-- 18 -->
     <g transform="translate(329.51295 194.197954) scale(0.07 -0.07)">
      <use xlink:href="#DejaVuSans-31"/>
      <use xlink:href="#DejaVuSans-38" x="63.623047"/>
     </g>
    </g>
   </g>
   <g id="text_20">
    <g clip-path="url(#pe964482cd9)">
     <!-- 19 -->
     <g transform="translate(245.972489 244.83088) scale(0.07 -0.07)">
      <use xlink:href="#DejaVuSans-31"/>
      <use xlink:href="#DejaVuSans-39" x="63.623047"/>
     </g>
    </g>
   </g>
   <g id="PathCollection_1"/>
   <g id="PathCollection_2"/>
   <g id="matplotlib.axis_1"/>
   <g id="matplotlib.axis_2"/>
   <g id="text_21">
    <g id="patch_3">
     <path d="M 277.19385 83.020553 
L 407.5776 83.020553 
Q 414.5776 83.020553 414.5776 76.020553 
L 414.5776 46.79424 
Q 414.5776 39.79424 407.5776 39.79424 
L 277.19385 39.79424 
Q 270.19385 39.79424 270.19385 46.79424 
L 270.19385 76.020553 
Q 270.19385 83.020553 277.19385 83.020553 
z
" style="fill: #ffffff; opacity: 0.2; stroke: #000000; stroke-linejoin: miter"/>
    </g>
    <!-- Total Cuts: 4 -->
    <g transform="translate(320.930725 57.432052) scale(0.14 -0.14)">
     <defs>
      <path id="DejaVuSans-54" d="M -19 4666 
L 3928 4666 
L 3928 4134 
L 2272 4134 
L 2272 0 
L 1638 0 
L 1638 4134 
L -19 4134 
L -19 4666 
z
" transform="scale(0.015625)"/>
      <path id="DejaVuSans-6f" d="M 1959 3097 
Q 1497 3097 1228 2736 
Q 959 2375 959 1747 
Q 959 1119 1226 758 
Q 1494 397 1959 397 
Q 2419 397 2687 759 
Q 2956 1122 2956 1747 
Q 2956 2369 2687 2733 
Q 2419 3097 1959 3097 
z
M 1959 3584 
Q 2709 3584 3137 3096 
Q 3566 2609 3566 1747 
Q 3566 888 3137 398 
Q 2709 -91 1959 -91 
Q 1206 -91 779 398 
Q 353 888 353 1747 
Q 353 2609 779 3096 
Q 1206 3584 1959 3584 
z
" transform="scale(0.015625)"/>
      <path id="DejaVuSans-74" d="M 1172 4494 
L 1172 3500 
L 2356 3500 
L 2356 3053 
L 1172 3053 
L 1172 1153 
Q 1172 725 1289 603 
Q 1406 481 1766 481 
L 2356 481 
L 2356 0 
L 1766 0 
Q 1100 0 847 248 
Q 594 497 594 1153 
L 594 3053 
L 172 3053 
L 172 3500 
L 594 3500 
L 594 4494 
L 1172 4494 
z
" transform="scale(0.015625)"/>
      <path id="DejaVuSans-61" d="M 2194 1759 
Q 1497 1759 1228 1600 
Q 959 1441 959 1056 
Q 959 750 1161 570 
Q 1363 391 1709 391 
Q 2188 391 2477 730 
Q 2766 1069 2766 1631 
L 2766 1759 
L 2194 1759 
z
M 3341 1997 
L 3341 0 
L 2766 0 
L 2766 531 
Q 2569 213 2275 61 
Q 1981 -91 1556 -91 
Q 1019 -91 701 211 
Q 384 513 384 1019 
Q 384 1609 779 1909 
Q 1175 2209 1959 2209 
L 2766 2209 
L 2766 2266 
Q 2766 2663 2505 2880 
Q 2244 3097 1772 3097 
Q 1472 3097 1187 3025 
Q 903 2953 641 2809 
L 641 3341 
Q 956 3463 1253 3523 
Q 1550 3584 1831 3584 
Q 2591 3584 2966 3190 
Q 3341 2797 3341 1997 
z
" transform="scale(0.015625)"/>
      <path id="DejaVuSans-6c" d="M 603 4863 
L 1178 4863 
L 1178 0 
L 603 0 
L 603 4863 
z
" transform="scale(0.015625)"/>
      <path id="DejaVuSans-20" transform="scale(0.015625)"/>
      <path id="DejaVuSans-43" d="M 4122 4306 
L 4122 3641 
Q 3803 3938 3442 4084 
Q 3081 4231 2675 4231 
Q 1875 4231 1450 3742 
Q 1025 3253 1025 2328 
Q 1025 1406 1450 917 
Q 1875 428 2675 428 
Q 3081 428 3442 575 
Q 3803 722 4122 1019 
L 4122 359 
Q 3791 134 3420 21 
Q 3050 -91 2638 -91 
Q 1578 -91 968 557 
Q 359 1206 359 2328 
Q 359 3453 968 4101 
Q 1578 4750 2638 4750 
Q 3056 4750 3426 4639 
Q 3797 4528 4122 4306 
z
" transform="scale(0.015625)"/>
      <path id="DejaVuSans-75" d="M 544 1381 
L 544 3500 
L 1119 3500 
L 1119 1403 
Q 1119 906 1312 657 
Q 1506 409 1894 409 
Q 2359 409 2629 706 
Q 2900 1003 2900 1516 
L 2900 3500 
L 3475 3500 
L 3475 0 
L 2900 0 
L 2900 538 
Q 2691 219 2414 64 
Q 2138 -91 1772 -91 
Q 1169 -91 856 284 
Q 544 659 544 1381 
z
M 1991 3584 
L 1991 3584 
z
" transform="scale(0.015625)"/>
      <path id="DejaVuSans-73" d="M 2834 3397 
L 2834 2853 
Q 2591 2978 2328 3040 
Q 2066 3103 1784 3103 
Q 1356 3103 1142 2972 
Q 928 2841 928 2578 
Q 928 2378 1081 2264 
Q 1234 2150 1697 2047 
L 1894 2003 
Q 2506 1872 2764 1633 
Q 3022 1394 3022 966 
Q 3022 478 2636 193 
Q 2250 -91 1575 -91 
Q 1294 -91 989 -36 
Q 684 19 347 128 
L 347 722 
Q 666 556 975 473 
Q 1284 391 1588 391 
Q 1994 391 2212 530 
Q 2431 669 2431 922 
Q 2431 1156 2273 1281 
Q 2116 1406 1581 1522 
L 1381 1569 
Q 847 1681 609 1914 
Q 372 2147 372 2553 
Q 372 3047 722 3315 
Q 1072 3584 1716 3584 
Q 2034 3584 2315 3537 
Q 2597 3491 2834 3397 
z
" transform="scale(0.015625)"/>
      <path id="DejaVuSans-3a" d="M 750 794 
L 1409 794 
L 1409 0 
L 750 0 
L 750 794 
z
M 750 3309 
L 1409 3309 
L 1409 2516 
L 750 2516 
L 750 3309 
z
" transform="scale(0.015625)"/>
     </defs>
     <use xlink:href="#DejaVuSans-54"/>
     <use xlink:href="#DejaVuSans-6f" x="44.083984"/>
     <use xlink:href="#DejaVuSans-74" x="105.265625"/>
     <use xlink:href="#DejaVuSans-61" x="144.474609"/>
     <use xlink:href="#DejaVuSans-6c" x="205.753906"/>
     <use xlink:href="#DejaVuSans-20" x="233.537109"/>
     <use xlink:href="#DejaVuSans-43" x="265.324219"/>
     <use xlink:href="#DejaVuSans-75" x="335.148438"/>
     <use xlink:href="#DejaVuSans-74" x="398.527344"/>
     <use xlink:href="#DejaVuSans-73" x="437.736328"/>
     <use xlink:href="#DejaVuSans-3a" x="489.835938"/>
     <use xlink:href="#DejaVuSans-20" x="523.527344"/>
     <use xlink:href="#DejaVuSans-34" x="555.314453"/>
    </g>
    <!-- Runtime (s): 0.008 -->
    <g transform="translate(277.19385 73.10899) scale(0.14 -0.14)">
     <defs>
      <path id="DejaVuSans-52" d="M 2841 2188 
Q 3044 2119 3236 1894 
Q 3428 1669 3622 1275 
L 4263 0 
L 3584 0 
L 2988 1197 
Q 2756 1666 2539 1819 
Q 2322 1972 1947 1972 
L 1259 1972 
L 1259 0 
L 628 0 
L 628 4666 
L 2053 4666 
Q 2853 4666 3247 4331 
Q 3641 3997 3641 3322 
Q 3641 2881 3436 2590 
Q 3231 2300 2841 2188 
z
M 1259 4147 
L 1259 2491 
L 2053 2491 
Q 2509 2491 2742 2702 
Q 2975 2913 2975 3322 
Q 2975 3731 2742 3939 
Q 2509 4147 2053 4147 
L 1259 4147 
z
" transform="scale(0.015625)"/>
      <path id="DejaVuSans-6e" d="M 3513 2113 
L 3513 0 
L 2938 0 
L 2938 2094 
Q 2938 2591 2744 2837 
Q 2550 3084 2163 3084 
Q 1697 3084 1428 2787 
Q 1159 2491 1159 1978 
L 1159 0 
L 581 0 
L 581 3500 
L 1159 3500 
L 1159 2956 
Q 1366 3272 1645 3428 
Q 1925 3584 2291 3584 
Q 2894 3584 3203 3211 
Q 3513 2838 3513 2113 
z
" transform="scale(0.015625)"/>
      <path id="DejaVuSans-69" d="M 603 3500 
L 1178 3500 
L 1178 0 
L 603 0 
L 603 3500 
z
M 603 4863 
L 1178 4863 
L 1178 4134 
L 603 4134 
L 603 4863 
z
" transform="scale(0.015625)"/>
      <path id="DejaVuSans-6d" d="M 3328 2828 
Q 3544 3216 3844 3400 
Q 4144 3584 4550 3584 
Q 5097 3584 5394 3201 
Q 5691 2819 5691 2113 
L 5691 0 
L 5113 0 
L 5113 2094 
Q 5113 2597 4934 2840 
Q 4756 3084 4391 3084 
Q 3944 3084 3684 2787 
Q 3425 2491 3425 1978 
L 3425 0 
L 2847 0 
L 2847 2094 
Q 2847 2600 2669 2842 
Q 2491 3084 2119 3084 
Q 1678 3084 1418 2786 
Q 1159 2488 1159 1978 
L 1159 0 
L 581 0 
L 581 3500 
L 1159 3500 
L 1159 2956 
Q 1356 3278 1631 3431 
Q 1906 3584 2284 3584 
Q 2666 3584 2933 3390 
Q 3200 3197 3328 2828 
z
" transform="scale(0.015625)"/>
      <path id="DejaVuSans-65" d="M 3597 1894 
L 3597 1613 
L 953 1613 
Q 991 1019 1311 708 
Q 1631 397 2203 397 
Q 2534 397 2845 478 
Q 3156 559 3463 722 
L 3463 178 
Q 3153 47 2828 -22 
Q 2503 -91 2169 -91 
Q 1331 -91 842 396 
Q 353 884 353 1716 
Q 353 2575 817 3079 
Q 1281 3584 2069 3584 
Q 2775 3584 3186 3129 
Q 3597 2675 3597 1894 
z
M 3022 2063 
Q 3016 2534 2758 2815 
Q 2500 3097 2075 3097 
Q 1594 3097 1305 2825 
Q 1016 2553 972 2059 
L 3022 2063 
z
" transform="scale(0.015625)"/>
      <path id="DejaVuSans-28" d="M 1984 4856 
Q 1566 4138 1362 3434 
Q 1159 2731 1159 2009 
Q 1159 1288 1364 580 
Q 1569 -128 1984 -844 
L 1484 -844 
Q 1016 -109 783 600 
Q 550 1309 550 2009 
Q 550 2706 781 3412 
Q 1013 4119 1484 4856 
L 1984 4856 
z
" transform="scale(0.015625)"/>
      <path id="DejaVuSans-29" d="M 513 4856 
L 1013 4856 
Q 1481 4119 1714 3412 
Q 1947 2706 1947 2009 
Q 1947 1309 1714 600 
Q 1481 -109 1013 -844 
L 513 -844 
Q 928 -128 1133 580 
Q 1338 1288 1338 2009 
Q 1338 2731 1133 3434 
Q 928 4138 513 4856 
z
" transform="scale(0.015625)"/>
      <path id="DejaVuSans-2e" d="M 684 794 
L 1344 794 
L 1344 0 
L 684 0 
L 684 794 
z
" transform="scale(0.015625)"/>
     </defs>
     <use xlink:href="#DejaVuSans-52"/>
     <use xlink:href="#DejaVuSans-75" x="64.982422"/>
     <use xlink:href="#DejaVuSans-6e" x="128.361328"/>
     <use xlink:href="#DejaVuSans-74" x="191.740234"/>
     <use xlink:href="#DejaVuSans-69" x="230.949219"/>
     <use xlink:href="#DejaVuSans-6d" x="258.732422"/>
     <use xlink:href="#DejaVuSans-65" x="356.144531"/>
     <use xlink:href="#DejaVuSans-20" x="417.667969"/>
     <use xlink:href="#DejaVuSans-28" x="449.455078"/>
     <use xlink:href="#DejaVuSans-73" x="488.46875"/>
     <use xlink:href="#DejaVuSans-29" x="540.568359"/>
     <use xlink:href="#DejaVuSans-3a" x="579.582031"/>
     <use xlink:href="#DejaVuSans-20" x="613.273438"/>
     <use xlink:href="#DejaVuSans-30" x="645.060547"/>
     <use xlink:href="#DejaVuSans-2e" x="708.683594"/>
     <use xlink:href="#DejaVuSans-30" x="740.470703"/>
     <use xlink:href="#DejaVuSans-30" x="804.09375"/>
     <use xlink:href="#DejaVuSans-38" x="867.716797"/>
    </g>
   </g>
   <g id="text_22">
    <!-- Weightless, 20 vertices, 13.158% density -->
    <g transform="translate(73.105937 35.472) scale(0.14 -0.14)">
     <defs>
      <path id="DejaVuSans-Bold-57" d="M 191 4666 
L 1344 4666 
L 2150 1275 
L 2950 4666 
L 4109 4666 
L 4909 1275 
L 5716 4666 
L 6859 4666 
L 5759 0 
L 4372 0 
L 3525 3547 
L 2688 0 
L 1300 0 
L 191 4666 
z
" transform="scale(0.015625)"/>
      <path id="DejaVuSans-Bold-65" d="M 4031 1759 
L 4031 1441 
L 1416 1441 
Q 1456 1047 1700 850 
Q 1944 653 2381 653 
Q 2734 653 3104 758 
Q 3475 863 3866 1075 
L 3866 213 
Q 3469 63 3072 -14 
Q 2675 -91 2278 -91 
Q 1328 -91 801 392 
Q 275 875 275 1747 
Q 275 2603 792 3093 
Q 1309 3584 2216 3584 
Q 3041 3584 3536 3087 
Q 4031 2591 4031 1759 
z
M 2881 2131 
Q 2881 2450 2695 2645 
Q 2509 2841 2209 2841 
Q 1884 2841 1681 2658 
Q 1478 2475 1428 2131 
L 2881 2131 
z
" transform="scale(0.015625)"/>
      <path id="DejaVuSans-Bold-69" d="M 538 3500 
L 1656 3500 
L 1656 0 
L 538 0 
L 538 3500 
z
M 538 4863 
L 1656 4863 
L 1656 3950 
L 538 3950 
L 538 4863 
z
" transform="scale(0.015625)"/>
      <path id="DejaVuSans-Bold-67" d="M 2919 594 
Q 2688 288 2409 144 
Q 2131 0 1766 0 
Q 1125 0 706 504 
Q 288 1009 288 1791 
Q 288 2575 706 3076 
Q 1125 3578 1766 3578 
Q 2131 3578 2409 3434 
Q 2688 3291 2919 2981 
L 2919 3500 
L 4044 3500 
L 4044 353 
Q 4044 -491 3511 -936 
Q 2978 -1381 1966 -1381 
Q 1638 -1381 1331 -1331 
Q 1025 -1281 716 -1178 
L 716 -306 
Q 1009 -475 1290 -558 
Q 1572 -641 1856 -641 
Q 2406 -641 2662 -400 
Q 2919 -159 2919 353 
L 2919 594 
z
M 2181 2772 
Q 1834 2772 1640 2515 
Q 1447 2259 1447 1791 
Q 1447 1309 1634 1061 
Q 1822 813 2181 813 
Q 2531 813 2725 1069 
Q 2919 1325 2919 1791 
Q 2919 2259 2725 2515 
Q 2531 2772 2181 2772 
z
" transform="scale(0.015625)"/>
      <path id="DejaVuSans-Bold-68" d="M 4056 2131 
L 4056 0 
L 2931 0 
L 2931 347 
L 2931 1625 
Q 2931 2084 2911 2256 
Q 2891 2428 2841 2509 
Q 2775 2619 2662 2680 
Q 2550 2741 2406 2741 
Q 2056 2741 1856 2470 
Q 1656 2200 1656 1722 
L 1656 0 
L 538 0 
L 538 4863 
L 1656 4863 
L 1656 2988 
Q 1909 3294 2193 3439 
Q 2478 3584 2822 3584 
Q 3428 3584 3742 3212 
Q 4056 2841 4056 2131 
z
" transform="scale(0.015625)"/>
      <path id="DejaVuSans-Bold-74" d="M 1759 4494 
L 1759 3500 
L 2913 3500 
L 2913 2700 
L 1759 2700 
L 1759 1216 
Q 1759 972 1856 886 
Q 1953 800 2241 800 
L 2816 800 
L 2816 0 
L 1856 0 
Q 1194 0 917 276 
Q 641 553 641 1216 
L 641 2700 
L 84 2700 
L 84 3500 
L 641 3500 
L 641 4494 
L 1759 4494 
z
" transform="scale(0.015625)"/>
      <path id="DejaVuSans-Bold-6c" d="M 538 4863 
L 1656 4863 
L 1656 0 
L 538 0 
L 538 4863 
z
" transform="scale(0.015625)"/>
      <path id="DejaVuSans-Bold-73" d="M 3272 3391 
L 3272 2541 
Q 2913 2691 2578 2766 
Q 2244 2841 1947 2841 
Q 1628 2841 1473 2761 
Q 1319 2681 1319 2516 
Q 1319 2381 1436 2309 
Q 1553 2238 1856 2203 
L 2053 2175 
Q 2913 2066 3209 1816 
Q 3506 1566 3506 1031 
Q 3506 472 3093 190 
Q 2681 -91 1863 -91 
Q 1516 -91 1145 -36 
Q 775 19 384 128 
L 384 978 
Q 719 816 1070 734 
Q 1422 653 1784 653 
Q 2113 653 2278 743 
Q 2444 834 2444 1013 
Q 2444 1163 2330 1236 
Q 2216 1309 1875 1350 
L 1678 1375 
Q 931 1469 631 1722 
Q 331 1975 331 2491 
Q 331 3047 712 3315 
Q 1094 3584 1881 3584 
Q 2191 3584 2531 3537 
Q 2872 3491 3272 3391 
z
" transform="scale(0.015625)"/>
      <path id="DejaVuSans-Bold-2c" d="M 653 1209 
L 1778 1209 
L 1778 256 
L 1006 -909 
L 341 -909 
L 653 256 
L 653 1209 
z
" transform="scale(0.015625)"/>
      <path id="DejaVuSans-Bold-20" transform="scale(0.015625)"/>
      <path id="DejaVuSans-Bold-32" d="M 1844 884 
L 3897 884 
L 3897 0 
L 506 0 
L 506 884 
L 2209 2388 
Q 2438 2594 2547 2791 
Q 2656 2988 2656 3200 
Q 2656 3528 2436 3728 
Q 2216 3928 1850 3928 
Q 1569 3928 1234 3808 
Q 900 3688 519 3450 
L 519 4475 
Q 925 4609 1322 4679 
Q 1719 4750 2100 4750 
Q 2938 4750 3402 4381 
Q 3866 4013 3866 3353 
Q 3866 2972 3669 2642 
Q 3472 2313 2841 1759 
L 1844 884 
z
" transform="scale(0.015625)"/>
      <path id="DejaVuSans-Bold-30" d="M 2944 2338 
Q 2944 3213 2780 3570 
Q 2616 3928 2228 3928 
Q 1841 3928 1675 3570 
Q 1509 3213 1509 2338 
Q 1509 1453 1675 1090 
Q 1841 728 2228 728 
Q 2613 728 2778 1090 
Q 2944 1453 2944 2338 
z
M 4147 2328 
Q 4147 1169 3647 539 
Q 3147 -91 2228 -91 
Q 1306 -91 806 539 
Q 306 1169 306 2328 
Q 306 3491 806 4120 
Q 1306 4750 2228 4750 
Q 3147 4750 3647 4120 
Q 4147 3491 4147 2328 
z
" transform="scale(0.015625)"/>
      <path id="DejaVuSans-Bold-76" d="M 97 3500 
L 1216 3500 
L 2088 1081 
L 2956 3500 
L 4078 3500 
L 2700 0 
L 1472 0 
L 97 3500 
z
" transform="scale(0.015625)"/>
      <path id="DejaVuSans-Bold-72" d="M 3138 2547 
Q 2991 2616 2845 2648 
Q 2700 2681 2553 2681 
Q 2122 2681 1889 2404 
Q 1656 2128 1656 1613 
L 1656 0 
L 538 0 
L 538 3500 
L 1656 3500 
L 1656 2925 
Q 1872 3269 2151 3426 
Q 2431 3584 2822 3584 
Q 2878 3584 2943 3579 
Q 3009 3575 3134 3559 
L 3138 2547 
z
" transform="scale(0.015625)"/>
      <path id="DejaVuSans-Bold-63" d="M 3366 3391 
L 3366 2478 
Q 3138 2634 2908 2709 
Q 2678 2784 2431 2784 
Q 1963 2784 1702 2511 
Q 1441 2238 1441 1747 
Q 1441 1256 1702 982 
Q 1963 709 2431 709 
Q 2694 709 2930 787 
Q 3166 866 3366 1019 
L 3366 103 
Q 3103 6 2833 -42 
Q 2563 -91 2291 -91 
Q 1344 -91 809 395 
Q 275 881 275 1747 
Q 275 2613 809 3098 
Q 1344 3584 2291 3584 
Q 2566 3584 2833 3536 
Q 3100 3488 3366 3391 
z
" transform="scale(0.015625)"/>
      <path id="DejaVuSans-Bold-31" d="M 750 831 
L 1813 831 
L 1813 3847 
L 722 3622 
L 722 4441 
L 1806 4666 
L 2950 4666 
L 2950 831 
L 4013 831 
L 4013 0 
L 750 0 
L 750 831 
z
" transform="scale(0.015625)"/>
      <path id="DejaVuSans-Bold-33" d="M 2981 2516 
Q 3453 2394 3698 2092 
Q 3944 1791 3944 1325 
Q 3944 631 3412 270 
Q 2881 -91 1863 -91 
Q 1503 -91 1142 -33 
Q 781 25 428 141 
L 428 1069 
Q 766 900 1098 814 
Q 1431 728 1753 728 
Q 2231 728 2486 893 
Q 2741 1059 2741 1369 
Q 2741 1688 2480 1852 
Q 2219 2016 1709 2016 
L 1228 2016 
L 1228 2791 
L 1734 2791 
Q 2188 2791 2409 2933 
Q 2631 3075 2631 3366 
Q 2631 3634 2415 3781 
Q 2200 3928 1806 3928 
Q 1516 3928 1219 3862 
Q 922 3797 628 3669 
L 628 4550 
Q 984 4650 1334 4700 
Q 1684 4750 2022 4750 
Q 2931 4750 3382 4451 
Q 3834 4153 3834 3553 
Q 3834 3144 3618 2883 
Q 3403 2622 2981 2516 
z
" transform="scale(0.015625)"/>
      <path id="DejaVuSans-Bold-2e" d="M 653 1209 
L 1778 1209 
L 1778 0 
L 653 0 
L 653 1209 
z
" transform="scale(0.015625)"/>
      <path id="DejaVuSans-Bold-35" d="M 678 4666 
L 3669 4666 
L 3669 3781 
L 1638 3781 
L 1638 3059 
Q 1775 3097 1914 3117 
Q 2053 3138 2203 3138 
Q 3056 3138 3531 2711 
Q 4006 2284 4006 1522 
Q 4006 766 3489 337 
Q 2972 -91 2053 -91 
Q 1656 -91 1267 -14 
Q 878 63 494 219 
L 494 1166 
Q 875 947 1217 837 
Q 1559 728 1863 728 
Q 2300 728 2551 942 
Q 2803 1156 2803 1522 
Q 2803 1891 2551 2103 
Q 2300 2316 1863 2316 
Q 1603 2316 1309 2248 
Q 1016 2181 678 2041 
L 678 4666 
z
" transform="scale(0.015625)"/>
      <path id="DejaVuSans-Bold-38" d="M 2228 2088 
Q 1891 2088 1709 1903 
Q 1528 1719 1528 1375 
Q 1528 1031 1709 848 
Q 1891 666 2228 666 
Q 2563 666 2741 848 
Q 2919 1031 2919 1375 
Q 2919 1722 2741 1905 
Q 2563 2088 2228 2088 
z
M 1350 2484 
Q 925 2613 709 2878 
Q 494 3144 494 3541 
Q 494 4131 934 4440 
Q 1375 4750 2228 4750 
Q 3075 4750 3515 4442 
Q 3956 4134 3956 3541 
Q 3956 3144 3739 2878 
Q 3522 2613 3097 2484 
Q 3572 2353 3814 2058 
Q 4056 1763 4056 1313 
Q 4056 619 3595 264 
Q 3134 -91 2228 -91 
Q 1319 -91 855 264 
Q 391 619 391 1313 
Q 391 1763 633 2058 
Q 875 2353 1350 2484 
z
M 1631 3419 
Q 1631 3141 1786 2991 
Q 1941 2841 2228 2841 
Q 2509 2841 2662 2991 
Q 2816 3141 2816 3419 
Q 2816 3697 2662 3845 
Q 2509 3994 2228 3994 
Q 1941 3994 1786 3844 
Q 1631 3694 1631 3419 
z
" transform="scale(0.015625)"/>
      <path id="DejaVuSans-Bold-25" d="M 4959 1925 
Q 4738 1925 4616 1733 
Q 4494 1541 4494 1184 
Q 4494 825 4614 633 
Q 4734 441 4959 441 
Q 5184 441 5303 633 
Q 5422 825 5422 1184 
Q 5422 1541 5301 1733 
Q 5181 1925 4959 1925 
z
M 4959 2450 
Q 5541 2450 5875 2112 
Q 6209 1775 6209 1184 
Q 6209 594 5875 251 
Q 5541 -91 4959 -91 
Q 4378 -91 4042 251 
Q 3706 594 3706 1184 
Q 3706 1772 4042 2111 
Q 4378 2450 4959 2450 
z
M 2094 -91 
L 1403 -91 
L 4319 4750 
L 5013 4750 
L 2094 -91 
z
M 1453 4750 
Q 2034 4750 2367 4411 
Q 2700 4072 2700 3481 
Q 2700 2891 2367 2550 
Q 2034 2209 1453 2209 
Q 872 2209 539 2550 
Q 206 2891 206 3481 
Q 206 4072 539 4411 
Q 872 4750 1453 4750 
z
M 1453 4225 
Q 1228 4225 1106 4031 
Q 984 3838 984 3481 
Q 984 3122 1106 2926 
Q 1228 2731 1453 2731 
Q 1678 2731 1798 2926 
Q 1919 3122 1919 3481 
Q 1919 3838 1797 4031 
Q 1675 4225 1453 4225 
z
" transform="scale(0.015625)"/>
      <path id="DejaVuSans-Bold-64" d="M 2919 2988 
L 2919 4863 
L 4044 4863 
L 4044 0 
L 2919 0 
L 2919 506 
Q 2688 197 2409 53 
Q 2131 -91 1766 -91 
Q 1119 -91 703 423 
Q 288 938 288 1747 
Q 288 2556 703 3070 
Q 1119 3584 1766 3584 
Q 2128 3584 2408 3439 
Q 2688 3294 2919 2988 
z
M 2181 722 
Q 2541 722 2730 984 
Q 2919 1247 2919 1747 
Q 2919 2247 2730 2509 
Q 2541 2772 2181 2772 
Q 1825 2772 1636 2509 
Q 1447 2247 1447 1747 
Q 1447 1247 1636 984 
Q 1825 722 2181 722 
z
" transform="scale(0.015625)"/>
      <path id="DejaVuSans-Bold-6e" d="M 4056 2131 
L 4056 0 
L 2931 0 
L 2931 347 
L 2931 1631 
Q 2931 2084 2911 2256 
Q 2891 2428 2841 2509 
Q 2775 2619 2662 2680 
Q 2550 2741 2406 2741 
Q 2056 2741 1856 2470 
Q 1656 2200 1656 1722 
L 1656 0 
L 538 0 
L 538 3500 
L 1656 3500 
L 1656 2988 
Q 1909 3294 2193 3439 
Q 2478 3584 2822 3584 
Q 3428 3584 3742 3212 
Q 4056 2841 4056 2131 
z
" transform="scale(0.015625)"/>
      <path id="DejaVuSans-Bold-79" d="M 78 3500 
L 1197 3500 
L 2138 1125 
L 2938 3500 
L 4056 3500 
L 2584 -331 
Q 2363 -916 2067 -1148 
Q 1772 -1381 1288 -1381 
L 641 -1381 
L 641 -647 
L 991 -647 
Q 1275 -647 1404 -556 
Q 1534 -466 1606 -231 
L 1638 -134 
L 78 3500 
z
" transform="scale(0.015625)"/>
     </defs>
     <use xlink:href="#DejaVuSans-Bold-57"/>
     <use xlink:href="#DejaVuSans-Bold-65" x="106.677734"/>
     <use xlink:href="#DejaVuSans-Bold-69" x="174.5"/>
     <use xlink:href="#DejaVuSans-Bold-67" x="208.777344"/>
     <use xlink:href="#DejaVuSans-Bold-68" x="280.359375"/>
     <use xlink:href="#DejaVuSans-Bold-74" x="351.550781"/>
     <use xlink:href="#DejaVuSans-Bold-6c" x="399.353516"/>
     <use xlink:href="#DejaVuSans-Bold-65" x="433.630859"/>
     <use xlink:href="#DejaVuSans-Bold-73" x="501.453125"/>
     <use xlink:href="#DejaVuSans-Bold-73" x="560.974609"/>
     <use xlink:href="#DejaVuSans-Bold-2c" x="620.496094"/>
     <use xlink:href="#DejaVuSans-Bold-20" x="658.484375"/>
     <use xlink:href="#DejaVuSans-Bold-32" x="693.298828"/>
     <use xlink:href="#DejaVuSans-Bold-30" x="762.878906"/>
     <use xlink:href="#DejaVuSans-Bold-20" x="832.458984"/>
     <use xlink:href="#DejaVuSans-Bold-76" x="867.273438"/>
     <use xlink:href="#DejaVuSans-Bold-65" x="932.458984"/>
     <use xlink:href="#DejaVuSans-Bold-72" x="1000.28125"/>
     <use xlink:href="#DejaVuSans-Bold-74" x="1049.597656"/>
     <use xlink:href="#DejaVuSans-Bold-69" x="1097.400391"/>
     <use xlink:href="#DejaVuSans-Bold-63" x="1131.677734"/>
     <use xlink:href="#DejaVuSans-Bold-65" x="1190.955078"/>
     <use xlink:href="#DejaVuSans-Bold-73" x="1258.777344"/>
     <use xlink:href="#DejaVuSans-Bold-2c" x="1318.298828"/>
     <use xlink:href="#DejaVuSans-Bold-20" x="1356.287109"/>
     <use xlink:href="#DejaVuSans-Bold-31" x="1391.101562"/>
     <use xlink:href="#DejaVuSans-Bold-33" x="1460.681641"/>
     <use xlink:href="#DejaVuSans-Bold-2e" x="1530.261719"/>
     <use xlink:href="#DejaVuSans-Bold-31" x="1568.25"/>
     <use xlink:href="#DejaVuSans-Bold-35" x="1637.830078"/>
     <use xlink:href="#DejaVuSans-Bold-38" x="1707.410156"/>
     <use xlink:href="#DejaVuSans-Bold-25" x="1776.990234"/>
     <use xlink:href="#DejaVuSans-Bold-20" x="1877.185547"/>
     <use xlink:href="#DejaVuSans-Bold-64" x="1912"/>
     <use xlink:href="#DejaVuSans-Bold-65" x="1983.582031"/>
     <use xlink:href="#DejaVuSans-Bold-6e" x="2051.404297"/>
     <use xlink:href="#DejaVuSans-Bold-73" x="2122.595703"/>
     <use xlink:href="#DejaVuSans-Bold-69" x="2182.117188"/>
     <use xlink:href="#DejaVuSans-Bold-74" x="2216.394531"/>
     <use xlink:href="#DejaVuSans-Bold-79" x="2264.197266"/>
    </g>
   </g>
   <g id="legend_1">
    <g id="patch_4">
     <path d="M 7.914062 93.506375 
L 50.6 93.506375 
Q 52.6 93.506375 52.6 91.506375 
L 52.6 48.472 
Q 52.6 46.472 50.6 46.472 
L 7.914062 46.472 
Q 5.914062 46.472 5.914062 48.472 
L 5.914062 91.506375 
Q 5.914062 93.506375 7.914062 93.506375 
z
" style="fill: #ffffff; opacity: 0.8; stroke: #cccccc; stroke-linejoin: miter"/>
    </g>
    <g id="text_23">
     <!-- Cluster: -->
     <g transform="translate(9.914062 58.070438) scale(0.1 -0.1)">
      <defs>
       <path id="DejaVuSans-72" d="M 2631 2963 
Q 2534 3019 2420 3045 
Q 2306 3072 2169 3072 
Q 1681 3072 1420 2755 
Q 1159 2438 1159 1844 
L 1159 0 
L 581 0 
L 581 3500 
L 1159 3500 
L 1159 2956 
Q 1341 3275 1631 3429 
Q 1922 3584 2338 3584 
Q 2397 3584 2469 3576 
Q 2541 3569 2628 3553 
L 2631 2963 
z
" transform="scale(0.015625)"/>
      </defs>
      <use xlink:href="#DejaVuSans-43"/>
      <use xlink:href="#DejaVuSans-6c" x="69.824219"/>
      <use xlink:href="#DejaVuSans-75" x="97.607422"/>
      <use xlink:href="#DejaVuSans-73" x="160.986328"/>
      <use xlink:href="#DejaVuSans-74" x="213.085938"/>
      <use xlink:href="#DejaVuSans-65" x="252.294922"/>
      <use xlink:href="#DejaVuSans-72" x="313.818359"/>
      <use xlink:href="#DejaVuSans-3a" x="353.181641"/>
     </g>
    </g>
    <g id="PathCollection_3">
     <defs>
      <path id="mbe1eb10a3f" d="M 0 5 
C 1.326016 5 2.597899 4.473168 3.535534 3.535534 
C 4.473168 2.597899 5 1.326016 5 0 
C 5 -1.326016 4.473168 -2.597899 3.535534 -3.535534 
C 2.597899 -4.473168 1.326016 -5 0 -5 
C -1.326016 -5 -2.597899 -4.473168 -3.535534 -3.535534 
C -4.473168 -2.597899 -5 -1.326016 -5 0 
C -5 1.326016 -4.473168 2.597899 -3.535534 3.535534 
C -2.597899 4.473168 -1.326016 5 0 5 
z
" style="stroke: #000000"/>
     </defs>
     <g>
      <use xlink:href="#mbe1eb10a3f" x="22.075781" y="70.123563" style="fill: #add8e6; stroke: #000000"/>
     </g>
    </g>
    <g id="text_24">
     <!-- 0 -->
     <g transform="translate(40.075781 72.748563) scale(0.1 -0.1)">
      <use xlink:href="#DejaVuSans-30"/>
     </g>
    </g>
    <g id="PathCollection_4">
     <defs>
      <path id="m5c656fba46" d="M 0 5 
C 1.326016 5 2.597899 4.473168 3.535534 3.535534 
C 4.473168 2.597899 5 1.326016 5 0 
C 5 -1.326016 4.473168 -2.597899 3.535534 -3.535534 
C 2.597899 -4.473168 1.326016 -5 0 -5 
C -1.326016 -5 -2.597899 -4.473168 -3.535534 -3.535534 
C -4.473168 -2.597899 -5 -1.326016 -5 0 
C -5 1.326016 -4.473168 2.597899 -3.535534 3.535534 
C -2.597899 4.473168 -1.326016 5 0 5 
z
" style="stroke: #000000"/>
     </defs>
     <g>
      <use xlink:href="#m5c656fba46" x="22.075781" y="84.801688" style="fill: #9acd32; stroke: #000000"/>
     </g>
    </g>
    <g id="text_25">
     <!-- 1 -->
     <g transform="translate(40.075781 87.426688) scale(0.1 -0.1)">
      <use xlink:href="#DejaVuSans-31"/>
     </g>
    </g>
   </g>
  </g>
 </g>
 <defs>
  <clipPath id="pe964482cd9">
   <rect x="57.6" y="41.472" width="357.12" height="266.112"/>
  </clipPath>
 </defs>
</svg>
