<?xml version="1.0" encoding="utf-8" standalone="no"?>
<!DOCTYPE svg PUBLIC "-//W3C//DTD SVG 1.1//EN"
  "http://www.w3.org/Graphics/SVG/1.1/DTD/svg11.dtd">
<svg xmlns:xlink="http://www.w3.org/1999/xlink" width="460.8pt" height="345.6pt" viewBox="0 0 460.8 345.6" xmlns="http://www.w3.org/2000/svg" version="1.1">
 <metadata>
  <rdf:RDF xmlns:dc="http://purl.org/dc/elements/1.1/" xmlns:cc="http://creativecommons.org/ns#" xmlns:rdf="http://www.w3.org/1999/02/22-rdf-syntax-ns#">
   <cc:Work>
    <dc:type rdf:resource="http://purl.org/dc/dcmitype/StillImage"/>
    <dc:date>2024-01-12T17:26:52.932448</dc:date>
    <dc:format>image/svg+xml</dc:format>
    <dc:creator>
     <cc:Agent>
      <dc:title>Matplotlib v3.8.2, https://matplotlib.org/</dc:title>
     </cc:Agent>
    </dc:creator>
   </cc:Work>
  </rdf:RDF>
 </metadata>
 <defs>
  <style type="text/css">*{stroke-linejoin: round; stroke-linecap: butt}</style>
 </defs>
 <g id="figure_1">
  <g id="patch_1">
   <path d="M 0 345.6 
L 460.8 345.6 
L 460.8 0 
L 0 0 
z
" style="fill: #ffffff"/>
  </g>
  <g id="axes_1">
   <g id="patch_2">
    <path d="M 57.6 307.584 
L 414.72 307.584 
L 414.72 41.472 
L 57.6 41.472 
z
" style="fill: #ffffff"/>
   </g>
   <g id="EdgeCollection_1">
    <path d="M 141.135922 128.986106 
L 179.347997 150.021515 
" clip-path="url(#p83f0417780)" style="fill: #9acd32; stroke: #9acd32; stroke-width: 1.919494"/>
    <path d="M 225.037473 117.722785 
L 189.130013 148.975844 
" clip-path="url(#p83f0417780)" style="fill: #9acd32; stroke: #9acd32; stroke-width: 1.353527"/>
    <path d="M 189.392824 156.530131 
L 220.162765 179.759587 
" clip-path="url(#p83f0417780)" style="fill: #d3d3d3; stroke: #d3d3d3; stroke-width: 1.646473"/>
    <path d="M 304.8699 218.811885 
L 274.561686 220.064095 
" clip-path="url(#p83f0417780)" style="fill: #add8e6; stroke: #add8e6; stroke-width: 1.383683"/>
    <path d="M 229.530062 187.252302 
L 263.988125 216.434185 
" clip-path="url(#p83f0417780)" style="fill: #add8e6; stroke: #add8e6; stroke-width: 2.61524"/>
    <path d="M 282.882061 274.359353 
L 270.103013 226.111783 
" clip-path="url(#p83f0417780)" style="fill: #add8e6; stroke: #add8e6; stroke-width: 1.596392"/>
    <path d="M 228.279862 107.92249 
L 220.173469 70.902219 
" clip-path="url(#p83f0417780)" style="fill: #9acd32; stroke: #9acd32; stroke-width: 2.884491"/>
    <path d="M 130.58105 123.277629 
L 94.304267 104.005142 
" clip-path="url(#p83f0417780)" style="fill: #9acd32; stroke: #9acd32; stroke-width: 1.567851"/>
    <path d="M 316.819566 217.828952 
L 362.488502 212.190111 
" clip-path="url(#p83f0417780)" style="fill: #add8e6; stroke: #add8e6; stroke-width: 2.667474"/>
    <path d="M 381.479095 170.880715 
L 370.278587 205.742449 
" clip-path="url(#p83f0417780)" style="fill: #add8e6; stroke: #add8e6; stroke-width: 2.443457"/>
    <path d="M 181.508305 158.054604 
L 158.720761 195.884912 
" clip-path="url(#p83f0417780)" style="fill: #9acd32; stroke: #9acd32; stroke-width: 2.173129"/>
    <path d="M 149.863809 202.700883 
L 106.461195 215.330359 
" clip-path="url(#p83f0417780)" style="fill: #9acd32; stroke: #9acd32; stroke-width: 2.277598"/>
    <path d="M 305.628161 221.492984 
L 256.643817 248.889356 
" clip-path="url(#p83f0417780)" style="fill: #d3d3d3; stroke: #d3d3d3; stroke-width: 1.278137"/>
    <path d="M 215.367861 280.295048 
L 246.699472 255.538 
" clip-path="url(#p83f0417780)" style="fill: #9acd32; stroke: #9acd32; stroke-width: 3.077814"/>
    <path d="M 235.53897 114.323229 
L 286.029282 118.882553 
" clip-path="url(#p83f0417780)" style="fill: #d3d3d3; stroke: #d3d3d3; stroke-width: 2.072429"/>
    <path d="M 319.875908 82.23008 
L 295.603057 114.620731 
" clip-path="url(#p83f0417780)" style="fill: #add8e6; stroke: #add8e6; stroke-width: 2.664782"/>
    <path d="M 315.05347 222.860121 
L 345.251003 253.83074 
" clip-path="url(#p83f0417780)" style="fill: #add8e6; stroke: #add8e6; stroke-width: 1.505385"/>
    <path d="M 312.342526 212.749024 
L 323.090903 170.452206 
" clip-path="url(#p83f0417780)" style="fill: #add8e6; stroke: #add8e6; stroke-width: 3.184976"/>
    <path d="M 377.314645 165.114043 
L 330.568398 164.691289 
" clip-path="url(#p83f0417780)" style="fill: #add8e6; stroke: #add8e6; stroke-width: 1.184976"/>
    <path d="M 295.511433 124.290912 
L 321.062179 159.768281 
" clip-path="url(#p83f0417780)" style="fill: #add8e6; stroke: #add8e6; stroke-width: 2.806947"/>
    <path d="M 207.905977 278.684377 
L 192.762221 249.374471 
" clip-path="url(#p83f0417780)" style="fill: #9acd32; stroke: #9acd32; stroke-width: 2.380991"/>
    <path d="M 159.370885 205.711438 
L 186.262037 239.357006 
" clip-path="url(#p83f0417780)" style="fill: #9acd32; stroke: #9acd32; stroke-width: 2.250673"/>
    <path d="M 245.454718 251.064451 
L 195.960532 244.797625 
" clip-path="url(#p83f0417780)" style="fill: #9acd32; stroke: #9acd32; stroke-width: 3.099892"/>
   </g>
   <g id="VertexCollection_1">
    <path d="M 135.879718 132.092612 
C 137.470936 132.092612 138.997197 131.460414 140.122358 130.335252 
C 141.24752 129.210091 141.879718 127.68383 141.879718 126.092612 
C 141.879718 124.501393 141.24752 122.975132 140.122358 121.849971 
C 138.997197 120.724809 137.470936 120.092612 135.879718 120.092612 
C 134.288499 120.092612 132.762238 120.724809 131.637077 121.849971 
C 130.511915 122.975132 129.879718 124.501393 129.879718 126.092612 
C 129.879718 127.68383 130.511915 129.210091 131.637077 130.335252 
C 132.762238 131.460414 134.288499 132.092612 135.879718 132.092612 
z
" clip-path="url(#p83f0417780)" style="fill: #9acd32; stroke: #000000"/>
    <path d="M 310.864785 224.564201 
C 312.456004 224.564201 313.982265 223.932004 315.107426 222.806842 
C 316.232588 221.681681 316.864785 220.15542 316.864785 218.564201 
C 316.864785 216.972983 316.232588 215.446722 315.107426 214.321561 
C 313.982265 213.196399 312.456004 212.564201 310.864785 212.564201 
C 309.273567 212.564201 307.747306 213.196399 306.622145 214.321561 
C 305.496983 215.446722 304.864785 216.972983 304.864785 218.564201 
C 304.864785 220.15542 305.496983 221.681681 306.622145 222.806842 
C 307.747306 223.932004 309.273567 224.564201 310.864785 224.564201 
z
" clip-path="url(#p83f0417780)" style="fill: #add8e6; stroke: #000000"/>
    <path d="M 383.3144 171.168303 
C 384.905618 171.168303 386.431879 170.536105 387.557041 169.410944 
C 388.682202 168.285782 389.3144 166.759521 389.3144 165.168303 
C 389.3144 163.577084 388.682202 162.050824 387.557041 160.925662 
C 386.431879 159.800501 384.905618 159.168303 383.3144 159.168303 
C 381.723181 159.168303 380.196921 159.800501 379.071759 160.925662 
C 377.946598 162.050824 377.3144 163.577084 377.3144 165.168303 
C 377.3144 166.759521 377.946598 168.285782 379.071759 169.410944 
C 380.196921 170.536105 381.723181 171.168303 383.3144 171.168303 
z
" clip-path="url(#p83f0417780)" style="fill: #add8e6; stroke: #000000"/>
    <path d="M 229.563284 119.783619 
C 231.154503 119.783619 232.680763 119.151421 233.805925 118.026259 
C 234.931086 116.901098 235.563284 115.374837 235.563284 113.783619 
C 235.563284 112.1924 234.931086 110.666139 233.805925 109.540978 
C 232.680763 108.415817 231.154503 107.783619 229.563284 107.783619 
C 227.972065 107.783619 226.445805 108.415817 225.320643 109.540978 
C 224.195482 110.666139 223.563284 112.1924 223.563284 113.783619 
C 223.563284 115.374837 224.195482 116.901098 225.320643 118.026259 
C 226.445805 119.151421 227.972065 119.783619 229.563284 119.783619 
z
" clip-path="url(#p83f0417780)" style="fill: #9acd32; stroke: #000000"/>
    <path d="M 210.660141 290.01491 
C 212.25136 290.01491 213.77762 289.382712 214.902782 288.257551 
C 216.027943 287.132389 216.660141 285.606129 216.660141 284.01491 
C 216.660141 282.423691 216.027943 280.897431 214.902782 279.772269 
C 213.77762 278.647108 212.25136 278.01491 210.660141 278.01491 
C 209.068922 278.01491 207.542662 278.647108 206.4175 279.772269 
C 205.292339 280.897431 204.660141 282.423691 204.660141 284.01491 
C 204.660141 285.606129 205.292339 287.132389 206.4175 288.257551 
C 207.542662 289.382712 209.068922 290.01491 210.660141 290.01491 
z
" clip-path="url(#p83f0417780)" style="fill: #9acd32; stroke: #000000"/>
    <path d="M 184.604202 158.91501 
C 186.19542 158.91501 187.721681 158.282812 188.846843 157.15765 
C 189.972004 156.032489 190.604202 154.506228 190.604202 152.91501 
C 190.604202 151.323791 189.972004 149.797531 188.846843 148.672369 
C 187.721681 147.547208 186.19542 146.91501 184.604202 146.91501 
C 183.012983 146.91501 181.486723 147.547208 180.361561 148.672369 
C 179.2364 149.797531 178.604202 151.323791 178.604202 152.91501 
C 178.604202 154.506228 179.2364 156.032489 180.361561 157.15765 
C 181.486723 158.282812 183.012983 158.91501 184.604202 158.91501 
z
" clip-path="url(#p83f0417780)" style="fill: #9acd32; stroke: #000000"/>
    <path d="M 224.951387 189.374709 
C 226.542606 189.374709 228.068866 188.742511 229.194028 187.617349 
C 230.319189 186.492188 230.951387 184.965927 230.951387 183.374709 
C 230.951387 181.78349 230.319189 180.257229 229.194028 179.132068 
C 228.068866 178.006907 226.542606 177.374709 224.951387 177.374709 
C 223.360168 177.374709 221.833908 178.006907 220.708746 179.132068 
C 219.583585 180.257229 218.951387 181.78349 218.951387 183.374709 
C 218.951387 184.965927 219.583585 186.492188 220.708746 187.617349 
C 221.833908 188.742511 223.360168 189.374709 224.951387 189.374709 
z
" clip-path="url(#p83f0417780)" style="fill: #add8e6; stroke: #000000"/>
    <path d="M 323.473997 83.428648 
C 325.065216 83.428648 326.591476 82.79645 327.716638 81.671288 
C 328.841799 80.546127 329.473997 79.019866 329.473997 77.428648 
C 329.473997 75.837429 328.841799 74.311169 327.716638 73.186007 
C 326.591476 72.060846 325.065216 71.428648 323.473997 71.428648 
C 321.882778 71.428648 320.356518 72.060846 319.231356 73.186007 
C 318.106195 74.311169 317.473997 75.837429 317.473997 77.428648 
C 317.473997 79.019866 318.106195 80.546127 319.231356 81.671288 
C 320.356518 82.79645 321.882778 83.428648 323.473997 83.428648 
z
" clip-path="url(#p83f0417780)" style="fill: #add8e6; stroke: #000000"/>
    <path d="M 284.418274 286.159358 
C 286.009492 286.159358 287.535753 285.52716 288.660914 284.401998 
C 289.786076 283.276837 290.418274 281.750576 290.418274 280.159358 
C 290.418274 278.568139 289.786076 277.041878 288.660914 275.916717 
C 287.535753 274.791556 286.009492 274.159358 284.418274 274.159358 
C 282.827055 274.159358 281.300795 274.791556 280.175633 275.916717 
C 279.050472 277.041878 278.418274 278.568139 278.418274 280.159358 
C 278.418274 281.750576 279.050472 283.276837 280.175633 284.401998 
C 281.300795 285.52716 282.827055 286.159358 284.418274 286.159358 
z
" clip-path="url(#p83f0417780)" style="fill: #add8e6; stroke: #000000"/>
    <path d="M 268.566801 226.311779 
C 270.158019 226.311779 271.68428 225.679581 272.809441 224.554419 
C 273.934603 223.429258 274.566801 221.902997 274.566801 220.311779 
C 274.566801 218.72056 273.934603 217.194299 272.809441 216.069138 
C 271.68428 214.943976 270.158019 214.311779 268.566801 214.311779 
C 266.975582 214.311779 265.449321 214.943976 264.32416 216.069138 
C 263.198999 217.194299 262.566801 218.72056 262.566801 220.311779 
C 262.566801 221.902997 263.198999 223.429258 264.32416 224.554419 
C 265.449321 225.679581 266.975582 226.311779 268.566801 226.311779 
z
" clip-path="url(#p83f0417780)" style="fill: #add8e6; stroke: #000000"/>
    <path d="M 218.890047 71.04109 
C 220.481266 71.04109 222.007527 70.408892 223.132688 69.283731 
C 224.25785 68.158569 224.890047 66.632309 224.890047 65.04109 
C 224.890047 63.449871 224.25785 61.923611 223.132688 60.798449 
C 222.007527 59.673288 220.481266 59.04109 218.890047 59.04109 
C 217.298829 59.04109 215.772568 59.673288 214.647407 60.798449 
C 213.522245 61.923611 212.890047 63.449871 212.890047 65.04109 
C 212.890047 66.632309 213.522245 68.158569 214.647407 69.283731 
C 215.772568 70.408892 217.298829 71.04109 218.890047 71.04109 
z
" clip-path="url(#p83f0417780)" style="fill: #9acd32; stroke: #000000"/>
    <path d="M 89.0056 107.19016 
C 90.596819 107.19016 92.123079 106.557962 93.248241 105.432801 
C 94.373402 104.307639 95.0056 102.781379 95.0056 101.19016 
C 95.0056 99.598941 94.373402 98.072681 93.248241 96.947519 
C 92.123079 95.822358 90.596819 95.19016 89.0056 95.19016 
C 87.414382 95.19016 85.888121 95.822358 84.762959 96.947519 
C 83.637798 98.072681 83.0056 99.598941 83.0056 101.19016 
C 83.0056 102.781379 83.637798 104.307639 84.762959 105.432801 
C 85.888121 106.557962 87.414382 107.19016 89.0056 107.19016 
z
" clip-path="url(#p83f0417780)" style="fill: #9acd32; stroke: #000000"/>
    <path d="M 368.443282 217.454861 
C 370.034501 217.454861 371.560761 216.822663 372.685923 215.697502 
C 373.811084 214.57234 374.443282 213.04608 374.443282 211.454861 
C 374.443282 209.863643 373.811084 208.337382 372.685923 207.212221 
C 371.560761 206.087059 370.034501 205.454861 368.443282 205.454861 
C 366.852063 205.454861 365.325803 206.087059 364.200641 207.212221 
C 363.07548 208.337382 362.443282 209.863643 362.443282 211.454861 
C 362.443282 213.04608 363.07548 214.57234 364.200641 215.697502 
C 365.325803 216.822663 366.852063 217.454861 368.443282 217.454861 
z
" clip-path="url(#p83f0417780)" style="fill: #add8e6; stroke: #000000"/>
    <path d="M 155.624865 207.024506 
C 157.216083 207.024506 158.742344 206.392308 159.867506 205.267147 
C 160.992667 204.141985 161.624865 202.615725 161.624865 201.024506 
C 161.624865 199.433288 160.992667 197.907027 159.867506 196.781865 
C 158.742344 195.656704 157.216083 195.024506 155.624865 195.024506 
C 154.033646 195.024506 152.507386 195.656704 151.382224 196.781865 
C 150.257063 197.907027 149.624865 199.433288 149.624865 201.024506 
C 149.624865 202.615725 150.257063 204.141985 151.382224 205.267147 
C 152.507386 206.392308 154.033646 207.024506 155.624865 207.024506 
z
" clip-path="url(#p83f0417780)" style="fill: #9acd32; stroke: #000000"/>
    <path d="M 100.70014 223.006736 
C 102.291358 223.006736 103.817619 222.374538 104.94278 221.249377 
C 106.067942 220.124215 106.70014 218.597954 106.70014 217.006736 
C 106.70014 215.415517 106.067942 213.889257 104.94278 212.764095 
C 103.817619 211.638934 102.291358 211.006736 100.70014 211.006736 
C 99.108921 211.006736 97.58266 211.638934 96.457499 212.764095 
C 95.332338 213.889257 94.70014 215.415517 94.70014 217.006736 
C 94.70014 218.597954 95.332338 220.124215 96.457499 221.249377 
C 97.58266 222.374538 99.108921 223.006736 100.70014 223.006736 
z
" clip-path="url(#p83f0417780)" style="fill: #9acd32; stroke: #000000"/>
    <path d="M 251.407192 257.818138 
C 252.998411 257.818138 254.524672 257.18594 255.649833 256.060779 
C 256.774995 254.935617 257.407192 253.409357 257.407192 251.818138 
C 257.407192 250.22692 256.774995 248.700659 255.649833 247.575498 
C 254.524672 246.450336 252.998411 245.818138 251.407192 245.818138 
C 249.815974 245.818138 248.289713 246.450336 247.164552 247.575498 
C 246.03939 248.700659 245.407192 250.22692 245.407192 251.818138 
C 245.407192 253.409357 246.03939 254.935617 247.164552 256.060779 
C 248.289713 257.18594 249.815974 257.818138 251.407192 257.818138 
z
" clip-path="url(#p83f0417780)" style="fill: #9acd32; stroke: #000000"/>
    <path d="M 292.004968 125.422164 
C 293.596187 125.422164 295.122447 124.789966 296.247609 123.664804 
C 297.37277 122.539643 298.004968 121.013382 298.004968 119.422164 
C 298.004968 117.830945 297.37277 116.304684 296.247609 115.179523 
C 295.122447 114.054362 293.596187 113.422164 292.004968 113.422164 
C 290.413749 113.422164 288.887489 114.054362 287.762327 115.179523 
C 286.637166 116.304684 286.004968 117.830945 286.004968 119.422164 
C 286.004968 121.013382 286.637166 122.539643 287.762327 123.664804 
C 288.887489 124.789966 290.413749 125.422164 292.004968 125.422164 
z
" clip-path="url(#p83f0417780)" style="fill: #add8e6; stroke: #000000"/>
    <path d="M 349.439688 264.126659 
C 351.030906 264.126659 352.557167 263.494461 353.682328 262.3693 
C 354.80749 261.244138 355.439688 259.717878 355.439688 258.126659 
C 355.439688 256.53544 354.80749 255.00918 353.682328 253.884018 
C 352.557167 252.758857 351.030906 252.126659 349.439688 252.126659 
C 347.848469 252.126659 346.322208 252.758857 345.197047 253.884018 
C 344.071885 255.00918 343.439688 256.53544 343.439688 258.126659 
C 343.439688 259.717878 344.071885 261.244138 345.197047 262.3693 
C 346.322208 263.494461 347.848469 264.126659 349.439688 264.126659 
z
" clip-path="url(#p83f0417780)" style="fill: #add8e6; stroke: #000000"/>
    <path d="M 324.568643 170.637029 
C 326.159862 170.637029 327.686123 170.004831 328.811284 168.87967 
C 329.936446 167.754508 330.568643 166.228248 330.568643 164.637029 
C 330.568643 163.045811 329.936446 161.51955 328.811284 160.394389 
C 327.686123 159.269227 326.159862 158.637029 324.568643 158.637029 
C 322.977425 158.637029 321.451164 159.269227 320.326003 160.394389 
C 319.200841 161.51955 318.568643 163.045811 318.568643 164.637029 
C 318.568643 166.228248 319.200841 167.754508 320.326003 168.87967 
C 321.451164 170.004831 322.977425 170.637029 324.568643 170.637029 
z
" clip-path="url(#p83f0417780)" style="fill: #add8e6; stroke: #000000"/>
    <path d="M 190.008057 250.043938 
C 191.599276 250.043938 193.125537 249.41174 194.250698 248.286579 
C 195.37586 247.161417 196.008057 245.635157 196.008057 244.043938 
C 196.008057 242.452719 195.37586 240.926459 194.250698 239.801297 
C 193.125537 238.676136 191.599276 238.043938 190.008057 238.043938 
C 188.416839 238.043938 186.890578 238.676136 185.765417 239.801297 
C 184.640255 240.926459 184.008057 242.452719 184.008057 244.043938 
C 184.008057 245.635157 184.640255 247.161417 185.765417 248.286579 
C 186.890578 249.41174 188.416839 250.043938 190.008057 250.043938 
z
" clip-path="url(#p83f0417780)" style="fill: #9acd32; stroke: #000000"/>
   </g>
   <g id="text_1">
    <g clip-path="url(#p83f0417780)">
     <!-- 0 -->
     <g transform="translate(133.652843 128.024174) scale(0.07 -0.07)">
      <defs>
       <path id="DejaVuSans-30" d="M 2034 4250 
Q 1547 4250 1301 3770 
Q 1056 3291 1056 2328 
Q 1056 1369 1301 889 
Q 1547 409 2034 409 
Q 2525 409 2770 889 
Q 3016 1369 3016 2328 
Q 3016 3291 2770 3770 
Q 2525 4250 2034 4250 
z
M 2034 4750 
Q 2819 4750 3233 4129 
Q 3647 3509 3647 2328 
Q 3647 1150 3233 529 
Q 2819 -91 2034 -91 
Q 1250 -91 836 529 
Q 422 1150 422 2328 
Q 422 3509 836 4129 
Q 1250 4750 2034 4750 
z
" transform="scale(0.015625)"/>
      </defs>
      <use xlink:href="#DejaVuSans-30"/>
     </g>
    </g>
   </g>
   <g id="text_2">
    <g clip-path="url(#p83f0417780)">
     <!-- 1 -->
     <g transform="translate(308.63791 220.495764) scale(0.07 -0.07)">
      <defs>
       <path id="DejaVuSans-31" d="M 794 531 
L 1825 531 
L 1825 4091 
L 703 3866 
L 703 4441 
L 1819 4666 
L 2450 4666 
L 2450 531 
L 3481 531 
L 3481 0 
L 794 0 
L 794 531 
z
" transform="scale(0.015625)"/>
      </defs>
      <use xlink:href="#DejaVuSans-31"/>
     </g>
    </g>
   </g>
   <g id="text_3">
    <g clip-path="url(#p83f0417780)">
     <!-- 2 -->
     <g transform="translate(381.087525 167.099865) scale(0.07 -0.07)">
      <defs>
       <path id="DejaVuSans-32" d="M 1228 531 
L 3431 531 
L 3431 0 
L 469 0 
L 469 531 
Q 828 903 1448 1529 
Q 2069 2156 2228 2338 
Q 2531 2678 2651 2914 
Q 2772 3150 2772 3378 
Q 2772 3750 2511 3984 
Q 2250 4219 1831 4219 
Q 1534 4219 1204 4116 
Q 875 4013 500 3803 
L 500 4441 
Q 881 4594 1212 4672 
Q 1544 4750 1819 4750 
Q 2544 4750 2975 4387 
Q 3406 4025 3406 3419 
Q 3406 3131 3298 2873 
Q 3191 2616 2906 2266 
Q 2828 2175 2409 1742 
Q 1991 1309 1228 531 
z
" transform="scale(0.015625)"/>
      </defs>
      <use xlink:href="#DejaVuSans-32"/>
     </g>
    </g>
   </g>
   <g id="text_4">
    <g clip-path="url(#p83f0417780)">
     <!-- 3 -->
     <g transform="translate(227.336409 115.715181) scale(0.07 -0.07)">
      <defs>
       <path id="DejaVuSans-33" d="M 2597 2516 
Q 3050 2419 3304 2112 
Q 3559 1806 3559 1356 
Q 3559 666 3084 287 
Q 2609 -91 1734 -91 
Q 1441 -91 1130 -33 
Q 819 25 488 141 
L 488 750 
Q 750 597 1062 519 
Q 1375 441 1716 441 
Q 2309 441 2620 675 
Q 2931 909 2931 1356 
Q 2931 1769 2642 2001 
Q 2353 2234 1838 2234 
L 1294 2234 
L 1294 2753 
L 1863 2753 
Q 2328 2753 2575 2939 
Q 2822 3125 2822 3475 
Q 2822 3834 2567 4026 
Q 2313 4219 1838 4219 
Q 1578 4219 1281 4162 
Q 984 4106 628 3988 
L 628 4550 
Q 988 4650 1302 4700 
Q 1616 4750 1894 4750 
Q 2613 4750 3031 4423 
Q 3450 4097 3450 3541 
Q 3450 3153 3228 2886 
Q 3006 2619 2597 2516 
z
" transform="scale(0.015625)"/>
      </defs>
      <use xlink:href="#DejaVuSans-33"/>
     </g>
    </g>
   </g>
   <g id="text_5">
    <g clip-path="url(#p83f0417780)">
     <!-- 4 -->
     <g transform="translate(208.433266 285.946472) scale(0.07 -0.07)">
      <defs>
       <path id="DejaVuSans-34" d="M 2419 4116 
L 825 1625 
L 2419 1625 
L 2419 4116 
z
M 2253 4666 
L 3047 4666 
L 3047 1625 
L 3713 1625 
L 3713 1100 
L 3047 1100 
L 3047 0 
L 2419 0 
L 2419 1100 
L 313 1100 
L 313 1709 
L 2253 4666 
z
" transform="scale(0.015625)"/>
      </defs>
      <use xlink:href="#DejaVuSans-34"/>
     </g>
    </g>
   </g>
   <g id="text_6">
    <g clip-path="url(#p83f0417780)">
     <!-- 5 -->
     <g transform="translate(182.377327 154.846572) scale(0.07 -0.07)">
      <defs>
       <path id="DejaVuSans-35" d="M 691 4666 
L 3169 4666 
L 3169 4134 
L 1269 4134 
L 1269 2991 
Q 1406 3038 1543 3061 
Q 1681 3084 1819 3084 
Q 2600 3084 3056 2656 
Q 3513 2228 3513 1497 
Q 3513 744 3044 326 
Q 2575 -91 1722 -91 
Q 1428 -91 1123 -41 
Q 819 9 494 109 
L 494 744 
Q 775 591 1075 516 
Q 1375 441 1709 441 
Q 2250 441 2565 725 
Q 2881 1009 2881 1497 
Q 2881 1984 2565 2268 
Q 2250 2553 1709 2553 
Q 1456 2553 1204 2497 
Q 953 2441 691 2322 
L 691 4666 
z
" transform="scale(0.015625)"/>
      </defs>
      <use xlink:href="#DejaVuSans-35"/>
     </g>
    </g>
   </g>
   <g id="text_7">
    <g clip-path="url(#p83f0417780)">
     <!-- 6 -->
     <g transform="translate(222.724512 185.306271) scale(0.07 -0.07)">
      <defs>
       <path id="DejaVuSans-36" d="M 2113 2584 
Q 1688 2584 1439 2293 
Q 1191 2003 1191 1497 
Q 1191 994 1439 701 
Q 1688 409 2113 409 
Q 2538 409 2786 701 
Q 3034 994 3034 1497 
Q 3034 2003 2786 2293 
Q 2538 2584 2113 2584 
z
M 3366 4563 
L 3366 3988 
Q 3128 4100 2886 4159 
Q 2644 4219 2406 4219 
Q 1781 4219 1451 3797 
Q 1122 3375 1075 2522 
Q 1259 2794 1537 2939 
Q 1816 3084 2150 3084 
Q 2853 3084 3261 2657 
Q 3669 2231 3669 1497 
Q 3669 778 3244 343 
Q 2819 -91 2113 -91 
Q 1303 -91 875 529 
Q 447 1150 447 2328 
Q 447 3434 972 4092 
Q 1497 4750 2381 4750 
Q 2619 4750 2861 4703 
Q 3103 4656 3366 4563 
z
" transform="scale(0.015625)"/>
      </defs>
      <use xlink:href="#DejaVuSans-36"/>
     </g>
    </g>
   </g>
   <g id="text_8">
    <g clip-path="url(#p83f0417780)">
     <!-- 7 -->
     <g transform="translate(321.247122 79.36021) scale(0.07 -0.07)">
      <defs>
       <path id="DejaVuSans-37" d="M 525 4666 
L 3525 4666 
L 3525 4397 
L 1831 0 
L 1172 0 
L 2766 4134 
L 525 4134 
L 525 4666 
z
" transform="scale(0.015625)"/>
      </defs>
      <use xlink:href="#DejaVuSans-37"/>
     </g>
    </g>
   </g>
   <g id="text_9">
    <g clip-path="url(#p83f0417780)">
     <!-- 8 -->
     <g transform="translate(282.191399 282.09092) scale(0.07 -0.07)">
      <defs>
       <path id="DejaVuSans-38" d="M 2034 2216 
Q 1584 2216 1326 1975 
Q 1069 1734 1069 1313 
Q 1069 891 1326 650 
Q 1584 409 2034 409 
Q 2484 409 2743 651 
Q 3003 894 3003 1313 
Q 3003 1734 2745 1975 
Q 2488 2216 2034 2216 
z
M 1403 2484 
Q 997 2584 770 2862 
Q 544 3141 544 3541 
Q 544 4100 942 4425 
Q 1341 4750 2034 4750 
Q 2731 4750 3128 4425 
Q 3525 4100 3525 3541 
Q 3525 3141 3298 2862 
Q 3072 2584 2669 2484 
Q 3125 2378 3379 2068 
Q 3634 1759 3634 1313 
Q 3634 634 3220 271 
Q 2806 -91 2034 -91 
Q 1263 -91 848 271 
Q 434 634 434 1313 
Q 434 1759 690 2068 
Q 947 2378 1403 2484 
z
M 1172 3481 
Q 1172 3119 1398 2916 
Q 1625 2713 2034 2713 
Q 2441 2713 2670 2916 
Q 2900 3119 2900 3481 
Q 2900 3844 2670 4047 
Q 2441 4250 2034 4250 
Q 1625 4250 1398 4047 
Q 1172 3844 1172 3481 
z
" transform="scale(0.015625)"/>
      </defs>
      <use xlink:href="#DejaVuSans-38"/>
     </g>
    </g>
   </g>
   <g id="text_10">
    <g clip-path="url(#p83f0417780)">
     <!-- 9 -->
     <g transform="translate(266.339926 222.243341) scale(0.07 -0.07)">
      <defs>
       <path id="DejaVuSans-39" d="M 703 97 
L 703 672 
Q 941 559 1184 500 
Q 1428 441 1663 441 
Q 2288 441 2617 861 
Q 2947 1281 2994 2138 
Q 2813 1869 2534 1725 
Q 2256 1581 1919 1581 
Q 1219 1581 811 2004 
Q 403 2428 403 3163 
Q 403 3881 828 4315 
Q 1253 4750 1959 4750 
Q 2769 4750 3195 4129 
Q 3622 3509 3622 2328 
Q 3622 1225 3098 567 
Q 2575 -91 1691 -91 
Q 1453 -91 1209 -44 
Q 966 3 703 97 
z
M 1959 2075 
Q 2384 2075 2632 2365 
Q 2881 2656 2881 3163 
Q 2881 3666 2632 3958 
Q 2384 4250 1959 4250 
Q 1534 4250 1286 3958 
Q 1038 3666 1038 3163 
Q 1038 2656 1286 2365 
Q 1534 2075 1959 2075 
z
" transform="scale(0.015625)"/>
      </defs>
      <use xlink:href="#DejaVuSans-39"/>
     </g>
    </g>
   </g>
   <g id="text_11">
    <g clip-path="url(#p83f0417780)">
     <!-- 10 -->
     <g transform="translate(214.436297 66.972653) scale(0.07 -0.07)">
      <use xlink:href="#DejaVuSans-31"/>
      <use xlink:href="#DejaVuSans-30" x="63.623047"/>
     </g>
    </g>
   </g>
   <g id="text_12">
    <g clip-path="url(#p83f0417780)">
     <!-- 11 -->
     <g transform="translate(84.55185 103.121723) scale(0.07 -0.07)">
      <use xlink:href="#DejaVuSans-31"/>
      <use xlink:href="#DejaVuSans-31" x="63.623047"/>
     </g>
    </g>
   </g>
   <g id="text_13">
    <g clip-path="url(#p83f0417780)">
     <!-- 12 -->
     <g transform="translate(363.989532 213.386424) scale(0.07 -0.07)">
      <use xlink:href="#DejaVuSans-31"/>
      <use xlink:href="#DejaVuSans-32" x="63.623047"/>
     </g>
    </g>
   </g>
   <g id="text_14">
    <g clip-path="url(#p83f0417780)">
     <!-- 13 -->
     <g transform="translate(151.171115 202.956069) scale(0.07 -0.07)">
      <use xlink:href="#DejaVuSans-31"/>
      <use xlink:href="#DejaVuSans-33" x="63.623047"/>
     </g>
    </g>
   </g>
   <g id="text_15">
    <g clip-path="url(#p83f0417780)">
     <!-- 14 -->
     <g transform="translate(96.24639 218.938298) scale(0.07 -0.07)">
      <use xlink:href="#DejaVuSans-31"/>
      <use xlink:href="#DejaVuSans-34" x="63.623047"/>
     </g>
    </g>
   </g>
   <g id="text_16">
    <g clip-path="url(#p83f0417780)">
     <!-- 15 -->
     <g transform="translate(246.953442 253.749701) scale(0.07 -0.07)">
      <use xlink:href="#DejaVuSans-31"/>
      <use xlink:href="#DejaVuSans-35" x="63.623047"/>
     </g>
    </g>
   </g>
   <g id="text_17">
    <g clip-path="url(#p83f0417780)">
     <!-- 16 -->
     <g transform="translate(287.551218 121.353726) scale(0.07 -0.07)">
      <use xlink:href="#DejaVuSans-31"/>
      <use xlink:href="#DejaVuSans-36" x="63.623047"/>
     </g>
    </g>
   </g>
   <g id="text_18">
    <g clip-path="url(#p83f0417780)">
     <!-- 17 -->
     <g transform="translate(344.985938 260.058221) scale(0.07 -0.07)">
      <use xlink:href="#DejaVuSans-31"/>
      <use xlink:href="#DejaVuSans-37" x="63.623047"/>
     </g>
    </g>
   </g>
   <g id="text_19">
    <g clip-path="url(#p83f0417780)">
     <!-- 18 -->
     <g transform="translate(320.114893 166.568592) scale(0.07 -0.07)">
      <use xlink:href="#DejaVuSans-31"/>
      <use xlink:href="#DejaVuSans-38" x="63.623047"/>
     </g>
    </g>
   </g>
   <g id="text_20">
    <g clip-path="url(#p83f0417780)">
     <!-- 19 -->
     <g transform="translate(185.554307 245.975501) scale(0.07 -0.07)">
      <use xlink:href="#DejaVuSans-31"/>
      <use xlink:href="#DejaVuSans-39" x="63.623047"/>
     </g>
    </g>
   </g>
   <g id="PathCollection_1"/>
   <g id="PathCollection_2"/>
   <g id="matplotlib.axis_1"/>
   <g id="matplotlib.axis_2"/>
   <g id="text_21">
    <g id="patch_3">
     <path d="M 277.19385 83.020553 
L 407.5776 83.020553 
Q 414.5776 83.020553 414.5776 76.020553 
L 414.5776 46.79424 
Q 414.5776 39.79424 407.5776 39.79424 
L 277.19385 39.79424 
Q 270.19385 39.79424 270.19385 46.79424 
L 270.19385 76.020553 
Q 270.19385 83.020553 277.19385 83.020553 
z
" style="fill: #ffffff; opacity: 0.2; stroke: #000000; stroke-linejoin: miter"/>
    </g>
    <!-- Total Cuts: 6.494 -->
    <g transform="translate(289.75885 57.432052) scale(0.14 -0.14)">
     <defs>
      <path id="DejaVuSans-54" d="M -19 4666 
L 3928 4666 
L 3928 4134 
L 2272 4134 
L 2272 0 
L 1638 0 
L 1638 4134 
L -19 4134 
L -19 4666 
z
" transform="scale(0.015625)"/>
      <path id="DejaVuSans-6f" d="M 1959 3097 
Q 1497 3097 1228 2736 
Q 959 2375 959 1747 
Q 959 1119 1226 758 
Q 1494 397 1959 397 
Q 2419 397 2687 759 
Q 2956 1122 2956 1747 
Q 2956 2369 2687 2733 
Q 2419 3097 1959 3097 
z
M 1959 3584 
Q 2709 3584 3137 3096 
Q 3566 2609 3566 1747 
Q 3566 888 3137 398 
Q 2709 -91 1959 -91 
Q 1206 -91 779 398 
Q 353 888 353 1747 
Q 353 2609 779 3096 
Q 1206 3584 1959 3584 
z
" transform="scale(0.015625)"/>
      <path id="DejaVuSans-74" d="M 1172 4494 
L 1172 3500 
L 2356 3500 
L 2356 3053 
L 1172 3053 
L 1172 1153 
Q 1172 725 1289 603 
Q 1406 481 1766 481 
L 2356 481 
L 2356 0 
L 1766 0 
Q 1100 0 847 248 
Q 594 497 594 1153 
L 594 3053 
L 172 3053 
L 172 3500 
L 594 3500 
L 594 4494 
L 1172 4494 
z
" transform="scale(0.015625)"/>
      <path id="DejaVuSans-61" d="M 2194 1759 
Q 1497 1759 1228 1600 
Q 959 1441 959 1056 
Q 959 750 1161 570 
Q 1363 391 1709 391 
Q 2188 391 2477 730 
Q 2766 1069 2766 1631 
L 2766 1759 
L 2194 1759 
z
M 3341 1997 
L 3341 0 
L 2766 0 
L 2766 531 
Q 2569 213 2275 61 
Q 1981 -91 1556 -91 
Q 1019 -91 701 211 
Q 384 513 384 1019 
Q 384 1609 779 1909 
Q 1175 2209 1959 2209 
L 2766 2209 
L 2766 2266 
Q 2766 2663 2505 2880 
Q 2244 3097 1772 3097 
Q 1472 3097 1187 3025 
Q 903 2953 641 2809 
L 641 3341 
Q 956 3463 1253 3523 
Q 1550 3584 1831 3584 
Q 2591 3584 2966 3190 
Q 3341 2797 3341 1997 
z
" transform="scale(0.015625)"/>
      <path id="DejaVuSans-6c" d="M 603 4863 
L 1178 4863 
L 1178 0 
L 603 0 
L 603 4863 
z
" transform="scale(0.015625)"/>
      <path id="DejaVuSans-20" transform="scale(0.015625)"/>
      <path id="DejaVuSans-43" d="M 4122 4306 
L 4122 3641 
Q 3803 3938 3442 4084 
Q 3081 4231 2675 4231 
Q 1875 4231 1450 3742 
Q 1025 3253 1025 2328 
Q 1025 1406 1450 917 
Q 1875 428 2675 428 
Q 3081 428 3442 575 
Q 3803 722 4122 1019 
L 4122 359 
Q 3791 134 3420 21 
Q 3050 -91 2638 -91 
Q 1578 -91 968 557 
Q 359 1206 359 2328 
Q 359 3453 968 4101 
Q 1578 4750 2638 4750 
Q 3056 4750 3426 4639 
Q 3797 4528 4122 4306 
z
" transform="scale(0.015625)"/>
      <path id="DejaVuSans-75" d="M 544 1381 
L 544 3500 
L 1119 3500 
L 1119 1403 
Q 1119 906 1312 657 
Q 1506 409 1894 409 
Q 2359 409 2629 706 
Q 2900 1003 2900 1516 
L 2900 3500 
L 3475 3500 
L 3475 0 
L 2900 0 
L 2900 538 
Q 2691 219 2414 64 
Q 2138 -91 1772 -91 
Q 1169 -91 856 284 
Q 544 659 544 1381 
z
M 1991 3584 
L 1991 3584 
z
" transform="scale(0.015625)"/>
      <path id="DejaVuSans-73" d="M 2834 3397 
L 2834 2853 
Q 2591 2978 2328 3040 
Q 2066 3103 1784 3103 
Q 1356 3103 1142 2972 
Q 928 2841 928 2578 
Q 928 2378 1081 2264 
Q 1234 2150 1697 2047 
L 1894 2003 
Q 2506 1872 2764 1633 
Q 3022 1394 3022 966 
Q 3022 478 2636 193 
Q 2250 -91 1575 -91 
Q 1294 -91 989 -36 
Q 684 19 347 128 
L 347 722 
Q 666 556 975 473 
Q 1284 391 1588 391 
Q 1994 391 2212 530 
Q 2431 669 2431 922 
Q 2431 1156 2273 1281 
Q 2116 1406 1581 1522 
L 1381 1569 
Q 847 1681 609 1914 
Q 372 2147 372 2553 
Q 372 3047 722 3315 
Q 1072 3584 1716 3584 
Q 2034 3584 2315 3537 
Q 2597 3491 2834 3397 
z
" transform="scale(0.015625)"/>
      <path id="DejaVuSans-3a" d="M 750 794 
L 1409 794 
L 1409 0 
L 750 0 
L 750 794 
z
M 750 3309 
L 1409 3309 
L 1409 2516 
L 750 2516 
L 750 3309 
z
" transform="scale(0.015625)"/>
      <path id="DejaVuSans-2e" d="M 684 794 
L 1344 794 
L 1344 0 
L 684 0 
L 684 794 
z
" transform="scale(0.015625)"/>
     </defs>
     <use xlink:href="#DejaVuSans-54"/>
     <use xlink:href="#DejaVuSans-6f" x="44.083984"/>
     <use xlink:href="#DejaVuSans-74" x="105.265625"/>
     <use xlink:href="#DejaVuSans-61" x="144.474609"/>
     <use xlink:href="#DejaVuSans-6c" x="205.753906"/>
     <use xlink:href="#DejaVuSans-20" x="233.537109"/>
     <use xlink:href="#DejaVuSans-43" x="265.324219"/>
     <use xlink:href="#DejaVuSans-75" x="335.148438"/>
     <use xlink:href="#DejaVuSans-74" x="398.527344"/>
     <use xlink:href="#DejaVuSans-73" x="437.736328"/>
     <use xlink:href="#DejaVuSans-3a" x="489.835938"/>
     <use xlink:href="#DejaVuSans-20" x="523.527344"/>
     <use xlink:href="#DejaVuSans-36" x="555.314453"/>
     <use xlink:href="#DejaVuSans-2e" x="618.9375"/>
     <use xlink:href="#DejaVuSans-34" x="650.724609"/>
     <use xlink:href="#DejaVuSans-39" x="714.347656"/>
     <use xlink:href="#DejaVuSans-34" x="777.970703"/>
    </g>
    <!-- Runtime (s): 0.009 -->
    <g transform="translate(277.19385 73.10899) scale(0.14 -0.14)">
     <defs>
      <path id="DejaVuSans-52" d="M 2841 2188 
Q 3044 2119 3236 1894 
Q 3428 1669 3622 1275 
L 4263 0 
L 3584 0 
L 2988 1197 
Q 2756 1666 2539 1819 
Q 2322 1972 1947 1972 
L 1259 1972 
L 1259 0 
L 628 0 
L 628 4666 
L 2053 4666 
Q 2853 4666 3247 4331 
Q 3641 3997 3641 3322 
Q 3641 2881 3436 2590 
Q 3231 2300 2841 2188 
z
M 1259 4147 
L 1259 2491 
L 2053 2491 
Q 2509 2491 2742 2702 
Q 2975 2913 2975 3322 
Q 2975 3731 2742 3939 
Q 2509 4147 2053 4147 
L 1259 4147 
z
" transform="scale(0.015625)"/>
      <path id="DejaVuSans-6e" d="M 3513 2113 
L 3513 0 
L 2938 0 
L 2938 2094 
Q 2938 2591 2744 2837 
Q 2550 3084 2163 3084 
Q 1697 3084 1428 2787 
Q 1159 2491 1159 1978 
L 1159 0 
L 581 0 
L 581 3500 
L 1159 3500 
L 1159 2956 
Q 1366 3272 1645 3428 
Q 1925 3584 2291 3584 
Q 2894 3584 3203 3211 
Q 3513 2838 3513 2113 
z
" transform="scale(0.015625)"/>
      <path id="DejaVuSans-69" d="M 603 3500 
L 1178 3500 
L 1178 0 
L 603 0 
L 603 3500 
z
M 603 4863 
L 1178 4863 
L 1178 4134 
L 603 4134 
L 603 4863 
z
" transform="scale(0.015625)"/>
      <path id="DejaVuSans-6d" d="M 3328 2828 
Q 3544 3216 3844 3400 
Q 4144 3584 4550 3584 
Q 5097 3584 5394 3201 
Q 5691 2819 5691 2113 
L 5691 0 
L 5113 0 
L 5113 2094 
Q 5113 2597 4934 2840 
Q 4756 3084 4391 3084 
Q 3944 3084 3684 2787 
Q 3425 2491 3425 1978 
L 3425 0 
L 2847 0 
L 2847 2094 
Q 2847 2600 2669 2842 
Q 2491 3084 2119 3084 
Q 1678 3084 1418 2786 
Q 1159 2488 1159 1978 
L 1159 0 
L 581 0 
L 581 3500 
L 1159 3500 
L 1159 2956 
Q 1356 3278 1631 3431 
Q 1906 3584 2284 3584 
Q 2666 3584 2933 3390 
Q 3200 3197 3328 2828 
z
" transform="scale(0.015625)"/>
      <path id="DejaVuSans-65" d="M 3597 1894 
L 3597 1613 
L 953 1613 
Q 991 1019 1311 708 
Q 1631 397 2203 397 
Q 2534 397 2845 478 
Q 3156 559 3463 722 
L 3463 178 
Q 3153 47 2828 -22 
Q 2503 -91 2169 -91 
Q 1331 -91 842 396 
Q 353 884 353 1716 
Q 353 2575 817 3079 
Q 1281 3584 2069 3584 
Q 2775 3584 3186 3129 
Q 3597 2675 3597 1894 
z
M 3022 2063 
Q 3016 2534 2758 2815 
Q 2500 3097 2075 3097 
Q 1594 3097 1305 2825 
Q 1016 2553 972 2059 
L 3022 2063 
z
" transform="scale(0.015625)"/>
      <path id="DejaVuSans-28" d="M 1984 4856 
Q 1566 4138 1362 3434 
Q 1159 2731 1159 2009 
Q 1159 1288 1364 580 
Q 1569 -128 1984 -844 
L 1484 -844 
Q 1016 -109 783 600 
Q 550 1309 550 2009 
Q 550 2706 781 3412 
Q 1013 4119 1484 4856 
L 1984 4856 
z
" transform="scale(0.015625)"/>
      <path id="DejaVuSans-29" d="M 513 4856 
L 1013 4856 
Q 1481 4119 1714 3412 
Q 1947 2706 1947 2009 
Q 1947 1309 1714 600 
Q 1481 -109 1013 -844 
L 513 -844 
Q 928 -128 1133 580 
Q 1338 1288 1338 2009 
Q 1338 2731 1133 3434 
Q 928 4138 513 4856 
z
" transform="scale(0.015625)"/>
     </defs>
     <use xlink:href="#DejaVuSans-52"/>
     <use xlink:href="#DejaVuSans-75" x="64.982422"/>
     <use xlink:href="#DejaVuSans-6e" x="128.361328"/>
     <use xlink:href="#DejaVuSans-74" x="191.740234"/>
     <use xlink:href="#DejaVuSans-69" x="230.949219"/>
     <use xlink:href="#DejaVuSans-6d" x="258.732422"/>
     <use xlink:href="#DejaVuSans-65" x="356.144531"/>
     <use xlink:href="#DejaVuSans-20" x="417.667969"/>
     <use xlink:href="#DejaVuSans-28" x="449.455078"/>
     <use xlink:href="#DejaVuSans-73" x="488.46875"/>
     <use xlink:href="#DejaVuSans-29" x="540.568359"/>
     <use xlink:href="#DejaVuSans-3a" x="579.582031"/>
     <use xlink:href="#DejaVuSans-20" x="613.273438"/>
     <use xlink:href="#DejaVuSans-30" x="645.060547"/>
     <use xlink:href="#DejaVuSans-2e" x="708.683594"/>
     <use xlink:href="#DejaVuSans-30" x="740.470703"/>
     <use xlink:href="#DejaVuSans-30" x="804.09375"/>
     <use xlink:href="#DejaVuSans-39" x="867.716797"/>
    </g>
   </g>
   <g id="text_22">
    <!-- Weighted, 20 vertices, 12.105% density -->
    <g transform="translate(78.827344 35.472) scale(0.14 -0.14)">
     <defs>
      <path id="DejaVuSans-Bold-57" d="M 191 4666 
L 1344 4666 
L 2150 1275 
L 2950 4666 
L 4109 4666 
L 4909 1275 
L 5716 4666 
L 6859 4666 
L 5759 0 
L 4372 0 
L 3525 3547 
L 2688 0 
L 1300 0 
L 191 4666 
z
" transform="scale(0.015625)"/>
      <path id="DejaVuSans-Bold-65" d="M 4031 1759 
L 4031 1441 
L 1416 1441 
Q 1456 1047 1700 850 
Q 1944 653 2381 653 
Q 2734 653 3104 758 
Q 3475 863 3866 1075 
L 3866 213 
Q 3469 63 3072 -14 
Q 2675 -91 2278 -91 
Q 1328 -91 801 392 
Q 275 875 275 1747 
Q 275 2603 792 3093 
Q 1309 3584 2216 3584 
Q 3041 3584 3536 3087 
Q 4031 2591 4031 1759 
z
M 2881 2131 
Q 2881 2450 2695 2645 
Q 2509 2841 2209 2841 
Q 1884 2841 1681 2658 
Q 1478 2475 1428 2131 
L 2881 2131 
z
" transform="scale(0.015625)"/>
      <path id="DejaVuSans-Bold-69" d="M 538 3500 
L 1656 3500 
L 1656 0 
L 538 0 
L 538 3500 
z
M 538 4863 
L 1656 4863 
L 1656 3950 
L 538 3950 
L 538 4863 
z
" transform="scale(0.015625)"/>
      <path id="DejaVuSans-Bold-67" d="M 2919 594 
Q 2688 288 2409 144 
Q 2131 0 1766 0 
Q 1125 0 706 504 
Q 288 1009 288 1791 
Q 288 2575 706 3076 
Q 1125 3578 1766 3578 
Q 2131 3578 2409 3434 
Q 2688 3291 2919 2981 
L 2919 3500 
L 4044 3500 
L 4044 353 
Q 4044 -491 3511 -936 
Q 2978 -1381 1966 -1381 
Q 1638 -1381 1331 -1331 
Q 1025 -1281 716 -1178 
L 716 -306 
Q 1009 -475 1290 -558 
Q 1572 -641 1856 -641 
Q 2406 -641 2662 -400 
Q 2919 -159 2919 353 
L 2919 594 
z
M 2181 2772 
Q 1834 2772 1640 2515 
Q 1447 2259 1447 1791 
Q 1447 1309 1634 1061 
Q 1822 813 2181 813 
Q 2531 813 2725 1069 
Q 2919 1325 2919 1791 
Q 2919 2259 2725 2515 
Q 2531 2772 2181 2772 
z
" transform="scale(0.015625)"/>
      <path id="DejaVuSans-Bold-68" d="M 4056 2131 
L 4056 0 
L 2931 0 
L 2931 347 
L 2931 1625 
Q 2931 2084 2911 2256 
Q 2891 2428 2841 2509 
Q 2775 2619 2662 2680 
Q 2550 2741 2406 2741 
Q 2056 2741 1856 2470 
Q 1656 2200 1656 1722 
L 1656 0 
L 538 0 
L 538 4863 
L 1656 4863 
L 1656 2988 
Q 1909 3294 2193 3439 
Q 2478 3584 2822 3584 
Q 3428 3584 3742 3212 
Q 4056 2841 4056 2131 
z
" transform="scale(0.015625)"/>
      <path id="DejaVuSans-Bold-74" d="M 1759 4494 
L 1759 3500 
L 2913 3500 
L 2913 2700 
L 1759 2700 
L 1759 1216 
Q 1759 972 1856 886 
Q 1953 800 2241 800 
L 2816 800 
L 2816 0 
L 1856 0 
Q 1194 0 917 276 
Q 641 553 641 1216 
L 641 2700 
L 84 2700 
L 84 3500 
L 641 3500 
L 641 4494 
L 1759 4494 
z
" transform="scale(0.015625)"/>
      <path id="DejaVuSans-Bold-64" d="M 2919 2988 
L 2919 4863 
L 4044 4863 
L 4044 0 
L 2919 0 
L 2919 506 
Q 2688 197 2409 53 
Q 2131 -91 1766 -91 
Q 1119 -91 703 423 
Q 288 938 288 1747 
Q 288 2556 703 3070 
Q 1119 3584 1766 3584 
Q 2128 3584 2408 3439 
Q 2688 3294 2919 2988 
z
M 2181 722 
Q 2541 722 2730 984 
Q 2919 1247 2919 1747 
Q 2919 2247 2730 2509 
Q 2541 2772 2181 2772 
Q 1825 2772 1636 2509 
Q 1447 2247 1447 1747 
Q 1447 1247 1636 984 
Q 1825 722 2181 722 
z
" transform="scale(0.015625)"/>
      <path id="DejaVuSans-Bold-2c" d="M 653 1209 
L 1778 1209 
L 1778 256 
L 1006 -909 
L 341 -909 
L 653 256 
L 653 1209 
z
" transform="scale(0.015625)"/>
      <path id="DejaVuSans-Bold-20" transform="scale(0.015625)"/>
      <path id="DejaVuSans-Bold-32" d="M 1844 884 
L 3897 884 
L 3897 0 
L 506 0 
L 506 884 
L 2209 2388 
Q 2438 2594 2547 2791 
Q 2656 2988 2656 3200 
Q 2656 3528 2436 3728 
Q 2216 3928 1850 3928 
Q 1569 3928 1234 3808 
Q 900 3688 519 3450 
L 519 4475 
Q 925 4609 1322 4679 
Q 1719 4750 2100 4750 
Q 2938 4750 3402 4381 
Q 3866 4013 3866 3353 
Q 3866 2972 3669 2642 
Q 3472 2313 2841 1759 
L 1844 884 
z
" transform="scale(0.015625)"/>
      <path id="DejaVuSans-Bold-30" d="M 2944 2338 
Q 2944 3213 2780 3570 
Q 2616 3928 2228 3928 
Q 1841 3928 1675 3570 
Q 1509 3213 1509 2338 
Q 1509 1453 1675 1090 
Q 1841 728 2228 728 
Q 2613 728 2778 1090 
Q 2944 1453 2944 2338 
z
M 4147 2328 
Q 4147 1169 3647 539 
Q 3147 -91 2228 -91 
Q 1306 -91 806 539 
Q 306 1169 306 2328 
Q 306 3491 806 4120 
Q 1306 4750 2228 4750 
Q 3147 4750 3647 4120 
Q 4147 3491 4147 2328 
z
" transform="scale(0.015625)"/>
      <path id="DejaVuSans-Bold-76" d="M 97 3500 
L 1216 3500 
L 2088 1081 
L 2956 3500 
L 4078 3500 
L 2700 0 
L 1472 0 
L 97 3500 
z
" transform="scale(0.015625)"/>
      <path id="DejaVuSans-Bold-72" d="M 3138 2547 
Q 2991 2616 2845 2648 
Q 2700 2681 2553 2681 
Q 2122 2681 1889 2404 
Q 1656 2128 1656 1613 
L 1656 0 
L 538 0 
L 538 3500 
L 1656 3500 
L 1656 2925 
Q 1872 3269 2151 3426 
Q 2431 3584 2822 3584 
Q 2878 3584 2943 3579 
Q 3009 3575 3134 3559 
L 3138 2547 
z
" transform="scale(0.015625)"/>
      <path id="DejaVuSans-Bold-63" d="M 3366 3391 
L 3366 2478 
Q 3138 2634 2908 2709 
Q 2678 2784 2431 2784 
Q 1963 2784 1702 2511 
Q 1441 2238 1441 1747 
Q 1441 1256 1702 982 
Q 1963 709 2431 709 
Q 2694 709 2930 787 
Q 3166 866 3366 1019 
L 3366 103 
Q 3103 6 2833 -42 
Q 2563 -91 2291 -91 
Q 1344 -91 809 395 
Q 275 881 275 1747 
Q 275 2613 809 3098 
Q 1344 3584 2291 3584 
Q 2566 3584 2833 3536 
Q 3100 3488 3366 3391 
z
" transform="scale(0.015625)"/>
      <path id="DejaVuSans-Bold-73" d="M 3272 3391 
L 3272 2541 
Q 2913 2691 2578 2766 
Q 2244 2841 1947 2841 
Q 1628 2841 1473 2761 
Q 1319 2681 1319 2516 
Q 1319 2381 1436 2309 
Q 1553 2238 1856 2203 
L 2053 2175 
Q 2913 2066 3209 1816 
Q 3506 1566 3506 1031 
Q 3506 472 3093 190 
Q 2681 -91 1863 -91 
Q 1516 -91 1145 -36 
Q 775 19 384 128 
L 384 978 
Q 719 816 1070 734 
Q 1422 653 1784 653 
Q 2113 653 2278 743 
Q 2444 834 2444 1013 
Q 2444 1163 2330 1236 
Q 2216 1309 1875 1350 
L 1678 1375 
Q 931 1469 631 1722 
Q 331 1975 331 2491 
Q 331 3047 712 3315 
Q 1094 3584 1881 3584 
Q 2191 3584 2531 3537 
Q 2872 3491 3272 3391 
z
" transform="scale(0.015625)"/>
      <path id="DejaVuSans-Bold-31" d="M 750 831 
L 1813 831 
L 1813 3847 
L 722 3622 
L 722 4441 
L 1806 4666 
L 2950 4666 
L 2950 831 
L 4013 831 
L 4013 0 
L 750 0 
L 750 831 
z
" transform="scale(0.015625)"/>
      <path id="DejaVuSans-Bold-2e" d="M 653 1209 
L 1778 1209 
L 1778 0 
L 653 0 
L 653 1209 
z
" transform="scale(0.015625)"/>
      <path id="DejaVuSans-Bold-35" d="M 678 4666 
L 3669 4666 
L 3669 3781 
L 1638 3781 
L 1638 3059 
Q 1775 3097 1914 3117 
Q 2053 3138 2203 3138 
Q 3056 3138 3531 2711 
Q 4006 2284 4006 1522 
Q 4006 766 3489 337 
Q 2972 -91 2053 -91 
Q 1656 -91 1267 -14 
Q 878 63 494 219 
L 494 1166 
Q 875 947 1217 837 
Q 1559 728 1863 728 
Q 2300 728 2551 942 
Q 2803 1156 2803 1522 
Q 2803 1891 2551 2103 
Q 2300 2316 1863 2316 
Q 1603 2316 1309 2248 
Q 1016 2181 678 2041 
L 678 4666 
z
" transform="scale(0.015625)"/>
      <path id="DejaVuSans-Bold-25" d="M 4959 1925 
Q 4738 1925 4616 1733 
Q 4494 1541 4494 1184 
Q 4494 825 4614 633 
Q 4734 441 4959 441 
Q 5184 441 5303 633 
Q 5422 825 5422 1184 
Q 5422 1541 5301 1733 
Q 5181 1925 4959 1925 
z
M 4959 2450 
Q 5541 2450 5875 2112 
Q 6209 1775 6209 1184 
Q 6209 594 5875 251 
Q 5541 -91 4959 -91 
Q 4378 -91 4042 251 
Q 3706 594 3706 1184 
Q 3706 1772 4042 2111 
Q 4378 2450 4959 2450 
z
M 2094 -91 
L 1403 -91 
L 4319 4750 
L 5013 4750 
L 2094 -91 
z
M 1453 4750 
Q 2034 4750 2367 4411 
Q 2700 4072 2700 3481 
Q 2700 2891 2367 2550 
Q 2034 2209 1453 2209 
Q 872 2209 539 2550 
Q 206 2891 206 3481 
Q 206 4072 539 4411 
Q 872 4750 1453 4750 
z
M 1453 4225 
Q 1228 4225 1106 4031 
Q 984 3838 984 3481 
Q 984 3122 1106 2926 
Q 1228 2731 1453 2731 
Q 1678 2731 1798 2926 
Q 1919 3122 1919 3481 
Q 1919 3838 1797 4031 
Q 1675 4225 1453 4225 
z
" transform="scale(0.015625)"/>
      <path id="DejaVuSans-Bold-6e" d="M 4056 2131 
L 4056 0 
L 2931 0 
L 2931 347 
L 2931 1631 
Q 2931 2084 2911 2256 
Q 2891 2428 2841 2509 
Q 2775 2619 2662 2680 
Q 2550 2741 2406 2741 
Q 2056 2741 1856 2470 
Q 1656 2200 1656 1722 
L 1656 0 
L 538 0 
L 538 3500 
L 1656 3500 
L 1656 2988 
Q 1909 3294 2193 3439 
Q 2478 3584 2822 3584 
Q 3428 3584 3742 3212 
Q 4056 2841 4056 2131 
z
" transform="scale(0.015625)"/>
      <path id="DejaVuSans-Bold-79" d="M 78 3500 
L 1197 3500 
L 2138 1125 
L 2938 3500 
L 4056 3500 
L 2584 -331 
Q 2363 -916 2067 -1148 
Q 1772 -1381 1288 -1381 
L 641 -1381 
L 641 -647 
L 991 -647 
Q 1275 -647 1404 -556 
Q 1534 -466 1606 -231 
L 1638 -134 
L 78 3500 
z
" transform="scale(0.015625)"/>
     </defs>
     <use xlink:href="#DejaVuSans-Bold-57"/>
     <use xlink:href="#DejaVuSans-Bold-65" x="106.677734"/>
     <use xlink:href="#DejaVuSans-Bold-69" x="174.5"/>
     <use xlink:href="#DejaVuSans-Bold-67" x="208.777344"/>
     <use xlink:href="#DejaVuSans-Bold-68" x="280.359375"/>
     <use xlink:href="#DejaVuSans-Bold-74" x="351.550781"/>
     <use xlink:href="#DejaVuSans-Bold-65" x="399.353516"/>
     <use xlink:href="#DejaVuSans-Bold-64" x="467.175781"/>
     <use xlink:href="#DejaVuSans-Bold-2c" x="538.757812"/>
     <use xlink:href="#DejaVuSans-Bold-20" x="576.746094"/>
     <use xlink:href="#DejaVuSans-Bold-32" x="611.560547"/>
     <use xlink:href="#DejaVuSans-Bold-30" x="681.140625"/>
     <use xlink:href="#DejaVuSans-Bold-20" x="750.720703"/>
     <use xlink:href="#DejaVuSans-Bold-76" x="785.535156"/>
     <use xlink:href="#DejaVuSans-Bold-65" x="850.720703"/>
     <use xlink:href="#DejaVuSans-Bold-72" x="918.542969"/>
     <use xlink:href="#DejaVuSans-Bold-74" x="967.859375"/>
     <use xlink:href="#DejaVuSans-Bold-69" x="1015.662109"/>
     <use xlink:href="#DejaVuSans-Bold-63" x="1049.939453"/>
     <use xlink:href="#DejaVuSans-Bold-65" x="1109.216797"/>
     <use xlink:href="#DejaVuSans-Bold-73" x="1177.039062"/>
     <use xlink:href="#DejaVuSans-Bold-2c" x="1236.560547"/>
     <use xlink:href="#DejaVuSans-Bold-20" x="1274.548828"/>
     <use xlink:href="#DejaVuSans-Bold-31" x="1309.363281"/>
     <use xlink:href="#DejaVuSans-Bold-32" x="1378.943359"/>
     <use xlink:href="#DejaVuSans-Bold-2e" x="1448.523438"/>
     <use xlink:href="#DejaVuSans-Bold-31" x="1486.511719"/>
     <use xlink:href="#DejaVuSans-Bold-30" x="1556.091797"/>
     <use xlink:href="#DejaVuSans-Bold-35" x="1625.671875"/>
     <use xlink:href="#DejaVuSans-Bold-25" x="1695.251953"/>
     <use xlink:href="#DejaVuSans-Bold-20" x="1795.447266"/>
     <use xlink:href="#DejaVuSans-Bold-64" x="1830.261719"/>
     <use xlink:href="#DejaVuSans-Bold-65" x="1901.84375"/>
     <use xlink:href="#DejaVuSans-Bold-6e" x="1969.666016"/>
     <use xlink:href="#DejaVuSans-Bold-73" x="2040.857422"/>
     <use xlink:href="#DejaVuSans-Bold-69" x="2100.378906"/>
     <use xlink:href="#DejaVuSans-Bold-74" x="2134.65625"/>
     <use xlink:href="#DejaVuSans-Bold-79" x="2182.458984"/>
    </g>
   </g>
   <g id="legend_1">
    <g id="patch_4">
     <path d="M 7.914062 93.506375 
L 50.6 93.506375 
Q 52.6 93.506375 52.6 91.506375 
L 52.6 48.472 
Q 52.6 46.472 50.6 46.472 
L 7.914062 46.472 
Q 5.914062 46.472 5.914062 48.472 
L 5.914062 91.506375 
Q 5.914062 93.506375 7.914062 93.506375 
z
" style="fill: #ffffff; opacity: 0.8; stroke: #cccccc; stroke-linejoin: miter"/>
    </g>
    <g id="text_23">
     <!-- Cluster: -->
     <g transform="translate(9.914062 58.070438) scale(0.1 -0.1)">
      <defs>
       <path id="DejaVuSans-72" d="M 2631 2963 
Q 2534 3019 2420 3045 
Q 2306 3072 2169 3072 
Q 1681 3072 1420 2755 
Q 1159 2438 1159 1844 
L 1159 0 
L 581 0 
L 581 3500 
L 1159 3500 
L 1159 2956 
Q 1341 3275 1631 3429 
Q 1922 3584 2338 3584 
Q 2397 3584 2469 3576 
Q 2541 3569 2628 3553 
L 2631 2963 
z
" transform="scale(0.015625)"/>
      </defs>
      <use xlink:href="#DejaVuSans-43"/>
      <use xlink:href="#DejaVuSans-6c" x="69.824219"/>
      <use xlink:href="#DejaVuSans-75" x="97.607422"/>
      <use xlink:href="#DejaVuSans-73" x="160.986328"/>
      <use xlink:href="#DejaVuSans-74" x="213.085938"/>
      <use xlink:href="#DejaVuSans-65" x="252.294922"/>
      <use xlink:href="#DejaVuSans-72" x="313.818359"/>
      <use xlink:href="#DejaVuSans-3a" x="353.181641"/>
     </g>
    </g>
    <g id="PathCollection_3">
     <defs>
      <path id="mcc20ff099f" d="M 0 5 
C 1.326016 5 2.597899 4.473168 3.535534 3.535534 
C 4.473168 2.597899 5 1.326016 5 0 
C 5 -1.326016 4.473168 -2.597899 3.535534 -3.535534 
C 2.597899 -4.473168 1.326016 -5 0 -5 
C -1.326016 -5 -2.597899 -4.473168 -3.535534 -3.535534 
C -4.473168 -2.597899 -5 -1.326016 -5 0 
C -5 1.326016 -4.473168 2.597899 -3.535534 3.535534 
C -2.597899 4.473168 -1.326016 5 0 5 
z
" style="stroke: #000000"/>
     </defs>
     <g>
      <use xlink:href="#mcc20ff099f" x="22.075781" y="70.123563" style="fill: #add8e6; stroke: #000000"/>
     </g>
    </g>
    <g id="text_24">
     <!-- 0 -->
     <g transform="translate(40.075781 72.748563) scale(0.1 -0.1)">
      <use xlink:href="#DejaVuSans-30"/>
     </g>
    </g>
    <g id="PathCollection_4">
     <defs>
      <path id="mf846a66176" d="M 0 5 
C 1.326016 5 2.597899 4.473168 3.535534 3.535534 
C 4.473168 2.597899 5 1.326016 5 0 
C 5 -1.326016 4.473168 -2.597899 3.535534 -3.535534 
C 2.597899 -4.473168 1.326016 -5 0 -5 
C -1.326016 -5 -2.597899 -4.473168 -3.535534 -3.535534 
C -4.473168 -2.597899 -5 -1.326016 -5 0 
C -5 1.326016 -4.473168 2.597899 -3.535534 3.535534 
C -2.597899 4.473168 -1.326016 5 0 5 
z
" style="stroke: #000000"/>
     </defs>
     <g>
      <use xlink:href="#mf846a66176" x="22.075781" y="84.801688" style="fill: #9acd32; stroke: #000000"/>
     </g>
    </g>
    <g id="text_25">
     <!-- 1 -->
     <g transform="translate(40.075781 87.426688) scale(0.1 -0.1)">
      <use xlink:href="#DejaVuSans-31"/>
     </g>
    </g>
   </g>
  </g>
 </g>
 <defs>
  <clipPath id="p83f0417780">
   <rect x="57.6" y="41.472" width="357.12" height="266.112"/>
  </clipPath>
 </defs>
</svg>
