<?xml version="1.0" encoding="utf-8" standalone="no"?>
<!DOCTYPE svg PUBLIC "-//W3C//DTD SVG 1.1//EN"
  "http://www.w3.org/Graphics/SVG/1.1/DTD/svg11.dtd">
<svg xmlns:xlink="http://www.w3.org/1999/xlink" width="460.8pt" height="345.6pt" viewBox="0 0 460.8 345.6" xmlns="http://www.w3.org/2000/svg" version="1.1">
 <metadata>
  <rdf:RDF xmlns:dc="http://purl.org/dc/elements/1.1/" xmlns:cc="http://creativecommons.org/ns#" xmlns:rdf="http://www.w3.org/1999/02/22-rdf-syntax-ns#">
   <cc:Work>
    <dc:type rdf:resource="http://purl.org/dc/dcmitype/StillImage"/>
    <dc:date>2024-01-12T17:24:24.449776</dc:date>
    <dc:format>image/svg+xml</dc:format>
    <dc:creator>
     <cc:Agent>
      <dc:title>Matplotlib v3.8.2, https://matplotlib.org/</dc:title>
     </cc:Agent>
    </dc:creator>
   </cc:Work>
  </rdf:RDF>
 </metadata>
 <defs>
  <style type="text/css">*{stroke-linejoin: round; stroke-linecap: butt}</style>
 </defs>
 <g id="figure_1">
  <g id="patch_1">
   <path d="M 0 345.6 
L 460.8 345.6 
L 460.8 0 
L 0 0 
z
" style="fill: #ffffff"/>
  </g>
  <g id="axes_1">
   <g id="patch_2">
    <path d="M 57.6 307.584 
L 414.72 307.584 
L 414.72 41.472 
L 57.6 41.472 
z
" style="fill: #ffffff"/>
   </g>
   <g id="EdgeCollection_1">
    <path d="M 284.736399 107.631377 
L 336.330911 102.860712 
" clip-path="url(#pb260640121)" style="fill: #add8e6; stroke: #add8e6; stroke-width: 1.300532"/>
    <path d="M 300.029778 150.41072 
L 314.593711 163.145311 
" clip-path="url(#pb260640121)" style="fill: #9acd32; stroke: #9acd32; stroke-width: 2.322568"/>
    <path d="M 270.730776 87.474329 
L 249.530961 109.912305 
" clip-path="url(#pb260640121)" style="fill: #add8e6; stroke: #add8e6; stroke-width: 1.06383"/>
    <path d="M 265.719324 128.193444 
L 249.79875 114.71762 
" clip-path="url(#pb260640121)" style="fill: #add8e6; stroke: #add8e6; stroke-width: 2.172492"/>
    <path d="M 320.725551 165.304977 
L 366.396779 163.421806 
" clip-path="url(#pb260640121)" style="fill: #9acd32; stroke: #9acd32; stroke-width: 2.205167"/>
    <path d="M 209.398777 229.628431 
L 181.684909 215.926593 
" clip-path="url(#pb260640121)" style="fill: #9acd32; stroke: #9acd32; stroke-width: 0.945289"/>
    <path d="M 175.109787 213.717635 
L 141.319584 207.252064 
" clip-path="url(#pb260640121)" style="fill: #9acd32; stroke: #9acd32; stroke-width: 1.544453"/>
    <path d="M 277.948156 106.796276 
L 238.457031 92.959265 
" clip-path="url(#pb260640121)" style="fill: #add8e6; stroke: #add8e6; stroke-width: 1.270897"/>
    <path d="M 181.258938 100.08139 
L 231.694504 92.333356 
" clip-path="url(#pb260640121)" style="fill: #add8e6; stroke: #add8e6; stroke-width: 1.68769"/>
    <path d="M 245.371946 109.42837 
L 236.90925 94.829918 
" clip-path="url(#pb260640121)" style="fill: #add8e6; stroke: #add8e6; stroke-width: 1.983663"/>
    <path d="M 239.418636 68.133145 
L 235.774568 88.357381 
" clip-path="url(#pb260640121)" style="fill: #add8e6; stroke: #add8e6; stroke-width: 0.914894"/>
    <path d="M 174.568154 99.268117 
L 138.893038 84.4221 
" clip-path="url(#pb260640121)" style="fill: #add8e6; stroke: #add8e6; stroke-width: 0.884498"/>
    <path d="M 202.167474 91.405252 
L 184.648833 69.278255 
" clip-path="url(#pb260640121)" style="fill: #add8e6; stroke: #add8e6; stroke-width: 2.234802"/>
    <path d="M 140.44388 204.209651 
L 162.856355 183.348164 
" clip-path="url(#pb260640121)" style="fill: #9acd32; stroke: #9acd32; stroke-width: 1.796733"/>
    <path d="M 313.786476 166.083453 
L 262.857877 175.468318 
" clip-path="url(#pb260640121)" style="fill: #9acd32; stroke: #9acd32; stroke-width: 1.172492"/>
    <path d="M 223.461608 152.512313 
L 256.489488 174.182569 
" clip-path="url(#pb260640121)" style="fill: #d3d3d3; stroke: #d3d3d3; stroke-width: 2.37652"/>
    <path d="M 244.943346 161.415359 
L 256.95925 173.609568 
" clip-path="url(#pb260640121)" style="fill: #d3d3d3; stroke: #d3d3d3; stroke-width: 1.222644"/>
    <path d="M 245.823409 157.865532 
L 298.448632 141.197893 
" clip-path="url(#pb260640121)" style="fill: #add8e6; stroke: #add8e6; stroke-width: 2.128799"/>
    <path d="M 284.724399 108.386459 
L 323.070577 113.165255 
" clip-path="url(#pb260640121)" style="fill: #add8e6; stroke: #add8e6; stroke-width: 1.30965"/>
    <path d="M 379.23107 118.25158 
L 330.030139 113.906017 
" clip-path="url(#pb260640121)" style="fill: #add8e6; stroke: #add8e6; stroke-width: 1.300532"/>
    <path d="M 304.172614 137.581683 
L 324.156373 116.157502 
" clip-path="url(#pb260640121)" style="fill: #add8e6; stroke: #add8e6; stroke-width: 0.899316"/>
    <path d="M 278.551639 110.181186 
L 251.841904 132.220332 
" clip-path="url(#pb260640121)" style="fill: #add8e6; stroke: #add8e6; stroke-width: 1.344605"/>
    <path d="M 294.027292 147.153567 
L 252.509951 135.401183 
" clip-path="url(#pb260640121)" style="fill: #d3d3d3; stroke: #d3d3d3; stroke-width: 1.022416"/>
    <path d="M 264.963767 131.165643 
L 252.569308 133.736935 
" clip-path="url(#pb260640121)" style="fill: #add8e6; stroke: #add8e6; stroke-width: 1.542173"/>
    <path d="M 247.44663 115.941776 
L 248.822922 130.96249 
" clip-path="url(#pb260640121)" style="fill: #add8e6; stroke: #add8e6; stroke-width: 1.338906"/>
    <path d="M 207.487015 120.918915 
L 245.813446 133.366738 
" clip-path="url(#pb260640121)" style="fill: #add8e6; stroke: #add8e6; stroke-width: 0.93655"/>
    <path d="M 223.583367 148.872083 
L 246.094176 136.168088 
" clip-path="url(#pb260640121)" style="fill: #add8e6; stroke: #add8e6; stroke-width: 1.330927"/>
    <path d="M 176.776029 103.959842 
L 168.070286 132.429232 
" clip-path="url(#pb260640121)" style="fill: #add8e6; stroke: #add8e6; stroke-width: 2.255699"/>
    <path d="M 200.942232 121.21894 
L 170.262746 134.395063 
" clip-path="url(#pb260640121)" style="fill: #add8e6; stroke: #add8e6; stroke-width: 1.909954"/>
    <path d="M 111.76192 132.07584 
L 163.554608 135.542496 
" clip-path="url(#pb260640121)" style="fill: #add8e6; stroke: #add8e6; stroke-width: 1.272416"/>
    <path d="M 217.162273 149.657979 
L 170.419786 136.710542 
" clip-path="url(#pb260640121)" style="fill: #add8e6; stroke: #add8e6; stroke-width: 1.704407"/>
    <path d="M 174.815403 102.441779 
L 164.0259 109.054591 
" clip-path="url(#pb260640121)" style="fill: #add8e6; stroke: #add8e6; stroke-width: 1.74696"/>
    <path d="M 255.923758 176.338036 
L 197.008602 180.310079 
" clip-path="url(#pb260640121)" style="fill: #9acd32; stroke: #9acd32; stroke-width: 1.473404"/>
    <path d="M 358.710413 240.849559 
L 321.586115 226.113158 
" clip-path="url(#pb260640121)" style="fill: #9acd32; stroke: #9acd32; stroke-width: 2.37424"/>
    <path d="M 168.738897 179.857385 
L 212.557861 165.260721 
" clip-path="url(#pb260640121)" style="fill: #d3d3d3; stroke: #d3d3d3; stroke-width: 1.408815"/>
    <path d="M 219.398632 153.902578 
L 217.015106 160.844286 
" clip-path="url(#pb260640121)" style="fill: #add8e6; stroke: #add8e6; stroke-width: 1.730243"/>
    <path d="M 246.531763 136.779245 
L 218.488986 161.823228 
" clip-path="url(#pb260640121)" style="fill: #add8e6; stroke: #add8e6; stroke-width: 2.209347"/>
    <path d="M 92.219587 189.047868 
L 133.567696 181.944914 
" clip-path="url(#pb260640121)" style="fill: #9acd32; stroke: #9acd32; stroke-width: 1.25152"/>
    <path d="M 161.918614 181.011436 
L 140.516841 181.304437 
" clip-path="url(#pb260640121)" style="fill: #9acd32; stroke: #9acd32; stroke-width: 1.003419"/>
    <path d="M 190.016886 180.59549 
L 140.516812 181.302372 
" clip-path="url(#pb260640121)" style="fill: #9acd32; stroke: #9acd32; stroke-width: 1.109802"/>
    <path d="M 300.834262 148.755898 
L 338.860298 155.931878 
" clip-path="url(#pb260640121)" style="fill: #9acd32; stroke: #9acd32; stroke-width: 1.762158"/>
    <path d="M 320.528177 164.282001 
L 338.999939 157.748084 
" clip-path="url(#pb260640121)" style="fill: #9acd32; stroke: #9acd32; stroke-width: 2.199848"/>
    <path d="M 354.866303 115.291041 
L 303.473859 120.935371 
" clip-path="url(#pb260640121)" style="fill: #9acd32; stroke: #9acd32; stroke-width: 1.287994"/>
    <path d="M 252.531131 133.572867 
L 296.605925 122.192494 
" clip-path="url(#pb260640121)" style="fill: #d3d3d3; stroke: #d3d3d3; stroke-width: 0.911474"/>
    <path d="M 250.429459 256.82266 
L 268.073482 236.986042 
" clip-path="url(#pb260640121)" style="fill: #9acd32; stroke: #9acd32; stroke-width: 1.528116"/>
    <path d="M 273.223818 236.438176 
L 297.560874 254.252805 
" clip-path="url(#pb260640121)" style="fill: #9acd32; stroke: #9acd32; stroke-width: 1.028116"/>
    <path d="M 164.94897 138.577871 
L 149.469696 159.250342 
" clip-path="url(#pb260640121)" style="fill: #d3d3d3; stroke: #d3d3d3; stroke-width: 1.449848"/>
    <path d="M 190.267728 179.243481 
L 150.620673 163.354005 
" clip-path="url(#pb260640121)" style="fill: #9acd32; stroke: #9acd32; stroke-width: 1.759498"/>
    <path d="M 138.671833 178.268181 
L 145.717208 165.13614 
" clip-path="url(#pb260640121)" style="fill: #9acd32; stroke: #9acd32; stroke-width: 2.384498"/>
    <path d="M 265.042572 131.47419 
L 236.443833 140.182218 
" clip-path="url(#pb260640121)" style="fill: #add8e6; stroke: #add8e6; stroke-width: 2.219225"/>
    <path d="M 245.591949 115.601654 
L 234.630933 138.056441 
" clip-path="url(#pb260640121)" style="fill: #add8e6; stroke: #add8e6; stroke-width: 1.134498"/>
    <path d="M 240.847842 155.829765 
L 234.73453 144.294279 
" clip-path="url(#pb260640121)" style="fill: #add8e6; stroke: #add8e6; stroke-width: 1.653116"/>
    <path d="M 169.736921 146.248605 
L 229.606658 141.479634 
" clip-path="url(#pb260640121)" style="fill: #add8e6; stroke: #add8e6; stroke-width: 1.643237"/>
    <path d="M 181.094399 211.974802 
L 200.103812 194.057836 
" clip-path="url(#pb260640121)" style="fill: #9acd32; stroke: #9acd32; stroke-width: 1.362842"/>
    <path d="M 195.739102 183.249246 
L 200.428216 188.953497 
" clip-path="url(#pb260640121)" style="fill: #9acd32; stroke: #9acd32; stroke-width: 1.865881"/>
    <path d="M 214.361452 167.308731 
L 204.167809 188.503082 
" clip-path="url(#pb260640121)" style="fill: #d3d3d3; stroke: #d3d3d3; stroke-width: 0.921353"/>
    <path d="M 164.032253 133.997886 
L 149.613965 125.492173 
" clip-path="url(#pb260640121)" style="fill: #add8e6; stroke: #add8e6; stroke-width: 1.827128"/>
    <path d="M 241.053383 162.115351 
L 231.821802 182.679773 
" clip-path="url(#pb260640121)" style="fill: #add8e6; stroke: #add8e6; stroke-width: 1.479103"/>
    <path d="M 206.077078 190.942708 
L 226.96213 186.58732 
" clip-path="url(#pb260640121)" style="fill: #d3d3d3; stroke: #d3d3d3; stroke-width: 1.574468"/>
    <path d="M 342.712392 104.503447 
L 380.602193 130.209256 
" clip-path="url(#pb260640121)" style="fill: #d3d3d3; stroke: #d3d3d3; stroke-width: 1.167173"/>
    <path d="M 371.296414 160.070949 
L 382.095933 135.380906 
" clip-path="url(#pb260640121)" style="fill: #9acd32; stroke: #9acd32; stroke-width: 1.982903"/>
    <path d="M 361.231001 116.889649 
L 380.612921 130.193534 
" clip-path="url(#pb260640121)" style="fill: #9acd32; stroke: #9acd32; stroke-width: 1.482143"/>
    <path d="M 298.466753 185.051655 
L 354.381997 184.816336 
" clip-path="url(#pb260640121)" style="fill: #9acd32; stroke: #9acd32; stroke-width: 2.034574"/>
    <path d="M 368.188193 166.333898 
L 359.58758 181.74532 
" clip-path="url(#pb260640121)" style="fill: #9acd32; stroke: #9acd32; stroke-width: 1.232523"/>
    <path d="M 335.135145 210.245511 
L 287.941438 205.365609 
" clip-path="url(#pb260640121)" style="fill: #9acd32; stroke: #9acd32; stroke-width: 1.819529"/>
    <path d="M 261.70782 178.747745 
L 282.16801 202.360479 
" clip-path="url(#pb260640121)" style="fill: #9acd32; stroke: #9acd32; stroke-width: 2.366261"/>
    <path d="M 315.312022 223.054518 
L 287.481013 206.77296 
" clip-path="url(#pb260640121)" style="fill: #9acd32; stroke: #9acd32; stroke-width: 1.299772"/>
    <path d="M 271.911108 231.214067 
L 282.948492 208.162416 
" clip-path="url(#pb260640121)" style="fill: #9acd32; stroke: #9acd32; stroke-width: 0.974544"/>
    <path d="M 206.039562 97.209005 
L 222.02731 125.992084 
" clip-path="url(#pb260640121)" style="fill: #add8e6; stroke: #add8e6; stroke-width: 1.842325"/>
    <path d="M 221.048245 147.130078 
L 223.213849 132.513967 
" clip-path="url(#pb260640121)" style="fill: #add8e6; stroke: #add8e6; stroke-width: 2.026976"/>
    <path d="M 320.547012 164.336682 
L 368.98574 148.09812 
" clip-path="url(#pb260640121)" style="fill: #9acd32; stroke: #9acd32; stroke-width: 1.68655"/>
    <path d="M 381.513589 121.845938 
L 373.508137 143.699204 
" clip-path="url(#pb260640121)" style="fill: #d3d3d3; stroke: #d3d3d3; stroke-width: 1.092705"/>
    <path d="M 381.388206 134.966462 
L 374.414563 144.193412 
" clip-path="url(#pb260640121)" style="fill: #9acd32; stroke: #9acd32; stroke-width: 2.014058"/>
    <path d="M 239.383246 157.304251 
L 200.271917 136.912867 
" clip-path="url(#pb260640121)" style="fill: #add8e6; stroke: #add8e6; stroke-width: 1.825228"/>
    <path d="M 245.642741 134.504914 
L 200.667933 135.237768 
" clip-path="url(#pb260640121)" style="fill: #add8e6; stroke: #add8e6; stroke-width: 1.62272"/>
    <path d="M 163.941793 112.843113 
L 194.268388 133.335215 
" clip-path="url(#pb260640121)" style="fill: #add8e6; stroke: #add8e6; stroke-width: 1.172492"/>
    <path d="M 150.011101 124.495139 
L 193.756721 134.513473 
" clip-path="url(#pb260640121)" style="fill: #add8e6; stroke: #add8e6; stroke-width: 1.260258"/>
    <path d="M 215.887755 230.170901 
L 261.112317 216.559434 
" clip-path="url(#pb260640121)" style="fill: #9acd32; stroke: #9acd32; stroke-width: 1.516717"/>
    <path d="M 292.491154 187.540502 
L 266.939439 213.076602 
" clip-path="url(#pb260640121)" style="fill: #9acd32; stroke: #9acd32; stroke-width: 2.010258"/>
    <path d="M 267.324727 133.788379 
L 260.710526 154.471534 
" clip-path="url(#pb260640121)" style="fill: #add8e6; stroke: #add8e6; stroke-width: 1.582067"/>
    <path d="M 292.196021 182.927957 
L 262.415219 159.943652 
" clip-path="url(#pb260640121)" style="fill: #d3d3d3; stroke: #d3d3d3; stroke-width: 1.809271"/>
    <path d="M 219.342211 163.65208 
L 256.180716 158.307727 
" clip-path="url(#pb260640121)" style="fill: #add8e6; stroke: #add8e6; stroke-width: 1.669453"/>
    <path d="M 236.063074 143.057557 
L 256.676988 155.949386 
" clip-path="url(#pb260640121)" style="fill: #add8e6; stroke: #add8e6; stroke-width: 2.31307"/>
    <path d="M 226.459151 131.239094 
L 256.912134 155.617894 
" clip-path="url(#pb260640121)" style="fill: #add8e6; stroke: #add8e6; stroke-width: 2.264058"/>
    <path d="M 342.069407 210.03278 
L 380.097062 203.72516 
" clip-path="url(#pb260640121)" style="fill: #9acd32; stroke: #9acd32; stroke-width: 2.318389"/>
    <path d="M 360.729162 186.837159 
L 380.702691 201.11689 
" clip-path="url(#pb260640121)" style="fill: #9acd32; stroke: #9acd32; stroke-width: 2.382979"/>
    <path d="M 247.154037 262.806643 
L 242.027677 280.998585 
" clip-path="url(#pb260640121)" style="fill: #9acd32; stroke: #9acd32; stroke-width: 1.475684"/>
    <path d="M 111.601449 132.914324 
L 131.41493 139.290791 
" clip-path="url(#pb260640121)" style="fill: #add8e6; stroke: #add8e6; stroke-width: 1.004559"/>
    <path d="M 193.679878 135.578037 
L 138.235166 140.079775 
" clip-path="url(#pb260640121)" style="fill: #add8e6; stroke: #add8e6; stroke-width: 1.091565"/>
   </g>
   <g id="VertexCollection_1">
    <path d="M 361.963494 245.640862 
C 362.891705 245.640862 363.782024 245.27208 364.438368 244.615736 
C 365.094712 243.959391 365.463494 243.069073 365.463494 242.140862 
C 365.463494 241.212651 365.094712 240.322332 364.438368 239.665988 
C 363.782024 239.009644 362.891705 238.640862 361.963494 238.640862 
C 361.035283 238.640862 360.144964 239.009644 359.48862 239.665988 
C 358.832276 240.322332 358.463494 241.212651 358.463494 242.140862 
C 358.463494 243.069073 358.832276 243.959391 359.48862 244.615736 
C 360.144964 245.27208 361.035283 245.640862 361.963494 245.640862 
z
" clip-path="url(#pb260640121)" style="fill: #9acd32; stroke: #000000"/>
    <path d="M 281.251266 111.453629 
C 282.179477 111.453629 283.069795 111.084847 283.72614 110.428502 
C 284.382484 109.772158 284.751266 108.881839 284.751266 107.953629 
C 284.751266 107.025418 284.382484 106.135099 283.72614 105.478755 
C 283.069795 104.822411 282.179477 104.453629 281.251266 104.453629 
C 280.323055 104.453629 279.432736 104.822411 278.776392 105.478755 
C 278.120048 106.135099 277.751266 107.025418 277.751266 107.953629 
C 277.751266 108.881839 278.120048 109.772158 278.776392 110.428502 
C 279.432736 111.084847 280.323055 111.453629 281.251266 111.453629 
z
" clip-path="url(#pb260640121)" style="fill: #add8e6; stroke: #000000"/>
    <path d="M 212.536264 234.679616 
C 213.464475 234.679616 214.354793 234.310834 215.011137 233.65449 
C 215.667482 232.998145 216.036264 232.107827 216.036264 231.179616 
C 216.036264 230.251405 215.667482 229.361086 215.011137 228.704742 
C 214.354793 228.048398 213.464475 227.679616 212.536264 227.679616 
C 211.608053 227.679616 210.717734 228.048398 210.06139 228.704742 
C 209.405046 229.361086 209.036264 230.251405 209.036264 231.179616 
C 209.036264 232.107827 209.405046 232.998145 210.06139 233.65449 
C 210.717734 234.310834 211.608053 234.679616 212.536264 234.679616 
z
" clip-path="url(#pb260640121)" style="fill: #9acd32; stroke: #000000"/>
    <path d="M 339.816045 106.038461 
C 340.744255 106.038461 341.634574 105.669679 342.290918 105.013335 
C 342.947262 104.35699 343.316045 103.466672 343.316045 102.538461 
C 343.316045 101.61025 342.947262 100.719931 342.290918 100.063587 
C 341.634574 99.407243 340.744255 99.038461 339.816045 99.038461 
C 338.887834 99.038461 337.997515 99.407243 337.341171 100.063587 
C 336.684827 100.719931 336.316045 101.61025 336.316045 102.538461 
C 336.316045 103.466672 336.684827 104.35699 337.341171 105.013335 
C 337.997515 105.669679 338.887834 106.038461 339.816045 106.038461 
z
" clip-path="url(#pb260640121)" style="fill: #add8e6; stroke: #000000"/>
    <path d="M 297.394967 151.606861 
C 298.323178 151.606861 299.213496 151.238079 299.86984 150.581735 
C 300.526185 149.92539 300.894967 149.035072 300.894967 148.106861 
C 300.894967 147.17865 300.526185 146.288331 299.86984 145.631987 
C 299.213496 144.975643 298.323178 144.606861 297.394967 144.606861 
C 296.466756 144.606861 295.576437 144.975643 294.920093 145.631987 
C 294.263749 146.288331 293.894967 147.17865 293.894967 148.106861 
C 293.894967 149.035072 294.263749 149.92539 294.920093 150.581735 
C 295.576437 151.238079 296.466756 151.606861 297.394967 151.606861 
z
" clip-path="url(#pb260640121)" style="fill: #9acd32; stroke: #000000"/>
    <path d="M 273.134461 88.430259 
C 274.062672 88.430259 274.95299 88.061476 275.609335 87.405132 
C 276.265679 86.748788 276.634461 85.858469 276.634461 84.930259 
C 276.634461 84.002048 276.265679 83.111729 275.609335 82.455385 
C 274.95299 81.799041 274.062672 81.430259 273.134461 81.430259 
C 272.20625 81.430259 271.315931 81.799041 270.659587 82.455385 
C 270.003243 83.111729 269.634461 84.002048 269.634461 84.930259 
C 269.634461 85.858469 270.003243 86.748788 270.659587 87.405132 
C 271.315931 88.061476 272.20625 88.430259 273.134461 88.430259 
z
" clip-path="url(#pb260640121)" style="fill: #add8e6; stroke: #000000"/>
    <path d="M 317.228523 168.94917 
C 318.156734 168.94917 319.047052 168.580388 319.703397 167.924044 
C 320.359741 167.2677 320.728523 166.377381 320.728523 165.44917 
C 320.728523 164.520959 320.359741 163.630641 319.703397 162.974297 
C 319.047052 162.317952 318.156734 161.94917 317.228523 161.94917 
C 316.300312 161.94917 315.409993 162.317952 314.753649 162.974297 
C 314.097305 163.630641 313.728523 164.520959 313.728523 165.44917 
C 313.728523 166.377381 314.097305 167.2677 314.753649 167.924044 
C 315.409993 168.580388 316.300312 168.94917 317.228523 168.94917 
z
" clip-path="url(#pb260640121)" style="fill: #9acd32; stroke: #000000"/>
    <path d="M 382.717498 122.059511 
C 383.645709 122.059511 384.536027 121.690729 385.192372 121.034384 
C 385.848716 120.37804 386.217498 119.487722 386.217498 118.559511 
C 386.217498 117.6313 385.848716 116.740981 385.192372 116.084637 
C 384.536027 115.428293 383.645709 115.059511 382.717498 115.059511 
C 381.789287 115.059511 380.898968 115.428293 380.242624 116.084637 
C 379.58628 116.740981 379.217498 117.6313 379.217498 118.559511 
C 379.217498 119.487722 379.58628 120.37804 380.242624 121.034384 
C 380.898968 121.690729 381.789287 122.059511 382.717498 122.059511 
z
" clip-path="url(#pb260640121)" style="fill: #add8e6; stroke: #000000"/>
    <path d="M 268.390798 133.954689 
C 269.319009 133.954689 270.209327 133.585907 270.865672 132.929562 
C 271.522016 132.273218 271.890798 131.3829 271.890798 130.454689 
C 271.890798 129.526478 271.522016 128.636159 270.865672 127.979815 
C 270.209327 127.323471 269.319009 126.954689 268.390798 126.954689 
C 267.462587 126.954689 266.572268 127.323471 265.915924 127.979815 
C 265.25958 128.636159 264.890798 129.526478 264.890798 130.454689 
C 264.890798 131.3829 265.25958 132.273218 265.915924 132.929562 
C 266.572268 133.585907 267.462587 133.954689 268.390798 133.954689 
z
" clip-path="url(#pb260640121)" style="fill: #add8e6; stroke: #000000"/>
    <path d="M 177.799521 104.112834 
C 178.727732 104.112834 179.618051 103.744052 180.274395 103.087708 
C 180.930739 102.431363 181.299521 101.541045 181.299521 100.612834 
C 181.299521 99.684623 180.930739 98.794304 180.274395 98.13796 
C 179.618051 97.481616 178.727732 97.112834 177.799521 97.112834 
C 176.87131 97.112834 175.980992 97.481616 175.324648 98.13796 
C 174.668303 98.794304 174.299521 99.684623 174.299521 100.612834 
C 174.299521 101.541045 174.668303 102.431363 175.324648 103.087708 
C 175.980992 103.744052 176.87131 104.112834 177.799521 104.112834 
z
" clip-path="url(#pb260640121)" style="fill: #add8e6; stroke: #000000"/>
    <path d="M 247.127276 115.956376 
C 248.055486 115.956376 248.945805 115.587594 249.602149 114.93125 
C 250.258494 114.274905 250.627276 113.384587 250.627276 112.456376 
C 250.627276 111.528165 250.258494 110.637846 249.602149 109.981502 
C 248.945805 109.325158 248.055486 108.956376 247.127276 108.956376 
C 246.199065 108.956376 245.308746 109.325158 244.652402 109.981502 
C 243.996058 110.637846 243.627276 111.528165 243.627276 112.456376 
C 243.627276 113.384587 243.996058 114.274905 244.652402 114.93125 
C 245.308746 115.587594 246.199065 115.956376 247.127276 115.956376 
z
" clip-path="url(#pb260640121)" style="fill: #add8e6; stroke: #000000"/>
    <path d="M 294.966784 188.566384 
C 295.894995 188.566384 296.785313 188.197602 297.441658 187.541258 
C 298.098002 186.884914 298.466784 185.994595 298.466784 185.066384 
C 298.466784 184.138174 298.098002 183.247855 297.441658 182.591511 
C 296.785313 181.935166 295.894995 181.566384 294.966784 181.566384 
C 294.038573 181.566384 293.148254 181.935166 292.49191 182.591511 
C 291.835566 183.247855 291.466784 184.138174 291.466784 185.066384 
C 291.466784 185.994595 291.835566 186.884914 292.49191 187.541258 
C 293.148254 188.197602 294.038573 188.566384 294.966784 188.566384 
z
" clip-path="url(#pb260640121)" style="fill: #9acd32; stroke: #000000"/>
    <path d="M 369.893807 166.777612 
C 370.822018 166.777612 371.712337 166.40883 372.368681 165.752486 
C 373.025025 165.096142 373.393807 164.205823 373.393807 163.277612 
C 373.393807 162.349402 373.025025 161.459083 372.368681 160.802739 
C 371.712337 160.146395 370.822018 159.777612 369.893807 159.777612 
C 368.965596 159.777612 368.075278 160.146395 367.418933 160.802739 
C 366.762589 161.459083 366.393807 162.349402 366.393807 163.277612 
C 366.393807 164.205823 366.762589 165.096142 367.418933 165.752486 
C 368.075278 166.40883 368.965596 166.777612 369.893807 166.777612 
z
" clip-path="url(#pb260640121)" style="fill: #9acd32; stroke: #000000"/>
    <path d="M 204.340043 97.649325 
C 205.268254 97.649325 206.158573 97.280543 206.814917 96.624199 
C 207.471261 95.967855 207.840043 95.077536 207.840043 94.149325 
C 207.840043 93.221115 207.471261 92.330796 206.814917 91.674452 
C 206.158573 91.018107 205.268254 90.649325 204.340043 90.649325 
C 203.411833 90.649325 202.521514 91.018107 201.86517 91.674452 
C 201.208826 92.330796 200.840043 93.221115 200.840043 94.149325 
C 200.840043 95.077536 201.208826 95.967855 201.86517 96.624199 
C 202.521514 97.280543 203.411833 97.649325 204.340043 97.649325 
z
" clip-path="url(#pb260640121)" style="fill: #add8e6; stroke: #000000"/>
    <path d="M 240.039283 68.188613 
C 240.967494 68.188613 241.857812 67.819831 242.514156 67.163487 
C 243.170501 66.507143 243.539283 65.616824 243.539283 64.688613 
C 243.539283 63.760403 243.170501 62.870084 242.514156 62.21374 
C 241.857812 61.557395 240.967494 61.188613 240.039283 61.188613 
C 239.111072 61.188613 238.220753 61.557395 237.564409 62.21374 
C 236.908065 62.870084 236.539283 63.760403 236.539283 64.688613 
C 236.539283 65.616824 236.908065 66.507143 237.564409 67.163487 
C 238.220753 67.819831 239.111072 68.188613 240.039283 68.188613 
z
" clip-path="url(#pb260640121)" style="fill: #add8e6; stroke: #000000"/>
    <path d="M 178.547422 217.875408 
C 179.475633 217.875408 180.365951 217.506626 181.022296 216.850282 
C 181.67864 216.193938 182.047422 215.303619 182.047422 214.375408 
C 182.047422 213.447197 181.67864 212.556879 181.022296 211.900534 
C 180.365951 211.24419 179.475633 210.875408 178.547422 210.875408 
C 177.619211 210.875408 176.728892 211.24419 176.072548 211.900534 
C 175.416204 212.556879 175.047422 213.447197 175.047422 214.375408 
C 175.047422 215.303619 175.416204 216.193938 176.072548 216.850282 
C 176.728892 217.506626 177.619211 217.875408 178.547422 217.875408 
z
" clip-path="url(#pb260640121)" style="fill: #9acd32; stroke: #000000"/>
    <path d="M 137.881948 210.094292 
C 138.810159 210.094292 139.700478 209.72551 140.356822 209.069166 
C 141.013166 208.412821 141.381948 207.522503 141.381948 206.594292 
C 141.381948 205.666081 141.013166 204.775762 140.356822 204.119418 
C 139.700478 203.463074 138.810159 203.094292 137.881948 203.094292 
C 136.953738 203.094292 136.063419 203.463074 135.407075 204.119418 
C 134.750731 204.775762 134.381948 205.666081 134.381948 206.594292 
C 134.381948 207.522503 134.750731 208.412821 135.407075 209.069166 
C 136.063419 209.72551 136.953738 210.094292 137.881948 210.094292 
z
" clip-path="url(#pb260640121)" style="fill: #9acd32; stroke: #000000"/>
    <path d="M 235.153921 95.301912 
C 236.082132 95.301912 236.972451 94.93313 237.628795 94.276786 
C 238.285139 93.620442 238.653921 92.730123 238.653921 91.801912 
C 238.653921 90.873701 238.285139 89.983383 237.628795 89.327038 
C 236.972451 88.670694 236.082132 88.301912 235.153921 88.301912 
C 234.22571 88.301912 233.335391 88.670694 232.679047 89.327038 
C 232.022703 89.983383 231.653921 90.873701 231.653921 91.801912 
C 231.653921 92.730123 232.022703 93.620442 232.679047 94.276786 
C 233.335391 94.93313 234.22571 95.301912 235.153921 95.301912 
z
" clip-path="url(#pb260640121)" style="fill: #add8e6; stroke: #000000"/>
    <path d="M 204.158185 123.337764 
C 205.086396 123.337764 205.976715 122.968982 206.633059 122.312637 
C 207.289403 121.656293 207.658185 120.765974 207.658185 119.837764 
C 207.658185 118.909553 207.289403 118.019234 206.633059 117.36289 
C 205.976715 116.706546 205.086396 116.337764 204.158185 116.337764 
C 203.229974 116.337764 202.339656 116.706546 201.683311 117.36289 
C 201.026967 118.019234 200.658185 118.909553 200.658185 119.837764 
C 200.658185 120.765974 201.026967 121.656293 201.683311 122.312637 
C 202.339656 122.968982 203.229974 123.337764 204.158185 123.337764 
z
" clip-path="url(#pb260640121)" style="fill: #add8e6; stroke: #000000"/>
    <path d="M 88.770113 193.140433 
C 89.698324 193.140433 90.588643 192.771651 91.244987 192.115307 
C 91.901331 191.458962 92.270113 190.568644 92.270113 189.640433 
C 92.270113 188.712222 91.901331 187.821903 91.244987 187.165559 
C 90.588643 186.509215 89.698324 186.140433 88.770113 186.140433 
C 87.841903 186.140433 86.951584 186.509215 86.29524 187.165559 
C 85.638896 187.821903 85.270113 188.712222 85.270113 189.640433 
C 85.270113 190.568644 85.638896 191.458962 86.29524 192.115307 
C 86.951584 192.771651 87.841903 193.140433 88.770113 193.140433 
z
" clip-path="url(#pb260640121)" style="fill: #9acd32; stroke: #000000"/>
    <path d="M 358.345383 118.40894 
C 359.273594 118.40894 360.163913 118.040158 360.820257 117.383814 
C 361.476601 116.72747 361.845383 115.837151 361.845383 114.90894 
C 361.845383 113.98073 361.476601 113.090411 360.820257 112.434067 
C 360.163913 111.777722 359.273594 111.40894 358.345383 111.40894 
C 357.417172 111.40894 356.526853 111.777722 355.870509 112.434067 
C 355.214165 113.090411 354.845383 113.98073 354.845383 114.90894 
C 354.845383 115.837151 355.214165 116.72747 355.870509 117.383814 
C 356.526853 118.040158 357.417172 118.40894 358.345383 118.40894 
z
" clip-path="url(#pb260640121)" style="fill: #9acd32; stroke: #000000"/>
    <path d="M 108.269734 135.342096 
C 109.197945 135.342096 110.088264 134.973314 110.744608 134.31697 
C 111.400952 133.660626 111.769734 132.770307 111.769734 131.842096 
C 111.769734 130.913885 111.400952 130.023567 110.744608 129.367222 
C 110.088264 128.710878 109.197945 128.342096 108.269734 128.342096 
C 107.341523 128.342096 106.451205 128.710878 105.79486 129.367222 
C 105.138516 130.023567 104.769734 130.913885 104.769734 131.842096 
C 104.769734 132.770307 105.138516 133.660626 105.79486 134.31697 
C 106.451205 134.973314 107.341523 135.342096 108.269734 135.342096 
z
" clip-path="url(#pb260640121)" style="fill: #add8e6; stroke: #000000"/>
    <path d="M 135.66167 86.577383 
C 136.589881 86.577383 137.4802 86.208601 138.136544 85.552256 
C 138.792888 84.895912 139.16167 84.005593 139.16167 83.077383 
C 139.16167 82.149172 138.792888 81.258853 138.136544 80.602509 
C 137.4802 79.946165 136.589881 79.577383 135.66167 79.577383 
C 134.733459 79.577383 133.843141 79.946165 133.186797 80.602509 
C 132.530452 81.258853 132.16167 82.149172 132.16167 83.077383 
C 132.16167 84.005593 132.530452 84.895912 133.186797 85.552256 
C 133.843141 86.208601 134.733459 86.577383 135.66167 86.577383 
z
" clip-path="url(#pb260640121)" style="fill: #add8e6; stroke: #000000"/>
    <path d="M 182.476263 70.034181 
C 183.404474 70.034181 184.294793 69.665399 184.951137 69.009055 
C 185.607481 68.352711 185.976263 67.462392 185.976263 66.534181 
C 185.976263 65.605971 185.607481 64.715652 184.951137 64.059308 
C 184.294793 63.402963 183.404474 63.034181 182.476263 63.034181 
C 181.548052 63.034181 180.657733 63.402963 180.001389 64.059308 
C 179.345045 64.715652 178.976263 65.605971 178.976263 66.534181 
C 178.976263 67.462392 179.345045 68.352711 180.001389 69.009055 
C 180.657733 69.665399 181.548052 70.034181 182.476263 70.034181 
z
" clip-path="url(#pb260640121)" style="fill: #add8e6; stroke: #000000"/>
    <path d="M 165.418286 184.463524 
C 166.346497 184.463524 167.236816 184.094742 167.89316 183.438398 
C 168.549504 182.782053 168.918286 181.891735 168.918286 180.963524 
C 168.918286 180.035313 168.549504 179.144994 167.89316 178.48865 
C 167.236816 177.832306 166.346497 177.463524 165.418286 177.463524 
C 164.490075 177.463524 163.599756 177.832306 162.943412 178.48865 
C 162.287068 179.144994 161.918286 180.035313 161.918286 180.963524 
C 161.918286 181.891735 162.287068 182.782053 162.943412 183.438398 
C 163.599756 184.094742 164.490075 184.463524 165.418286 184.463524 
z
" clip-path="url(#pb260640121)" style="fill: #9acd32; stroke: #000000"/>
    <path d="M 338.616583 214.105497 
C 339.544794 214.105497 340.435113 213.736715 341.091457 213.080371 
C 341.747801 212.424027 342.116583 211.533708 342.116583 210.605497 
C 342.116583 209.677286 341.747801 208.786968 341.091457 208.130623 
C 340.435113 207.474279 339.544794 207.105497 338.616583 207.105497 
C 337.688372 207.105497 336.798054 207.474279 336.141709 208.130623 
C 335.485365 208.786968 335.116583 209.677286 335.116583 210.605497 
C 335.116583 211.533708 335.485365 212.424027 336.141709 213.080371 
C 336.798054 213.736715 337.688372 214.105497 338.616583 214.105497 
z
" clip-path="url(#pb260640121)" style="fill: #9acd32; stroke: #000000"/>
    <path d="M 220.535266 154.092281 
C 221.463477 154.092281 222.353796 153.723499 223.01014 153.067155 
C 223.666484 152.410811 224.035266 151.520492 224.035266 150.592281 
C 224.035266 149.664071 223.666484 148.773752 223.01014 148.117408 
C 222.353796 147.461063 221.463477 147.092281 220.535266 147.092281 
C 219.607055 147.092281 218.716737 147.461063 218.060392 148.117408 
C 217.404048 148.773752 217.035266 149.664071 217.035266 150.592281 
C 217.035266 151.520492 217.404048 152.410811 218.060392 153.067155 
C 218.716737 153.723499 219.607055 154.092281 220.535266 154.092281 
z
" clip-path="url(#pb260640121)" style="fill: #add8e6; stroke: #000000"/>
    <path d="M 242.486766 162.422325 
C 243.414977 162.422325 244.305295 162.053543 244.96164 161.397199 
C 245.617984 160.740855 245.986766 159.850536 245.986766 158.922325 
C 245.986766 157.994115 245.617984 157.103796 244.96164 156.447452 
C 244.305295 155.791107 243.414977 155.422325 242.486766 155.422325 
C 241.558555 155.422325 240.668236 155.791107 240.011892 156.447452 
C 239.355548 157.103796 238.986766 157.994115 238.986766 158.922325 
C 238.986766 159.850536 239.355548 160.740855 240.011892 161.397199 
C 240.668236 162.053543 241.558555 162.422325 242.486766 162.422325 
z
" clip-path="url(#pb260640121)" style="fill: #add8e6; stroke: #000000"/>
    <path d="M 259.41583 179.602601 
C 260.344041 179.602601 261.23436 179.233819 261.890704 178.577475 
C 262.547048 177.921131 262.91583 177.030812 262.91583 176.102601 
C 262.91583 175.17439 262.547048 174.284072 261.890704 173.627727 
C 261.23436 172.971383 260.344041 172.602601 259.41583 172.602601 
C 258.487619 172.602601 257.597301 172.971383 256.940956 173.627727 
C 256.284612 174.284072 255.91583 175.17439 255.91583 176.102601 
C 255.91583 177.030812 256.284612 177.921131 256.940956 178.577475 
C 257.597301 179.233819 258.487619 179.602601 259.41583 179.602601 
z
" clip-path="url(#pb260640121)" style="fill: #9acd32; stroke: #000000"/>
    <path d="M 301.785275 143.6411 
C 302.713486 143.6411 303.603805 143.272318 304.260149 142.615974 
C 304.916493 141.95963 305.285275 141.069311 305.285275 140.1411 
C 305.285275 139.212889 304.916493 138.322571 304.260149 137.666226 
C 303.603805 137.009882 302.713486 136.6411 301.785275 136.6411 
C 300.857064 136.6411 299.966746 137.009882 299.310401 137.666226 
C 298.654057 138.322571 298.285275 139.212889 298.285275 140.1411 
C 298.285275 141.069311 298.654057 141.95963 299.310401 142.615974 
C 299.966746 143.272318 300.857064 143.6411 301.785275 143.6411 
z
" clip-path="url(#pb260640121)" style="fill: #add8e6; stroke: #000000"/>
    <path d="M 326.543711 117.098086 
C 327.471922 117.098086 328.362241 116.729303 329.018585 116.072959 
C 329.674929 115.416615 330.043711 114.526296 330.043711 113.598086 
C 330.043711 112.669875 329.674929 111.779556 329.018585 111.123212 
C 328.362241 110.466868 327.471922 110.098086 326.543711 110.098086 
C 325.6155 110.098086 324.725182 110.466868 324.068837 111.123212 
C 323.412493 111.779556 323.043711 112.669875 323.043711 113.598086 
C 323.043711 114.526296 323.412493 115.416615 324.068837 116.072959 
C 324.725182 116.729303 325.6155 117.098086 326.543711 117.098086 
z
" clip-path="url(#pb260640121)" style="fill: #add8e6; stroke: #000000"/>
    <path d="M 249.142277 137.947889 
C 250.070488 137.947889 250.960806 137.579107 251.61715 136.922763 
C 252.273495 136.266419 252.642277 135.3761 252.642277 134.447889 
C 252.642277 133.519679 252.273495 132.62936 251.61715 131.973016 
C 250.960806 131.316672 250.070488 130.947889 249.142277 130.947889 
C 248.214066 130.947889 247.323747 131.316672 246.667403 131.973016 
C 246.011059 132.62936 245.642277 133.519679 245.642277 134.447889 
C 245.642277 135.3761 246.011059 136.266419 246.667403 136.922763 
C 247.323747 137.579107 248.214066 137.947889 249.142277 137.947889 
z
" clip-path="url(#pb260640121)" style="fill: #add8e6; stroke: #000000"/>
    <path d="M 167.046794 139.27624 
C 167.975005 139.27624 168.865323 138.907458 169.521667 138.251114 
C 170.178012 137.594769 170.546794 136.704451 170.546794 135.77624 
C 170.546794 134.848029 170.178012 133.95771 169.521667 133.301366 
C 168.865323 132.645022 167.975005 132.27624 167.046794 132.27624 
C 166.118583 132.27624 165.228264 132.645022 164.57192 133.301366 
C 163.915576 133.95771 163.546794 134.848029 163.546794 135.77624 
C 163.546794 136.704451 163.915576 137.594769 164.57192 138.251114 
C 165.228264 138.907458 166.118583 139.27624 167.046794 139.27624 
z
" clip-path="url(#pb260640121)" style="fill: #add8e6; stroke: #000000"/>
    <path d="M 161.041783 114.383536 
C 161.969993 114.383536 162.860312 114.014754 163.516656 113.35841 
C 164.173001 112.702066 164.541783 111.811747 164.541783 110.883536 
C 164.541783 109.955325 164.173001 109.065007 163.516656 108.408662 
C 162.860312 107.752318 161.969993 107.383536 161.041783 107.383536 
C 160.113572 107.383536 159.223253 107.752318 158.566909 108.408662 
C 157.910565 109.065007 157.541783 109.955325 157.541783 110.883536 
C 157.541783 111.811747 157.910565 112.702066 158.566909 113.35841 
C 159.223253 114.014754 160.113572 114.383536 161.041783 114.383536 
z
" clip-path="url(#pb260640121)" style="fill: #add8e6; stroke: #000000"/>
    <path d="M 193.516529 184.045513 
C 194.44474 184.045513 195.335059 183.676731 195.991403 183.020387 
C 196.647747 182.364043 197.016529 181.473724 197.016529 180.545513 
C 197.016529 179.617303 196.647747 178.726984 195.991403 178.07064 
C 195.335059 177.414295 194.44474 177.045513 193.516529 177.045513 
C 192.588319 177.045513 191.698 177.414295 191.041656 178.07064 
C 190.385311 178.726984 190.016529 179.617303 190.016529 180.545513 
C 190.016529 181.473724 190.385311 182.364043 191.041656 183.020387 
C 191.698 183.676731 192.588319 184.045513 193.516529 184.045513 
z
" clip-path="url(#pb260640121)" style="fill: #9acd32; stroke: #000000"/>
    <path d="M 318.333034 228.321855 
C 319.261245 228.321855 320.151564 227.953073 320.807908 227.296729 
C 321.464252 226.640385 321.833034 225.750066 321.833034 224.821855 
C 321.833034 223.893644 321.464252 223.003326 320.807908 222.346982 
C 320.151564 221.690637 319.261245 221.321855 318.333034 221.321855 
C 317.404823 221.321855 316.514505 221.690637 315.858161 222.346982 
C 315.201816 223.003326 314.833034 223.893644 314.833034 224.821855 
C 314.833034 225.750066 315.201816 226.640385 315.858161 227.296729 
C 316.514505 227.953073 317.404823 228.321855 318.333034 228.321855 
z
" clip-path="url(#pb260640121)" style="fill: #9acd32; stroke: #000000"/>
    <path d="M 166.247973 150.02652 
C 167.176183 150.02652 168.066502 149.657738 168.722846 149.001394 
C 169.37919 148.34505 169.747973 147.454731 169.747973 146.52652 
C 169.747973 145.59831 169.37919 144.707991 168.722846 144.051647 
C 168.066502 143.395302 167.176183 143.02652 166.247973 143.02652 
C 165.319762 143.02652 164.429443 143.395302 163.773099 144.051647 
C 163.116755 144.707991 162.747973 145.59831 162.747973 146.52652 
C 162.747973 147.454731 163.116755 148.34505 163.773099 149.001394 
C 164.429443 149.657738 165.319762 150.02652 166.247973 150.02652 
z
" clip-path="url(#pb260640121)" style="fill: #add8e6; stroke: #000000"/>
    <path d="M 215.878472 167.654583 
C 216.806683 167.654583 217.697001 167.285801 218.353346 166.629457 
C 219.00969 165.973112 219.378472 165.082794 219.378472 164.154583 
C 219.378472 163.226372 219.00969 162.336053 218.353346 161.679709 
C 217.697001 161.023365 216.806683 160.654583 215.878472 160.654583 
C 214.950261 160.654583 214.059942 161.023365 213.403598 161.679709 
C 212.747254 162.336053 212.378472 163.226372 212.378472 164.154583 
C 212.378472 165.082794 212.747254 165.973112 213.403598 166.629457 
C 214.059942 167.285801 214.950261 167.654583 215.878472 167.654583 
z
" clip-path="url(#pb260640121)" style="fill: #add8e6; stroke: #000000"/>
    <path d="M 248.103341 262.937841 
C 249.031552 262.937841 249.92187 262.569059 250.578214 261.912715 
C 251.234559 261.256371 251.603341 260.366052 251.603341 259.437841 
C 251.603341 258.50963 251.234559 257.619312 250.578214 256.962968 
C 249.92187 256.306623 249.031552 255.937841 248.103341 255.937841 
C 247.17513 255.937841 246.284811 256.306623 245.628467 256.962968 
C 244.972123 257.619312 244.603341 258.50963 244.603341 259.437841 
C 244.603341 260.366052 244.972123 261.256371 245.628467 261.912715 
C 246.284811 262.569059 247.17513 262.937841 248.103341 262.937841 
z
" clip-path="url(#pb260640121)" style="fill: #9acd32; stroke: #000000"/>
    <path d="M 137.017169 184.852349 
C 137.94538 184.852349 138.835699 184.483567 139.492043 183.827222 
C 140.148387 183.170878 140.517169 182.28056 140.517169 181.352349 
C 140.517169 180.424138 140.148387 179.533819 139.492043 178.877475 
C 138.835699 178.221131 137.94538 177.852349 137.017169 177.852349 
C 136.088958 177.852349 135.19864 178.221131 134.542296 178.877475 
C 133.885951 179.533819 133.517169 180.424138 133.517169 181.352349 
C 133.517169 182.28056 133.885951 183.170878 134.542296 183.827222 
C 135.19864 184.483567 136.088958 184.852349 137.017169 184.852349 
z
" clip-path="url(#pb260640121)" style="fill: #9acd32; stroke: #000000"/>
    <path d="M 342.299593 160.080915 
C 343.227804 160.080915 344.118123 159.712133 344.774467 159.055789 
C 345.430811 158.399445 345.799593 157.509126 345.799593 156.580915 
C 345.799593 155.652704 345.430811 154.762386 344.774467 154.106041 
C 344.118123 153.449697 343.227804 153.080915 342.299593 153.080915 
C 341.371382 153.080915 340.481063 153.449697 339.824719 154.106041 
C 339.168375 154.762386 338.799593 155.652704 338.799593 156.580915 
C 338.799593 157.509126 339.168375 158.399445 339.824719 159.055789 
C 340.481063 159.712133 341.371382 160.080915 342.299593 160.080915 
z
" clip-path="url(#pb260640121)" style="fill: #9acd32; stroke: #000000"/>
    <path d="M 299.994779 124.817471 
C 300.92299 124.817471 301.813309 124.448689 302.469653 123.792345 
C 303.125997 123.136001 303.494779 122.245682 303.494779 121.317471 
C 303.494779 120.389261 303.125997 119.498942 302.469653 118.842598 
C 301.813309 118.186254 300.92299 117.817471 299.994779 117.817471 
C 299.066568 117.817471 298.17625 118.186254 297.519905 118.842598 
C 296.863561 119.498942 296.494779 120.389261 296.494779 121.317471 
C 296.494779 122.245682 296.863561 123.136001 297.519905 123.792345 
C 298.17625 124.448689 299.066568 124.817471 299.994779 124.817471 
z
" clip-path="url(#pb260640121)" style="fill: #9acd32; stroke: #000000"/>
    <path d="M 270.3996 237.87086 
C 271.327811 237.87086 272.21813 237.502078 272.874474 236.845734 
C 273.530818 236.18939 273.8996 235.299071 273.8996 234.37086 
C 273.8996 233.442649 273.530818 232.552331 272.874474 231.895987 
C 272.21813 231.239642 271.327811 230.87086 270.3996 230.87086 
C 269.47139 230.87086 268.581071 231.239642 267.924727 231.895987 
C 267.268383 232.552331 266.8996 233.442649 266.8996 234.37086 
C 266.8996 235.299071 267.268383 236.18939 267.924727 236.845734 
C 268.581071 237.502078 269.47139 237.87086 270.3996 237.87086 
z
" clip-path="url(#pb260640121)" style="fill: #9acd32; stroke: #000000"/>
    <path d="M 300.385092 259.820121 
C 301.313303 259.820121 302.203621 259.451339 302.859965 258.794995 
C 303.51631 258.13865 303.885092 257.248332 303.885092 256.320121 
C 303.885092 255.39191 303.51631 254.501591 302.859965 253.845247 
C 302.203621 253.188903 301.313303 252.820121 300.385092 252.820121 
C 299.456881 252.820121 298.566562 253.188903 297.910218 253.845247 
C 297.253874 254.501591 296.885092 255.39191 296.885092 256.320121 
C 296.885092 257.248332 297.253874 258.13865 297.910218 258.794995 
C 298.566562 259.451339 299.456881 259.820121 300.385092 259.820121 
z
" clip-path="url(#pb260640121)" style="fill: #9acd32; stroke: #000000"/>
    <path d="M 147.371872 165.551973 
C 148.300083 165.551973 149.190401 165.183191 149.846746 164.526847 
C 150.50309 163.870503 150.871872 162.980184 150.871872 162.051973 
C 150.871872 161.123762 150.50309 160.233443 149.846746 159.577099 
C 149.190401 158.920755 148.300083 158.551973 147.371872 158.551973 
C 146.443661 158.551973 145.553342 158.920755 144.896998 159.577099 
C 144.240654 160.233443 143.871872 161.123762 143.871872 162.051973 
C 143.871872 162.980184 144.240654 163.870503 144.896998 164.526847 
C 145.553342 165.183191 146.443661 165.551973 147.371872 165.551973 
z
" clip-path="url(#pb260640121)" style="fill: #9acd32; stroke: #000000"/>
    <path d="M 233.095606 144.701719 
C 234.023817 144.701719 234.914136 144.332937 235.57048 143.676592 
C 236.226824 143.020248 236.595606 142.12993 236.595606 141.201719 
C 236.595606 140.273508 236.226824 139.383189 235.57048 138.726845 
C 234.914136 138.070501 234.023817 137.701719 233.095606 137.701719 
C 232.167396 137.701719 231.277077 138.070501 230.620733 138.726845 
C 229.964389 139.383189 229.595606 140.273508 229.595606 141.201719 
C 229.595606 142.12993 229.964389 143.020248 230.620733 143.676592 
C 231.277077 144.332937 232.167396 144.701719 233.095606 144.701719 
z
" clip-path="url(#pb260640121)" style="fill: #add8e6; stroke: #000000"/>
    <path d="M 202.650789 195.15723 
C 203.579 195.15723 204.469318 194.788448 205.125663 194.132104 
C 205.782007 193.475759 206.150789 192.585441 206.150789 191.65723 
C 206.150789 190.729019 205.782007 189.8387 205.125663 189.182356 
C 204.469318 188.526012 203.579 188.15723 202.650789 188.15723 
C 201.722578 188.15723 200.832259 188.526012 200.175915 189.182356 
C 199.519571 189.8387 199.150789 190.729019 199.150789 191.65723 
C 199.150789 192.585441 199.519571 193.475759 200.175915 194.132104 
C 200.832259 194.788448 201.722578 195.15723 202.650789 195.15723 
z
" clip-path="url(#pb260640121)" style="fill: #9acd32; stroke: #000000"/>
    <path d="M 146.599424 127.213819 
C 147.527635 127.213819 148.417953 126.845037 149.074298 126.188693 
C 149.730642 125.532349 150.099424 124.64203 150.099424 123.713819 
C 150.099424 122.785608 149.730642 121.89529 149.074298 121.238946 
C 148.417953 120.582601 147.527635 120.213819 146.599424 120.213819 
C 145.671213 120.213819 144.780894 120.582601 144.12455 121.238946 
C 143.468206 121.89529 143.099424 122.785608 143.099424 123.713819 
C 143.099424 124.64203 143.468206 125.532349 144.12455 126.188693 
C 144.780894 126.845037 145.671213 127.213819 146.599424 127.213819 
z
" clip-path="url(#pb260640121)" style="fill: #add8e6; stroke: #000000"/>
    <path d="M 230.388419 189.372799 
C 231.31663 189.372799 232.206949 189.004017 232.863293 188.347673 
C 233.519637 187.691328 233.888419 186.80101 233.888419 185.872799 
C 233.888419 184.944588 233.519637 184.054269 232.863293 183.397925 
C 232.206949 182.741581 231.31663 182.372799 230.388419 182.372799 
C 229.460209 182.372799 228.56989 182.741581 227.913546 183.397925 
C 227.257201 184.054269 226.888419 184.944588 226.888419 185.872799 
C 226.888419 186.80101 227.257201 187.691328 227.913546 188.347673 
C 228.56989 189.004017 229.460209 189.372799 230.388419 189.372799 
z
" clip-path="url(#pb260640121)" style="fill: #add8e6; stroke: #000000"/>
    <path d="M 383.49854 135.674242 
C 384.426751 135.674242 385.317069 135.30546 385.973414 134.649116 
C 386.629758 133.992772 386.99854 133.102453 386.99854 132.174242 
C 386.99854 131.246031 386.629758 130.355713 385.973414 129.699368 
C 385.317069 129.043024 384.426751 128.674242 383.49854 128.674242 
C 382.570329 128.674242 381.68001 129.043024 381.023666 129.699368 
C 380.367322 130.355713 379.99854 131.246031 379.99854 132.174242 
C 379.99854 133.102453 380.367322 133.992772 381.023666 134.649116 
C 381.68001 135.30546 382.570329 135.674242 383.49854 135.674242 
z
" clip-path="url(#pb260640121)" style="fill: #9acd32; stroke: #000000"/>
    <path d="M 357.881966 188.301606 
C 358.810177 188.301606 359.700496 187.932824 360.35684 187.27648 
C 361.013184 186.620135 361.381966 185.729817 361.381966 184.801606 
C 361.381966 183.873395 361.013184 182.983076 360.35684 182.326732 
C 359.700496 181.670388 358.810177 181.301606 357.881966 181.301606 
C 356.953755 181.301606 356.063437 181.670388 355.407093 182.326732 
C 354.750748 182.983076 354.381966 183.873395 354.381966 184.801606 
C 354.381966 185.729817 354.750748 186.620135 355.407093 187.27648 
C 356.063437 187.932824 356.953755 188.301606 357.881966 188.301606 
z
" clip-path="url(#pb260640121)" style="fill: #9acd32; stroke: #000000"/>
    <path d="M 284.46 208.505623 
C 285.388211 208.505623 286.27853 208.136841 286.934874 207.480496 
C 287.591218 206.824152 287.96 205.933833 287.96 205.005623 
C 287.96 204.077412 287.591218 203.187093 286.934874 202.530749 
C 286.27853 201.874405 285.388211 201.505623 284.46 201.505623 
C 283.531789 201.505623 282.64147 201.874405 281.985126 202.530749 
C 281.328782 203.187093 280.96 204.077412 280.96 205.005623 
C 280.96 205.933833 281.328782 206.824152 281.985126 207.480496 
C 282.64147 208.136841 283.531789 208.505623 284.46 208.505623 
z
" clip-path="url(#pb260640121)" style="fill: #9acd32; stroke: #000000"/>
    <path d="M 223.726828 132.551763 
C 224.655039 132.551763 225.545358 132.182981 226.201702 131.526637 
C 226.858046 130.870293 227.226828 129.979974 227.226828 129.051763 
C 227.226828 128.123552 226.858046 127.233234 226.201702 126.576889 
C 225.545358 125.920545 224.655039 125.551763 223.726828 125.551763 
C 222.798617 125.551763 221.908299 125.920545 221.251955 126.576889 
C 220.59561 127.233234 220.226828 128.123552 220.226828 129.051763 
C 220.226828 129.979974 220.59561 130.870293 221.251955 131.526637 
C 221.908299 132.182981 222.798617 132.551763 223.726828 132.551763 
z
" clip-path="url(#pb260640121)" style="fill: #add8e6; stroke: #000000"/>
    <path d="M 372.304229 150.485632 
C 373.23244 150.485632 374.122758 150.11685 374.779103 149.460505 
C 375.435447 148.804161 375.804229 147.913843 375.804229 146.985632 
C 375.804229 146.057421 375.435447 145.167102 374.779103 144.510758 
C 374.122758 143.854414 373.23244 143.485632 372.304229 143.485632 
C 371.376018 143.485632 370.485699 143.854414 369.829355 144.510758 
C 369.173011 145.167102 368.804229 146.057421 368.804229 146.985632 
C 368.804229 147.913843 369.173011 148.804161 369.829355 149.460505 
C 370.485699 150.11685 371.376018 150.485632 372.304229 150.485632 
z
" clip-path="url(#pb260640121)" style="fill: #9acd32; stroke: #000000"/>
    <path d="M 197.168398 138.794792 
C 198.096609 138.794792 198.986927 138.42601 199.643271 137.769666 
C 200.299616 137.113322 200.668398 136.223003 200.668398 135.294792 
C 200.668398 134.366582 200.299616 133.476263 199.643271 132.819919 
C 198.986927 132.163575 198.096609 131.794792 197.168398 131.794792 
C 196.240187 131.794792 195.349868 132.163575 194.693524 132.819919 
C 194.03718 133.476263 193.668398 134.366582 193.668398 135.294792 
C 193.668398 136.223003 194.03718 137.113322 194.693524 137.769666 
C 195.349868 138.42601 196.240187 138.794792 197.168398 138.794792 
z
" clip-path="url(#pb260640121)" style="fill: #add8e6; stroke: #000000"/>
    <path d="M 264.463809 219.050719 
C 265.392019 219.050719 266.282338 218.681937 266.938682 218.025593 
C 267.595027 217.369249 267.963809 216.47893 267.963809 215.550719 
C 267.963809 214.622508 267.595027 213.732189 266.938682 213.075845 
C 266.282338 212.419501 265.392019 212.050719 264.463809 212.050719 
C 263.535598 212.050719 262.645279 212.419501 261.988935 213.075845 
C 261.332591 213.732189 260.963809 214.622508 260.963809 215.550719 
C 260.963809 216.47893 261.332591 217.369249 261.988935 218.025593 
C 262.645279 218.681937 263.535598 219.050719 264.463809 219.050719 
z
" clip-path="url(#pb260640121)" style="fill: #9acd32; stroke: #000000"/>
    <path d="M 259.644456 161.305224 
C 260.572667 161.305224 261.462985 160.936442 262.11933 160.280098 
C 262.775674 159.623754 263.144456 158.733435 263.144456 157.805224 
C 263.144456 156.877014 262.775674 155.986695 262.11933 155.330351 
C 261.462985 154.674007 260.572667 154.305224 259.644456 154.305224 
C 258.716245 154.305224 257.825926 154.674007 257.169582 155.330351 
C 256.513238 155.986695 256.144456 156.877014 256.144456 157.805224 
C 256.144456 158.733435 256.513238 159.623754 257.169582 160.280098 
C 257.825926 160.936442 258.716245 161.305224 259.644456 161.305224 
z
" clip-path="url(#pb260640121)" style="fill: #add8e6; stroke: #000000"/>
    <path d="M 383.549887 206.652443 
C 384.478097 206.652443 385.368416 206.283661 386.02476 205.627317 
C 386.681104 204.970973 387.049887 204.080654 387.049887 203.152443 
C 387.049887 202.224232 386.681104 201.333913 386.02476 200.677569 
C 385.368416 200.021225 384.478097 199.652443 383.549887 199.652443 
C 382.621676 199.652443 381.731357 200.021225 381.075013 200.677569 
C 380.418669 201.333913 380.049887 202.224232 380.049887 203.152443 
C 380.049887 204.080654 380.418669 204.970973 381.075013 205.627317 
C 381.731357 206.283661 382.621676 206.652443 383.549887 206.652443 
z
" clip-path="url(#pb260640121)" style="fill: #9acd32; stroke: #000000"/>
    <path d="M 241.078373 287.867387 
C 242.006583 287.867387 242.896902 287.498605 243.553246 286.84226 
C 244.209591 286.185916 244.578373 285.295597 244.578373 284.367387 
C 244.578373 283.439176 244.209591 282.548857 243.553246 281.892513 
C 242.896902 281.236169 242.006583 280.867387 241.078373 280.867387 
C 240.150162 280.867387 239.259843 281.236169 238.603499 281.892513 
C 237.947155 282.548857 237.578373 283.439176 237.578373 284.367387 
C 237.578373 285.295597 237.947155 286.185916 238.603499 286.84226 
C 239.259843 287.498605 240.150162 287.867387 241.078373 287.867387 
z
" clip-path="url(#pb260640121)" style="fill: #9acd32; stroke: #000000"/>
    <path d="M 134.746645 143.863019 
C 135.674856 143.863019 136.565175 143.494237 137.221519 142.837893 
C 137.877863 142.181548 138.246645 141.29123 138.246645 140.363019 
C 138.246645 139.434808 137.877863 138.544489 137.221519 137.888145 
C 136.565175 137.231801 135.674856 136.863019 134.746645 136.863019 
C 133.818435 136.863019 132.928116 137.231801 132.271772 137.888145 
C 131.615428 138.544489 131.246645 139.434808 131.246645 140.363019 
C 131.246645 141.29123 131.615428 142.181548 132.271772 142.837893 
C 132.928116 143.494237 133.818435 143.863019 134.746645 143.863019 
z
" clip-path="url(#pb260640121)" style="fill: #add8e6; stroke: #000000"/>
   </g>
   <g id="PathCollection_1"/>
   <g id="PathCollection_2"/>
   <g id="matplotlib.axis_1"/>
   <g id="matplotlib.axis_2"/>
   <g id="text_1">
    <g id="patch_3">
     <path d="M 277.19385 83.020553 
L 407.5776 83.020553 
Q 414.5776 83.020553 414.5776 76.020553 
L 414.5776 46.79424 
Q 414.5776 39.79424 407.5776 39.79424 
L 277.19385 39.79424 
Q 270.19385 39.79424 270.19385 46.79424 
L 270.19385 76.020553 
Q 270.19385 83.020553 277.19385 83.020553 
z
" style="fill: #ffffff; opacity: 0.2; stroke: #000000; stroke-linejoin: miter"/>
    </g>
    <!-- Total Cuts: 24.890 -->
    <g transform="translate(280.85135 57.432052) scale(0.14 -0.14)">
     <defs>
      <path id="DejaVuSans-54" d="M -19 4666 
L 3928 4666 
L 3928 4134 
L 2272 4134 
L 2272 0 
L 1638 0 
L 1638 4134 
L -19 4134 
L -19 4666 
z
" transform="scale(0.015625)"/>
      <path id="DejaVuSans-6f" d="M 1959 3097 
Q 1497 3097 1228 2736 
Q 959 2375 959 1747 
Q 959 1119 1226 758 
Q 1494 397 1959 397 
Q 2419 397 2687 759 
Q 2956 1122 2956 1747 
Q 2956 2369 2687 2733 
Q 2419 3097 1959 3097 
z
M 1959 3584 
Q 2709 3584 3137 3096 
Q 3566 2609 3566 1747 
Q 3566 888 3137 398 
Q 2709 -91 1959 -91 
Q 1206 -91 779 398 
Q 353 888 353 1747 
Q 353 2609 779 3096 
Q 1206 3584 1959 3584 
z
" transform="scale(0.015625)"/>
      <path id="DejaVuSans-74" d="M 1172 4494 
L 1172 3500 
L 2356 3500 
L 2356 3053 
L 1172 3053 
L 1172 1153 
Q 1172 725 1289 603 
Q 1406 481 1766 481 
L 2356 481 
L 2356 0 
L 1766 0 
Q 1100 0 847 248 
Q 594 497 594 1153 
L 594 3053 
L 172 3053 
L 172 3500 
L 594 3500 
L 594 4494 
L 1172 4494 
z
" transform="scale(0.015625)"/>
      <path id="DejaVuSans-61" d="M 2194 1759 
Q 1497 1759 1228 1600 
Q 959 1441 959 1056 
Q 959 750 1161 570 
Q 1363 391 1709 391 
Q 2188 391 2477 730 
Q 2766 1069 2766 1631 
L 2766 1759 
L 2194 1759 
z
M 3341 1997 
L 3341 0 
L 2766 0 
L 2766 531 
Q 2569 213 2275 61 
Q 1981 -91 1556 -91 
Q 1019 -91 701 211 
Q 384 513 384 1019 
Q 384 1609 779 1909 
Q 1175 2209 1959 2209 
L 2766 2209 
L 2766 2266 
Q 2766 2663 2505 2880 
Q 2244 3097 1772 3097 
Q 1472 3097 1187 3025 
Q 903 2953 641 2809 
L 641 3341 
Q 956 3463 1253 3523 
Q 1550 3584 1831 3584 
Q 2591 3584 2966 3190 
Q 3341 2797 3341 1997 
z
" transform="scale(0.015625)"/>
      <path id="DejaVuSans-6c" d="M 603 4863 
L 1178 4863 
L 1178 0 
L 603 0 
L 603 4863 
z
" transform="scale(0.015625)"/>
      <path id="DejaVuSans-20" transform="scale(0.015625)"/>
      <path id="DejaVuSans-43" d="M 4122 4306 
L 4122 3641 
Q 3803 3938 3442 4084 
Q 3081 4231 2675 4231 
Q 1875 4231 1450 3742 
Q 1025 3253 1025 2328 
Q 1025 1406 1450 917 
Q 1875 428 2675 428 
Q 3081 428 3442 575 
Q 3803 722 4122 1019 
L 4122 359 
Q 3791 134 3420 21 
Q 3050 -91 2638 -91 
Q 1578 -91 968 557 
Q 359 1206 359 2328 
Q 359 3453 968 4101 
Q 1578 4750 2638 4750 
Q 3056 4750 3426 4639 
Q 3797 4528 4122 4306 
z
" transform="scale(0.015625)"/>
      <path id="DejaVuSans-75" d="M 544 1381 
L 544 3500 
L 1119 3500 
L 1119 1403 
Q 1119 906 1312 657 
Q 1506 409 1894 409 
Q 2359 409 2629 706 
Q 2900 1003 2900 1516 
L 2900 3500 
L 3475 3500 
L 3475 0 
L 2900 0 
L 2900 538 
Q 2691 219 2414 64 
Q 2138 -91 1772 -91 
Q 1169 -91 856 284 
Q 544 659 544 1381 
z
M 1991 3584 
L 1991 3584 
z
" transform="scale(0.015625)"/>
      <path id="DejaVuSans-73" d="M 2834 3397 
L 2834 2853 
Q 2591 2978 2328 3040 
Q 2066 3103 1784 3103 
Q 1356 3103 1142 2972 
Q 928 2841 928 2578 
Q 928 2378 1081 2264 
Q 1234 2150 1697 2047 
L 1894 2003 
Q 2506 1872 2764 1633 
Q 3022 1394 3022 966 
Q 3022 478 2636 193 
Q 2250 -91 1575 -91 
Q 1294 -91 989 -36 
Q 684 19 347 128 
L 347 722 
Q 666 556 975 473 
Q 1284 391 1588 391 
Q 1994 391 2212 530 
Q 2431 669 2431 922 
Q 2431 1156 2273 1281 
Q 2116 1406 1581 1522 
L 1381 1569 
Q 847 1681 609 1914 
Q 372 2147 372 2553 
Q 372 3047 722 3315 
Q 1072 3584 1716 3584 
Q 2034 3584 2315 3537 
Q 2597 3491 2834 3397 
z
" transform="scale(0.015625)"/>
      <path id="DejaVuSans-3a" d="M 750 794 
L 1409 794 
L 1409 0 
L 750 0 
L 750 794 
z
M 750 3309 
L 1409 3309 
L 1409 2516 
L 750 2516 
L 750 3309 
z
" transform="scale(0.015625)"/>
      <path id="DejaVuSans-32" d="M 1228 531 
L 3431 531 
L 3431 0 
L 469 0 
L 469 531 
Q 828 903 1448 1529 
Q 2069 2156 2228 2338 
Q 2531 2678 2651 2914 
Q 2772 3150 2772 3378 
Q 2772 3750 2511 3984 
Q 2250 4219 1831 4219 
Q 1534 4219 1204 4116 
Q 875 4013 500 3803 
L 500 4441 
Q 881 4594 1212 4672 
Q 1544 4750 1819 4750 
Q 2544 4750 2975 4387 
Q 3406 4025 3406 3419 
Q 3406 3131 3298 2873 
Q 3191 2616 2906 2266 
Q 2828 2175 2409 1742 
Q 1991 1309 1228 531 
z
" transform="scale(0.015625)"/>
      <path id="DejaVuSans-34" d="M 2419 4116 
L 825 1625 
L 2419 1625 
L 2419 4116 
z
M 2253 4666 
L 3047 4666 
L 3047 1625 
L 3713 1625 
L 3713 1100 
L 3047 1100 
L 3047 0 
L 2419 0 
L 2419 1100 
L 313 1100 
L 313 1709 
L 2253 4666 
z
" transform="scale(0.015625)"/>
      <path id="DejaVuSans-2e" d="M 684 794 
L 1344 794 
L 1344 0 
L 684 0 
L 684 794 
z
" transform="scale(0.015625)"/>
      <path id="DejaVuSans-38" d="M 2034 2216 
Q 1584 2216 1326 1975 
Q 1069 1734 1069 1313 
Q 1069 891 1326 650 
Q 1584 409 2034 409 
Q 2484 409 2743 651 
Q 3003 894 3003 1313 
Q 3003 1734 2745 1975 
Q 2488 2216 2034 2216 
z
M 1403 2484 
Q 997 2584 770 2862 
Q 544 3141 544 3541 
Q 544 4100 942 4425 
Q 1341 4750 2034 4750 
Q 2731 4750 3128 4425 
Q 3525 4100 3525 3541 
Q 3525 3141 3298 2862 
Q 3072 2584 2669 2484 
Q 3125 2378 3379 2068 
Q 3634 1759 3634 1313 
Q 3634 634 3220 271 
Q 2806 -91 2034 -91 
Q 1263 -91 848 271 
Q 434 634 434 1313 
Q 434 1759 690 2068 
Q 947 2378 1403 2484 
z
M 1172 3481 
Q 1172 3119 1398 2916 
Q 1625 2713 2034 2713 
Q 2441 2713 2670 2916 
Q 2900 3119 2900 3481 
Q 2900 3844 2670 4047 
Q 2441 4250 2034 4250 
Q 1625 4250 1398 4047 
Q 1172 3844 1172 3481 
z
" transform="scale(0.015625)"/>
      <path id="DejaVuSans-39" d="M 703 97 
L 703 672 
Q 941 559 1184 500 
Q 1428 441 1663 441 
Q 2288 441 2617 861 
Q 2947 1281 2994 2138 
Q 2813 1869 2534 1725 
Q 2256 1581 1919 1581 
Q 1219 1581 811 2004 
Q 403 2428 403 3163 
Q 403 3881 828 4315 
Q 1253 4750 1959 4750 
Q 2769 4750 3195 4129 
Q 3622 3509 3622 2328 
Q 3622 1225 3098 567 
Q 2575 -91 1691 -91 
Q 1453 -91 1209 -44 
Q 966 3 703 97 
z
M 1959 2075 
Q 2384 2075 2632 2365 
Q 2881 2656 2881 3163 
Q 2881 3666 2632 3958 
Q 2384 4250 1959 4250 
Q 1534 4250 1286 3958 
Q 1038 3666 1038 3163 
Q 1038 2656 1286 2365 
Q 1534 2075 1959 2075 
z
" transform="scale(0.015625)"/>
      <path id="DejaVuSans-30" d="M 2034 4250 
Q 1547 4250 1301 3770 
Q 1056 3291 1056 2328 
Q 1056 1369 1301 889 
Q 1547 409 2034 409 
Q 2525 409 2770 889 
Q 3016 1369 3016 2328 
Q 3016 3291 2770 3770 
Q 2525 4250 2034 4250 
z
M 2034 4750 
Q 2819 4750 3233 4129 
Q 3647 3509 3647 2328 
Q 3647 1150 3233 529 
Q 2819 -91 2034 -91 
Q 1250 -91 836 529 
Q 422 1150 422 2328 
Q 422 3509 836 4129 
Q 1250 4750 2034 4750 
z
" transform="scale(0.015625)"/>
     </defs>
     <use xlink:href="#DejaVuSans-54"/>
     <use xlink:href="#DejaVuSans-6f" x="44.083984"/>
     <use xlink:href="#DejaVuSans-74" x="105.265625"/>
     <use xlink:href="#DejaVuSans-61" x="144.474609"/>
     <use xlink:href="#DejaVuSans-6c" x="205.753906"/>
     <use xlink:href="#DejaVuSans-20" x="233.537109"/>
     <use xlink:href="#DejaVuSans-43" x="265.324219"/>
     <use xlink:href="#DejaVuSans-75" x="335.148438"/>
     <use xlink:href="#DejaVuSans-74" x="398.527344"/>
     <use xlink:href="#DejaVuSans-73" x="437.736328"/>
     <use xlink:href="#DejaVuSans-3a" x="489.835938"/>
     <use xlink:href="#DejaVuSans-20" x="523.527344"/>
     <use xlink:href="#DejaVuSans-32" x="555.314453"/>
     <use xlink:href="#DejaVuSans-34" x="618.9375"/>
     <use xlink:href="#DejaVuSans-2e" x="682.560547"/>
     <use xlink:href="#DejaVuSans-38" x="714.347656"/>
     <use xlink:href="#DejaVuSans-39" x="777.970703"/>
     <use xlink:href="#DejaVuSans-30" x="841.59375"/>
    </g>
    <!-- Runtime (s): 0.117 -->
    <g transform="translate(277.19385 73.10899) scale(0.14 -0.14)">
     <defs>
      <path id="DejaVuSans-52" d="M 2841 2188 
Q 3044 2119 3236 1894 
Q 3428 1669 3622 1275 
L 4263 0 
L 3584 0 
L 2988 1197 
Q 2756 1666 2539 1819 
Q 2322 1972 1947 1972 
L 1259 1972 
L 1259 0 
L 628 0 
L 628 4666 
L 2053 4666 
Q 2853 4666 3247 4331 
Q 3641 3997 3641 3322 
Q 3641 2881 3436 2590 
Q 3231 2300 2841 2188 
z
M 1259 4147 
L 1259 2491 
L 2053 2491 
Q 2509 2491 2742 2702 
Q 2975 2913 2975 3322 
Q 2975 3731 2742 3939 
Q 2509 4147 2053 4147 
L 1259 4147 
z
" transform="scale(0.015625)"/>
      <path id="DejaVuSans-6e" d="M 3513 2113 
L 3513 0 
L 2938 0 
L 2938 2094 
Q 2938 2591 2744 2837 
Q 2550 3084 2163 3084 
Q 1697 3084 1428 2787 
Q 1159 2491 1159 1978 
L 1159 0 
L 581 0 
L 581 3500 
L 1159 3500 
L 1159 2956 
Q 1366 3272 1645 3428 
Q 1925 3584 2291 3584 
Q 2894 3584 3203 3211 
Q 3513 2838 3513 2113 
z
" transform="scale(0.015625)"/>
      <path id="DejaVuSans-69" d="M 603 3500 
L 1178 3500 
L 1178 0 
L 603 0 
L 603 3500 
z
M 603 4863 
L 1178 4863 
L 1178 4134 
L 603 4134 
L 603 4863 
z
" transform="scale(0.015625)"/>
      <path id="DejaVuSans-6d" d="M 3328 2828 
Q 3544 3216 3844 3400 
Q 4144 3584 4550 3584 
Q 5097 3584 5394 3201 
Q 5691 2819 5691 2113 
L 5691 0 
L 5113 0 
L 5113 2094 
Q 5113 2597 4934 2840 
Q 4756 3084 4391 3084 
Q 3944 3084 3684 2787 
Q 3425 2491 3425 1978 
L 3425 0 
L 2847 0 
L 2847 2094 
Q 2847 2600 2669 2842 
Q 2491 3084 2119 3084 
Q 1678 3084 1418 2786 
Q 1159 2488 1159 1978 
L 1159 0 
L 581 0 
L 581 3500 
L 1159 3500 
L 1159 2956 
Q 1356 3278 1631 3431 
Q 1906 3584 2284 3584 
Q 2666 3584 2933 3390 
Q 3200 3197 3328 2828 
z
" transform="scale(0.015625)"/>
      <path id="DejaVuSans-65" d="M 3597 1894 
L 3597 1613 
L 953 1613 
Q 991 1019 1311 708 
Q 1631 397 2203 397 
Q 2534 397 2845 478 
Q 3156 559 3463 722 
L 3463 178 
Q 3153 47 2828 -22 
Q 2503 -91 2169 -91 
Q 1331 -91 842 396 
Q 353 884 353 1716 
Q 353 2575 817 3079 
Q 1281 3584 2069 3584 
Q 2775 3584 3186 3129 
Q 3597 2675 3597 1894 
z
M 3022 2063 
Q 3016 2534 2758 2815 
Q 2500 3097 2075 3097 
Q 1594 3097 1305 2825 
Q 1016 2553 972 2059 
L 3022 2063 
z
" transform="scale(0.015625)"/>
      <path id="DejaVuSans-28" d="M 1984 4856 
Q 1566 4138 1362 3434 
Q 1159 2731 1159 2009 
Q 1159 1288 1364 580 
Q 1569 -128 1984 -844 
L 1484 -844 
Q 1016 -109 783 600 
Q 550 1309 550 2009 
Q 550 2706 781 3412 
Q 1013 4119 1484 4856 
L 1984 4856 
z
" transform="scale(0.015625)"/>
      <path id="DejaVuSans-29" d="M 513 4856 
L 1013 4856 
Q 1481 4119 1714 3412 
Q 1947 2706 1947 2009 
Q 1947 1309 1714 600 
Q 1481 -109 1013 -844 
L 513 -844 
Q 928 -128 1133 580 
Q 1338 1288 1338 2009 
Q 1338 2731 1133 3434 
Q 928 4138 513 4856 
z
" transform="scale(0.015625)"/>
      <path id="DejaVuSans-31" d="M 794 531 
L 1825 531 
L 1825 4091 
L 703 3866 
L 703 4441 
L 1819 4666 
L 2450 4666 
L 2450 531 
L 3481 531 
L 3481 0 
L 794 0 
L 794 531 
z
" transform="scale(0.015625)"/>
      <path id="DejaVuSans-37" d="M 525 4666 
L 3525 4666 
L 3525 4397 
L 1831 0 
L 1172 0 
L 2766 4134 
L 525 4134 
L 525 4666 
z
" transform="scale(0.015625)"/>
     </defs>
     <use xlink:href="#DejaVuSans-52"/>
     <use xlink:href="#DejaVuSans-75" x="64.982422"/>
     <use xlink:href="#DejaVuSans-6e" x="128.361328"/>
     <use xlink:href="#DejaVuSans-74" x="191.740234"/>
     <use xlink:href="#DejaVuSans-69" x="230.949219"/>
     <use xlink:href="#DejaVuSans-6d" x="258.732422"/>
     <use xlink:href="#DejaVuSans-65" x="356.144531"/>
     <use xlink:href="#DejaVuSans-20" x="417.667969"/>
     <use xlink:href="#DejaVuSans-28" x="449.455078"/>
     <use xlink:href="#DejaVuSans-73" x="488.46875"/>
     <use xlink:href="#DejaVuSans-29" x="540.568359"/>
     <use xlink:href="#DejaVuSans-3a" x="579.582031"/>
     <use xlink:href="#DejaVuSans-20" x="613.273438"/>
     <use xlink:href="#DejaVuSans-30" x="645.060547"/>
     <use xlink:href="#DejaVuSans-2e" x="708.683594"/>
     <use xlink:href="#DejaVuSans-31" x="740.470703"/>
     <use xlink:href="#DejaVuSans-31" x="804.09375"/>
     <use xlink:href="#DejaVuSans-37" x="867.716797"/>
    </g>
   </g>
   <g id="text_2">
    <!-- Weighted, 60 vertices, 5.028% density -->
    <g transform="translate(83.697812 35.472) scale(0.14 -0.14)">
     <defs>
      <path id="DejaVuSans-Bold-57" d="M 191 4666 
L 1344 4666 
L 2150 1275 
L 2950 4666 
L 4109 4666 
L 4909 1275 
L 5716 4666 
L 6859 4666 
L 5759 0 
L 4372 0 
L 3525 3547 
L 2688 0 
L 1300 0 
L 191 4666 
z
" transform="scale(0.015625)"/>
      <path id="DejaVuSans-Bold-65" d="M 4031 1759 
L 4031 1441 
L 1416 1441 
Q 1456 1047 1700 850 
Q 1944 653 2381 653 
Q 2734 653 3104 758 
Q 3475 863 3866 1075 
L 3866 213 
Q 3469 63 3072 -14 
Q 2675 -91 2278 -91 
Q 1328 -91 801 392 
Q 275 875 275 1747 
Q 275 2603 792 3093 
Q 1309 3584 2216 3584 
Q 3041 3584 3536 3087 
Q 4031 2591 4031 1759 
z
M 2881 2131 
Q 2881 2450 2695 2645 
Q 2509 2841 2209 2841 
Q 1884 2841 1681 2658 
Q 1478 2475 1428 2131 
L 2881 2131 
z
" transform="scale(0.015625)"/>
      <path id="DejaVuSans-Bold-69" d="M 538 3500 
L 1656 3500 
L 1656 0 
L 538 0 
L 538 3500 
z
M 538 4863 
L 1656 4863 
L 1656 3950 
L 538 3950 
L 538 4863 
z
" transform="scale(0.015625)"/>
      <path id="DejaVuSans-Bold-67" d="M 2919 594 
Q 2688 288 2409 144 
Q 2131 0 1766 0 
Q 1125 0 706 504 
Q 288 1009 288 1791 
Q 288 2575 706 3076 
Q 1125 3578 1766 3578 
Q 2131 3578 2409 3434 
Q 2688 3291 2919 2981 
L 2919 3500 
L 4044 3500 
L 4044 353 
Q 4044 -491 3511 -936 
Q 2978 -1381 1966 -1381 
Q 1638 -1381 1331 -1331 
Q 1025 -1281 716 -1178 
L 716 -306 
Q 1009 -475 1290 -558 
Q 1572 -641 1856 -641 
Q 2406 -641 2662 -400 
Q 2919 -159 2919 353 
L 2919 594 
z
M 2181 2772 
Q 1834 2772 1640 2515 
Q 1447 2259 1447 1791 
Q 1447 1309 1634 1061 
Q 1822 813 2181 813 
Q 2531 813 2725 1069 
Q 2919 1325 2919 1791 
Q 2919 2259 2725 2515 
Q 2531 2772 2181 2772 
z
" transform="scale(0.015625)"/>
      <path id="DejaVuSans-Bold-68" d="M 4056 2131 
L 4056 0 
L 2931 0 
L 2931 347 
L 2931 1625 
Q 2931 2084 2911 2256 
Q 2891 2428 2841 2509 
Q 2775 2619 2662 2680 
Q 2550 2741 2406 2741 
Q 2056 2741 1856 2470 
Q 1656 2200 1656 1722 
L 1656 0 
L 538 0 
L 538 4863 
L 1656 4863 
L 1656 2988 
Q 1909 3294 2193 3439 
Q 2478 3584 2822 3584 
Q 3428 3584 3742 3212 
Q 4056 2841 4056 2131 
z
" transform="scale(0.015625)"/>
      <path id="DejaVuSans-Bold-74" d="M 1759 4494 
L 1759 3500 
L 2913 3500 
L 2913 2700 
L 1759 2700 
L 1759 1216 
Q 1759 972 1856 886 
Q 1953 800 2241 800 
L 2816 800 
L 2816 0 
L 1856 0 
Q 1194 0 917 276 
Q 641 553 641 1216 
L 641 2700 
L 84 2700 
L 84 3500 
L 641 3500 
L 641 4494 
L 1759 4494 
z
" transform="scale(0.015625)"/>
      <path id="DejaVuSans-Bold-64" d="M 2919 2988 
L 2919 4863 
L 4044 4863 
L 4044 0 
L 2919 0 
L 2919 506 
Q 2688 197 2409 53 
Q 2131 -91 1766 -91 
Q 1119 -91 703 423 
Q 288 938 288 1747 
Q 288 2556 703 3070 
Q 1119 3584 1766 3584 
Q 2128 3584 2408 3439 
Q 2688 3294 2919 2988 
z
M 2181 722 
Q 2541 722 2730 984 
Q 2919 1247 2919 1747 
Q 2919 2247 2730 2509 
Q 2541 2772 2181 2772 
Q 1825 2772 1636 2509 
Q 1447 2247 1447 1747 
Q 1447 1247 1636 984 
Q 1825 722 2181 722 
z
" transform="scale(0.015625)"/>
      <path id="DejaVuSans-Bold-2c" d="M 653 1209 
L 1778 1209 
L 1778 256 
L 1006 -909 
L 341 -909 
L 653 256 
L 653 1209 
z
" transform="scale(0.015625)"/>
      <path id="DejaVuSans-Bold-20" transform="scale(0.015625)"/>
      <path id="DejaVuSans-Bold-36" d="M 2316 2303 
Q 2000 2303 1842 2098 
Q 1684 1894 1684 1484 
Q 1684 1075 1842 870 
Q 2000 666 2316 666 
Q 2634 666 2792 870 
Q 2950 1075 2950 1484 
Q 2950 1894 2792 2098 
Q 2634 2303 2316 2303 
z
M 3803 4544 
L 3803 3681 
Q 3506 3822 3243 3889 
Q 2981 3956 2731 3956 
Q 2194 3956 1894 3657 
Q 1594 3359 1544 2772 
Q 1750 2925 1990 3001 
Q 2231 3078 2516 3078 
Q 3231 3078 3670 2659 
Q 4109 2241 4109 1563 
Q 4109 813 3618 361 
Q 3128 -91 2303 -91 
Q 1394 -91 895 523 
Q 397 1138 397 2266 
Q 397 3422 980 4083 
Q 1563 4744 2578 4744 
Q 2900 4744 3203 4694 
Q 3506 4644 3803 4544 
z
" transform="scale(0.015625)"/>
      <path id="DejaVuSans-Bold-30" d="M 2944 2338 
Q 2944 3213 2780 3570 
Q 2616 3928 2228 3928 
Q 1841 3928 1675 3570 
Q 1509 3213 1509 2338 
Q 1509 1453 1675 1090 
Q 1841 728 2228 728 
Q 2613 728 2778 1090 
Q 2944 1453 2944 2338 
z
M 4147 2328 
Q 4147 1169 3647 539 
Q 3147 -91 2228 -91 
Q 1306 -91 806 539 
Q 306 1169 306 2328 
Q 306 3491 806 4120 
Q 1306 4750 2228 4750 
Q 3147 4750 3647 4120 
Q 4147 3491 4147 2328 
z
" transform="scale(0.015625)"/>
      <path id="DejaVuSans-Bold-76" d="M 97 3500 
L 1216 3500 
L 2088 1081 
L 2956 3500 
L 4078 3500 
L 2700 0 
L 1472 0 
L 97 3500 
z
" transform="scale(0.015625)"/>
      <path id="DejaVuSans-Bold-72" d="M 3138 2547 
Q 2991 2616 2845 2648 
Q 2700 2681 2553 2681 
Q 2122 2681 1889 2404 
Q 1656 2128 1656 1613 
L 1656 0 
L 538 0 
L 538 3500 
L 1656 3500 
L 1656 2925 
Q 1872 3269 2151 3426 
Q 2431 3584 2822 3584 
Q 2878 3584 2943 3579 
Q 3009 3575 3134 3559 
L 3138 2547 
z
" transform="scale(0.015625)"/>
      <path id="DejaVuSans-Bold-63" d="M 3366 3391 
L 3366 2478 
Q 3138 2634 2908 2709 
Q 2678 2784 2431 2784 
Q 1963 2784 1702 2511 
Q 1441 2238 1441 1747 
Q 1441 1256 1702 982 
Q 1963 709 2431 709 
Q 2694 709 2930 787 
Q 3166 866 3366 1019 
L 3366 103 
Q 3103 6 2833 -42 
Q 2563 -91 2291 -91 
Q 1344 -91 809 395 
Q 275 881 275 1747 
Q 275 2613 809 3098 
Q 1344 3584 2291 3584 
Q 2566 3584 2833 3536 
Q 3100 3488 3366 3391 
z
" transform="scale(0.015625)"/>
      <path id="DejaVuSans-Bold-73" d="M 3272 3391 
L 3272 2541 
Q 2913 2691 2578 2766 
Q 2244 2841 1947 2841 
Q 1628 2841 1473 2761 
Q 1319 2681 1319 2516 
Q 1319 2381 1436 2309 
Q 1553 2238 1856 2203 
L 2053 2175 
Q 2913 2066 3209 1816 
Q 3506 1566 3506 1031 
Q 3506 472 3093 190 
Q 2681 -91 1863 -91 
Q 1516 -91 1145 -36 
Q 775 19 384 128 
L 384 978 
Q 719 816 1070 734 
Q 1422 653 1784 653 
Q 2113 653 2278 743 
Q 2444 834 2444 1013 
Q 2444 1163 2330 1236 
Q 2216 1309 1875 1350 
L 1678 1375 
Q 931 1469 631 1722 
Q 331 1975 331 2491 
Q 331 3047 712 3315 
Q 1094 3584 1881 3584 
Q 2191 3584 2531 3537 
Q 2872 3491 3272 3391 
z
" transform="scale(0.015625)"/>
      <path id="DejaVuSans-Bold-35" d="M 678 4666 
L 3669 4666 
L 3669 3781 
L 1638 3781 
L 1638 3059 
Q 1775 3097 1914 3117 
Q 2053 3138 2203 3138 
Q 3056 3138 3531 2711 
Q 4006 2284 4006 1522 
Q 4006 766 3489 337 
Q 2972 -91 2053 -91 
Q 1656 -91 1267 -14 
Q 878 63 494 219 
L 494 1166 
Q 875 947 1217 837 
Q 1559 728 1863 728 
Q 2300 728 2551 942 
Q 2803 1156 2803 1522 
Q 2803 1891 2551 2103 
Q 2300 2316 1863 2316 
Q 1603 2316 1309 2248 
Q 1016 2181 678 2041 
L 678 4666 
z
" transform="scale(0.015625)"/>
      <path id="DejaVuSans-Bold-2e" d="M 653 1209 
L 1778 1209 
L 1778 0 
L 653 0 
L 653 1209 
z
" transform="scale(0.015625)"/>
      <path id="DejaVuSans-Bold-32" d="M 1844 884 
L 3897 884 
L 3897 0 
L 506 0 
L 506 884 
L 2209 2388 
Q 2438 2594 2547 2791 
Q 2656 2988 2656 3200 
Q 2656 3528 2436 3728 
Q 2216 3928 1850 3928 
Q 1569 3928 1234 3808 
Q 900 3688 519 3450 
L 519 4475 
Q 925 4609 1322 4679 
Q 1719 4750 2100 4750 
Q 2938 4750 3402 4381 
Q 3866 4013 3866 3353 
Q 3866 2972 3669 2642 
Q 3472 2313 2841 1759 
L 1844 884 
z
" transform="scale(0.015625)"/>
      <path id="DejaVuSans-Bold-38" d="M 2228 2088 
Q 1891 2088 1709 1903 
Q 1528 1719 1528 1375 
Q 1528 1031 1709 848 
Q 1891 666 2228 666 
Q 2563 666 2741 848 
Q 2919 1031 2919 1375 
Q 2919 1722 2741 1905 
Q 2563 2088 2228 2088 
z
M 1350 2484 
Q 925 2613 709 2878 
Q 494 3144 494 3541 
Q 494 4131 934 4440 
Q 1375 4750 2228 4750 
Q 3075 4750 3515 4442 
Q 3956 4134 3956 3541 
Q 3956 3144 3739 2878 
Q 3522 2613 3097 2484 
Q 3572 2353 3814 2058 
Q 4056 1763 4056 1313 
Q 4056 619 3595 264 
Q 3134 -91 2228 -91 
Q 1319 -91 855 264 
Q 391 619 391 1313 
Q 391 1763 633 2058 
Q 875 2353 1350 2484 
z
M 1631 3419 
Q 1631 3141 1786 2991 
Q 1941 2841 2228 2841 
Q 2509 2841 2662 2991 
Q 2816 3141 2816 3419 
Q 2816 3697 2662 3845 
Q 2509 3994 2228 3994 
Q 1941 3994 1786 3844 
Q 1631 3694 1631 3419 
z
" transform="scale(0.015625)"/>
      <path id="DejaVuSans-Bold-25" d="M 4959 1925 
Q 4738 1925 4616 1733 
Q 4494 1541 4494 1184 
Q 4494 825 4614 633 
Q 4734 441 4959 441 
Q 5184 441 5303 633 
Q 5422 825 5422 1184 
Q 5422 1541 5301 1733 
Q 5181 1925 4959 1925 
z
M 4959 2450 
Q 5541 2450 5875 2112 
Q 6209 1775 6209 1184 
Q 6209 594 5875 251 
Q 5541 -91 4959 -91 
Q 4378 -91 4042 251 
Q 3706 594 3706 1184 
Q 3706 1772 4042 2111 
Q 4378 2450 4959 2450 
z
M 2094 -91 
L 1403 -91 
L 4319 4750 
L 5013 4750 
L 2094 -91 
z
M 1453 4750 
Q 2034 4750 2367 4411 
Q 2700 4072 2700 3481 
Q 2700 2891 2367 2550 
Q 2034 2209 1453 2209 
Q 872 2209 539 2550 
Q 206 2891 206 3481 
Q 206 4072 539 4411 
Q 872 4750 1453 4750 
z
M 1453 4225 
Q 1228 4225 1106 4031 
Q 984 3838 984 3481 
Q 984 3122 1106 2926 
Q 1228 2731 1453 2731 
Q 1678 2731 1798 2926 
Q 1919 3122 1919 3481 
Q 1919 3838 1797 4031 
Q 1675 4225 1453 4225 
z
" transform="scale(0.015625)"/>
      <path id="DejaVuSans-Bold-6e" d="M 4056 2131 
L 4056 0 
L 2931 0 
L 2931 347 
L 2931 1631 
Q 2931 2084 2911 2256 
Q 2891 2428 2841 2509 
Q 2775 2619 2662 2680 
Q 2550 2741 2406 2741 
Q 2056 2741 1856 2470 
Q 1656 2200 1656 1722 
L 1656 0 
L 538 0 
L 538 3500 
L 1656 3500 
L 1656 2988 
Q 1909 3294 2193 3439 
Q 2478 3584 2822 3584 
Q 3428 3584 3742 3212 
Q 4056 2841 4056 2131 
z
" transform="scale(0.015625)"/>
      <path id="DejaVuSans-Bold-79" d="M 78 3500 
L 1197 3500 
L 2138 1125 
L 2938 3500 
L 4056 3500 
L 2584 -331 
Q 2363 -916 2067 -1148 
Q 1772 -1381 1288 -1381 
L 641 -1381 
L 641 -647 
L 991 -647 
Q 1275 -647 1404 -556 
Q 1534 -466 1606 -231 
L 1638 -134 
L 78 3500 
z
" transform="scale(0.015625)"/>
     </defs>
     <use xlink:href="#DejaVuSans-Bold-57"/>
     <use xlink:href="#DejaVuSans-Bold-65" x="106.677734"/>
     <use xlink:href="#DejaVuSans-Bold-69" x="174.5"/>
     <use xlink:href="#DejaVuSans-Bold-67" x="208.777344"/>
     <use xlink:href="#DejaVuSans-Bold-68" x="280.359375"/>
     <use xlink:href="#DejaVuSans-Bold-74" x="351.550781"/>
     <use xlink:href="#DejaVuSans-Bold-65" x="399.353516"/>
     <use xlink:href="#DejaVuSans-Bold-64" x="467.175781"/>
     <use xlink:href="#DejaVuSans-Bold-2c" x="538.757812"/>
     <use xlink:href="#DejaVuSans-Bold-20" x="576.746094"/>
     <use xlink:href="#DejaVuSans-Bold-36" x="611.560547"/>
     <use xlink:href="#DejaVuSans-Bold-30" x="681.140625"/>
     <use xlink:href="#DejaVuSans-Bold-20" x="750.720703"/>
     <use xlink:href="#DejaVuSans-Bold-76" x="785.535156"/>
     <use xlink:href="#DejaVuSans-Bold-65" x="850.720703"/>
     <use xlink:href="#DejaVuSans-Bold-72" x="918.542969"/>
     <use xlink:href="#DejaVuSans-Bold-74" x="967.859375"/>
     <use xlink:href="#DejaVuSans-Bold-69" x="1015.662109"/>
     <use xlink:href="#DejaVuSans-Bold-63" x="1049.939453"/>
     <use xlink:href="#DejaVuSans-Bold-65" x="1109.216797"/>
     <use xlink:href="#DejaVuSans-Bold-73" x="1177.039062"/>
     <use xlink:href="#DejaVuSans-Bold-2c" x="1236.560547"/>
     <use xlink:href="#DejaVuSans-Bold-20" x="1274.548828"/>
     <use xlink:href="#DejaVuSans-Bold-35" x="1309.363281"/>
     <use xlink:href="#DejaVuSans-Bold-2e" x="1378.943359"/>
     <use xlink:href="#DejaVuSans-Bold-30" x="1416.931641"/>
     <use xlink:href="#DejaVuSans-Bold-32" x="1486.511719"/>
     <use xlink:href="#DejaVuSans-Bold-38" x="1556.091797"/>
     <use xlink:href="#DejaVuSans-Bold-25" x="1625.671875"/>
     <use xlink:href="#DejaVuSans-Bold-20" x="1725.867188"/>
     <use xlink:href="#DejaVuSans-Bold-64" x="1760.681641"/>
     <use xlink:href="#DejaVuSans-Bold-65" x="1832.263672"/>
     <use xlink:href="#DejaVuSans-Bold-6e" x="1900.085938"/>
     <use xlink:href="#DejaVuSans-Bold-73" x="1971.277344"/>
     <use xlink:href="#DejaVuSans-Bold-69" x="2030.798828"/>
     <use xlink:href="#DejaVuSans-Bold-74" x="2065.076172"/>
     <use xlink:href="#DejaVuSans-Bold-79" x="2112.878906"/>
    </g>
   </g>
   <g id="legend_1">
    <g id="patch_4">
     <path d="M 7.914062 93.506375 
L 50.6 93.506375 
Q 52.6 93.506375 52.6 91.506375 
L 52.6 48.472 
Q 52.6 46.472 50.6 46.472 
L 7.914062 46.472 
Q 5.914062 46.472 5.914062 48.472 
L 5.914062 91.506375 
Q 5.914062 93.506375 7.914062 93.506375 
z
" style="fill: #ffffff; opacity: 0.8; stroke: #cccccc; stroke-linejoin: miter"/>
    </g>
    <g id="text_3">
     <!-- Cluster: -->
     <g transform="translate(9.914062 58.070438) scale(0.1 -0.1)">
      <defs>
       <path id="DejaVuSans-72" d="M 2631 2963 
Q 2534 3019 2420 3045 
Q 2306 3072 2169 3072 
Q 1681 3072 1420 2755 
Q 1159 2438 1159 1844 
L 1159 0 
L 581 0 
L 581 3500 
L 1159 3500 
L 1159 2956 
Q 1341 3275 1631 3429 
Q 1922 3584 2338 3584 
Q 2397 3584 2469 3576 
Q 2541 3569 2628 3553 
L 2631 2963 
z
" transform="scale(0.015625)"/>
      </defs>
      <use xlink:href="#DejaVuSans-43"/>
      <use xlink:href="#DejaVuSans-6c" x="69.824219"/>
      <use xlink:href="#DejaVuSans-75" x="97.607422"/>
      <use xlink:href="#DejaVuSans-73" x="160.986328"/>
      <use xlink:href="#DejaVuSans-74" x="213.085938"/>
      <use xlink:href="#DejaVuSans-65" x="252.294922"/>
      <use xlink:href="#DejaVuSans-72" x="313.818359"/>
      <use xlink:href="#DejaVuSans-3a" x="353.181641"/>
     </g>
    </g>
    <g id="PathCollection_3">
     <defs>
      <path id="mf858a42a60" d="M 0 5 
C 1.326016 5 2.597899 4.473168 3.535534 3.535534 
C 4.473168 2.597899 5 1.326016 5 0 
C 5 -1.326016 4.473168 -2.597899 3.535534 -3.535534 
C 2.597899 -4.473168 1.326016 -5 0 -5 
C -1.326016 -5 -2.597899 -4.473168 -3.535534 -3.535534 
C -4.473168 -2.597899 -5 -1.326016 -5 0 
C -5 1.326016 -4.473168 2.597899 -3.535534 3.535534 
C -2.597899 4.473168 -1.326016 5 0 5 
z
" style="stroke: #000000"/>
     </defs>
     <g>
      <use xlink:href="#mf858a42a60" x="22.075781" y="70.123563" style="fill: #add8e6; stroke: #000000"/>
     </g>
    </g>
    <g id="text_4">
     <!-- 0 -->
     <g transform="translate(40.075781 72.748563) scale(0.1 -0.1)">
      <use xlink:href="#DejaVuSans-30"/>
     </g>
    </g>
    <g id="PathCollection_4">
     <defs>
      <path id="mf36795dc24" d="M 0 5 
C 1.326016 5 2.597899 4.473168 3.535534 3.535534 
C 4.473168 2.597899 5 1.326016 5 0 
C 5 -1.326016 4.473168 -2.597899 3.535534 -3.535534 
C 2.597899 -4.473168 1.326016 -5 0 -5 
C -1.326016 -5 -2.597899 -4.473168 -3.535534 -3.535534 
C -4.473168 -2.597899 -5 -1.326016 -5 0 
C -5 1.326016 -4.473168 2.597899 -3.535534 3.535534 
C -2.597899 4.473168 -1.326016 5 0 5 
z
" style="stroke: #000000"/>
     </defs>
     <g>
      <use xlink:href="#mf36795dc24" x="22.075781" y="84.801688" style="fill: #9acd32; stroke: #000000"/>
     </g>
    </g>
    <g id="text_5">
     <!-- 1 -->
     <g transform="translate(40.075781 87.426688) scale(0.1 -0.1)">
      <use xlink:href="#DejaVuSans-31"/>
     </g>
    </g>
   </g>
  </g>
 </g>
 <defs>
  <clipPath id="pb260640121">
   <rect x="57.6" y="41.472" width="357.12" height="266.112"/>
  </clipPath>
 </defs>
</svg>
