<?xml version="1.0" encoding="utf-8" standalone="no"?>
<!DOCTYPE svg PUBLIC "-//W3C//DTD SVG 1.1//EN"
  "http://www.w3.org/Graphics/SVG/1.1/DTD/svg11.dtd">
<svg xmlns:xlink="http://www.w3.org/1999/xlink" width="460.8pt" height="345.6pt" viewBox="0 0 460.8 345.6" xmlns="http://www.w3.org/2000/svg" version="1.1">
 <metadata>
  <rdf:RDF xmlns:dc="http://purl.org/dc/elements/1.1/" xmlns:cc="http://creativecommons.org/ns#" xmlns:rdf="http://www.w3.org/1999/02/22-rdf-syntax-ns#">
   <cc:Work>
    <dc:type rdf:resource="http://purl.org/dc/dcmitype/StillImage"/>
    <dc:date>2024-01-12T17:27:56.095500</dc:date>
    <dc:format>image/svg+xml</dc:format>
    <dc:creator>
     <cc:Agent>
      <dc:title>Matplotlib v3.8.2, https://matplotlib.org/</dc:title>
     </cc:Agent>
    </dc:creator>
   </cc:Work>
  </rdf:RDF>
 </metadata>
 <defs>
  <style type="text/css">*{stroke-linejoin: round; stroke-linecap: butt}</style>
 </defs>
 <g id="figure_1">
  <g id="patch_1">
   <path d="M 0 345.6 
L 460.8 345.6 
L 460.8 0 
L 0 0 
z
" style="fill: #ffffff"/>
  </g>
  <g id="axes_1">
   <g id="patch_2">
    <path d="M 57.6 307.584 
L 414.72 307.584 
L 414.72 41.472 
L 57.6 41.472 
z
" style="fill: #ffffff"/>
   </g>
   <g id="EdgeCollection_1">
    <path d="M 211.503099 211.428899 
L 149.254951 228.177175 
" clip-path="url(#p1125651865)" style="fill: #9acd32; stroke: #9acd32; stroke-width: 1.84222"/>
    <path d="M 230.893072 228.31278 
L 238.587029 158.874445 
" clip-path="url(#p1125651865)" style="fill: #add8e6; stroke: #add8e6; stroke-width: 2.521763"/>
    <path d="M 217.908239 203.901209 
L 226.709789 117.946902 
" clip-path="url(#p1125651865)" style="fill: #9acd32; stroke: #9acd32; stroke-width: 3.10555"/>
    <path d="M 237.569348 147.15049 
L 228.999435 117.738563 
" clip-path="url(#p1125651865)" style="fill: #d3d3d3; stroke: #d3d3d3; stroke-width: 2.747008"/>
    <path d="M 233.528487 154.724623 
L 205.599787 163.581244 
" clip-path="url(#p1125651865)" style="fill: #d3d3d3; stroke: #d3d3d3; stroke-width: 2.148531"/>
    <path d="M 147.210747 126.261207 
L 195.064344 161.816533 
" clip-path="url(#p1125651865)" style="fill: #9acd32; stroke: #9acd32; stroke-width: 1.152884"/>
    <path d="M 242.486125 147.859875 
L 272.69145 100.746271 
" clip-path="url(#p1125651865)" style="fill: #add8e6; stroke: #add8e6; stroke-width: 2.26333"/>
    <path d="M 139.207038 225.50479 
L 99.105124 185.616686 
" clip-path="url(#p1125651865)" style="fill: #9acd32; stroke: #9acd32; stroke-width: 2.022307"/>
    <path d="M 89.558529 236.818228 
L 94.280882 187.358238 
" clip-path="url(#p1125651865)" style="fill: #9acd32; stroke: #9acd32; stroke-width: 1.215452"/>
    <path d="M 138.618358 127.345415 
L 98.627418 176.722798 
" clip-path="url(#p1125651865)" style="fill: #9acd32; stroke: #9acd32; stroke-width: 1.81012"/>
    <path d="M 224.459892 106.704198 
L 205.543799 71.835715 
" clip-path="url(#p1125651865)" style="fill: #d3d3d3; stroke: #d3d3d3; stroke-width: 1.138194"/>
    <path d="M 146.786319 118.594664 
L 198.291008 70.64995 
" clip-path="url(#p1125651865)" style="fill: #d3d3d3; stroke: #d3d3d3; stroke-width: 1.446137"/>
    <path d="M 270.354582 93.47772 
L 208.257901 68.779287 
" clip-path="url(#p1125651865)" style="fill: #add8e6; stroke: #add8e6; stroke-width: 3.056583"/>
    <path d="M 153.036471 65.29115 
L 196.684674 66.408287 
" clip-path="url(#p1125651865)" style="fill: #add8e6; stroke: #add8e6; stroke-width: 2.430903"/>
    <path d="M 279.334974 100.635308 
L 317.152414 155.499043 
" clip-path="url(#p1125651865)" style="fill: #add8e6; stroke: #add8e6; stroke-width: 2.886289"/>
    <path d="M 224.95042 231.429926 
L 154.04083 193.217372 
" clip-path="url(#p1125651865)" style="fill: #d3d3d3; stroke: #d3d3d3; stroke-width: 1.318825"/>
    <path d="M 144.261298 223.789687 
L 147.958656 196.317401 
" clip-path="url(#p1125651865)" style="fill: #9acd32; stroke: #9acd32; stroke-width: 2.275843"/>
    <path d="M 142.956287 128.656466 
L 148.197283 184.397361 
" clip-path="url(#p1125651865)" style="fill: #9acd32; stroke: #9acd32; stroke-width: 1.756257"/>
    <path d="M 100.769504 182.371899 
L 142.840605 189.384515 
" clip-path="url(#p1125651865)" style="fill: #9acd32; stroke: #9acd32; stroke-width: 2.978781"/>
    <path d="M 144.609368 223.846995 
L 158.290565 153.686631 
" clip-path="url(#p1125651865)" style="fill: #d3d3d3; stroke: #d3d3d3; stroke-width: 1.214363"/>
    <path d="M 233.260079 152.527305 
L 165.426652 148.181187 
" clip-path="url(#p1125651865)" style="fill: #add8e6; stroke: #add8e6; stroke-width: 3.001632"/>
    <path d="M 147.928584 71.071238 
L 158.54878 141.863949 
" clip-path="url(#p1125651865)" style="fill: #add8e6; stroke: #add8e6; stroke-width: 2.182263"/>
    <path d="M 226.187085 238.707564 
L 188.960398 279.487084 
" clip-path="url(#p1125651865)" style="fill: #d3d3d3; stroke: #d3d3d3; stroke-width: 1.971708"/>
    <path d="M 147.106851 234.501345 
L 181.269337 279.153094 
" clip-path="url(#p1125651865)" style="fill: #9acd32; stroke: #9acd32; stroke-width: 2.538085"/>
    <path d="M 211.546366 211.581628 
L 170.474455 223.806252 
" clip-path="url(#p1125651865)" style="fill: #9acd32; stroke: #9acd32; stroke-width: 1.10555"/>
    <path d="M 94.838037 241.456891 
L 158.87399 226.852056 
" clip-path="url(#p1125651865)" style="fill: #9acd32; stroke: #9acd32; stroke-width: 1.802503"/>
    <path d="M 196.851786 170.574411 
L 167.752461 220.338397 
" clip-path="url(#p1125651865)" style="fill: #9acd32; stroke: #9acd32; stroke-width: 2.633297"/>
    <path d="M 159.845978 153.783728 
L 164.316725 219.531705 
" clip-path="url(#p1125651865)" style="fill: #d3d3d3; stroke: #d3d3d3; stroke-width: 1.636561"/>
    <path d="M 182.954614 278.247723 
L 166.684344 231.188522 
" clip-path="url(#p1125651865)" style="fill: #9acd32; stroke: #9acd32; stroke-width: 2.565288"/>
    <path d="M 326.539023 159.967171 
L 377.350339 155.957816 
" clip-path="url(#p1125651865)" style="fill: #add8e6; stroke: #add8e6; stroke-width: 2.429815"/>
    <path d="M 222.940029 211.90881 
L 280.609262 232.74472 
" clip-path="url(#p1125651865)" style="fill: #d3d3d3; stroke: #d3d3d3; stroke-width: 2.14309"/>
    <path d="M 236.232053 234.33061 
L 280.25249 234.729205 
" clip-path="url(#p1125651865)" style="fill: #add8e6; stroke: #add8e6; stroke-width: 1.76877"/>
    <path d="M 318.043714 165.887108 
L 288.766145 229.335568 
" clip-path="url(#p1125651865)" style="fill: #add8e6; stroke: #add8e6; stroke-width: 2.214363"/>
    <path d="M 234.288425 229.854989 
L 267.46534 193.691191 
" clip-path="url(#p1125651865)" style="fill: #add8e6; stroke: #add8e6; stroke-width: 2.443417"/>
    <path d="M 243.230853 157.398178 
L 267.538414 184.782659 
" clip-path="url(#p1125651865)" style="fill: #add8e6; stroke: #add8e6; stroke-width: 2.667573"/>
    <path d="M 205.5727 167.29191 
L 265.829238 187.372913 
" clip-path="url(#p1125651865)" style="fill: #d3d3d3; stroke: #d3d3d3; stroke-width: 1.526659"/>
    <path d="M 315.385362 163.480165 
L 276.693718 186.228876 
" clip-path="url(#p1125651865)" style="fill: #add8e6; stroke: #add8e6; stroke-width: 2.632209"/>
   </g>
   <g id="VertexCollection_1">
    <path d="M 217.297047 215.869999 
C 218.888265 215.869999 220.414526 215.237801 221.539687 214.112639 
C 222.664849 212.987478 223.297047 211.461217 223.297047 209.869999 
C 223.297047 208.27878 222.664849 206.752519 221.539687 205.627358 
C 220.414526 204.502196 218.888265 203.869999 217.297047 203.869999 
C 215.705828 203.869999 214.179567 204.502196 213.054406 205.627358 
C 211.929245 206.752519 211.297047 208.27878 211.297047 209.869999 
C 211.297047 211.461217 211.929245 212.987478 213.054406 214.112639 
C 214.179567 215.237801 215.705828 215.869999 217.297047 215.869999 
z
" clip-path="url(#p1125651865)" style="fill: #9acd32; stroke: #000000"/>
    <path d="M 230.232299 240.276284 
C 231.823518 240.276284 233.349778 239.644086 234.47494 238.518924 
C 235.600101 237.393763 236.232299 235.867502 236.232299 234.276284 
C 236.232299 232.685065 235.600101 231.158804 234.47494 230.033643 
C 233.349778 228.908481 231.823518 228.276284 230.232299 228.276284 
C 228.641081 228.276284 227.11482 228.908481 225.989658 230.033643 
C 224.864497 231.158804 224.232299 232.685065 224.232299 234.276284 
C 224.232299 235.867502 224.864497 237.393763 225.989658 238.518924 
C 227.11482 239.644086 228.641081 240.276284 230.232299 240.276284 
z
" clip-path="url(#p1125651865)" style="fill: #add8e6; stroke: #000000"/>
    <path d="M 143.461004 235.736075 
C 145.052222 235.736075 146.578483 235.103877 147.703644 233.978715 
C 148.828806 232.853554 149.461004 231.327293 149.461004 229.736075 
C 149.461004 228.144856 148.828806 226.618595 147.703644 225.493434 
C 146.578483 224.368273 145.052222 223.736075 143.461004 223.736075 
C 141.869785 223.736075 140.343524 224.368273 139.218363 225.493434 
C 138.093201 226.618595 137.461004 228.144856 137.461004 229.736075 
C 137.461004 231.327293 138.093201 232.853554 139.218363 233.978715 
C 140.343524 235.103877 141.869785 235.736075 143.461004 235.736075 
z
" clip-path="url(#p1125651865)" style="fill: #9acd32; stroke: #000000"/>
    <path d="M 239.247801 158.910941 
C 240.83902 158.910941 242.365281 158.278743 243.490442 157.153582 
C 244.615603 156.02842 245.247801 154.50216 245.247801 152.910941 
C 245.247801 151.319722 244.615603 149.793462 243.490442 148.6683 
C 242.365281 147.543139 240.83902 146.910941 239.247801 146.910941 
C 237.656583 146.910941 236.130322 147.543139 235.005161 148.6683 
C 233.879999 149.793462 233.247801 151.319722 233.247801 152.910941 
C 233.247801 154.50216 233.879999 156.02842 235.005161 157.153582 
C 236.130322 158.278743 237.656583 158.910941 239.247801 158.910941 
z
" clip-path="url(#p1125651865)" style="fill: #add8e6; stroke: #000000"/>
    <path d="M 88.988253 248.791065 
C 90.579472 248.791065 92.105732 248.158867 93.230894 247.033706 
C 94.356055 245.908544 94.988253 244.382284 94.988253 242.791065 
C 94.988253 241.199846 94.356055 239.673586 93.230894 238.548424 
C 92.105732 237.423263 90.579472 236.791065 88.988253 236.791065 
C 87.397034 236.791065 85.870774 237.423263 84.745612 238.548424 
C 83.620451 239.673586 82.988253 241.199846 82.988253 242.791065 
C 82.988253 244.382284 83.620451 245.908544 84.745612 247.033706 
C 85.870774 248.158867 87.397034 248.791065 88.988253 248.791065 
z
" clip-path="url(#p1125651865)" style="fill: #9acd32; stroke: #000000"/>
    <path d="M 227.320981 117.978112 
C 228.9122 117.978112 230.43846 117.345915 231.563622 116.220753 
C 232.688783 115.095592 233.320981 113.569331 233.320981 111.978112 
C 233.320981 110.386894 232.688783 108.860633 231.563622 107.735472 
C 230.43846 106.61031 228.9122 105.978112 227.320981 105.978112 
C 225.729762 105.978112 224.203502 106.61031 223.07834 107.735472 
C 221.953179 108.860633 221.320981 110.386894 221.320981 111.978112 
C 221.320981 113.569331 221.953179 115.095592 223.07834 116.220753 
C 224.203502 117.345915 225.729762 117.978112 227.320981 117.978112 
z
" clip-path="url(#p1125651865)" style="fill: #9acd32; stroke: #000000"/>
    <path d="M 142.394618 128.682813 
C 143.985837 128.682813 145.512098 128.050615 146.637259 126.925453 
C 147.76242 125.800292 148.394618 124.274031 148.394618 122.682813 
C 148.394618 121.091594 147.76242 119.565333 146.637259 118.440172 
C 145.512098 117.315011 143.985837 116.682813 142.394618 116.682813 
C 140.8034 116.682813 139.277139 117.315011 138.151978 118.440172 
C 137.026816 119.565333 136.394618 121.091594 136.394618 122.682813 
C 136.394618 124.274031 137.026816 125.800292 138.151978 126.925453 
C 139.277139 128.050615 140.8034 128.682813 142.394618 128.682813 
z
" clip-path="url(#p1125651865)" style="fill: #9acd32; stroke: #000000"/>
    <path d="M 199.880472 171.394927 
C 201.471691 171.394927 202.997951 170.762729 204.123113 169.637567 
C 205.248274 168.512406 205.880472 166.986145 205.880472 165.394927 
C 205.880472 163.803708 205.248274 162.277447 204.123113 161.152286 
C 202.997951 160.027124 201.471691 159.394927 199.880472 159.394927 
C 198.289254 159.394927 196.762993 160.027124 195.637832 161.152286 
C 194.51267 162.277447 193.880472 163.803708 193.880472 165.394927 
C 193.880472 166.986145 194.51267 168.512406 195.637832 169.637567 
C 196.762993 170.762729 198.289254 171.394927 199.880472 171.394927 
z
" clip-path="url(#p1125651865)" style="fill: #9acd32; stroke: #000000"/>
    <path d="M 275.929773 101.695206 
C 277.520992 101.695206 279.047253 101.063008 280.172414 99.937846 
C 281.297575 98.812685 281.929773 97.286424 281.929773 95.695206 
C 281.929773 94.103987 281.297575 92.577726 280.172414 91.452565 
C 279.047253 90.327404 277.520992 89.695206 275.929773 89.695206 
C 274.338555 89.695206 272.812294 90.327404 271.687133 91.452565 
C 270.561971 92.577726 269.929773 94.103987 269.929773 95.695206 
C 269.929773 97.286424 270.561971 98.812685 271.687133 99.937846 
C 272.812294 101.063008 274.338555 101.695206 275.929773 101.695206 
z
" clip-path="url(#p1125651865)" style="fill: #add8e6; stroke: #000000"/>
    <path d="M 147.038436 71.137636 
C 148.629654 71.137636 150.155915 70.505438 151.281076 69.380277 
C 152.406238 68.255115 153.038436 66.728855 153.038436 65.137636 
C 153.038436 63.546417 152.406238 62.020157 151.281076 60.894995 
C 150.155915 59.769834 148.629654 59.137636 147.038436 59.137636 
C 145.447217 59.137636 143.920956 59.769834 142.795795 60.894995 
C 141.670633 62.020157 141.038436 63.546417 141.038436 65.137636 
C 141.038436 66.728855 141.670633 68.255115 142.795795 69.380277 
C 143.920956 70.505438 145.447217 71.137636 147.038436 71.137636 
z
" clip-path="url(#p1125651865)" style="fill: #add8e6; stroke: #000000"/>
    <path d="M 94.851158 187.385401 
C 96.442377 187.385401 97.968637 186.753203 99.093799 185.628041 
C 100.21896 184.50288 100.851158 182.976619 100.851158 181.385401 
C 100.851158 179.794182 100.21896 178.267921 99.093799 177.14276 
C 97.968637 176.017598 96.442377 175.385401 94.851158 175.385401 
C 93.25994 175.385401 91.733679 176.017598 90.608517 177.14276 
C 89.483356 178.267921 88.851158 179.794182 88.851158 181.385401 
C 88.851158 182.976619 89.483356 184.50288 90.608517 185.628041 
C 91.733679 186.753203 93.25994 187.385401 94.851158 187.385401 
z
" clip-path="url(#p1125651865)" style="fill: #9acd32; stroke: #000000"/>
    <path d="M 202.682709 72.561801 
C 204.273928 72.561801 205.800189 71.929603 206.92535 70.804442 
C 208.050512 69.67928 208.682709 68.15302 208.682709 66.561801 
C 208.682709 64.970583 208.050512 63.444322 206.92535 62.319161 
C 205.800189 61.193999 204.273928 60.561801 202.682709 60.561801 
C 201.091491 60.561801 199.56523 61.193999 198.440069 62.319161 
C 197.314907 63.444322 196.682709 64.970583 196.682709 66.561801 
C 196.682709 68.15302 197.314907 69.67928 198.440069 70.804442 
C 199.56523 71.929603 201.091491 72.561801 202.682709 72.561801 
z
" clip-path="url(#p1125651865)" style="fill: #add8e6; stroke: #000000"/>
    <path d="M 320.557615 166.439145 
C 322.148833 166.439145 323.675094 165.806947 324.800256 164.681785 
C 325.925417 163.556624 326.557615 162.030363 326.557615 160.439145 
C 326.557615 158.847926 325.925417 157.321666 324.800256 156.196504 
C 323.675094 155.071343 322.148833 154.439145 320.557615 154.439145 
C 318.966396 154.439145 317.440136 155.071343 316.314974 156.196504 
C 315.189813 157.321666 314.557615 158.847926 314.557615 160.439145 
C 314.557615 162.030363 315.189813 163.556624 316.314974 164.681785 
C 317.440136 165.806947 318.966396 166.439145 320.557615 166.439145 
z
" clip-path="url(#p1125651865)" style="fill: #add8e6; stroke: #000000"/>
    <path d="M 148.758951 196.371014 
C 150.350169 196.371014 151.87643 195.738816 153.001591 194.613654 
C 154.126753 193.488493 154.758951 191.962232 154.758951 190.371014 
C 154.758951 188.779795 154.126753 187.253534 153.001591 186.128373 
C 151.87643 185.003211 150.350169 184.371014 148.758951 184.371014 
C 147.167732 184.371014 145.641472 185.003211 144.51631 186.128373 
C 143.391149 187.253534 142.758951 188.779795 142.758951 190.371014 
C 142.758951 191.962232 143.391149 193.488493 144.51631 194.613654 
C 145.641472 195.738816 147.167732 196.371014 148.758951 196.371014 
z
" clip-path="url(#p1125651865)" style="fill: #9acd32; stroke: #000000"/>
    <path d="M 159.438929 153.797551 
C 161.030148 153.797551 162.556408 153.165353 163.68157 152.040192 
C 164.806731 150.915031 165.438929 149.38877 165.438929 147.797551 
C 165.438929 146.206333 164.806731 144.680072 163.68157 143.554911 
C 162.556408 142.429749 161.030148 141.797551 159.438929 141.797551 
C 157.84771 141.797551 156.32145 142.429749 155.196288 143.554911 
C 154.071127 144.680072 153.438929 146.206333 153.438929 147.797551 
C 153.438929 149.38877 154.071127 150.915031 155.196288 152.040192 
C 156.32145 153.165353 157.84771 153.797551 159.438929 153.797551 
z
" clip-path="url(#p1125651865)" style="fill: #add8e6; stroke: #000000"/>
    <path d="M 184.915184 289.918364 
C 186.506403 289.918364 188.032664 289.286166 189.157825 288.161005 
C 190.282987 287.035843 190.915184 285.509583 190.915184 283.918364 
C 190.915184 282.327145 190.282987 280.800885 189.157825 279.675723 
C 188.032664 278.550562 186.506403 277.918364 184.915184 277.918364 
C 183.323966 277.918364 181.797705 278.550562 180.672544 279.675723 
C 179.547382 280.800885 178.915184 282.327145 178.915184 283.918364 
C 178.915184 285.509583 179.547382 287.035843 180.672544 288.161005 
C 181.797705 289.286166 183.323966 289.918364 184.915184 289.918364 
z
" clip-path="url(#p1125651865)" style="fill: #9acd32; stroke: #000000"/>
    <path d="M 164.723775 231.517882 
C 166.314993 231.517882 167.841254 230.885684 168.966415 229.760522 
C 170.091577 228.635361 170.723775 227.1091 170.723775 225.517882 
C 170.723775 223.926663 170.091577 222.400403 168.966415 221.275241 
C 167.841254 220.15008 166.314993 219.517882 164.723775 219.517882 
C 163.132556 219.517882 161.606295 220.15008 160.481134 221.275241 
C 159.355972 222.400403 158.723775 223.926663 158.723775 225.517882 
C 158.723775 227.1091 159.355972 228.635361 160.481134 229.760522 
C 161.606295 230.885684 163.132556 231.517882 164.723775 231.517882 
z
" clip-path="url(#p1125651865)" style="fill: #9acd32; stroke: #000000"/>
    <path d="M 383.331747 161.485843 
C 384.922966 161.485843 386.449226 160.853645 387.574388 159.728483 
C 388.699549 158.603322 389.331747 157.077061 389.331747 155.485843 
C 389.331747 153.894624 388.699549 152.368363 387.574388 151.243202 
C 386.449226 150.11804 384.922966 149.485843 383.331747 149.485843 
C 381.740528 149.485843 380.214268 150.11804 379.089106 151.243202 
C 377.963945 152.368363 377.331747 153.894624 377.331747 155.485843 
C 377.331747 157.077061 377.963945 158.603322 379.089106 159.728483 
C 380.214268 160.853645 381.740528 161.485843 383.331747 161.485843 
z
" clip-path="url(#p1125651865)" style="fill: #add8e6; stroke: #000000"/>
    <path d="M 286.252244 240.783531 
C 287.843463 240.783531 289.369723 240.151333 290.494885 239.026172 
C 291.620046 237.90101 292.252244 236.37475 292.252244 234.783531 
C 292.252244 233.192312 291.620046 231.666052 290.494885 230.54089 
C 289.369723 229.415729 287.843463 228.783531 286.252244 228.783531 
C 284.661025 228.783531 283.134765 229.415729 282.009603 230.54089 
C 280.884442 231.666052 280.252244 233.192312 280.252244 234.783531 
C 280.252244 236.37475 280.884442 237.90101 282.009603 239.026172 
C 283.134765 240.151333 284.661025 240.783531 286.252244 240.783531 
z
" clip-path="url(#p1125651865)" style="fill: #add8e6; stroke: #000000"/>
    <path d="M 271.521466 195.269896 
C 273.112685 195.269896 274.638945 194.637698 275.764107 193.512537 
C 276.889268 192.387376 277.521466 190.861115 277.521466 189.269896 
C 277.521466 187.678678 276.889268 186.152417 275.764107 185.027256 
C 274.638945 183.902094 273.112685 183.269896 271.521466 183.269896 
C 269.930247 183.269896 268.403987 183.902094 267.278825 185.027256 
C 266.153664 186.152417 265.521466 187.678678 265.521466 189.269896 
C 265.521466 190.861115 266.153664 192.387376 267.278825 193.512537 
C 268.403987 194.637698 269.930247 195.269896 271.521466 195.269896 
z
" clip-path="url(#p1125651865)" style="fill: #add8e6; stroke: #000000"/>
   </g>
   <g id="text_1">
    <g clip-path="url(#p1125651865)">
     <!-- 0 -->
     <g transform="translate(215.070172 211.801561) scale(0.07 -0.07)">
      <defs>
       <path id="DejaVuSans-30" d="M 2034 4250 
Q 1547 4250 1301 3770 
Q 1056 3291 1056 2328 
Q 1056 1369 1301 889 
Q 1547 409 2034 409 
Q 2525 409 2770 889 
Q 3016 1369 3016 2328 
Q 3016 3291 2770 3770 
Q 2525 4250 2034 4250 
z
M 2034 4750 
Q 2819 4750 3233 4129 
Q 3647 3509 3647 2328 
Q 3647 1150 3233 529 
Q 2819 -91 2034 -91 
Q 1250 -91 836 529 
Q 422 1150 422 2328 
Q 422 3509 836 4129 
Q 1250 4750 2034 4750 
z
" transform="scale(0.015625)"/>
      </defs>
      <use xlink:href="#DejaVuSans-30"/>
     </g>
    </g>
   </g>
   <g id="text_2">
    <g clip-path="url(#p1125651865)">
     <!-- 1 -->
     <g transform="translate(228.005424 236.207846) scale(0.07 -0.07)">
      <defs>
       <path id="DejaVuSans-31" d="M 794 531 
L 1825 531 
L 1825 4091 
L 703 3866 
L 703 4441 
L 1819 4666 
L 2450 4666 
L 2450 531 
L 3481 531 
L 3481 0 
L 794 0 
L 794 531 
z
" transform="scale(0.015625)"/>
      </defs>
      <use xlink:href="#DejaVuSans-31"/>
     </g>
    </g>
   </g>
   <g id="text_3">
    <g clip-path="url(#p1125651865)">
     <!-- 2 -->
     <g transform="translate(141.234129 231.667637) scale(0.07 -0.07)">
      <defs>
       <path id="DejaVuSans-32" d="M 1228 531 
L 3431 531 
L 3431 0 
L 469 0 
L 469 531 
Q 828 903 1448 1529 
Q 2069 2156 2228 2338 
Q 2531 2678 2651 2914 
Q 2772 3150 2772 3378 
Q 2772 3750 2511 3984 
Q 2250 4219 1831 4219 
Q 1534 4219 1204 4116 
Q 875 4013 500 3803 
L 500 4441 
Q 881 4594 1212 4672 
Q 1544 4750 1819 4750 
Q 2544 4750 2975 4387 
Q 3406 4025 3406 3419 
Q 3406 3131 3298 2873 
Q 3191 2616 2906 2266 
Q 2828 2175 2409 1742 
Q 1991 1309 1228 531 
z
" transform="scale(0.015625)"/>
      </defs>
      <use xlink:href="#DejaVuSans-32"/>
     </g>
    </g>
   </g>
   <g id="text_4">
    <g clip-path="url(#p1125651865)">
     <!-- 3 -->
     <g transform="translate(237.020926 154.842503) scale(0.07 -0.07)">
      <defs>
       <path id="DejaVuSans-33" d="M 2597 2516 
Q 3050 2419 3304 2112 
Q 3559 1806 3559 1356 
Q 3559 666 3084 287 
Q 2609 -91 1734 -91 
Q 1441 -91 1130 -33 
Q 819 25 488 141 
L 488 750 
Q 750 597 1062 519 
Q 1375 441 1716 441 
Q 2309 441 2620 675 
Q 2931 909 2931 1356 
Q 2931 1769 2642 2001 
Q 2353 2234 1838 2234 
L 1294 2234 
L 1294 2753 
L 1863 2753 
Q 2328 2753 2575 2939 
Q 2822 3125 2822 3475 
Q 2822 3834 2567 4026 
Q 2313 4219 1838 4219 
Q 1578 4219 1281 4162 
Q 984 4106 628 3988 
L 628 4550 
Q 988 4650 1302 4700 
Q 1616 4750 1894 4750 
Q 2613 4750 3031 4423 
Q 3450 4097 3450 3541 
Q 3450 3153 3228 2886 
Q 3006 2619 2597 2516 
z
" transform="scale(0.015625)"/>
      </defs>
      <use xlink:href="#DejaVuSans-33"/>
     </g>
    </g>
   </g>
   <g id="text_5">
    <g clip-path="url(#p1125651865)">
     <!-- 4 -->
     <g transform="translate(86.761378 244.722627) scale(0.07 -0.07)">
      <defs>
       <path id="DejaVuSans-34" d="M 2419 4116 
L 825 1625 
L 2419 1625 
L 2419 4116 
z
M 2253 4666 
L 3047 4666 
L 3047 1625 
L 3713 1625 
L 3713 1100 
L 3047 1100 
L 3047 0 
L 2419 0 
L 2419 1100 
L 313 1100 
L 313 1709 
L 2253 4666 
z
" transform="scale(0.015625)"/>
      </defs>
      <use xlink:href="#DejaVuSans-34"/>
     </g>
    </g>
   </g>
   <g id="text_6">
    <g clip-path="url(#p1125651865)">
     <!-- 5 -->
     <g transform="translate(225.094106 113.909675) scale(0.07 -0.07)">
      <defs>
       <path id="DejaVuSans-35" d="M 691 4666 
L 3169 4666 
L 3169 4134 
L 1269 4134 
L 1269 2991 
Q 1406 3038 1543 3061 
Q 1681 3084 1819 3084 
Q 2600 3084 3056 2656 
Q 3513 2228 3513 1497 
Q 3513 744 3044 326 
Q 2575 -91 1722 -91 
Q 1428 -91 1123 -41 
Q 819 9 494 109 
L 494 744 
Q 775 591 1075 516 
Q 1375 441 1709 441 
Q 2250 441 2565 725 
Q 2881 1009 2881 1497 
Q 2881 1984 2565 2268 
Q 2250 2553 1709 2553 
Q 1456 2553 1204 2497 
Q 953 2441 691 2322 
L 691 4666 
z
" transform="scale(0.015625)"/>
      </defs>
      <use xlink:href="#DejaVuSans-35"/>
     </g>
    </g>
   </g>
   <g id="text_7">
    <g clip-path="url(#p1125651865)">
     <!-- 6 -->
     <g transform="translate(140.167743 124.614375) scale(0.07 -0.07)">
      <defs>
       <path id="DejaVuSans-36" d="M 2113 2584 
Q 1688 2584 1439 2293 
Q 1191 2003 1191 1497 
Q 1191 994 1439 701 
Q 1688 409 2113 409 
Q 2538 409 2786 701 
Q 3034 994 3034 1497 
Q 3034 2003 2786 2293 
Q 2538 2584 2113 2584 
z
M 3366 4563 
L 3366 3988 
Q 3128 4100 2886 4159 
Q 2644 4219 2406 4219 
Q 1781 4219 1451 3797 
Q 1122 3375 1075 2522 
Q 1259 2794 1537 2939 
Q 1816 3084 2150 3084 
Q 2853 3084 3261 2657 
Q 3669 2231 3669 1497 
Q 3669 778 3244 343 
Q 2819 -91 2113 -91 
Q 1303 -91 875 529 
Q 447 1150 447 2328 
Q 447 3434 972 4092 
Q 1497 4750 2381 4750 
Q 2619 4750 2861 4703 
Q 3103 4656 3366 4563 
z
" transform="scale(0.015625)"/>
      </defs>
      <use xlink:href="#DejaVuSans-36"/>
     </g>
    </g>
   </g>
   <g id="text_8">
    <g clip-path="url(#p1125651865)">
     <!-- 7 -->
     <g transform="translate(197.653597 167.326489) scale(0.07 -0.07)">
      <defs>
       <path id="DejaVuSans-37" d="M 525 4666 
L 3525 4666 
L 3525 4397 
L 1831 0 
L 1172 0 
L 2766 4134 
L 525 4134 
L 525 4666 
z
" transform="scale(0.015625)"/>
      </defs>
      <use xlink:href="#DejaVuSans-37"/>
     </g>
    </g>
   </g>
   <g id="text_9">
    <g clip-path="url(#p1125651865)">
     <!-- 8 -->
     <g transform="translate(273.702898 97.626768) scale(0.07 -0.07)">
      <defs>
       <path id="DejaVuSans-38" d="M 2034 2216 
Q 1584 2216 1326 1975 
Q 1069 1734 1069 1313 
Q 1069 891 1326 650 
Q 1584 409 2034 409 
Q 2484 409 2743 651 
Q 3003 894 3003 1313 
Q 3003 1734 2745 1975 
Q 2488 2216 2034 2216 
z
M 1403 2484 
Q 997 2584 770 2862 
Q 544 3141 544 3541 
Q 544 4100 942 4425 
Q 1341 4750 2034 4750 
Q 2731 4750 3128 4425 
Q 3525 4100 3525 3541 
Q 3525 3141 3298 2862 
Q 3072 2584 2669 2484 
Q 3125 2378 3379 2068 
Q 3634 1759 3634 1313 
Q 3634 634 3220 271 
Q 2806 -91 2034 -91 
Q 1263 -91 848 271 
Q 434 634 434 1313 
Q 434 1759 690 2068 
Q 947 2378 1403 2484 
z
M 1172 3481 
Q 1172 3119 1398 2916 
Q 1625 2713 2034 2713 
Q 2441 2713 2670 2916 
Q 2900 3119 2900 3481 
Q 2900 3844 2670 4047 
Q 2441 4250 2034 4250 
Q 1625 4250 1398 4047 
Q 1172 3844 1172 3481 
z
" transform="scale(0.015625)"/>
      </defs>
      <use xlink:href="#DejaVuSans-38"/>
     </g>
    </g>
   </g>
   <g id="text_10">
    <g clip-path="url(#p1125651865)">
     <!-- 9 -->
     <g transform="translate(144.811561 67.069199) scale(0.07 -0.07)">
      <defs>
       <path id="DejaVuSans-39" d="M 703 97 
L 703 672 
Q 941 559 1184 500 
Q 1428 441 1663 441 
Q 2288 441 2617 861 
Q 2947 1281 2994 2138 
Q 2813 1869 2534 1725 
Q 2256 1581 1919 1581 
Q 1219 1581 811 2004 
Q 403 2428 403 3163 
Q 403 3881 828 4315 
Q 1253 4750 1959 4750 
Q 2769 4750 3195 4129 
Q 3622 3509 3622 2328 
Q 3622 1225 3098 567 
Q 2575 -91 1691 -91 
Q 1453 -91 1209 -44 
Q 966 3 703 97 
z
M 1959 2075 
Q 2384 2075 2632 2365 
Q 2881 2656 2881 3163 
Q 2881 3666 2632 3958 
Q 2384 4250 1959 4250 
Q 1534 4250 1286 3958 
Q 1038 3666 1038 3163 
Q 1038 2656 1286 2365 
Q 1534 2075 1959 2075 
z
" transform="scale(0.015625)"/>
      </defs>
      <use xlink:href="#DejaVuSans-39"/>
     </g>
    </g>
   </g>
   <g id="text_11">
    <g clip-path="url(#p1125651865)">
     <!-- 10 -->
     <g transform="translate(90.397408 183.316963) scale(0.07 -0.07)">
      <use xlink:href="#DejaVuSans-31"/>
      <use xlink:href="#DejaVuSans-30" x="63.623047"/>
     </g>
    </g>
   </g>
   <g id="text_12">
    <g clip-path="url(#p1125651865)">
     <!-- 11 -->
     <g transform="translate(198.228959 68.493364) scale(0.07 -0.07)">
      <use xlink:href="#DejaVuSans-31"/>
      <use xlink:href="#DejaVuSans-31" x="63.623047"/>
     </g>
    </g>
   </g>
   <g id="text_13">
    <g clip-path="url(#p1125651865)">
     <!-- 12 -->
     <g transform="translate(316.103865 162.370707) scale(0.07 -0.07)">
      <use xlink:href="#DejaVuSans-31"/>
      <use xlink:href="#DejaVuSans-32" x="63.623047"/>
     </g>
    </g>
   </g>
   <g id="text_14">
    <g clip-path="url(#p1125651865)">
     <!-- 13 -->
     <g transform="translate(144.305201 192.302576) scale(0.07 -0.07)">
      <use xlink:href="#DejaVuSans-31"/>
      <use xlink:href="#DejaVuSans-33" x="63.623047"/>
     </g>
    </g>
   </g>
   <g id="text_15">
    <g clip-path="url(#p1125651865)">
     <!-- 14 -->
     <g transform="translate(154.985179 149.729114) scale(0.07 -0.07)">
      <use xlink:href="#DejaVuSans-31"/>
      <use xlink:href="#DejaVuSans-34" x="63.623047"/>
     </g>
    </g>
   </g>
   <g id="text_16">
    <g clip-path="url(#p1125651865)">
     <!-- 15 -->
     <g transform="translate(180.461434 285.849926) scale(0.07 -0.07)">
      <use xlink:href="#DejaVuSans-31"/>
      <use xlink:href="#DejaVuSans-35" x="63.623047"/>
     </g>
    </g>
   </g>
   <g id="text_17">
    <g clip-path="url(#p1125651865)">
     <!-- 16 -->
     <g transform="translate(160.270025 227.449444) scale(0.07 -0.07)">
      <use xlink:href="#DejaVuSans-31"/>
      <use xlink:href="#DejaVuSans-36" x="63.623047"/>
     </g>
    </g>
   </g>
   <g id="text_18">
    <g clip-path="url(#p1125651865)">
     <!-- 17 -->
     <g transform="translate(378.877997 157.417405) scale(0.07 -0.07)">
      <use xlink:href="#DejaVuSans-31"/>
      <use xlink:href="#DejaVuSans-37" x="63.623047"/>
     </g>
    </g>
   </g>
   <g id="text_19">
    <g clip-path="url(#p1125651865)">
     <!-- 18 -->
     <g transform="translate(281.798494 236.715094) scale(0.07 -0.07)">
      <use xlink:href="#DejaVuSans-31"/>
      <use xlink:href="#DejaVuSans-38" x="63.623047"/>
     </g>
    </g>
   </g>
   <g id="text_20">
    <g clip-path="url(#p1125651865)">
     <!-- 19 -->
     <g transform="translate(267.067716 191.201459) scale(0.07 -0.07)">
      <use xlink:href="#DejaVuSans-31"/>
      <use xlink:href="#DejaVuSans-39" x="63.623047"/>
     </g>
    </g>
   </g>
   <g id="PathCollection_1"/>
   <g id="PathCollection_2"/>
   <g id="matplotlib.axis_1"/>
   <g id="matplotlib.axis_2"/>
   <g id="text_21">
    <g id="patch_3">
     <path d="M 280.85135 83.020553 
L 407.5776 83.020553 
Q 414.5776 83.020553 414.5776 76.020553 
L 414.5776 46.79424 
Q 414.5776 39.79424 407.5776 39.79424 
L 280.85135 39.79424 
Q 273.85135 39.79424 273.85135 46.79424 
L 273.85135 76.020553 
Q 273.85135 83.020553 280.85135 83.020553 
z
" style="fill: #ffffff; opacity: 0.2; stroke: #000000; stroke-linejoin: miter"/>
    </g>
    <!-- Total Cuts: 22.591 -->
    <g transform="translate(280.85135 57.432052) scale(0.14 -0.14)">
     <defs>
      <path id="DejaVuSans-54" d="M -19 4666 
L 3928 4666 
L 3928 4134 
L 2272 4134 
L 2272 0 
L 1638 0 
L 1638 4134 
L -19 4134 
L -19 4666 
z
" transform="scale(0.015625)"/>
      <path id="DejaVuSans-6f" d="M 1959 3097 
Q 1497 3097 1228 2736 
Q 959 2375 959 1747 
Q 959 1119 1226 758 
Q 1494 397 1959 397 
Q 2419 397 2687 759 
Q 2956 1122 2956 1747 
Q 2956 2369 2687 2733 
Q 2419 3097 1959 3097 
z
M 1959 3584 
Q 2709 3584 3137 3096 
Q 3566 2609 3566 1747 
Q 3566 888 3137 398 
Q 2709 -91 1959 -91 
Q 1206 -91 779 398 
Q 353 888 353 1747 
Q 353 2609 779 3096 
Q 1206 3584 1959 3584 
z
" transform="scale(0.015625)"/>
      <path id="DejaVuSans-74" d="M 1172 4494 
L 1172 3500 
L 2356 3500 
L 2356 3053 
L 1172 3053 
L 1172 1153 
Q 1172 725 1289 603 
Q 1406 481 1766 481 
L 2356 481 
L 2356 0 
L 1766 0 
Q 1100 0 847 248 
Q 594 497 594 1153 
L 594 3053 
L 172 3053 
L 172 3500 
L 594 3500 
L 594 4494 
L 1172 4494 
z
" transform="scale(0.015625)"/>
      <path id="DejaVuSans-61" d="M 2194 1759 
Q 1497 1759 1228 1600 
Q 959 1441 959 1056 
Q 959 750 1161 570 
Q 1363 391 1709 391 
Q 2188 391 2477 730 
Q 2766 1069 2766 1631 
L 2766 1759 
L 2194 1759 
z
M 3341 1997 
L 3341 0 
L 2766 0 
L 2766 531 
Q 2569 213 2275 61 
Q 1981 -91 1556 -91 
Q 1019 -91 701 211 
Q 384 513 384 1019 
Q 384 1609 779 1909 
Q 1175 2209 1959 2209 
L 2766 2209 
L 2766 2266 
Q 2766 2663 2505 2880 
Q 2244 3097 1772 3097 
Q 1472 3097 1187 3025 
Q 903 2953 641 2809 
L 641 3341 
Q 956 3463 1253 3523 
Q 1550 3584 1831 3584 
Q 2591 3584 2966 3190 
Q 3341 2797 3341 1997 
z
" transform="scale(0.015625)"/>
      <path id="DejaVuSans-6c" d="M 603 4863 
L 1178 4863 
L 1178 0 
L 603 0 
L 603 4863 
z
" transform="scale(0.015625)"/>
      <path id="DejaVuSans-20" transform="scale(0.015625)"/>
      <path id="DejaVuSans-43" d="M 4122 4306 
L 4122 3641 
Q 3803 3938 3442 4084 
Q 3081 4231 2675 4231 
Q 1875 4231 1450 3742 
Q 1025 3253 1025 2328 
Q 1025 1406 1450 917 
Q 1875 428 2675 428 
Q 3081 428 3442 575 
Q 3803 722 4122 1019 
L 4122 359 
Q 3791 134 3420 21 
Q 3050 -91 2638 -91 
Q 1578 -91 968 557 
Q 359 1206 359 2328 
Q 359 3453 968 4101 
Q 1578 4750 2638 4750 
Q 3056 4750 3426 4639 
Q 3797 4528 4122 4306 
z
" transform="scale(0.015625)"/>
      <path id="DejaVuSans-75" d="M 544 1381 
L 544 3500 
L 1119 3500 
L 1119 1403 
Q 1119 906 1312 657 
Q 1506 409 1894 409 
Q 2359 409 2629 706 
Q 2900 1003 2900 1516 
L 2900 3500 
L 3475 3500 
L 3475 0 
L 2900 0 
L 2900 538 
Q 2691 219 2414 64 
Q 2138 -91 1772 -91 
Q 1169 -91 856 284 
Q 544 659 544 1381 
z
M 1991 3584 
L 1991 3584 
z
" transform="scale(0.015625)"/>
      <path id="DejaVuSans-73" d="M 2834 3397 
L 2834 2853 
Q 2591 2978 2328 3040 
Q 2066 3103 1784 3103 
Q 1356 3103 1142 2972 
Q 928 2841 928 2578 
Q 928 2378 1081 2264 
Q 1234 2150 1697 2047 
L 1894 2003 
Q 2506 1872 2764 1633 
Q 3022 1394 3022 966 
Q 3022 478 2636 193 
Q 2250 -91 1575 -91 
Q 1294 -91 989 -36 
Q 684 19 347 128 
L 347 722 
Q 666 556 975 473 
Q 1284 391 1588 391 
Q 1994 391 2212 530 
Q 2431 669 2431 922 
Q 2431 1156 2273 1281 
Q 2116 1406 1581 1522 
L 1381 1569 
Q 847 1681 609 1914 
Q 372 2147 372 2553 
Q 372 3047 722 3315 
Q 1072 3584 1716 3584 
Q 2034 3584 2315 3537 
Q 2597 3491 2834 3397 
z
" transform="scale(0.015625)"/>
      <path id="DejaVuSans-3a" d="M 750 794 
L 1409 794 
L 1409 0 
L 750 0 
L 750 794 
z
M 750 3309 
L 1409 3309 
L 1409 2516 
L 750 2516 
L 750 3309 
z
" transform="scale(0.015625)"/>
      <path id="DejaVuSans-2e" d="M 684 794 
L 1344 794 
L 1344 0 
L 684 0 
L 684 794 
z
" transform="scale(0.015625)"/>
     </defs>
     <use xlink:href="#DejaVuSans-54"/>
     <use xlink:href="#DejaVuSans-6f" x="44.083984"/>
     <use xlink:href="#DejaVuSans-74" x="105.265625"/>
     <use xlink:href="#DejaVuSans-61" x="144.474609"/>
     <use xlink:href="#DejaVuSans-6c" x="205.753906"/>
     <use xlink:href="#DejaVuSans-20" x="233.537109"/>
     <use xlink:href="#DejaVuSans-43" x="265.324219"/>
     <use xlink:href="#DejaVuSans-75" x="335.148438"/>
     <use xlink:href="#DejaVuSans-74" x="398.527344"/>
     <use xlink:href="#DejaVuSans-73" x="437.736328"/>
     <use xlink:href="#DejaVuSans-3a" x="489.835938"/>
     <use xlink:href="#DejaVuSans-20" x="523.527344"/>
     <use xlink:href="#DejaVuSans-32" x="555.314453"/>
     <use xlink:href="#DejaVuSans-32" x="618.9375"/>
     <use xlink:href="#DejaVuSans-2e" x="682.560547"/>
     <use xlink:href="#DejaVuSans-35" x="714.347656"/>
     <use xlink:href="#DejaVuSans-39" x="777.970703"/>
     <use xlink:href="#DejaVuSans-31" x="841.59375"/>
    </g>
    <!-- Runtime (s): 0.05 -->
    <g transform="translate(286.10135 73.10899) scale(0.14 -0.14)">
     <defs>
      <path id="DejaVuSans-52" d="M 2841 2188 
Q 3044 2119 3236 1894 
Q 3428 1669 3622 1275 
L 4263 0 
L 3584 0 
L 2988 1197 
Q 2756 1666 2539 1819 
Q 2322 1972 1947 1972 
L 1259 1972 
L 1259 0 
L 628 0 
L 628 4666 
L 2053 4666 
Q 2853 4666 3247 4331 
Q 3641 3997 3641 3322 
Q 3641 2881 3436 2590 
Q 3231 2300 2841 2188 
z
M 1259 4147 
L 1259 2491 
L 2053 2491 
Q 2509 2491 2742 2702 
Q 2975 2913 2975 3322 
Q 2975 3731 2742 3939 
Q 2509 4147 2053 4147 
L 1259 4147 
z
" transform="scale(0.015625)"/>
      <path id="DejaVuSans-6e" d="M 3513 2113 
L 3513 0 
L 2938 0 
L 2938 2094 
Q 2938 2591 2744 2837 
Q 2550 3084 2163 3084 
Q 1697 3084 1428 2787 
Q 1159 2491 1159 1978 
L 1159 0 
L 581 0 
L 581 3500 
L 1159 3500 
L 1159 2956 
Q 1366 3272 1645 3428 
Q 1925 3584 2291 3584 
Q 2894 3584 3203 3211 
Q 3513 2838 3513 2113 
z
" transform="scale(0.015625)"/>
      <path id="DejaVuSans-69" d="M 603 3500 
L 1178 3500 
L 1178 0 
L 603 0 
L 603 3500 
z
M 603 4863 
L 1178 4863 
L 1178 4134 
L 603 4134 
L 603 4863 
z
" transform="scale(0.015625)"/>
      <path id="DejaVuSans-6d" d="M 3328 2828 
Q 3544 3216 3844 3400 
Q 4144 3584 4550 3584 
Q 5097 3584 5394 3201 
Q 5691 2819 5691 2113 
L 5691 0 
L 5113 0 
L 5113 2094 
Q 5113 2597 4934 2840 
Q 4756 3084 4391 3084 
Q 3944 3084 3684 2787 
Q 3425 2491 3425 1978 
L 3425 0 
L 2847 0 
L 2847 2094 
Q 2847 2600 2669 2842 
Q 2491 3084 2119 3084 
Q 1678 3084 1418 2786 
Q 1159 2488 1159 1978 
L 1159 0 
L 581 0 
L 581 3500 
L 1159 3500 
L 1159 2956 
Q 1356 3278 1631 3431 
Q 1906 3584 2284 3584 
Q 2666 3584 2933 3390 
Q 3200 3197 3328 2828 
z
" transform="scale(0.015625)"/>
      <path id="DejaVuSans-65" d="M 3597 1894 
L 3597 1613 
L 953 1613 
Q 991 1019 1311 708 
Q 1631 397 2203 397 
Q 2534 397 2845 478 
Q 3156 559 3463 722 
L 3463 178 
Q 3153 47 2828 -22 
Q 2503 -91 2169 -91 
Q 1331 -91 842 396 
Q 353 884 353 1716 
Q 353 2575 817 3079 
Q 1281 3584 2069 3584 
Q 2775 3584 3186 3129 
Q 3597 2675 3597 1894 
z
M 3022 2063 
Q 3016 2534 2758 2815 
Q 2500 3097 2075 3097 
Q 1594 3097 1305 2825 
Q 1016 2553 972 2059 
L 3022 2063 
z
" transform="scale(0.015625)"/>
      <path id="DejaVuSans-28" d="M 1984 4856 
Q 1566 4138 1362 3434 
Q 1159 2731 1159 2009 
Q 1159 1288 1364 580 
Q 1569 -128 1984 -844 
L 1484 -844 
Q 1016 -109 783 600 
Q 550 1309 550 2009 
Q 550 2706 781 3412 
Q 1013 4119 1484 4856 
L 1984 4856 
z
" transform="scale(0.015625)"/>
      <path id="DejaVuSans-29" d="M 513 4856 
L 1013 4856 
Q 1481 4119 1714 3412 
Q 1947 2706 1947 2009 
Q 1947 1309 1714 600 
Q 1481 -109 1013 -844 
L 513 -844 
Q 928 -128 1133 580 
Q 1338 1288 1338 2009 
Q 1338 2731 1133 3434 
Q 928 4138 513 4856 
z
" transform="scale(0.015625)"/>
     </defs>
     <use xlink:href="#DejaVuSans-52"/>
     <use xlink:href="#DejaVuSans-75" x="64.982422"/>
     <use xlink:href="#DejaVuSans-6e" x="128.361328"/>
     <use xlink:href="#DejaVuSans-74" x="191.740234"/>
     <use xlink:href="#DejaVuSans-69" x="230.949219"/>
     <use xlink:href="#DejaVuSans-6d" x="258.732422"/>
     <use xlink:href="#DejaVuSans-65" x="356.144531"/>
     <use xlink:href="#DejaVuSans-20" x="417.667969"/>
     <use xlink:href="#DejaVuSans-28" x="449.455078"/>
     <use xlink:href="#DejaVuSans-73" x="488.46875"/>
     <use xlink:href="#DejaVuSans-29" x="540.568359"/>
     <use xlink:href="#DejaVuSans-3a" x="579.582031"/>
     <use xlink:href="#DejaVuSans-20" x="613.273438"/>
     <use xlink:href="#DejaVuSans-30" x="645.060547"/>
     <use xlink:href="#DejaVuSans-2e" x="708.683594"/>
     <use xlink:href="#DejaVuSans-30" x="740.470703"/>
     <use xlink:href="#DejaVuSans-35" x="804.09375"/>
    </g>
   </g>
   <g id="text_22">
    <!-- Weighted, 20 vertices, 19.474% density -->
    <g transform="translate(78.827344 35.472) scale(0.14 -0.14)">
     <defs>
      <path id="DejaVuSans-Bold-57" d="M 191 4666 
L 1344 4666 
L 2150 1275 
L 2950 4666 
L 4109 4666 
L 4909 1275 
L 5716 4666 
L 6859 4666 
L 5759 0 
L 4372 0 
L 3525 3547 
L 2688 0 
L 1300 0 
L 191 4666 
z
" transform="scale(0.015625)"/>
      <path id="DejaVuSans-Bold-65" d="M 4031 1759 
L 4031 1441 
L 1416 1441 
Q 1456 1047 1700 850 
Q 1944 653 2381 653 
Q 2734 653 3104 758 
Q 3475 863 3866 1075 
L 3866 213 
Q 3469 63 3072 -14 
Q 2675 -91 2278 -91 
Q 1328 -91 801 392 
Q 275 875 275 1747 
Q 275 2603 792 3093 
Q 1309 3584 2216 3584 
Q 3041 3584 3536 3087 
Q 4031 2591 4031 1759 
z
M 2881 2131 
Q 2881 2450 2695 2645 
Q 2509 2841 2209 2841 
Q 1884 2841 1681 2658 
Q 1478 2475 1428 2131 
L 2881 2131 
z
" transform="scale(0.015625)"/>
      <path id="DejaVuSans-Bold-69" d="M 538 3500 
L 1656 3500 
L 1656 0 
L 538 0 
L 538 3500 
z
M 538 4863 
L 1656 4863 
L 1656 3950 
L 538 3950 
L 538 4863 
z
" transform="scale(0.015625)"/>
      <path id="DejaVuSans-Bold-67" d="M 2919 594 
Q 2688 288 2409 144 
Q 2131 0 1766 0 
Q 1125 0 706 504 
Q 288 1009 288 1791 
Q 288 2575 706 3076 
Q 1125 3578 1766 3578 
Q 2131 3578 2409 3434 
Q 2688 3291 2919 2981 
L 2919 3500 
L 4044 3500 
L 4044 353 
Q 4044 -491 3511 -936 
Q 2978 -1381 1966 -1381 
Q 1638 -1381 1331 -1331 
Q 1025 -1281 716 -1178 
L 716 -306 
Q 1009 -475 1290 -558 
Q 1572 -641 1856 -641 
Q 2406 -641 2662 -400 
Q 2919 -159 2919 353 
L 2919 594 
z
M 2181 2772 
Q 1834 2772 1640 2515 
Q 1447 2259 1447 1791 
Q 1447 1309 1634 1061 
Q 1822 813 2181 813 
Q 2531 813 2725 1069 
Q 2919 1325 2919 1791 
Q 2919 2259 2725 2515 
Q 2531 2772 2181 2772 
z
" transform="scale(0.015625)"/>
      <path id="DejaVuSans-Bold-68" d="M 4056 2131 
L 4056 0 
L 2931 0 
L 2931 347 
L 2931 1625 
Q 2931 2084 2911 2256 
Q 2891 2428 2841 2509 
Q 2775 2619 2662 2680 
Q 2550 2741 2406 2741 
Q 2056 2741 1856 2470 
Q 1656 2200 1656 1722 
L 1656 0 
L 538 0 
L 538 4863 
L 1656 4863 
L 1656 2988 
Q 1909 3294 2193 3439 
Q 2478 3584 2822 3584 
Q 3428 3584 3742 3212 
Q 4056 2841 4056 2131 
z
" transform="scale(0.015625)"/>
      <path id="DejaVuSans-Bold-74" d="M 1759 4494 
L 1759 3500 
L 2913 3500 
L 2913 2700 
L 1759 2700 
L 1759 1216 
Q 1759 972 1856 886 
Q 1953 800 2241 800 
L 2816 800 
L 2816 0 
L 1856 0 
Q 1194 0 917 276 
Q 641 553 641 1216 
L 641 2700 
L 84 2700 
L 84 3500 
L 641 3500 
L 641 4494 
L 1759 4494 
z
" transform="scale(0.015625)"/>
      <path id="DejaVuSans-Bold-64" d="M 2919 2988 
L 2919 4863 
L 4044 4863 
L 4044 0 
L 2919 0 
L 2919 506 
Q 2688 197 2409 53 
Q 2131 -91 1766 -91 
Q 1119 -91 703 423 
Q 288 938 288 1747 
Q 288 2556 703 3070 
Q 1119 3584 1766 3584 
Q 2128 3584 2408 3439 
Q 2688 3294 2919 2988 
z
M 2181 722 
Q 2541 722 2730 984 
Q 2919 1247 2919 1747 
Q 2919 2247 2730 2509 
Q 2541 2772 2181 2772 
Q 1825 2772 1636 2509 
Q 1447 2247 1447 1747 
Q 1447 1247 1636 984 
Q 1825 722 2181 722 
z
" transform="scale(0.015625)"/>
      <path id="DejaVuSans-Bold-2c" d="M 653 1209 
L 1778 1209 
L 1778 256 
L 1006 -909 
L 341 -909 
L 653 256 
L 653 1209 
z
" transform="scale(0.015625)"/>
      <path id="DejaVuSans-Bold-20" transform="scale(0.015625)"/>
      <path id="DejaVuSans-Bold-32" d="M 1844 884 
L 3897 884 
L 3897 0 
L 506 0 
L 506 884 
L 2209 2388 
Q 2438 2594 2547 2791 
Q 2656 2988 2656 3200 
Q 2656 3528 2436 3728 
Q 2216 3928 1850 3928 
Q 1569 3928 1234 3808 
Q 900 3688 519 3450 
L 519 4475 
Q 925 4609 1322 4679 
Q 1719 4750 2100 4750 
Q 2938 4750 3402 4381 
Q 3866 4013 3866 3353 
Q 3866 2972 3669 2642 
Q 3472 2313 2841 1759 
L 1844 884 
z
" transform="scale(0.015625)"/>
      <path id="DejaVuSans-Bold-30" d="M 2944 2338 
Q 2944 3213 2780 3570 
Q 2616 3928 2228 3928 
Q 1841 3928 1675 3570 
Q 1509 3213 1509 2338 
Q 1509 1453 1675 1090 
Q 1841 728 2228 728 
Q 2613 728 2778 1090 
Q 2944 1453 2944 2338 
z
M 4147 2328 
Q 4147 1169 3647 539 
Q 3147 -91 2228 -91 
Q 1306 -91 806 539 
Q 306 1169 306 2328 
Q 306 3491 806 4120 
Q 1306 4750 2228 4750 
Q 3147 4750 3647 4120 
Q 4147 3491 4147 2328 
z
" transform="scale(0.015625)"/>
      <path id="DejaVuSans-Bold-76" d="M 97 3500 
L 1216 3500 
L 2088 1081 
L 2956 3500 
L 4078 3500 
L 2700 0 
L 1472 0 
L 97 3500 
z
" transform="scale(0.015625)"/>
      <path id="DejaVuSans-Bold-72" d="M 3138 2547 
Q 2991 2616 2845 2648 
Q 2700 2681 2553 2681 
Q 2122 2681 1889 2404 
Q 1656 2128 1656 1613 
L 1656 0 
L 538 0 
L 538 3500 
L 1656 3500 
L 1656 2925 
Q 1872 3269 2151 3426 
Q 2431 3584 2822 3584 
Q 2878 3584 2943 3579 
Q 3009 3575 3134 3559 
L 3138 2547 
z
" transform="scale(0.015625)"/>
      <path id="DejaVuSans-Bold-63" d="M 3366 3391 
L 3366 2478 
Q 3138 2634 2908 2709 
Q 2678 2784 2431 2784 
Q 1963 2784 1702 2511 
Q 1441 2238 1441 1747 
Q 1441 1256 1702 982 
Q 1963 709 2431 709 
Q 2694 709 2930 787 
Q 3166 866 3366 1019 
L 3366 103 
Q 3103 6 2833 -42 
Q 2563 -91 2291 -91 
Q 1344 -91 809 395 
Q 275 881 275 1747 
Q 275 2613 809 3098 
Q 1344 3584 2291 3584 
Q 2566 3584 2833 3536 
Q 3100 3488 3366 3391 
z
" transform="scale(0.015625)"/>
      <path id="DejaVuSans-Bold-73" d="M 3272 3391 
L 3272 2541 
Q 2913 2691 2578 2766 
Q 2244 2841 1947 2841 
Q 1628 2841 1473 2761 
Q 1319 2681 1319 2516 
Q 1319 2381 1436 2309 
Q 1553 2238 1856 2203 
L 2053 2175 
Q 2913 2066 3209 1816 
Q 3506 1566 3506 1031 
Q 3506 472 3093 190 
Q 2681 -91 1863 -91 
Q 1516 -91 1145 -36 
Q 775 19 384 128 
L 384 978 
Q 719 816 1070 734 
Q 1422 653 1784 653 
Q 2113 653 2278 743 
Q 2444 834 2444 1013 
Q 2444 1163 2330 1236 
Q 2216 1309 1875 1350 
L 1678 1375 
Q 931 1469 631 1722 
Q 331 1975 331 2491 
Q 331 3047 712 3315 
Q 1094 3584 1881 3584 
Q 2191 3584 2531 3537 
Q 2872 3491 3272 3391 
z
" transform="scale(0.015625)"/>
      <path id="DejaVuSans-Bold-31" d="M 750 831 
L 1813 831 
L 1813 3847 
L 722 3622 
L 722 4441 
L 1806 4666 
L 2950 4666 
L 2950 831 
L 4013 831 
L 4013 0 
L 750 0 
L 750 831 
z
" transform="scale(0.015625)"/>
      <path id="DejaVuSans-Bold-39" d="M 641 103 
L 641 966 
Q 928 831 1190 764 
Q 1453 697 1709 697 
Q 2247 697 2547 995 
Q 2847 1294 2900 1881 
Q 2688 1725 2447 1647 
Q 2206 1569 1925 1569 
Q 1209 1569 770 1986 
Q 331 2403 331 3084 
Q 331 3838 820 4291 
Q 1309 4744 2131 4744 
Q 3044 4744 3544 4128 
Q 4044 3513 4044 2388 
Q 4044 1231 3459 570 
Q 2875 -91 1856 -91 
Q 1528 -91 1228 -42 
Q 928 6 641 103 
z
M 2125 2350 
Q 2441 2350 2600 2554 
Q 2759 2759 2759 3169 
Q 2759 3575 2600 3781 
Q 2441 3988 2125 3988 
Q 1809 3988 1650 3781 
Q 1491 3575 1491 3169 
Q 1491 2759 1650 2554 
Q 1809 2350 2125 2350 
z
" transform="scale(0.015625)"/>
      <path id="DejaVuSans-Bold-2e" d="M 653 1209 
L 1778 1209 
L 1778 0 
L 653 0 
L 653 1209 
z
" transform="scale(0.015625)"/>
      <path id="DejaVuSans-Bold-34" d="M 2356 3675 
L 1038 1722 
L 2356 1722 
L 2356 3675 
z
M 2156 4666 
L 3494 4666 
L 3494 1722 
L 4159 1722 
L 4159 850 
L 3494 850 
L 3494 0 
L 2356 0 
L 2356 850 
L 288 850 
L 288 1881 
L 2156 4666 
z
" transform="scale(0.015625)"/>
      <path id="DejaVuSans-Bold-37" d="M 428 4666 
L 3944 4666 
L 3944 3988 
L 2125 0 
L 953 0 
L 2675 3781 
L 428 3781 
L 428 4666 
z
" transform="scale(0.015625)"/>
      <path id="DejaVuSans-Bold-25" d="M 4959 1925 
Q 4738 1925 4616 1733 
Q 4494 1541 4494 1184 
Q 4494 825 4614 633 
Q 4734 441 4959 441 
Q 5184 441 5303 633 
Q 5422 825 5422 1184 
Q 5422 1541 5301 1733 
Q 5181 1925 4959 1925 
z
M 4959 2450 
Q 5541 2450 5875 2112 
Q 6209 1775 6209 1184 
Q 6209 594 5875 251 
Q 5541 -91 4959 -91 
Q 4378 -91 4042 251 
Q 3706 594 3706 1184 
Q 3706 1772 4042 2111 
Q 4378 2450 4959 2450 
z
M 2094 -91 
L 1403 -91 
L 4319 4750 
L 5013 4750 
L 2094 -91 
z
M 1453 4750 
Q 2034 4750 2367 4411 
Q 2700 4072 2700 3481 
Q 2700 2891 2367 2550 
Q 2034 2209 1453 2209 
Q 872 2209 539 2550 
Q 206 2891 206 3481 
Q 206 4072 539 4411 
Q 872 4750 1453 4750 
z
M 1453 4225 
Q 1228 4225 1106 4031 
Q 984 3838 984 3481 
Q 984 3122 1106 2926 
Q 1228 2731 1453 2731 
Q 1678 2731 1798 2926 
Q 1919 3122 1919 3481 
Q 1919 3838 1797 4031 
Q 1675 4225 1453 4225 
z
" transform="scale(0.015625)"/>
      <path id="DejaVuSans-Bold-6e" d="M 4056 2131 
L 4056 0 
L 2931 0 
L 2931 347 
L 2931 1631 
Q 2931 2084 2911 2256 
Q 2891 2428 2841 2509 
Q 2775 2619 2662 2680 
Q 2550 2741 2406 2741 
Q 2056 2741 1856 2470 
Q 1656 2200 1656 1722 
L 1656 0 
L 538 0 
L 538 3500 
L 1656 3500 
L 1656 2988 
Q 1909 3294 2193 3439 
Q 2478 3584 2822 3584 
Q 3428 3584 3742 3212 
Q 4056 2841 4056 2131 
z
" transform="scale(0.015625)"/>
      <path id="DejaVuSans-Bold-79" d="M 78 3500 
L 1197 3500 
L 2138 1125 
L 2938 3500 
L 4056 3500 
L 2584 -331 
Q 2363 -916 2067 -1148 
Q 1772 -1381 1288 -1381 
L 641 -1381 
L 641 -647 
L 991 -647 
Q 1275 -647 1404 -556 
Q 1534 -466 1606 -231 
L 1638 -134 
L 78 3500 
z
" transform="scale(0.015625)"/>
     </defs>
     <use xlink:href="#DejaVuSans-Bold-57"/>
     <use xlink:href="#DejaVuSans-Bold-65" x="106.677734"/>
     <use xlink:href="#DejaVuSans-Bold-69" x="174.5"/>
     <use xlink:href="#DejaVuSans-Bold-67" x="208.777344"/>
     <use xlink:href="#DejaVuSans-Bold-68" x="280.359375"/>
     <use xlink:href="#DejaVuSans-Bold-74" x="351.550781"/>
     <use xlink:href="#DejaVuSans-Bold-65" x="399.353516"/>
     <use xlink:href="#DejaVuSans-Bold-64" x="467.175781"/>
     <use xlink:href="#DejaVuSans-Bold-2c" x="538.757812"/>
     <use xlink:href="#DejaVuSans-Bold-20" x="576.746094"/>
     <use xlink:href="#DejaVuSans-Bold-32" x="611.560547"/>
     <use xlink:href="#DejaVuSans-Bold-30" x="681.140625"/>
     <use xlink:href="#DejaVuSans-Bold-20" x="750.720703"/>
     <use xlink:href="#DejaVuSans-Bold-76" x="785.535156"/>
     <use xlink:href="#DejaVuSans-Bold-65" x="850.720703"/>
     <use xlink:href="#DejaVuSans-Bold-72" x="918.542969"/>
     <use xlink:href="#DejaVuSans-Bold-74" x="967.859375"/>
     <use xlink:href="#DejaVuSans-Bold-69" x="1015.662109"/>
     <use xlink:href="#DejaVuSans-Bold-63" x="1049.939453"/>
     <use xlink:href="#DejaVuSans-Bold-65" x="1109.216797"/>
     <use xlink:href="#DejaVuSans-Bold-73" x="1177.039062"/>
     <use xlink:href="#DejaVuSans-Bold-2c" x="1236.560547"/>
     <use xlink:href="#DejaVuSans-Bold-20" x="1274.548828"/>
     <use xlink:href="#DejaVuSans-Bold-31" x="1309.363281"/>
     <use xlink:href="#DejaVuSans-Bold-39" x="1378.943359"/>
     <use xlink:href="#DejaVuSans-Bold-2e" x="1448.523438"/>
     <use xlink:href="#DejaVuSans-Bold-34" x="1486.511719"/>
     <use xlink:href="#DejaVuSans-Bold-37" x="1556.091797"/>
     <use xlink:href="#DejaVuSans-Bold-34" x="1625.671875"/>
     <use xlink:href="#DejaVuSans-Bold-25" x="1695.251953"/>
     <use xlink:href="#DejaVuSans-Bold-20" x="1795.447266"/>
     <use xlink:href="#DejaVuSans-Bold-64" x="1830.261719"/>
     <use xlink:href="#DejaVuSans-Bold-65" x="1901.84375"/>
     <use xlink:href="#DejaVuSans-Bold-6e" x="1969.666016"/>
     <use xlink:href="#DejaVuSans-Bold-73" x="2040.857422"/>
     <use xlink:href="#DejaVuSans-Bold-69" x="2100.378906"/>
     <use xlink:href="#DejaVuSans-Bold-74" x="2134.65625"/>
     <use xlink:href="#DejaVuSans-Bold-79" x="2182.458984"/>
    </g>
   </g>
   <g id="legend_1">
    <g id="patch_4">
     <path d="M 7.914062 93.506375 
L 50.6 93.506375 
Q 52.6 93.506375 52.6 91.506375 
L 52.6 48.472 
Q 52.6 46.472 50.6 46.472 
L 7.914062 46.472 
Q 5.914062 46.472 5.914062 48.472 
L 5.914062 91.506375 
Q 5.914062 93.506375 7.914062 93.506375 
z
" style="fill: #ffffff; opacity: 0.8; stroke: #cccccc; stroke-linejoin: miter"/>
    </g>
    <g id="text_23">
     <!-- Cluster: -->
     <g transform="translate(9.914062 58.070438) scale(0.1 -0.1)">
      <defs>
       <path id="DejaVuSans-72" d="M 2631 2963 
Q 2534 3019 2420 3045 
Q 2306 3072 2169 3072 
Q 1681 3072 1420 2755 
Q 1159 2438 1159 1844 
L 1159 0 
L 581 0 
L 581 3500 
L 1159 3500 
L 1159 2956 
Q 1341 3275 1631 3429 
Q 1922 3584 2338 3584 
Q 2397 3584 2469 3576 
Q 2541 3569 2628 3553 
L 2631 2963 
z
" transform="scale(0.015625)"/>
      </defs>
      <use xlink:href="#DejaVuSans-43"/>
      <use xlink:href="#DejaVuSans-6c" x="69.824219"/>
      <use xlink:href="#DejaVuSans-75" x="97.607422"/>
      <use xlink:href="#DejaVuSans-73" x="160.986328"/>
      <use xlink:href="#DejaVuSans-74" x="213.085938"/>
      <use xlink:href="#DejaVuSans-65" x="252.294922"/>
      <use xlink:href="#DejaVuSans-72" x="313.818359"/>
      <use xlink:href="#DejaVuSans-3a" x="353.181641"/>
     </g>
    </g>
    <g id="PathCollection_3">
     <defs>
      <path id="m68fd2c5300" d="M 0 5 
C 1.326016 5 2.597899 4.473168 3.535534 3.535534 
C 4.473168 2.597899 5 1.326016 5 0 
C 5 -1.326016 4.473168 -2.597899 3.535534 -3.535534 
C 2.597899 -4.473168 1.326016 -5 0 -5 
C -1.326016 -5 -2.597899 -4.473168 -3.535534 -3.535534 
C -4.473168 -2.597899 -5 -1.326016 -5 0 
C -5 1.326016 -4.473168 2.597899 -3.535534 3.535534 
C -2.597899 4.473168 -1.326016 5 0 5 
z
" style="stroke: #000000"/>
     </defs>
     <g>
      <use xlink:href="#m68fd2c5300" x="22.075781" y="70.123563" style="fill: #add8e6; stroke: #000000"/>
     </g>
    </g>
    <g id="text_24">
     <!-- 0 -->
     <g transform="translate(40.075781 72.748563) scale(0.1 -0.1)">
      <use xlink:href="#DejaVuSans-30"/>
     </g>
    </g>
    <g id="PathCollection_4">
     <defs>
      <path id="mfdf48df345" d="M 0 5 
C 1.326016 5 2.597899 4.473168 3.535534 3.535534 
C 4.473168 2.597899 5 1.326016 5 0 
C 5 -1.326016 4.473168 -2.597899 3.535534 -3.535534 
C 2.597899 -4.473168 1.326016 -5 0 -5 
C -1.326016 -5 -2.597899 -4.473168 -3.535534 -3.535534 
C -4.473168 -2.597899 -5 -1.326016 -5 0 
C -5 1.326016 -4.473168 2.597899 -3.535534 3.535534 
C -2.597899 4.473168 -1.326016 5 0 5 
z
" style="stroke: #000000"/>
     </defs>
     <g>
      <use xlink:href="#mfdf48df345" x="22.075781" y="84.801688" style="fill: #9acd32; stroke: #000000"/>
     </g>
    </g>
    <g id="text_25">
     <!-- 1 -->
     <g transform="translate(40.075781 87.426688) scale(0.1 -0.1)">
      <use xlink:href="#DejaVuSans-31"/>
     </g>
    </g>
   </g>
  </g>
 </g>
 <defs>
  <clipPath id="p1125651865">
   <rect x="57.6" y="41.472" width="357.12" height="266.112"/>
  </clipPath>
 </defs>
</svg>
